<?xml version="1.0" encoding="iso-8859-1"?>
<!-- Generator: Adobe Illustrator 17.1.0, SVG Export Plug-In . SVG Version: 6.00 Build 0)  -->
<!DOCTYPE svg PUBLIC "-//W3C//DTD SVG 1.1//EN" "http://www.w3.org/Graphics/SVG/1.1/DTD/svg11.dtd">
<svg version="1.1" xmlns="http://www.w3.org/2000/svg" xmlns:xlink="http://www.w3.org/1999/xlink" x="0px" y="0px"
	 viewBox="0 0 1009.994 1009.976" style="enable-background:new 0 0 1009.994 1009.976;" xml:space="preserve">
<g id="cloud">
	<path id="label_3_" style="fill:#EFEFEF;" d="M505,1009.976c278.89,0,504.994-226.094,504.994-504.988
		C1009.994,226.092,783.89,0,505,0C226.105,0,0,226.092,0,504.988C0,783.882,226.105,1009.976,505,1009.976z"/>
	<g id="icon_5_">
		<path style="fill:#1CABEA;" d="M437.818,609.883c0.441-0.637,0.968-1.237,1.531-1.801c4.642-4.446,12.003-4.274,16.437,0.356
			c27.461,28.759,73.19,29.776,101.949,2.327c4.63-4.446,11.979-4.263,16.413,0.379c4.458,4.63,4.287,11.991-0.367,16.413
			c-37.995,36.329-98.483,34.944-134.8-3.05C435.099,620.453,434.744,614.304,437.818,609.883z M402.873,659.011
			c26.812,28.049,62.944,43.997,101.748,44.878c38.785,0.87,75.603-13.399,103.652-40.198c4.654-4.471,4.802-11.808,0.392-16.462
			c-4.434-4.63-11.807-4.789-16.438-0.355c-23.565,22.525-54.505,34.516-87.079,33.781c-32.618-0.759-62.944-14.147-85.469-37.701
			c-4.421-4.63-11.795-4.813-16.425-0.379c-0.6,0.551-1.114,1.164-1.531,1.8C398.623,648.82,398.991,654.944,402.873,659.011z
			 M368.872,691.494c35.496,37.137,83.325,58.24,134.671,59.404c51.375,1.176,100.075-17.711,137.236-53.207
			c4.654-4.458,4.802-11.795,0.343-16.449c-4.409-4.618-11.758-4.801-16.412-0.368c-32.654,31.21-75.475,47.818-120.641,46.79
			c-45.148-1.029-87.208-19.561-118.393-52.228c-4.434-4.642-11.795-4.801-16.45-0.368c-0.588,0.551-1.102,1.176-1.531,1.813
			C364.622,681.303,365.014,687.439,368.872,691.494z"/>
		<g id="cloud_1_">
			<path style="fill:#434A54;" d="M369.447,340.602c10.105,0,24.864,6.247,34.21,8.684c17.527-49.692,59.956-90.246,115.692-90.246
				c68.198,0,123.953,53.477,127.627,120.793c4.165-0.551,8.402-0.931,12.715-0.931c53.108,0,96.149,43.041,96.149,96.138
				c0,53.109-43.041,96.149-96.149,96.149c-39.538,0-229.32,0-290.244,0c-63.691,0-115.306-51.602-115.306-115.293
				C254.142,392.205,305.756,340.602,369.447,340.602z"/>
		</g>
	</g>
</g>
<g id="Layer_1">
</g>
</svg>
