<?xml version="1.0" encoding="iso-8859-1"?>
<!-- Generator: Adobe Illustrator 17.1.0, SVG Export Plug-In . SVG Version: 6.00 Build 0)  -->
<!DOCTYPE svg PUBLIC "-//W3C//DTD SVG 1.1//EN" "http://www.w3.org/Graphics/SVG/1.1/DTD/svg11.dtd">
<svg version="1.1" xmlns="http://www.w3.org/2000/svg" xmlns:xlink="http://www.w3.org/1999/xlink" x="0px" y="0px"
	 viewBox="0 0 1009.976 1009.988" style="enable-background:new 0 0 1009.976 1009.988;" xml:space="preserve">
<g id="computer-network">
	<path id="label_25_" style="fill:#EFEFEF;" d="M1009.976,504.975C1009.976,226.08,783.895,0,504.988,0
		C226.099,0,0,226.08,0,504.975c0,278.896,226.099,505.013,504.988,505.013C783.895,1009.988,1009.976,783.871,1009.976,504.975z"/>
	<g id="icon_27_">
		<g>
			<path style="fill:#434A54;" d="M288.247,460.526h175.685c18.801,0,34.069-15.28,34.075-34.1v-57.028v-12.346v-49.465
				c-0.006-18.814-15.274-34.069-34.075-34.1H288.247c-18.807,0.031-34.068,15.286-34.105,34.1v118.839
				C254.178,445.246,269.44,460.526,288.247,460.526z M272.734,307.587c0.031-8.445,7.055-15.482,15.512-15.5h175.685
				c8.451,0.018,15.47,7.055,15.5,15.5v112.642c-0.031,8.458-7.049,15.494-15.5,15.512H288.247
				c-8.457-0.018-15.482-7.055-15.512-15.512V307.587z"/>
			<path style="fill:#434A54;" d="M721.711,508.834h-77.949h-12.346h-85.359c-18.825,0.031-34.068,15.273-34.106,34.106V661.81
				c0.037,18.814,15.28,34.032,34.106,34.081h175.654c18.826-0.049,34.1-15.267,34.124-34.081V542.939
				C755.81,524.107,740.537,508.865,721.711,508.834z M737.242,655.569c-0.025,8.482-7.056,15.518-15.531,15.518H546.056
				c-8.463,0-15.482-7.037-15.494-15.518v-112.63c0.013-8.458,7.031-15.488,15.494-15.488h175.654
				c8.475,0,15.506,7.03,15.531,15.488V655.569z"/>
			<polygon style="fill:#434A54;" points="478.146,689.387 353.984,689.387 353.984,536.007 363.373,536.007 347.988,513.513 
				332.261,535.884 341.65,535.927 341.65,689.387 332.261,689.387 332.261,701.715 341.65,701.715 341.65,711.085 353.984,711.085 
				353.984,701.715 478.078,701.715 478.078,711.085 500.585,695.725 478.207,680.017 			"/>
			<path style="fill:#434A54;" d="M486.658,485.531c0-8.635-6.976-15.635-15.598-15.635H269.746c-8.623,0-15.604,7-15.604,15.635
				c0,8.635,6.981,15.592,15.604,15.592H471.06C479.683,501.123,486.658,494.166,486.658,485.531z M454.635,489.144h-38.246
				c-1.99,0-3.632-1.61-3.632-3.625c0-1.99,1.642-3.601,3.632-3.601h38.246c1.978,0,3.601,1.611,3.601,3.601
				C458.236,487.534,456.613,489.144,454.635,489.144z M466.779,489.144c-2.027,0-3.631-1.61-3.631-3.613
				c0-2.002,1.604-3.613,3.631-3.613c1.978,0,3.595,1.611,3.595,3.613C470.374,487.534,468.757,489.144,466.779,489.144z"/>
			<path style="fill:#434A54;" d="M728.839,705.285h-201.29c-8.623,0-15.599,6.976-15.599,15.599
				c0,8.616,6.976,15.604,15.599,15.604h201.29c8.646,0,15.629-6.988,15.629-15.604
				C744.468,712.261,737.486,705.285,728.839,705.285z M712.451,724.51h-38.264c-2.009,0-3.613-1.629-3.613-3.626
				c0-1.99,1.604-3.626,3.613-3.626h38.264c1.984,0,3.601,1.636,3.601,3.626C716.051,722.881,714.435,724.51,712.451,724.51z
				 M724.564,724.51c-1.972,0-3.638-1.629-3.638-3.626c0-1.99,1.666-3.626,3.638-3.626c1.996,0,3.638,1.636,3.638,3.626
				C728.202,722.881,726.56,724.51,724.564,724.51z"/>
		</g>
		<g>
			<path style="fill:#1CABEA;" d="M610.605,392.082c-13.412,0-24.301,10.913-24.301,24.313c0,13.412,10.889,24.325,24.301,24.325
				c13.437,0,24.314-10.913,24.314-24.325C634.919,402.996,624.042,392.082,610.605,392.082z"/>
			<path style="fill:#1CABEA;" d="M598.443,348.233v14.925c17.404-0.098,34.834,6.424,48.062,19.683
				c12.983,12.965,19.523,30.051,19.622,47.131h14.968c-0.099-20.914-8.109-41.816-24.02-57.727
				C640.932,356.103,619.657,348.086,598.443,348.233z"/>
			<path style="fill:#1CABEA;" d="M598.443,310.821v14.961c26.983-0.11,53.966,10.105,74.507,30.615
				c20.271,20.295,30.436,46.893,30.571,73.558h14.943c-0.11-30.486-11.746-60.905-34.969-84.14
				C660.052,322.383,629.259,310.735,598.443,310.821z"/>
			<path style="fill:#1CABEA;" d="M598.443,273.488v14.925c36.549-0.086,73.086,13.73,100.927,41.528
				c27.583,27.608,41.4,63.789,41.534,100.014l14.931,0.018c-0.123-40.089-15.421-80.098-45.907-110.572
				C679.184,288.676,638.814,273.377,598.443,273.488z"/>
		</g>
	</g>
</g>
<g id="Layer_1">
</g>
</svg>
