<?xml version="1.0" encoding="iso-8859-1"?>
<!-- Generator: Adobe Illustrator 17.1.0, SVG Export Plug-In . SVG Version: 6.00 Build 0)  -->
<!DOCTYPE svg PUBLIC "-//W3C//DTD SVG 1.1//EN" "http://www.w3.org/Graphics/SVG/1.1/DTD/svg11.dtd">
<svg version="1.1" xmlns="http://www.w3.org/2000/svg" xmlns:xlink="http://www.w3.org/1999/xlink" x="0px" y="0px"
	 viewBox="0 0 1009.994 1009.988" style="enable-background:new 0 0 1009.994 1009.988;" xml:space="preserve">
<g id="gamepad">
	<path id="label_5_" style="fill:#EFEFEF;" d="M504.988,1009.988c278.901,0,505.006-226.08,505.006-504.988
		c0-278.895-226.104-505-505.006-505C226.093,0,0,226.105,0,505C0,783.908,226.093,1009.988,504.988,1009.988z"/>
	<g id="icon_7_">
		<path style="fill:#434A54;" d="M371.432,560.859c1.494,1.194,2.695,3.717,2.695,5.622v20.522c0,1.893-1.543,3.466-3.454,3.466
			h-31.846c-1.911,0-3.454-1.574-3.454-3.466l0.049-20.522c0-1.905,1.2-4.428,2.694-5.622l13.963-11.17
			c1.482-1.219,3.92-1.219,5.414,0L371.432,560.859z M707.705,425.098v-16.817c0-7.685-6.198-13.865-13.865-13.865h-71.58
			c-7.667,0-13.865,6.179-13.865,13.865v14.417c13.352-6.651,29.054-10.57,47.353-10.57
			C676.152,412.127,693.447,416.971,707.705,425.098z M370.672,448.756h-31.846c-1.911,0-3.454,1.574-3.454,3.466v20.534
			c0,1.893,1.225,4.416,2.719,5.61l13.938,11.17c1.482,1.225,3.92,1.225,5.414,0l13.987-11.17c1.494-1.194,2.695-3.717,2.695-5.61
			v-20.534C374.126,450.329,372.583,448.756,370.672,448.756z M402.824,422.697v-14.417c0-7.685-6.197-13.865-13.841-13.865h-71.591
			c-7.667,0-13.865,6.179-13.865,13.865v16.817c14.257-8.127,31.527-12.971,51.957-12.971
			C373.771,412.127,389.486,416.046,402.824,422.697z M313.497,502.93c-1.176-1.494-3.724-2.713-5.609-2.713h-20.504
			c-1.911,0-3.478,1.568-3.478,3.472v31.852c0,1.88,1.567,3.454,3.478,3.454h20.504c1.886,0,4.434-1.2,5.609-2.683l11.207-13.981
			c1.188-1.488,1.188-3.913,0-5.408L313.497,502.93z M667.285,485.421c7.251-7.214,7.227-18.973,0-26.218
			c-7.251-7.227-18.985-7.251-26.261,0c-7.227,7.245-7.227,19.003,0,26.218C648.3,492.672,660.034,492.672,667.285,485.421z
			 M689.553,507.75c-7.227,7.214-7.227,18.966,0,26.224c7.251,7.227,19.01,7.251,26.235,0c7.276-7.257,7.276-19.009,0-26.224
			C708.562,500.493,696.804,500.493,689.553,507.75z M396.002,502.93l-11.17,13.969c-1.188,1.482-1.188,3.926,0,5.401l11.17,13.945
			c1.176,1.488,3.724,2.713,5.634,2.713l20.504,0.037c1.886,0,3.454-1.549,3.454-3.454v-31.852c0-1.904-1.567-3.472-3.454-3.472
			h-20.504C399.725,500.217,397.178,501.436,396.002,502.93z M755.841,520.231c0,0,0,184.767,0,207.812
			c0,23.045-19.573,38.797-45.858,9.744c-24.766-27.389-94.508-95.979-126.353-131.414c-0.49-0.447-1.005-0.924-1.494-1.372
			c-7.252,7.337-17.295,11.917-28.417,11.917c-18.495,0-33.903-12.64-38.417-29.696h-20.614
			c-4.52,17.056-19.94,29.696-38.423,29.696c-11.121,0-21.165-4.581-28.416-11.917c-0.49,0.447-1.004,0.925-1.494,1.372
			c-31.846,35.435-101.563,104.025-126.33,131.414c-26.31,29.053-45.882,13.301-45.882-9.744c0-23.045,0-207.812,0-207.812
			c0-57.151,46.323-103.45,103.425-103.45c21.998,0,42.343,6.896,59.074,18.593h10.766c2.548-8.843,10.631-15.372,20.308-15.372
			h22.966v-0.759c0-7.668,6.21-13.89,13.853-13.89h42.729c7.668,0,13.865,6.222,13.865,13.89v0.759h21.141
			c9.676,0,17.76,6.529,20.308,15.372h10.754c16.756-11.697,37.112-18.593,59.061-18.593
			C709.542,416.781,755.841,463.08,755.841,520.231z M442.84,519.612c0-48.656-39.415-88.072-88.09-88.072
			c-48.626,0-88.09,39.415-88.09,88.072c0,48.657,39.464,88.072,88.09,88.072C403.425,607.684,442.84,568.269,442.84,519.612z
			 M487.093,550.828c0-1.837-1.359-2.762-3.05-2.07l-21.116,8.819c-1.69,0.698-1.69,1.843,0,2.579l21.116,8.788
			c1.69,0.698,3.05-0.227,3.05-2.045V550.828z M547.03,557.576l-21.092-8.819c-1.69-0.692-3.062,0.233-3.062,2.07v16.07
			c0,1.819,1.371,2.744,3.062,2.045l21.092-8.788C548.745,559.419,548.745,558.274,547.03,557.576z M743.322,519.612
			c0-48.656-39.439-88.072-88.09-88.072c-48.65,0-88.09,39.415-88.09,88.072c0,48.657,39.439,88.072,88.09,88.072
			C703.883,607.684,743.322,568.269,743.322,519.612z M594.823,505.454c-7.251,7.245-7.251,18.966,0,26.224
			c7.227,7.227,18.985,7.245,26.236,0c7.227-7.257,7.227-18.979,0-26.224C613.809,498.19,602.05,498.19,594.823,505.454z
			 M643.327,553.963c-7.227,7.251-7.227,18.985,0,26.242c7.251,7.245,19.01,7.245,26.235,0c7.252-7.257,7.252-18.991,0-26.242
			C662.337,546.712,650.578,546.712,643.327,553.963z"/>
		<g>
			<path style="fill:#1CABEA;" d="M464.52,349.464c-4.066,4.054-4.066,10.65,0,14.698c4.091,4.072,10.656,4.072,14.723,0
				c14.257-14.208,37.234-14.208,51.474,0c4.066,4.072,10.681,4.072,14.698,0c4.091-4.042,4.091-10.656,0-14.698
				C523.121,327.123,486.86,327.123,464.52,349.464z"/>
			<path style="fill:#1CABEA;" d="M572.409,337.216c4.042-4.103,4.042-10.674,0-14.734c-37.26-37.229-97.626-37.229-134.812,0
				c-4.116,4.06-4.116,10.631,0,14.734c4.018,4.03,10.631,4.03,14.673,0c29.175-29.053,76.264-29.053,105.415,0
				C561.753,341.246,568.318,341.246,572.409,337.216z"/>
			<path style="fill:#1CABEA;" d="M425.325,310.239c44.07-43.91,115.239-43.91,159.357,0c4.018,4.024,10.607,4.024,14.674,0
				c4.091-4.066,4.091-10.65,0-14.734c-52.104-52.111-136.637-52.111-188.778,0c-4.042,4.084-4.042,10.668,0.024,14.734
				C414.668,314.263,421.258,314.263,425.325,310.239z"/>
		</g>
	</g>
</g>
<g id="Layer_1">
</g>
</svg>
