<?xml version="1.0" encoding="iso-8859-1"?>
<!-- Generator: Adobe Illustrator 17.1.0, SVG Export Plug-In . SVG Version: 6.00 Build 0)  -->
<!DOCTYPE svg PUBLIC "-//W3C//DTD SVG 1.1//EN" "http://www.w3.org/Graphics/SVG/1.1/DTD/svg11.dtd">
<svg version="1.1" xmlns="http://www.w3.org/2000/svg" xmlns:xlink="http://www.w3.org/1999/xlink" x="0px" y="0px"
	 viewBox="0 0 1009.976 1009.976" style="enable-background:new 0 0 1009.976 1009.976;" xml:space="preserve">
<g id="globe">
	<circle id="label_1_" style="fill:#EFEFEF;" cx="504.988" cy="504.988" r="504.988"/>
	<g id="icon_3_">
		<g>
			<path id="icon_2_" style="fill:#434A54;" d="M505.012,345.931c-87.857,0-159.057,71.224-159.057,159.069
				s71.2,159.045,159.057,159.045c87.809,0,159.021-71.2,159.021-159.045S592.821,345.931,505.012,345.931z M488.587,396.688h7.728
				v-9.174h-5.304h-1.494v-23.676h9.701v-12.101l0.563-1.286c1.715-0.049,3.442-0.147,5.23-0.147c7.717,0,15.323,0.576,22.733,1.715
				v7.937h11.109v12.591v17.637h-8.464l-7.288,7.227l-17.601,17.687l-9.186,9.186l-7.728-7.753V396.688z M458.91,357.346
				l2.841,2.878l-5.083,5.059h-8.696v8.684h12.114h6.222v40.138h-14v-29.017h-9.676v-14.012h-6.259v8.206l-6.039,6.026h-14.257
				l-3.944-3.895C426.022,370.88,441.823,362.674,458.91,357.346z M509.348,581.858h-13.032l-6.798,9.676v21.741L469.7,627.814
				v26.077l-22.231-20.283v-53.207l-23.725-22.255v-27.032l-16.352-12.101h-14.551l-10.411-10.387v-14.282l-6.945-4.312
				l-1.997,5.279l3.417,1.947v12.114l-8.696-10.631l-4.373-16.964l-3.87-0.967v-29.568c7.753-20.81,19.83-39.525,35.189-55.007
				l48.43,0.453l-1.91,10.179l-14.515,0.955l1.483,4.826l3.368,3.883l-3.907,6.283l-11.575-1.421l6.786,9.162l11.587,8.219
				l3.87,9.174l4.813-1.445v-23.689h13.082v2.915h13.535v16.413h-5.781v6.761h-5.818v4.36h8.194l-5.304,5.34l-2.18-2.192
				l-5.096,5.059v4.348l-4.605,4.618l-5.757,5.793l-6.798,6.773l-4.556,4.605v14.502h-6.333v-7.766h-20.773v8.746l20.332,19.315
				h40.579v3.883h14.515l15.984,20.283h12.542V581.858z M632.64,491.919v12.579h-20.785l-10.179-10.154v-6.736h-6.014v9.431
				l13.742,13.755h15.752v11.391l-14.294,14.232v20.798v19.328H600.01v20.528l-8.451,8.452h-19.916v-18.238l-10.741-10.742v-33.634
				l-13.352-13.351H519.6l-10.975-11.011v-27.853l9.432-9.37h15.935l10.142-10.154h5.352h6.773v5.279h37.198v-6.504h-9.382
				l5.536-5.512l5.353-5.328h9.112l-5.78-5.769h-8.636l-9.125,9.101v7.128l-9.737-9.762h-6.088l8.917,8.941h-7.214l-5.818-5.83
				v-3.858l-8.709-8.696l-6.504,6.528l-5.585,5.549v10.178h-11.097v-4.826v-15.482h4.078v-3.625l2.646-2.683l-4.765-4.826
				l-6.32,6.283l-5.083-5.107l2.694-2.645v-4.789v-9.701h10.13v5.818l8.696,8.672h6.283v-6.761h19.353v-6.774h7.717v-9.639h-8.183
				v-9.211h-4.36v18.409l-3.405,3.405l-6.761-2.964l-11.624-2.866l0.98-11.134l11.611-8.696l6.749-11.587l12.591-2.903l-1.458,5.781
				l8.207,1.445L578,402.04l9.174-0.992l4.385-2.928l0.943-4.789h19.389C641.3,421.478,659.672,461.139,659.672,505
				c0,2.376-0.024,4.679-0.172,7.043l-33.621-33.646l-3.417,3.38L632.64,491.919z"/>
		</g>
		<g>
			<path style="fill:#1CABEA;" d="M282.153,570.664l14.514-12.542c-14.723-16.792-23.002-39.158-21.275-63.091
				c1.703-23.517,12.775-44.18,29.225-58.608l-12.555-14.526c-20.185,17.662-33.744,42.955-35.814,71.763
				C254.141,522.858,264.246,550.221,282.153,570.664z"/>
			<path style="fill:#1CABEA;" d="M245.898,602.044l14.49-12.555c-22.733-26.04-35.508-60.776-32.851-97.901
				c2.683-36.708,19.953-68.946,45.699-91.409l-12.543-14.49c-29.494,25.673-49.226,62.491-52.264,104.528
				C205.405,532.608,219.944,572.256,245.898,602.044z"/>
			<path style="fill:#1CABEA;" d="M209.667,633.412l14.515-12.542c-30.793-35.349-48.051-82.419-44.45-132.724
				c3.601-49.899,27.106-93.712,62.124-124.223l-12.518-14.514c-38.778,33.744-64.745,82.162-68.738,137.341
				C156.608,542.345,175.666,594.376,209.667,633.412z"/>
		</g>
		<g>
			<path style="fill:#1CABEA;" d="M727.834,570.664l-14.515-12.542c14.711-16.792,23.003-39.158,21.264-63.091
				c-1.703-23.517-12.751-44.18-29.225-58.608l12.566-14.526c20.185,17.662,33.744,42.955,35.815,71.763
				C755.834,522.858,745.742,550.221,727.834,570.664z"/>
			<path style="fill:#1CABEA;" d="M764.078,602.044l-14.49-12.555c22.745-26.04,35.508-60.776,32.838-97.901
				c-2.658-36.708-19.928-68.946-45.687-91.409l12.567-14.49c29.469,25.673,49.201,62.491,52.239,104.528
				C804.571,532.608,790.032,572.256,764.078,602.044z"/>
			<path style="fill:#1CABEA;" d="M800.32,633.412l-14.514-12.542c30.78-35.349,48.05-82.419,44.436-132.724
				c-3.589-49.899-27.093-93.712-62.099-124.223l12.506-14.514c38.766,33.744,64.732,82.162,68.725,137.341
				C853.38,542.345,834.31,594.376,800.32,633.412z"/>
		</g>
	</g>
</g>
<g id="Layer_1">
</g>
</svg>
