<?xml version="1.0" encoding="iso-8859-1"?>
<!-- Generator: Adobe Illustrator 17.1.0, SVG Export Plug-In . SVG Version: 6.00 Build 0)  -->
<!DOCTYPE svg PUBLIC "-//W3C//DTD SVG 1.1//EN" "http://www.w3.org/Graphics/SVG/1.1/DTD/svg11.dtd">
<svg version="1.1" xmlns="http://www.w3.org/2000/svg" xmlns:xlink="http://www.w3.org/1999/xlink" x="0px" y="0px"
	 viewBox="0 0 1010 1009.976" style="enable-background:new 0 0 1010 1009.976;" xml:space="preserve">
<g id="mouse">
	<path id="label_4_" style="fill:#EFEFEF;" d="M505,0C226.105,0,0,226.105,0,504.988c0,278.907,226.105,504.988,505,504.988
		s505-226.081,505-504.988C1010,226.105,783.896,0,505,0z"/>
	<g id="icon_6_">
		<path style="fill:#434A54;" d="M516.551,361.216v153.79h124.945v-17.895C641.496,425.643,586.525,367.108,516.551,361.216z"/>
		<path style="fill:#434A54;" d="M489.971,361.486c-68.285,7.496-121.479,65.333-121.479,135.626v17.895h121.479V361.486z"/>
		<path style="fill:#434A54;" d="M368.492,650.694c0,75.389,61.119,136.496,136.52,136.496c75.376,0,136.484-61.106,136.484-136.496
			V535.572H368.492V650.694z"/>
		<g>
			<path style="fill:#1CABEA;" d="M470.655,301.775c-3.454,3.442-3.454,9.052,0,12.481c3.454,3.466,9.039,3.466,12.494,0
				c12.089-12.053,31.613-12.053,43.714,0c3.43,3.466,9.052,3.466,12.469,0c3.467-3.417,3.467-9.04,0-12.481
				C520.384,282.814,489.616,282.814,470.655,301.775z"/>
			<path style="fill:#1CABEA;" d="M562.249,291.376c3.43-3.466,3.43-9.052,0-12.506c-31.638-31.613-82.885-31.613-114.461,0
				c-3.478,3.454-3.478,9.04,0,12.506c3.417,3.441,9.027,3.441,12.469,0c24.766-24.644,64.745-24.644,89.499,0
				C553.197,294.818,558.782,294.818,562.249,291.376z"/>
			<path style="fill:#1CABEA;" d="M437.353,268.484c37.418-37.284,97.864-37.284,135.308,0c3.43,3.43,9.002,3.43,12.456,0
				c3.491-3.441,3.491-9.039,0-12.493c-44.241-44.266-116.004-44.266-160.27,0c-3.43,3.454-3.43,9.052,0.024,12.493
				C428.313,271.914,433.923,271.914,437.353,268.484z"/>
		</g>
	</g>
</g>
<g id="Layer_1">
</g>
</svg>
