<?xml version="1.0" encoding="iso-8859-1"?>
<!-- Generator: Adobe Illustrator 17.1.0, SVG Export Plug-In . SVG Version: 6.00 Build 0)  -->
<!DOCTYPE svg PUBLIC "-//W3C//DTD SVG 1.1//EN" "http://www.w3.org/Graphics/SVG/1.1/DTD/svg11.dtd">
<svg version="1.1" xmlns="http://www.w3.org/2000/svg" xmlns:xlink="http://www.w3.org/1999/xlink" x="0px" y="0px"
	 viewBox="0 0 1009.976 1009.976" style="enable-background:new 0 0 1009.976 1009.976;" xml:space="preserve">
<g id="printer">
	<path id="label_9_" style="fill:#EFEFEF;" d="M504.988,0C226.092,0,0,226.08,0,504.988c0,278.895,226.092,504.988,504.988,504.988
		s504.988-226.094,504.988-504.988C1009.976,226.08,783.883,0,504.988,0z"/>
	<g id="icon_11_">
		<g>
			<path style="fill:#434A54;" d="M419.372,622.364H590.58c25.55-0.012,46.31-20.773,46.335-46.311V404.845
				c0-0.196-0.036-0.343-0.036-0.551c-0.037-0.208-0.049-0.404-0.062-0.625c-0.073-0.319-0.148-0.649-0.232-0.955
				c-0.061-0.196-0.123-0.417-0.185-0.637c-0.122-0.306-0.281-0.563-0.416-0.87c-0.11-0.172-0.195-0.404-0.318-0.564
				c-0.269-0.38-0.551-0.735-0.869-1.066c-0.025-0.061-0.086-0.135-0.135-0.208l-38.619-38.607
				c-0.404-0.392-0.857-0.735-1.299-1.029c-0.195-0.123-0.392-0.208-0.588-0.306c-0.307-0.147-0.6-0.294-0.895-0.417
				c-0.232-0.073-0.489-0.135-0.723-0.208c-0.281-0.074-0.6-0.135-0.894-0.196c-0.245-0.037-0.502-0.061-0.747-0.061
				c-0.123,0-0.209-0.037-0.318-0.037H419.372c-25.538,0.012-46.311,20.797-46.335,46.335v171.207
				C373.061,601.59,393.834,622.352,419.372,622.364z M388.494,404.845c0.024-16.952,13.926-30.866,30.878-30.903h160.38
				c-0.563,2.817-0.906,5.622-0.906,8.366c0,9.296,3.087,18.079,8.758,24.815c5.585,6.663,14.098,11.183,23.786,11.183
				c0.049,0,0.073,0,0.135,0c3.258,0.012,6.577-0.49,9.921-1.482v159.228c-0.012,16.915-13.938,30.854-30.865,30.866H419.372
				c-16.952-0.012-30.853-13.951-30.878-30.866V404.845z"/>
			<path style="fill:#434A54;" d="M665.919,585.913h-13.142c-7.79,28.098-33.573,48.834-64.06,48.859H421.246
				c-30.511-0.024-56.293-20.761-64.083-48.859H344.02c-49.643,0-89.879,40.236-89.879,89.891c0,49.655,40.236,89.903,89.879,89.903
				h17.074c-0.184-1.25-0.331-2.523-0.331-3.834c0-13.363,10.852-24.19,24.228-24.19h239.981c13.363,0,24.203,10.827,24.203,24.19
				c0,1.311-0.122,2.584-0.343,3.834h17.087c49.654,0,89.915-40.248,89.915-89.903C755.834,626.148,715.574,585.913,665.919,585.913
				z M600.255,663.727h-39.011c-4.471,0-8.071-3.625-8.071-8.084c0-4.471,3.601-8.084,8.071-8.084h39.011
				c4.446,0,8.072,3.613,8.072,8.084C608.328,660.101,604.702,663.727,600.255,663.727z M635.898,670.769
				c-8.365,0-15.139-6.798-15.139-15.127c0-8.354,6.773-15.139,15.139-15.139c8.353,0,15.115,6.786,15.115,15.139
				C651.013,663.972,644.251,670.769,635.898,670.769z"/>
			<path style="fill:#434A54;" d="M624.972,749.784H384.991c-6.688,0.013-12.102,5.426-12.114,12.089
				c0,1.359,0.27,2.633,0.673,3.834H636.4c0.404-1.201,0.662-2.475,0.662-3.834C637.062,755.209,631.648,749.796,624.972,749.784z"
				/>
			<path style="fill:#434A54;" d="M418.576,465.83H591.4c4.263,0,7.704-3.454,7.704-7.741c0-4.251-3.441-7.705-7.704-7.705H418.576
				c-4.263,0-7.728,3.454-7.728,7.705C410.847,462.375,414.313,465.83,418.576,465.83z"/>
			<path style="fill:#434A54;" d="M418.576,429.636h134.181c4.263,0,7.741-3.442,7.741-7.728c0-4.275-3.479-7.729-7.741-7.729
				H418.576c-4.263,0-7.728,3.454-7.728,7.729C410.847,426.194,414.313,429.636,418.576,429.636z"/>
			<path style="fill:#434A54;" d="M418.576,502.023H591.4c4.263,0,7.704-3.454,7.704-7.728c0-4.25-3.441-7.704-7.704-7.704H418.576
				c-4.263,0-7.728,3.454-7.728,7.704C410.847,498.569,414.313,502.023,418.576,502.023z"/>
			<path style="fill:#434A54;" d="M418.576,538.242H591.4c4.263,0,7.704-3.466,7.704-7.729c0-4.262-3.441-7.729-7.704-7.729H418.576
				c-4.263,0-7.728,3.466-7.728,7.729C410.847,534.776,414.313,538.242,418.576,538.242z"/>
			<path style="fill:#434A54;" d="M418.576,574.424H591.4c4.263,0,7.704-3.43,7.704-7.717c0-4.25-3.441-7.704-7.704-7.704H418.576
				c-4.263,0-7.728,3.454-7.728,7.704C410.847,570.994,414.313,574.424,418.576,574.424z"/>
		</g>
		<path style="fill:#1CABEA;" d="M674.236,374.212c-0.466,0.171-1.029,0.245-1.543,0.306c-4.275,0.294-8.011-2.866-8.329-7.055
			c-2.095-26.15-25.281-45.76-51.677-43.714c-4.25,0.319-7.985-2.829-8.316-7.042c-0.343-4.238,2.817-7.913,7.092-8.243
			c34.896-2.695,65.541,23.247,68.346,57.788C680.078,369.962,677.677,373.232,674.236,374.212z M712.928,363.703
			c-2.046-25.513-13.987-48.748-33.646-65.406c-19.683-16.608-44.682-24.668-70.452-22.696c-4.263,0.331-7.459,4.042-7.104,8.255
			c0.355,4.201,4.079,7.398,8.341,7.042c21.619-1.653,42.612,5.071,59.148,19.059c16.535,14,26.578,33.499,28.293,54.958
			c0.318,4.213,4.066,7.349,8.316,7.03c0.539-0.037,1.054-0.147,1.556-0.294C710.833,370.672,713.222,367.377,712.928,363.703z
			 M744.162,361.278c-2.744-33.769-18.557-64.524-44.572-86.559c-26.039-21.998-59.147-32.691-93.234-30.045
			c-4.274,0.343-7.447,4.042-7.092,8.243c0.318,4.226,4.055,7.373,8.329,7.055c29.96-2.34,59.062,7.055,81.954,26.444
			c22.867,19.353,36.781,46.36,39.17,76.05c0.343,4.238,4.066,7.361,8.329,7.08c0.539-0.049,1.054-0.147,1.556-0.282
			C742.042,368.247,744.431,364.977,744.162,361.278z"/>
	</g>
</g>
<g id="Layer_1">
</g>
</svg>
