<?xml version="1.0" encoding="iso-8859-1"?>
<!-- Generator: Adobe Illustrator 17.1.0, SVG Export Plug-In . SVG Version: 6.00 Build 0)  -->
<!DOCTYPE svg PUBLIC "-//W3C//DTD SVG 1.1//EN" "http://www.w3.org/Graphics/SVG/1.1/DTD/svg11.dtd">
<svg version="1.1" xmlns="http://www.w3.org/2000/svg" xmlns:xlink="http://www.w3.org/1999/xlink" x="0px" y="0px"
	 viewBox="0 0 1009.994 1009.976" style="enable-background:new 0 0 1009.994 1009.976;" xml:space="preserve">
<g id="wireless-modem">
	<path id="label_20_" style="fill:#EFEFEF;" d="M504.988,0C226.093,0,0,226.092,0,504.988
		c0,278.895,226.093,504.988,504.988,504.988c278.901,0,505.006-226.094,505.006-504.988C1009.994,226.092,783.89,0,504.988,0z"/>
	<g id="icon_22_">
		<path style="fill:#434A54;" d="M728.281,739.458H281.7c-4.532,0-8.188,3.674-8.188,8.176c0,4.519,3.656,8.193,8.188,8.193h446.581
			c4.532,0,8.194-3.674,8.194-8.193C736.475,743.132,732.813,739.458,728.281,739.458z"/>
		<path style="fill:#434A54;" d="M695.604,588.032H314.385c-22.567,0-40.872,18.305-40.872,40.867v50.488
			c0,22.574,18.305,40.885,40.872,40.885h381.219c22.56,0,40.872-18.31,40.872-40.885v-50.488
			C736.475,606.337,718.164,588.032,695.604,588.032z M498.882,656.537c0,9.254-7.483,16.756-16.737,16.756h-161.88
			c-9.229,0-16.731-7.502-16.731-16.756v-6.976c0-9.253,7.502-16.768,16.731-16.768h161.88c9.254,0,16.737,7.514,16.737,16.768
			V656.537z M549.039,655c0,5.218-4.226,9.394-9.432,9.394h-17.686c-5.212,0-9.407-4.177-9.407-9.394v-3.907
			c0-5.199,4.195-9.419,9.407-9.419h17.686c5.206,0,9.432,4.22,9.432,9.419V655z M596.759,655c0,5.218-4.214,9.394-9.407,9.394
			h-17.674c-5.182,0-9.406-4.177-9.406-9.394v-3.907c0-5.199,4.225-9.419,9.406-9.419h17.674c5.193,0,9.407,4.22,9.407,9.419V655z
			 M638.991,672.876c-10.975,0-19.817-8.874-19.817-19.824c0-10.95,8.843-19.837,19.817-19.837c10.95,0,19.794,8.886,19.794,19.837
			C658.785,664.002,649.941,672.876,638.991,672.876z M692.223,672.876c-10.95,0-19.818-8.874-19.818-19.824
			c0-10.95,8.868-19.837,19.818-19.837c10.962,0,19.818,8.886,19.818,19.837C712.041,664.002,703.185,672.876,692.223,672.876z"/>
		<path style="fill:#434A54;" d="M657.168,386.975v145.542c0,9.1-7.398,16.511-16.486,16.511h-36.867
			c-4.508,0-8.183,3.681-8.183,8.182c0,4.538,3.675,8.194,8.183,8.194h36.867c18.104,0,32.862-14.747,32.862-32.887V387.71
			c17.037-3.197,29.935-18.054,29.935-36.023c0-20.277-16.449-36.69-36.708-36.69s-36.696,16.413-36.696,36.69
			C630.074,368.621,641.612,382.718,657.168,386.975z"/>
		<g>
			<path style="fill:#1CABEA;" d="M600.874,398.825c2.842,2.731,7.178,2.995,10.314,0.827c0.453-0.318,0.869-0.674,1.249-1.084
				c3.136-3.271,3.038-8.464-0.245-11.575c-20.234-19.353-20.981-51.572-1.641-71.8c3.135-3.276,3.013-8.476-0.258-11.575
				c-3.27-3.124-8.438-3.032-11.574,0.251C573.144,330.657,574.1,373.238,600.874,398.825z"/>
			<path style="fill:#1CABEA;" d="M576.573,424.271c2.854,2.731,7.178,2.989,10.289,0.809c0.489-0.288,0.882-0.662,1.273-1.072
				c3.136-3.264,3.014-8.452-0.257-11.575c-16.597-15.874-26.027-37.241-26.566-60.207c-0.515-22.966,7.936-44.737,23.798-61.358
				c3.124-3.252,3.025-8.452-0.257-11.575c-3.283-3.111-8.451-3.001-11.587,0.257c-18.862,19.775-28.931,45.723-28.306,73.037
				C545.585,379.92,556.805,405.378,576.573,424.271z"/>
			<path style="fill:#1CABEA;" d="M563.982,449.056c0.465-0.318,0.882-0.674,1.273-1.09c3.136-3.276,3.014-8.458-0.245-11.563
				c-23.026-21.992-36.059-51.626-36.806-83.417c-0.723-31.821,10.986-62.001,32.984-85.003c3.111-3.283,2.988-8.445-0.294-11.575
				c-3.258-3.124-8.427-3.019-11.562,0.275c-24.986,26.163-38.319,60.495-37.498,96.67c0.802,36.188,15.672,69.871,41.834,94.882
				C556.56,450.966,560.871,451.211,563.982,449.056z"/>
		</g>
	</g>
</g>
<g id="Layer_1">
</g>
</svg>
