<?xml version="1.0" encoding="utf-8"?>
<!-- Generator: Adobe Illustrator 16.0.0, SVG Export Plug-In . SVG Version: 6.00 Build 0)  -->
<!DOCTYPE svg PUBLIC "-//W3C//DTD SVG 1.1//EN" "http://www.w3.org/Graphics/SVG/1.1/DTD/svg11.dtd">
<svg version="1.1" id="Layer_1" xmlns="http://www.w3.org/2000/svg" xmlns:xlink="http://www.w3.org/1999/xlink" x="0px" y="0px"
	 width="25px" height="25px" viewBox="0 0 25 25" enable-background="new 0 0 25 25" xml:space="preserve">
<g>
	<path d="M12.5,4.7C12.2,4.7,12,5,12,5.2v18.3H8.1c-0.3,0-0.5,0.2-0.5,0.5s0.2,0.5,0.5,0.5h8.7c0.3,0,0.5-0.2,0.5-0.5
		s-0.2-0.5-0.5-0.5H13V5.2C13,5,12.8,4.7,12.5,4.7z"/>
	<path d="M14.2,2.1c0-0.9-0.7-1.7-1.7-1.7s-1.7,0.7-1.7,1.7s0.7,1.7,1.7,1.7S14.2,3,14.2,2.1z M12.5,2.7c-0.4,0-0.7-0.3-0.7-0.7
		s0.3-0.7,0.7-0.7s0.7,0.3,0.7,0.7S12.9,2.7,12.5,2.7z"/>
	<path d="M19.5,5c-0.1-0.1-0.2-0.1-0.3-0.1H14c-0.3,0-0.5,0.2-0.5,0.5s0.2,0.5,0.5,0.5h5l1.4,1.2L19,8.3h-5c-0.3,0-0.5,0.2-0.5,0.5
		s0.2,0.5,0.5,0.5h5.2c0.1,0,0.2,0,0.3-0.1l2-1.7c0.1-0.1,0.2-0.2,0.2-0.4c0-0.1-0.1-0.3-0.2-0.4L19.5,5z"/>
	<path d="M19.5,10.3c-0.1-0.1-0.2-0.1-0.3-0.1H14c-0.3,0-0.5,0.2-0.5,0.5s0.2,0.5,0.5,0.5h5l1.4,1.2L19,13.6h-5
		c-0.3,0-0.5,0.2-0.5,0.5s0.2,0.5,0.5,0.5h5.2c0.1,0,0.2,0,0.3-0.1l2-1.7c0.1-0.1,0.2-0.2,0.2-0.4s-0.1-0.3-0.2-0.4L19.5,10.3z"/>
	<path d="M11,9.3c0.3,0,0.5-0.2,0.5-0.5S11.2,8.3,11,8.3H6L4.6,7.1L6,5.9h5c0.3,0,0.5-0.2,0.5-0.5S11.2,4.9,11,4.9H5.8
		C5.7,4.9,5.6,5,5.5,5l-2,1.7C3.4,6.8,3.3,7,3.3,7.1c0,0.1,0.1,0.3,0.2,0.4l2,1.7c0.1,0.1,0.2,0.1,0.3,0.1H11z"/>
</g>
</svg>
