<?xml version="1.0" encoding="utf-8"?>
<!-- Generator: Adobe Illustrator 16.0.0, SVG Export Plug-In . SVG Version: 6.00 Build 0)  -->
<!DOCTYPE svg PUBLIC "-//W3C//DTD SVG 1.1//EN" "http://www.w3.org/Graphics/SVG/1.1/DTD/svg11.dtd">
<svg version="1.1" id="Layer_1" xmlns="http://www.w3.org/2000/svg" xmlns:xlink="http://www.w3.org/1999/xlink" x="0px" y="0px"
	 width="128px" height="128px" viewBox="0 0 128 128" enable-background="new 0 0 128 128" xml:space="preserve">
<g>
	<g>
		<rect x="3" y="33" fill="#FFAB00" width="122" height="13"/>
		<path fill="#37474F" d="M125,48H3c-1.1,0-2-0.9-2-2V33c0-1.1,0.9-2,2-2h122c1.1,0,2,0.9,2,2v13C127,47.1,126.1,48,125,48z M5,44
			h118v-9H5V44z"/>
	</g>
	<g>
		<polyline fill="#B0BEC5" points="83.4,124.8 94.2,3 107.2,3 118,124.7 		"/>
		<path fill="#37474F" d="M83.4,126.8c-0.1,0-0.1,0-0.2,0c-1.1-0.1-1.9-1.1-1.8-2.2L92.2,2.8c0.1-1,1-1.8,2-1.8h13
			c1,0,1.9,0.8,2,1.8L120,124.5c0.1,1.1-0.7,2.1-1.8,2.2c-1.1,0.1-2.1-0.7-2.2-1.8L105.4,5h-9.3L85.4,124.9
			C85.3,126,84.5,126.8,83.4,126.8z"/>
	</g>
	<g>
		<line fill="#FFFFFF" x1="15" y1="46" x2="15" y2="58"/>
		<path fill="#37474F" d="M15,60c-1.1,0-2-0.9-2-2V46c0-1.1,0.9-2,2-2s2,0.9,2,2v12C17,59.1,16.1,60,15,60z"/>
	</g>
	<g>
		<line fill="#FFFFFF" x1="9" y1="65" x2="21" y2="65"/>
		<path fill="#37474F" d="M21,67H9c-1.1,0-2-0.9-2-2s0.9-2,2-2h12c1.1,0,2,0.9,2,2S22.1,67,21,67z"/>
	</g>
	<g>
		<path fill="#78909C" d="M3.3,81L3.3,81c0-5.5,4.5-10,10-10h3.8c5.5,0,10,4.5,10,10l0,0"/>
		<path fill="#37474F" d="M27.1,83c-1.1,0-2-0.9-2-2c0-4.4-3.6-8-8-8h-3.8c-4.4,0-8,3.6-8,8c0,1.1-0.9,2-2,2s-2-0.9-2-2
			c0-6.6,5.4-12,12-12h3.8c6.6,0,12,5.4,12,12C29.1,82.1,28.2,83,27.1,83z"/>
	</g>
	<g>
		<line fill="#FFECB3" x1="66.3" y1="31" x2="94.1" y2="3.2"/>
		<path fill="#37474F" d="M66.3,33c-0.5,0-1-0.2-1.4-0.6c-0.8-0.8-0.8-2,0-2.8L92.7,1.8c0.8-0.8,2-0.8,2.8,0s0.8,2,0,2.8L67.8,32.4
			C67.4,32.8,66.8,33,66.3,33z"/>
	</g>
	<g>
		<path fill="#FFECB3" d="M14.9,86l0.3,12.7c-3.1,0-5.6,2.5-5.6,5.6c0,3.1,2.5,5.6,5.6,5.6s5.6-2.5,5.6-5.6"/>
		<path fill="#37474F" d="M15.2,112c-4.2,0-7.6-3.4-7.6-7.6c0-3.5,2.4-6.5,5.6-7.3l-0.3-10.9c0-1.1,0.8-2,1.9-2c0,0,0,0,0.1,0
			c1.1,0,2,0.9,2,2l0.3,12.7c0,0.5-0.2,1.1-0.6,1.4s-0.9,0.6-1.4,0.6c-2,0-3.6,1.6-3.6,3.6c0,2,1.6,3.6,3.6,3.6s3.6-1.6,3.6-3.6
			c0-1.1,0.9-2,2-2s2,0.9,2,2C22.8,108.6,19.4,112,15.2,112z"/>
	</g>
	<g>
		<path fill="#37474F" d="M86.5,124.8c-0.5,0-1-0.2-1.4-0.6c-0.8-0.8-0.8-2,0-2.8l26.7-26.7L87.6,68.9c-0.7-0.8-0.7-2,0-2.8
			l19.9-19.9L92.1,30.8c-0.4-0.4-0.6-0.9-0.6-1.4s0.2-1,0.6-1.4L106,14.2c0.8-0.8,2-0.8,2.8,0s0.8,2,0,2.8L96.4,29.4l15.4,15.4
			c0.8,0.8,0.8,2,0,2.8l-20,20L116,93.3c0.7,0.8,0.7,2,0,2.8l-28.1,28.1C87.5,124.6,87,124.8,86.5,124.8z"/>
	</g>
</g>
</svg>
