<?xml version="1.0" encoding="utf-8"?>
<!-- Generator: Adobe Illustrator 16.0.0, SVG Export Plug-In . SVG Version: 6.00 Build 0)  -->
<!DOCTYPE svg PUBLIC "-//W3C//DTD SVG 1.1//EN" "http://www.w3.org/Graphics/SVG/1.1/DTD/svg11.dtd">
<svg version="1.1" id="Layer_1" xmlns="http://www.w3.org/2000/svg" xmlns:xlink="http://www.w3.org/1999/xlink" x="0px" y="0px"
	 width="64px" height="64px" viewBox="0 0 64 64" enable-background="new 0 0 64 64" xml:space="preserve">
<g>
	<g>
		<circle fill="#FFAB00" cx="32" cy="32" r="29.4"/>
		<path fill="#37474F" d="M32,62.4C15.2,62.4,1.6,48.8,1.6,32S15.2,1.6,32,1.6c16.8,0,30.4,13.6,30.4,30.4S48.8,62.4,32,62.4z
			 M32,3.6C16.3,3.6,3.6,16.3,3.6,32S16.3,60.4,32,60.4c15.7,0,28.4-12.7,28.4-28.4S47.7,3.6,32,3.6z"/>
	</g>
	<g>
		<g>
			<line fill="#FFECB3" x1="32.5" y1="3.9" x2="32.5" y2="60.9"/>
			<path fill="#37474F" d="M32.5,61.9c-0.6,0-1-0.4-1-1v-57c0-0.6,0.4-1,1-1s1,0.4,1,1v57C33.5,61.5,33,61.9,32.5,61.9z"/>
		</g>
		<g>
			<line fill="#FFECB3" x1="60.5" y1="31.9" x2="3.5" y2="31.9"/>
			<path fill="#37474F" d="M60.5,32.9h-57c-0.6,0-1-0.4-1-1s0.4-1,1-1h57c0.6,0,1,0.4,1,1S61,32.9,60.5,32.9z"/>
		</g>
	</g>
	<g>
		<path fill="#FFECB3" d="M55.5,32C55.5,45,45,55.5,32,55.5S8.5,45,8.5,32C8.5,19,19,8.5,32,8.5S55.5,19,55.5,32z"/>
		<path fill="#37474F" d="M32,56.5c-13.5,0-24.5-11-24.5-24.5c0-13.5,11-24.5,24.5-24.5s24.5,11,24.5,24.5
			C56.5,45.5,45.5,56.5,32,56.5z M32,9.5C19.6,9.5,9.5,19.6,9.5,32c0,12.4,10.1,22.5,22.5,22.5S54.5,44.4,54.5,32
			C54.5,19.6,44.4,9.5,32,9.5z"/>
	</g>
	<g>
		<g>
			<polygon fill="#37474F" points="26.5,44.6 47,32 26.5,19.4 			"/>
			<path fill="#37474F" d="M26.5,45.6c-0.2,0-0.3,0-0.5-0.1c-0.3-0.2-0.5-0.5-0.5-0.9V19.4c0-0.4,0.2-0.7,0.5-0.9
				c0.3-0.2,0.7-0.2,1,0l20.5,12.6c0.3,0.2,0.5,0.5,0.5,0.9c0,0.3-0.2,0.7-0.5,0.9L27,45.4C26.8,45.5,26.7,45.6,26.5,45.6z
				 M27.5,21.2v21.6L45,32L27.5,21.2z"/>
		</g>
		<g>
			<g>
				<path fill="#37474F" d="M20,37.9c0.6,0,1,0.5,1,1c0,0.6-0.4,1-1,1c-0.5,0-1-0.5-1-1C19,38.3,19.5,37.9,20,37.9z"/>
				<path fill="#37474F" d="M20,40.3c-0.8,0-1.5-0.7-1.5-1.5c0-0.4,0.1-0.7,0.4-1c0.3-0.3,0.7-0.5,1.1-0.5c0.8,0,1.5,0.7,1.5,1.5
					C21.5,39.7,20.9,40.3,20,40.3z M20,38.4c-0.1,0-0.2,0.1-0.3,0.1c-0.1,0.1-0.1,0.2-0.1,0.3c0,0.3,0.2,0.5,0.5,0.5
					c0.3,0,0.5-0.2,0.5-0.5C20.5,38.6,20.3,38.4,20,38.4z"/>
			</g>
			<g>
				<path fill="#37474F" d="M20,31c0.6,0,1,0.4,1,1c0,0.5-0.4,1-1,1c-0.5,0-1-0.4-1-1C19.1,31.5,19.5,31,20,31z"/>
				<path fill="#37474F" d="M20,33.5L20,33.5c-0.8,0-1.5-0.7-1.5-1.5c0-0.8,0.7-1.5,1.5-1.5c0.8,0,1.5,0.7,1.5,1.5
					C21.5,32.8,20.9,33.5,20,33.5L20,33.5z M20,31.5c-0.3,0-0.5,0.2-0.5,0.5c0,0.2,0.2,0.5,0.5,0.5c0.3,0,0.5-0.2,0.5-0.5
					C20.5,31.7,20.3,31.5,20,31.5z"/>
			</g>
			<g>
				<path fill="#37474F" d="M20,24.2c0.5,0,1,0.4,1,1c0,0.5-0.4,1-1,1c-0.5,0-1-0.5-1-1C19,24.6,19.5,24.2,20,24.2z"/>
				<path fill="#37474F" d="M20,26.6c-0.4,0-0.8-0.2-1.1-0.5c-0.3-0.3-0.4-0.7-0.4-1c0-0.4,0.1-0.7,0.4-1c0.3-0.3,0.7-0.5,1.1-0.5
					c0.8,0,1.5,0.7,1.5,1.5C21.5,26,20.8,26.6,20,26.6z M20,24.7c-0.1,0-0.2,0.1-0.3,0.1c-0.1,0.1-0.1,0.2-0.1,0.3
					c0,0.1,0,0.3,0.1,0.4c0.3,0.3,0.8,0.1,0.8-0.3C20.5,24.9,20.3,24.7,20,24.7z"/>
			</g>
		</g>
	</g>
</g>
</svg>
