<?xml version="1.0" encoding="utf-8"?>
<!-- Generator: Adobe Illustrator 16.0.0, SVG Export Plug-In . SVG Version: 6.00 Build 0)  -->
<!DOCTYPE svg PUBLIC "-//W3C//DTD SVG 1.1//EN" "http://www.w3.org/Graphics/SVG/1.1/DTD/svg11.dtd">
<svg version="1.1" id="Layer_1" xmlns="http://www.w3.org/2000/svg" xmlns:xlink="http://www.w3.org/1999/xlink" x="0px" y="0px"
	 width="32px" height="32px" viewBox="0 0 32 32" enable-background="new 0 0 32 32" xml:space="preserve">
<g>
	<g>
		<path fill="#FFFFFF" d="M30.7,16c0,8.1-6.6,14.7-14.7,14.7S1.3,24.1,1.3,16C1.3,7.9,7.9,1.3,16,1.3S30.7,7.9,30.7,16z"/>
		<path fill="#37474F" d="M16,31.2C7.6,31.2,0.8,24.4,0.8,16C0.8,7.6,7.6,0.8,16,0.8S31.2,7.6,31.2,16C31.2,24.4,24.4,31.2,16,31.2z
			 M16,1.8C8.1,1.8,1.8,8.1,1.8,16c0,7.9,6.4,14.2,14.2,14.2S30.2,23.9,30.2,16C30.2,8.1,23.9,1.8,16,1.8z"/>
	</g>
	<g>
		<g>
			<g>
				<path fill="#FFFFFF" d="M10.3,4.8c-0.2,1-0.3,4.5-0.3,5.4c0,4.9,2.7,8.8,6,8.8c3.3,0,6-4,6-8.8c0-0.9-0.1-4.4-0.3-5.4H10.3z"/>
				<path fill="#37474F" d="M16,19.6c-3.6,0-6.5-4.2-6.5-9.3c0-0.9,0.1-4.5,0.3-5.5c0-0.2,0.2-0.4,0.5-0.4h11.3
					c0.2,0,0.5,0.2,0.5,0.4c0.2,1.1,0.3,4.7,0.3,5.5C22.5,15.4,19.6,19.6,16,19.6z M10.8,5.3c-0.1,1.3-0.2,4.1-0.2,4.9
					c0,4.6,2.4,8.3,5.5,8.3c3,0,5.5-3.7,5.5-8.3c0-0.8-0.1-3.6-0.2-4.9H10.8z"/>
			</g>
		</g>
		<g>
			<g>
				<line fill="#FFFFFF" x1="15.6" y1="26.3" x2="15.6" y2="19.3"/>
				<path fill="#37474F" d="M15.6,26.8c-0.3,0-0.5-0.2-0.5-0.5v-7c0-0.3,0.2-0.5,0.5-0.5s0.5,0.2,0.5,0.5v7
					C16.1,26.6,15.9,26.8,15.6,26.8z"/>
			</g>
			<g>
				<line fill="#FFFFFF" x1="20.1" y1="26.8" x2="12.1" y2="26.8"/>
				<path fill="#37474F" d="M20.1,27.3h-8c-0.3,0-0.5-0.2-0.5-0.5s0.2-0.5,0.5-0.5h8c0.3,0,0.5,0.2,0.5,0.5S20.4,27.3,20.1,27.3z"/>
			</g>
		</g>
		<g>
			<path fill="#FFAB00" d="M10.1,10.8c0.1,4,2.7,8.5,5.9,8.5c3.2,0,5.8-4.5,5.9-8.5H10.1z"/>
			<path fill="#37474F" d="M16,19.9c-3.5,0-6.3-4.7-6.4-9c0-0.1,0-0.3,0.1-0.4c0.1-0.1,0.2-0.2,0.4-0.2h11.9c0.1,0,0.3,0.1,0.4,0.2
				c0.1,0.1,0.1,0.2,0.1,0.4C22.3,15.1,19.5,19.9,16,19.9z M10.6,11.3c0.3,3.6,2.6,7.5,5.4,7.5c2.8,0,5.1-3.9,5.4-7.5H10.6z"/>
		</g>
	</g>
	<g>
		<g>
			<g>
				<path fill="#FFFFFF" d="M21.6,15.8v8.3c0,1.5,1.3,2.7,2.7,2.7h3.3c1.4,0,3-1.2,3-2.7v-8.3H21.6z"/>
				<path fill="#37474F" d="M27.6,27.3h-3.3c-1.7,0-3.2-1.5-3.2-3.2v-8.3c0-0.3,0.2-0.5,0.5-0.5h9c0.3,0,0.5,0.2,0.5,0.5v8.3
					C31.1,26,29.3,27.3,27.6,27.3z M22.1,16.3v7.8c0,1.2,1,2.2,2.2,2.2h3.3c1.1,0,2.5-1,2.5-2.2v-7.8H22.1z"/>
			</g>
			<g>
				<path fill="#FFECB3" d="M21.6,19.8v4.3c0,1.5,1.3,2.7,2.7,2.7h3.3c1.4,0,3-1.2,3-2.7v-4.3H21.6z"/>
				<path fill="#37474F" d="M27.6,27.3h-3.3c-1.7,0-3.2-1.5-3.2-3.2v-4.3c0-0.3,0.2-0.5,0.5-0.5h9c0.3,0,0.5,0.2,0.5,0.5v4.3
					C31.1,26,29.3,27.3,27.6,27.3z M22.1,20.3v3.8c0,1.2,1,2.2,2.2,2.2h3.3c1.1,0,2.5-1,2.5-2.2v-3.8H22.1z"/>
			</g>
		</g>
		<g>
			<g>
				<path fill="#FFFFFF" d="M1.6,15.8v8.3c0,1.5,1.3,2.7,2.8,2.7h3.3c1.5,0,2.9-1.2,2.9-2.7v-8.3H1.6z"/>
				<path fill="#37474F" d="M7.7,27.3H4.4c-1.7,0-3.3-1.5-3.3-3.2v-8.3c0-0.3,0.2-0.5,0.5-0.5h9c0.3,0,0.5,0.2,0.5,0.5v8.3
					C11.1,25.8,9.5,27.3,7.7,27.3z M2.1,16.3v7.8c0,1.1,1.1,2.2,2.3,2.2h3.3c1.3,0,2.4-1.1,2.4-2.2v-7.8H2.1z"/>
			</g>
			<g>
				<path fill="#FFECB3" d="M1.6,19.8v4.3c0,1.5,1.3,2.7,2.8,2.7h3.3c1.5,0,2.9-1.2,2.9-2.7v-4.3H1.6z"/>
				<path fill="#37474F" d="M7.7,27.3H4.4c-1.7,0-3.3-1.5-3.3-3.2v-4.3c0-0.3,0.2-0.5,0.5-0.5h9c0.3,0,0.5,0.2,0.5,0.5v4.3
					C11.1,25.8,9.5,27.3,7.7,27.3z M2.1,20.3v3.8c0,1.1,1.1,2.2,2.3,2.2h3.3c1.3,0,2.4-1.1,2.4-2.2v-3.8H2.1z"/>
			</g>
		</g>
		<g>
			<g>
				<path fill="#37474F" d="M8.2,22.5c0-0.2,0.2-0.4,0.4-0.4c0.2,0,0.4,0.2,0.4,0.4c0,0.2-0.2,0.4-0.4,0.4
					C8.3,22.8,8.2,22.6,8.2,22.5z"/>
				<path fill="#37474F" d="M8.5,23.3c-0.5,0-0.9-0.4-0.9-0.9c0-0.5,0.4-0.9,0.9-0.9c0.2,0,0.5,0.1,0.6,0.3c0.2,0.2,0.2,0.4,0.2,0.6
					C9.4,22.9,9,23.3,8.5,23.3L8.5,23.3z"/>
			</g>
			<g>
				<path fill="#37474F" d="M5.7,22.5c0-0.2,0.2-0.4,0.4-0.4c0.2,0,0.4,0.2,0.4,0.4c0,0.2-0.2,0.4-0.4,0.4
					C5.8,22.8,5.7,22.6,5.7,22.5z"/>
				<path fill="#37474F" d="M6,23.3L6,23.3c-0.5,0-0.9-0.4-0.9-0.9c0-0.2,0.1-0.4,0.2-0.6s0.4-0.3,0.6-0.3c0.5,0,0.8,0.4,0.9,0.8
					C6.9,22.9,6.5,23.3,6,23.3z"/>
			</g>
			<g>
				<path fill="#37474F" d="M3.2,22.5c0-0.2,0.2-0.4,0.4-0.4c0.2,0,0.4,0.2,0.4,0.4c0,0.2-0.2,0.4-0.4,0.4
					C3.3,22.8,3.2,22.6,3.2,22.5z"/>
				<path fill="#37474F" d="M3.6,23.3L3.6,23.3L3.6,23.3c-0.5,0-0.9-0.4-0.9-0.9c0-0.5,0.4-0.9,0.9-0.9s0.9,0.4,0.9,0.9
					C4.4,22.9,4,23.3,3.6,23.3z M3.5,22.6l0,0.2L3.5,22.6c0.1,0,0.1-0.1,0.1-0.1s-0.1-0.1-0.1-0.1v0c0,0,0,0,0,0v0
					c-0.1,0-0.1,0.1-0.1,0.1S3.5,22.6,3.5,22.6L3.5,22.6z"/>
			</g>
		</g>
		<g>
			<g>
				<path fill="#37474F" d="M28.1,22.5c0-0.2,0.2-0.4,0.4-0.4c0.2,0,0.4,0.2,0.4,0.4c0,0.2-0.2,0.4-0.4,0.4
					C28.3,22.8,28.1,22.6,28.1,22.5z"/>
				<path fill="#37474F" d="M28.4,23.3c-0.5,0-0.8-0.4-0.8-0.9c0-0.5,0.4-0.9,0.9-0.9c0.2,0,0.5,0.1,0.6,0.3
					c0.2,0.2,0.2,0.4,0.2,0.6C29.3,22.9,28.9,23.3,28.4,23.3L28.4,23.3z"/>
			</g>
			<g>
				<path fill="#37474F" d="M25.6,22.5c0-0.2,0.2-0.4,0.3-0.4c0.2,0,0.4,0.2,0.4,0.4c0,0.2-0.2,0.4-0.4,0.4
					C25.8,22.8,25.6,22.6,25.6,22.5z"/>
				<path fill="#37474F" d="M26,23.3L26,23.3c-0.5,0-0.8-0.4-0.8-0.9c0-0.2,0.1-0.4,0.2-0.6c0.2-0.2,0.4-0.3,0.6-0.3
					c0.5,0,0.9,0.4,0.9,0.8C26.8,22.9,26.4,23.3,26,23.3z"/>
			</g>
			<g>
				<path fill="#37474F" d="M23.1,22.5c0-0.2,0.2-0.4,0.4-0.4c0.2,0,0.4,0.2,0.4,0.4c0,0.2-0.2,0.4-0.4,0.4
					C23.3,22.8,23.1,22.6,23.1,22.5z"/>
				<path fill="#37474F" d="M23.5,23.3L23.5,23.3L23.5,23.3c-0.5,0-0.9-0.4-0.9-0.9c0-0.5,0.4-0.9,0.9-0.9c0.5,0,0.9,0.4,0.9,0.9
					C24.3,22.9,23.9,23.3,23.5,23.3z M23.5,22.6l0,0.2L23.5,22.6c0.1,0,0.1-0.1,0.1-0.1c0-0.1-0.1-0.1-0.1-0.1v0c0,0,0,0,0,0v0
					c-0.1,0-0.1,0.1-0.1,0.1C23.3,22.5,23.4,22.6,23.5,22.6L23.5,22.6z"/>
			</g>
		</g>
	</g>
	<g>
		<g>
			<path fill="#37474F" d="M18.1,12.8c0-0.2,0.2-0.4,0.4-0.4c0.2,0,0.4,0.2,0.4,0.4c0,0.2-0.2,0.4-0.4,0.4
				C18.3,13.1,18.1,13,18.1,12.8z"/>
			<path fill="#37474F" d="M18.5,13.6c-0.5,0-0.8-0.4-0.8-0.9c0-0.5,0.4-0.9,0.9-0.9c0.2,0,0.5,0.1,0.6,0.3c0.2,0.2,0.2,0.4,0.2,0.6
				C19.4,13.3,19,13.6,18.5,13.6L18.5,13.6z"/>
		</g>
		<g>
			<path fill="#37474F" d="M15.7,12.8c0-0.2,0.2-0.4,0.3-0.4c0.2,0,0.4,0.2,0.4,0.4c0,0.2-0.2,0.4-0.4,0.4
				C15.8,13.1,15.7,13,15.7,12.8z"/>
			<path fill="#37474F" d="M16,13.6L16,13.6c-0.5,0-0.8-0.4-0.8-0.9c0-0.2,0.1-0.4,0.2-0.6c0.2-0.2,0.4-0.3,0.6-0.3
				c0.5,0,0.8,0.4,0.9,0.8C16.8,13.3,16.5,13.6,16,13.6z"/>
		</g>
		<g>
			<path fill="#37474F" d="M13.1,12.8c0-0.2,0.2-0.4,0.4-0.4c0.2,0,0.4,0.2,0.4,0.4c0,0.2-0.2,0.4-0.4,0.4
				C13.3,13.1,13.1,13,13.1,12.8z"/>
			<path fill="#37474F" d="M13.5,13.6L13.5,13.6c-0.5,0-0.9-0.4-0.9-0.9c0-0.5,0.4-0.9,0.9-0.9c0.5,0,0.9,0.4,0.9,0.9
				C14.4,13.3,14,13.6,13.5,13.6z M13.5,12.9l0,0.2L13.5,12.9c0.1,0,0.1-0.1,0.1-0.1c0-0.1-0.1-0.1-0.1-0.1v0c0,0,0,0,0,0v0
				c-0.1,0-0.1,0.1-0.1,0.1C13.4,12.9,13.4,12.9,13.5,12.9L13.5,12.9z"/>
		</g>
	</g>
</g>
</svg>
