<?xml version="1.0" encoding="utf-8"?>
<!-- Generator: Adobe Illustrator 16.0.0, SVG Export Plug-In . SVG Version: 6.00 Build 0)  -->
<!DOCTYPE svg PUBLIC "-//W3C//DTD SVG 1.1//EN" "http://www.w3.org/Graphics/SVG/1.1/DTD/svg11.dtd">
<svg version="1.1" id="Layer_1" xmlns="http://www.w3.org/2000/svg" xmlns:xlink="http://www.w3.org/1999/xlink" x="0px" y="0px"
	 width="24px" height="24px" viewBox="0 0 24 24" enable-background="new 0 0 24 24" xml:space="preserve">
<g>
	<path d="M23.2,15.7h-3.5v-1.1c0-0.3-0.2-0.5-0.5-0.5h-1.4l-1.7-1.7c0,0,0,0,0,0l1.7-3.7c0.1-0.2,0-0.4-0.1-0.6
		C17.6,8,17.4,7.9,17.2,8l-3,1.2l0.3-0.7c0-0.1,0-0.2,0-0.4l-2.1-5.4c-0.1-0.2-0.3-0.3-0.5-0.3c-0.2,0-0.4,0.1-0.5,0.3L9.3,8.2
		c0,0.1,0,0.2,0,0.4l0.3,0.7L6.7,8C6.5,7.9,6.3,8,6.1,8.1C6,8.3,5.9,8.5,6,8.7l1.7,3.7c0,0,0,0,0,0L6,14.1H4.6
		c-0.3,0-0.5,0.2-0.5,0.5v1.1H0.8c-0.3,0-0.5,0.2-0.5,0.5v4.9c0,0.3,0.2,0.5,0.5,0.5h22.5c0.3,0,0.5-0.2,0.5-0.5v-4.9
		C23.7,15.9,23.5,15.7,23.2,15.7z M18.7,15.7h-3.8v-1h1c0.3,0,0.5-0.2,0.5-0.5v-0.1l0.8,0.8c0.1,0.1,0.2,0.1,0.4,0.1c0,0,0,0,0,0
		c0,0,0,0,0,0h1V15.7z M8.6,12.9l1.9,0.8H8.9c0,0,0,0,0,0s0,0,0,0H8.4c0-0.1-0.1-0.3-0.3-0.3L8.6,12.9z M15.3,12.9l0.5,0.5
		c-0.1,0.1-0.2,0.2-0.3,0.3h-0.9c0,0,0,0,0,0c0,0,0,0,0,0h-1.1L15.3,12.9z M9.4,14.7h4.5v1H9.4L9.4,14.7z M15.3,11.8l-2.4,1l1.1-2.4
		l2.4-1L15.3,11.8z M11.9,4.3l1.6,4l-1.6,4l-1.6-4L11.9,4.3z M7.5,9.4l2.4,1l1.1,2.4l-2.4-1L7.5,9.4z M5.1,15.1h1c0,0,0,0,0,0
		c0,0,0,0,0,0c0.1,0,0.3,0,0.4-0.1l0.8-0.8l0,0.1c0,0.1,0.1,0.3,0.1,0.4s0.2,0.1,0.4,0.1h0.5l0,1H5.1V15.1z M22.7,20.6H10.9
		c0.8-0.3,1.3-1,1.3-1.9c0-1.1-0.9-2-2-2c-0.3,0-0.5,0.2-0.5,0.5s0.2,0.5,0.5,0.5c0.5,0,1,0.4,1,1c0,0.5-0.4,1-1,1c-0.5,0-1-0.4-1-1
		c0-0.3-0.2-0.5-0.5-0.5s-0.5,0.2-0.5,0.5c0,0.9,0.6,1.6,1.3,1.9H1.3v-3.9h7.6h5.5h8.3V20.6z"/>
	<path d="M7.2,17.9c-0.4,0-0.8,0.3-0.8,0.7c0,0.4,0.3,0.8,0.8,0.8c0.4,0,0.7-0.3,0.7-0.7c0-0.2-0.1-0.4-0.2-0.5
		C7.6,18,7.4,17.9,7.2,17.9z M7.3,18.9C7.3,18.9,7.3,18.9,7.3,18.9C7.3,18.9,7.3,18.9,7.3,18.9z M7.4,18.8c0,0,0.1-0.1,0.1-0.1
		c0-0.1-0.1-0.2-0.2-0.2c-0.1,0-0.3,0.1-0.3,0.2c0,0.1,0.1,0.2,0.2,0.2c-0.1,0-0.1,0-0.1-0.1C7,18.8,7,18.7,7,18.7
		c0-0.1,0.1-0.2,0.3-0.2s0.2,0.1,0.2,0.2C7.5,18.8,7.4,18.8,7.4,18.8z"/>
	<path d="M5.5,17.9c-0.2,0-0.4,0.1-0.5,0.2c-0.1,0.1-0.2,0.3-0.2,0.5c0,0.4,0.3,0.8,0.7,0.8c0.4,0,0.7-0.3,0.8-0.8
		C6.2,18.3,5.9,17.9,5.5,17.9z M5.3,18.5c0,0-0.1,0.1-0.1,0.2c0,0,0,0,0,0C5.2,18.6,5.2,18.6,5.3,18.5z M5.2,18.7c0,0,0,0.1,0,0.1
		C5.3,18.8,5.2,18.8,5.2,18.7z M5.3,18.9C5.4,18.9,5.4,18.9,5.3,18.9C5.4,18.9,5.4,18.9,5.3,18.9z M5.5,18.9c0.1,0,0.1-0.1,0.2-0.1
		c0,0,0,0.1,0,0.1C5.6,18.9,5.6,18.9,5.5,18.9z M5.7,18.7c0-0.1-0.1-0.2-0.2-0.2c-0.1,0-0.1,0-0.2,0.1c0,0,0.1-0.1,0.2-0.1
		C5.6,18.4,5.7,18.6,5.7,18.7C5.7,18.7,5.7,18.7,5.7,18.7z"/>
	<path d="M3.7,17.9c-0.4,0-0.7,0.3-0.7,0.7c0,0.4,0.3,0.8,0.7,0.8c0.4,0,0.8-0.3,0.8-0.8C4.5,18.3,4.1,17.9,3.7,17.9z M4,18.7
		C4,18.7,4,18.7,4,18.7c0-0.2-0.1-0.3-0.2-0.3c-0.1,0-0.2,0.1-0.2,0.2c0,0,0,0,0,0c0,0,0,0,0,0c0-0.1,0.1-0.2,0.2-0.2
		C3.9,18.4,4,18.5,4,18.7C4,18.7,4,18.7,4,18.7z"/>
	<path d="M13.6,18c0,0.3,0.2,0.5,0.5,0.5h0.8v0.8c0,0.3,0.2,0.5,0.5,0.5s0.5-0.2,0.5-0.5V18c0-0.3-0.2-0.5-0.5-0.5h-1.3
		C13.8,17.5,13.6,17.8,13.6,18z"/>
	<path d="M17,18.5h0.8v0.8c0,0.3,0.2,0.5,0.5,0.5s0.5-0.2,0.5-0.5V18c0-0.3-0.2-0.5-0.5-0.5H17c-0.3,0-0.5,0.2-0.5,0.5
		S16.7,18.5,17,18.5z"/>
	<path d="M19.9,18.5h0.8v0.8c0,0.3,0.2,0.5,0.5,0.5s0.5-0.2,0.5-0.5V18c0-0.3-0.2-0.5-0.5-0.5h-1.3c-0.3,0-0.5,0.2-0.5,0.5
		S19.6,18.5,19.9,18.5z"/>
</g>
</svg>
