<?xml version="1.0" encoding="utf-8"?>
<!-- Generator: Adobe Illustrator 16.0.0, SVG Export Plug-In . SVG Version: 6.00 Build 0)  -->
<!DOCTYPE svg PUBLIC "-//W3C//DTD SVG 1.1//EN" "http://www.w3.org/Graphics/SVG/1.1/DTD/svg11.dtd">
<svg version="1.1" id="Layer_1" xmlns="http://www.w3.org/2000/svg" xmlns:xlink="http://www.w3.org/1999/xlink" x="0px" y="0px"
	 width="32px" height="32px" viewBox="0 0 32 32" enable-background="new 0 0 32 32" xml:space="preserve">
<g>
	<g>
		<g>
			<path fill="#FFAB00" d="M9,21c0,0.8-0.7,1.5-1.5,1.5l0,0C6.7,22.5,6,21.8,6,21v-5c0-0.8,0.7-1.5,1.5-1.5l0,0
				C8.3,14.5,9,15.2,9,16V21z"/>
			<path fill="#37474F" d="M7.5,23c-1.1,0-2-0.9-2-2v-5c0-1.1,0.9-2,2-2s2,0.9,2,2v5C9.5,22.1,8.6,23,7.5,23z M7.5,15
				c-0.6,0-1,0.4-1,1v5c0,0.6,0.4,1,1,1s1-0.4,1-1v-5C8.5,15.4,8.1,15,7.5,15z"/>
		</g>
		<g>
			<polygon fill="#FFFFFF" points="11.5,31.5 3.5,31.5 4.7,18.5 10.4,18.5 			"/>
			<path fill="#37474F" d="M11.5,32C11.5,32,11.5,32,11.5,32h-8c-0.1,0-0.3-0.1-0.4-0.2S3,31.6,3,31.5l1.1-13c0-0.3,0.2-0.5,0.5-0.5
				h5.7c0.3,0,0.5,0.2,0.5,0.5L12,31.3c0,0.1,0,0.1,0,0.2C12,31.8,11.8,32,11.5,32z M4.1,31H11l-1-12H5.1L4.1,31z"/>
		</g>
		<g>
			<path fill="#FFAB00" d="M11.7,17.5c0,0.9-0.7,2-1.6,2H5c-0.9,0-1.6-1.1-1.6-2l0,0c0-0.9,0.7-2,1.6-2h5.1
				C11,15.5,11.7,16.6,11.7,17.5L11.7,17.5z"/>
			<path fill="#37474F" d="M10.1,20H5c-1.2,0-2.1-1.3-2.1-2.5S3.8,15,5,15h5.1c1.2,0,2.1,1.3,2.1,2.5S11.3,20,10.1,20z M5,16
				c-0.6,0-1.1,0.8-1.1,1.5S4.4,19,5,19h5.1c0.6,0,1.1-0.8,1.1-1.5S10.7,16,10.1,16H5z"/>
		</g>
		<g>
			<g>
				<path fill="#37474F" d="M7.5,22.2c-0.2,0-0.4-0.2-0.4-0.4c0-0.2,0.2-0.4,0.4-0.4c0.2,0,0.4,0.2,0.4,0.4
					C7.9,22.1,7.7,22.2,7.5,22.2z"/>
				<path fill="#37474F" d="M7.5,22.7c-0.5,0-0.9-0.4-0.9-0.9c0-0.2,0.1-0.5,0.2-0.6C7.1,21.1,7.3,21,7.5,21c0.5,0,0.9,0.4,0.9,0.9
					c0,0.2-0.1,0.4-0.2,0.6C8,22.6,7.8,22.7,7.5,22.7z"/>
			</g>
			<g>
				<path fill="#37474F" d="M7.5,24.8c-0.2,0-0.4-0.2-0.4-0.4c0-0.2,0.2-0.4,0.4-0.4c0.2,0,0.4,0.2,0.4,0.4
					C7.9,24.7,7.7,24.8,7.5,24.8z"/>
				<path fill="#37474F" d="M7.5,25.3c-0.5,0-0.9-0.4-0.9-0.9c0-0.5,0.4-0.9,0.9-0.9c0.5,0,0.9,0.4,0.9,0.9C8.4,25,8,25.3,7.5,25.3
					L7.5,25.3z"/>
			</g>
			<g>
				<path fill="#37474F" d="M7.5,27.4c-0.2,0-0.4-0.2-0.4-0.4c0-0.2,0.2-0.4,0.4-0.4c0.2,0,0.4,0.2,0.4,0.4
					C7.9,27.2,7.7,27.4,7.5,27.4z"/>
				<path fill="#37474F" d="M7.5,27.9c-0.5,0-0.9-0.4-0.9-0.9c0-0.5,0.4-0.9,0.9-0.9c0.2,0,0.5,0.1,0.6,0.3c0.2,0.2,0.2,0.4,0.2,0.6
					c0,0.2-0.1,0.4-0.2,0.6C8,27.8,7.8,27.9,7.5,27.9z"/>
			</g>
		</g>
	</g>
	<g>
		<path fill="#78909C" d="M25.7,8.2V2.5c0-0.7-0.5-1-1.2-1h-1.1c-0.7,0-1.2,0.3-1.2,1v5.8c-1.5,0.2-2.5,1.5-2.5,3.2v17.1
			c0,1.8,1,3,2.8,3h2.9c1.8,0,3.3-1.1,3.3-3V11.5C28.7,9.8,27.7,8.4,25.7,8.2z"/>
		<path fill="#37474F" d="M25.3,32h-2.9c-2,0-3.3-1.3-3.3-3.5V11.5c0-1.8,1-3.2,2.5-3.6V2.5c0-0.9,0.7-1.5,1.7-1.5h1.1
			c1.1,0,1.7,0.6,1.7,1.5v5.3c1.9,0.4,3,1.7,3,3.6v17.1C29.2,30.5,27.6,32,25.3,32z M23.4,2c-0.7,0-0.7,0.3-0.7,0.5v5.7
			c0,0.3-0.2,0.5-0.4,0.5c-1.2,0.2-2.1,1.3-2.1,2.7v17.1c0,1.6,0.8,2.5,2.3,2.5h2.9c1.4,0,2.8-0.8,2.8-2.5V11.5
			c0-1.6-0.9-2.5-2.5-2.7c-0.3,0-0.5-0.2-0.5-0.5V2.5c0-0.2,0-0.5-0.7-0.5H23.4z"/>
	</g>
	<g>
		<path fill="#FFAB00" d="M26.8,1.5c0,0.6-0.5,1-1,1h-3.4c-0.6,0-1.3,0-1.3-1l0,0c0-1,0.8-1,1.4-1h3.4C26.3,0.5,26.8,0.9,26.8,1.5
			L26.8,1.5z"/>
		<path fill="#37474F" d="M25.8,3h-3.4c-0.5,0-1.8,0-1.8-1.5S21.9,0,22.4,0h3.4c0.8,0,1.5,0.7,1.5,1.5C27.3,2.3,26.6,3,25.8,3z
			 M22.4,1c-0.8,0-0.9,0.1-0.9,0.5c0,0.4,0.1,0.5,0.8,0.5h3.4c0.3,0,0.5-0.2,0.5-0.5C26.3,1.2,26,1,25.8,1H22.4z"/>
	</g>
	<g>
		<path fill="#37474F" d="M20.3,10.5c-0.1,0-0.6,0.7-0.6,1v17.1c0,1.8,1,3,2.8,3h2.9c1.8,0,3.3-1.1,3.3-3V11.5c0-0.2-0.1-1-0.2-1
			H20.3z"/>
		<path fill="#37474F" d="M25.3,32h-2.9c-2,0-3.3-1.3-3.3-3.5V11.5c0-0.4,0.7-1.5,1.1-1.5h8.2c0.6,0,0.7,1,0.7,1.5v17.1
			C29.2,30.5,27.6,32,25.3,32z M20.5,11c-0.1,0.2-0.3,0.4-0.4,0.5l0,17c0,1.6,0.8,2.5,2.3,2.5h2.9c1.4,0,2.8-0.8,2.8-2.5V11.5
			c0-0.1,0-0.3-0.1-0.5H20.5z"/>
	</g>
	<g>
		<g>
			<path fill="#FFECB3" d="M17,21c0,0.8-0.7,1.5-1.5,1.5l0,0c-0.8,0-1.5-0.7-1.5-1.5v-5c0-0.8,0.7-1.5,1.5-1.5l0,0
				c0.8,0,1.5,0.7,1.5,1.5V21z"/>
			<path fill="#37474F" d="M15.5,23c-1.1,0-2-0.9-2-2v-5c0-1.1,0.9-2,2-2s2,0.9,2,2v5C17.5,22.1,16.6,23,15.5,23z M15.5,15
				c-0.6,0-1,0.4-1,1v5c0,0.6,0.4,1,1,1s1-0.4,1-1v-5C16.5,15.4,16,15,15.5,15z"/>
		</g>
		<g>
			<polygon fill="#FFFFFF" points="19.5,31.5 11.4,31.5 12.6,18.5 18.3,18.5 			"/>
			<path fill="#37474F" d="M19.5,32C19.5,32,19.5,32,19.5,32h-8c-0.1,0-0.3-0.1-0.4-0.2s-0.1-0.2-0.1-0.4l1.1-13
				c0-0.3,0.2-0.5,0.5-0.5h5.7c0.3,0,0.5,0.2,0.5,0.5l1.1,12.9c0,0.1,0,0.1,0,0.2C20,31.8,19.8,32,19.5,32z M12,31h6.9l-1.1-12H13
				L12,31z"/>
		</g>
		<g>
			<path fill="#FFECB3" d="M19.6,17.5c0,0.9-0.7,2-1.6,2h-5.1c-0.9,0-1.6-1.1-1.6-2l0,0c0-0.9,0.7-2,1.6-2H18
				C18.9,15.5,19.6,16.6,19.6,17.5L19.6,17.5z"/>
			<path fill="#37474F" d="M18,20h-5.1c-1.2,0-2.1-1.3-2.1-2.5s0.9-2.5,2.1-2.5H18c1.2,0,2.1,1.3,2.1,2.5S19.2,20,18,20z M12.9,16
				c-0.6,0-1.1,0.8-1.1,1.5c0,0.7,0.5,1.5,1.1,1.5H18c0.6,0,1.1-0.8,1.1-1.5S18.6,16,18,16H12.9z"/>
		</g>
		<g>
			<g>
				<path fill="#37474F" d="M15.4,22.2c-0.2,0-0.4-0.2-0.4-0.4c0-0.2,0.2-0.4,0.4-0.4c0.2,0,0.4,0.2,0.4,0.4
					C15.8,22.1,15.6,22.2,15.4,22.2z"/>
				<path fill="#37474F" d="M15.4,22.7c-0.5,0-0.9-0.4-0.9-0.8c0-0.2,0.1-0.5,0.2-0.6c0.2-0.2,0.4-0.3,0.6-0.3
					c0.5,0,0.9,0.4,0.9,0.9c0,0.2-0.1,0.4-0.2,0.6C15.9,22.6,15.7,22.7,15.4,22.7z"/>
			</g>
			<g>
				<path fill="#37474F" d="M15.4,24.8c-0.2,0-0.4-0.2-0.4-0.4c0-0.2,0.2-0.4,0.4-0.4c0.2,0,0.4,0.2,0.4,0.4
					C15.8,24.7,15.6,24.8,15.4,24.8z"/>
				<path fill="#37474F" d="M15.4,25.3c-0.5,0-0.9-0.4-0.9-0.9c0-0.5,0.4-0.9,0.9-0.9c0.5,0,0.9,0.4,0.9,0.9
					C16.3,25,15.9,25.3,15.4,25.3L15.4,25.3z"/>
			</g>
			<g>
				<path fill="#37474F" d="M15.4,27.4c-0.2,0-0.4-0.2-0.4-0.4c0-0.2,0.2-0.4,0.4-0.4c0.2,0,0.4,0.2,0.4,0.4
					C15.8,27.2,15.7,27.4,15.4,27.4z"/>
				<path fill="#37474F" d="M15.4,27.9c-0.5,0-0.9-0.4-0.9-0.9c0-0.5,0.4-0.9,0.9-0.9c0.2,0,0.5,0.1,0.6,0.3
					c0.2,0.2,0.2,0.4,0.2,0.6c0,0.2-0.1,0.4-0.2,0.6C15.9,27.8,15.7,27.9,15.4,27.9z"/>
			</g>
		</g>
	</g>
	<g>
		<rect x="22.7" y="15.5" fill="#FFFFFF" width="6" height="9"/>
		<path fill="#37474F" d="M28.7,25h-6c-0.3,0-0.5-0.2-0.5-0.5v-9c0-0.3,0.2-0.5,0.5-0.5h6c0.3,0,0.5,0.2,0.5,0.5v9
			C29.2,24.8,29,25,28.7,25z M23.2,24h5v-8h-5V24z"/>
	</g>
</g>
</svg>
