<?xml version="1.0" encoding="utf-8"?>
<!-- Generator: Adobe Illustrator 16.0.0, SVG Export Plug-In . SVG Version: 6.00 Build 0)  -->
<!DOCTYPE svg PUBLIC "-//W3C//DTD SVG 1.1//EN" "http://www.w3.org/Graphics/SVG/1.1/DTD/svg11.dtd">
<svg version="1.1" id="Layer_1" xmlns="http://www.w3.org/2000/svg" xmlns:xlink="http://www.w3.org/1999/xlink" x="0px" y="0px"
	 width="128px" height="128px" viewBox="0 0 128 128" enable-background="new 0 0 128 128" xml:space="preserve">
<g>
	<g>
		<g>
			<path fill="#B0BEC5" d="M58.6,10.5H28.4c-4.9,0-8.7,4.3-8.7,9.3v34.1l-3-2.9c-2.7-2.6-7-2.6-9.7,0l-2.7,2.7c-2.6,2.6-2.7,7,0,9.6
				l17.1,17.1c0.2,0.2,0.5,0.2,0.7,0.4c1.6,1.7,3.9,2.7,6.4,2.7h30.2c4.9,0,9-3.9,9-8.9V19.8C67.7,14.8,63.6,10.5,58.6,10.5z"/>
			<path fill="#37474F" d="M58.6,85H28.4c-2.8,0-5.4-1.1-7.3-3c-0.2-0.1-0.5-0.2-0.7-0.5L3.2,64.4c-1.6-1.5-2.4-3.6-2.4-5.8
				c0-2.2,0.9-4.3,2.4-5.9L6,49.9c1.6-1.6,3.6-2.4,5.9-2.4c2.2,0,4.3,0.9,5.9,2.4l0.4,0.4V19.8C18.2,13.8,22.8,9,28.4,9h30.2
				c5.7,0,10.5,4.9,10.5,10.8v54.8C69.2,80.3,64.4,85,58.6,85z M22.4,79.3L22.4,79.3c0.2,0.1,0.4,0.2,0.6,0.3l0.2,0.2
				c1.4,1.4,3.3,2.2,5.3,2.2h30.2c4.2,0,7.5-3.3,7.5-7.4V19.8c0-4.1-3.5-7.8-7.5-7.8H28.4c-4,0-7.2,3.5-7.2,7.8v37.7l-5.5-5.4
				c-1-1-2.4-1.6-3.8-1.6c-1.4,0-2.8,0.5-3.8,1.5l-2.7,2.7c-1,1-1.5,2.3-1.5,3.7c0,1.4,0.5,2.7,1.5,3.7L22.4,79.3z"/>
		</g>
		<g>
			<path fill="#FFAB00" d="M67.6,88c0,2.6-2.1,4.5-4.7,4.5H26.2c-2.6,0-4.7-1.9-4.7-4.5l0,0c0-2.6,2.1-4.5,4.7-4.5h36.7
				C65.5,83.5,67.6,85.4,67.6,88L67.6,88z"/>
			<path fill="#37474F" d="M62.9,94H26.2c-3.5,0-6.2-2.6-6.2-6c0-3.4,2.7-6,6.2-6h36.7c3.5,0,6.2,2.6,6.2,6
				C69.1,91.4,66.3,94,62.9,94z M26.2,85c-1.8,0-3.2,1.3-3.2,3c0,1.7,1.4,3,3.2,3h36.7c1.8,0,3.2-1.3,3.2-3c0-1.7-1.4-3-3.2-3H26.2z
				"/>
		</g>
		<g>
			<g>
				<g>
					<path fill="#37474F" d="M36.5,54.5c0,0.7-0.6,1.3-1.3,1.3c-0.7,0-1.4-0.6-1.3-1.3c0-0.7,0.6-1.3,1.3-1.3
						C36,53.1,36.5,53.8,36.5,54.5z"/>
					<path fill="#37474F" d="M35.2,56.3c-0.5,0-0.9-0.2-1.3-0.5c-0.3-0.3-0.5-0.8-0.5-1.3c0-1,0.8-1.8,1.8-1.8c0,0,0,0,0,0
						c1,0,1.8,0.8,1.8,1.8C37,55.5,36.3,56.3,35.2,56.3L35.2,56.3z M35.3,53.7c-0.5,0-0.9,0.3-0.9,0.8c0,0.2,0.1,0.4,0.2,0.6
						s0.3,0.2,0.6,0.2v0.5l0-0.5c0.5,0,0.8-0.4,0.8-0.8C36,54.1,35.7,53.7,35.3,53.7z"/>
				</g>
				<g>
					<path fill="#37474F" d="M45.8,54.5c0,0.7-0.6,1.3-1.3,1.3c-0.8,0-1.4-0.6-1.4-1.3c0-0.7,0.6-1.3,1.3-1.3
						C45.2,53.2,45.8,53.8,45.8,54.5z"/>
					<path fill="#37474F" d="M44.5,56.3c-1,0-1.9-0.8-1.9-1.8c0-1,0.8-1.8,1.8-1.8c1,0,1.8,0.9,1.8,1.9c0,0.4-0.1,0.9-0.5,1.2
						C45.5,56.1,45,56.3,44.5,56.3z M44.5,53.6c-0.4,0-0.8,0.4-0.8,0.8c0,0.5,0.4,0.8,0.9,0.8c0.2,0,0.4-0.1,0.6-0.3
						c0.1-0.1,0.2-0.3,0.2-0.5C45.3,54.1,45,53.7,44.5,53.6z"/>
				</g>
				<g>
					<path fill="#37474F" d="M55.2,54.5c0,0.7-0.6,1.3-1.3,1.3c-0.7,0-1.4-0.6-1.4-1.3c0-0.7,0.6-1.3,1.3-1.3
						C54.6,53.1,55.2,53.7,55.2,54.5z"/>
					<path fill="#37474F" d="M53.8,56.3c-1,0-1.9-0.8-1.9-1.8c0-1,0.8-1.8,1.8-1.8h0.1c1,0,1.8,0.8,1.8,1.8
						C55.7,55.5,54.8,56.3,53.8,56.3z M53.7,53.7c-0.4,0-0.8,0.4-0.8,0.8c0,0.5,0.4,0.8,0.9,0.8c0.5,0,0.8-0.4,0.8-0.8
						c0-0.4-0.4-0.8-0.8-0.8H53.7z"/>
				</g>
			</g>
			<g>
				<g>
					<path fill="#37474F" d="M36.5,65.5c0,0.8-0.6,1.3-1.3,1.3c-0.7,0-1.4-0.6-1.3-1.3c0-0.7,0.6-1.3,1.3-1.3
						C36,64.1,36.5,64.8,36.5,65.5z"/>
					<path fill="#37474F" d="M35.2,67.3c-0.5,0-0.9-0.2-1.3-0.5c-0.3-0.3-0.5-0.8-0.5-1.3c0-1,0.8-1.8,1.8-1.8h0
						c1,0,1.8,0.8,1.8,1.8C37,66.5,36.3,67.3,35.2,67.3L35.2,67.3z M35.3,64.6c-0.5,0-0.9,0.3-0.9,0.8c0,0.2,0.1,0.4,0.2,0.6
						c0.1,0.1,0.3,0.2,0.6,0.2v0.5l0-0.5c0.5,0,0.8-0.4,0.8-0.8C36,65,35.7,64.6,35.3,64.6z"/>
				</g>
				<g>
					<path fill="#37474F" d="M45.8,65.5c0,0.7-0.6,1.3-1.3,1.3c-0.8,0-1.4-0.6-1.4-1.3c0-0.7,0.6-1.3,1.3-1.3
						C45.2,64.1,45.8,64.8,45.8,65.5z"/>
					<path fill="#37474F" d="M44.5,67.3c-1,0-1.9-0.8-1.9-1.8c0-1,0.8-1.8,1.8-1.8c1,0,1.8,0.9,1.8,1.9c0,0.4-0.1,0.9-0.5,1.2
						C45.5,67.1,45,67.3,44.5,67.3z M44.5,64.6c-0.4,0-0.8,0.4-0.8,0.8c0,0.5,0.4,0.8,0.9,0.8c0.2,0,0.4-0.1,0.6-0.3
						c0.1-0.1,0.2-0.3,0.2-0.5C45.3,65,45,64.6,44.5,64.6z"/>
				</g>
				<g>
					<path fill="#37474F" d="M55.2,65.5c0,0.8-0.6,1.3-1.3,1.3c-0.7,0-1.4-0.6-1.4-1.3c0-0.7,0.6-1.3,1.3-1.3
						C54.6,64.1,55.2,64.7,55.2,65.5z"/>
					<path fill="#37474F" d="M53.8,67.3c-1,0-1.9-0.8-1.9-1.8c0-1,0.8-1.8,1.8-1.8c1.1,0,1.9,0.8,1.9,1.8
						C55.7,66.5,54.9,67.3,53.8,67.3z M53.8,64.6c-0.5,0-0.9,0.4-0.9,0.8c0,0.5,0.4,0.8,0.9,0.8c0.5,0,0.8-0.4,0.8-0.8
						C54.7,65,54.3,64.6,53.8,64.6z"/>
				</g>
			</g>
		</g>
		<g>
			<line fill="#FFAB00" x1="19.5" y1="53.9" x2="25.7" y2="60.2"/>
			<path fill="#37474F" d="M25.7,61.7c-0.4,0-0.8-0.1-1.1-0.4L18.4,55c-0.6-0.6-0.6-1.5,0-2.1c0.6-0.6,1.5-0.6,2.1,0l6.3,6.3
				c0.6,0.6,0.6,1.5,0,2.1C26.5,61.5,26.1,61.7,25.7,61.7z"/>
		</g>
	</g>
	<g>
		<g>
			<path fill="#FFFFFF" d="M69.3,35.5h30.2c4.9,0,9.1,3.7,9.1,8.6v34.1l2.8-2.9c2.7-2.6,6.9-2.6,9.6,0l2.7,2.7c2.6,2.6,2.6,7,0,9.6
				l-17.1,17.1c-0.2,0.2-0.5,0.1-0.7,0.2c-1.6,1.7-3.9,2.5-6.4,2.5H69.3c-4.9,0-8.7-3.6-8.7-8.6V44.1C60.7,39.2,64.4,35.5,69.3,35.5
				z"/>
			<path fill="#37474F" d="M99.6,109H69.3c-5.8,0-10.2-4.3-10.2-10.1V44.1c0-5.8,4.4-10.1,10.2-10.1h30.2c6,0,10.6,4.4,10.6,10.1
				v30.4l0.2-0.3c1.6-1.6,3.7-2.4,5.9-2.4c2.2,0,4.3,0.9,5.8,2.4l2.7,2.7c1.6,1.5,2.4,3.6,2.4,5.8c0,2.2-0.9,4.3-2.4,5.9l-17.1,17.1
				c-0.3,0.3-0.7,0.5-0.9,0.5C104.9,108.1,102.3,109,99.6,109z M69.3,37c-4.2,0-7.2,3-7.2,7.1v54.8c0,4.1,3,7.1,7.2,7.1h30.2
				c2.1,0,4-0.7,5.3-2c0,0,0.1-0.1,0.1-0.1c0.3-0.2,0.6-0.3,0.8-0.4l16.9-16.9c1-1,1.5-2.3,1.5-3.7c0-1.4-0.5-2.7-1.5-3.7l-2.7-2.7
				c-1-1-2.3-1.5-3.7-1.5c-1.4,0-2.7,0.5-3.7,1.5l-2.8,2.9c-0.4,0.4-1.1,0.6-1.6,0.3c-0.6-0.2-0.9-0.8-0.9-1.4V44.1
				c0-4-3.3-7.1-7.6-7.1H69.3z"/>
		</g>
		<g>
			<path fill="#FFAB00" d="M60.4,112.5c0,2.6,2.1,5,4.7,5h36.7c2.6,0,4.7-2.4,4.7-5l0,0c0-2.6-2.1-5-4.7-5H65.1
				C62.5,107.5,60.4,109.9,60.4,112.5L60.4,112.5z"/>
			<path fill="#37474F" d="M101.8,119H65.1c-3.4,0-6.2-3-6.2-6.5c0-3.5,2.8-6.5,6.2-6.5h36.7c3.4,0,6.2,3,6.2,6.5
				C108,116,105.1,119,101.8,119z M65.1,109c-1.7,0-3.2,1.6-3.2,3.5c0,1.8,1.5,3.5,3.2,3.5h36.7c1.7,0,3.2-1.7,3.2-3.5
				c0-1.9-1.5-3.5-3.2-3.5H65.1z"/>
		</g>
		<g>
			<g>
				<g>
					<path fill="#37474F" d="M91.4,78.8c0,0.7,0.6,1.3,1.3,1.3c0.7,0,1.4-0.6,1.3-1.3c0-0.7-0.6-1.3-1.3-1.3
						C92,77.5,91.4,78.1,91.4,78.8z"/>
					<path fill="#37474F" d="M92.8,80.6L92.8,80.6L92.8,80.6c-1.1,0-1.9-0.8-1.9-1.8c0-1,0.8-1.8,1.8-1.8c1.1,0,1.9,0.8,1.9,1.8
						c0,0.5-0.2,0.9-0.5,1.3C93.7,80.4,93.3,80.6,92.8,80.6z M92.7,78c-0.5,0-0.8,0.4-0.8,0.8c0,0.5,0.4,0.8,0.8,0.8l0,0.5v-0.5
						c0.2,0,0.4-0.1,0.6-0.2c0.2-0.2,0.2-0.4,0.2-0.6C93.6,78.3,93.2,78,92.7,78C92.7,78,92.7,78,92.7,78z"/>
				</g>
				<g>
					<path fill="#37474F" d="M82.1,78.8c0,0.7,0.6,1.3,1.3,1.3c0.8,0,1.4-0.6,1.4-1.3c0-0.7-0.6-1.3-1.3-1.3
						C82.7,77.5,82.1,78.1,82.1,78.8z"/>
					<path fill="#37474F" d="M83.4,80.6c-0.5,0-1-0.2-1.3-0.6c-0.3-0.3-0.5-0.8-0.5-1.3c0-1,0.8-1.8,1.8-1.8c0,0,0,0,0,0
						c1,0,1.9,0.8,1.9,1.8C85.3,79.8,84.5,80.6,83.4,80.6z M83.5,78c-0.5,0-0.8,0.4-0.8,0.9c0,0.2,0.1,0.4,0.2,0.5
						c0.2,0.2,0.4,0.3,0.6,0.3c0.5,0,0.9-0.4,0.9-0.8C84.3,78.4,83.9,78,83.5,78z"/>
				</g>
				<g>
					<path fill="#37474F" d="M72.8,78.8c0,0.7,0.6,1.3,1.3,1.3c0.7,0,1.4-0.6,1.4-1.3c0-0.7-0.6-1.3-1.3-1.3
						C73.4,77.5,72.8,78.1,72.8,78.8z"/>
					<path fill="#37474F" d="M74.1,80.6c-1,0-1.8-0.8-1.8-1.8c0-1,0.8-1.8,1.8-1.8c1.1,0,1.9,0.8,1.9,1.8
						C76,79.8,75.2,80.6,74.1,80.6z M74.2,78c-0.5,0-0.9,0.4-0.9,0.8c0,0.4,0.4,0.8,0.8,0.8c0.5,0,0.9-0.4,0.9-0.8
						C75,78.4,74.6,78,74.2,78z"/>
				</g>
			</g>
			<g>
				<g>
					<path fill="#37474F" d="M91.4,89.8c0,0.7,0.6,1.3,1.3,1.3c0.7,0,1.4-0.6,1.3-1.3c0-0.7-0.6-1.3-1.3-1.3
						C92,88.5,91.4,89.1,91.4,89.8z"/>
					<path fill="#37474F" d="M92.8,91.6L92.8,91.6L92.8,91.6c-1.1,0-1.9-0.8-1.9-1.8c0-1,0.8-1.8,1.7-1.8c1.1,0,1.9,0.8,1.9,1.8
						c0,0.5-0.2,0.9-0.5,1.3C93.7,91.4,93.3,91.6,92.8,91.6z M92.7,89c-0.5,0-0.8,0.4-0.8,0.8c0,0.5,0.3,0.8,0.8,0.8l0,0.5v-0.5
						c0.2,0,0.4-0.1,0.6-0.2c0.1-0.2,0.2-0.3,0.2-0.6C93.6,89.3,93.2,89,92.7,89C92.7,89,92.7,89,92.7,89z"/>
				</g>
				<g>
					<path fill="#37474F" d="M82.1,89.8c0,0.7,0.6,1.3,1.3,1.3c0.8,0,1.4-0.6,1.4-1.3c0-0.7-0.6-1.3-1.3-1.3
						C82.7,88.5,82.1,89.1,82.1,89.8z"/>
					<path fill="#37474F" d="M83.4,91.6c-0.5,0-1-0.2-1.3-0.6c-0.3-0.3-0.5-0.8-0.5-1.3c0-1,0.8-1.8,1.8-1.8c0,0,0,0,0,0
						c1,0,1.9,0.8,1.9,1.8C85.3,90.8,84.5,91.6,83.4,91.6z M83.5,89c-0.5,0-0.8,0.4-0.8,0.9c0,0.3,0.1,0.4,0.2,0.5
						c0.2,0.2,0.4,0.3,0.6,0.3c0.5,0,0.9-0.4,0.9-0.8C84.3,89.4,83.9,89,83.5,89z"/>
				</g>
				<g>
					<path fill="#37474F" d="M72.8,89.8c0,0.7,0.6,1.3,1.3,1.3c0.7,0,1.4-0.6,1.4-1.3s-0.6-1.3-1.3-1.3
						C73.4,88.5,72.8,89.1,72.8,89.8z"/>
					<path fill="#37474F" d="M74.1,91.6c-1,0-1.8-0.8-1.8-1.8c0-1,0.8-1.8,1.8-1.8h0.1c1,0,1.8,0.8,1.8,1.8
						C76,90.8,75.2,91.6,74.1,91.6z M74.1,89c-0.4,0-0.8,0.4-0.8,0.8c0,0.5,0.4,0.8,0.8,0.8c0.5,0,0.9-0.4,0.9-0.8
						c0-0.4-0.4-0.8-0.8-0.8H74.1z"/>
				</g>
			</g>
		</g>
		<g>
			<line fill="#FFAB00" x1="108.5" y1="78.2" x2="102.2" y2="84.5"/>
			<path fill="#37474F" d="M102.2,86c-0.4,0-0.8-0.1-1.1-0.4c-0.6-0.6-0.6-1.5,0-2.1l6.3-6.3c0.6-0.6,1.5-0.6,2.1,0s0.6,1.5,0,2.1
				l-6.3,6.3C103,85.9,102.6,86,102.2,86z"/>
		</g>
	</g>
</g>
</svg>
