<?xml version="1.0" encoding="utf-8"?>
<!-- Generator: Adobe Illustrator 16.0.0, SVG Export Plug-In . SVG Version: 6.00 Build 0)  -->
<!DOCTYPE svg PUBLIC "-//W3C//DTD SVG 1.1//EN" "http://www.w3.org/Graphics/SVG/1.1/DTD/svg11.dtd">
<svg version="1.1" id="Layer_1" xmlns="http://www.w3.org/2000/svg" xmlns:xlink="http://www.w3.org/1999/xlink" x="0px" y="0px"
	 width="24px" height="24px" viewBox="0 0 24 24" enable-background="new 0 0 24 24" xml:space="preserve">
<g>
	<path d="M15.1,12.3L8.4,19c-0.1,0.1-0.1,0.2-0.1,0.4s0.1,0.3,0.1,0.4l4,4c0.1,0.1,0.2,0.1,0.4,0.1s0.3,0,0.4-0.1l6.7-6.7
		c0.1-0.1,0.1-0.2,0.1-0.4s-0.1-0.3-0.1-0.4l-4-4C15.6,12.1,15.3,12.1,15.1,12.3z M15.5,13.3l2.1,2.1l-6,6l-2.1-2.1L15.5,13.3z
		 M12.8,22.7l-0.5-0.5l6-6l0.5,0.5L12.8,22.7z"/>
	<path d="M8,8.8c-1,0-1.7,0.8-1.7,1.7c0,1,0.8,1.7,1.7,1.7c1,0,1.7-0.8,1.7-1.7C9.8,9.5,9,8.8,8,8.8z M8,11.2
		c-0.4,0-0.7-0.3-0.7-0.7c0-0.4,0.3-0.7,0.7-0.7c0.4,0,0.7,0.3,0.7,0.7C8.8,10.9,8.4,11.2,8,11.2z"/>
	<path d="M18,4.7l0.4-4c0-0.1,0-0.3-0.1-0.4c-0.1-0.1-0.2-0.2-0.4-0.1l-4,0.4c-0.1,0-0.2,0.1-0.3,0.1L9.1,5.1C9,5,8.9,4.9,8.8,4.9
		C6.2,4.9,4,7.1,4,9.7c0,2.6,2.1,4.8,4.8,4.8c2.3,0,4.2-1.6,4.7-3.8c0,0,0.1,0,0.1-0.1l0.9-0.9c0.7-0.7,1.9-0.7,2.7,0l0.9,0.9
		c0.4,0.4,0.6,0.8,0.6,1.3s-0.2,1-0.6,1.3c-0.2,0.2-0.2,0.5,0,0.7c0.1,0.1,0.2,0.1,0.4,0.1s0.3,0,0.4-0.1c0.5-0.5,0.8-1.3,0.8-2
		s-0.3-1.5-0.8-2L17.9,9c-1-1-2.5-1.1-3.6-0.4L17.9,5C18,4.9,18,4.8,18,4.7z M17.1,4.4l-4.7,4.7c-0.2,0.2-0.2,0.5,0,0.7
		c0.1,0.1,0.1,0.1,0.2,0.1c-0.1,2-1.7,3.6-3.8,3.6C6.7,13.5,5,11.8,5,9.7c0-2,1.6-3.7,3.6-3.8c0,0.1,0.1,0.1,0.1,0.2
		c0.2,0.2,0.5,0.2,0.7,0l4.6-4.7l3.2-0.3L17.1,4.4z"/>
	<path d="M14.1,3.5l0.3,0.3l-3.3,3.3c-0.2,0.2-0.2,0.5,0,0.7c0.1,0.1,0.2,0.1,0.4,0.1s0.3,0,0.4-0.1l3.3-3.3l0,0
		c0.1,0.1,0.2,0.1,0.4,0.1s0.3,0,0.4-0.1C16,4.4,16,4,15.8,3.8l-1-1c-0.2-0.2-0.5-0.2-0.7,0C13.9,3,13.9,3.3,14.1,3.5z"/>
</g>
</svg>
