<?xml version="1.0" encoding="utf-8"?>
<!-- Generator: Adobe Illustrator 16.0.0, SVG Export Plug-In . SVG Version: 6.00 Build 0)  -->
<!DOCTYPE svg PUBLIC "-//W3C//DTD SVG 1.1//EN" "http://www.w3.org/Graphics/SVG/1.1/DTD/svg11.dtd">
<svg version="1.1" id="Layer_1" xmlns="http://www.w3.org/2000/svg" xmlns:xlink="http://www.w3.org/1999/xlink" x="0px" y="0px"
	 width="128px" height="128px" viewBox="0 0 128 128" enable-background="new 0 0 128 128" xml:space="preserve">
<g>
	<g>
		<g>
			<g>
				<g>
					<polygon fill="#FFECB3" points="30,34 30,33.9 30,33 29.7,33 19,11.4 8.3,33 8,33 8,33.9 8,34 8,34 8,117 30,117 30,34 					
						"/>
					<path fill="#37474F" d="M30,119H8c-1.1,0-2-0.9-2-2V33c0-0.6,0.2-1.1,0.7-1.5c0.1-0.1,0.2-0.2,0.3-0.2l10.2-20.8
						c0.3-0.7,1-1.1,1.8-1.1c0,0,0,0,0,0c0.8,0,1.5,0.4,1.8,1.1l10.3,20.9c0.5,0.4,0.9,1,0.9,1.7v84C32,118.1,31.1,119,30,119z
						 M10,115h18V34c0,0-0.1-0.1-0.1-0.2l-8.9-18l-8.9,18c0,0.1-0.1,0.2-0.1,0.2V115z"/>
				</g>
			</g>
			<g>
				<path fill="#FFECB3" d="M21.6,50.3c-1.7,1.7-4.4,1.7-6,0s-1.7-4.4,0-6"/>
				<path fill="#37474F" d="M18.6,53.5C18.6,53.5,18.6,53.5,18.6,53.5c-1.7,0-3.3-0.7-4.4-1.8c-1.2-1.2-1.8-2.8-1.8-4.4
					s0.7-3.3,1.8-4.4c0.8-0.8,2-0.8,2.8,0c0.8,0.8,0.8,2,0,2.8c-0.4,0.4-0.7,1-0.7,1.6s0.2,1.2,0.7,1.6c0.4,0.4,1,0.7,1.6,0.7h0
					c0.6,0,1.2-0.2,1.6-0.7c0.8-0.8,2-0.8,2.8,0c0.8,0.8,0.8,2,0,2.8C21.8,52.9,20.3,53.5,18.6,53.5z"/>
			</g>
			<g>
				<path fill="#FFECB3" d="M21.6,94.6c-1.7,1.7-4.4,1.7-6,0s-1.7-4.4,0-6"/>
				<path fill="#37474F" d="M18.6,97.9C18.6,97.9,18.6,97.9,18.6,97.9c-1.7,0-3.3-0.7-4.4-1.8c-1.2-1.2-1.8-2.8-1.8-4.4
					s0.7-3.3,1.8-4.4c0.8-0.8,2-0.8,2.8,0c0.8,0.8,0.8,2,0,2.8c-0.4,0.4-0.7,1-0.7,1.6s0.2,1.2,0.7,1.6c0.4,0.4,1,0.7,1.6,0.7h0
					c0.6,0,1.2-0.2,1.6-0.7c0.8-0.8,2-0.8,2.8,0c0.8,0.8,0.8,2,0,2.8C21.8,97.2,20.3,97.9,18.6,97.9z"/>
			</g>
		</g>
		<g>
			<g>
				<g>
					<polygon fill="#FFAB00" points="75,34 75,33.9 75,33 74.7,33 64,11.4 53.4,33 53,33 53,33.9 53,34 53,34 53,117 75,117 75,34 
											"/>
					<path fill="#37474F" d="M75,119H53c-1.1,0-2-0.9-2-2V33c0-0.7,0.4-1.4,1-1.7l10.2-20.8c0.3-0.7,1-1.1,1.8-1.1c0,0,0,0,0,0
						c0.8,0,1.5,0.4,1.8,1.1l10.3,20.8c0.6,0.4,0.9,1,0.9,1.7v84C77,118.1,76.1,119,75,119z M55,115h18V34.1c0-0.1-0.1-0.1-0.1-0.2
						l-8.9-18l-8.8,18c0,0.1-0.1,0.2-0.2,0.3V115z"/>
				</g>
			</g>
			<g>
				<path fill="#FFECB3" d="M67.3,50.3c-1.7,1.7-4.4,1.7-6,0s-1.7-4.4,0-6"/>
				<path fill="#37474F" d="M64.3,53.5C64.3,53.5,64.3,53.5,64.3,53.5c-1.7,0-3.3-0.7-4.4-1.8c-1.2-1.2-1.8-2.8-1.8-4.4
					s0.7-3.3,1.8-4.4c0.8-0.8,2-0.8,2.8,0c0.8,0.8,0.8,2,0,2.8c-0.4,0.4-0.7,1-0.7,1.6s0.2,1.2,0.7,1.6c0.4,0.4,1,0.7,1.6,0.7h0
					c0.6,0,1.2-0.2,1.6-0.7c0.8-0.8,2-0.8,2.8,0c0.8,0.8,0.8,2,0,2.8C67.5,52.9,65.9,53.5,64.3,53.5z"/>
			</g>
			<g>
				<path fill="#FFECB3" d="M67.3,94.6c-1.7,1.7-4.4,1.7-6,0s-1.7-4.4,0-6"/>
				<path fill="#37474F" d="M64.3,97.9C64.3,97.9,64.3,97.9,64.3,97.9c-1.7,0-3.3-0.7-4.4-1.8c-1.2-1.2-1.8-2.8-1.8-4.4
					s0.7-3.3,1.8-4.4c0.8-0.8,2-0.8,2.8,0c0.8,0.8,0.8,2,0,2.8c-0.4,0.4-0.7,1-0.7,1.6s0.2,1.2,0.7,1.6c0.4,0.4,1,0.7,1.6,0.7h0
					c0.6,0,1.2-0.2,1.6-0.7c0.8-0.8,2-0.8,2.8,0c0.8,0.8,0.8,2,0,2.8C67.5,97.2,65.9,97.9,64.3,97.9z"/>
			</g>
		</g>
		<g>
			<g>
				<g>
					<polygon fill="#FFECB3" points="121,34 121,34 121,33 120.6,33 109.9,11.4 99.5,33 99,33 99,33.9 99,34 99,34 99,117 121,117 
						121,34 					"/>
					<path fill="#37474F" d="M121,119H99c-1.1,0-2-0.9-2-2V33c0-0.8,0.5-1.5,1.1-1.8l10-20.7c0.3-0.7,1-1.1,1.8-1.1
						c0.8,0,1.5,0.4,1.8,1.1l10.2,20.7c0.6,0.3,1.1,1,1.1,1.8v84C123,118.1,122.1,119,121,119z M101,115h18V34.2c0,0,0,0,0,0
						c-0.1-0.1-0.1-0.2-0.2-0.3l-8.9-17.9l-8.6,17.9c-0.1,0.2-0.2,0.3-0.3,0.5V115z"/>
				</g>
			</g>
			<g>
				<path fill="#FFECB3" d="M112.9,50.3c-1.7,1.7-4.4,1.7-6,0s-1.7-4.4,0-6"/>
				<path fill="#37474F" d="M109.9,53.5C109.9,53.5,109.9,53.5,109.9,53.5c-1.7,0-3.3-0.7-4.4-1.8c-1.2-1.2-1.8-2.8-1.8-4.4
					s0.7-3.3,1.8-4.4c0.8-0.8,2-0.8,2.8,0c0.8,0.8,0.8,2,0,2.8c-0.4,0.4-0.7,1-0.7,1.6s0.2,1.2,0.7,1.6c0.4,0.4,1,0.7,1.6,0.7h0
					c0.6,0,1.2-0.2,1.6-0.7c0.8-0.8,2-0.8,2.8,0c0.8,0.8,0.8,2,0,2.8C113.2,52.9,111.6,53.5,109.9,53.5z"/>
			</g>
			<g>
				<path fill="#FFECB3" d="M112.9,94.6c-1.7,1.7-4.4,1.7-6,0s-1.7-4.4,0-6"/>
				<path fill="#37474F" d="M109.9,97.9C109.9,97.9,109.9,97.9,109.9,97.9c-1.7,0-3.3-0.7-4.4-1.8c-1.2-1.2-1.8-2.8-1.8-4.4
					s0.7-3.3,1.8-4.4c0.8-0.8,2-0.8,2.8,0c0.8,0.8,0.8,2,0,2.8c-0.4,0.4-0.7,1-0.7,1.6s0.2,1.2,0.7,1.6c0.4,0.4,1,0.7,1.6,0.7h0
					c0.6,0,1.2-0.2,1.6-0.7c0.8-0.8,2-0.8,2.8,0c0.8,0.8,0.8,2,0,2.8C113.2,97.2,111.6,97.9,109.9,97.9z"/>
			</g>
		</g>
	</g>
	<g>
		<g>
			<g>
				<rect x="30" y="44" fill="#B0BEC5" width="23" height="16"/>
				<path fill="#37474F" d="M53,62H30c-1.1,0-2-0.9-2-2V44c0-1.1,0.9-2,2-2h23c1.1,0,2,0.9,2,2v16C55,61.1,54.1,62,53,62z M32,58h19
					V46H32V58z"/>
			</g>
			<g>
				<rect x="30" y="83" fill="#B0BEC5" width="23" height="16"/>
				<path fill="#37474F" d="M53,101H30c-1.1,0-2-0.9-2-2V83c0-1.1,0.9-2,2-2h23c1.1,0,2,0.9,2,2v16C55,100.1,54.1,101,53,101z
					 M32,97h19V85H32V97z"/>
			</g>
		</g>
		<g>
			<g>
				<rect x="75" y="44" fill="#B0BEC5" width="24" height="16"/>
				<path fill="#37474F" d="M99,62H75c-1.1,0-2-0.9-2-2V44c0-1.1,0.9-2,2-2h24c1.1,0,2,0.9,2,2v16C101,61.1,100.1,62,99,62z M77,58
					h20V46H77V58z"/>
			</g>
			<g>
				<rect x="75" y="83" fill="#B0BEC5" width="24" height="16"/>
				<path fill="#37474F" d="M99,101H75c-1.1,0-2-0.9-2-2V83c0-1.1,0.9-2,2-2h24c1.1,0,2,0.9,2,2v16C101,100.1,100.1,101,99,101z
					 M77,97h20V85H77V97z"/>
			</g>
		</g>
	</g>
	<g>
		<line fill="#FFAB00" x1="3" y1="117" x2="125" y2="117"/>
		<path fill="#37474F" d="M125,119H3c-1.1,0-2-0.9-2-2s0.9-2,2-2h122c1.1,0,2,0.9,2,2S126.1,119,125,119z"/>
	</g>
</g>
</svg>
