<?xml version="1.0" encoding="utf-8"?>
<!-- Generator: Adobe Illustrator 16.0.0, SVG Export Plug-In . SVG Version: 6.00 Build 0)  -->
<!DOCTYPE svg PUBLIC "-//W3C//DTD SVG 1.1//EN" "http://www.w3.org/Graphics/SVG/1.1/DTD/svg11.dtd">
<svg version="1.1" id="Layer_1" xmlns="http://www.w3.org/2000/svg" xmlns:xlink="http://www.w3.org/1999/xlink" x="0px" y="0px"
	 width="32px" height="32px" viewBox="0 0 32 32" enable-background="new 0 0 32 32" xml:space="preserve">
<g>
	<g>
		<g>
			<rect x="3.5" y="1" fill="#FFFFFF" width="25" height="30"/>
			<path fill="#37474F" d="M28.5,31.5h-25C3.2,31.5,3,31.3,3,31V1c0-0.3,0.2-0.5,0.5-0.5h25C28.8,0.5,29,0.7,29,1v30
				C29,31.3,28.8,31.5,28.5,31.5z M4,30.5h24v-29H4V30.5z"/>
		</g>
		<g>
			<rect x="3.5" y="10" fill="#FFAB00" width="25" height="17"/>
			<path fill="#37474F" d="M28.5,27.5h-25C3.2,27.5,3,27.3,3,27V10c0-0.3,0.2-0.5,0.5-0.5h25c0.3,0,0.5,0.2,0.5,0.5v17
				C29,27.3,28.8,27.5,28.5,27.5z M4,26.5h24v-16H4V26.5z"/>
		</g>
		<g>
			<rect x="3.5" y="13" fill="#B0BEC5" width="25" height="12"/>
			<path fill="#37474F" d="M28.5,25.5h-25C3.2,25.5,3,25.3,3,25V13c0-0.3,0.2-0.5,0.5-0.5h25c0.3,0,0.5,0.2,0.5,0.5v12
				C29,25.3,28.8,25.5,28.5,25.5z M4,24.5h24v-11H4V24.5z"/>
		</g>
		<g>
			<g>
				<g>
					<path fill="#37474F" d="M25.7,5.4c0-0.2,0.2-0.4,0.4-0.4c0.2,0,0.4,0.2,0.4,0.4c0,0.2-0.2,0.4-0.4,0.4
						C25.9,5.8,25.7,5.6,25.7,5.4z"/>
					<path fill="#37474F" d="M26.1,6.3c-0.5,0-0.9-0.4-0.9-0.9c0-0.5,0.4-0.9,0.9-0.9c0.2,0,0.5,0.1,0.6,0.3C26.9,5,27,5.2,27,5.4
						C27,5.9,26.6,6.3,26.1,6.3L26.1,6.3z"/>
				</g>
				<g>
					<path fill="#37474F" d="M23.1,5.4c0-0.2,0.2-0.4,0.4-0.4c0.2,0,0.4,0.2,0.4,0.4c0,0.2-0.2,0.4-0.4,0.4
						C23.3,5.8,23.1,5.6,23.1,5.4z"/>
					<path fill="#37474F" d="M23.5,6.3L23.5,6.3c-0.5,0-0.9-0.4-0.9-0.9c0-0.2,0.1-0.5,0.3-0.6c0.2-0.2,0.4-0.3,0.6-0.3
						c0.5,0,0.9,0.4,0.9,0.9C24.4,5.9,24,6.3,23.5,6.3z"/>
				</g>
				<g>
					<path fill="#37474F" d="M20.5,5.4c0-0.2,0.2-0.4,0.4-0.4c0.2,0,0.4,0.2,0.4,0.4c0,0.2-0.2,0.4-0.4,0.4
						C20.7,5.8,20.5,5.6,20.5,5.4z"/>
					<path fill="#37474F" d="M20.9,6.3L20.9,6.3L20.9,6.3c-0.5,0-0.9-0.4-0.9-0.9c0-0.5,0.4-0.9,0.9-0.9c0.5,0,0.9,0.4,0.9,0.9
						C21.8,5.9,21.4,6.3,20.9,6.3z M20.9,5.5l0,0.2L20.9,5.5C21,5.5,21,5.5,21,5.4S21,5.3,20.9,5.3v0c0,0,0,0,0,0v0
						c-0.1,0-0.1,0.1-0.1,0.1C20.8,5.5,20.8,5.5,20.9,5.5z"/>
				</g>
			</g>
			<g>
				<g>
					<path fill="#37474F" d="M25.7,3.1c0-0.2,0.2-0.4,0.4-0.4c0.2,0,0.4,0.2,0.4,0.4c0,0.2-0.2,0.4-0.4,0.4
						C25.9,3.5,25.7,3.3,25.7,3.1z"/>
					<path fill="#37474F" d="M26.1,4c-0.5,0-0.9-0.4-0.9-0.9c0-0.5,0.4-0.9,0.9-0.9c0.2,0,0.5,0.1,0.6,0.3C26.9,2.7,27,2.9,27,3.1
						C27,3.6,26.6,4,26.1,4L26.1,4z"/>
				</g>
				<g>
					<path fill="#37474F" d="M23.1,3.1c0-0.2,0.2-0.4,0.4-0.4c0.2,0,0.4,0.2,0.4,0.4c0,0.2-0.2,0.4-0.4,0.4
						C23.3,3.5,23.1,3.3,23.1,3.1z"/>
					<path fill="#37474F" d="M23.5,4L23.5,4c-0.5,0-0.9-0.4-0.9-0.9c0-0.2,0.1-0.4,0.3-0.6c0.2-0.2,0.4-0.3,0.6-0.3
						c0.5,0,0.9,0.4,0.9,0.9C24.4,3.6,24,4,23.5,4z"/>
				</g>
				<g>
					<path fill="#37474F" d="M20.5,3.1c0-0.2,0.2-0.4,0.4-0.4c0.2,0,0.4,0.2,0.4,0.4c0,0.2-0.2,0.4-0.4,0.4
						C20.7,3.5,20.5,3.3,20.5,3.1z"/>
					<path fill="#37474F" d="M20.9,4L20.9,4L20.9,4C20.4,4,20,3.6,20,3.1c0-0.5,0.4-0.9,0.9-0.9c0.5,0,0.9,0.4,0.9,0.9
						C21.8,3.6,21.4,4,20.9,4z M20.9,3.2l0,0.2L20.9,3.2C21,3.2,21,3.2,21,3.1C21,3,21,3,20.9,3v0c0,0,0,0,0,0v0
						c-0.1,0-0.1,0.1-0.1,0.1C20.8,3.2,20.8,3.2,20.9,3.2z"/>
				</g>
			</g>
		</g>
		<g>
			<path fill="#37474F" d="M13,5.5H9C8.7,5.5,8.5,5.3,8.5,5S8.7,4.5,9,4.5h4c0.3,0,0.5,0.2,0.5,0.5S13.3,5.5,13,5.5z"/>
		</g>
		<g>
			<path fill="#37474F" d="M13.5,11c-0.3,0-0.5-0.2-0.5-0.5v-9C13,1.2,13.2,1,13.5,1S14,1.2,14,1.5v9C14,10.8,13.8,11,13.5,11z"/>
		</g>
		<g>
			<g>
				<path fill="#FFAB00" d="M10,5.5C10,6.6,9.1,7.5,8,7.5c-1.1,0-2.1-0.9-2.1-2.1c0-1.1,0.9-2.1,2.1-2.1C9.1,3.4,10,4.3,10,5.5z"/>
				<path fill="#37474F" d="M8,8C6.6,8,5.4,6.9,5.4,5.5c0-1.4,1.1-2.6,2.6-2.6c1.4,0,2.6,1.1,2.6,2.6C10.5,6.9,9.4,8,8,8z M8,3.9
					c-0.9,0-1.6,0.7-1.6,1.6C6.4,6.3,7.1,7,8,7c0.9,0,1.6-0.7,1.6-1.6C9.5,4.6,8.8,3.9,8,3.9z"/>
			</g>
		</g>
		<g>
			<path fill="#37474F" d="M26.1,18.3c0,5.5-4.4,9.9-9.9,9.9s-9.9-4.4-9.9-9.9c0-5.5,4.4-9.9,9.9-9.9S26.1,12.9,26.1,18.3z"/>
			<path fill="#37474F" d="M16.2,28.7c-5.7,0-10.4-4.7-10.4-10.4S10.5,7.9,16.2,7.9c5.7,0,10.4,4.7,10.4,10.4S21.9,28.7,16.2,28.7z
				 M16.2,8.9c-5.2,0-9.4,4.2-9.4,9.4c0,5.2,4.2,9.4,9.4,9.4c5.2,0,9.4-4.2,9.4-9.4C25.6,13.1,21.4,8.9,16.2,8.9z"/>
		</g>
		<g>
			<g>
				<g>
					<g>
						<path fill="#FFFFFF" d="M21.3,17.8c-0.2,0-0.4-0.2-0.4-0.4c0-2.9-2.4-5.3-5.3-5.3c-2.9,0-5.3,2.4-5.3,5.3
							c0,0.2-0.2,0.4-0.4,0.4c-0.2,0-0.4-0.2-0.4-0.4c0-3.4,2.7-6.1,6.1-6.1c3.4,0,6.1,2.7,6.1,6.1C21.7,17.6,21.6,17.8,21.3,17.8z"
							/>
					</g>
				</g>
				<g>
					<g>
						<polygon fill="#FFFFFF" points="22.5,17.5 21.3,18.6 20.2,17.5 						"/>
					</g>
				</g>
			</g>
			<g>
				<g>
					<g>
						<path fill="#FFFFFF" d="M16.8,25.3c-3.4,0-6.1-2.7-6.1-6.1c0-0.2,0.2-0.4,0.4-0.4c0.2,0,0.4,0.2,0.4,0.4
							c0,2.9,2.4,5.3,5.3,5.3c2.9,0,5.3-2.4,5.3-5.3c0-0.2,0.2-0.4,0.4-0.4c0.2,0,0.4,0.2,0.4,0.4C22.9,22.6,20.1,25.3,16.8,25.3z"
							/>
					</g>
				</g>
				<g>
					<g>
						<polygon fill="#FFFFFF" points="9.9,19.5 11.1,18.4 12.2,19.5 						"/>
					</g>
				</g>
			</g>
		</g>
	</g>
	<g>
		<rect x="16.5" y="3" fill="#B0BEC5" width="2" height="3"/>
		<path fill="#37474F" d="M18.5,6.5h-2C16.2,6.5,16,6.3,16,6V3c0-0.3,0.2-0.5,0.5-0.5h2C18.8,2.5,19,2.7,19,3v3
			C19,6.3,18.8,6.5,18.5,6.5z M17,5.5h1v-2h-1V5.5z"/>
	</g>
</g>
</svg>
