<?xml version="1.0" encoding="utf-8"?>
<!-- Generator: Adobe Illustrator 16.0.0, SVG Export Plug-In . SVG Version: 6.00 Build 0)  -->
<!DOCTYPE svg PUBLIC "-//W3C//DTD SVG 1.1//EN" "http://www.w3.org/Graphics/SVG/1.1/DTD/svg11.dtd">
<svg version="1.1" id="Layer_1" xmlns="http://www.w3.org/2000/svg" xmlns:xlink="http://www.w3.org/1999/xlink" x="0px" y="0px"
	 width="64px" height="64px" viewBox="0 0 64 64" enable-background="new 0 0 64 64" xml:space="preserve">
<g>
	<g>
		<g>
			<rect x="14.5" y="53.2" fill="#B0BEC5" width="4.9" height="4.9"/>
			<path fill="#37474F" d="M19.3,59.1h-4.9c-0.6,0-1-0.4-1-1v-4.9c0-0.6,0.4-1,1-1h4.9c0.6,0,1,0.4,1,1v4.9
				C20.3,58.7,19.9,59.1,19.3,59.1z M15.5,57.1h2.9v-2.9h-2.9V57.1z"/>
		</g>
		<g>
			<rect x="44.7" y="53.2" fill="#B0BEC5" width="4.9" height="4.9"/>
			<path fill="#37474F" d="M49.6,59.1h-4.9c-0.6,0-1-0.4-1-1v-4.9c0-0.6,0.4-1,1-1h4.9c0.6,0,1,0.4,1,1v4.9
				C50.6,58.7,50.1,59.1,49.6,59.1z M45.7,57.1h2.9v-2.9h-2.9V57.1z"/>
		</g>
	</g>
	<g>
		<path fill="#FFFFFF" d="M53.5,42.6c0,8.7-6.9,15.5-15.6,15.5H26.1c-8.7,0-15.5-6.8-15.5-15.5V24.9c0-8.7,6.8-15.6,15.5-15.6h11.8
			c8.7,0,15.6,6.9,15.6,15.6V42.6z"/>
		<path fill="#37474F" d="M37.9,59.1H26.1c-9.3,0-16.5-7.2-16.5-16.5V24.9c0-9.3,7.3-16.6,16.5-16.6h11.8c9.3,0,16.6,7.3,16.6,16.6
			v17.7C54.5,51.9,47.2,59.1,37.9,59.1z M26.1,10.3c-8.1,0-14.5,6.4-14.5,14.6v17.7c0,8.1,6.4,14.5,14.5,14.5h11.8
			c8.2,0,14.6-6.4,14.6-14.5V24.9c0-8.2-6.4-14.6-14.6-14.6H26.1z"/>
	</g>
	<g>
		<g>
			<polyline fill="#FFAB00" points="2.8,27.9 9.6,27.9 9.6,35.7 10.6,35.7 			"/>
			<path fill="#37474F" d="M10.6,36.7h-1c-0.6,0-1-0.4-1-1v-6.8H2.8c-0.6,0-1-0.4-1-1s0.4-1,1-1h6.8c0.6,0,1,0.4,1,1v6.8
				c0.5,0,1,0.5,1,1C11.6,36.2,11.1,36.7,10.6,36.7z"/>
		</g>
		<g>
			<polyline fill="#FFAB00" points="61.3,27.9 54.5,27.9 54.5,35.7 53.5,35.7 			"/>
			<path fill="#37474F" d="M54.5,36.7h-1c-0.6,0-1-0.4-1-1c0-0.5,0.4-1,1-1v-6.8c0-0.6,0.4-1,1-1h6.8c0.6,0,1,0.4,1,1s-0.4,1-1,1
				h-5.8v6.8C55.5,36.2,55,36.7,54.5,36.7z"/>
		</g>
	</g>
	<g>
		<path fill="#FFAB00" d="M39.8,57.1c0,1-0.6,2-1.3,2H25.4c-0.7,0-1.3-1-1.3-2l2.6-18.4c0-1,0.6-2.1,1.3-2.1h8c0.7,0,1.3,1,1.3,2.1
			L39.8,57.1z"/>
		<path fill="#37474F" d="M38.6,60.1H25.4c-1.3,0-2.3-1.3-2.3-3c0,0,0-0.1,0-0.1l2.6-18.3c0-1.4,0.9-3,2.3-3h8c1.4,0,2.3,1.5,2.3,3
			L40.8,57c0,0,0,0.1,0,0.1C40.8,58.7,39.8,60.1,38.6,60.1z M25.2,57.2c0,0.5,0.3,0.9,0.4,0.9l13,0c0.1-0.1,0.3-0.4,0.3-0.9
			l-2.6-18.3c0,0,0-0.1,0-0.1c0-0.5-0.2-1-0.4-1.1l-7.9,0c0,0.1-0.3,0.5-0.3,1.1c0,0,0,0.1,0,0.1L25.2,57.2z"/>
	</g>
	<g>
		<rect x="30.1" y="41.5" fill="#78909C" width="3.9" height="7.8"/>
		<path fill="#37474F" d="M35,50.3h-5.9v-9.8H35V50.3z M31.1,48.3H33v-5.8h-1.9V48.3z"/>
	</g>
	<g>
		<g>
			<g>
				<path fill="#37474F" d="M21.7,42c0-0.3,0.3-0.6,0.6-0.6c0.3,0,0.6,0.3,0.6,0.6c0,0.3-0.3,0.6-0.6,0.6C22,42.6,21.7,42.3,21.7,42
					z"/>
				<path fill="#37474F" d="M22.4,43.1c-0.6,0-1.1-0.5-1.1-1.1c0-0.6,0.5-1.1,1.1-1.1c0.3,0,0.6,0.1,0.8,0.3
					c0.2,0.2,0.3,0.5,0.3,0.8C23.5,42.6,23,43.1,22.4,43.1z"/>
			</g>
			<g>
				<path fill="#37474F" d="M17.5,42c0-0.3,0.3-0.6,0.6-0.6c0.3,0,0.6,0.3,0.6,0.6c0,0.3-0.3,0.6-0.6,0.6
					C17.8,42.6,17.5,42.3,17.5,42z"/>
				<path fill="#37474F" d="M18.1,43.1c-0.6,0-1.1-0.5-1.1-1.1c0-0.3,0.1-0.6,0.3-0.8c0.2-0.2,0.5-0.3,0.8-0.3
					c0.6,0,1.1,0.5,1.1,1.1C19.2,42.6,18.7,43.1,18.1,43.1z"/>
			</g>
			<g>
				<path fill="#37474F" d="M13.2,42c0-0.3,0.3-0.6,0.6-0.6c0.3,0,0.6,0.3,0.6,0.6c0,0.3-0.3,0.6-0.6,0.6
					C13.5,42.6,13.2,42.3,13.2,42z"/>
				<path fill="#37474F" d="M13.8,43.1c-0.6,0-1.1-0.5-1.1-1.1c0-0.6,0.5-1.1,1.1-1.1c0.6,0,1.1,0.5,1.1,1.1
					C14.9,42.6,14.4,43.1,13.8,43.1z"/>
			</g>
		</g>
		<g>
			<g>
				<path fill="#37474F" d="M49.6,42c0-0.3,0.3-0.6,0.6-0.6c0.3,0,0.6,0.3,0.6,0.6c0,0.3-0.3,0.6-0.6,0.6
					C49.8,42.6,49.6,42.3,49.6,42z"/>
				<path fill="#37474F" d="M50.2,43.1c-0.6,0-1.1-0.5-1.1-1.1c0-0.6,0.5-1.1,1.1-1.1c0.3,0,0.6,0.1,0.8,0.3
					c0.2,0.2,0.3,0.5,0.3,0.8C51.3,42.6,50.8,43.1,50.2,43.1z"/>
			</g>
			<g>
				<path fill="#37474F" d="M45.3,42c0-0.3,0.3-0.6,0.6-0.6c0.3,0,0.6,0.3,0.6,0.6c0,0.3-0.3,0.6-0.6,0.6
					C45.6,42.6,45.3,42.3,45.3,42z"/>
				<path fill="#37474F" d="M45.9,43.1c-0.6,0-1.1-0.5-1.1-1.1c0-0.3,0.1-0.6,0.3-0.8c0.2-0.2,0.5-0.3,0.8-0.3
					c0.6,0,1.1,0.5,1.1,1.1C47,42.6,46.5,43.1,45.9,43.1z"/>
			</g>
			<g>
				<path fill="#37474F" d="M41,42c0-0.3,0.3-0.6,0.6-0.6c0.3,0,0.6,0.3,0.6,0.6c0,0.3-0.3,0.6-0.6,0.6C41.3,42.6,41,42.3,41,42z"/>
				<path fill="#37474F" d="M41.6,43.1c-0.6,0-1.1-0.5-1.1-1.1c0-0.6,0.5-1.1,1.1-1.1c0.6,0,1.1,0.5,1.1,1.1
					C42.8,42.6,42.3,43.1,41.6,43.1z"/>
			</g>
		</g>
	</g>
	<g>
		<line fill="#B0BEC5" x1="10.6" y1="24.9" x2="53.5" y2="24.9"/>
		<path fill="#37474F" d="M53.5,25.9H10.6c-0.6,0-1-0.4-1-1s0.4-1,1-1h42.9c0.6,0,1,0.4,1,1S54,25.9,53.5,25.9z"/>
	</g>
	<g>
		<path fill="#37474F" d="M51.6,19.1c-2.2-5.9-7-9.8-13.7-9.8H26.1c-6.8,0-11.5,3.9-13.7,9.8H51.6z"/>
		<path fill="#37474F" d="M51.6,20.1H12.4c-0.3,0-0.6-0.2-0.8-0.4c-0.2-0.3-0.2-0.6-0.1-0.9C14,12.1,19.3,8.3,26.1,8.3h11.8
			c6.8,0,12.1,3.8,14.7,10.4c0.1,0.3,0.1,0.7-0.1,0.9C52.3,19.9,52,20.1,51.6,20.1z M13.9,18.1h36.2c-2.4-5-6.7-7.8-12.2-7.8H26.1
			C20.6,10.3,16.3,13.1,13.9,18.1z"/>
	</g>
	<g>
		<path fill="#78909C" d="M49,14.2c-2.8-2.9-6.7-4.9-11.1-4.9H26.1c-4.3,0-8.2,2-11,4.9H49z"/>
		<path fill="#37474F" d="M51.3,15.2H12.7l1.6-1.7c3.2-3.3,7.4-5.2,11.8-5.2h11.8c4.4,0,8.5,1.8,11.8,5.2L51.3,15.2z M17.7,13.2
			h28.6c-2.5-1.9-5.4-2.9-8.4-2.9H26.1C23.1,10.3,20.2,11.3,17.7,13.2z"/>
	</g>
	<g>
		<g>
			<line fill="#FFAB00" x1="30.1" y1="26.9" x2="34" y2="26.9"/>
			<path fill="#37474F" d="M34,27.9h-3.9c-0.6,0-1-0.4-1-1s0.4-1,1-1H34c0.6,0,1,0.4,1,1S34.5,27.9,34,27.9z"/>
		</g>
		<g>
			<line fill="#FFAB00" x1="30.1" y1="30.8" x2="34" y2="30.8"/>
			<path fill="#37474F" d="M34,31.8h-3.9c-0.6,0-1-0.4-1-1s0.4-1,1-1H34c0.6,0,1,0.4,1,1S34.5,31.8,34,31.8z"/>
		</g>
		<g>
			<line fill="#FFAB00" x1="30.1" y1="33.7" x2="34" y2="33.7"/>
			<path fill="#37474F" d="M34,34.7h-3.9c-0.6,0-1-0.4-1-1s0.4-1,1-1H34c0.6,0,1,0.4,1,1S34.5,34.7,34,34.7z"/>
		</g>
	</g>
	<g>
		<g>
			<path fill="#FFECB3" d="M6.2,27.6c0,1.3-1.1,2.4-2.3,2.4c-1.3,0-2.3-1.1-2.3-2.4c0-1.3,1-2.3,2.3-2.3C5.1,25.3,6.2,26.3,6.2,27.6
				z"/>
			<path fill="#37474F" d="M3.8,31c-1.8,0-3.3-1.5-3.3-3.4c0-1.8,1.5-3.3,3.3-3.3c1.8,0,3.3,1.5,3.3,3.3C7.2,29.4,5.7,31,3.8,31z
				 M3.8,26.3c-0.7,0-1.3,0.6-1.3,1.3c0,0.7,0.6,1.4,1.3,1.4c0.7,0,1.3-0.6,1.3-1.4C5.2,26.9,4.6,26.3,3.8,26.3z"/>
		</g>
		<g>
			<path fill="#FFECB3" d="M62.5,27.6c0,1.3-1.1,2.4-2.3,2.4s-2.3-1.1-2.3-2.4c0-1.3,1-2.3,2.3-2.3S62.5,26.3,62.5,27.6z"/>
			<path fill="#37474F" d="M60.2,31c-1.8,0-3.3-1.5-3.3-3.4c0-1.8,1.5-3.3,3.3-3.3c1.8,0,3.3,1.5,3.3,3.3C63.5,29.4,62,31,60.2,31z
				 M60.2,26.3c-0.7,0-1.3,0.6-1.3,1.3c0,0.7,0.6,1.4,1.3,1.4c0.7,0,1.3-0.6,1.3-1.4C61.5,26.9,60.9,26.3,60.2,26.3z"/>
		</g>
	</g>
	<g>
		<path fill="#FFECB3" d="M34.3,7.3c0,1.3-1,2.4-2.3,2.4c-1.3,0-2.3-1.1-2.3-2.4c0-1.3,1.1-2.3,2.3-2.3C33.3,4.9,34.3,6,34.3,7.3z"
			/>
		<path fill="#37474F" d="M32,10.6c-1.8,0-3.3-1.5-3.3-3.4c0-1.8,1.5-3.3,3.3-3.3c1.8,0,3.3,1.5,3.3,3.3C35.3,9.1,33.8,10.6,32,10.6
			z M32,5.9c-0.7,0-1.3,0.6-1.3,1.3c0,0.7,0.6,1.4,1.3,1.4c0.7,0,1.3-0.6,1.3-1.4C33.3,6.5,32.7,5.9,32,5.9z"/>
	</g>
</g>
</svg>
