<?xml version="1.0" encoding="utf-8"?>
<!-- Generator: Adobe Illustrator 16.0.0, SVG Export Plug-In . SVG Version: 6.00 Build 0)  -->
<!DOCTYPE svg PUBLIC "-//W3C//DTD SVG 1.1//EN" "http://www.w3.org/Graphics/SVG/1.1/DTD/svg11.dtd">
<svg version="1.1" id="Layer_1" xmlns="http://www.w3.org/2000/svg" xmlns:xlink="http://www.w3.org/1999/xlink" x="0px" y="0px"
	 width="128px" height="128px" viewBox="0 0 128 128" enable-background="new 0 0 128 128" xml:space="preserve">
<g>
	<g>
		<g>
			<rect x="58.5" y="15.5" fill="#B0BEC5" width="11" height="36"/>
			<path fill="#37474F" d="M69.5,53h-11c-0.8,0-1.5-0.7-1.5-1.5v-36c0-0.8,0.7-1.5,1.5-1.5h11c0.8,0,1.5,0.7,1.5,1.5v36
				C71,52.3,70.3,53,69.5,53z M60,50h8V17h-8V50z"/>
		</g>
		<g>
			<path fill="#FFAB00" d="M11.5,13.5v2.8c0,6.3,5.5,11.2,11.9,11.2h81.3c6.3,0,11.9-4.9,11.9-11.2v-2.8H11.5z"/>
			<path fill="#37474F" d="M104.6,29H23.4C16,29,10,23.3,10,16.3v-2.8c0-0.8,0.7-1.5,1.5-1.5h105c0.8,0,1.5,0.7,1.5,1.5v2.8
				C118,23.3,112,29,104.6,29z M13,15v1.3c0,5.3,4.6,9.7,10.4,9.7h81.3c5.7,0,10.4-4.4,10.4-9.7V15H13z"/>
		</g>
		<g>
			<path fill="#FFFFFF" d="M120.3,115.8c0,3.8-4.1,6.7-9.2,6.7H16.9c-5.1,0-9.2-2.9-9.2-6.7l18.5-68.7c1.1-3.9,4.1-6.7,9.2-6.7h57.2
				c5.1,0,8.3,2.9,9.2,6.7L120.3,115.8z"/>
			<path fill="#37474F" d="M111.1,124H16.9c-6,0-10.7-3.6-10.7-8.2c0-0.1,0-0.3,0.1-0.4l18.5-68.7C26.1,41.8,30,39,35.4,39h57.2
				c5.3,0,9.4,3,10.7,7.8l18.5,68.6c0,0.1,0.1,0.3,0.1,0.4C121.8,120.4,117.1,124,111.1,124z M9.2,116c0.1,2.8,3.6,5,7.7,5h94.2
				c4.2,0,7.6-2.2,7.7-5l-18.4-68.4C99.5,44,96.6,42,92.6,42H35.4c-5.1,0-7.1,3-7.8,5.6L9.2,116z"/>
		</g>
		<g>
			<g>
				<path fill="#37474F" d="M72.3,96.1c0-0.8,0.6-1.4,1.4-1.4c0.8,0,1.4,0.6,1.4,1.4c0,0.7-0.6,1.4-1.4,1.4
					C73,97.5,72.3,96.9,72.3,96.1z"/>
				<path fill="#37474F" d="M73.7,98c-1,0-1.9-0.9-1.9-1.9c0-1,0.8-1.9,1.9-1.9c0.5,0,1,0.2,1.4,0.6c0.3,0.4,0.5,0.8,0.5,1.3
					C75.6,97.2,74.7,98,73.7,98z M73.7,95.3c-0.5,0-0.9,0.4-0.9,0.9c0,0.5,0.4,0.9,0.9,0.9c0.5,0,0.9-0.4,0.9-0.9
					c0-0.2-0.1-0.5-0.2-0.6C74.2,95.4,74,95.3,73.7,95.3z"/>
			</g>
			<g>
				<path fill="#37474F" d="M62.6,96.1c0-0.8,0.6-1.4,1.4-1.4c0.8,0,1.4,0.6,1.4,1.4c0,0.7-0.7,1.4-1.4,1.4
					C63.3,97.5,62.6,96.9,62.6,96.1z"/>
				<path fill="#37474F" d="M64,98c-1,0-1.9-0.9-1.9-1.9c0-0.5,0.2-1,0.5-1.3c0.4-0.4,0.9-0.6,1.4-0.6c1,0,1.9,0.8,1.9,1.9
					C65.9,97.2,65,98,64,98z M64,95.3c-0.2,0-0.5,0.1-0.6,0.3c-0.2,0.2-0.2,0.4-0.2,0.6c0,0.5,0.4,0.9,0.9,0.9
					c0.5,0,0.9-0.4,0.9-0.9C64.9,95.7,64.5,95.3,64,95.3z"/>
			</g>
			<g>
				<path fill="#37474F" d="M52.9,96.1c0-0.8,0.6-1.4,1.4-1.4c0.8,0,1.4,0.6,1.4,1.4c0,0.7-0.6,1.4-1.4,1.4
					C53.5,97.5,52.9,96.9,52.9,96.1z"/>
				<path fill="#37474F" d="M54.3,98c-1,0-1.9-0.9-1.9-1.9c0-1,0.9-1.9,1.9-1.9c1,0,1.9,0.8,1.9,1.9C56.2,97.2,55.3,98,54.3,98z
					 M54.3,95.3c-0.5,0-0.9,0.4-0.9,0.9c0,0.5,0.4,0.9,0.9,0.9c0.5,0,0.9-0.4,0.9-0.9C55.2,95.6,54.8,95.3,54.3,95.3z"/>
			</g>
		</g>
		<g>
			<g>
				<path fill="#37474F" d="M72.3,106.8c0-0.8,0.6-1.4,1.4-1.4c0.8,0,1.4,0.6,1.4,1.4c0,0.7-0.6,1.4-1.4,1.4
					C73,108.2,72.3,107.6,72.3,106.8z"/>
				<path fill="#37474F" d="M73.7,108.7c-1,0-1.9-0.9-1.9-1.9c0-1,0.8-1.9,1.9-1.9c0.5,0,1,0.2,1.4,0.6c0.3,0.4,0.5,0.8,0.5,1.3
					C75.6,107.9,74.7,108.7,73.7,108.7z M73.7,105.9c-0.5,0-0.9,0.4-0.9,0.9c0,0.5,0.4,0.9,0.9,0.9c0.5,0,0.9-0.4,0.9-0.9
					c0-0.2-0.1-0.5-0.2-0.6C74.2,106,74,105.9,73.7,105.9z"/>
			</g>
			<g>
				<path fill="#37474F" d="M62.6,106.8c0-0.8,0.6-1.4,1.4-1.4c0.8,0,1.4,0.6,1.4,1.4c0,0.7-0.7,1.4-1.4,1.4
					C63.3,108.2,62.6,107.6,62.6,106.8z"/>
				<path fill="#37474F" d="M64,108.7c-1,0-1.9-0.9-1.9-1.9c0-0.5,0.2-1,0.5-1.3c0.4-0.4,0.9-0.6,1.4-0.6c1,0,1.9,0.8,1.9,1.9
					C65.9,107.9,65,108.7,64,108.7z M64,105.9c-0.2,0-0.5,0.1-0.6,0.3c-0.2,0.2-0.2,0.4-0.2,0.6c0,0.5,0.4,0.9,0.9,0.9
					c0.5,0,0.9-0.4,0.9-0.9C64.9,106.3,64.5,105.9,64,105.9z"/>
			</g>
			<g>
				<path fill="#37474F" d="M52.9,106.8c0-0.7,0.6-1.4,1.4-1.4c0.8,0,1.4,0.6,1.4,1.4c0,0.7-0.6,1.4-1.4,1.4
					C53.5,108.2,52.9,107.6,52.9,106.8z"/>
				<path fill="#37474F" d="M54.3,108.7c-1,0-1.9-0.9-1.9-1.9c0-1,0.9-1.9,1.9-1.9c1,0,1.9,0.8,1.9,1.9
					C56.2,107.9,55.3,108.7,54.3,108.7z M54.3,105.9c-0.5,0-0.9,0.4-0.9,0.9c0,0.5,0.4,0.9,0.9,0.9c0.5,0,0.9-0.4,0.9-0.9
					C55.2,106.3,54.8,105.9,54.3,105.9z"/>
			</g>
		</g>
		<g>
			<line fill="#78909C" x1="19" y1="75.5" x2="109" y2="75.5"/>
			<path fill="#37474F" d="M109,77H19c-0.8,0-1.5-0.7-1.5-1.5S18.2,74,19,74h90c0.8,0,1.5,0.7,1.5,1.5S109.8,77,109,77z"/>
		</g>
		<g>
			<rect x="34.5" y="68.5" fill="#78909C" width="59" height="14"/>
			<path fill="#37474F" d="M93.5,84h-59c-0.8,0-1.5-0.7-1.5-1.5v-14c0-0.8,0.7-1.5,1.5-1.5h59c0.8,0,1.5,0.7,1.5,1.5v14
				C95,83.3,94.3,84,93.5,84z M36,81h56V70H36V81z"/>
		</g>
	</g>
	<g>
		<path fill="#FFECB3" d="M113.9,9.5c0,2.1-1.7,4-3.8,4H17.9c-2.1,0-3.8-1.9-3.8-4l0,0c0-2.1,1.7-4,3.8-4h92.2
			C112.2,5.5,113.9,7.4,113.9,9.5L113.9,9.5z"/>
		<path fill="#37474F" d="M110.1,15H17.9c-2.9,0-5.3-2.5-5.3-5.5c0-3,2.4-5.5,5.3-5.5h92.2c2.9,0,5.3,2.5,5.3,5.5
			C115.4,12.5,113,15,110.1,15z M17.9,7c-1.2,0-2.3,1.2-2.3,2.5c0,1.3,1.1,2.5,2.3,2.5h92.2c1.2,0,2.3-1.2,2.3-2.5
			c0-1.3-1.1-2.5-2.3-2.5H17.9z"/>
	</g>
</g>
</svg>
