<?xml version="1.0" encoding="utf-8"?>
<!-- Generator: Adobe Illustrator 16.0.0, SVG Export Plug-In . SVG Version: 6.00 Build 0)  -->
<!DOCTYPE svg PUBLIC "-//W3C//DTD SVG 1.1//EN" "http://www.w3.org/Graphics/SVG/1.1/DTD/svg11.dtd">
<svg version="1.1" id="Layer_1" xmlns="http://www.w3.org/2000/svg" xmlns:xlink="http://www.w3.org/1999/xlink" x="0px" y="0px"
	 width="130px" height="130.8px" viewBox="0 0 130 130.8" enable-background="new 0 0 130 130.8" xml:space="preserve">
<g>
	<g>
		<g>
			<line fill="#FFECB3" x1="9" y1="104" x2="119" y2="104"/>
			<path fill="#37474F" d="M119,106H9c-1.1,0-2-0.9-2-2s0.9-2,2-2h110c1.1,0,2,0.9,2,2S120.1,106,119,106z"/>
		</g>
		<g>
			<path fill="#B0BEC5" d="M119,103V67.8c0-10.7-8.4-19.8-19.1-19.8h-0.2h-1.1H34"/>
			<path fill="#37474F" d="M119,105c-1.1,0-2-0.9-2-2V67.8C117,58,109.3,50,99.9,50H34c-1.1,0-2-0.9-2-2s0.9-2,2-2h65.9
				c11.6,0,21.1,9.8,21.1,21.8V103C121,104.1,120.1,105,119,105z"/>
		</g>
		<g>
			<path fill="#78909C" d="M13,103V67.8C13,57.1,21.6,48,32.3,48h1.3C44.4,48,53,57.1,53,67.8V103"/>
			<path fill="#37474F" d="M53,105c-1.1,0-2-0.9-2-2V67.8C51,58.2,43.1,50,33.6,50h-1.3C22.9,50,15,58.2,15,67.8V103
				c0,1.1-0.9,2-2,2s-2-0.9-2-2V67.8c0-12,9.6-21.8,21.3-21.8h1.3C45.4,46,55,55.8,55,67.8V103C55,104.1,54.1,105,53,105z"/>
		</g>
		<g>
			<rect x="23" y="62" fill="#FFECB3" width="20" height="9"/>
			<path fill="#37474F" d="M43,73H23c-1.1,0-2-0.9-2-2v-9c0-1.1,0.9-2,2-2h20c1.1,0,2,0.9,2,2v9C45,72.1,44.1,73,43,73z M25,69h16
				v-5H25V69z"/>
		</g>
		<g>
			<g>
				<g>
					<line fill="#FFAB00" x1="100" y1="78" x2="76" y2="78"/>
					<path fill="#37474F" d="M100,80H76c-1.1,0-2-0.9-2-2s0.9-2,2-2h24c1.1,0,2,0.9,2,2S101.1,80,100,80z"/>
				</g>
				<g>
					<polyline fill="#FFAB00" points="76,69 109,69 109,78 					"/>
					<path fill="#37474F" d="M109,80c-1.1,0-2-0.9-2-2v-7H76c-1.1,0-2-0.9-2-2s0.9-2,2-2h33c1.1,0,2,0.9,2,2v9
						C111,79.1,110.1,80,109,80z"/>
				</g>
				<g>
					<polyline fill="#FFAB00" points="109,73 109,87 100,87 100,75 					"/>
					<path fill="#37474F" d="M109,89h-9c-1.1,0-2-0.9-2-2V75c0-1.1,0.9-2,2-2s2,0.9,2,2v10h5V73c0-1.1,0.9-2,2-2s2,0.9,2,2v14
						C111,88.1,110.1,89,109,89z"/>
				</g>
			</g>
			<g>
				<circle fill="#FFECB3" cx="69.4" cy="73.5" r="7.4"/>
				<path fill="#37474F" d="M69.4,82.9c-5.2,0-9.4-4.2-9.4-9.4c0-5.2,4.2-9.4,9.4-9.4c5.2,0,9.4,4.2,9.4,9.4
					C78.8,78.7,74.6,82.9,69.4,82.9z M69.4,68c-3,0-5.4,2.4-5.4,5.4c0,3,2.4,5.4,5.4,5.4c3,0,5.4-2.4,5.4-5.4
					C74.8,70.5,72.4,68,69.4,68z"/>
			</g>
		</g>
	</g>
	<g>
		<g>
			<line fill="#FFAB00" x1="56" y1="112" x2="83" y2="112"/>
			<path fill="#37474F" d="M83,114H56c-1.1,0-2-0.9-2-2s0.9-2,2-2h27c1.1,0,2,0.9,2,2S84.1,114,83,114z"/>
		</g>
		<g>
			<line fill="#FFAB00" x1="70" y1="128" x2="70" y2="113"/>
			<path fill="#37474F" d="M70,130c-1.1,0-2-0.9-2-2v-15c0-1.1,0.9-2,2-2s2,0.9,2,2v15C72,129.1,71.1,130,70,130z"/>
		</g>
	</g>
	<g>
		<g>
			<polyline fill="#FFECB3" points="48.5,19.8 37.6,14.9 48.5,10 			"/>
			<path fill="#37474F" d="M48.5,21.8c-0.3,0-0.6-0.1-0.8-0.2l-10.8-4.9c-0.7-0.3-1.2-1-1.2-1.8c0-0.8,0.5-1.5,1.2-1.8l10.8-4.9
				c1-0.5,2.2,0,2.6,1c0.5,1,0,2.2-1,2.6l-6.8,3.1l6.8,3.1c1,0.5,1.5,1.6,1,2.6C50,21.4,49.2,21.8,48.5,21.8z"/>
		</g>
		<g>
			<path fill="#FFAB00" d="M71.5,16.4c0.3-0.9,0.5-1.8,0.5-2.8C72,7.8,66.4,3,59.6,3S47.1,7.8,47.1,13.6c0,3.8,2.3,7.1,5.8,8.9
				c-2.1,2.5-3.4,5.6-3.4,8.9c0,8.5,8.1,15.4,18.1,15.4S85.8,40,85.8,31.5C85.8,24.1,79.7,17.9,71.5,16.4z"/>
			<path fill="#37474F" d="M67.7,48.9c-11.1,0-20.1-7.8-20.1-17.4c0-3,0.9-5.8,2.5-8.4c-3.1-2.4-4.9-5.8-4.9-9.5
				C45.1,6.7,51.6,1,59.6,1S74,6.7,74,13.6c0,0.4,0,0.9-0.1,1.3c8.1,2.3,13.9,9,13.9,16.6C87.8,41.1,78.7,48.9,67.7,48.9z M59.6,5
				c-5.7,0-10.4,3.9-10.4,8.6c0,2.9,1.8,5.6,4.7,7.2c0.5,0.3,0.9,0.8,1,1.4c0.1,0.6,0,1.2-0.4,1.7c-1.9,2.3-2.9,4.9-2.9,7.6
				c0,7.4,7.2,13.4,16.1,13.4s16.1-6,16.1-13.4c0-6.2-5.3-11.8-12.6-13.1c-0.6-0.1-1.1-0.4-1.4-0.9c-0.3-0.5-0.4-1.1-0.2-1.6
				c0.2-0.7,0.4-1.5,0.4-2.2C70,8.9,65.3,5,59.6,5z"/>
		</g>
		<g>
			<line fill="#FFAB00" x1="85.8" y1="34.8" x2="95.3" y2="25.3"/>
			<path fill="#37474F" d="M85.8,36.8c-0.5,0-1-0.2-1.4-0.6c-0.8-0.8-0.8-2,0-2.8l9.5-9.5c0.8-0.8,2-0.8,2.8,0c0.8,0.8,0.8,2,0,2.8
				l-9.5,9.5C86.8,36.6,86.3,36.8,85.8,36.8z"/>
		</g>
		<g>
			<line fill="#FFAB00" x1="84.8" y1="24.4" x2="92.4" y2="16.7"/>
			<path fill="#37474F" d="M84.8,26.4c-0.5,0-1-0.2-1.4-0.6c-0.8-0.8-0.8-2,0-2.8l7.7-7.7c0.8-0.8,2-0.8,2.8,0s0.8,2,0,2.8l-7.7,7.7
				C85.8,26.2,85.3,26.4,84.8,26.4z"/>
		</g>
	</g>
</g>
</svg>
