<?xml version="1.0" encoding="utf-8"?>
<!-- Generator: Adobe Illustrator 16.0.0, SVG Export Plug-In . SVG Version: 6.00 Build 0)  -->
<!DOCTYPE svg PUBLIC "-//W3C//DTD SVG 1.1//EN" "http://www.w3.org/Graphics/SVG/1.1/DTD/svg11.dtd">
<svg version="1.1" id="Layer_1" xmlns="http://www.w3.org/2000/svg" xmlns:xlink="http://www.w3.org/1999/xlink" x="0px" y="0px"
	 width="128px" height="128px" viewBox="0 0 128 128" enable-background="new 0 0 128 128" xml:space="preserve">
<g>
	<g>
		<g>
			<polyline fill="#78909C" points="4.4,59.5 47.2,23 89.9,59.5 			"/>
			<path fill="#37474F" d="M89.9,61.5c-0.5,0-0.9-0.2-1.3-0.5L47.2,25.6L5.7,61c-0.8,0.7-2.1,0.6-2.8-0.2c-0.7-0.8-0.6-2.1,0.2-2.8
				l42.8-36.5c0.7-0.6,1.8-0.6,2.6,0l42.8,36.5c0.8,0.7,0.9,2,0.2,2.8C91.1,61.2,90.5,61.5,89.9,61.5z"/>
		</g>
		<g>
			<polyline fill="#FFECB3" points="78,60 78,106 16,106 16,60 			"/>
			<path fill="#37474F" d="M78,108H16c-1.1,0-2-0.9-2-2V60c0-1.1,0.9-2,2-2s2,0.9,2,2v44h58V60c0-1.1,0.9-2,2-2s2,0.9,2,2v46
				C80,107.1,79.1,108,78,108z"/>
		</g>
		<g>
			<rect x="26" y="74" fill="#FFAB00" width="19" height="32"/>
			<path fill="#37474F" d="M45,108H26c-1.1,0-2-0.9-2-2V74c0-1.1,0.9-2,2-2h19c1.1,0,2,0.9,2,2v32C47,107.1,46.1,108,45,108z
				 M28,104h15V76H28V104z"/>
		</g>
		<g>
			<circle fill="#FFFFFF" cx="61.9" cy="81.6" r="7.9"/>
			<path fill="#37474F" d="M61.9,91.5c-5.5,0-9.9-4.4-9.9-9.9c0-5.5,4.4-9.9,9.9-9.9s9.9,4.4,9.9,9.9C71.8,87.1,67.4,91.5,61.9,91.5
				z M61.9,75.7c-3.3,0-5.9,2.7-5.9,5.9c0,3.3,2.7,5.9,5.9,5.9s5.9-2.7,5.9-5.9C67.8,78.4,65.2,75.7,61.9,75.7z"/>
		</g>
		<g>
			<line fill="#FFECB3" x1="62" y1="74" x2="62" y2="88"/>
			<path fill="#37474F" d="M62,90c-1.1,0-2-0.9-2-2V74c0-1.1,0.9-2,2-2s2,0.9,2,2v14C64,89.1,63.1,90,62,90z"/>
		</g>
		<g>
			<line fill="#FFECB3" x1="69" y1="82" x2="55" y2="82"/>
			<path fill="#37474F" d="M69,84H55c-1.1,0-2-0.9-2-2s0.9-2,2-2h14c1.1,0,2,0.9,2,2S70.1,84,69,84z"/>
		</g>
		<g>
			<polyline fill="#FFECB3" points="16,48 16,27 26,27 			"/>
			<path fill="#37474F" d="M16,50c-1.1,0-2-0.9-2-2V27c0-1.1,0.9-2,2-2h10c1.1,0,2,0.9,2,2s-0.9,2-2,2h-8v19C18,49.1,17.1,50,16,50z
				"/>
		</g>
	</g>
	<g>
		<line fill="#FFFFFF" x1="5" y1="106" x2="123" y2="106"/>
		<path fill="#37474F" d="M123,108H5c-1.1,0-2-0.9-2-2s0.9-2,2-2h118c1.1,0,2,0.9,2,2S124.1,108,123,108z"/>
	</g>
	<g>
		<polyline fill="#B0BEC5" points="80,73 91,73 91,89 101,89 101,97 107,97 107,56 118,56 118,94 123,94 123,98 		"/>
		<path fill="#37474F" d="M123,100c-1.1,0-2-0.9-2-2v-2h-3c-1.1,0-2-0.9-2-2V58h-7v39c0,1.1-0.9,2-2,2h-6c-1.1,0-2-0.9-2-2v-6h-8
			c-1.1,0-2-0.9-2-2V75h-9c-1.1,0-2-0.9-2-2s0.9-2,2-2h11c1.1,0,2,0.9,2,2v14h8c1.1,0,2,0.9,2,2v6h2V56c0-1.1,0.9-2,2-2h11
			c1.1,0,2,0.9,2,2v36h3c1.1,0,2,0.9,2,2v4C125,99.1,124.1,100,123,100z"/>
	</g>
	<g>
		<polyline fill="#FFFFFF" points="5,91 8,91 8,83 14,83 		"/>
		<path fill="#37474F" d="M8,93H5c-1.1,0-2-0.9-2-2s0.9-2,2-2h1v-6c0-1.1,0.9-2,2-2h6c1.1,0,2,0.9,2,2s-0.9,2-2,2h-4v6
			C10,92.1,9.1,93,8,93z"/>
	</g>
</g>
</svg>
