<?xml version="1.0" encoding="utf-8"?>
<!-- Generator: Adobe Illustrator 16.0.0, SVG Export Plug-In . SVG Version: 6.00 Build 0)  -->
<!DOCTYPE svg PUBLIC "-//W3C//DTD SVG 1.1//EN" "http://www.w3.org/Graphics/SVG/1.1/DTD/svg11.dtd">
<svg version="1.1" id="Layer_1" xmlns="http://www.w3.org/2000/svg" xmlns:xlink="http://www.w3.org/1999/xlink" x="0px" y="0px"
	 width="33px" height="33px" viewBox="0 0 33 33" enable-background="new 0 0 33 33" xml:space="preserve">
<g>
	<g>
		<g>
			<circle fill="#FFFFFF" cx="15.5" cy="19.8" r="12.1"/>
			<path fill="#37474F" d="M15.5,32.4c-6.9,0-12.6-5.7-12.6-12.6c0-6.9,5.7-12.6,12.6-12.6s12.6,5.7,12.6,12.6
				C28.1,26.8,22.4,32.4,15.5,32.4z M15.5,8.2c-6.4,0-11.6,5.2-11.6,11.6c0,6.4,5.2,11.6,11.6,11.6s11.6-5.2,11.6-11.6
				C27.1,13.4,21.9,8.2,15.5,8.2z"/>
		</g>
		<g>
			<ellipse fill="#FFFFFF" cx="15.5" cy="19.8" rx="7.7" ry="12.1"/>
			<path fill="#37474F" d="M15.5,32.4c-4.5,0-8.2-5.7-8.2-12.6c0-6.9,3.7-12.6,8.2-12.6c4.5,0,8.2,5.7,8.2,12.6
				C23.6,26.8,20,32.4,15.5,32.4z M15.5,8.2c-3.9,0-7.2,5.2-7.2,11.6s3.2,11.6,7.2,11.6h0c3.9,0,7.2-5.2,7.2-11.6
				C22.6,13.4,19.4,8.2,15.5,8.2z"/>
		</g>
		<g>
			<ellipse fill="#FFFFFF" cx="15.5" cy="19.8" rx="2.7" ry="12.1"/>
			<path fill="#37474F" d="M15.5,32.4c-2.5,0-3.2-8.2-3.2-12.6s0.7-12.6,3.2-12.6s3.2,8.2,3.2,12.6S18,32.4,15.5,32.4z M15.5,8.2
				c-0.7,0-2.2,4.1-2.2,11.6c0,7.5,1.5,11.6,2.2,11.6h0c0.7,0,2.2-4.1,2.2-11.6C17.7,12.3,16.2,8.2,15.5,8.2z"/>
		</g>
	</g>
	<g>
		<g>
			<g>
				<g>
					<path fill="#FFECB3" d="M23,19.9c2-3.3,6.5-10,6.5-13c0-3.1-2.5-5.7-6.5-5.8v0c0,0,0,0,0,0c0,0,0,0,0,0v0
						c-4,0.2-6.5,2.7-6.5,5.8C16.5,10,21,16.7,23,19.9v0.3c0-0.1,0-0.1,0-0.2c0,0.1,0,0.1,0,0.2V19.9z"/>
					<path fill="#37474F" d="M23,20.8c-0.3,0-0.5-0.2-0.5-0.5c0,0,0-0.1,0-0.2c-0.3-0.5-0.6-1-1-1.5C19.2,14.8,16,9.7,16,6.9
						c0-3.5,2.8-6.1,6.9-6.3c0.1,0,0.2,0,0.2,0C27.2,0.8,30,3.4,30,6.9c0,2.8-3.2,7.9-5.6,11.6c-0.3,0.6-0.7,1.1-1,1.5
						c0,0.1,0,0.2,0,0.2c0,0,0,0,0,0C23.5,20.6,23.3,20.8,23,20.8z M23,1.6c-3.5,0.1-6,2.3-6,5.3c0,2.5,3.3,7.7,5.4,11.1
						c0.2,0.3,0.4,0.7,0.6,1c0.2-0.3,0.4-0.6,0.6-1C25.8,14.6,29,9.4,29,6.9C29,3.9,26.6,1.7,23,1.6z"/>
				</g>
				<g>
					<circle fill="#FFECB3" cx="23" cy="7.3" r="3.2"/>
					<path fill="#37474F" d="M23,11.1c-2.1,0-3.7-1.7-3.7-3.7s1.7-3.7,3.7-3.7s3.7,1.7,3.7,3.7S25,11.1,23,11.1z M23,4.6
						c-1.5,0-2.7,1.2-2.7,2.7s1.2,2.7,2.7,2.7s2.7-1.2,2.7-2.7S24.5,4.6,23,4.6z"/>
				</g>
			</g>
			<g>
				<line fill="#FFECB3" x1="23" y1="21.5" x2="23" y2="19.5"/>
				<path fill="#37474F" d="M23,22c-0.3,0-0.5-0.2-0.5-0.5v-2c0-0.3,0.2-0.5,0.5-0.5s0.5,0.2,0.5,0.5v2C23.5,21.8,23.3,22,23,22z"/>
			</g>
		</g>
	</g>
</g>
</svg>
