<?xml version="1.0" encoding="utf-8"?>
<!-- Generator: Adobe Illustrator 16.0.0, SVG Export Plug-In . SVG Version: 6.00 Build 0)  -->
<!DOCTYPE svg PUBLIC "-//W3C//DTD SVG 1.1//EN" "http://www.w3.org/Graphics/SVG/1.1/DTD/svg11.dtd">
<svg version="1.1" id="Layer_1" xmlns="http://www.w3.org/2000/svg" xmlns:xlink="http://www.w3.org/1999/xlink" x="0px" y="0px"
	 width="32px" height="32px" viewBox="0 0 32 32" enable-background="new 0 0 32 32" xml:space="preserve">
<g>
	<g>
		<g>
			<rect x="6.8" y="27.3" fill="#B0BEC5" width="2.9" height="1.9"/>
			<path fill="#37474F" d="M9.7,29.7H6.8c-0.3,0-0.5-0.2-0.5-0.5v-1.9c0-0.3,0.2-0.5,0.5-0.5h2.9c0.3,0,0.5,0.2,0.5,0.5v1.9
				C10.2,29.5,10,29.7,9.7,29.7z M7.3,28.7h1.9v-0.9H7.3V28.7z"/>
		</g>
		<g>
			<rect x="22.3" y="27.3" fill="#B0BEC5" width="2.9" height="1.9"/>
			<path fill="#37474F" d="M25.3,29.7h-2.9c-0.3,0-0.5-0.2-0.5-0.5v-1.9c0-0.3,0.2-0.5,0.5-0.5h2.9c0.3,0,0.5,0.2,0.5,0.5v1.9
				C25.8,29.5,25.5,29.7,25.3,29.7z M22.8,28.7h1.9v-0.9h-1.9V28.7z"/>
		</g>
	</g>
	<g>
		<path fill="#FFFFFF" d="M27.2,21.6c0,4.3-3.9,7.7-8.3,7.7h-5.9c-4.3,0-8.2-3.3-8.2-7.7v-8.8c0-4.3,3.9-7.8,8.2-7.8h5.9
			c4.3,0,8.3,3.5,8.3,7.8V21.6z"/>
		<path fill="#37474F" d="M18.9,29.7h-5.9c-4.8,0-8.7-3.7-8.7-8.2v-8.8c0-4.5,4-8.3,8.7-8.3h5.9c4.7,0,8.8,3.8,8.8,8.3v8.8
			C27.7,26,23.7,29.7,18.9,29.7z M13.1,5.4c-4.2,0-7.7,3.3-7.7,7.3v8.8c0,3.9,3.5,7.2,7.7,7.2h5.9c4.2,0,7.8-3.3,7.8-7.2v-8.8
			c0-4-3.6-7.3-7.8-7.3H13.1z"/>
	</g>
	<g>
		<g>
			<polyline fill="#FFAB00" points="1.5,14.7 4.9,14.7 4.9,19 			"/>
			<path fill="#37474F" d="M4.9,19.5c-0.3,0-0.5-0.2-0.5-0.5v-3.9H1.5c-0.3,0-0.5-0.2-0.5-0.5s0.2-0.5,0.5-0.5h3.4
				c0.3,0,0.5,0.2,0.5,0.5V19C5.4,19.3,5.1,19.5,4.9,19.5z"/>
		</g>
		<g>
			<polyline fill="#FFAB00" points="30.6,14.7 27.2,14.7 27.2,19 			"/>
			<path fill="#37474F" d="M27.2,19.5c-0.3,0-0.5-0.2-0.5-0.5v-4.4c0-0.3,0.2-0.5,0.5-0.5h3.4c0.3,0,0.5,0.2,0.5,0.5
				s-0.2,0.5-0.5,0.5h-2.9V19C27.7,19.3,27.5,19.5,27.2,19.5z"/>
		</g>
	</g>
	<g>
		<path fill="#FFAB00" d="M19.9,28.5c0,0.5-0.3,0.7-0.6,0.7h-6.5c-0.4,0-0.6-0.2-0.6-0.7l1.3-9.1c0-0.5,0.3-0.9,0.6-0.9h4
			c0.4,0,0.6,0.4,0.6,0.9L19.9,28.5z"/>
		<path fill="#37474F" d="M19.3,29.7h-6.5c-0.6,0-1.1-0.4-1.1-1.2l1.3-9.1c0-0.7,0.5-1.3,1.1-1.3h4c0.6,0,1.1,0.6,1.1,1.4l1.3,9
			C20.4,29.3,19.8,29.7,19.3,29.7z M18,19l-4,0c0,0-0.1,0.2-0.1,0.4l-1.3,9.1c0,0.1,0.1,0.1,0.1,0.1h6.5c0.1,0,0.1,0,0.1-0.2l-1.3-9
			C18.1,19.2,18,19.1,18,19z"/>
	</g>
	<g>
		<rect x="14.6" y="20.5" fill="#78909C" width="2.9" height="3.9"/>
		<path fill="#37474F" d="M18,24.9h-3.9V20H18V24.9z M15.1,23.9H17V21h-1.9V23.9z"/>
	</g>
	<g>
		<g>
			<g>
				<path fill="#37474F" d="M10.9,21.2c0-0.2,0.1-0.3,0.3-0.3c0.2,0,0.3,0.1,0.3,0.3c0,0.2-0.1,0.3-0.3,0.3
					C11,21.5,10.9,21.4,10.9,21.2z"/>
				<path fill="#37474F" d="M11.2,22c-0.4,0-0.8-0.4-0.8-0.8c0-0.4,0.4-0.8,0.8-0.8c0.2,0,0.4,0.1,0.6,0.2c0.1,0.2,0.2,0.4,0.2,0.6
					C12,21.7,11.6,22,11.2,22z M11.2,21c-0.1,0-0.2,0.1-0.2,0.2c0,0,0,0.1,0.1,0.1c0.1,0.1,0.3,0,0.3-0.1C11.4,21.1,11.3,21,11.2,21
					z"/>
			</g>
			<g>
				<path fill="#37474F" d="M8.8,21.2c0-0.2,0.1-0.3,0.3-0.3c0.2,0,0.3,0.1,0.3,0.3c0,0.2-0.1,0.3-0.3,0.3
					C8.9,21.5,8.8,21.4,8.8,21.2z"/>
				<path fill="#37474F" d="M9.1,22c-0.4,0-0.8-0.4-0.8-0.8c0-0.2,0.1-0.4,0.2-0.6c0.1-0.2,0.4-0.2,0.6-0.2c0.4,0,0.8,0.3,0.8,0.8
					C9.9,21.7,9.5,22,9.1,22z M9.1,21c-0.1,0-0.2,0.1-0.2,0.2c0,0.2,0.2,0.3,0.3,0.2c0,0,0.1-0.1,0.1-0.1C9.3,21.1,9.2,21,9.1,21z"
					/>
			</g>
			<g>
				<path fill="#37474F" d="M6.6,21.2c0-0.2,0.1-0.3,0.3-0.3c0.2,0,0.3,0.1,0.3,0.3c0,0.2-0.1,0.3-0.3,0.3
					C6.8,21.5,6.6,21.4,6.6,21.2z"/>
				<path fill="#37474F" d="M7,22c-0.4,0-0.8-0.4-0.8-0.8s0.4-0.8,0.8-0.8c0.4,0,0.8,0.4,0.8,0.8S7.4,22,7,22z M7,21
					c-0.1,0-0.2,0.1-0.2,0.2c0,0.2,0.4,0.2,0.4,0C7.1,21.1,7.1,21,7,21z"/>
			</g>
		</g>
		<g>
			<g>
				<path fill="#37474F" d="M24.7,21.2c0-0.2,0.1-0.3,0.3-0.3c0.2,0,0.3,0.1,0.3,0.3c0,0.2-0.1,0.3-0.3,0.3
					C24.9,21.5,24.7,21.4,24.7,21.2z"/>
				<path fill="#37474F" d="M25,22c-0.4,0-0.8-0.4-0.8-0.8s0.4-0.8,0.8-0.8c0.2,0,0.4,0.1,0.6,0.2c0.1,0.2,0.2,0.4,0.2,0.6
					C25.8,21.7,25.5,22,25,22z M25,21c-0.1,0-0.2,0.1-0.2,0.2c0,0,0,0.1,0.1,0.1c0.1,0.1,0.3,0,0.3-0.1C25.2,21.1,25.2,21,25,21z"/>
			</g>
			<g>
				<path fill="#37474F" d="M22.6,21.2c0-0.2,0.1-0.3,0.3-0.3c0.2,0,0.3,0.1,0.3,0.3c0,0.2-0.1,0.3-0.3,0.3
					C22.8,21.5,22.6,21.4,22.6,21.2z"/>
				<path fill="#37474F" d="M22.9,22c-0.4,0-0.8-0.4-0.8-0.8c0-0.2,0.1-0.4,0.2-0.6c0.2-0.2,0.4-0.2,0.6-0.2c0.4,0,0.8,0.3,0.8,0.8
					C23.7,21.7,23.4,22,22.9,22z M22.9,21c-0.1,0-0.2,0.1-0.2,0.2c0,0.2,0.2,0.3,0.3,0.1c0,0,0.1-0.1,0.1-0.2
					C23.1,21.1,23,21,22.9,21z"/>
			</g>
			<g>
				<path fill="#37474F" d="M20.5,21.2c0-0.2,0.1-0.3,0.3-0.3c0.2,0,0.3,0.1,0.3,0.3c0,0.2-0.1,0.3-0.3,0.3
					C20.6,21.5,20.5,21.4,20.5,21.2z"/>
				<path fill="#37474F" d="M20.8,22c-0.4,0-0.8-0.4-0.8-0.8s0.4-0.8,0.8-0.8c0.4,0,0.8,0.4,0.8,0.8S21.2,22,20.8,22z M20.8,21
					c-0.1,0-0.2,0.1-0.2,0.2c0,0.2,0.4,0.2,0.4,0C21,21.1,20.9,21,20.8,21z"/>
			</g>
		</g>
	</g>
	<g>
		<line fill="#B0BEC5" x1="5.4" y1="12.7" x2="26.7" y2="12.7"/>
		<path fill="#37474F" d="M26.7,13.2H5.4c-0.3,0-0.5-0.2-0.5-0.5s0.2-0.5,0.5-0.5h21.4c0.3,0,0.5,0.2,0.5,0.5S27,13.2,26.7,13.2z"/>
	</g>
	<g>
		<path fill="#37474F" d="M26.3,9.8c-1.1-2.9-4-4.9-7.3-4.9h-5.9c-3.4,0-6.2,1.9-7.3,4.9H26.3z"/>
		<path fill="#37474F" d="M26.3,10.3H5.7c-0.2,0-0.3-0.1-0.4-0.2C5.2,9.9,5.2,9.8,5.3,9.6c1.2-3.1,4.3-5.2,7.8-5.2h5.9
			c3.5,0,6.6,2,7.8,5.2c0.1,0.2,0,0.3-0.1,0.5C26.6,10.2,26.4,10.3,26.3,10.3z M6.5,9.3h19c-1.2-2.4-3.7-3.9-6.5-3.9h-5.9
			C10.2,5.4,7.7,6.9,6.5,9.3z"/>
	</g>
	<g>
		<g>
			<line fill="#FFAB00" x1="15.1" y1="15.6" x2="17" y2="15.6"/>
			<path fill="#37474F" d="M17,16.1h-1.9c-0.3,0-0.5-0.2-0.5-0.5s0.2-0.5,0.5-0.5H17c0.3,0,0.5,0.2,0.5,0.5S17.3,16.1,17,16.1z"/>
		</g>
	</g>
	<g>
		<g>
			<path fill="#FFECB3" d="M3.2,14.1c0,0.6-0.5,1.2-1.2,1.2c-0.6,0-1.2-0.5-1.2-1.2c0-0.6,0.5-1.2,1.2-1.2
				C2.6,12.9,3.2,13.4,3.2,14.1z"/>
			<path fill="#37474F" d="M2,15.7c-0.9,0-1.7-0.7-1.7-1.7c0-0.9,0.7-1.7,1.7-1.7s1.7,0.7,1.7,1.7C3.7,15,2.9,15.7,2,15.7z M2,13.4
				c-0.4,0-0.7,0.3-0.7,0.7c0,0.4,0.3,0.7,0.7,0.7c0.4,0,0.7-0.3,0.7-0.7C2.7,13.7,2.4,13.4,2,13.4z"/>
		</g>
		<g>
			<path fill="#FFECB3" d="M31.2,14.1c0,0.6-0.5,1.2-1.2,1.2c-0.6,0-1.2-0.5-1.2-1.2c0-0.6,0.5-1.2,1.2-1.2
				C30.7,12.9,31.2,13.4,31.2,14.1z"/>
			<path fill="#37474F" d="M30,15.7c-0.9,0-1.7-0.7-1.7-1.7c0-0.9,0.7-1.7,1.7-1.7c0.9,0,1.7,0.7,1.7,1.7C31.7,15,30.9,15.7,30,15.7
				z M30,13.4c-0.4,0-0.7,0.3-0.7,0.7c0,0.4,0.3,0.7,0.7,0.7c0.4,0,0.7-0.3,0.7-0.7C30.7,13.7,30.4,13.4,30,13.4z"/>
		</g>
	</g>
	<g>
		<path fill="#FFECB3" d="M17.2,4c0,0.6-0.5,1.2-1.2,1.2c-0.6,0-1.2-0.5-1.2-1.2c0-0.6,0.5-1.2,1.2-1.2C16.6,2.8,17.2,3.3,17.2,4z"
			/>
		<path fill="#37474F" d="M16,5.6c-0.9,0-1.7-0.8-1.7-1.7c0-0.9,0.7-1.7,1.7-1.7c0.9,0,1.7,0.7,1.7,1.7C17.7,4.9,16.9,5.6,16,5.6z
			 M16,3.3c-0.4,0-0.7,0.3-0.7,0.7c0,0.4,0.3,0.7,0.7,0.7c0.4,0,0.7-0.3,0.7-0.7C16.7,3.6,16.4,3.3,16,3.3z"/>
	</g>
</g>
</svg>
