<?xml version="1.0" encoding="utf-8"?>
<!-- Generator: Adobe Illustrator 16.0.0, SVG Export Plug-In . SVG Version: 6.00 Build 0)  -->
<!DOCTYPE svg PUBLIC "-//W3C//DTD SVG 1.1//EN" "http://www.w3.org/Graphics/SVG/1.1/DTD/svg11.dtd">
<svg version="1.1" id="Layer_1" xmlns="http://www.w3.org/2000/svg" xmlns:xlink="http://www.w3.org/1999/xlink" x="0px" y="0px"
	 width="32px" height="32px" viewBox="0 0 32 32" enable-background="new 0 0 32 32" xml:space="preserve">
<g>
	<g>
		<rect x="8.4" y="9.4" fill="#FFAB00" width="14.2" height="1.9"/>
		<path fill="#37474F" d="M22.6,11.8H8.4c-0.3,0-0.5-0.2-0.5-0.5V9.4c0-0.3,0.2-0.5,0.5-0.5h14.2c0.3,0,0.5,0.2,0.5,0.5v1.9
			C23.1,11.6,22.9,11.8,22.6,11.8z M8.9,10.8h13.2V9.9H8.9V10.8z"/>
	</g>
	<g>
		<rect x="9.4" y="16.9" fill="#78909C" width="14.2" height="5.7"/>
		<path fill="#37474F" d="M24.1,23.1H8.9v-6.7h15.2V23.1z M9.9,22.1h13.2v-4.7H9.9V22.1z"/>
	</g>
	<g>
		<g>
			<g>
				<path fill="#37474F" d="M11.3,21.7c0,0.7-0.8,1-1.5,1H2.4c-0.7,0-1.5-0.3-1.5-1v-9.3c0-0.7,0.9-1.1,1.5-1.1h7.4
					c0.7,0,1.5,0.4,1.5,1.1V21.7z"/>
				<path fill="#37474F" d="M9.8,23.1H2.4c-1,0-2-0.5-2-1.5v-9.3c0-1,1.2-1.6,2-1.6h7.4c1,0,2,0.6,2,1.6v9.3
					C11.8,22.6,10.8,23.1,9.8,23.1z M2.4,11.8c-0.5,0-1,0.3-1,0.6v9.3c0,0.3,0.6,0.5,1,0.5h7.4c0.5,0,1-0.2,1-0.5v-9.3
					c0-0.3-0.5-0.6-1-0.6H2.4z"/>
			</g>
			<g>
				<g>
					<path fill="#FFAB00" d="M9.7,17.9c0,1.9-1.6,3.5-3.5,3.5c-2,0-3.5-1.6-3.5-3.5c0-2,1.6-3.5,3.5-3.5C8.1,14.3,9.7,15.9,9.7,17.9
						z"/>
					<path fill="#37474F" d="M6.1,21.9c-2.2,0-4-1.8-4-4c0-2.2,1.8-4,4-4c2.2,0,4,1.8,4,4C10.2,20.1,8.3,21.9,6.1,21.9z M6.1,14.8
						c-1.7,0-3,1.4-3,3c0,1.7,1.4,3,3,3c1.7,0,3-1.4,3-3C9.2,16.2,7.8,14.8,6.1,14.8z"/>
				</g>
				<g>
					<path fill="#FFECB3" d="M7.7,17.9c0,0.9-0.7,1.6-1.6,1.6s-1.6-0.7-1.6-1.6c0-0.9,0.7-1.6,1.6-1.6S7.7,17,7.7,17.9z"/>
					<path fill="#37474F" d="M6.1,20C5,20,4,19,4,17.9c0-1.2,0.9-2.1,2.1-2.1c1.2,0,2.1,0.9,2.1,2.1C8.2,19,7.3,20,6.1,20z
						 M6.1,16.8c-0.6,0-1.1,0.5-1.1,1.1C5,18.5,5.5,19,6.1,19c0.6,0,1.1-0.5,1.1-1.1C7.2,17.3,6.7,16.8,6.1,16.8z"/>
				</g>
			</g>
			<g>
				<g>
					<path fill="#FFFFFF" d="M4.5,13.2c0,0.2-0.1,0.3-0.3,0.3c-0.2,0-0.3-0.1-0.3-0.3c0-0.2,0.1-0.3,0.3-0.3
						C4.3,12.9,4.5,13,4.5,13.2z"/>
					<path fill="#FFFFFF" d="M4.2,14L4.2,14c-0.2,0-0.4-0.1-0.6-0.2c-0.1-0.1-0.2-0.3-0.2-0.6c0-0.4,0.3-0.8,0.8-0.8
						c0.4,0,0.8,0.3,0.8,0.8C5,13.6,4.6,14,4.2,14L4.2,14z"/>
				</g>
				<g>
					<path fill="#FFFFFF" d="M6.4,13.2c0,0.2-0.1,0.3-0.3,0.3c-0.2,0-0.3-0.1-0.3-0.3c0-0.2,0.1-0.3,0.3-0.3
						C6.3,12.9,6.4,13,6.4,13.2z"/>
					<path fill="#FFFFFF" d="M6.1,14L6.1,14c-0.4,0-0.8-0.3-0.8-0.8c0-0.5,0.4-0.8,0.8-0.8c0.4,0,0.8,0.4,0.8,0.8
						c0,0.2-0.1,0.4-0.2,0.5C6.5,13.9,6.3,14,6.1,14z M6.1,13C6.1,13,6,13,6,13c0,0-0.1,0.1-0.1,0.2c0,0.1,0.1,0.2,0.2,0.2l0,0
						c0.1,0,0.2-0.1,0.2-0.2C6.3,13,6.2,13,6.1,13z"/>
				</g>
				<g>
					<path fill="#FFFFFF" d="M8.3,13.2c0,0.2-0.1,0.3-0.3,0.3c-0.1,0-0.3-0.1-0.3-0.3c0-0.2,0.1-0.3,0.3-0.3
						C8.2,12.9,8.3,13,8.3,13.2z"/>
					<path fill="#FFFFFF" d="M8,14L8,14c-0.4,0-0.8-0.4-0.8-0.8c0-0.4,0.3-0.8,0.8-0.8c0.4,0,0.8,0.3,0.8,0.8C8.8,13.6,8.5,14,8,14
						L8,14z"/>
				</g>
			</g>
		</g>
		<g>
			<g>
				<path fill="#37474F" d="M31.1,21.7c0,0.7-1,1-1.7,1h-7.4c-0.7,0-1.4-0.3-1.4-1v-9.3c0-0.7,0.7-1.1,1.4-1.1h7.4
					c0.7,0,1.7,0.4,1.7,1.1V21.7z"/>
				<path fill="#37474F" d="M29.4,23.1h-7.4c-1.1,0-1.9-0.6-1.9-1.5v-9.3c0-1,0.9-1.6,1.9-1.6h7.4c0.9,0,2.2,0.5,2.2,1.6v9.3
					C31.6,22.6,30.5,23.1,29.4,23.1z M22.1,11.8c-0.4,0-0.9,0.2-0.9,0.6v9.3c0,0.4,0.6,0.5,0.9,0.5h7.4c0.6,0,1.2-0.3,1.2-0.5v-9.3
					c0-0.3-0.6-0.6-1.2-0.6H22.1z"/>
			</g>
			<g>
				<g>
					<path fill="#FFAB00" d="M29.3,17.9c0,1.9-1.6,3.5-3.5,3.5c-2,0-3.5-1.6-3.5-3.5c0-2,1.6-3.5,3.5-3.5
						C27.7,14.3,29.3,15.9,29.3,17.9z"/>
					<path fill="#37474F" d="M25.8,21.9c-2.2,0-4-1.8-4-4c0-2.2,1.8-4,4-4c2.2,0,4,1.8,4,4C29.8,20.1,28,21.9,25.8,21.9z M25.8,14.8
						c-1.7,0-3,1.4-3,3c0,1.7,1.4,3,3,3c1.7,0,3-1.4,3-3C28.8,16.2,27.4,14.8,25.8,14.8z"/>
				</g>
				<g>
					<path fill="#FFECB3" d="M27.4,17.9c0,0.9-0.7,1.6-1.6,1.6c-0.9,0-1.6-0.7-1.6-1.6c0-0.9,0.7-1.6,1.6-1.6
						C26.6,16.3,27.4,17,27.4,17.9z"/>
					<path fill="#37474F" d="M25.8,20c-1.2,0-2.1-0.9-2.1-2.1c0-1.2,0.9-2.1,2.1-2.1c1.2,0,2.1,0.9,2.1,2.1C27.9,19,26.9,20,25.8,20
						z M25.8,16.8c-0.6,0-1.1,0.5-1.1,1.1c0,0.6,0.5,1.1,1.1,1.1c0.6,0,1.1-0.5,1.1-1.1C26.9,17.3,26.4,16.8,25.8,16.8z"/>
				</g>
			</g>
			<g>
				<g>
					<path fill="#FFFFFF" d="M24.1,13.2c0,0.2-0.1,0.3-0.3,0.3c-0.2,0-0.3-0.1-0.3-0.3c0-0.2,0.1-0.3,0.3-0.3
						C24,12.9,24.1,13,24.1,13.2z"/>
					<path fill="#FFFFFF" d="M23.8,14L23.8,14c-0.2,0-0.4-0.1-0.6-0.2c-0.1-0.2-0.2-0.3-0.2-0.6c0-0.4,0.3-0.8,0.8-0.8
						s0.8,0.3,0.8,0.8C24.6,13.6,24.3,14,23.8,14L23.8,14z"/>
				</g>
				<g>
					<path fill="#FFFFFF" d="M26,13.2c0,0.2-0.1,0.3-0.3,0.3c-0.2,0-0.3-0.1-0.3-0.3c0-0.2,0.1-0.3,0.3-0.3C25.9,12.9,26,13,26,13.2
						z"/>
					<path fill="#FFFFFF" d="M25.8,14L25.8,14c-0.4,0-0.8-0.3-0.8-0.8c0-0.5,0.4-0.8,0.8-0.8c0.4,0,0.8,0.4,0.8,0.8
						c0,0.2-0.1,0.4-0.2,0.5C26.2,13.9,26,14,25.8,14z M25.8,13c-0.1,0-0.1,0-0.2,0.1c0,0-0.1,0.1-0.1,0.2c0,0.1,0.1,0.2,0.2,0.2
						c0,0,0,0,0,0c0.1,0,0.2-0.1,0.2-0.2C26,13,25.9,13,25.8,13z"/>
				</g>
				<g>
					<path fill="#FFFFFF" d="M28,13.2c0,0.2-0.1,0.3-0.3,0.3c-0.1,0-0.3-0.1-0.3-0.3c0-0.2,0.1-0.3,0.3-0.3C27.8,12.9,28,13,28,13.2
						z"/>
					<path fill="#FFFFFF" d="M27.7,14L27.7,14c-0.4,0-0.8-0.4-0.8-0.8c0-0.4,0.3-0.8,0.8-0.8c0.4,0,0.8,0.3,0.8,0.8
						C28.5,13.6,28.1,14,27.7,14L27.7,14z"/>
				</g>
			</g>
		</g>
	</g>
	<g>
		<path fill="#FFFFFF" d="M15.3,19.8c0,0.7-0.6,1.2-1.2,1.2c-0.7,0-1.2-0.6-1.2-1.2c0-0.7,0.6-1.2,1.2-1.2
			C14.7,18.5,15.3,19.1,15.3,19.8z"/>
		<path fill="#37474F" d="M14,21.5c-1,0-1.7-0.8-1.7-1.7c0-1,0.8-1.7,1.7-1.7c1,0,1.7,0.8,1.7,1.7C15.8,20.7,15,21.5,14,21.5z
			 M14,19c-0.4,0-0.7,0.3-0.7,0.7c0,0.4,0.3,0.7,0.7,0.7c0.4,0,0.7-0.3,0.7-0.7C14.8,19.4,14.4,19,14,19z"/>
	</g>
	<g>
		<line fill="#FFFFFF" x1="15.5" y1="19.8" x2="21.2" y2="19.8"/>
		<path fill="#37474F" d="M21.2,20.3h-5.7c-0.3,0-0.5-0.2-0.5-0.5s0.2-0.5,0.5-0.5h5.7c0.3,0,0.5,0.2,0.5,0.5S21.5,20.3,21.2,20.3z"
			/>
	</g>
</g>
</svg>
