<?xml version="1.0" encoding="utf-8"?>
<!-- Generator: Adobe Illustrator 16.0.0, SVG Export Plug-In . SVG Version: 6.00 Build 0)  -->
<!DOCTYPE svg PUBLIC "-//W3C//DTD SVG 1.1//EN" "http://www.w3.org/Graphics/SVG/1.1/DTD/svg11.dtd">
<svg version="1.1" id="Layer_1" xmlns="http://www.w3.org/2000/svg" xmlns:xlink="http://www.w3.org/1999/xlink" x="0px" y="0px"
	 width="32px" height="32px" viewBox="0 0 32 32" enable-background="new 0 0 32 32" xml:space="preserve">
<g>
	<g>
		<g>
			<rect x="14.5" y="3.5" fill="#B0BEC5" width="3" height="9"/>
			<path fill="#37474F" d="M17.5,13h-3c-0.3,0-0.5-0.2-0.5-0.5v-9C14,3.2,14.3,3,14.5,3h3C17.8,3,18,3.2,18,3.5v9
				C18,12.8,17.8,13,17.5,13z M15,12h2V4h-2V12z"/>
		</g>
		<g>
			<path fill="#FFAB00" d="M2.5,2.5v0.9c0,1.6,1.7,3.1,3.3,3.1h20.3c1.6,0,3.4-1.6,3.4-3.1V2.5H2.5z"/>
			<path fill="#37474F" d="M26.2,7H5.8C4,7,2,5.2,2,3.4V2.5C2,2.2,2.3,2,2.5,2h27C29.8,2,30,2.2,30,2.5v0.9C30,5.2,28.1,7,26.2,7z
				 M3,3v0.4C3,4.6,4.5,6,5.8,6h20.3C27.5,6,29,4.6,29,3.4V3H3z"/>
		</g>
		<g>
			<path fill="#FFFFFF" d="M30.1,28c0,0.9-1,1.5-2.3,1.5H4.2c-1.3,0-2.3-0.5-2.3-1.5l4.6-17c0.3-0.9,1-1.5,2.3-1.5h14.3
				c1.3,0,2.1,0.6,2.3,1.5L30.1,28z"/>
			<path fill="#37474F" d="M27.8,30H4.2c-1.7,0-2.8-0.8-2.8-2c0,0,0-0.1,0-0.1l4.6-17C6.4,9.7,7.4,9,8.9,9h14.3
				c1.4,0,2.5,0.7,2.8,1.9l4.6,17c0,0,0,0.1,0,0.1C30.6,29.2,29.5,30,27.8,30z M2.4,28.1c0.1,0.6,1,0.9,1.8,0.9h23.5
				c0.8,0,1.8-0.3,1.8-0.9L25,11.1c-0.2-0.8-0.8-1.1-1.8-1.1H8.9c-0.7,0-1.6,0.2-1.8,1.1L2.4,28.1z"/>
		</g>
		<g>
			<g>
				<path fill="#37474F" d="M18.1,23.3c0-0.2,0.2-0.3,0.3-0.3c0.2,0,0.4,0.2,0.3,0.3c0,0.2-0.2,0.3-0.3,0.3
					C18.2,23.7,18.1,23.5,18.1,23.3z"/>
				<path fill="#37474F" d="M18.4,24.2c-0.5,0-0.8-0.4-0.8-0.8c0-0.5,0.4-0.8,0.8-0.8c0.2,0,0.5,0.1,0.6,0.3
					c0.2,0.2,0.2,0.4,0.2,0.6C19.3,23.8,18.9,24.2,18.4,24.2z M18.4,23.2c-0.1,0-0.2,0.1-0.2,0.2c0,0,0,0.1,0,0.1
					c0.1,0.1,0.3,0,0.3-0.1C18.6,23.2,18.5,23.2,18.4,23.2z"/>
			</g>
			<g>
				<path fill="#37474F" d="M15.7,23.3c0-0.2,0.2-0.3,0.3-0.3c0.2,0,0.3,0.2,0.4,0.3c0,0.2-0.2,0.3-0.4,0.3
					C15.8,23.7,15.7,23.5,15.7,23.3z"/>
				<path fill="#37474F" d="M16,24.2c-0.5,0-0.8-0.4-0.8-0.8c0-0.2,0.1-0.4,0.2-0.6c0.2-0.2,0.4-0.3,0.6-0.3c0.5,0,0.8,0.4,0.9,0.8
					C16.8,23.8,16.4,24.2,16,24.2z M16,23.2c-0.1,0-0.1,0-0.1,0.1c0,0.2,0.2,0.2,0.3,0.1c0,0,0-0.1,0-0.1
					C16.2,23.2,16.1,23.2,16,23.2z"/>
			</g>
			<g>
				<path fill="#37474F" d="M13.2,23.3c0-0.2,0.2-0.3,0.3-0.3c0.2,0,0.3,0.2,0.3,0.3c0,0.2-0.1,0.3-0.3,0.3
					C13.4,23.7,13.2,23.5,13.2,23.3z"/>
				<path fill="#37474F" d="M13.6,24.2c-0.5,0-0.8-0.4-0.8-0.8s0.4-0.8,0.8-0.8c0.5,0,0.8,0.4,0.8,0.8C14.4,23.8,14,24.2,13.6,24.2z
					 M13.6,23.2c-0.1,0-0.2,0.1-0.2,0.2c0,0.2,0.3,0.2,0.3,0C13.7,23.2,13.7,23.2,13.6,23.2z"/>
			</g>
		</g>
		<g>
			<g>
				<path fill="#37474F" d="M18.1,26c0-0.2,0.2-0.3,0.3-0.3c0.2,0,0.4,0.2,0.3,0.3c0,0.2-0.2,0.4-0.3,0.4
					C18.2,26.3,18.1,26.2,18.1,26z"/>
				<path fill="#37474F" d="M18.4,26.8c-0.5,0-0.8-0.4-0.8-0.9c0-0.5,0.4-0.8,0.8-0.8c0.2,0,0.5,0.1,0.6,0.3
					c0.2,0.2,0.2,0.4,0.2,0.6C19.3,26.5,18.9,26.8,18.4,26.8z M18.4,25.8c-0.1,0-0.2,0.1-0.2,0.1c0,0,0,0.1,0,0.1
					c0.1,0.1,0.3,0,0.3-0.1C18.6,25.9,18.5,25.8,18.4,25.8z"/>
			</g>
			<g>
				<path fill="#37474F" d="M15.7,26c0-0.2,0.2-0.3,0.3-0.3c0.2,0,0.3,0.2,0.4,0.3c0,0.2-0.2,0.4-0.4,0.4
					C15.8,26.3,15.7,26.2,15.7,26z"/>
				<path fill="#37474F" d="M16,26.8c-0.5,0-0.8-0.4-0.8-0.9c0-0.2,0.1-0.4,0.2-0.6c0.2-0.2,0.4-0.3,0.6-0.3c0.5,0,0.8,0.4,0.9,0.8
					C16.8,26.5,16.4,26.8,16,26.8z M16,25.8c-0.1,0-0.1,0-0.1,0.1c0,0.2,0.2,0.2,0.3,0.1c0,0,0-0.1,0-0.1
					C16.2,25.9,16.1,25.8,16,25.8z"/>
			</g>
			<g>
				<path fill="#37474F" d="M13.2,26c0-0.2,0.2-0.3,0.3-0.3c0.2,0,0.3,0.2,0.3,0.3c0,0.2-0.1,0.4-0.3,0.4
					C13.4,26.3,13.2,26.2,13.2,26z"/>
				<path fill="#37474F" d="M13.6,26.8c-0.5,0-0.8-0.4-0.8-0.9c0-0.5,0.4-0.8,0.8-0.8c0.5,0,0.8,0.4,0.8,0.8
					C14.4,26.5,14,26.8,13.6,26.8z M13.6,25.8c-0.1,0-0.2,0.1-0.2,0.1c0,0.2,0.3,0.2,0.3,0C13.7,25.9,13.6,25.8,13.6,25.8z"/>
			</g>
		</g>
		<g>
			<line fill="#78909C" x1="5" y1="18.5" x2="27" y2="18.5"/>
			<path fill="#37474F" d="M27,19H5c-0.3,0-0.5-0.2-0.5-0.5S4.8,18,5,18h22c0.3,0,0.5,0.2,0.5,0.5S27.3,19,27,19z"/>
		</g>
		<g>
			<rect x="8.5" y="16.5" fill="#78909C" width="15" height="3"/>
			<path fill="#37474F" d="M23.5,20h-15C8.3,20,8,19.8,8,19.5v-3C8,16.2,8.3,16,8.5,16h15c0.3,0,0.5,0.2,0.5,0.5v3
				C24,19.8,23.8,20,23.5,20z M9,19h14v-2H9V19z"/>
		</g>
	</g>
</g>
</svg>
