<?xml version="1.0" encoding="utf-8"?>
<!-- Generator: Adobe Illustrator 16.0.0, SVG Export Plug-In . SVG Version: 6.00 Build 0)  -->
<!DOCTYPE svg PUBLIC "-//W3C//DTD SVG 1.1//EN" "http://www.w3.org/Graphics/SVG/1.1/DTD/svg11.dtd">
<svg version="1.1" id="Layer_1" xmlns="http://www.w3.org/2000/svg" xmlns:xlink="http://www.w3.org/1999/xlink" x="0px" y="0px"
	 width="64px" height="64.5px" viewBox="0 0 64 64.5" enable-background="new 0 0 64 64.5" xml:space="preserve">
<g>
	<g>
		<rect x="17" y="2" fill="#FFFFFF" width="30" height="61"/>
		<path fill="#37474F" d="M47,64H17c-0.6,0-1-0.4-1-1V2c0-0.6,0.4-1,1-1h30c0.6,0,1,0.4,1,1v61C48,63.6,47.6,64,47,64z M18,62h28V3
			H18V62z"/>
	</g>
	<g>
		<rect x="23" y="8" fill="#FFECB3" width="18" height="32"/>
		<path fill="#37474F" d="M41,41H23c-0.6,0-1-0.4-1-1V8c0-0.6,0.4-1,1-1h18c0.6,0,1,0.4,1,1v32C42,40.6,41.6,41,41,41z M24,39h16V9
			H24V39z"/>
	</g>
	<g>
		<line fill="#FFFFFF" x1="9" y1="63" x2="55" y2="63"/>
		<path fill="#37474F" d="M55,64H9c-0.6,0-1-0.4-1-1s0.4-1,1-1h46c0.6,0,1,0.4,1,1S55.6,64,55,64z"/>
	</g>
	<g>
		<line fill="#FFECB3" x1="32" y1="8" x2="32" y2="40"/>
		<path fill="#37474F" d="M32,41c-0.6,0-1-0.4-1-1V8c0-0.6,0.4-1,1-1s1,0.4,1,1v32C33,40.6,32.6,41,32,41z"/>
	</g>
	<g>
		<line fill="#FFECB3" x1="22" y1="24" x2="42" y2="24"/>
		<path fill="#37474F" d="M42,25H22c-0.6,0-1-0.4-1-1s0.4-1,1-1h20c0.6,0,1,0.4,1,1S42.6,25,42,25z"/>
	</g>
	<g>
		<path fill="#FFECB3" d="M41.1,48.3c0,1.8-1.4,3.2-3.2,3.2s-3.2-1.4-3.2-3.2s1.4-3.2,3.2-3.2"/>
		<path fill="#37474F" d="M37.8,52.5c-2.3,0-4.2-1.9-4.2-4.2s1.9-4.2,4.2-4.2c0.6,0,1,0.4,1,1s-0.4,1-1,1c-1.2,0-2.2,1-2.2,2.2
			s1,2.2,2.2,2.2s2.2-1,2.2-2.2c0-0.6,0.4-1,1-1s1,0.4,1,1C42.1,50.6,40.2,52.5,37.8,52.5z"/>
	</g>
</g>
</svg>
