<?xml version="1.0" encoding="utf-8"?>
<!-- Generator: Adobe Illustrator 16.0.0, SVG Export Plug-In . SVG Version: 6.00 Build 0)  -->
<!DOCTYPE svg PUBLIC "-//W3C//DTD SVG 1.1//EN" "http://www.w3.org/Graphics/SVG/1.1/DTD/svg11.dtd">
<svg version="1.1" id="Layer_1" xmlns="http://www.w3.org/2000/svg" xmlns:xlink="http://www.w3.org/1999/xlink" x="0px" y="0px"
	 width="24px" height="24px" viewBox="0 0 24 24" enable-background="new 0 0 24 24" xml:space="preserve">
<g>
	<path d="M12,7.8c-3.9,0-7.2,3.2-7.2,7.2s3.2,7.2,7.2,7.2s7.2-3.2,7.2-7.2S15.9,7.8,12,7.8z M12,21.1c-3.4,0-6.2-2.8-6.2-6.2
		S8.6,8.8,12,8.8s6.2,2.8,6.2,6.2S15.4,21.1,12,21.1z"/>
	<path d="M15.9,14.9c0,2.1-1.7,3.8-3.8,3.9l0.1-0.1c0.2-0.2,0.2-0.5,0-0.7s-0.5-0.2-0.7,0l-1,1c-0.2,0.2-0.2,0.5,0,0.7l1,1
		c0.1,0.1,0.2,0.1,0.4,0.1s0.3,0,0.4-0.1c0.2-0.2,0.2-0.5,0-0.7l-0.1-0.1c2.7,0,4.8-2.2,4.8-4.9c0-0.3-0.2-0.5-0.5-0.5
		S15.9,14.6,15.9,14.9z"/>
	<path d="M11.8,11.1c-0.2,0.2-0.2,0.5,0,0.7c0.1,0.1,0.2,0.1,0.4,0.1s0.3,0,0.4-0.1l1-1c0.2-0.2,0.2-0.5,0-0.7l-1-1
		C12.3,9,12,9,11.8,9.2s-0.2,0.5,0,0.7l0.1,0.1c-2.7,0-4.8,2.2-4.8,4.9c0,0.3,0.2,0.5,0.5,0.5s0.5-0.2,0.5-0.5
		C8.1,12.8,9.8,11.1,11.8,11.1L11.8,11.1z"/>
	<path d="M18,6.5C18,6.2,17.8,6,17.5,6H3.7C3.4,6,3.2,6.2,3.2,6.5S3.4,7,3.7,7h13.9C17.8,7,18,6.8,18,6.5z"/>
	<path d="M19,7.5c-0.3,0-0.5,0.2-0.5,0.5s0.2,0.5,0.5,0.5c1.1,0,2-0.9,2-2s-0.9-2-2-2c-0.3,0-0.5,0.2-0.5,0.5s0.2,0.5,0.5,0.5
		c0.6,0,1,0.4,1,1S19.6,7.5,19,7.5z"/>
	<path d="M4,5.2c0.3,0,0.5-0.2,0.5-0.5V3.4c0-0.3-0.2-0.5-0.5-0.5S3.5,3.1,3.5,3.4v1.3C3.5,5,3.8,5.2,4,5.2z"/>
	<path d="M5.5,5.2C5.7,5.2,6,5,6,4.7V3.4c0-0.3-0.2-0.5-0.5-0.5S5,3.1,5,3.4v1.3C5,5,5.2,5.2,5.5,5.2z"/>
	<path d="M6.9,5.2c0.3,0,0.5-0.2,0.5-0.5V3.4c0-0.3-0.2-0.5-0.5-0.5S6.4,3.1,6.4,3.4v1.3C6.4,5,6.6,5.2,6.9,5.2z"/>
	<path d="M11.6,5.4c1,0,1.8-0.8,1.8-1.8s-0.8-1.8-1.8-1.8S9.8,2.6,9.8,3.6S10.6,5.4,11.6,5.4z M11.6,2.8c0.4,0,0.8,0.4,0.8,0.8
		S12,4.4,11.6,4.4S10.8,4,10.8,3.6S11.2,2.8,11.6,2.8z"/>
	<path d="M15.9,5.4c1,0,1.8-0.8,1.8-1.8s-0.8-1.8-1.8-1.8c-1,0-1.8,0.8-1.8,1.8S14.9,5.4,15.9,5.4z M15.9,2.8c0.4,0,0.8,0.4,0.8,0.8
		s-0.4,0.8-0.8,0.8c-0.4,0-0.8-0.4-0.8-0.8S15.5,2.8,15.9,2.8z"/>
	<path d="M22.9,22.6H22c0.3-0.4,0.5-1,0.5-1.6V2.9c0-1.4-1.1-2.6-2.4-2.6H3.8c-1.3,0-2.4,1.1-2.4,2.6v18.1c0,0.6,0.2,1.1,0.5,1.6
		H1.1c-0.3,0-0.5,0.2-0.5,0.5s0.2,0.5,0.5,0.5h2.8h16.3h2.8c0.3,0,0.5-0.2,0.5-0.5S23.2,22.6,22.9,22.6z M3.8,22.6
		c-0.8,0-1.4-0.7-1.4-1.6V2.9c0-0.9,0.6-1.6,1.4-1.6h16.3c0.8,0,1.4,0.7,1.4,1.6v18.1c0,0.9-0.6,1.6-1.4,1.6H3.8z"/>
</g>
</svg>
