<?xml version="1.0" encoding="utf-8"?>
<!-- Generator: Adobe Illustrator 16.0.0, SVG Export Plug-In . SVG Version: 6.00 Build 0)  -->
<!DOCTYPE svg PUBLIC "-//W3C//DTD SVG 1.1//EN" "http://www.w3.org/Graphics/SVG/1.1/DTD/svg11.dtd">
<svg version="1.1" id="Layer_1" xmlns="http://www.w3.org/2000/svg" xmlns:xlink="http://www.w3.org/1999/xlink" x="0px" y="0px"
	 width="128px" height="128px" viewBox="0 0 128 128" enable-background="new 0 0 128 128" xml:space="preserve">
<g>
	<g>
		<rect x="8" y="2.2" fill="#FFAB00" width="100" height="113"/>
		<path fill="#37474F" d="M108,116.8H8c-0.8,0-1.5-0.7-1.5-1.5V2.2c0-0.8,0.7-1.5,1.5-1.5h100c0.8,0,1.5,0.7,1.5,1.5v113
			C109.5,116.1,108.8,116.8,108,116.8z M9.5,113.8h97V3.8h-97V113.8z"/>
	</g>
	<g>
		<polygon fill="#37474F" points="9.5,113.7 55.5,58.8 9.5,3.9 		"/>
	</g>
	<g>
		<g>
			<rect x="83.5" y="67.8" fill="#37474F" width="6" height="54"/>
		</g>
		<g>
			<g>
				<path fill="#FFFFFF" d="M120,63c0,1.5-0.6,3.3-1.4,3.3H88.3c-0.8,0-1.3-1.8-1.3-3.3V50.5c0-1.5,0.5-3.3,1.3-3.3h30.3
					c0.8,0,1.4,1.7,1.4,3.3V63z"/>
				<path fill="#37474F" d="M118.6,67.8H88.3c-1.9,0-2.8-2.4-2.8-4.8V50.5c0-2.4,0.9-4.8,2.8-4.8h30.3c2.1,0,2.9,2.9,2.9,4.8V63
					C121.5,64.9,120.7,67.8,118.6,67.8z M88.8,64.8h29.4c0.2-0.4,0.3-1,0.3-1.8V50.5c0-0.7-0.2-1.4-0.3-1.8H88.8
					c-0.1,0.3-0.3,1-0.3,1.8V63C88.5,63.7,88.6,64.4,88.8,64.8z"/>
			</g>
			<g>
				<path fill="#78909C" d="M86,59.6c0,0.9-0.7,1.7-1.5,1.7H51.6c-0.8,0-1.6-0.8-1.6-1.7v-6.9c0-0.8,0.7-1.4,1.6-1.4h32.9
					c0.8,0,1.5,0.6,1.5,1.4V59.6z"/>
				<path fill="#37474F" d="M84.5,62.8H51.6c-1.7,0-3.1-1.5-3.1-3.2v-6.9c0-1.6,1.3-2.9,3.1-2.9h32.9c1.7,0,3,1.3,3,2.9v6.9
					C87.5,61.3,86.1,62.8,84.5,62.8z M51.5,52.8v6.8c0,0.1,0.1,0.2,0.1,0.2l32.8,0c0,0,0.1-0.1,0.1-0.2v-6.8L51.5,52.8
					C51.5,52.8,51.5,52.8,51.5,52.8z"/>
			</g>
			<g>
				<path fill="#FFECB3" d="M50.5,49.8c-2,1.1-4.6,4.2-4.6,7.9c0,3.7,2.6,6.7,4.6,7.9V49.8z"/>
			</g>
			<g>
				<path fill="#B0BEC5" d="M54.6,48.2c0.5,0,0.4,0.1,0.4,0.5V67c0,0.5,0,1.3-0.4,1.3h-3.8c-0.5,0-0.8-0.8-0.8-1.3V48.8
					c0-0.5,0.3-0.5,0.8-0.5H54.6z"/>
				<path fill="#37474F" d="M54.6,69.8h-3.8c-1.4,0-2.3-1.4-2.3-2.8V48.8c0-0.3,0.1-2,2.3-2h3.8c0.3,0,0.9,0,1.4,0.5
					c0.5,0.5,0.5,1.1,0.5,1.4l0,0.1v18.3c0,0.6,0,1.5-0.6,2.1C55.5,69.6,55.1,69.8,54.6,69.8z M51.5,66.8h2v-17l-2,0V66.8z"/>
			</g>
			<g>
				<path fill="#FFFFFF" d="M120,72.7c0,1.5-1.2,2.6-2.7,2.6H57.7c-1.5,0-2.7-1.1-2.7-2.6V60.2c0-1.5,1.2-2.9,2.7-2.9h59.5
					c1.5,0,2.7,1.4,2.7,2.9V72.7z"/>
				<path fill="#37474F" d="M117.3,76.8H57.7c-2.4,0-4.2-1.8-4.2-4.1V60.2c0-2.4,1.9-4.4,4.2-4.4h59.5c2.3,0,4.2,2,4.2,4.4v12.5
					C121.5,75,119.6,76.8,117.3,76.8z M57.7,58.8c-0.7,0-1.2,0.7-1.2,1.4v12.5c0,0.8,0.6,1.1,1.2,1.1h59.5c0.6,0,1.2-0.3,1.2-1.1
					V60.2c0-0.8-0.6-1.4-1.2-1.4H57.7z"/>
			</g>
			<g>
				<g>
					<path fill="#37474F" d="M106.8,66.4c0-0.9,0.7-1.6,1.6-1.6c0.9,0,1.6,0.7,1.6,1.6c0,0.9-0.7,1.6-1.6,1.6
						C107.6,68,106.8,67.3,106.8,66.4z"/>
					<path fill="#37474F" d="M108.4,68.5c-1.1,0-2.1-1-2.1-2.1c0-1.2,0.9-2.1,2.1-2.1c0.6,0,1.1,0.2,1.5,0.6
						c0.4,0.4,0.6,0.9,0.6,1.5C110.6,67.6,109.6,68.5,108.4,68.5L108.4,68.5z M108.4,65.3c-0.6,0-1.1,0.5-1.1,1.1
						c0,0.6,0.5,1.1,1.1,1.1V68l0-0.5c0.6,0,1.1-0.5,1.1-1.1c0-0.3-0.1-0.6-0.3-0.8C109.1,65.4,108.8,65.3,108.4,65.3z"/>
				</g>
				<g>
					<path fill="#37474F" d="M95.6,66.4c0-0.9,0.7-1.6,1.6-1.6c0.9,0,1.6,0.7,1.6,1.6c0,0.9-0.7,1.6-1.6,1.6
						C96.3,68,95.6,67.3,95.6,66.4z"/>
					<path fill="#37474F" d="M97.2,68.5L97.2,68.5c-1.2,0-2.1-1-2.1-2.1c0-0.6,0.2-1.1,0.6-1.5s0.9-0.6,1.5-0.6
						c1.2,0,2.1,0.9,2.1,2.1C99.3,67.6,98.3,68.5,97.2,68.5z M97.2,65.3c-0.3,0-0.6,0.1-0.8,0.3c-0.2,0.2-0.3,0.5-0.3,0.8
						c0,0.6,0.5,1.1,1.1,1.1c0.6,0,1.1-0.5,1.1-1.1C98.3,65.8,97.8,65.3,97.2,65.3z"/>
				</g>
				<g>
					<path fill="#37474F" d="M84.3,66.4c0-0.9,0.7-1.6,1.6-1.6c0.9,0,1.6,0.7,1.6,1.6c0,0.9-0.7,1.6-1.6,1.6
						C85,68,84.3,67.3,84.3,66.4z"/>
					<path fill="#37474F" d="M86,68.5L86,68.5C85.9,68.5,85.9,68.5,86,68.5c-1.2,0-2.1-1-2.1-2.1c0-1.2,1-2.1,2.1-2.1
						c1.2,0,2.1,1,2.1,2.1C88,67.6,87.1,68.5,86,68.5z M85.9,65.3c-0.6,0-1.1,0.5-1.1,1.1c0,0.6,0.5,1.1,1.1,1.1L86,68v-0.5
						c0.6,0,1.1-0.5,1.1-1.1C87,65.8,86.5,65.3,85.9,65.3z"/>
				</g>
			</g>
			<g>
				<line fill="#FFECB3" x1="62" y1="62.8" x2="62" y2="69.8"/>
				<path fill="#37474F" d="M62,71.2c-0.8,0-1.5-0.7-1.5-1.5v-7c0-0.8,0.7-1.5,1.5-1.5s1.5,0.7,1.5,1.5v7
					C63.5,70.6,62.8,71.2,62,71.2z"/>
			</g>
			<g>
				<line fill="#FFECB3" x1="67" y1="62.8" x2="67" y2="69.8"/>
				<path fill="#37474F" d="M67,71.2c-0.8,0-1.5-0.7-1.5-1.5v-7c0-0.8,0.7-1.5,1.5-1.5s1.5,0.7,1.5,1.5v7
					C68.5,70.6,67.8,71.2,67,71.2z"/>
			</g>
			<g>
				<line fill="#FFECB3" x1="72" y1="62.8" x2="72" y2="69.8"/>
				<path fill="#37474F" d="M72,71.2c-0.8,0-1.5-0.7-1.5-1.5v-7c0-0.8,0.7-1.5,1.5-1.5s1.5,0.7,1.5,1.5v7
					C73.5,70.6,72.8,71.2,72,71.2z"/>
			</g>
		</g>
		<g>
			<path fill="#37474F" d="M101.2,122.2c0,1.9-1.6,3.5-3.5,3.5H74.9c-1.9,0-3.5-1.6-3.5-3.5l0,0c0-1.9,1.6-3.5,3.5-3.5h22.8
				C99.6,118.8,101.2,120.3,101.2,122.2L101.2,122.2z"/>
		</g>
		<g>
			<path fill="#37474F" d="M101.2,79.3c0,1.9-1.6,3.5-3.5,3.5H74.9c-1.9,0-3.5-1.6-3.5-3.5l0,0c0-1.9,1.6-3.5,3.5-3.5h22.8
				C99.6,75.8,101.2,77.3,101.2,79.3L101.2,79.3z"/>
		</g>
		<g>
			<path fill="#37474F" d="M96.6,117.2c0,1.3-1.1,2.5-2.4,2.5H78.4c-1.4,0-2.4-1.2-2.4-2.5l0,0c0-1.3,1.1-2.5,2.4-2.5h15.8
				C95.5,114.8,96.6,115.9,96.6,117.2L96.6,117.2z"/>
		</g>
	</g>
</g>
</svg>
