<?xml version="1.0" encoding="utf-8"?>
<!-- Generator: Adobe Illustrator 16.0.0, SVG Export Plug-In . SVG Version: 6.00 Build 0)  -->
<!DOCTYPE svg PUBLIC "-//W3C//DTD SVG 1.1//EN" "http://www.w3.org/Graphics/SVG/1.1/DTD/svg11.dtd">
<svg version="1.1" id="Layer_1" xmlns="http://www.w3.org/2000/svg" xmlns:xlink="http://www.w3.org/1999/xlink" x="0px" y="0px"
	 width="128px" height="128px" viewBox="0 0 128 128" enable-background="new 0 0 128 128" xml:space="preserve">
<g>
	<g>
		<polygon fill="#37474F" points="107.1,102.8 85.9,96.2 100.1,50.5 121.3,57.1 		"/>
		<path fill="#37474F" d="M107.1,104.3c-0.1,0-0.3,0-0.4-0.1l-21.2-6.6c-0.8-0.2-1.2-1.1-1-1.9l14.2-45.7c0.2-0.8,1.1-1.2,1.9-1
			l21.2,6.6c0.8,0.2,1.2,1.1,1,1.9l-14.2,45.7c-0.1,0.4-0.4,0.7-0.7,0.9C107.6,104.2,107.4,104.3,107.1,104.3z M87.8,95.2l18.3,5.7
			l13.3-42.8l-18.3-5.7L87.8,95.2z"/>
	</g>
	<g>
		<g>
			<g>
				<path fill="#FFFFFF" d="M38.7,51.4c0,8.5-4.1,15.5-9.2,15.5s-9.2-6.9-9.2-15.5c0-8.5,4.1-15.5,9.2-15.5S38.7,42.9,38.7,51.4z"/>
				<path fill="#37474F" d="M29.5,68.4c-6,0-10.7-7.5-10.7-17c0-9.5,4.7-17,10.7-17c6,0,10.7,7.5,10.7,17
					C40.2,60.9,35.5,68.4,29.5,68.4z M29.5,37.4c-4.2,0-7.7,6.4-7.7,14c0,7.6,3.5,14,7.7,14c4.2,0,7.7-6.4,7.7-14
					C37.2,43.8,33.6,37.4,29.5,37.4z"/>
			</g>
			<g>
				<polygon fill="#FFAB00" points="86.2,74.6 41.2,62.8 41.2,40 86.2,28.2 				"/>
				<path fill="#37474F" d="M86.2,76.1c-0.1,0-0.3,0-0.4,0l-45-11.8c-0.7-0.2-1.1-0.8-1.1-1.5V40c0-0.7,0.5-1.3,1.1-1.5l45-11.8
					c0.4-0.1,0.9,0,1.3,0.3c0.4,0.3,0.6,0.7,0.6,1.2v46.4c0,0.5-0.2,0.9-0.6,1.2C86.8,76,86.5,76.1,86.2,76.1z M42.7,61.7l42,11
					V30.1l-42,11V61.7z"/>
			</g>
			<g>
				<path fill="#FFAB00" d="M125.3,51.4c0,14.6-11.9,26.5-26.5,26.5S72.3,66.1,72.3,51.4c0-14.6,11.9-26.5,26.5-26.5
					S125.3,36.8,125.3,51.4z"/>
				<path fill="#37474F" d="M98.8,79.4c-15.4,0-28-12.6-28-28c0-15.4,12.6-28,28-28c15.5,0,28,12.6,28,28
					C126.8,66.9,114.3,79.4,98.8,79.4z M98.8,26.4c-13.8,0-25,11.2-25,25c0,13.8,11.2,25,25,25c13.8,0,25-11.2,25-25
					C123.8,37.6,112.6,26.4,98.8,26.4z"/>
			</g>
			<g>
				<polygon fill="#FFECB3" points="98.8,77.1 73.1,51.4 98.8,25.7 124.5,51.4 				"/>
				<path fill="#37474F" d="M98.8,78.6L98.8,78.6c-0.4,0-0.8-0.2-1.1-0.4L72.1,52.5c-0.6-0.6-0.6-1.5,0-2.1l25.7-25.7
					c0.6-0.6,1.5-0.6,2.1,0l25.7,25.7c0.6,0.6,0.6,1.5,0,2.1L99.9,78.2C99.6,78.5,99.2,78.6,98.8,78.6z M75.2,51.4L98.8,75
					l23.6-23.6L98.8,27.8L75.2,51.4z"/>
			</g>
			<g>
				<polygon fill="#37474F" points="98.8,59.7 90.6,51.4 98.8,43.2 107.1,51.4 				"/>
				<path fill="#37474F" d="M98.8,61.2c-0.4,0-0.8-0.2-1.1-0.4l-8.3-8.3c-0.3-0.3-0.4-0.7-0.4-1.1s0.2-0.8,0.4-1.1l8.3-8.2
					c0.6-0.6,1.5-0.6,2.1,0l8.3,8.2c0.3,0.3,0.4,0.7,0.4,1.1s-0.2,0.8-0.4,1.1l-8.3,8.3C99.6,61,99.2,61.2,98.8,61.2z M92.7,51.4
					l6.1,6.1l6.1-6.1l-6.1-6.1L92.7,51.4z"/>
			</g>
			<g>
				<g>
					<line fill="#FFECB3" x1="99.2" y1="27.4" x2="99.2" y2="75.4"/>
					<path fill="#37474F" d="M99.2,76.9c-0.8,0-1.5-0.7-1.5-1.5v-48c0-0.8,0.7-1.5,1.5-1.5s1.5,0.7,1.5,1.5v48
						C100.7,76.3,100,76.9,99.2,76.9z"/>
				</g>
				<g>
					<line fill="#FFECB3" x1="74.7" y1="50.9" x2="122.7" y2="50.9"/>
					<path fill="#37474F" d="M122.7,52.4h-48c-0.8,0-1.5-0.7-1.5-1.5s0.7-1.5,1.5-1.5h48c0.8,0,1.5,0.7,1.5,1.5
						S123.5,52.4,122.7,52.4z"/>
				</g>
			</g>
			<g>
				<g>
					<path fill="#FFECB3" d="M43.2,65.3c0,1.9-1.6,3.5-3.5,3.5l0,0c-1.9,0-3.5-1.5-3.5-3.5V37.5c0-1.9,1.6-3.5,3.5-3.5l0,0
						c1.9,0,3.5,1.5,3.5,3.5V65.3z"/>
					<path fill="#37474F" d="M39.7,70.2c-2.8,0-5-2.2-5-5V37.5c0-2.7,2.2-5,5-5c2.8,0,5,2.2,5,5v27.7C44.7,68,42.4,70.2,39.7,70.2z
						 M39.7,35.6c-1.1,0-2,0.9-2,2v27.7c0,1.1,0.9,2,2,2c1.1,0,2-0.9,2-2V37.5C41.7,36.5,40.7,35.6,39.7,35.6z"/>
				</g>
				<g>
					<rect x="25.2" y="31.9" fill="#FFAB00" width="11" height="39"/>
					<path fill="#37474F" d="M36.2,72.4h-11c-0.8,0-1.5-0.7-1.5-1.5v-39c0-0.8,0.7-1.5,1.5-1.5h11c0.8,0,1.5,0.7,1.5,1.5v39
						C37.7,71.8,37,72.4,36.2,72.4z M26.7,69.4h8v-36h-8V69.4z"/>
				</g>
			</g>
			<g>
				<g>
					<line fill="#FFAB00" x1="43.7" y1="47.9" x2="72.7" y2="47.9"/>
					<path fill="#37474F" d="M72.7,49.4h-29c-0.8,0-1.5-0.7-1.5-1.5s0.7-1.5,1.5-1.5h29c0.8,0,1.5,0.7,1.5,1.5S73.5,49.4,72.7,49.4z
						"/>
				</g>
				<g>
					<line fill="#FFAB00" x1="43.7" y1="54.9" x2="72.7" y2="54.9"/>
					<path fill="#37474F" d="M72.7,56.4h-29c-0.8,0-1.5-0.7-1.5-1.5s0.7-1.5,1.5-1.5h29c0.8,0,1.5,0.7,1.5,1.5S73.5,56.4,72.7,56.4z
						"/>
				</g>
			</g>
			<g>
				<g>
					<g>
						<line fill="#FFECB3" x1="8.1" y1="18.1" x2="24.9" y2="34.8"/>
						<path fill="#37474F" d="M24.9,36.3c-0.4,0-0.8-0.1-1.1-0.4L7.1,19.1c-0.6-0.6-0.6-1.5,0-2.1c0.6-0.6,1.5-0.6,2.1,0l16.8,16.8
							c0.6,0.6,0.6,1.5,0,2.1C25.6,36.2,25.3,36.3,24.9,36.3z"/>
					</g>
					<g>
						<line fill="#FFECB3" x1="8.1" y1="84.8" x2="24.9" y2="68"/>
						<path fill="#37474F" d="M8.1,86.3c-0.4,0-0.8-0.1-1.1-0.4c-0.6-0.6-0.6-1.5,0-2.1l16.8-16.8c0.6-0.6,1.5-0.6,2.1,0
							s0.6,1.5,0,2.1L9.2,85.8C8.9,86.1,8.5,86.3,8.1,86.3z"/>
					</g>
				</g>
				<g>
					<line fill="#FFECB3" x1="2.7" y1="50.9" x2="23.7" y2="50.9"/>
					<path fill="#37474F" d="M23.7,52.4h-21c-0.8,0-1.5-0.7-1.5-1.5s0.7-1.5,1.5-1.5h21c0.8,0,1.5,0.7,1.5,1.5S24.5,52.4,23.7,52.4z
						"/>
				</g>
			</g>
		</g>
		<g>
			<g>
				<g>
					<path fill="#37474F" d="M66.6,42.2c0-0.8,0.6-1.4,1.4-1.4c0.8,0,1.4,0.6,1.4,1.4c0,0.7-0.6,1.3-1.4,1.3
						C67.3,43.6,66.6,42.9,66.6,42.2z"/>
					<path fill="#37474F" d="M68,44c-1,0-1.8-0.8-1.8-1.8c0-1,0.8-1.9,1.9-1.9c0.5,0,1,0.2,1.3,0.6c0.3,0.4,0.5,0.8,0.5,1.3
						C69.9,43.2,69,44,68,44L68,44z M68,41.4c-0.5,0-0.9,0.4-0.9,0.9c0,0.4,0.4,0.8,0.8,0.8v0.5l0-0.5c0.5,0,0.9-0.4,0.9-0.8
						c0-0.2-0.1-0.4-0.2-0.6C68.5,41.4,68.2,41.4,68,41.4z"/>
				</g>
				<g>
					<path fill="#37474F" d="M57.2,42.2c0-0.8,0.6-1.4,1.3-1.4s1.3,0.6,1.4,1.4c0,0.7-0.6,1.4-1.4,1.4
						C57.8,43.5,57.2,42.9,57.2,42.2z"/>
					<path fill="#37474F" d="M58.5,44.1L58.5,44.1c-1,0-1.8-0.9-1.8-1.9c0-0.5,0.2-0.9,0.5-1.3c0.4-0.4,0.8-0.6,1.3-0.6
						c1,0,1.8,0.8,1.9,1.8C60.4,43.2,59.6,44.1,58.5,44.1z M58.6,41.4c-0.2,0-0.4,0.1-0.6,0.3c-0.2,0.2-0.2,0.4-0.2,0.6
						c0,0.5,0.4,0.9,0.8,0.9c0.5,0,0.9-0.4,0.9-0.9C59.4,41.7,59,41.4,58.6,41.4z"/>
				</g>
				<g>
					<path fill="#37474F" d="M47.8,42.2c0-0.7,0.6-1.4,1.4-1.4c0.7,0,1.4,0.6,1.4,1.4c0,0.7-0.6,1.4-1.4,1.3
						C48.4,43.6,47.8,42.9,47.8,42.2z"/>
					<path fill="#37474F" d="M49.1,44L49.1,44L49.1,44c-1,0-1.9-0.8-1.9-1.8c0-1,0.8-1.9,1.9-1.9c1,0,1.9,0.8,1.9,1.9
						C51,43.2,50.1,44,49.1,44z M49.1,41.4c-0.5,0-0.9,0.4-0.9,0.9c0,0.4,0.4,0.8,0.8,0.8l0,0.5V43c0.5,0,0.8-0.4,0.8-0.8
						C50,41.7,49.6,41.4,49.1,41.4z"/>
				</g>
			</g>
			<g>
				<g>
					<path fill="#37474F" d="M66.6,60.6c0-0.8,0.6-1.4,1.4-1.4c0.8,0,1.4,0.6,1.4,1.4c0,0.7-0.6,1.3-1.4,1.3
						C67.3,62,66.6,61.4,66.6,60.6z"/>
					<path fill="#37474F" d="M68,62.5c-1,0-1.8-0.8-1.8-1.8c0-1,0.8-1.9,1.9-1.9c0.5,0,1,0.2,1.3,0.6c0.3,0.4,0.5,0.8,0.5,1.3
						C69.9,61.6,69,62.5,68,62.5L68,62.5z M68,59.8c-0.5,0-0.9,0.4-0.9,0.9c0,0.5,0.4,0.8,0.8,0.8V62l0-0.5c0.5,0,0.9-0.4,0.9-0.8
						c0-0.2-0.1-0.4-0.2-0.6C68.5,59.8,68.2,59.8,68,59.8z"/>
				</g>
				<g>
					<path fill="#37474F" d="M57.2,60.6c0-0.8,0.6-1.4,1.3-1.4s1.3,0.6,1.4,1.4c0,0.7-0.6,1.4-1.4,1.4C57.8,62,57.2,61.4,57.2,60.6z
						"/>
					<path fill="#37474F" d="M58.5,62.5L58.5,62.5c-1,0-1.8-0.9-1.8-1.9c0-0.5,0.2-1,0.5-1.3c0.4-0.4,0.8-0.6,1.3-0.6
						c1,0,1.8,0.8,1.9,1.8C60.4,61.6,59.6,62.5,58.5,62.5z M58.6,59.8c-0.2,0-0.4,0.1-0.6,0.3c-0.2,0.2-0.2,0.4-0.2,0.6
						c0,0.5,0.4,0.9,0.8,0.9c0.5,0,0.9-0.4,0.9-0.9C59.4,60.1,59,59.8,58.6,59.8z"/>
				</g>
				<g>
					<path fill="#37474F" d="M47.8,60.6c0-0.7,0.6-1.4,1.4-1.4c0.7,0,1.4,0.6,1.4,1.4c0,0.7-0.6,1.4-1.4,1.3
						C48.4,62,47.8,61.4,47.8,60.6z"/>
					<path fill="#37474F" d="M49.1,62.5L49.1,62.5L49.1,62.5c-1,0-1.9-0.8-1.9-1.8c0-1,0.8-1.9,1.9-1.9s1.9,0.8,1.9,1.9
						C51,61.6,50.1,62.5,49.1,62.5z M49.1,59.8c-0.5,0-0.9,0.4-0.9,0.9c0,0.5,0.4,0.8,0.8,0.8l0,0.5v-0.5c0.5,0,0.8-0.4,0.8-0.8
						C50,60.1,49.6,59.8,49.1,59.8z"/>
				</g>
			</g>
		</g>
	</g>
	<g>
		<rect x="79.2" y="95.9" fill="#FFAB00" width="34" height="8"/>
		<path fill="#37474F" d="M113.2,105.4h-34c-0.8,0-1.5-0.7-1.5-1.5v-8c0-0.8,0.7-1.5,1.5-1.5h34c0.8,0,1.5,0.7,1.5,1.5v8
			C114.7,104.8,114,105.4,113.2,105.4z M80.7,102.4h31v-5h-31V102.4z"/>
	</g>
	<g>
		<rect x="81.2" y="103.9" fill="#FFECB3" width="30" height="6"/>
		<path fill="#37474F" d="M111.2,111.4h-30c-0.8,0-1.5-0.7-1.5-1.5v-6c0-0.8,0.7-1.5,1.5-1.5h30c0.8,0,1.5,0.7,1.5,1.5v6
			C112.7,110.8,112,111.4,111.2,111.4z M82.7,108.4h27v-3h-27V108.4z"/>
	</g>
</g>
</svg>
