<?xml version="1.0" encoding="utf-8"?>
<!-- Generator: Adobe Illustrator 16.0.0, SVG Export Plug-In . SVG Version: 6.00 Build 0)  -->
<!DOCTYPE svg PUBLIC "-//W3C//DTD SVG 1.1//EN" "http://www.w3.org/Graphics/SVG/1.1/DTD/svg11.dtd">
<svg version="1.1" id="Layer_1" xmlns="http://www.w3.org/2000/svg" xmlns:xlink="http://www.w3.org/1999/xlink" x="0px" y="0px"
	 width="64px" height="64px" viewBox="0 0 64 64" enable-background="new 0 0 64 64" xml:space="preserve">
<g>
	<g>
		<g>
			<rect x="29" y="7.5" fill="#B0BEC5" width="6" height="18"/>
			<path fill="#37474F" d="M35,26.5h-6c-0.6,0-1-0.4-1-1v-18c0-0.6,0.4-1,1-1h6c0.6,0,1,0.4,1,1v18C36,26.1,35.6,26.5,35,26.5z
				 M30,24.5h4v-16h-4V24.5z"/>
		</g>
		<g>
			<path fill="#FFAB00" d="M6,6.5v1.3c0,3.2,2.5,5.7,5.7,5.7h40.6c3.2,0,5.7-2.5,5.7-5.7V6.5H6z"/>
			<path fill="#37474F" d="M52.3,14.5H11.7C8,14.5,5,11.6,5,7.8V6.5c0-0.6,0.4-1,1-1h52c0.6,0,1,0.4,1,1v1.3
				C59,11.6,56.1,14.5,52.3,14.5z M7,7.5v0.3c0,2.6,2,4.7,4.7,4.7h40.6c2.6,0,4.7-2,4.7-4.7V7.5H7z"/>
		</g>
		<g>
			<path fill="#FFFFFF" d="M60.2,57.9c0,1.9-2.1,3.6-4.6,3.6H8.5c-2.6,0-4.6-1.7-4.6-3.6l9.2-34.7c0.5-1.8,2.1-3.7,4.6-3.7h28.6
				c2.6,0,4.1,1.7,4.6,3.7L60.2,57.9z"/>
			<path fill="#37474F" d="M55.5,62.5H8.5c-3,0-5.6-2.1-5.6-4.6c0-0.1,0-0.2,0-0.3l9.2-34.7c0.6-2.2,2.6-4.4,5.6-4.4h28.6
				c3.2,0,5,2.3,5.6,4.4l9.2,34.7c0,0.1,0,0.2,0,0.3C61.2,60.4,58.6,62.5,55.5,62.5z M4.8,58c0.1,1.2,1.6,2.5,3.6,2.5h47.1
				c2,0,3.5-1.3,3.6-2.5L50,23.4c-0.2-0.7-1-2.9-3.7-2.9H17.7c-2.1,0-3.3,1.6-3.7,3L4.8,58z"/>
		</g>
		<g>
			<g>
				<path fill="#37474F" d="M36.2,47.8c0-0.4,0.3-0.7,0.7-0.7c0.4,0,0.7,0.3,0.7,0.7c0,0.4-0.3,0.7-0.7,0.7
					C36.5,48.5,36.2,48.1,36.2,47.8z"/>
				<path fill="#37474F" d="M36.9,49c-0.6,0-1.2-0.5-1.2-1.2c0-0.7,0.5-1.2,1.2-1.2c0.3,0,0.7,0.1,0.9,0.4c0.2,0.2,0.3,0.5,0.3,0.8
					C38.1,48.4,37.5,49,36.9,49z M36.9,47.6c-0.1,0-0.2,0.1-0.2,0.2c0,0.1,0.1,0.2,0.2,0.2c0.1,0,0.2-0.1,0.2-0.2c0-0.1,0-0.1,0-0.1
					C37,47.6,36.9,47.6,36.9,47.6z"/>
			</g>
			<g>
				<path fill="#37474F" d="M31.3,47.8c0-0.4,0.3-0.7,0.7-0.7c0.4,0,0.7,0.3,0.7,0.7c0,0.4-0.3,0.7-0.7,0.7
					C31.6,48.5,31.3,48.1,31.3,47.8z"/>
				<path fill="#37474F" d="M32,49c-0.6,0-1.2-0.5-1.2-1.2c0-0.3,0.1-0.6,0.3-0.8c0.2-0.2,0.5-0.4,0.9-0.4c0.7,0,1.2,0.5,1.2,1.2
					C33.2,48.4,32.6,49,32,49z M32,47.6c-0.1,0-0.1,0-0.1,0.1c0,0,0,0.1,0,0.1c0,0.1,0.1,0.2,0.2,0.2c0.1,0,0.2-0.1,0.2-0.2
					C32.2,47.7,32.1,47.6,32,47.6z"/>
			</g>
			<g>
				<path fill="#37474F" d="M26.4,47.8c0-0.4,0.3-0.7,0.7-0.7s0.7,0.3,0.7,0.7c0,0.4-0.3,0.7-0.7,0.7S26.4,48.1,26.4,47.8z"/>
				<path fill="#37474F" d="M27.1,49c-0.7,0-1.2-0.5-1.2-1.2c0-0.7,0.5-1.2,1.2-1.2c0.7,0,1.2,0.5,1.2,1.2
					C28.3,48.4,27.8,49,27.1,49z M27.1,47.6c-0.1,0-0.2,0.1-0.2,0.2c0,0.1,0.1,0.2,0.2,0.2c0.1,0,0.2-0.1,0.2-0.2
					C27.3,47.6,27.3,47.6,27.1,47.6z"/>
			</g>
		</g>
		<g>
			<g>
				<path fill="#37474F" d="M36.2,53.1c0-0.4,0.3-0.7,0.7-0.7c0.4,0,0.7,0.3,0.7,0.7c0,0.4-0.3,0.7-0.7,0.7
					C36.5,53.8,36.2,53.5,36.2,53.1z"/>
				<path fill="#37474F" d="M36.9,54.3c-0.6,0-1.2-0.6-1.2-1.2c0-0.7,0.5-1.2,1.2-1.2c0.3,0,0.6,0.1,0.9,0.4
					c0.2,0.2,0.3,0.5,0.3,0.8C38.1,53.8,37.5,54.3,36.9,54.3z M36.9,52.9c-0.1,0-0.2,0.1-0.2,0.2c0,0.1,0.1,0.2,0.2,0.2
					c0.1,0,0.2-0.1,0.2-0.2c0-0.1,0-0.1,0-0.1C37,52.9,36.9,52.9,36.9,52.9z"/>
			</g>
			<g>
				<path fill="#37474F" d="M31.3,53.1c0-0.4,0.3-0.7,0.7-0.7c0.4,0,0.7,0.3,0.7,0.7c0,0.4-0.3,0.7-0.7,0.7
					C31.6,53.8,31.3,53.5,31.3,53.1z"/>
				<path fill="#37474F" d="M32,54.3c-0.6,0-1.2-0.6-1.2-1.2c0-0.3,0.1-0.6,0.3-0.8c0.2-0.2,0.5-0.4,0.9-0.4c0.7,0,1.2,0.5,1.2,1.2
					C33.2,53.8,32.6,54.3,32,54.3z M32,52.9c0,0-0.1,0-0.1,0.1c0,0-0.1,0.1,0,0.1c0,0.3,0.4,0.2,0.4,0C32.2,53,32.1,52.9,32,52.9z"
					/>
			</g>
			<g>
				<path fill="#37474F" d="M26.4,53.1c0-0.4,0.3-0.7,0.7-0.7s0.7,0.3,0.7,0.7c0,0.4-0.3,0.7-0.7,0.7S26.4,53.5,26.4,53.1z"/>
				<path fill="#37474F" d="M27.1,54.3c-0.7,0-1.2-0.6-1.2-1.2c0-0.7,0.5-1.2,1.2-1.2c0.7,0,1.2,0.5,1.2,1.2
					C28.3,53.8,27.8,54.3,27.1,54.3z M27.1,52.9c-0.1,0-0.2,0.1-0.2,0.2c0,0.1,0.1,0.2,0.2,0.2c0.1,0,0.2-0.1,0.2-0.2
					C27.3,53,27.2,52.9,27.1,52.9z"/>
			</g>
		</g>
		<g>
			<line fill="#78909C" x1="10" y1="37.5" x2="54" y2="37.5"/>
			<path fill="#37474F" d="M54,38.5H10c-0.6,0-1-0.4-1-1s0.4-1,1-1h44c0.6,0,1,0.4,1,1S54.6,38.5,54,38.5z"/>
		</g>
		<g>
			<rect x="17" y="33.5" fill="#78909C" width="30" height="7"/>
			<path fill="#37474F" d="M47,41.5H17c-0.6,0-1-0.4-1-1v-7c0-0.6,0.4-1,1-1h30c0.6,0,1,0.4,1,1v7C48,41.1,47.6,41.5,47,41.5z
				 M18,39.5h28v-5H18V39.5z"/>
		</g>
	</g>
	<g>
		<path fill="#FFECB3" d="M56.9,4.5c0,1.1-0.9,2-1.9,2H9c-1,0-1.9-0.9-1.9-2l0,0c0-1,0.9-2,1.9-2H55C56.1,2.5,56.9,3.4,56.9,4.5
			L56.9,4.5z"/>
		<path fill="#37474F" d="M55,7.5H9c-1.6,0-2.9-1.4-2.9-3c0-1.6,1.3-3,2.9-3H55c1.6,0,2.9,1.4,2.9,3C57.9,6.1,56.6,7.5,55,7.5z
			 M9,3.5c-0.5,0-0.9,0.5-0.9,1c0,0.5,0.4,1,0.9,1H55c0.5,0,0.9-0.5,0.9-1c0-0.5-0.4-1-0.9-1H9z"/>
	</g>
</g>
</svg>
