<?xml version="1.0" encoding="utf-8"?>
<!-- Generator: Adobe Illustrator 16.0.0, SVG Export Plug-In . SVG Version: 6.00 Build 0)  -->
<!DOCTYPE svg PUBLIC "-//W3C//DTD SVG 1.1//EN" "http://www.w3.org/Graphics/SVG/1.1/DTD/svg11.dtd">
<svg version="1.1" id="Layer_1" xmlns="http://www.w3.org/2000/svg" xmlns:xlink="http://www.w3.org/1999/xlink" x="0px" y="0px"
	 width="128px" height="128px" viewBox="0 0 128 128" enable-background="new 0 0 128 128" xml:space="preserve">
<g>
	<g>
		<g>
			<circle fill="#FFFFFF" cx="59.9" cy="77.3" r="48.4"/>
			<path fill="#37474F" d="M59.9,127.7c-27.8,0-50.4-22.6-50.4-50.4C9.5,49.6,32.1,27,59.9,27c27.8,0,50.4,22.6,50.4,50.4
				C110.3,105.1,87.7,127.7,59.9,127.7z M59.9,31c-25.6,0-46.4,20.8-46.4,46.4c0,25.6,20.8,46.4,46.4,46.4
				c25.6,0,46.4-20.8,46.4-46.4C106.3,51.8,85.5,31,59.9,31z"/>
		</g>
		<g>
			<ellipse fill="#78909C" cx="59.9" cy="77.3" rx="30.6" ry="48.4"/>
			<path fill="#37474F" d="M59.9,127.7c-18,0-32.6-22.6-32.6-50.4C27.3,49.6,41.9,27,59.9,27c18,0,32.6,22.6,32.6,50.4
				C92.5,105.1,77.9,127.7,59.9,127.7z M59.9,31c-15.8,0-28.6,20.8-28.6,46.4c0,25.6,12.8,46.4,28.6,46.4h0
				c15.8,0,28.6-20.8,28.6-46.4C88.5,51.8,75.7,31,59.9,31z"/>
		</g>
		<g>
			<ellipse fill="#B0BEC5" cx="59.9" cy="77.3" rx="10.8" ry="48.4"/>
			<path fill="#37474F" d="M59.9,127.7c-10.1,0-12.8-33-12.8-50.4c0-13.1,1.1-25.4,3.2-34.6C52.7,32.1,55.8,27,59.9,27
				c4.1,0,7.2,5.1,9.6,15.7c2.1,9.3,3.2,21.6,3.2,34.6c0,13.1-1.1,25.4-3.2,34.6C67.1,122.6,64,127.7,59.9,127.7z M59.9,31
				c-3,0-8.8,16.4-8.8,46.4c0,30,5.8,46.4,8.8,46.4h0c3,0,8.8-16.4,8.8-46.4c0-12.8-1.1-24.8-3.1-33.8C63.3,33.2,60.7,31,59.9,31z"
				/>
		</g>
	</g>
	<g>
		<g>
			<g>
				<g>
					<path fill="#FFAB00" d="M90,77.7c8-13.1,26.2-39.9,26.2-52.1C116.2,13.1,105,3,90,2.3v0c0,0,0.1,0,0,0c-0.1,0,0,0,0,0v0
						C75,3,63.8,13.1,63.8,25.6C63.8,37.9,82,64.6,90,77.7V79c0-0.2-0.1-0.4,0-0.6c0.1,0.2,0,0.4,0,0.6V77.7z"/>
					<path fill="#37474F" d="M90,81c-1.1,0-1.9-0.8-2-1.9c0-0.2-0.1-0.5,0-0.9c-1.1-1.8-2.4-3.9-3.8-6.1
						c-9.4-15-22.4-35.5-22.4-46.6C61.8,12,73.7,1.2,89.5,0.3c0,0,0,0,0,0c0.3-0.1,0.6-0.1,0.8,0c0,0,0,0,0,0
						c15.8,0.8,27.7,11.7,27.7,25.3c0,11-12.9,31.6-22.4,46.6c-1.4,2.2-2.7,4.3-3.8,6.1c0.1,0.4,0,0.7,0,0.9
						C91.9,80.2,91.1,81,90,81z M90,4.3c-13.8,0.6-24.2,9.8-24.2,21.3c0,9.9,13.1,30.7,21.7,44.4c0.9,1.4,1.7,2.7,2.4,3.9
						c0.8-1.2,1.6-2.5,2.4-3.9c8.7-13.8,21.7-34.6,21.7-44.4C114.2,14.1,103.8,4.9,90,4.3z"/>
				</g>
				<g>
					<path fill="#FFECB3" d="M102.9,27.4c0,7.1-5.8,12.9-12.9,12.9c-7.1,0-12.9-5.8-12.9-12.9s5.8-12.9,12.9-12.9
						C97.1,14.5,102.9,20.2,102.9,27.4z"/>
					<path fill="#37474F" d="M89.9,42.3c-8.2,0-14.9-6.7-14.9-14.9s6.7-14.9,14.9-14.9c8.2,0,14.9,6.7,14.9,14.9
						S98.2,42.3,89.9,42.3z M89.9,16.5c-6,0-10.9,4.9-10.9,10.9c0,6,4.9,10.9,10.9,10.9c6,0,10.9-4.9,10.9-10.9
						C100.9,21.4,96,16.5,89.9,16.5z"/>
				</g>
			</g>
			<g>
				<line fill="#FFECB3" x1="90" y1="85" x2="90" y2="78"/>
				<path fill="#37474F" d="M90,87c-1.1,0-2-0.9-2-2v-7c0-1.1,0.9-2,2-2s2,0.9,2,2v7C92,86.1,91.1,87,90,87z"/>
			</g>
		</g>
	</g>
</g>
</svg>
