<?xml version="1.0" encoding="utf-8"?>
<!-- Generator: Adobe Illustrator 16.0.0, SVG Export Plug-In . SVG Version: 6.00 Build 0)  -->
<!DOCTYPE svg PUBLIC "-//W3C//DTD SVG 1.1//EN" "http://www.w3.org/Graphics/SVG/1.1/DTD/svg11.dtd">
<svg version="1.1" id="Layer_1" xmlns="http://www.w3.org/2000/svg" xmlns:xlink="http://www.w3.org/1999/xlink" x="0px" y="0px"
	 width="64px" height="64px" viewBox="0 0 64 64" enable-background="new 0 0 64 64" xml:space="preserve">
<g>
	<g>
		<g>
			<path fill="#FFFFFF" d="M59,56.7c0,3-2.2,5.3-5,5.3H10.5C7.8,62,6,59.7,6,56.7V8.4C6,5.4,7.8,3,10.5,3H54c2.8,0,5,2.4,5,5.4V56.7
				z"/>
			<path fill="#37474F" d="M54,63H10.5C7.3,63,5,60.3,5,56.7V8.4C5,4.7,7.3,2,10.5,2H54c3.3,0,6,2.8,6,6.4v48.3
				C60,60.2,57.4,63,54,63z M10.5,4C8.5,4,7,5.8,7,8.4v48.3c0,2.6,1.4,4.3,3.5,4.3H54c2.3,0,4-1.9,4-4.3V8.4C58,5.9,56.3,4,54,4
				H10.5z"/>
		</g>
		<g>
			<circle fill="#FFFFFF" cx="32.3" cy="40.3" r="17.8"/>
			<path fill="#37474F" d="M32.3,59C22,59,13.5,50.6,13.5,40.3S22,21.5,32.3,21.5S51,29.9,51,40.3S42.6,59,32.3,59z M32.3,23.5
				c-9.2,0-16.8,7.5-16.8,16.8S23.1,57,32.3,57S49,49.5,49,40.3S41.5,23.5,32.3,23.5z"/>
		</g>
		<g>
			<g>
				<g>
					<path fill="#FFAB00" d="M20.5,40.3c0-6.5,5.3-11.8,11.8-11.8"/>
					<path fill="#37474F" d="M20.5,41.3c-0.6,0-1-0.4-1-1c0-7,5.7-12.8,12.8-12.8c0.6,0,1,0.4,1,1s-0.4,1-1,1
						c-5.9,0-10.8,4.8-10.8,10.8C21.5,40.8,21.1,41.3,20.5,41.3z"/>
				</g>
				<g>
					<path fill="#FFAB00" d="M44,40.3C44,46.8,38.8,52,32.3,52"/>
					<path fill="#37474F" d="M32.3,53c-0.6,0-1-0.4-1-1s0.4-1,1-1C38.2,51,43,46.2,43,40.3c0-0.6,0.4-1,1-1s1,0.4,1,1
						C45,47.3,39.3,53,32.3,53z"/>
				</g>
			</g>
			<g>
				<g>
					<polyline fill="#FFAB00" points="32.7,26 35.3,28.5 32.7,31.1 					"/>
					<path fill="#37474F" d="M32.7,32.1c-0.3,0-0.5-0.1-0.7-0.3c-0.4-0.4-0.4-1,0-1.4l1.9-1.9L32,26.7c-0.4-0.4-0.4-1,0-1.4
						s1-0.4,1.4,0l2.6,2.6c0.4,0.4,0.4,1,0,1.4l-2.6,2.6C33.2,32,33,32.1,32.7,32.1z"/>
				</g>
				<g>
					<polyline fill="#FFAB00" points="31.9,54.6 29.3,52 31.9,49.5 					"/>
					<path fill="#37474F" d="M31.9,55.6c-0.3,0-0.5-0.1-0.7-0.3l-2.6-2.6c-0.2-0.2-0.3-0.4-0.3-0.7s0.1-0.5,0.3-0.7l2.6-2.6
						c0.4-0.4,1-0.4,1.4,0s0.4,1,0,1.4L30.7,52l1.9,1.9c0.4,0.4,0.4,1,0,1.4C32.4,55.5,32.1,55.6,31.9,55.6z"/>
				</g>
			</g>
		</g>
		<g>
			<line fill="#FFFFFF" x1="10" y1="16" x2="47" y2="16"/>
			<path fill="#37474F" d="M47,17H10c-0.6,0-1-0.4-1-1s0.4-1,1-1h37c0.6,0,1,0.4,1,1S47.6,17,47,17z"/>
		</g>
		<g>
			<path fill="#FFFFFF" d="M51.1,11.7c2.2,0,4,1.8,4,4s-1.8,4-4,4"/>
			<path fill="#37474F" d="M51.1,20.7c-0.6,0-1-0.4-1-1s0.4-1,1-1c1.7,0,3-1.3,3-3s-1.3-3-3-3c-0.6,0-1-0.4-1-1s0.4-1,1-1
				c2.8,0,5,2.2,5,5S53.8,20.7,51.1,20.7z"/>
		</g>
		<g>
			<path fill="#37474F" d="M11,13c-0.6,0-1-0.4-1-1V8c0-0.6,0.4-1,1-1s1,0.4,1,1v4C12,12.6,11.6,13,11,13z"/>
		</g>
		<g>
			<path fill="#37474F" d="M15,13c-0.6,0-1-0.4-1-1V8c0-0.6,0.4-1,1-1s1,0.4,1,1v4C16,12.6,15.6,13,15,13z"/>
		</g>
		<g>
			<path fill="#37474F" d="M19,13c-0.6,0-1-0.4-1-1V8c0-0.6,0.4-1,1-1s1,0.4,1,1v4C20,12.6,19.6,13,19,13z"/>
		</g>
		<g>
			<circle fill="#FFECB3" cx="30.7" cy="9.6" r="2.9"/>
			<path fill="#37474F" d="M30.7,13.5c-2.2,0-3.9-1.8-3.9-3.9s1.8-3.9,3.9-3.9s3.9,1.8,3.9,3.9S32.9,13.5,30.7,13.5z M30.7,7.7
				c-1.1,0-1.9,0.9-1.9,1.9s0.9,1.9,1.9,1.9s1.9-0.9,1.9-1.9S31.8,7.7,30.7,7.7z"/>
		</g>
		<g>
			<circle fill="#FFECB3" cx="40.5" cy="9.6" r="2.9"/>
			<path fill="#37474F" d="M40.5,13.5c-2.2,0-3.9-1.8-3.9-3.9s1.8-3.9,3.9-3.9s3.9,1.8,3.9,3.9S42.7,13.5,40.5,13.5z M40.5,7.7
				c-1.1,0-1.9,0.9-1.9,1.9s0.9,1.9,1.9,1.9s1.9-0.9,1.9-1.9S41.6,7.7,40.5,7.7z"/>
		</g>
	</g>
	<g>
		<line fill="#FFECB3" x1="3" y1="62" x2="61" y2="62"/>
		<path fill="#37474F" d="M61,63H3c-0.6,0-1-0.4-1-1s0.4-1,1-1h58c0.6,0,1,0.4,1,1S61.6,63,61,63z"/>
	</g>
</g>
</svg>
