<?xml version="1.0" encoding="utf-8"?>
<!-- Generator: Adobe Illustrator 16.0.0, SVG Export Plug-In . SVG Version: 6.00 Build 0)  -->
<!DOCTYPE svg PUBLIC "-//W3C//DTD SVG 1.1//EN" "http://www.w3.org/Graphics/SVG/1.1/DTD/svg11.dtd">
<svg version="1.1" id="Layer_1" xmlns="http://www.w3.org/2000/svg" xmlns:xlink="http://www.w3.org/1999/xlink" x="0px" y="0px"
	 width="65px" height="65px" viewBox="0 0 65 65" enable-background="new 0 0 65 65" xml:space="preserve">
<g>
	<g>
		<path fill="#FFECB3" d="M28.9,36.6l9.9-9.9c2.4-2.4,6.4-2.4,8.8,0L50,29c2.4,2.4,2.4,6.4,0,8.8"/>
		<path fill="#37474F" d="M50,38.8c-0.3,0-0.5-0.1-0.7-0.3c-0.4-0.4-0.4-1,0-1.4c2-2,2-5.4,0-7.4l-2.4-2.4c-2-2-5.4-2-7.4,0
			l-9.9,9.9c-0.4,0.4-1,0.4-1.4,0s-0.4-1,0-1.4l9.9-9.9c2.8-2.8,7.4-2.8,10.2,0l2.4,2.4c1.4,1.4,2.1,3.2,2.1,5.1
			c0,1.9-0.8,3.8-2.1,5.1C50.5,38.7,50.3,38.8,50,38.8z"/>
	</g>
	<g>
		<path fill="#FFECB3" d="M35.2,30.4l-9.9,9.9c-2.4,2.4-6.4,2.4-8.8,0l-2.4-2.4c-2.4-2.4-2.4-6.4,0-8.8"/>
		<path fill="#37474F" d="M20.9,43.1c-1.9,0-3.7-0.7-5.1-2.1l-2.4-2.4c-2.8-2.8-2.8-7.4,0-10.2c0.4-0.4,1-0.4,1.4,0s0.4,1,0,1.4
			c-2,2-2,5.4,0,7.4l2.4,2.4c2,2,5.4,2,7.4,0l9.9-9.9c0.4-0.4,1-0.4,1.4,0c0.4,0.4,0.4,1,0,1.4L26,41C24.6,42.4,22.7,43.1,20.9,43.1
			z"/>
	</g>
	<g>
		
			<rect x="26.2" y="41.9" transform="matrix(0.7071 -0.7071 0.7071 0.7071 -23.5709 41.8018)" fill="#FFAB00" width="24.9" height="14.9"/>
		<path fill="#37474F" d="M35.1,64.4c-0.3,0-0.5-0.1-0.7-0.3L23.9,53.6c-0.4-0.4-0.4-1,0-1.4l17.6-17.6c0.4-0.4,1-0.4,1.4,0
			l10.5,10.5c0.4,0.4,0.4,1,0,1.4L35.8,64.1C35.6,64.3,35.4,64.4,35.1,64.4z M26,52.9l9.1,9.1l16.2-16.2l-9.1-9.1L26,52.9z"/>
	</g>
	<g>
		<circle fill="#FFECB3" cx="22.2" cy="22" r="9.6"/>
		<path fill="#37474F" d="M22.2,32.7c-5.9,0-10.6-4.8-10.6-10.6c0-5.9,4.8-10.6,10.6-10.6c5.9,0,10.6,4.8,10.6,10.6
			C32.8,27.9,28,32.7,22.2,32.7z M22.2,13.4c-4.8,0-8.6,3.9-8.6,8.6c0,4.8,3.9,8.6,8.6,8.6c4.8,0,8.6-3.9,8.6-8.6
			C30.8,17.3,26.9,13.4,22.2,13.4z"/>
	</g>
	<g>
		<circle fill="#FFFFFF" cx="20.4" cy="23.8" r="2.8"/>
		<path fill="#37474F" d="M20.4,27.6c-2.1,0-3.8-1.7-3.8-3.8s1.7-3.8,3.8-3.8s3.8,1.7,3.8,3.8S22.5,27.6,20.4,27.6z M20.4,22
			c-1,0-1.8,0.8-1.8,1.8s0.8,1.8,1.8,1.8s1.8-0.8,1.8-1.8S21.4,22,20.4,22z"/>
	</g>
	<g>
		<polyline fill="#FFECB3" points="22.8,13.1 33.6,2.4 42.6,1.6 41.8,10.6 31,21.3 		"/>
		<path fill="#37474F" d="M31,22.3c-0.3,0-0.5-0.1-0.7-0.3c-0.4-0.4-0.4-1,0-1.4l10.5-10.5l0.7-7.5L34,3.4L23.6,13.8
			c-0.4,0.4-1,0.4-1.4,0s-0.4-1,0-1.4L32.9,1.7c0.2-0.2,0.4-0.3,0.6-0.3l9-0.8c0.3,0,0.6,0.1,0.8,0.3c0.2,0.2,0.3,0.5,0.3,0.8
			l-0.8,9c0,0.2-0.1,0.5-0.3,0.6L31.8,22C31.6,22.2,31.3,22.3,31,22.3z"/>
	</g>
	<g>
		<line fill="#FFECB3" x1="28.1" y1="16.9" x2="35.6" y2="9.4"/>
		<path fill="#37474F" d="M28.1,17.9c-0.3,0-0.5-0.1-0.7-0.3c-0.4-0.4-0.4-1,0-1.4l7.5-7.5c0.4-0.4,1-0.4,1.4,0s0.4,1,0,1.4
			l-7.5,7.5C28.6,17.8,28.4,17.9,28.1,17.9z"/>
	</g>
	<g>
		<line fill="#FFECB3" x1="34.8" y1="7.3" x2="37.5" y2="10"/>
		<path fill="#37474F" d="M37.5,11c-0.3,0-0.5-0.1-0.7-0.3L34.1,8c-0.4-0.4-0.4-1,0-1.4s1-0.4,1.4,0l2.7,2.7c0.4,0.4,0.4,1,0,1.4
			C38.1,11,37.8,11,37.5,11z"/>
	</g>
	<g>
		<line fill="#FFECB3" x1="32.6" y1="59.4" x2="49.2" y2="42.9"/>
		<path fill="#37474F" d="M32.6,60.4c-0.3,0-0.5-0.1-0.7-0.3c-0.4-0.4-0.4-1,0-1.4l16.5-16.5c0.4-0.4,1-0.4,1.4,0s0.4,1,0,1.4
			L33.3,60.1C33.1,60.3,32.9,60.4,32.6,60.4z"/>
	</g>
</g>
</svg>
