<?xml version="1.0" encoding="utf-8"?>
<!-- Generator: Adobe Illustrator 16.0.0, SVG Export Plug-In . SVG Version: 6.00 Build 0)  -->
<!DOCTYPE svg PUBLIC "-//W3C//DTD SVG 1.1//EN" "http://www.w3.org/Graphics/SVG/1.1/DTD/svg11.dtd">
<svg version="1.1" id="Layer_1" xmlns="http://www.w3.org/2000/svg" xmlns:xlink="http://www.w3.org/1999/xlink" x="0px" y="0px"
	 width="32px" height="32px" viewBox="0 0 32 32" enable-background="new 0 0 32 32" xml:space="preserve">
<g>
	<g>
		<g>
			<path fill="#FFAB00" d="M25.3,4.6c0-1.3-1.4-2.4-3.2-2.4c-1,0-1.8,0.3-2.4,0.9c-0.6-0.5-1.5-0.9-2.4-0.9c-1.8,0-3.4,1.1-3.4,2.4
				c0,0.6,0.6,1.1,0.6,1.6v6.4h10V6.1C25.5,5.7,25.3,5.2,25.3,4.6z"/>
			<path fill="#37474F" d="M24.5,13.1h-10c-0.3,0-0.5-0.2-0.5-0.5V6.1c0-0.1-0.1-0.3-0.2-0.4c-0.2-0.3-0.4-0.7-0.4-1.2
				c0-1.6,1.8-2.9,3.9-2.9c0.9,0,1.8,0.3,2.4,0.7c0.7-0.5,1.5-0.7,2.4-0.7c2.1,0,3.7,1.3,3.7,2.9l0,0.2c0,0.5,0,1.2-0.8,1.7v6.1
				C25,12.8,24.8,13.1,24.5,13.1z M15,12.1h9V6.1c0-0.2,0.1-0.4,0.3-0.5c0.6-0.2,0.5-0.4,0.5-0.9l0-0.2c0-1.1-1.2-1.9-2.7-1.9
				c-0.8,0-1.6,0.3-2.1,0.7c-0.2,0.2-0.5,0.2-0.7,0c-0.5-0.5-1.3-0.7-2.1-0.7c-1.5,0-2.9,0.9-2.9,1.9c0,0.2,0.1,0.4,0.3,0.7
				C14.8,5.5,15,5.8,15,6.1V12.1z"/>
		</g>
	</g>
	<g>
		<g>
			<rect x="5.5" y="28.6" fill="#B0BEC5" width="3" height="2"/>
			<path fill="#37474F" d="M8.5,31.1h-3c-0.3,0-0.5-0.2-0.5-0.5v-2c0-0.3,0.2-0.5,0.5-0.5h3c0.3,0,0.5,0.2,0.5,0.5v2
				C9,30.8,8.8,31.1,8.5,31.1z M6,30.1h2v-1H6V30.1z"/>
		</g>
		<g>
			<rect x="22.5" y="28.6" fill="#B0BEC5" width="3" height="2"/>
			<path fill="#37474F" d="M25.5,31.1h-3c-0.3,0-0.5-0.2-0.5-0.5v-2c0-0.3,0.2-0.5,0.5-0.5h3c0.3,0,0.5,0.2,0.5,0.5v2
				C26,30.8,25.8,31.1,25.5,31.1z M23,30.1h2v-1h-2V30.1z"/>
		</g>
	</g>
	<g>
		<polygon fill="#FFFFFF" points="29.3,28.6 1.8,28.6 5.7,12.6 25.4,12.6 		"/>
		<path fill="#37474F" d="M29.3,29.1C29.3,29.1,29.3,29.1,29.3,29.1H1.8c-0.2,0-0.3-0.1-0.4-0.2c-0.1-0.1-0.1-0.3-0.1-0.4l3.9-16
			c0.1-0.2,0.3-0.4,0.5-0.4h19.7c0.2,0,0.4,0.2,0.5,0.4l3.9,15.9c0,0.1,0.1,0.2,0.1,0.2C29.8,28.8,29.6,29.1,29.3,29.1z M2.4,28.1
			h26.3l-3.7-15H6.1L2.4,28.1z"/>
	</g>
	<g>
		<g>
			<path fill="#FFECB3" d="M22.3,4.5c0-1.7-1.9-3.1-4.2-3.1c-1.3,0-2.4,0.4-3.2,1.1c-0.8-0.7-1.9-1.1-3.1-1.1
				c-2.3,0-4.2,1.4-4.2,3.1c0,0.8,0.9,1.5,0.9,2v9.1h13V6.5C21.5,6,22.3,5.3,22.3,4.5z"/>
			<path fill="#37474F" d="M21.5,16.1h-13c-0.3,0-0.5-0.2-0.5-0.5V6.5C8,6.4,7.8,6.1,7.7,6C7.4,5.6,7.1,5.1,7.1,4.5
				c0-2,2.1-3.6,4.7-3.6c1.2,0,2.3,0.3,3.1,1c0.9-0.6,2-1,3.2-1c2.6,0,4.7,1.6,4.7,3.6c0,0.6-0.3,1-0.5,1.4C22.2,6.1,22,6.4,22,6.5
				v9.1C22,15.8,21.8,16.1,21.5,16.1z M9,15.1h12V6.5c0-0.4,0.2-0.7,0.4-1.1c0.2-0.3,0.4-0.6,0.4-0.9c0-1.4-1.7-2.6-3.7-2.6
				c-1.1,0-2.2,0.4-2.8,1c-0.2,0.2-0.5,0.2-0.7,0c-0.7-0.6-1.7-1-2.8-1c-2,0-3.7,1.2-3.7,2.6c0,0.3,0.2,0.6,0.4,0.9
				C8.8,5.8,9,6.1,9,6.5V15.1z"/>
		</g>
	</g>
	<g>
		<polyline fill="#FFAB00" points="8,15.6 23.5,15.6 23.5,17.1 		"/>
		<path fill="#37474F" d="M23.5,17.6c-0.3,0-0.5-0.2-0.5-0.5v-1H8c-0.3,0-0.5-0.2-0.5-0.5s0.2-0.5,0.5-0.5h15.5
			c0.3,0,0.5,0.2,0.5,0.5v1.5C24,17.3,23.8,17.6,23.5,17.6z"/>
	</g>
	<g>
		<rect x="1.5" y="27.6" fill="#78909C" width="28" height="2"/>
		<path fill="#37474F" d="M30,30.1H1v-3h29V30.1z M2,29.1h27v-1H2V29.1z"/>
	</g>
	<g>
		<g>
			<path fill="#37474F" d="M17.6,21.1c0-0.2,0.2-0.3,0.3-0.3c0.2,0,0.4,0.2,0.3,0.3c0,0.2-0.2,0.3-0.3,0.3
				C17.8,21.5,17.6,21.3,17.6,21.1z"/>
			<path fill="#37474F" d="M18,22c-0.5,0-0.8-0.4-0.8-0.8c0-0.5,0.4-0.8,0.8-0.8c0.2,0,0.5,0.1,0.6,0.3c0.2,0.2,0.2,0.4,0.2,0.6
				C18.8,21.6,18.4,22,18,22z M18,21c-0.1,0-0.2,0.1-0.2,0.2c0,0,0,0.1,0,0.1c0.1,0.1,0.3,0,0.3-0.1C18.1,21,18.1,21,18,21z"/>
		</g>
		<g>
			<path fill="#37474F" d="M15.2,21.1c0-0.2,0.2-0.3,0.3-0.3c0.2,0,0.3,0.2,0.4,0.3c0,0.2-0.2,0.3-0.4,0.3
				C15.4,21.5,15.2,21.3,15.2,21.1z"/>
			<path fill="#37474F" d="M15.5,22c-0.5,0-0.8-0.4-0.8-0.8c0-0.2,0.1-0.4,0.2-0.6c0.2-0.2,0.4-0.3,0.6-0.3c0.5,0,0.8,0.4,0.9,0.8
				C16.4,21.6,16,22,15.5,22z M15.5,21c-0.1,0-0.1,0.1-0.1,0.1c0,0.2,0.2,0.2,0.3,0.1c0,0,0-0.1,0-0.1C15.7,21,15.6,21,15.5,21z"/>
		</g>
		<g>
			<path fill="#37474F" d="M12.8,21.1c0-0.2,0.2-0.3,0.3-0.3c0.2,0,0.3,0.2,0.3,0.3c0,0.2-0.2,0.3-0.3,0.3
				C12.9,21.5,12.8,21.3,12.8,21.1z"/>
			<path fill="#37474F" d="M13.1,22c-0.5,0-0.8-0.4-0.8-0.8c0-0.5,0.4-0.8,0.8-0.8c0.5,0,0.8,0.4,0.8,0.8C14,21.6,13.6,22,13.1,22z
				 M13.1,21C13,21,13,21,13,21.1c0,0.2,0.3,0.2,0.3,0C13.3,21,13.2,21,13.1,21z"/>
		</g>
	</g>
	<g>
		<path fill="#FFAB00" d="M10.8,21c0,1.1-0.9,2.1-2.1,2.1c-1.1,0-2.1-0.9-2.1-2.1c0-1.1,0.9-2.1,2.1-2.1C9.9,18.9,10.8,19.9,10.8,21
			z"/>
		<path fill="#37474F" d="M8.8,23.5c-1.4,0-2.6-1.1-2.6-2.6c0-1.4,1.1-2.6,2.6-2.6c1.4,0,2.6,1.1,2.6,2.6
			C11.3,22.4,10.2,23.5,8.8,23.5z M8.8,19.4c-0.9,0-1.6,0.7-1.6,1.6c0,0.9,0.7,1.6,1.6,1.6c0.9,0,1.6-0.7,1.6-1.6
			C10.3,20.1,9.6,19.4,8.8,19.4z"/>
	</g>
	<g>
		<line fill="#FFECB3" x1="28" y1="19.6" x2="29" y2="19.6"/>
		<path fill="#37474F" d="M29,20.1h-1c-0.3,0-0.5-0.2-0.5-0.5s0.2-0.5,0.5-0.5h1c0.3,0,0.5,0.2,0.5,0.5S29.3,20.1,29,20.1z"/>
	</g>
	<g>
		<rect x="28.5" y="17.6" fill="#FFECB3" width="2" height="4"/>
		<path fill="#37474F" d="M30.5,22.1h-2c-0.3,0-0.5-0.2-0.5-0.5v-4c0-0.3,0.2-0.5,0.5-0.5h2c0.3,0,0.5,0.2,0.5,0.5v4
			C31,21.8,30.8,22.1,30.5,22.1z M29,21.1h1v-3h-1V21.1z"/>
	</g>
</g>
</svg>
