<?xml version="1.0" encoding="utf-8"?>
<!-- Generator: Adobe Illustrator 16.0.0, SVG Export Plug-In . SVG Version: 6.00 Build 0)  -->
<!DOCTYPE svg PUBLIC "-//W3C//DTD SVG 1.1//EN" "http://www.w3.org/Graphics/SVG/1.1/DTD/svg11.dtd">
<svg version="1.1" id="Layer_1" xmlns="http://www.w3.org/2000/svg" xmlns:xlink="http://www.w3.org/1999/xlink" x="0px" y="0px"
	 width="128px" height="128px" viewBox="0 0 128 128" enable-background="new 0 0 128 128" xml:space="preserve">
<g>
	<g>
		<g>
			<path fill="#FFAB00" d="M30.1,56.4c3.6,0,6.5,2.9,6.5,6.6v20.4c0,3.6-2.9,6.6-6.5,6.6l0,0c-3.6,0-6.5-2.9-6.5-6.6V63
				C23.6,59.4,26.5,56.4,30.1,56.4L30.1,56.4z"/>
			<path fill="#37474F" d="M30.1,91.5c-4.4,0-8-3.6-8-8.1V63c0-4.5,3.6-8.1,8-8.1c4.4,0,8,3.6,8,8.1v20.4
				C38.1,87.9,34.6,91.5,30.1,91.5z M30.1,57.9c-2.8,0-5,2.2-5,5.1v20.4c0,2.8,2.2,5.1,5,5.1c2.8,0,5-2.2,5-5.1V63
				C35.1,60.2,32.9,57.9,30.1,57.9z"/>
		</g>
		<g>
			<polygon fill="#FFFFFF" points="46.2,126 14.1,126 18.7,71 41.6,71 			"/>
			<path fill="#37474F" d="M46.2,127.5C46.2,127.5,46.2,127.5,46.2,127.5H14.1c-0.4,0-0.8-0.2-1.1-0.5s-0.4-0.7-0.4-1.1l4.6-55
				c0.1-0.8,0.7-1.4,1.5-1.4h22.9c0.8,0,1.4,0.6,1.5,1.4l4.5,54.8c0,0.1,0,0.2,0,0.4C47.7,126.8,47,127.5,46.2,127.5z M15.7,124.5
				h28.8l-4.3-52H20.1L15.7,124.5z"/>
		</g>
		<g>
			<path fill="#FFAB00" d="M46.9,68.5c0,3.6-2.9,6.5-6.6,6.5H20c-3.6,0-6.6-2.9-6.6-6.5l0,0c0-3.6,3-6.5,6.6-6.5h20.4
				C44,62,46.9,64.9,46.9,68.5L46.9,68.5z"/>
			<path fill="#37474F" d="M40.3,76.5H20c-4.5,0-8.1-3.6-8.1-8c0-4.4,3.6-8,8.1-8h20.4c4.5,0,8.1,3.6,8.1,8
				C48.4,72.9,44.8,76.5,40.3,76.5z M20,63.5c-2.9,0-5.1,2.2-5.1,5c0,2.8,2.2,5,5.1,5h20.4c2.9,0,5.1-2.2,5.1-5c0-2.8-2.2-5-5.1-5
				H20z"/>
		</g>
		<g>
			<g>
				<path fill="#37474F" d="M30.2,87.4c-0.8,0-1.5-0.7-1.5-1.5c0-0.8,0.7-1.5,1.5-1.5c0.8,0,1.5,0.7,1.5,1.5
					C31.6,86.7,30.9,87.4,30.2,87.4z"/>
				<path fill="#37474F" d="M30.2,87.9c-1.1,0-2-0.9-2-1.9c0-0.5,0.2-1,0.5-1.4c0.4-0.4,0.9-0.6,1.4-0.6c1.1,0,2,0.9,2,2
					c0,0.5-0.2,1-0.5,1.4C31.2,87.6,30.7,87.9,30.2,87.9z M30.1,84.9c-0.3,0-0.5,0.1-0.7,0.3c-0.2,0.2-0.3,0.4-0.3,0.7
					c0,0.5,0.5,1,1,1c0.3,0,0.5-0.1,0.7-0.3c0.2-0.2,0.3-0.4,0.3-0.6C31.1,85.3,30.7,84.9,30.1,84.9C30.1,84.9,30.1,84.9,30.1,84.9z
					"/>
			</g>
			<g>
				<path fill="#37474F" d="M30.1,97.7c-0.8,0-1.5-0.7-1.5-1.5c0-0.9,0.7-1.5,1.5-1.5c0.8,0,1.5,0.7,1.5,1.5
					C31.6,97.1,30.9,97.7,30.1,97.7z"/>
				<path fill="#37474F" d="M30.1,98.2c-1,0-1.9-0.9-1.9-2c0-1.1,0.9-2,2-2c1.1,0,2,0.9,2,2C32.1,97.4,31.2,98.2,30.1,98.2
					L30.1,98.2z M30.2,95.3c-0.6,0-1,0.4-1,1c0,0.5,0.4,1,0.9,1v0.5l0-0.5c0.6,0,1-0.4,1-1C31.1,95.7,30.7,95.3,30.2,95.3z"/>
			</g>
			<g>
				<path fill="#37474F" d="M30.2,108.1c-0.8,0-1.5-0.7-1.5-1.5c0-0.8,0.7-1.5,1.5-1.5c0.8,0,1.5,0.7,1.5,1.5
					C31.6,107.4,31,108.1,30.2,108.1z"/>
				<path fill="#37474F" d="M30.2,108.6c-1.1,0-2-0.9-2-2c0-1.1,0.9-2,2-2c0.5,0,1,0.2,1.4,0.6c0.4,0.4,0.6,0.9,0.5,1.4
					c0,0.5-0.2,1-0.6,1.4C31.2,108.4,30.7,108.6,30.2,108.6z M30.2,105.6c-0.5,0-1,0.5-1,1c0,0.5,0.5,1,1,1c0.3,0,0.5-0.1,0.7-0.3
					c0.2-0.2,0.3-0.4,0.3-0.7c0-0.3-0.1-0.5-0.3-0.7C30.7,105.7,30.4,105.6,30.2,105.6z"/>
			</g>
		</g>
		<g>
			<line fill="#78909C" x1="16.1" y1="118" x2="44.1" y2="118"/>
			<path fill="#37474F" d="M44.1,119.5h-28c-0.8,0-1.5-0.7-1.5-1.5s0.7-1.5,1.5-1.5h28c0.8,0,1.5,0.7,1.5,1.5S45,119.5,44.1,119.5z"
				/>
		</g>
	</g>
	<g>
		<path fill="#78909C" d="M102.6,31.4v-23c0-2.8-2-5.4-4.7-5.4h-4.4c-2.8,0-4.8,2.6-4.8,5.4v23c-7,0.8-12,6.1-12,12.8v68.4
			c0,7.3,6,13.4,13.3,13.4h11.5c7.3,0,13.2-6.2,13.2-13.4V44.2C114.6,37.5,109.6,32.2,102.6,31.4z"/>
		<path fill="#37474F" d="M101.4,127.5H89.9c-8,0-14.8-6.8-14.8-14.9V44.2c0-7,5-12.7,12-14.1V8.4c0-3.8,2.8-6.9,6.3-6.9h4.4
			c3.4,0,6.2,3.1,6.2,6.9v21.7c7,1.4,12,7.1,12,14.1v68.4C116.1,120.7,109.4,127.5,101.4,127.5z M93.5,4.5c-2,0-3.3,2-3.3,3.9v23
			c0,0.8-0.6,1.4-1.3,1.5c-6.3,0.7-10.7,5.4-10.7,11.3v68.4c0,6.5,5.4,11.9,11.8,11.9h11.5c6.3,0,11.7-5.5,11.7-11.9V44.2
			c0-6-4.4-10.6-10.7-11.3c-0.8-0.1-1.3-0.7-1.3-1.5v-23c0-1.9-1.2-3.9-3.2-3.9H93.5z"/>
	</g>
	<g>
		<path fill="#FFAB00" d="M106.6,6c0,2.2-1.8,4-4,4h-13c-2.2,0-4-1.8-4-4l0,0c0-2.2,1.8-4,4-4h13C104.8,2,106.6,3.8,106.6,6L106.6,6
			z"/>
		<path fill="#37474F" d="M102.6,11.5h-13c-3,0-5.5-2.5-5.5-5.5s2.5-5.5,5.5-5.5h13c3,0,5.5,2.5,5.5,5.5S105.7,11.5,102.6,11.5z
			 M89.6,3.5c-1.4,0-2.5,1.1-2.5,2.5s1.1,2.5,2.5,2.5h13c1.4,0,2.5-1.1,2.5-2.5s-1.1-2.5-2.5-2.5H89.6z"/>
	</g>
	<g>
		<path fill="#37474F" d="M77.3,41c-0.2,1-0.7,2.2-0.7,3.2v68.4c0,7.3,6,13.4,13.3,13.4h11.5c7.3,0,13.2-6.2,13.2-13.4V44.2
			c0-1-0.4-2.2-0.6-3.2H77.3z"/>
		<path fill="#37474F" d="M101.4,127.5H89.9c-8,0-14.8-6.8-14.8-14.9V44.2c0-0.9,0.3-1.8,0.5-2.6c0.1-0.3,0.2-0.6,0.2-0.9
			c0.2-0.7,0.8-1.2,1.5-1.2H114c0.7,0,1.3,0.5,1.5,1.2c0.1,0.3,0.1,0.6,0.2,0.9c0.2,0.8,0.4,1.8,0.4,2.7v68.4
			C116.1,120.7,109.4,127.5,101.4,127.5z M78.5,42.5c-0.2,0.6-0.4,1.3-0.4,1.7v68.4c0,6.5,5.4,11.9,11.8,11.9h11.5
			c6.3,0,11.7-5.5,11.7-11.9V44.2c0-0.5-0.1-1.1-0.3-1.7H78.5z"/>
	</g>
	<g>
		<g>
			<path fill="#FFECB3" d="M68.6,83.5c0,3.6-2.9,6.5-6.5,6.5l0,0c-3.6,0-6.5-2.9-6.5-6.5v-21c0-3.6,2.9-6.5,6.5-6.5l0,0
				c3.6,0,6.5,2.9,6.5,6.5V83.5z"/>
			<path fill="#37474F" d="M62.1,91.5c-4.4,0-8-3.6-8-8v-21c0-4.4,3.6-8,8-8s8,3.6,8,8v21C70.1,87.9,66.6,91.5,62.1,91.5z
				 M62.1,57.5c-2.8,0-5,2.2-5,5v21c0,2.8,2.2,5,5,5s5-2.2,5-5v-21C67.1,59.7,64.9,57.5,62.1,57.5z"/>
		</g>
		<g>
			<polygon fill="#FFFFFF" points="77.9,126 45.8,126 50.4,71 73.3,71 			"/>
			<path fill="#37474F" d="M77.9,127.5C77.9,127.5,77.9,127.5,77.9,127.5H45.8c-0.4,0-0.8-0.2-1.1-0.5s-0.4-0.7-0.4-1.1l4.6-55
				c0.1-0.8,0.7-1.4,1.5-1.4h22.9c0.8,0,1.4,0.6,1.5,1.4l4.5,54.8c0,0.1,0,0.2,0,0.4C79.4,126.8,78.7,127.5,77.9,127.5z M47.5,124.5
				h28.8l-4.3-52H51.8L47.5,124.5z"/>
		</g>
		<g>
			<path fill="#FFECB3" d="M78.6,68.5c0,3.6-2.9,6.5-6.6,6.5H51.7c-3.6,0-6.6-2.9-6.6-6.5l0,0c0-3.6,2.9-6.5,6.6-6.5h20.4
				C75.7,62,78.6,64.9,78.6,68.5L78.6,68.5z"/>
			<path fill="#37474F" d="M72.1,76.5H51.7c-4.5,0-8.1-3.6-8.1-8c0-4.4,3.6-8,8.1-8h20.4c4.5,0,8.1,3.6,8.1,8
				C80.1,72.9,76.5,76.5,72.1,76.5z M51.7,63.5c-2.9,0-5.1,2.2-5.1,5c0,2.8,2.2,5,5.1,5h20.4c2.9,0,5.1-2.2,5.1-5c0-2.8-2.2-5-5.1-5
				H51.7z"/>
		</g>
		<g>
			<g>
				<path fill="#37474F" d="M61.9,87.4c-0.8,0-1.5-0.7-1.5-1.5c0-0.8,0.7-1.5,1.5-1.5c0.8,0,1.5,0.7,1.5,1.5
					C63.3,86.7,62.7,87.4,61.9,87.4z"/>
				<path fill="#37474F" d="M61.9,87.9c-1.1,0-2-0.9-2-1.9c0-0.5,0.2-1,0.5-1.4c0.4-0.4,0.9-0.6,1.4-0.6c1.1,0,2,0.9,2,2
					c0,0.5-0.2,1-0.5,1.4C62.9,87.6,62.4,87.9,61.9,87.9z M61.9,84.9c-0.3,0-0.5,0.1-0.7,0.3c-0.2,0.2-0.3,0.4-0.3,0.7
					c0,0.5,0.5,1,1,1c0.3,0,0.5-0.1,0.7-0.3c0.2-0.2,0.3-0.4,0.3-0.6C62.8,85.3,62.4,84.9,61.9,84.9C61.9,84.9,61.9,84.9,61.9,84.9z
					"/>
			</g>
			<g>
				<path fill="#37474F" d="M61.8,97.7c-0.8,0-1.5-0.7-1.5-1.5c0-0.9,0.7-1.5,1.5-1.5c0.8,0,1.5,0.7,1.5,1.5
					C63.3,97.1,62.7,97.7,61.8,97.7z"/>
				<path fill="#37474F" d="M61.8,98.2c-1,0-1.9-0.9-1.9-2c0-1.1,0.9-2,2-2c1.1,0,2,0.9,2,2C63.8,97.4,62.9,98.2,61.8,98.2
					L61.8,98.2z M61.9,95.3c-0.6,0-1,0.4-1,1c0,0.5,0.4,1,0.9,1v0.5l0-0.5c0.6,0,1-0.4,1-1C62.8,95.7,62.4,95.3,61.9,95.3z"/>
			</g>
			<g>
				<path fill="#37474F" d="M61.9,108.1c-0.8,0-1.5-0.7-1.5-1.5c0-0.8,0.7-1.5,1.5-1.5c0.8,0,1.5,0.7,1.5,1.5
					C63.3,107.4,62.7,108.1,61.9,108.1z"/>
				<path fill="#37474F" d="M61.9,108.6c-1.1,0-2-0.9-2-2c0-1.1,0.9-2,2-2c0.5,0,1,0.2,1.4,0.6c0.4,0.4,0.6,0.9,0.5,1.4
					c0,0.5-0.2,1-0.6,1.4C62.9,108.4,62.4,108.6,61.9,108.6z M61.9,105.6c-0.5,0-1,0.5-1,1c0,0.5,0.5,1,1,1c0.3,0,0.5-0.1,0.7-0.3
					c0.2-0.2,0.3-0.4,0.3-0.7c0-0.3-0.1-0.5-0.3-0.7C62.4,105.7,62.1,105.6,61.9,105.6z"/>
			</g>
		</g>
		<g>
			<line fill="#78909C" x1="48.1" y1="118" x2="76.1" y2="118"/>
			<path fill="#37474F" d="M76.1,119.5h-28c-0.8,0-1.5-0.7-1.5-1.5s0.7-1.5,1.5-1.5h28c0.8,0,1.5,0.7,1.5,1.5S77,119.5,76.1,119.5z"
				/>
		</g>
	</g>
	<g>
		<rect x="92.6" y="60" fill="#FFFFFF" width="22" height="38"/>
		<path fill="#37474F" d="M114.6,99.5h-22c-0.8,0-1.5-0.7-1.5-1.5V60c0-0.8,0.7-1.5,1.5-1.5h22c0.8,0,1.5,0.7,1.5,1.5v38
			C116.1,98.8,115.5,99.5,114.6,99.5z M94.1,96.5h19v-35h-19V96.5z"/>
	</g>
	<g>
		<rect x="98.6" y="65" fill="#FFFFFF" width="16" height="27"/>
		<path fill="#37474F" d="M114.6,93.5h-16c-0.8,0-1.5-0.7-1.5-1.5V65c0-0.8,0.7-1.5,1.5-1.5h16c0.8,0,1.5,0.7,1.5,1.5v27
			C116.1,92.8,115.5,93.5,114.6,93.5z M100.1,90.5h13v-24h-13V90.5z"/>
	</g>
</g>
</svg>
