<?xml version="1.0" encoding="utf-8"?>
<!-- Generator: Adobe Illustrator 16.0.0, SVG Export Plug-In . SVG Version: 6.00 Build 0)  -->
<!DOCTYPE svg PUBLIC "-//W3C//DTD SVG 1.1//EN" "http://www.w3.org/Graphics/SVG/1.1/DTD/svg11.dtd">
<svg version="1.1" id="Layer_1" xmlns="http://www.w3.org/2000/svg" xmlns:xlink="http://www.w3.org/1999/xlink" x="0px" y="0px"
	 width="32px" height="32px" viewBox="0 0 32 32" enable-background="new 0 0 32 32" xml:space="preserve">
<g>
	<g>
		<rect x="8.3" y="5" fill="#FFECB3" width="15" height="19"/>
		<path fill="#37474F" d="M23.3,24.5h-15c-0.3,0-0.5-0.2-0.5-0.5V5c0-0.3,0.2-0.5,0.5-0.5h15c0.3,0,0.5,0.2,0.5,0.5v19
			C23.8,24.3,23.6,24.5,23.3,24.5z M8.8,23.5h14v-18h-14V23.5z"/>
	</g>
	<g>
		<rect x="8.3" y="9" fill="#FFAB00" width="7" height="3"/>
		<path fill="#37474F" d="M15.3,12.5h-7c-0.3,0-0.5-0.2-0.5-0.5V9c0-0.3,0.2-0.5,0.5-0.5h7c0.3,0,0.5,0.2,0.5,0.5v3
			C15.8,12.3,15.6,12.5,15.3,12.5z M8.8,11.5h6v-2h-6V11.5z"/>
	</g>
	<g>
		<rect x="8.3" y="15" fill="#FFAB00" width="7" height="3"/>
		<path fill="#37474F" d="M15.3,18.5h-7c-0.3,0-0.5-0.2-0.5-0.5v-3c0-0.3,0.2-0.5,0.5-0.5h7c0.3,0,0.5,0.2,0.5,0.5v3
			C15.8,18.3,15.6,18.5,15.3,18.5z M8.8,17.5h6v-2h-6V17.5z"/>
	</g>
	<g>
		<rect x="21.3" y="15" fill="#FFAB00" width="2" height="3"/>
		<path fill="#37474F" d="M23.3,18.5h-2c-0.3,0-0.5-0.2-0.5-0.5v-3c0-0.3,0.2-0.5,0.5-0.5h2c0.3,0,0.5,0.2,0.5,0.5v3
			C23.8,18.3,23.6,18.5,23.3,18.5z M21.8,17.5h1v-2h-1V17.5z"/>
	</g>
	<g>
		<rect x="15.3" y="9" fill="#FFECB3" width="6" height="3"/>
		<path fill="#37474F" d="M21.3,12.5h-6c-0.3,0-0.5-0.2-0.5-0.5V9c0-0.3,0.2-0.5,0.5-0.5h6c0.3,0,0.5,0.2,0.5,0.5v3
			C21.8,12.3,21.6,12.5,21.3,12.5z M15.8,11.5h5v-2h-5V11.5z"/>
	</g>
	<g>
		<rect x="21.3" y="9" fill="#FFAB00" width="2" height="3"/>
		<path fill="#37474F" d="M23.3,12.5h-2c-0.3,0-0.5-0.2-0.5-0.5V9c0-0.3,0.2-0.5,0.5-0.5h2c0.3,0,0.5,0.2,0.5,0.5v3
			C23.8,12.3,23.6,12.5,23.3,12.5z M21.8,11.5h1v-2h-1V11.5z"/>
	</g>
	<g>
		<g>
			<rect x="12.3" y="5" fill="#FFAB00" width="6" height="3"/>
			<path fill="#37474F" d="M18.3,8.5h-6c-0.3,0-0.5-0.2-0.5-0.5V5c0-0.3,0.2-0.5,0.5-0.5h6c0.3,0,0.5,0.2,0.5,0.5v3
				C18.8,8.3,18.6,8.5,18.3,8.5z M12.8,7.5h5v-2h-5V7.5z"/>
		</g>
		<g>
			<rect x="12.3" y="12" fill="#FFECB3" width="6" height="3"/>
			<path fill="#37474F" d="M18.3,15.5h-6c-0.3,0-0.5-0.2-0.5-0.5v-3c0-0.3,0.2-0.5,0.5-0.5h6c0.3,0,0.5,0.2,0.5,0.5v3
				C18.8,15.3,18.6,15.5,18.3,15.5z M12.8,14.5h5v-2h-5V14.5z"/>
		</g>
		<g>
			<rect x="18.3" y="12" fill="#FFAB00" width="5" height="3"/>
			<path fill="#37474F" d="M23.3,15.5h-5c-0.3,0-0.5-0.2-0.5-0.5v-3c0-0.3,0.2-0.5,0.5-0.5h5c0.3,0,0.5,0.2,0.5,0.5v3
				C23.8,15.3,23.6,15.5,23.3,15.5z M18.8,14.5h4v-2h-4V14.5z"/>
		</g>
		<g>
			<rect x="9.3" y="12" fill="#FFAB00" width="3" height="3"/>
			<path fill="#37474F" d="M12.3,15.5h-3c-0.3,0-0.5-0.2-0.5-0.5v-3c0-0.3,0.2-0.5,0.5-0.5h3c0.3,0,0.5,0.2,0.5,0.5v3
				C12.8,15.3,12.6,15.5,12.3,15.5z M9.8,14.5h2v-2h-2V14.5z"/>
		</g>
	</g>
	<g>
		<rect x="5.3" y="1" fill="#FFFFFF" width="21" height="4"/>
		<path fill="#37474F" d="M26.3,5.5h-21C5,5.5,4.8,5.3,4.8,5V1c0-0.3,0.2-0.5,0.5-0.5h21c0.3,0,0.5,0.2,0.5,0.5v4
			C26.8,5.3,26.6,5.5,26.3,5.5z M5.8,4.5h20v-3h-20V4.5z"/>
	</g>
	<g>
		<path fill="#B0BEC5" d="M29.1,31c0.1,0,0.2-1,0.2-1.7c0-7.4-6-13.2-13.3-13.2c-7.4,0-13.3,5.8-13.3,13.1c0,0.6,0.1,1.7,0.2,1.7
			H29.1z"/>
		<path fill="#37474F" d="M29.1,31.5H2.9c-0.3,0-0.7,0-0.7-2.2c0-7.5,6.2-13.6,13.8-13.6s13.8,6.1,13.8,13.7
			C29.8,31.5,29.4,31.5,29.1,31.5z M3.3,30.5h25.5c0-0.3,0.1-0.8,0.1-1.2c0-7-5.7-12.7-12.8-12.7S3.2,22.3,3.2,29.2
			C3.2,29.6,3.2,30.2,3.3,30.5z"/>
	</g>
	<g>
		<path fill="#37474F" d="M22.1,31c0,0,0.1-0.4,0.1-0.7c0-3.4-2.8-6.1-6.2-6.1c-3.4,0-6.2,2.6-6.2,6c0,0.3,0,0.7,0.1,0.7H22.1z"/>
		<path fill="#37474F" d="M22.1,31.5H9.9c-0.5,0-0.6-0.6-0.6-1.2c0-3.7,2.9-6.5,6.7-6.5s6.7,2.9,6.7,6.6
			C22.7,30.7,22.7,31.5,22.1,31.5z M10.3,30.5h11.4c0-0.1,0-0.1,0-0.2c0-3.1-2.5-5.6-5.7-5.6s-5.7,2.4-5.7,5.5
			C10.3,30.3,10.3,30.4,10.3,30.5z"/>
	</g>
	<g>
		<path fill="#37474F" d="M25.3,31c0.1,0,0.1-0.7,0.1-1.1c0-5.2-4.2-9.3-9.4-9.3s-9.4,4-9.4,9.2c0,0.5,0.1,1.2,0.1,1.2H25.3z"/>
		<path fill="#37474F" d="M25.3,31.5H6.7c-0.4,0-0.6-0.3-0.6-1.7c0-5.4,4.3-9.7,9.9-9.7c5.5,0,9.9,4.4,9.9,9.8
			C25.9,31.4,25.6,31.5,25.3,31.5z M7.1,30.5h17.7c0-0.2,0-0.4,0-0.6c0-4.8-4-8.8-8.9-8.8c-5,0-8.9,3.8-8.9,8.7
			C7.1,30,7.1,30.3,7.1,30.5z"/>
	</g>
	<g>
		<g>
			<path fill="#37474F" d="M9.3,5C9,5,8.8,4.8,8.8,4.5v-3C8.8,1.2,9,1,9.3,1s0.5,0.2,0.5,0.5v3C9.8,4.8,9.6,5,9.3,5z"/>
		</g>
		<g>
			<path fill="#37474F" d="M13.3,5c-0.3,0-0.5-0.2-0.5-0.5v-3C12.8,1.2,13,1,13.3,1s0.5,0.2,0.5,0.5v3C13.8,4.8,13.6,5,13.3,5z"/>
		</g>
		<g>
			<path fill="#37474F" d="M17.3,5c-0.3,0-0.5-0.2-0.5-0.5v-3C16.8,1.2,17,1,17.3,1s0.5,0.2,0.5,0.5v3C17.8,4.8,17.6,5,17.3,5z"/>
		</g>
		<g>
			<path fill="#37474F" d="M20.3,5c-0.3,0-0.5-0.2-0.5-0.5v-3C19.8,1.2,20,1,20.3,1s0.5,0.2,0.5,0.5v3C20.8,4.8,20.6,5,20.3,5z"/>
		</g>
		<g>
			<path fill="#37474F" d="M24.3,5c-0.3,0-0.5-0.2-0.5-0.5v-3C23.8,1.2,24,1,24.3,1s0.5,0.2,0.5,0.5v3C24.8,4.8,24.6,5,24.3,5z"/>
		</g>
	</g>
	<g>
		<path fill="#FFAB00" d="M21.2,29.4c0.4,0.7-1,0.8-1,0.8s-0.7-0.6,0.2-1.7c0.9-1.1-1.6-2.9-1.6-2.9s-1.1-0.8-0.3,0.1
			c0.8,0.9-0.4,2.1-0.4,2.1c0.5-1.1-2.3-3.6-2.3-3.6s-2.5,2.5-2.1,3.6c0,0-1.1-1.2-0.3-2.1c0.8-0.9-0.3-0.1-0.3-0.1
			s-2.5,1.8-1.6,2.9c0.9,1.1,0.2,1.7,0.2,1.7s-1.4-0.1-1-0.8c0,0-1.2,1.7,1.5,1.6c2.7-0.1,3.7,0,3.7,0l-0.1-0.7l0.1,0.7
			c0,0,1.2-0.1,3.9,0C22.5,31.1,21.2,29.4,21.2,29.4z"/>
	</g>
	<g>
		<g>
			<g>
				<path fill="#37474F" d="M18.6,18.7c0-0.2,0.2-0.4,0.4-0.4c0.2,0,0.4,0.2,0.4,0.4c0,0.2-0.2,0.4-0.4,0.4
					C18.8,19.1,18.6,18.9,18.6,18.7z"/>
				<path fill="#37474F" d="M19,19.6c-0.5,0-0.9-0.4-0.9-0.9c0-0.5,0.4-0.9,0.9-0.9c0.3,0,0.5,0.1,0.7,0.3c0.2,0.2,0.3,0.4,0.3,0.7
					C20,19.2,19.6,19.6,19,19.6L19,19.6z"/>
			</g>
			<g>
				<path fill="#37474F" d="M15.6,18.7c0-0.2,0.2-0.4,0.4-0.4c0.2,0,0.4,0.2,0.4,0.4c0,0.2-0.2,0.4-0.4,0.4
					C15.8,19.1,15.6,18.9,15.6,18.7z"/>
				<path fill="#37474F" d="M16,19.6L16,19.6c-0.5,0-0.9-0.4-0.9-0.9c0-0.2,0.1-0.5,0.3-0.7c0.2-0.2,0.4-0.3,0.7-0.3
					c0.5,0,0.9,0.4,0.9,0.9C16.9,19.2,16.5,19.6,16,19.6z"/>
			</g>
			<g>
				<path fill="#37474F" d="M12.5,18.7c0-0.2,0.2-0.4,0.4-0.4c0.2,0,0.4,0.2,0.4,0.4c0,0.2-0.2,0.4-0.4,0.4
					C12.7,19.1,12.5,18.9,12.5,18.7z"/>
				<path fill="#37474F" d="M13,19.6L13,19.6L13,19.6c-0.5,0-0.9-0.4-0.9-0.9c0-0.5,0.4-0.9,0.9-0.9c0.5,0,0.9,0.4,0.9,0.9
					C13.9,19.2,13.5,19.6,13,19.6z M12.9,18.7l0,0.4L12.9,18.7L12.9,18.7C13,18.6,13,18.6,12.9,18.7L12.9,18.7
					C13,18.6,12.9,18.6,12.9,18.7L12.9,18.7C12.9,18.6,12.9,18.6,12.9,18.7L12.9,18.7z"/>
			</g>
		</g>
	</g>
</g>
</svg>
