<?xml version="1.0" encoding="utf-8"?>
<!-- Generator: Adobe Illustrator 16.0.0, SVG Export Plug-In . SVG Version: 6.00 Build 0)  -->
<!DOCTYPE svg PUBLIC "-//W3C//DTD SVG 1.1//EN" "http://www.w3.org/Graphics/SVG/1.1/DTD/svg11.dtd">
<svg version="1.1" id="Layer_1" xmlns="http://www.w3.org/2000/svg" xmlns:xlink="http://www.w3.org/1999/xlink" x="0px" y="0px"
	 width="32px" height="32px" viewBox="0 0 32 32" enable-background="new 0 0 32 32" xml:space="preserve">
<g>
	<g>
		<circle fill="#B0BEC5" cx="16" cy="16" r="11"/>
		<path fill="#37474F" d="M16,27.5C9.7,27.5,4.5,22.4,4.5,16S9.7,4.6,16,4.6c6.3,0,11.5,5.1,11.5,11.5S22.3,27.5,16,27.5z M16,5.6
			C10.2,5.6,5.5,10.3,5.5,16c0,5.8,4.7,10.5,10.5,10.5c5.8,0,10.5-4.7,10.5-10.5C26.5,10.3,21.8,5.6,16,5.6z"/>
	</g>
	<g>
		<g>
			<rect x="11.9" y="29.3" fill="#FFFFFF" width="2" height="2"/>
			<path fill="#37474F" d="M13.8,31.7h-2c-0.3,0-0.5-0.2-0.5-0.5v-2c0-0.3,0.2-0.5,0.5-0.5h2c0.3,0,0.5,0.2,0.5,0.5v2
				C14.3,31.5,14.1,31.7,13.8,31.7z M12.4,30.7h1v-1h-1V30.7z"/>
		</g>
		<g>
			<rect x="18.7" y="29.3" fill="#FFFFFF" width="2" height="2"/>
			<path fill="#37474F" d="M20.7,31.7h-2c-0.3,0-0.5-0.2-0.5-0.5v-2c0-0.3,0.2-0.5,0.5-0.5h2c0.3,0,0.5,0.2,0.5,0.5v2
				C21.2,31.5,21,31.7,20.7,31.7z M19.2,30.7h1v-1h-1V30.7z"/>
		</g>
	</g>
	<g>
		<path fill="#78909C" d="M21.3,28.7c0,0.4-0.4,0.6-0.9,0.6h-8.8c-0.5,0-0.9-0.2-0.9-0.6l1.7-6.5c0-0.4,0.4-0.7,0.9-0.7h5.4
			c0.5,0,0.9,0.4,0.9,0.7L21.3,28.7z"/>
		<path fill="#37474F" d="M20.4,29.8h-8.8c-0.8,0-1.4-0.5-1.4-1.1c0,0,0-0.1,0-0.1l1.7-6.5c0-0.6,0.7-1.2,1.4-1.2h5.4
			c0.7,0,1.3,0.5,1.4,1.2l1.7,6.5c0,0,0,0.1,0,0.1C21.8,29.3,21.2,29.8,20.4,29.8z M11.2,28.7c0,0,0.2,0.1,0.4,0.1h8.8
			c0.2,0,0.3-0.1,0.3-0.1l-1.7-6.4c0,0,0-0.1,0-0.1c0-0.1-0.1-0.2-0.4-0.2h-5.4c-0.2,0-0.4,0.2-0.4,0.2c0,0,0,0.1,0,0.1L11.2,28.7z"
			/>
	</g>
	<g>
		<path fill="#FFFFFF" d="M21.2,16c0,0,0.5-1.5,0.5-1.7V4.9c0-1.8-1.8-3.2-3.6-3.2h-4.2c-1.8,0-3,1.1-3,3V14"/>
		<path fill="#37474F" d="M21.2,16.5c-0.1,0-0.1,0-0.2,0c-0.3-0.1-0.4-0.4-0.3-0.6c0.2-0.6,0.4-1.4,0.5-1.6l0-9.4
			c0-1.6-1.6-2.7-3.1-2.7h-4.2c-1.6,0-2.5,0.9-2.5,2.5V14c0,0.3-0.2,0.5-0.5,0.5s-0.5-0.2-0.5-0.5V4.7c0-2.1,1.4-3.5,3.5-3.5h4.2
			c2,0,4.1,1.5,4.1,3.7v9.4c0,0.1,0,0.3-0.5,1.9C21.6,16.4,21.4,16.5,21.2,16.5z"/>
	</g>
	<g>
		<path fill="#FFFFFF" d="M10.9,14l0,1c0.1,0.2,0,0.4,0.1,0.6l1.5,5.9c0,0.4,0.4,0.9,0.9,0.9h5.4c0.5,0,0.9-0.5,0.9-0.8l1.6-5.5"/>
		<path fill="#37474F" d="M18.7,22.9h-5.4c-0.7,0-1.3-0.7-1.3-1.3l-1.5-5.8c0-0.1-0.1-0.3-0.1-0.4c0-0.1,0-0.1,0-0.2
			c0,0,0-0.1,0-0.1l0-1c0-0.3,0.3-0.5,0.5-0.5c0.3,0,0.5,0.2,0.5,0.5l0,0.9c0,0.1,0,0.2,0,0.3c0,0.1,0,0.2,0,0.2l1.5,6
			c0,0,0,0.1,0,0.1c0,0.1,0.2,0.4,0.4,0.4h5.4c0.2,0,0.4-0.2,0.4-0.3c0,0,0-0.1,0-0.1l1.6-5.5c0.1-0.3,0.4-0.4,0.6-0.3
			c0.3,0.1,0.4,0.4,0.3,0.6L20,21.6C20,22.2,19.4,22.9,18.7,22.9z"/>
	</g>
	<g>
		<path fill="#FFAB00" d="M21.3,4.7c-0.3-2-1.6-3-3.1-3h-4.2c-1.6,0-2.7,1-3,3H21.3z"/>
		<path fill="#37474F" d="M21.3,5.2H10.9c-0.1,0-0.3-0.1-0.4-0.2c-0.1-0.1-0.1-0.3-0.1-0.4c0.3-2.1,1.6-3.4,3.5-3.4h4.2
			c1.9,0,3.3,1.3,3.6,3.4c0,0.1,0,0.3-0.1,0.4C21.5,5.1,21.4,5.2,21.3,5.2z M11.5,4.2h9.1c-0.4-1.2-1.3-2-2.5-2h-4.2
			C12.4,2.2,11.8,3.2,11.5,4.2z"/>
	</g>
	<g>
		<path fill="#FFECB3" d="M18,1.7c-0.1-1-0.6-1-1.2-1h-1.6c-0.6,0-1.1,0-1.2,1H18z"/>
		<path fill="#37474F" d="M18,2.2H14c-0.1,0-0.3-0.1-0.4-0.2s-0.1-0.2-0.1-0.4c0.2-1.4,1.1-1.4,1.7-1.4h1.6c0.6,0,1.5,0,1.7,1.4
			c0,0.1,0,0.3-0.1,0.4C18.3,2.2,18.2,2.2,18,2.2z"/>
	</g>
	<g>
		<circle fill="#FFAB00" cx="16" cy="25.5" r="1.8"/>
		<path fill="#37474F" d="M16,27.9c-1.3,0-2.3-1.1-2.3-2.3c0-1.3,1.1-2.3,2.3-2.3c1.3,0,2.3,1.1,2.3,2.3
			C18.3,26.8,17.3,27.9,16,27.9z M16,24.2c-0.7,0-1.3,0.6-1.3,1.3c0,0.7,0.6,1.3,1.3,1.3c0.7,0,1.3-0.6,1.3-1.3
			C17.3,24.8,16.7,24.2,16,24.2z"/>
	</g>
	<g>
		<polyline fill="#FFECB3" points="22.2,7.6 24.6,7.6 24.6,14.2 23.3,15.2 		"/>
		<path fill="#37474F" d="M23.3,15.7c-0.2,0-0.3-0.1-0.4-0.2c-0.2-0.2-0.1-0.5,0.1-0.7l1.2-0.9V8.1h-2c-0.3,0-0.5-0.2-0.5-0.5
			s0.2-0.5,0.5-0.5h2.5c0.3,0,0.5,0.2,0.5,0.5v6.6c0,0.2-0.1,0.3-0.2,0.4l-1.4,1C23.5,15.7,23.4,15.7,23.3,15.7z"/>
	</g>
	<g>
		<g>
			<g>
				<path fill="#37474F" d="M13.6,9.7c-0.2,0-0.4-0.2-0.4-0.4c0-0.2,0.2-0.4,0.4-0.4c0.2,0,0.4,0.2,0.3,0.4
					C13.9,9.5,13.8,9.7,13.6,9.7z"/>
				<path fill="#37474F" d="M13.6,10.2c-0.5,0-0.8-0.4-0.9-0.8c0-0.2,0.1-0.5,0.2-0.6c0.3-0.3,0.9-0.3,1.2,0
					c0.2,0.2,0.2,0.4,0.2,0.6c0,0.2-0.1,0.4-0.2,0.6C14,10.1,13.8,10.2,13.6,10.2z"/>
			</g>
			<g>
				<path fill="#37474F" d="M13.6,12.2c-0.2,0-0.4-0.2-0.4-0.4c0-0.2,0.2-0.4,0.4-0.4c0.2,0,0.4,0.2,0.4,0.4
					C13.9,12,13.8,12.2,13.6,12.2z"/>
				<path fill="#37474F" d="M13.5,12.7c-0.2,0-0.4-0.1-0.6-0.3c-0.2-0.2-0.2-0.4-0.2-0.6c0-0.2,0.1-0.4,0.2-0.6
					c0.2-0.2,0.4-0.3,0.6-0.3c0.5,0,0.9,0.4,0.9,0.9C14.4,12.3,14,12.7,13.5,12.7L13.5,12.7z"/>
			</g>
			<g>
				<path fill="#37474F" d="M13.6,14.7c-0.2,0-0.4-0.2-0.4-0.4c0-0.2,0.2-0.4,0.4-0.4c0.2,0,0.4,0.2,0.4,0.4
					C13.9,14.5,13.8,14.7,13.6,14.7z"/>
				<path fill="#37474F" d="M13.6,15.2c-0.5,0-0.8-0.4-0.9-0.8c0-0.5,0.4-0.9,0.9-0.9c0.2,0,0.4,0.1,0.6,0.3
					c0.2,0.2,0.2,0.4,0.2,0.6c0,0.2-0.1,0.4-0.2,0.6C14,15.1,13.8,15.2,13.6,15.2z"/>
			</g>
		</g>
		<g>
			<g>
				<path fill="#37474F" d="M16,9.7c-0.2,0-0.4-0.2-0.4-0.4C15.6,9.1,15.8,9,16,9c0.2,0,0.4,0.2,0.3,0.4C16.4,9.5,16.2,9.7,16,9.7z"
					/>
				<path fill="#37474F" d="M16,10.2c-0.5,0-0.8-0.4-0.9-0.8c0-0.2,0.1-0.5,0.2-0.6c0.3-0.3,0.9-0.3,1.2,0c0.2,0.2,0.2,0.4,0.2,0.6
					c0,0.2-0.1,0.4-0.2,0.6C16.5,10.1,16.2,10.2,16,10.2z M16,9.2c0,0-0.1,0-0.1,0c0,0,0,0.1,0,0.1c0,0,0,0,0,0.1
					c0,0.1,0.1,0.1,0.2,0c0,0,0-0.1,0-0.1C16.1,9.2,16.1,9.2,16,9.2z"/>
			</g>
			<g>
				<path fill="#37474F" d="M16,12.2c-0.2,0-0.4-0.2-0.4-0.4c0-0.2,0.2-0.4,0.4-0.4c0.2,0,0.4,0.2,0.4,0.4
					C16.4,12,16.2,12.2,16,12.2z"/>
				<path fill="#37474F" d="M16,12.7c-0.2,0-0.4-0.1-0.6-0.3c-0.2-0.2-0.2-0.4-0.2-0.6c0-0.2,0.1-0.4,0.2-0.6
					c0.2-0.2,0.4-0.3,0.6-0.3c0.5,0,0.9,0.4,0.9,0.9C16.9,12.3,16.5,12.7,16,12.7L16,12.7z"/>
			</g>
			<g>
				<path fill="#37474F" d="M16,14.7c-0.2,0-0.4-0.2-0.4-0.4c0-0.2,0.2-0.4,0.4-0.4c0.2,0,0.4,0.2,0.4,0.4
					C16.4,14.5,16.2,14.7,16,14.7z"/>
				<path fill="#37474F" d="M16,15.2c-0.5,0-0.9-0.4-0.9-0.9c0-0.5,0.4-0.9,0.9-0.9c0.2,0,0.4,0.1,0.6,0.3c0.2,0.2,0.2,0.4,0.2,0.6
					c0,0.2-0.1,0.4-0.2,0.6S16.2,15.2,16,15.2z"/>
			</g>
		</g>
		<g>
			<g>
				<path fill="#37474F" d="M18.4,9.7c-0.2,0-0.4-0.2-0.4-0.4c0-0.2,0.2-0.4,0.4-0.4c0.2,0,0.4,0.2,0.3,0.4
					C18.8,9.5,18.6,9.7,18.4,9.7z"/>
				<path fill="#37474F" d="M18.4,10.2c-0.5,0-0.8-0.4-0.9-0.8c0-0.2,0.1-0.5,0.2-0.6c0.3-0.3,0.9-0.3,1.2,0
					c0.2,0.2,0.2,0.4,0.2,0.6c0,0.2-0.1,0.4-0.2,0.6C18.9,10.1,18.7,10.2,18.4,10.2z"/>
			</g>
			<g>
				<path fill="#37474F" d="M18.4,12.2c-0.2,0-0.4-0.2-0.4-0.4c0-0.2,0.2-0.4,0.4-0.4c0.2,0,0.4,0.2,0.4,0.4
					C18.8,12,18.6,12.2,18.4,12.2z"/>
				<path fill="#37474F" d="M18.4,12.7c-0.2,0-0.4-0.1-0.6-0.3c-0.2-0.2-0.2-0.4-0.2-0.6c0-0.2,0.1-0.4,0.2-0.6
					c0.2-0.2,0.4-0.3,0.6-0.3c0.5,0,0.9,0.4,0.9,0.9C19.3,12.3,18.9,12.7,18.4,12.7L18.4,12.7z"/>
			</g>
			<g>
				<path fill="#37474F" d="M18.4,14.7c-0.2,0-0.4-0.2-0.4-0.4c0-0.2,0.2-0.4,0.4-0.4c0.2,0,0.4,0.2,0.4,0.4
					C18.8,14.5,18.6,14.7,18.4,14.7z"/>
				<path fill="#37474F" d="M18.4,15.2c-0.5,0-0.9-0.4-0.9-0.9c0-0.5,0.4-0.9,0.9-0.9c0.2,0,0.4,0.1,0.6,0.3
					c0.2,0.2,0.2,0.4,0.2,0.6c0,0.2-0.1,0.4-0.2,0.6C18.9,15.1,18.7,15.2,18.4,15.2z"/>
			</g>
		</g>
	</g>
</g>
</svg>
