<?xml version="1.0" encoding="utf-8"?>
<!-- Generator: Adobe Illustrator 16.0.0, SVG Export Plug-In . SVG Version: 6.00 Build 0)  -->
<!DOCTYPE svg PUBLIC "-//W3C//DTD SVG 1.1//EN" "http://www.w3.org/Graphics/SVG/1.1/DTD/svg11.dtd">
<svg version="1.1" id="Layer_1" xmlns="http://www.w3.org/2000/svg" xmlns:xlink="http://www.w3.org/1999/xlink" x="0px" y="0px"
	 width="33px" height="33.2px" viewBox="0 0 33 33.2" enable-background="new 0 0 33 33.2" xml:space="preserve">
<g>
	<g>
		<g>
			<line fill="#FFECB3" x1="2.5" y1="26" x2="30.5" y2="26"/>
			<path fill="#37474F" d="M30.5,26.5h-28C2.2,26.5,2,26.3,2,26s0.2-0.5,0.5-0.5h28c0.3,0,0.5,0.2,0.5,0.5S30.8,26.5,30.5,26.5z"/>
		</g>
		<g>
			<path fill="#FFECB3" d="M30,25.5v-8.4c0-2.7-1.9-5.1-4.6-5.1h-0.1h-0.3H9.5"/>
			<path fill="#37474F" d="M30,26c-0.3,0-0.5-0.2-0.5-0.5v-8.4c0-2.3-1.5-4.6-4.1-4.6H9.5C9.2,12.5,9,12.3,9,12s0.2-0.5,0.5-0.5
				h15.9c2.9,0,5.1,2.5,5.1,5.6v8.4C30.5,25.8,30.3,26,30,26z"/>
		</g>
		<g>
			<path fill="#FFFFFF" d="M4,25.5v-8.4C4,14.4,5.9,12,8.5,12h0.3c2.7,0,5.1,2.4,5.1,5.1v8.4"/>
			<path fill="#37474F" d="M14,26c-0.3,0-0.5-0.2-0.5-0.5v-8.4c0-2.4-2.2-4.6-4.6-4.6H8.5c-2.5,0-4,2.3-4,4.6v8.4
				C4.5,25.8,4.3,26,4,26s-0.5-0.2-0.5-0.5v-8.4c0-3.1,2.2-5.6,5-5.6h0.3c3,0,5.6,2.7,5.6,5.6v8.4C14.5,25.8,14.3,26,14,26z"/>
		</g>
		<g>
			<rect x="6" y="16" fill="#FFECB3" width="5" height="2"/>
			<path fill="#37474F" d="M11,18.5H6c-0.3,0-0.5-0.2-0.5-0.5v-2c0-0.3,0.2-0.5,0.5-0.5h5c0.3,0,0.5,0.2,0.5,0.5v2
				C11.5,18.3,11.3,18.5,11,18.5z M6.5,17.5h4v-1h-4V17.5z"/>
		</g>
		<g>
			<g>
				<g>
					<line fill="#FFAB00" x1="25.5" y1="20" x2="19.5" y2="20"/>
					<path fill="#37474F" d="M25.5,20.5h-6c-0.3,0-0.5-0.2-0.5-0.5s0.2-0.5,0.5-0.5h6c0.3,0,0.5,0.2,0.5,0.5S25.8,20.5,25.5,20.5z"
						/>
				</g>
				<g>
					<polyline fill="#FFAB00" points="19.5,17 28,17 28,19.5 					"/>
					<path fill="#37474F" d="M28,20c-0.3,0-0.5-0.2-0.5-0.5v-2h-8c-0.3,0-0.5-0.2-0.5-0.5s0.2-0.5,0.5-0.5H28c0.3,0,0.5,0.2,0.5,0.5
						v2.5C28.5,19.8,28.3,20,28,20z"/>
				</g>
				<g>
					<polyline fill="#FFAB00" points="28,18.5 28,22 26,22 26,18.5 					"/>
					<path fill="#37474F" d="M28,22.5h-2c-0.3,0-0.5-0.2-0.5-0.5v-3.5c0-0.3,0.2-0.5,0.5-0.5s0.5,0.2,0.5,0.5v3h1v-3
						c0-0.3,0.2-0.5,0.5-0.5s0.5,0.2,0.5,0.5V22C28.5,22.3,28.3,22.5,28,22.5z"/>
				</g>
			</g>
			<g>
				<circle fill="#FFECB3" cx="17.8" cy="18.5" r="1.9"/>
				<path fill="#37474F" d="M17.8,20.8c-1.3,0-2.4-1.1-2.4-2.4c0-1.3,1.1-2.4,2.4-2.4c1.3,0,2.4,1.1,2.4,2.4
					C20.1,19.8,19.1,20.8,17.8,20.8z M17.8,17.1c-0.7,0-1.4,0.6-1.4,1.4c0,0.7,0.6,1.4,1.4,1.4s1.4-0.6,1.4-1.4
					C19.1,17.7,18.5,17.1,17.8,17.1z"/>
			</g>
		</g>
	</g>
	<g>
		<g>
			<line fill="#FFAB00" x1="14.5" y1="28" x2="21.5" y2="28"/>
			<path fill="#37474F" d="M21.5,28.5h-7c-0.3,0-0.5-0.2-0.5-0.5s0.2-0.5,0.5-0.5h7c0.3,0,0.5,0.2,0.5,0.5S21.8,28.5,21.5,28.5z"/>
		</g>
		<g>
			<line fill="#FFAB00" x1="18" y1="32.5" x2="18" y2="28.5"/>
			<path fill="#37474F" d="M18,33c-0.3,0-0.5-0.2-0.5-0.5v-4c0-0.3,0.2-0.5,0.5-0.5s0.5,0.2,0.5,0.5v4C18.5,32.8,18.3,33,18,33z"/>
		</g>
	</g>
	<g>
		<g>
			<polyline fill="#FFECB3" points="12.6,5.1 9.9,3.9 12.6,2.6 			"/>
			<path fill="#37474F" d="M12.6,5.6c-0.1,0-0.1,0-0.2,0L9.6,4.3C9.5,4.2,9.4,4,9.4,3.9s0.1-0.4,0.3-0.5l2.7-1.2
				c0.3-0.1,0.5,0,0.7,0.2c0.1,0.3,0,0.5-0.2,0.7l-1.7,0.8l1.7,0.8C13,4.7,13.1,5,13,5.3C12.9,5.5,12.8,5.6,12.6,5.6z"/>
		</g>
		<g>
			<path fill="#FFAB00" d="M18.3,4.2c0.1-0.2,0.1-0.5,0.1-0.7c0-1.5-1.4-2.6-3.1-2.6c-1.7,0-3.1,1.2-3.1,2.6c0,0.9,0.6,1.8,1.4,2.2
				c-0.5,0.6-0.8,1.4-0.8,2.2c0,2.1,2,3.9,4.5,3.9c2.5,0,4.5-1.7,4.5-3.9C21.9,6.1,20.4,4.6,18.3,4.2z"/>
			<path fill="#37474F" d="M17.4,12.4c-2.8,0-5-2-5-4.4c0-0.7,0.2-1.5,0.6-2.1c-0.8-0.6-1.2-1.4-1.2-2.4c0-1.7,1.6-3.1,3.6-3.1
				s3.6,1.4,3.6,3.1c0,0.1,0,0.2,0,0.3c2,0.6,3.5,2.3,3.5,4.1C22.4,10.4,20.1,12.4,17.4,12.4z M15.3,1.4c-1.4,0-2.6,1-2.6,2.1
				c0,0.7,0.4,1.4,1.2,1.8c0.1,0.1,0.2,0.2,0.3,0.3c0,0.1,0,0.3-0.1,0.4c-0.5,0.6-0.7,1.2-0.7,1.9c0,1.9,1.8,3.4,4,3.4
				c2.2,0,4-1.5,4-3.4c0-1.6-1.3-2.9-3.1-3.3c-0.1,0-0.3-0.1-0.3-0.2c-0.1-0.1-0.1-0.3,0-0.4c0.1-0.2,0.1-0.4,0.1-0.5
				C17.9,2.3,16.8,1.4,15.3,1.4z"/>
		</g>
		<g>
			<line fill="#FFAB00" x1="21.9" y1="8.8" x2="24.3" y2="6.4"/>
			<path fill="#37474F" d="M21.9,9.3c-0.1,0-0.3,0-0.4-0.1c-0.2-0.2-0.2-0.5,0-0.7l2.4-2.4c0.2-0.2,0.5-0.2,0.7,0s0.2,0.5,0,0.7
				l-2.4,2.4C22.2,9.3,22,9.3,21.9,9.3z"/>
		</g>
		<g>
			<line fill="#FFAB00" x1="21.6" y1="6.2" x2="23.5" y2="4.3"/>
			<path fill="#37474F" d="M21.6,6.7c-0.1,0-0.3,0-0.4-0.1c-0.2-0.2-0.2-0.5,0-0.7l1.9-1.9c0.2-0.2,0.5-0.2,0.7,0s0.2,0.5,0,0.7
				L22,6.6C21.9,6.7,21.8,6.7,21.6,6.7z"/>
		</g>
	</g>
</g>
</svg>
