<?xml version="1.0" encoding="utf-8"?>
<!-- Generator: Adobe Illustrator 16.0.0, SVG Export Plug-In . SVG Version: 6.00 Build 0)  -->
<!DOCTYPE svg PUBLIC "-//W3C//DTD SVG 1.1//EN" "http://www.w3.org/Graphics/SVG/1.1/DTD/svg11.dtd">
<svg version="1.1" id="Layer_1" xmlns="http://www.w3.org/2000/svg" xmlns:xlink="http://www.w3.org/1999/xlink" x="0px" y="0px"
	 width="32px" height="32px" viewBox="0 0 32 32" enable-background="new 0 0 32 32" xml:space="preserve">
<g>
	<g>
		<g>
			<line fill="#FFFFFF" x1="4.5" y1="31" x2="4.5" y2="1"/>
			<path fill="#37474F" d="M4.5,31.5C4.2,31.5,4,31.3,4,31V1c0-0.3,0.2-0.5,0.5-0.5S5,0.7,5,1v30C5,31.3,4.8,31.5,4.5,31.5z"/>
		</g>
		<g>
			<line fill="#FFFFFF" x1="31" y1="2.5" x2="1" y2="2.5"/>
			<path fill="#37474F" d="M31,3H1C0.7,3,0.5,2.8,0.5,2.5S0.7,2,1,2h30c0.3,0,0.5,0.2,0.5,0.5S31.3,3,31,3z"/>
		</g>
		<g>
			<polyline fill="#FFECB3" points="28,8.5 30.5,8.5 30.5,27.5 7.5,27.5 7.5,8.5 11,8.5 			"/>
			<path fill="#37474F" d="M30.5,28h-23C7.2,28,7,27.8,7,27.5v-19C7,8.2,7.2,8,7.5,8H11c0.3,0,0.5,0.2,0.5,0.5S11.3,9,11,9H8v18h22
				V9h-2c-0.3,0-0.5-0.2-0.5-0.5S27.7,8,28,8h2.5C30.8,8,31,8.2,31,8.5v19C31,27.8,30.8,28,30.5,28z"/>
		</g>
		<g>
			<g>
				<path d="M11.1,12.1h2.5v0.5h-1.9v1.6h1.8v0.5h-1.8v2.1h-0.6V12.1z"/>
				<polygon fill="#37474F" points="12.2,17.3 10.6,17.3 10.6,11.6 14.2,11.6 14.2,13.1 12.2,13.1 12.2,13.7 14,13.7 14,15.2 
					12.2,15.2 				"/>
			</g>
			<g>
				<path d="M19.6,14.4c0,1.6-1,2.5-2.2,2.5c-1.2,0-2.1-1-2.1-2.4c0-1.5,0.9-2.5,2.2-2.5C18.7,12,19.6,13,19.6,14.4z M15.9,14.5
					c0,1,0.5,1.9,1.5,1.9c1,0,1.5-0.9,1.5-2c0-0.9-0.5-1.9-1.5-1.9C16.4,12.5,15.9,13.4,15.9,14.5z"/>
				<path fill="#37474F" d="M17.4,17.4c-1.5,0-2.6-1.2-2.6-2.9c0-1.7,1.1-3,2.7-3c1.5,0,2.6,1.2,2.6,2.9
					C20.1,16.4,18.7,17.4,17.4,17.4z M17.4,13c-0.7,0-1,0.8-1,1.5c0,0.7,0.3,1.4,1,1.4c0.7,0,1-0.7,1-1.5C18.4,13.9,18.2,13,17.4,13
					z"/>
			</g>
			<g>
				<path d="M21.3,12.1c0.3-0.1,0.7-0.1,1.2-0.1c0.7,0,1.1,0.1,1.4,0.4c0.2,0.2,0.4,0.5,0.4,0.9c0,0.6-0.4,1-0.9,1.2v0
					c0.4,0.1,0.6,0.5,0.7,1c0.2,0.7,0.3,1.1,0.4,1.3h-0.6c-0.1-0.1-0.2-0.5-0.3-1.1c-0.1-0.7-0.4-0.9-0.9-0.9H22v2h-0.6V12.1z
					 M22,14.3h0.6c0.7,0,1.1-0.4,1.1-0.9c0-0.6-0.4-0.9-1.1-0.9c-0.3,0-0.5,0-0.6,0.1V14.3z"/>
				<path fill="#37474F" d="M25.3,17.3h-1.8L23.4,17c-0.1-0.2-0.2-0.5-0.4-1.3c-0.1-0.5-0.2-0.5-0.5-0.5h-0.1v2h-1.6v-5.6l0.4-0.1
					c0.3-0.1,0.8-0.1,1.3-0.1c0.8,0,1.3,0.2,1.7,0.5c0.3,0.3,0.5,0.8,0.5,1.3s-0.2,1-0.5,1.3c0.1,0.2,0.3,0.5,0.3,0.8
					c0.1,0.4,0.2,1,0.3,1.2L25.3,17.3z M22.5,13.8h0.1c0.2,0,0.6-0.1,0.6-0.4c0-0.1,0-0.4-0.6-0.4c0,0-0.1,0-0.1,0V13.8z"/>
			</g>
			<g>
				<path d="M11,23c0.3,0.2,0.7,0.3,1.1,0.3c0.6,0,1-0.3,1-0.8c0-0.4-0.3-0.7-0.9-0.9c-0.8-0.3-1.2-0.7-1.2-1.3
					c0-0.7,0.6-1.3,1.5-1.3c0.5,0,0.8,0.1,1,0.2l-0.2,0.5c-0.2-0.1-0.5-0.2-0.9-0.2c-0.6,0-0.9,0.4-0.9,0.7c0,0.4,0.3,0.7,0.9,0.9
					c0.8,0.3,1.2,0.7,1.2,1.4c0,0.7-0.5,1.4-1.7,1.4c-0.5,0-1-0.1-1.2-0.3L11,23z"/>
				<path fill="#37474F" d="M12.1,24.4c-0.5,0-1.1-0.2-1.5-0.4l-0.3-0.2l0.4-1.5l0.6,0.3c0.2,0.1,0.5,0.2,0.8,0.2
					c0.2,0,0.5-0.1,0.5-0.3c0-0.1,0-0.3-0.6-0.5c-1-0.4-1.6-1-1.6-1.8c0-1,0.9-1.8,2-1.8c0.5,0,1,0.1,1.3,0.3l0.4,0.2l-0.5,1.5
					l-0.5-0.3C13,20.1,12.8,20,12.5,20c-0.2,0-0.4,0.1-0.4,0.2c0,0.1,0,0.2,0.6,0.4c0.7,0.2,1.5,0.7,1.5,1.9
					C14.2,23.4,13.6,24.4,12.1,24.4z"/>
			</g>
			<g>
				<path d="M16.3,22.3l-0.5,1.5h-0.6l1.6-4.7h0.7l1.6,4.7h-0.7L18,22.3H16.3z M17.9,21.8l-0.5-1.4c-0.1-0.3-0.2-0.6-0.2-0.9h0
					c-0.1,0.3-0.1,0.6-0.2,0.9l-0.5,1.4H17.9z"/>
				<polygon fill="#37474F" points="19.9,24.3 18.1,24.3 17.6,22.8 16.7,22.8 16.2,24.3 14.5,24.3 16.5,18.6 17.9,18.6 				"/>
			</g>
			<g>
				<path d="M20.8,19.1h0.6v4.2h2v0.5h-2.6V19.1z"/>
				<polygon fill="#37474F" points="24,24.3 20.3,24.3 20.3,18.6 22,18.6 22,22.8 24,22.8 				"/>
			</g>
			<g>
				<path d="M27.6,21.6h-1.8v1.7h2v0.5h-2.7v-4.7h2.5v0.5h-1.9v1.5h1.8V21.6z"/>
				<polygon fill="#37474F" points="28.3,24.3 24.7,24.3 24.7,18.6 28.2,18.6 28.2,20.1 26.3,20.1 26.3,20.6 28.1,20.6 28.1,22.1 
					26.3,22.1 26.3,22.8 28.3,22.8 				"/>
			</g>
		</g>
		<g>
			<line fill="#FFECB3" x1="16" y1="8.5" x2="23" y2="8.5"/>
			<path fill="#37474F" d="M23,9h-7c-0.3,0-0.5-0.2-0.5-0.5S15.7,8,16,8h7c0.3,0,0.5,0.2,0.5,0.5S23.3,9,23,9z"/>
		</g>
		<g>
			<g>
				<circle fill="#FFECB3" cx="13.3" cy="9" r="1.4"/>
				<path fill="#37474F" d="M13.3,10.9c-1.1,0-1.9-0.9-1.9-1.9c0-1.1,0.9-1.9,1.9-1.9c1.1,0,1.9,0.9,1.9,1.9
					C15.2,10.1,14.3,10.9,13.3,10.9z M13.3,8c-0.5,0-0.9,0.4-0.9,0.9c0,0.5,0.4,0.9,0.9,0.9c0.5,0,0.9-0.4,0.9-0.9
					C14.2,8.5,13.8,8,13.3,8z"/>
			</g>
			<g>
				<circle fill="#FFECB3" cx="25.4" cy="9" r="1.4"/>
				<path fill="#37474F" d="M25.4,10.9c-1.1,0-1.9-0.9-1.9-1.9c0-1.1,0.9-1.9,1.9-1.9s1.9,0.9,1.9,1.9
					C27.4,10.1,26.5,10.9,25.4,10.9z M25.4,8c-0.5,0-0.9,0.4-0.9,0.9c0,0.5,0.4,0.9,0.9,0.9s0.9-0.4,0.9-0.9C26.4,8.5,25.9,8,25.4,8
					z"/>
			</g>
		</g>
		<g>
			<line fill="#FFECB3" x1="13.3" y1="5" x2="13.3" y2="7.5"/>
			<path fill="#37474F" d="M13.3,8c-0.3,0-0.5-0.2-0.5-0.5l0-2.5c0-0.3,0.2-0.5,0.5-0.5c0.3,0,0.5,0.2,0.5,0.5l0,2.5
				C13.8,7.8,13.5,8,13.3,8z"/>
		</g>
		<g>
			<line fill="#FFECB3" x1="25.5" y1="5" x2="25.5" y2="7"/>
			<path fill="#37474F" d="M25.5,7.5C25.2,7.5,25,7.3,25,7V5c0-0.3,0.2-0.5,0.5-0.5S26,4.7,26,5v2C26,7.3,25.8,7.5,25.5,7.5z"/>
		</g>
	</g>
</g>
</svg>
