<?xml version="1.0" encoding="utf-8"?>
<!-- Generator: Adobe Illustrator 16.0.0, SVG Export Plug-In . SVG Version: 6.00 Build 0)  -->
<!DOCTYPE svg PUBLIC "-//W3C//DTD SVG 1.1//EN" "http://www.w3.org/Graphics/SVG/1.1/DTD/svg11.dtd">
<svg version="1.1" id="Layer_1" xmlns="http://www.w3.org/2000/svg" xmlns:xlink="http://www.w3.org/1999/xlink" x="0px" y="0px"
	 width="24px" height="24px" viewBox="0 0 24 24" enable-background="new 0 0 24 24" xml:space="preserve">
<g>
	<path d="M12,0.5C5.6,0.5,0.5,5.6,0.5,12c0,6.4,5.2,11.5,11.5,11.5c6.4,0,11.5-5.2,11.5-11.5C23.5,5.6,18.4,0.5,12,0.5z M12,22.5
		C6.2,22.5,1.5,17.8,1.5,12C1.5,6.2,6.2,1.5,12,1.5c5.8,0,10.5,4.7,10.5,10.5C22.5,17.8,17.8,22.5,12,22.5z"/>
	<path d="M20.8,11.5c-0.3,0-0.5,0.2-0.5,0.5c0,4.6-3.7,8.3-8.3,8.3c-4.6,0-8.3-3.7-8.3-8.3c0-4.6,3.7-8.3,8.3-8.3
		c0.3,0,0.5-0.2,0.5-0.5S12.3,2.7,12,2.7c-5.1,0-9.3,4.2-9.3,9.3c0,5.1,4.2,9.3,9.3,9.3c5.1,0,9.3-4.2,9.3-9.3
		C21.3,11.7,21.1,11.5,20.8,11.5z"/>
	<path d="M9.6,7C9.4,7.3,9.5,7.6,9.7,7.7l7,4.3l-7,4.3c-0.2,0.1-0.3,0.5-0.2,0.7c0.1,0.2,0.3,0.2,0.4,0.2c0.1,0,0.2,0,0.3-0.1
		l7.7-4.7c0.1-0.1,0.2-0.3,0.2-0.4s-0.1-0.3-0.2-0.4l-7.7-4.7C10,6.7,9.7,6.8,9.6,7z"/>
	<path d="M7.5,13.7c-0.2,0-0.5,0.1-0.6,0.3c-0.2,0.2-0.2,0.4-0.2,0.6c0,0.5,0.4,0.9,0.9,0.9c0.5,0,0.9-0.4,0.9-0.9
		C8.4,14.1,8,13.7,7.5,13.7z"/>
	<path d="M7.5,11.1c-0.5,0-0.9,0.4-0.9,0.9c0,0.5,0.4,0.9,0.9,0.9h0h0c0.5,0,0.9-0.4,0.9-0.9C8.4,11.5,8,11.1,7.5,11.1z"/>
	<path d="M7.5,8.6C7.3,8.6,7,8.7,6.9,8.8C6.7,9,6.6,9.2,6.6,9.4c0,0.2,0.1,0.5,0.2,0.6c0.2,0.2,0.4,0.3,0.6,0.3
		c0.5,0,0.9-0.4,0.9-0.9S8,8.6,7.5,8.6z"/>
</g>
</svg>
