<?xml version="1.0" encoding="utf-8"?>
<!-- Generator: Adobe Illustrator 16.0.0, SVG Export Plug-In . SVG Version: 6.00 Build 0)  -->
<!DOCTYPE svg PUBLIC "-//W3C//DTD SVG 1.1//EN" "http://www.w3.org/Graphics/SVG/1.1/DTD/svg11.dtd">
<svg version="1.1" id="Layer_1" xmlns="http://www.w3.org/2000/svg" xmlns:xlink="http://www.w3.org/1999/xlink" x="0px" y="0px"
	 width="33px" height="33px" viewBox="0 0 33 33" enable-background="new 0 0 33 33" xml:space="preserve">
<g>
	<g>
		<polyline fill="#FFECB3" points="13.3,5.5 16.5,0.8 19.4,5.3 		"/>
		<path fill="#37474F" d="M13.3,6c-0.1,0-0.2,0-0.3-0.1c-0.2-0.1-0.3-0.4-0.1-0.6l3.2-4.7c0.1-0.1,0.2-0.2,0.4-0.2
			c0.2,0,0.3,0.1,0.4,0.2l2.9,4.5c0.1,0.2,0.1,0.5-0.1,0.6c-0.2,0.1-0.5,0.1-0.6-0.1l-2.5-3.9l-2.8,4.1C13.6,5.9,13.5,6,13.3,6z"/>
	</g>
	<g>
		<g>
			<rect x="9.4" y="7.5" fill="#FFAB00" width="14.2" height="24.7"/>
			<path fill="#37474F" d="M23.6,32.7H9.4c-0.3,0-0.5-0.2-0.5-0.5V7.5C8.9,7.3,9.1,7,9.4,7h14.2c0.3,0,0.5,0.2,0.5,0.5v24.7
				C24.1,32.5,23.9,32.7,23.6,32.7z M9.9,31.7h13.2V8H9.9V31.7z"/>
		</g>
		<g>
			<g>
				<polyline fill="#FFFFFF" points="13.7,12.5 11.2,12.5 11.2,10 				"/>
				<path fill="#37474F" d="M13.7,12.9h-2.5c-0.2,0-0.4-0.2-0.4-0.4V10c0-0.2,0.2-0.4,0.4-0.4s0.4,0.2,0.4,0.4v2.1h2.1
					c0.2,0,0.4,0.2,0.4,0.4S13.9,12.9,13.7,12.9z"/>
			</g>
			<g>
				<polyline fill="#FFFFFF" points="17.8,12.5 15.2,12.5 15.2,10 				"/>
				<path fill="#37474F" d="M17.8,12.9h-2.5c-0.2,0-0.4-0.2-0.4-0.4V10c0-0.2,0.2-0.4,0.4-0.4s0.4,0.2,0.4,0.4v2.1h2.1
					c0.2,0,0.4,0.2,0.4,0.4S18,12.9,17.8,12.9z"/>
			</g>
			<g>
				<polyline fill="#FFFFFF" points="21.8,12.5 19.3,12.5 19.3,10 				"/>
				<path fill="#37474F" d="M21.8,12.9h-2.5c-0.2,0-0.4-0.2-0.4-0.4V10c0-0.2,0.2-0.4,0.4-0.4s0.4,0.2,0.4,0.4v2.1h2.1
					c0.2,0,0.4,0.2,0.4,0.4S22,12.9,21.8,12.9z"/>
			</g>
		</g>
		<g>
			<g>
				<polyline fill="#FFFFFF" points="13.7,17.2 11.2,17.2 11.2,14.6 				"/>
				<path fill="#37474F" d="M13.7,17.5h-2.5c-0.2,0-0.4-0.2-0.4-0.4v-2.5c0-0.2,0.2-0.4,0.4-0.4s0.4,0.2,0.4,0.4v2.1h2.1
					c0.2,0,0.4,0.2,0.4,0.4S13.9,17.5,13.7,17.5z"/>
			</g>
			<g>
				<polyline fill="#FFFFFF" points="17.8,17.2 15.2,17.2 15.2,14.6 				"/>
				<path fill="#37474F" d="M17.8,17.5h-2.5c-0.2,0-0.4-0.2-0.4-0.4v-2.5c0-0.2,0.2-0.4,0.4-0.4s0.4,0.2,0.4,0.4v2.1h2.1
					c0.2,0,0.4,0.2,0.4,0.4S18,17.5,17.8,17.5z"/>
			</g>
			<g>
				<polyline fill="#FFFFFF" points="21.8,17.2 19.3,17.2 19.3,14.6 				"/>
				<path fill="#37474F" d="M21.8,17.5h-2.5c-0.2,0-0.4-0.2-0.4-0.4v-2.5c0-0.2,0.2-0.4,0.4-0.4s0.4,0.2,0.4,0.4v2.1h2.1
					c0.2,0,0.4,0.2,0.4,0.4S22,17.5,21.8,17.5z"/>
			</g>
		</g>
		<g>
			<g>
				<polyline fill="#FFFFFF" points="13.7,21.8 11.2,21.8 11.2,19.3 				"/>
				<path fill="#37474F" d="M13.7,22.2h-2.5c-0.2,0-0.4-0.2-0.4-0.4v-2.5c0-0.2,0.2-0.4,0.4-0.4s0.4,0.2,0.4,0.4v2.1h2.1
					c0.2,0,0.4,0.2,0.4,0.4S13.9,22.2,13.7,22.2z"/>
			</g>
			<g>
				<polyline fill="#FFFFFF" points="17.8,21.8 15.2,21.8 15.2,19.3 				"/>
				<path fill="#37474F" d="M17.8,22.2h-2.5c-0.2,0-0.4-0.2-0.4-0.4v-2.5c0-0.2,0.2-0.4,0.4-0.4s0.4,0.2,0.4,0.4v2.1h2.1
					c0.2,0,0.4,0.2,0.4,0.4S18,22.2,17.8,22.2z"/>
			</g>
			<g>
				<polyline fill="#FFFFFF" points="21.8,21.8 19.3,21.8 19.3,19.3 				"/>
				<path fill="#37474F" d="M21.8,22.2h-2.5c-0.2,0-0.4-0.2-0.4-0.4v-2.5c0-0.2,0.2-0.4,0.4-0.4s0.4,0.2,0.4,0.4v2.1h2.1
					c0.2,0,0.4,0.2,0.4,0.4S22,22.2,21.8,22.2z"/>
			</g>
		</g>
		<g>
			<g>
				<polyline fill="#FFFFFF" points="13.7,26.5 11.2,26.5 11.2,24 				"/>
				<path fill="#37474F" d="M13.7,26.9h-2.5c-0.2,0-0.4-0.2-0.4-0.4V24c0-0.2,0.2-0.4,0.4-0.4s0.4,0.2,0.4,0.4v2.1h2.1
					c0.2,0,0.4,0.2,0.4,0.4S13.9,26.9,13.7,26.9z"/>
			</g>
			<g>
				<polyline fill="#FFFFFF" points="17.8,26.5 15.2,26.5 15.2,24 				"/>
				<path fill="#37474F" d="M17.8,26.9h-2.5c-0.2,0-0.4-0.2-0.4-0.4V24c0-0.2,0.2-0.4,0.4-0.4s0.4,0.2,0.4,0.4v2.1h2.1
					c0.2,0,0.4,0.2,0.4,0.4S18,26.9,17.8,26.9z"/>
			</g>
			<g>
				<polyline fill="#FFFFFF" points="21.8,26.5 19.3,26.5 19.3,24 				"/>
				<path fill="#37474F" d="M21.8,26.9h-2.5c-0.2,0-0.4-0.2-0.4-0.4V24c0-0.2,0.2-0.4,0.4-0.4s0.4,0.2,0.4,0.4v2.1h2.1
					c0.2,0,0.4,0.2,0.4,0.4S22,26.9,21.8,26.9z"/>
			</g>
		</g>
		<g>
			<g>
				<line fill="#FFFFFF" x1="11.2" y1="31.2" x2="11.2" y2="28.6"/>
				<path fill="#37474F" d="M11.2,31.5c-0.2,0-0.4-0.2-0.4-0.4v-2.5c0-0.2,0.2-0.4,0.4-0.4s0.4,0.2,0.4,0.4v2.5
					C11.5,31.4,11.4,31.5,11.2,31.5z"/>
			</g>
			<g>
				<line fill="#FFFFFF" x1="21.8" y1="31.2" x2="21.8" y2="28.6"/>
				<path fill="#37474F" d="M21.8,31.5c-0.2,0-0.4-0.2-0.4-0.4v-2.5c0-0.2,0.2-0.4,0.4-0.4s0.4,0.2,0.4,0.4v2.5
					C22.2,31.4,22.1,31.5,21.8,31.5z"/>
			</g>
		</g>
		<g>
			<rect x="15.1" y="28.1" fill="#FFECB3" width="2.9" height="4"/>
			<path fill="#37474F" d="M17.9,32.6h-2.9c-0.3,0-0.5-0.2-0.5-0.5v-4c0-0.3,0.2-0.5,0.5-0.5h2.9c0.3,0,0.5,0.2,0.5,0.5v4
				C18.4,32.4,18.2,32.6,17.9,32.6z M15.6,31.6h1.9v-3h-1.9V31.6z"/>
		</g>
		<g>
			<g>
				<g>
					<rect x="3.4" y="21.1" fill="#FFECB3" width="6" height="11.1"/>
					<path fill="#37474F" d="M9.4,32.7h-6c-0.3,0-0.5-0.2-0.5-0.5V21.1c0-0.3,0.2-0.5,0.5-0.5h6c0.3,0,0.5,0.2,0.5,0.5v11.1
						C9.9,32.5,9.7,32.7,9.4,32.7z M3.9,31.7h5V21.6h-5V31.7z"/>
				</g>
				<g>
					<line fill="#FFECB3" x1="6.4" y1="21.1" x2="6.4" y2="31.7"/>
					<path fill="#37474F" d="M6.4,32.2c-0.3,0-0.5-0.2-0.5-0.5V21.1c0-0.3,0.2-0.5,0.5-0.5s0.5,0.2,0.5,0.5v10.6
						C6.9,32,6.7,32.2,6.4,32.2z"/>
				</g>
				<g>
					<line fill="#FFECB3" x1="3.5" y1="23.9" x2="8.9" y2="23.9"/>
					<path fill="#37474F" d="M8.9,24.4H3.5c-0.3,0-0.5-0.2-0.5-0.5s0.2-0.5,0.5-0.5h5.4c0.3,0,0.5,0.2,0.5,0.5S9.2,24.4,8.9,24.4z"
						/>
				</g>
				<g>
					<line fill="#FFECB3" x1="3.5" y1="26.5" x2="8.9" y2="26.5"/>
					<path fill="#37474F" d="M8.9,27H3.5C3.2,27,3,26.8,3,26.5S3.2,26,3.5,26h5.4c0.3,0,0.5,0.2,0.5,0.5S9.2,27,8.9,27z"/>
				</g>
				<g>
					<line fill="#FFECB3" x1="3.5" y1="29.1" x2="8.9" y2="29.1"/>
					<path fill="#37474F" d="M8.9,29.6H3.5c-0.3,0-0.5-0.2-0.5-0.5s0.2-0.5,0.5-0.5h5.4c0.3,0,0.5,0.2,0.5,0.5S9.2,29.6,8.9,29.6z"
						/>
				</g>
			</g>
			<g>
				<g>
					<rect x="23.6" y="21.1" fill="#FFECB3" width="6" height="11.1"/>
					<path fill="#37474F" d="M29.6,32.7h-6c-0.3,0-0.5-0.2-0.5-0.5V21.1c0-0.3,0.2-0.5,0.5-0.5h6c0.3,0,0.5,0.2,0.5,0.5v11.1
						C30.1,32.5,29.9,32.7,29.6,32.7z M24.1,31.7h5V21.6h-5V31.7z"/>
				</g>
				<g>
					<line fill="#FFECB3" x1="26.6" y1="21.1" x2="26.6" y2="31.7"/>
					<path fill="#37474F" d="M26.6,32.2c-0.3,0-0.5-0.2-0.5-0.5V21.1c0-0.3,0.2-0.5,0.5-0.5s0.5,0.2,0.5,0.5v10.6
						C27.1,32,26.9,32.2,26.6,32.2z"/>
				</g>
				<g>
					<line fill="#FFECB3" x1="23.8" y1="23.9" x2="29.1" y2="23.9"/>
					<path fill="#37474F" d="M29.1,24.4h-5.4c-0.3,0-0.5-0.2-0.5-0.5s0.2-0.5,0.5-0.5h5.4c0.3,0,0.5,0.2,0.5,0.5
						S29.4,24.4,29.1,24.4z"/>
				</g>
				<g>
					<line fill="#FFECB3" x1="23.8" y1="26.5" x2="29.1" y2="26.5"/>
					<path fill="#37474F" d="M29.1,27h-5.4c-0.3,0-0.5-0.2-0.5-0.5s0.2-0.5,0.5-0.5h5.4c0.3,0,0.5,0.2,0.5,0.5S29.4,27,29.1,27z"/>
				</g>
				<g>
					<line fill="#FFECB3" x1="23.8" y1="29.1" x2="29.1" y2="29.1"/>
					<path fill="#37474F" d="M29.1,29.6h-5.4c-0.3,0-0.5-0.2-0.5-0.5s0.2-0.5,0.5-0.5h5.4c0.3,0,0.5,0.2,0.5,0.5
						S29.4,29.6,29.1,29.6z"/>
				</g>
			</g>
		</g>
		<g>
			<rect x="11.6" y="5.3" fill="#FFECB3" width="9.9" height="2.1"/>
			<path fill="#37474F" d="M21.4,8h-9.9c-0.3,0-0.5-0.2-0.5-0.5V5.3c0-0.3,0.2-0.5,0.5-0.5h9.9c0.3,0,0.5,0.2,0.5,0.5v2.1
				C21.9,7.7,21.7,8,21.4,8z M12.1,7h8.9V5.8h-8.9V7z"/>
		</g>
	</g>
</g>
</svg>
