<?xml version="1.0" encoding="utf-8"?>
<!-- Generator: Adobe Illustrator 16.0.0, SVG Export Plug-In . SVG Version: 6.00 Build 0)  -->
<!DOCTYPE svg PUBLIC "-//W3C//DTD SVG 1.1//EN" "http://www.w3.org/Graphics/SVG/1.1/DTD/svg11.dtd">
<svg version="1.1" id="Layer_1" xmlns="http://www.w3.org/2000/svg" xmlns:xlink="http://www.w3.org/1999/xlink" x="0px" y="0px"
	 width="32px" height="32px" viewBox="0 0 32 32" enable-background="new 0 0 32 32" xml:space="preserve">
<g>
	<g>
		<line fill="#FFECB3" x1="2" y1="27.5" x2="30" y2="27.5"/>
		<path fill="#37474F" d="M30,28H2c-0.3,0-0.5-0.2-0.5-0.5S1.7,27,2,27h28c0.3,0,0.5,0.2,0.5,0.5S30.3,28,30,28z"/>
	</g>
	<g>
		<g>
			<g>
				<polyline fill="#FFAB00" points="2.6,13.3 16,4.1 29.4,13.3 				"/>
				<path fill="#37474F" d="M29.4,13.8c-0.1,0-0.2,0-0.3-0.1L16,4.7l-13.1,9c-0.2,0.2-0.5,0.1-0.7-0.1c-0.2-0.2-0.1-0.5,0.1-0.7
					l13.4-9.2c0.2-0.1,0.4-0.1,0.6,0l13.4,9.2c0.2,0.2,0.3,0.5,0.1,0.7C29.7,13.7,29.5,13.8,29.4,13.8z"/>
			</g>
			<g>
				<polyline fill="#FFECB3" points="25.5,13 25.5,27.5 6.5,27.5 6.5,13 				"/>
				<path fill="#37474F" d="M25.5,28h-19C6.2,28,6,27.8,6,27.5V13c0-0.3,0.2-0.5,0.5-0.5S7,12.7,7,13v14h18V13
					c0-0.3,0.2-0.5,0.5-0.5S26,12.7,26,13v14.5C26,27.8,25.8,28,25.5,28z"/>
			</g>
			<g>
				<rect x="9.5" y="15.5" fill="#FFECB3" width="13" height="12"/>
				<path fill="#37474F" d="M22.5,28h-13C9.2,28,9,27.8,9,27.5v-12C9,15.2,9.2,15,9.5,15h13c0.3,0,0.5,0.2,0.5,0.5v12
					C23,27.8,22.8,28,22.5,28z M10,27h12V16H10V27z"/>
			</g>
		</g>
		<g>
			<g>
				<line fill="#FFECB3" x1="10" y1="18.5" x2="22" y2="18.5"/>
				<path fill="#37474F" d="M22,19H10c-0.3,0-0.5-0.2-0.5-0.5S9.7,18,10,18h12c0.3,0,0.5,0.2,0.5,0.5S22.3,19,22,19z"/>
			</g>
			<g>
				<line fill="#FFECB3" x1="10" y1="21.5" x2="22" y2="21.5"/>
				<path fill="#37474F" d="M22,22H10c-0.3,0-0.5-0.2-0.5-0.5S9.7,21,10,21h12c0.3,0,0.5,0.2,0.5,0.5S22.3,22,22,22z"/>
			</g>
			<g>
				<line fill="#FFECB3" x1="10" y1="24.5" x2="22" y2="24.5"/>
				<path fill="#37474F" d="M22,25H10c-0.3,0-0.5-0.2-0.5-0.5S9.7,24,10,24h12c0.3,0,0.5,0.2,0.5,0.5S22.3,25,22,25z"/>
			</g>
		</g>
	</g>
</g>
</svg>
