<?xml version="1.0" encoding="utf-8"?>
<!-- Generator: Adobe Illustrator 16.0.0, SVG Export Plug-In . SVG Version: 6.00 Build 0)  -->
<!DOCTYPE svg PUBLIC "-//W3C//DTD SVG 1.1//EN" "http://www.w3.org/Graphics/SVG/1.1/DTD/svg11.dtd">
<svg version="1.1" id="Layer_1" xmlns="http://www.w3.org/2000/svg" xmlns:xlink="http://www.w3.org/1999/xlink" x="0px" y="0px"
	 width="130px" height="130px" viewBox="0 0 130 130" enable-background="new 0 0 130 130" xml:space="preserve">
<g>
	<g>
		<polyline fill="#B0BEC5" points="52.3,21.1 65,2.2 76.4,20.3 		"/>
		<path fill="#37474F" d="M52.3,23.1c-0.4,0-0.8-0.1-1.1-0.3c-0.9-0.6-1.2-1.9-0.6-2.8L63.3,1.1c0.4-0.6,1-0.9,1.7-0.9
			c0.7,0,1.3,0.4,1.7,0.9l11.4,18.2c0.6,0.9,0.3,2.2-0.6,2.8c-0.9,0.6-2.2,0.3-2.8-0.6L65,5.8L54,22.2C53.6,22.8,53,23.1,52.3,23.1z
			"/>
	</g>
	<g>
		<g>
			<rect x="37" y="29" fill="#78909C" width="56" height="98"/>
			<path fill="#37474F" d="M93,129H37c-1.1,0-2-0.9-2-2V29c0-1.1,0.9-2,2-2h56c1.1,0,2,0.9,2,2v98C95,128.1,94.1,129,93,129z
				 M39,125h52V31H39V125z"/>
		</g>
		<g>
			<g>
				<polyline fill="#FFFFFF" points="54,47.5 43.5,47.5 43.5,38 				"/>
				<path fill="#37474F" d="M54,49H43.5c-0.8,0-1.5-0.7-1.5-1.5V38c0-0.8,0.7-1.5,1.5-1.5S45,37.2,45,38v8h9c0.8,0,1.5,0.7,1.5,1.5
					S54.8,49,54,49z"/>
			</g>
			<g>
				<polyline fill="#FFFFFF" points="70,47.5 59.5,47.5 59.5,38 				"/>
				<path fill="#37474F" d="M70,49H59.5c-0.8,0-1.5-0.7-1.5-1.5V38c0-0.8,0.7-1.5,1.5-1.5S61,37.2,61,38v8h9c0.8,0,1.5,0.7,1.5,1.5
					S70.8,49,70,49z"/>
			</g>
			<g>
				<polyline fill="#FFFFFF" points="86,47.5 76.5,47.5 76.5,38 				"/>
				<path fill="#37474F" d="M86,49h-9.5c-0.8,0-1.5-0.7-1.5-1.5V38c0-0.8,0.7-1.5,1.5-1.5S78,37.2,78,38v8h8c0.8,0,1.5,0.7,1.5,1.5
					S86.8,49,86,49z"/>
			</g>
		</g>
		<g>
			<g>
				<polyline fill="#FFFFFF" points="54,66.5 43.5,66.5 43.5,57 				"/>
				<path fill="#37474F" d="M54,68H43.5c-0.8,0-1.5-0.7-1.5-1.5V57c0-0.8,0.7-1.5,1.5-1.5S45,56.2,45,57v8h9c0.8,0,1.5,0.7,1.5,1.5
					C55.5,67.3,54.8,68,54,68z"/>
			</g>
			<g>
				<polyline fill="#FFFFFF" points="70,66.5 59.5,66.5 59.5,57 				"/>
				<path fill="#37474F" d="M70,68H59.5c-0.8,0-1.5-0.7-1.5-1.5V57c0-0.8,0.7-1.5,1.5-1.5S61,56.2,61,57v8h9c0.8,0,1.5,0.7,1.5,1.5
					C71.5,67.3,70.8,68,70,68z"/>
			</g>
			<g>
				<polyline fill="#FFFFFF" points="86,66.5 76.5,66.5 76.5,57 				"/>
				<path fill="#37474F" d="M86,68h-9.5c-0.8,0-1.5-0.7-1.5-1.5V57c0-0.8,0.7-1.5,1.5-1.5S78,56.2,78,57v8h8c0.8,0,1.5,0.7,1.5,1.5
					C87.5,67.3,86.8,68,86,68z"/>
			</g>
		</g>
		<g>
			<g>
				<polyline fill="#FFFFFF" points="54,85.5 43.5,85.5 43.5,75 				"/>
				<path fill="#37474F" d="M54,87H43.5c-0.8,0-1.5-0.7-1.5-1.5V75c0-0.8,0.7-1.5,1.5-1.5S45,74.2,45,75v9h9c0.8,0,1.5,0.7,1.5,1.5
					S54.8,87,54,87z"/>
			</g>
			<g>
				<polyline fill="#FFFFFF" points="70,85.5 59.5,85.5 59.5,75 				"/>
				<path fill="#37474F" d="M70,87H59.5c-0.8,0-1.5-0.7-1.5-1.5V75c0-0.8,0.7-1.5,1.5-1.5S61,74.2,61,75v9h9c0.8,0,1.5,0.7,1.5,1.5
					S70.8,87,70,87z"/>
			</g>
			<g>
				<polyline fill="#FFFFFF" points="86,85.5 76.5,85.5 76.5,75 				"/>
				<path fill="#37474F" d="M86,87h-9.5c-0.8,0-1.5-0.7-1.5-1.5V75c0-0.8,0.7-1.5,1.5-1.5S78,74.2,78,75v9h8c0.8,0,1.5,0.7,1.5,1.5
					S86.8,87,86,87z"/>
			</g>
		</g>
		<g>
			<g>
				<polyline fill="#FFFFFF" points="54,103.5 43.5,103.5 43.5,94 				"/>
				<path fill="#37474F" d="M54,105H43.5c-0.8,0-1.5-0.7-1.5-1.5V94c0-0.8,0.7-1.5,1.5-1.5S45,93.2,45,94v8h9c0.8,0,1.5,0.7,1.5,1.5
					S54.8,105,54,105z"/>
			</g>
			<g>
				<polyline fill="#FFFFFF" points="70,103.5 59.5,103.5 59.5,94 				"/>
				<path fill="#37474F" d="M70,105H59.5c-0.8,0-1.5-0.7-1.5-1.5V94c0-0.8,0.7-1.5,1.5-1.5S61,93.2,61,94v8h9c0.8,0,1.5,0.7,1.5,1.5
					S70.8,105,70,105z"/>
			</g>
			<g>
				<polyline fill="#FFFFFF" points="86,103.5 76.5,103.5 76.5,94 				"/>
				<path fill="#37474F" d="M86,105h-9.5c-0.8,0-1.5-0.7-1.5-1.5V94c0-0.8,0.7-1.5,1.5-1.5S78,93.2,78,94v8h8c0.8,0,1.5,0.7,1.5,1.5
					S86.8,105,86,105z"/>
			</g>
		</g>
		<g>
			<g>
				<line fill="#FFFFFF" x1="43.5" y1="123" x2="43.5" y2="113"/>
				<path fill="#37474F" d="M43.5,124.5c-0.8,0-1.5-0.7-1.5-1.5v-10c0-0.8,0.7-1.5,1.5-1.5s1.5,0.7,1.5,1.5v10
					C45,123.8,44.3,124.5,43.5,124.5z"/>
			</g>
			<g>
				<line fill="#FFFFFF" x1="86.5" y1="123" x2="86.5" y2="113"/>
				<path fill="#37474F" d="M86.5,124.5c-0.8,0-1.5-0.7-1.5-1.5v-10c0-0.8,0.7-1.5,1.5-1.5s1.5,0.7,1.5,1.5v10
					C88,123.8,87.3,124.5,86.5,124.5z"/>
			</g>
		</g>
		<g>
			<rect x="59" y="110" fill="#FFAB00" width="12" height="16"/>
			<path fill="#37474F" d="M71,128H59c-1.1,0-2-0.9-2-2v-16c0-1.1,0.9-2,2-2h12c1.1,0,2,0.9,2,2v16C73,127.1,72.1,128,71,128z
				 M61,124h8v-12h-8V124z"/>
		</g>
		<g>
			<g>
				<g>
					<rect x="12" y="82" fill="#FFAB00" width="24" height="45"/>
					<path fill="#37474F" d="M36,129H12c-1.1,0-2-0.9-2-2V82c0-1.1,0.9-2,2-2h24c1.1,0,2,0.9,2,2v45C38,128.1,37.1,129,36,129z
						 M14,125h20V84H14V125z"/>
				</g>
				<g>
					<line fill="#FFECB3" x1="24" y1="82" x2="24" y2="125"/>
					<path fill="#37474F" d="M24,127c-1.1,0-2-0.9-2-2V82c0-1.1,0.9-2,2-2s2,0.9,2,2v43C26,126.1,25.1,127,24,127z"/>
				</g>
				<g>
					<line fill="#FFECB3" x1="13" y1="94" x2="34" y2="94"/>
					<path fill="#37474F" d="M34,96H13c-1.1,0-2-0.9-2-2s0.9-2,2-2h21c1.1,0,2,0.9,2,2S35.1,96,34,96z"/>
				</g>
				<g>
					<line fill="#FFECB3" x1="13" y1="104" x2="34" y2="104"/>
					<path fill="#37474F" d="M34,106H13c-1.1,0-2-0.9-2-2s0.9-2,2-2h21c1.1,0,2,0.9,2,2S35.1,106,34,106z"/>
				</g>
				<g>
					<line fill="#FFECB3" x1="13" y1="114" x2="34" y2="114"/>
					<path fill="#37474F" d="M34,116H13c-1.1,0-2-0.9-2-2s0.9-2,2-2h21c1.1,0,2,0.9,2,2S35.1,116,34,116z"/>
				</g>
			</g>
			<g>
				<g>
					<rect x="93" y="82" fill="#FFAB00" width="24" height="45"/>
					<path fill="#37474F" d="M117,129H93c-1.1,0-2-0.9-2-2V82c0-1.1,0.9-2,2-2h24c1.1,0,2,0.9,2,2v45C119,128.1,118.1,129,117,129z
						 M95,125h20V84H95V125z"/>
				</g>
				<g>
					<line fill="#FFECB3" x1="105" y1="82" x2="105" y2="125"/>
					<path fill="#37474F" d="M105,127c-1.1,0-2-0.9-2-2V82c0-1.1,0.9-2,2-2s2,0.9,2,2v43C107,126.1,106.1,127,105,127z"/>
				</g>
				<g>
					<line fill="#FFECB3" x1="94" y1="94" x2="115" y2="94"/>
					<path fill="#37474F" d="M115,96H94c-1.1,0-2-0.9-2-2s0.9-2,2-2h21c1.1,0,2,0.9,2,2S116.1,96,115,96z"/>
				</g>
				<g>
					<line fill="#FFECB3" x1="94" y1="104" x2="115" y2="104"/>
					<path fill="#37474F" d="M115,106H94c-1.1,0-2-0.9-2-2s0.9-2,2-2h21c1.1,0,2,0.9,2,2S116.1,106,115,106z"/>
				</g>
				<g>
					<line fill="#FFECB3" x1="94" y1="114" x2="115" y2="114"/>
					<path fill="#37474F" d="M115,116H94c-1.1,0-2-0.9-2-2s0.9-2,2-2h21c1.1,0,2,0.9,2,2S116.1,116,115,116z"/>
				</g>
			</g>
		</g>
		<g>
			<rect x="45" y="20" fill="#FFECB3" width="40" height="9"/>
			<path fill="#37474F" d="M85,31H45c-1.1,0-2-0.9-2-2v-9c0-1.1,0.9-2,2-2h40c1.1,0,2,0.9,2,2v9C87,30.1,86.1,31,85,31z M47,27h36
				v-5H47V27z"/>
		</g>
	</g>
</g>
</svg>
