<?xml version="1.0" encoding="utf-8"?>
<!-- Generator: Adobe Illustrator 16.0.0, SVG Export Plug-In . SVG Version: 6.00 Build 0)  -->
<!DOCTYPE svg PUBLIC "-//W3C//DTD SVG 1.1//EN" "http://www.w3.org/Graphics/SVG/1.1/DTD/svg11.dtd">
<svg version="1.1" id="Layer_1" xmlns="http://www.w3.org/2000/svg" xmlns:xlink="http://www.w3.org/1999/xlink" x="0px" y="0px"
	 width="128.9px" height="128px" viewBox="0 0 128.9 128" enable-background="new 0 0 128.9 128" xml:space="preserve">
<g>
	<g>
		<path fill="#FFFFFF" d="M120.9,71v13.3c0,12.1-9.6,21.7-21.7,21.7H30.6c-12.1,0-21.7-9.6-21.7-21.7V71"/>
		<path fill="#37474F" d="M99.2,108H30.6C17.3,108,6.9,97.6,6.9,84.3V71c0-1.1,0.9-2,2-2s2,0.9,2,2v13.3c0,11,8.6,19.7,19.7,19.7
			h68.7c11,0,19.7-8.6,19.7-19.7V71c0-1.1,0.9-2,2-2s2,0.9,2,2v13.3C122.9,97.6,112.5,108,99.2,108z"/>
	</g>
	<g>
		<g>
			<line fill="#FFFFFF" x1="11.9" y1="116.2" x2="22.4" y2="105.8"/>
			<path fill="#37474F" d="M11.9,118.2c-0.5,0-1-0.2-1.4-0.6c-0.8-0.8-0.8-2,0-2.8L21,104.3c0.8-0.8,2-0.8,2.8,0s0.8,2,0,2.8
				l-10.5,10.5C12.9,118.1,12.4,118.2,11.9,118.2z"/>
		</g>
		<g>
			<line fill="#FFFFFF" x1="117.9" y1="116.2" x2="107.4" y2="105.8"/>
			<path fill="#37474F" d="M117.9,118.2c-0.5,0-1-0.2-1.4-0.6L106,107.2c-0.8-0.8-0.8-2,0-2.8s2-0.8,2.8,0l10.5,10.5
				c0.8,0.8,0.8,2,0,2.8C118.9,118.1,118.4,118.2,117.9,118.2z"/>
		</g>
	</g>
	<g>
		<path fill="#FFAB00" d="M125.9,63.5c0,3.6-2.9,6.5-6.5,6.5H9.4c-3.6,0-6.5-2.9-6.5-6.5l0,0c0-3.6,2.9-6.5,6.5-6.5h110
			C123,57,125.9,59.9,125.9,63.5L125.9,63.5z"/>
		<path fill="#37474F" d="M119.4,72H9.4c-4.7,0-8.5-3.8-8.5-8.5c0-4.7,3.8-8.5,8.5-8.5h110c4.7,0,8.5,3.8,8.5,8.5
			C127.9,68.2,124.1,72,119.4,72z M9.4,59c-2.5,0-4.5,2-4.5,4.5s2,4.5,4.5,4.5h110c2.5,0,4.5-2,4.5-4.5s-2-4.5-4.5-4.5H9.4z"/>
	</g>
	<g>
		<g>
			<path fill="#FFECB3" d="M13.9,47V21.8c0-5.5,4.1-9.8,9.6-9.8h4.7c5.5,0,10.2,4.3,10.2,9.8"/>
			<path fill="#37474F" d="M13.9,49c-1.1,0-2-0.9-2-2V21.8c0-6.7,5-11.8,11.6-11.8h4.7c6.7,0,12.2,5.3,12.2,11.8c0,1.1-0.9,2-2,2
				s-2-0.9-2-2c0-4.3-3.7-7.8-8.2-7.8h-4.7c-4.4,0-7.6,3.3-7.6,7.8V47C15.9,48.1,15,49,13.9,49z"/>
		</g>
		<g>
			<line fill="#FFECB3" x1="8.9" y1="49" x2="18.9" y2="49"/>
			<path fill="#37474F" d="M18.9,51h-10c-1.1,0-2-0.9-2-2s0.9-2,2-2h10c1.1,0,2,0.9,2,2S20,51,18.9,51z"/>
		</g>
	</g>
</g>
</svg>
