<?xml version="1.0" encoding="utf-8"?>
<!-- Generator: Adobe Illustrator 16.0.0, SVG Export Plug-In . SVG Version: 6.00 Build 0)  -->
<!DOCTYPE svg PUBLIC "-//W3C//DTD SVG 1.1//EN" "http://www.w3.org/Graphics/SVG/1.1/DTD/svg11.dtd">
<svg version="1.1" id="Layer_1" xmlns="http://www.w3.org/2000/svg" xmlns:xlink="http://www.w3.org/1999/xlink" x="0px" y="0px"
	 width="128px" height="128px" viewBox="0 0 128 128" enable-background="new 0 0 128 128" xml:space="preserve">
<g>
	<g>
		<g>
			<line fill="#FFFFFF" x1="19" y1="125" x2="19" y2="3"/>
			<path fill="#37474F" d="M19,127c-1.1,0-2-0.9-2-2V3c0-1.1,0.9-2,2-2s2,0.9,2,2v122C21,126.1,20.1,127,19,127z"/>
		</g>
		<g>
			<line fill="#FFFFFF" x1="125" y1="12" x2="3" y2="12"/>
			<path fill="#37474F" d="M125,14H3c-1.1,0-2-0.9-2-2s0.9-2,2-2h122c1.1,0,2,0.9,2,2S126.1,14,125,14z"/>
		</g>
		<g>
			<polyline fill="#FFECB3" points="111,34 123,34 123,109 32,109 32,34 44,34 			"/>
			<path fill="#37474F" d="M123,111H32c-1.1,0-2-0.9-2-2V34c0-1.1,0.9-2,2-2h12c1.1,0,2,0.9,2,2s-0.9,2-2,2H34v71h87V36h-10
				c-1.1,0-2-0.9-2-2s0.9-2,2-2h12c1.1,0,2,0.9,2,2v75C125,110.1,124.1,111,123,111z"/>
		</g>
		<g>
			<line fill="#FFECB3" x1="62" y1="34" x2="93" y2="34"/>
			<path fill="#37474F" d="M93,36H62c-1.1,0-2-0.9-2-2s0.9-2,2-2h31c1.1,0,2,0.9,2,2S94.1,36,93,36z"/>
		</g>
		<g>
			<g>
				<circle fill="#FFECB3" cx="53" cy="35.9" r="5.8"/>
				<path fill="#37474F" d="M53,43.7c-4.3,0-7.8-3.5-7.8-7.8c0-4.3,3.5-7.8,7.8-7.8c4.3,0,7.8,3.5,7.8,7.8
					C60.8,40.2,57.3,43.7,53,43.7z M53,32.1c-2.1,0-3.8,1.7-3.8,3.8c0,2.1,1.7,3.8,3.8,3.8s3.8-1.7,3.8-3.8
					C56.8,33.8,55.1,32.1,53,32.1z"/>
			</g>
			<g>
				<circle fill="#FFECB3" cx="101.7" cy="35.9" r="5.8"/>
				<path fill="#37474F" d="M101.7,43.7c-4.3,0-7.8-3.5-7.8-7.8c0-4.3,3.5-7.8,7.8-7.8c4.3,0,7.8,3.5,7.8,7.8
					C109.5,40.2,106,43.7,101.7,43.7z M101.7,32.1c-2.1,0-3.8,1.7-3.8,3.8c0,2.1,1.7,3.8,3.8,3.8c2.1,0,3.8-1.7,3.8-3.8
					C105.5,33.8,103.8,32.1,101.7,32.1z"/>
			</g>
		</g>
		<g>
			<line fill="#FFECB3" x1="53" y1="19" x2="53" y2="30"/>
			<path fill="#37474F" d="M53,32c-1.1,0-2-0.9-2-2V19c0-1.1,0.9-2,2-2s2,0.9,2,2v11C55,31.1,54.1,32,53,32z"/>
		</g>
		<g>
			<line fill="#FFECB3" x1="101" y1="19" x2="101" y2="30"/>
			<path fill="#37474F" d="M101,32c-1.1,0-2-0.9-2-2V19c0-1.1,0.9-2,2-2s2,0.9,2,2v11C103,31.1,102.1,32,101,32z"/>
		</g>
	</g>
	<g>
		<g>
			<path d="M45.1,48.9h10.2v2h-7.7v6.3h7.1v2h-7.1v8.5h-2.4V48.9z"/>
			<polygon fill="#37474F" points="49.1,69.3 43.6,69.3 43.6,47.4 56.8,47.4 56.8,52.4 49.1,52.4 49.1,55.7 56.2,55.7 56.2,60.7 
				49.1,60.7 			"/>
		</g>
		<g>
			<path d="M78.9,58.1c0,6.5-3.9,9.9-8.8,9.9c-5,0-8.5-3.9-8.5-9.6c0-6,3.7-9.9,8.8-9.9C75.6,48.6,78.9,52.5,78.9,58.1z M64.3,58.4
				c0,4,2.2,7.6,6,7.6c3.9,0,6-3.6,6-7.8c0-3.8-2-7.7-6-7.7C66.3,50.6,64.3,54.3,64.3,58.4z"/>
			<path fill="#37474F" d="M70.1,69.6c-5.9,0-10-4.6-10-11.1c0-6.7,4.2-11.4,10.3-11.4c5.9,0,10,4.5,10,11
				C80.4,66,75.2,69.6,70.1,69.6z M70.3,52.1c-3.4,0-4.5,3.4-4.5,6.4c0,3,1.4,6.1,4.5,6.1c3.1,0,4.5-3.2,4.5-6.3
				C74.8,55.3,73.4,52.1,70.3,52.1z"/>
		</g>
		<g>
			<path d="M86.1,49.1c1.2-0.3,3-0.4,4.7-0.4c2.6,0,4.3,0.5,5.5,1.5c1,0.8,1.5,2.1,1.5,3.6c0,2.5-1.6,4.1-3.6,4.8v0.1
				c1.5,0.5,2.3,1.8,2.8,3.8c0.6,2.6,1.1,4.5,1.5,5.2h-2.5c-0.3-0.5-0.7-2.2-1.3-4.5c-0.6-2.6-1.6-3.6-3.8-3.7h-2.3v8.2h-2.4V49.1z
				 M88.5,57.7H91c2.6,0,4.3-1.4,4.3-3.6c0-2.4-1.8-3.5-4.3-3.5c-1.2,0-2,0.1-2.4,0.2V57.7z"/>
			<path fill="#37474F" d="M100.9,69.3H95l-0.4-0.7c-0.4-0.6-0.7-1.9-1.4-4.9c-0.5-2.2-1.1-2.5-2.4-2.5l-0.7,0v8.2h-5.4V47.9
				l1.2-0.2c1.3-0.3,3.2-0.4,5-0.4c3,0,5,0.6,6.5,1.9c1.3,1.1,2,2.8,2,4.7c0,2-0.9,3.8-2.3,5c0.7,0.8,1.2,2,1.5,3.4
				c0.4,1.7,1,4.2,1.3,4.8L100.9,69.3z M90,56.2h1c0.8,0,2.8-0.2,2.8-2.1c0-0.6,0-2-2.8-2c-0.3,0-0.6,0-0.9,0V56.2z"/>
		</g>
		<g>
			<path d="M45.1,77.1c1.2-0.3,3-0.4,4.7-0.4c2.6,0,4.3,0.5,5.5,1.5c1,0.8,1.5,2.1,1.5,3.6c0,2.5-1.6,4.1-3.6,4.8v0.1
				c1.5,0.5,2.3,1.8,2.8,3.8c0.6,2.6,1.1,4.5,1.5,5.2h-2.5c-0.3-0.5-0.7-2.2-1.3-4.5c-0.6-2.6-1.6-3.6-3.8-3.7h-2.3v8.2h-2.4V77.1z
				 M47.6,85.7h2.5c2.6,0,4.3-1.4,4.3-3.6c0-2.4-1.8-3.5-4.3-3.5c-1.2,0-2,0.1-2.4,0.2V85.7z"/>
			<path fill="#37474F" d="M59.9,97.3H54l-0.4-0.7c-0.4-0.6-0.7-1.9-1.4-4.9c-0.5-2.2-1.1-2.5-2.4-2.5l-0.7,0v8.2h-5.4V75.9l1.2-0.2
				c1.3-0.3,3.2-0.4,5-0.4c3,0,5,0.6,6.5,1.9c1.3,1.1,2,2.8,2,4.7c0,2-0.9,3.8-2.3,5c0.7,0.8,1.2,2,1.5,3.4c0.4,1.7,1,4.2,1.3,4.8
				L59.9,97.3z M49.1,84.2h1c0.8,0,2.8-0.2,2.8-2.1c0-0.6,0-2-2.8-2c-0.3,0-0.6,0-0.9,0V84.2z"/>
		</g>
		<g>
			<path d="M74,86.9h-7.3v6.8h8.2v2H64.2V76.9h10.2v2h-7.8v6H74V86.9z"/>
			<polygon fill="#37474F" points="76.3,97.3 62.7,97.3 62.7,75.4 75.9,75.4 75.9,80.4 68.1,80.4 68.1,83.4 75.5,83.4 75.5,88.4 
				68.1,88.4 68.1,92.2 76.3,92.2 			"/>
		</g>
		<g>
			<path d="M82,95.8V76.9h2.7l6,9.5c1.4,2.2,2.5,4.2,3.4,6.1l0.1,0c-0.2-2.5-0.3-4.8-0.3-7.8v-7.9h2.3v18.9h-2.5l-6-9.6
				c-1.3-2.1-2.6-4.3-3.5-6.3l-0.1,0c0.1,2.4,0.2,4.6,0.2,7.8v8.1H82z"/>
			<path fill="#37474F" d="M97.6,97.3h-4.8L86.4,87c-0.2-0.4-0.4-0.7-0.7-1.1c0,0.6,0,1.1,0,1.8v9.6h-5.3V75.4h5L92,85.6
				c0.1,0.2,0.3,0.4,0.4,0.6c0-0.5,0-1,0-1.5v-9.4h5.3V97.3z"/>
		</g>
		<g>
			<path d="M108,79h-5.7v-2.1h14V79h-5.8v16.8H108V79z"/>
			<polygon fill="#37474F" points="112,97.3 106.5,97.3 106.5,80.5 100.7,80.5 100.7,75.4 117.7,75.4 117.7,80.5 112,80.5 			"/>
		</g>
	</g>
</g>
</svg>
