<?xml version="1.0" encoding="utf-8"?>
<!-- Generator: Adobe Illustrator 16.0.0, SVG Export Plug-In . SVG Version: 6.00 Build 0)  -->
<!DOCTYPE svg PUBLIC "-//W3C//DTD SVG 1.1//EN" "http://www.w3.org/Graphics/SVG/1.1/DTD/svg11.dtd">
<svg version="1.1" id="Layer_1" xmlns="http://www.w3.org/2000/svg" xmlns:xlink="http://www.w3.org/1999/xlink" x="0px" y="0px"
	 width="128px" height="128px" viewBox="0 0 128 128" enable-background="new 0 0 128 128" xml:space="preserve">
<g>
	<g>
		<g>
			<g>
				<polyline fill="#B0BEC5" points="37,47 10,47 10,58 				"/>
				<path fill="#37474F" d="M10,60c-1.1,0-2-0.9-2-2V47c0-1.1,0.9-2,2-2h27c1.1,0,2,0.9,2,2s-0.9,2-2,2H12v9C12,59.1,11.1,60,10,60z
					"/>
			</g>
			<g>
				<polyline fill="#B0BEC5" points="37,66 10,66 10,77 				"/>
				<path fill="#37474F" d="M10,79c-1.1,0-2-0.9-2-2V66c0-1.1,0.9-2,2-2h27c1.1,0,2,0.9,2,2s-0.9,2-2,2H12v9C12,78.1,11.1,79,10,79z
					"/>
			</g>
			<g>
				<polyline fill="#B0BEC5" points="37,85 10,85 10,96 				"/>
				<path fill="#37474F" d="M10,98c-1.1,0-2-0.9-2-2V85c0-1.1,0.9-2,2-2h27c1.1,0,2,0.9,2,2s-0.9,2-2,2H12v9C12,97.1,11.1,98,10,98z
					"/>
			</g>
		</g>
		<g>
			<g>
				<polyline fill="#B0BEC5" points="118,47 91,47 91,58 				"/>
				<path fill="#37474F" d="M91,60c-1.1,0-2-0.9-2-2V47c0-1.1,0.9-2,2-2h27c1.1,0,2,0.9,2,2s-0.9,2-2,2H93v9C93,59.1,92.1,60,91,60z
					"/>
			</g>
			<g>
				<polyline fill="#B0BEC5" points="118,66 91,66 91,77 				"/>
				<path fill="#37474F" d="M91,79c-1.1,0-2-0.9-2-2V66c0-1.1,0.9-2,2-2h27c1.1,0,2,0.9,2,2s-0.9,2-2,2H93v9C93,78.1,92.1,79,91,79z
					"/>
			</g>
			<g>
				<polyline fill="#B0BEC5" points="118,85 91,85 91,96 				"/>
				<path fill="#37474F" d="M91,98c-1.1,0-2-0.9-2-2V85c0-1.1,0.9-2,2-2h27c1.1,0,2,0.9,2,2s-0.9,2-2,2H93v9C93,97.1,92.1,98,91,98z
					"/>
			</g>
		</g>
	</g>
	<g>
		<line fill="#FFAB00" x1="4" y1="106" x2="124" y2="106"/>
		<path fill="#37474F" d="M124,108H4c-1.1,0-2-0.9-2-2s0.9-2,2-2h120c1.1,0,2,0.9,2,2S125.1,108,124,108z"/>
	</g>
	<g>
		<rect x="3" y="23" fill="#78909C" width="121" height="13"/>
		<path fill="#37474F" d="M124,38H3c-1.1,0-2-0.9-2-2V23c0-1.1,0.9-2,2-2h121c1.1,0,2,0.9,2,2v13C126,37.1,125.1,38,124,38z M5,34
			h117v-9H5V34z"/>
	</g>
	<g>
		<g>
			<path fill="#FFECB3" d="M79.7,77C80.8,61.9,65,51.9,64,51.1V51c0,0,0,0,0,0.1c0,0-0.1-0.1-0.1-0.1l0,0.1
				C62.6,51.9,47.1,61.9,48.2,77c1.1,15,14.4,21.9,15.6,22.5l0,0.1c0,0,0.1-0.1,0.1-0.1l0.1,0l0-0.1C65.4,98.9,78.6,92,79.7,77z"/>
			<path fill="#37474F" d="M63.9,101.7c-0.3,0-0.6-0.1-0.9-0.2c-0.3-0.1-0.5-0.3-0.6-0.5c-3.6-2-15.1-9.4-16.1-23.8
				c-1.1-14.7,12.1-24.7,16-27.4c0.1-0.2,0.3-0.4,0.5-0.5c0.4-0.2,0.8-0.3,1.2-0.3c0.2,0,0.4,0,0.7,0.1c0.4,0.1,0.7,0.4,1,0.7
				c0,0,0,0,0,0c11.1,7.9,16.8,17.6,16,27.3C80.6,91.9,68.9,99.2,65.5,101c-0.1,0.1-0.3,0.3-0.5,0.4c-0.2,0.1-0.3,0.1-0.5,0.2
				C64.3,101.6,64.1,101.7,63.9,101.7z M63.9,53.5c-4,2.8-14.5,11.4-13.7,23.4C51.1,88.9,60.6,95.4,64,97.3
				c3-1.7,12.8-8.2,13.7-20.4C78.3,68.8,73.4,60.5,63.9,53.5z"/>
		</g>
		<g>
			
				<path fill="#FFECB3" stroke="#37474F" stroke-width="4" stroke-linecap="round" stroke-linejoin="round" stroke-miterlimit="10" d="
				M51.8,97.6"/>
		</g>
		<g>
			
				<path fill="#FFECB3" stroke="#37474F" stroke-width="4" stroke-linecap="round" stroke-linejoin="round" stroke-miterlimit="10" d="
				M51.8,69.3"/>
		</g>
		<g>
			
				<path fill="#FFECB3" stroke="#37474F" stroke-width="4" stroke-linecap="round" stroke-linejoin="round" stroke-miterlimit="10" d="
				M53.1,82.2"/>
		</g>
		<g>
			
				<path fill="#FFECB3" stroke="#37474F" stroke-width="4" stroke-linecap="round" stroke-linejoin="round" stroke-miterlimit="10" d="
				M67.1,75.9"/>
		</g>
	</g>
	<g>
		<g>
			<path fill="#FFAB00" d="M73.6,85.8C74.2,76.6,65,70.6,64,70V70c0,0,0,0,0,0c0,0-0.1,0-0.1,0l0,0.1c-0.8,0.5-10.2,6.6-9.5,15.8
				c0.7,9.2,8.8,13.3,9.5,13.7l0,0.1c0,0,0.1,0,0.1,0l0,0l0-0.1C64.8,99.2,72.9,95,73.6,85.8z"/>
			<path fill="#37474F" d="M63.9,101.6c-0.3,0-0.6-0.1-0.9-0.2c-0.2-0.1-0.3-0.2-0.5-0.3c-2.3-1.3-9.5-6-10.2-15.1
				c-0.7-9.4,7.7-15.8,10.1-17.4c0.1-0.1,0.2-0.2,0.3-0.3c0.1-0.1,0.2-0.1,0.2-0.1c0.5-0.2,1-0.3,1.6-0.1c0.3,0.1,0.5,0.3,0.7,0.5
				c2.9,1.7,10.8,8.3,10.2,17.4c-0.7,9.4-8.2,14.1-10.3,15.2c-0.1,0.1-0.2,0.1-0.3,0.2c-0.1,0-0.1,0.1-0.2,0.1
				C64.5,101.6,64.2,101.6,63.9,101.6z M64,72.4c-2.4,1.8-8.1,6.8-7.6,13.3c0.5,6.6,5.4,10.3,7.6,11.6c2.1-1.3,7.1-5,7.6-11.6
				C72.1,79,66.3,74.1,64,72.4z"/>
		</g>
		<g>
			
				<path fill="#FFECB3" stroke="#37474F" stroke-width="4" stroke-linecap="round" stroke-linejoin="round" stroke-miterlimit="10" d="
				M56.5,98.4"/>
		</g>
		<g>
			
				<path fill="#FFECB3" stroke="#37474F" stroke-width="4" stroke-linecap="round" stroke-linejoin="round" stroke-miterlimit="10" d="
				M56.5,81.1"/>
		</g>
		<g>
			
				<path fill="#FFECB3" stroke="#37474F" stroke-width="4" stroke-linecap="round" stroke-linejoin="round" stroke-miterlimit="10" d="
				M57.3,89"/>
		</g>
		<g>
			
				<path fill="#FFECB3" stroke="#37474F" stroke-width="4" stroke-linecap="round" stroke-linejoin="round" stroke-miterlimit="10" d="
				M65.9,85.1"/>
		</g>
	</g>
</g>
</svg>
