<?xml version="1.0" encoding="utf-8"?>
<!-- Generator: Adobe Illustrator 16.0.0, SVG Export Plug-In . SVG Version: 6.00 Build 0)  -->
<!DOCTYPE svg PUBLIC "-//W3C//DTD SVG 1.1//EN" "http://www.w3.org/Graphics/SVG/1.1/DTD/svg11.dtd">
<svg version="1.1" id="Layer_1" xmlns="http://www.w3.org/2000/svg" xmlns:xlink="http://www.w3.org/1999/xlink" x="0px" y="0px"
	 width="130px" height="130px" viewBox="0 0 130 130" enable-background="new 0 0 130 130" xml:space="preserve">
<g>
	<g>
		<g>
			<polygon fill="#FFECB3" points="46,95.7 36,101.6 26,95.7 26,83.9 36,78 46,83.9 			"/>
			<path fill="#37474F" d="M36,103.6c-0.4,0-0.7-0.1-1-0.3l-10-5.9c-0.6-0.4-1-1-1-1.7V83.9c0-0.7,0.4-1.4,1-1.7l10-5.9
				c0.6-0.4,1.4-0.4,2,0l10,5.9c0.6,0.4,1,1,1,1.7v11.8c0,0.7-0.4,1.4-1,1.7l-10,5.9C36.7,103.5,36.4,103.6,36,103.6z M28,94.6
				l8,4.7l8-4.7v-9.5l-8-4.7l-8,4.7V94.6z"/>
		</g>
		<g>
			<g>
				<g>
					<polyline fill="#FFECB3" points="42,63.6 35.8,68.8 29.6,63.6 					"/>
					<path fill="#37474F" d="M35.8,70.8c-0.5,0-0.9-0.2-1.3-0.5l-6.2-5.2c-0.8-0.7-1-2-0.3-2.8c0.7-0.8,2-1,2.8-0.3l4.9,4.1l4.9-4.1
						c0.8-0.7,2.1-0.6,2.8,0.3c0.7,0.8,0.6,2.1-0.3,2.8L37,70.3C36.7,70.6,36.2,70.8,35.8,70.8z"/>
				</g>
				<g>
					<line fill="#FFECB3" x1="36" y1="60" x2="36" y2="86"/>
					<path fill="#37474F" d="M36,88c-1.1,0-2-0.9-2-2V60c0-1.1,0.9-2,2-2s2,0.9,2,2v26C38,87.1,37.1,88,36,88z"/>
				</g>
			</g>
			<g>
				<g>
					<polyline fill="#FFECB3" points="29.6,116 35.8,110.9 42,116 					"/>
					<path fill="#37474F" d="M42,118c-0.5,0-0.9-0.2-1.3-0.5l-4.9-4.1l-4.9,4.1c-0.8,0.7-2.1,0.6-2.8-0.3c-0.7-0.8-0.6-2.1,0.3-2.8
						l6.2-5.2c0.7-0.6,1.8-0.6,2.6,0l6.2,5.2c0.8,0.7,1,2,0.3,2.8C43.1,117.8,42.5,118,42,118z"/>
				</g>
				<g>
					<line fill="#FFECB3" x1="36" y1="120" x2="36" y2="93"/>
					<path fill="#37474F" d="M36,122c-1.1,0-2-0.9-2-2V93c0-1.1,0.9-2,2-2s2,0.9,2,2v27C38,121.1,37.1,122,36,122z"/>
				</g>
			</g>
		</g>
		<g>
			<g>
				<g>
					<polyline fill="#FFECB3" points="61.5,81.7 53.8,79.1 55.1,71.1 					"/>
					<path fill="#37474F" d="M61.5,83.7c-0.2,0-0.4,0-0.7-0.1l-7.6-2.7c-0.9-0.3-1.5-1.2-1.3-2.2l1.3-8c0.2-1.1,1.2-1.8,2.3-1.7
						c1.1,0.2,1.8,1.2,1.7,2.3l-1,6.3l6.1,2.1c1,0.4,1.6,1.5,1.2,2.6C63.1,83.2,62.3,83.7,61.5,83.7z"/>
				</g>
				<g>
					<line fill="#FFECB3" x1="61.5" y1="74.5" x2="38.8" y2="88"/>
					<path fill="#37474F" d="M38.8,90c-0.7,0-1.3-0.3-1.7-1c-0.6-0.9-0.3-2.2,0.7-2.7l22.6-13.5c0.9-0.6,2.2-0.3,2.7,0.7
						c0.6,0.9,0.3,2.2-0.7,2.7L39.9,89.7C39.5,89.9,39.2,90,38.8,90z"/>
				</g>
			</g>
			<g>
				<g>
					<polyline fill="#FFECB3" points="10.1,97.9 17.7,100.6 16.4,108.6 					"/>
					<path fill="#37474F" d="M16.4,110.6c-0.1,0-0.2,0-0.3,0c-1.1-0.2-1.8-1.2-1.7-2.3l1-6.3l-6.1-2.1c-1-0.4-1.6-1.5-1.2-2.6
						c0.4-1,1.5-1.6,2.6-1.2l7.6,2.7c0.9,0.3,1.5,1.2,1.3,2.2l-1.3,8C18.2,109.9,17.4,110.6,16.4,110.6z"/>
				</g>
				<g>
					<line fill="#FFECB3" x1="10.1" y1="105.1" x2="32.7" y2="91.7"/>
					<path fill="#37474F" d="M10.1,107.1c-0.7,0-1.3-0.3-1.7-1c-0.6-0.9-0.3-2.2,0.7-2.7l22.6-13.5c0.9-0.6,2.2-0.3,2.7,0.7
						c0.6,0.9,0.3,2.2-0.7,2.7l-22.6,13.5C10.8,107,10.4,107.1,10.1,107.1z"/>
				</g>
			</g>
		</g>
		<g>
			<g>
				<g>
					<polyline fill="#FFECB3" points="55.7,108 54.1,100 61.7,97.1 					"/>
					<path fill="#37474F" d="M55.7,110c-0.9,0-1.8-0.7-2-1.6l-1.5-7.9c-0.2-0.9,0.3-1.9,1.2-2.2l7.5-2.9c1-0.4,2.2,0.1,2.6,1.1
						c0.4,1-0.1,2.2-1.1,2.6l-6,2.3l1.2,6.3c0.2,1.1-0.5,2.1-1.6,2.3C55.9,110,55.8,110,55.7,110z"/>
				</g>
				<g>
					<line fill="#FFECB3" x1="61.9" y1="104.4" x2="38.9" y2="91.6"/>
					<path fill="#37474F" d="M61.9,106.4c-0.3,0-0.7-0.1-1-0.3l-23-12.8c-1-0.5-1.3-1.8-0.8-2.7c0.5-1,1.8-1.3,2.7-0.8l23,12.8
						c1,0.5,1.3,1.8,0.8,2.7C63.3,106,62.6,106.4,61.9,106.4z"/>
				</g>
			</g>
			<g>
				<g>
					<polyline fill="#FFECB3" points="15.9,71.7 17.4,79.6 9.8,82.5 					"/>
					<path fill="#37474F" d="M9.8,84.5C9,84.5,8.3,84,8,83.2c-0.4-1,0.1-2.2,1.1-2.6l6-2.3L13.9,72c-0.2-1.1,0.5-2.1,1.6-2.3
						c1.1-0.2,2.1,0.5,2.3,1.6l1.5,7.9c0.2,0.9-0.3,1.9-1.2,2.2l-7.5,2.9C10.3,84.5,10.1,84.5,9.8,84.5z"/>
				</g>
				<g>
					<line fill="#FFECB3" x1="9.6" y1="75.3" x2="32.6" y2="88.1"/>
					<path fill="#37474F" d="M32.6,90.1c-0.3,0-0.7-0.1-1-0.3L8.6,77c-1-0.5-1.3-1.8-0.8-2.7c0.5-1,1.8-1.3,2.7-0.8l23,12.8
						c1,0.5,1.3,1.8,0.8,2.7C34,89.7,33.3,90.1,32.6,90.1z"/>
				</g>
			</g>
		</g>
	</g>
	<g>
		<path fill="#FFFFFF" d="M111,84.4v-76c0-3-2.8-5.3-6.4-5.3H88.3C84.7,3,82,5.3,82,8.3v76c-6,4.4-9.4,11.2-9.4,18.9
			c0,13.2,10.7,23.9,23.9,23.9c13.2,0,23.8-10.7,23.8-23.9C120.3,95.6,117,88.7,111,84.4z"/>
		<path fill="#37474F" d="M96.5,129.2c-14.3,0-25.9-11.6-25.9-25.9c0-7.9,3.4-15.1,9.4-19.9v-75C80,4.2,83.6,1,88.3,1h16.2
			c4.7,0,8.4,3.2,8.4,7.3v75c6,4.7,9.3,11.9,9.3,19.9C122.3,117.5,110.8,129.2,96.5,129.2z M88.3,5C85.8,5,84,6.4,84,8.3v76
			c0,0.6-0.3,1.2-0.8,1.6c-5.4,4-8.6,10.3-8.6,17.3c0,12.1,9.8,21.9,21.9,21.9c12,0,21.8-9.8,21.8-21.9c0-7.1-3-13.2-8.5-17.3
			c-0.5-0.4-0.8-1-0.8-1.6v-76c0-1.9-1.9-3.3-4.4-3.3H88.3z"/>
	</g>
	<g>
		<circle fill="#FFAB00" cx="96.4" cy="104.3" r="8.9"/>
		<path fill="#37474F" d="M96.4,115.2c-6,0-10.9-4.9-10.9-10.9s4.9-10.9,10.9-10.9c6,0,10.9,4.9,10.9,10.9S102.5,115.2,96.4,115.2z
			 M96.4,97.3c-3.8,0-6.9,3.1-6.9,6.9c0,3.8,3.1,6.9,6.9,6.9c3.8,0,6.9-3.1,6.9-6.9C103.4,100.4,100.3,97.3,96.4,97.3z"/>
	</g>
	<g>
		<line fill="#FFAB00" x1="96" y1="53" x2="96" y2="94"/>
		<path fill="#37474F" d="M96,96c-1.1,0-2-0.9-2-2V53c0-1.1,0.9-2,2-2s2,0.9,2,2v41C98,95.1,97.1,96,96,96z"/>
	</g>
	<g>
		<g>
			<line fill="#FFAB00" x1="95" y1="45" x2="105" y2="45"/>
			<path fill="#37474F" d="M105,47H95c-1.1,0-2-0.9-2-2s0.9-2,2-2h10c1.1,0,2,0.9,2,2S106.1,47,105,47z"/>
		</g>
		<g>
			<line fill="#FFAB00" x1="95" y1="36" x2="99" y2="36"/>
			<path fill="#37474F" d="M99,38h-4c-1.1,0-2-0.9-2-2s0.9-2,2-2h4c1.1,0,2,0.9,2,2S100.1,38,99,38z"/>
		</g>
	</g>
	<g>
		<g>
			<line fill="#FFAB00" x1="95" y1="27" x2="105" y2="27"/>
			<path fill="#37474F" d="M105,29H95c-1.1,0-2-0.9-2-2s0.9-2,2-2h10c1.1,0,2,0.9,2,2S106.1,29,105,29z"/>
		</g>
		<g>
			<line fill="#FFAB00" x1="95" y1="18" x2="99" y2="18"/>
			<path fill="#37474F" d="M99,20h-4c-1.1,0-2-0.9-2-2s0.9-2,2-2h4c1.1,0,2,0.9,2,2S100.1,20,99,20z"/>
		</g>
	</g>
	<g>
		<g>
			<polyline fill="#FFECB3" points="37.7,29.9 51.5,12.1 65.3,29.9 			"/>
			<path fill="#37474F" d="M65.3,31.9c-0.6,0-1.2-0.3-1.6-0.8L51.5,15.4L39.3,31.1c-0.7,0.9-1.9,1-2.8,0.4c-0.9-0.7-1-1.9-0.4-2.8
				l13.8-17.8c0.8-1,2.4-1,3.2,0l13.8,17.8c0.7,0.9,0.5,2.1-0.4,2.8C66.1,31.8,65.7,31.9,65.3,31.9z"/>
		</g>
		<g>
			<polyline fill="#B0BEC5" points="37.7,49.2 51.5,31.4 65.3,49.2 			"/>
			<path fill="#37474F" d="M65.3,51.2c-0.6,0-1.2-0.3-1.6-0.8L51.5,34.7L39.3,50.5c-0.7,0.9-1.9,1-2.8,0.4c-0.9-0.7-1-1.9-0.4-2.8
				l13.8-17.8c0.8-1,2.4-1,3.2,0L66.8,48c0.7,0.9,0.5,2.1-0.4,2.8C66.1,51.1,65.7,51.2,65.3,51.2z"/>
		</g>
	</g>
</g>
</svg>
