<?xml version="1.0" encoding="utf-8"?>
<!-- Generator: Adobe Illustrator 16.0.0, SVG Export Plug-In . SVG Version: 6.00 Build 0)  -->
<!DOCTYPE svg PUBLIC "-//W3C//DTD SVG 1.1//EN" "http://www.w3.org/Graphics/SVG/1.1/DTD/svg11.dtd">
<svg version="1.1" id="Layer_1" xmlns="http://www.w3.org/2000/svg" xmlns:xlink="http://www.w3.org/1999/xlink" x="0px" y="0px"
	 width="128px" height="128px" viewBox="0 0 128 128" enable-background="new 0 0 128 128" xml:space="preserve">
<g>
	<g>
		<g>
			<path fill="#FFFFFF" d="M117,112.8c0,6.1-4.6,11.2-10.1,11.2h-87c-5.5,0-9.9-5.1-9.9-11.2V16.3C10,10.2,14.4,5,19.9,5h87
				c5.5,0,10.1,5.2,10.1,11.3V112.8z"/>
			<path fill="#37474F" d="M106.9,126h-87C13.3,126,8,120.1,8,112.8V16.3C8,8.9,13.3,3,19.9,3h87c6.5,0,12.1,6.1,12.1,13.3v96.6
				C119,120,113.5,126,106.9,126z M19.9,7c-4.3,0-7.9,4.2-7.9,9.3v96.6c0,5.1,3.6,9.2,7.9,9.2h87c4.4,0,8.1-4.2,8.1-9.2V16.3
				c0-5-3.7-9.3-8.1-9.3H19.9z"/>
		</g>
		<g>
			<circle fill="#B0BEC5" cx="63.4" cy="80" r="35.5"/>
			<path fill="#37474F" d="M63.4,117.5c-20.7,0-37.5-16.8-37.5-37.5s16.8-37.5,37.5-37.5s37.5,16.8,37.5,37.5S84.1,117.5,63.4,117.5
				z M63.4,46.5c-18.5,0-33.5,15-33.5,33.5s15,33.5,33.5,33.5s33.5-15,33.5-33.5S81.9,46.5,63.4,46.5z"/>
		</g>
		<g>
			<g>
				<g>
					<path fill="#FFAB00" d="M39.9,80c0-13,10.5-23.5,23.5-23.5"/>
					<path fill="#37474F" d="M39.9,82c-1.1,0-2-0.9-2-2c0-14.1,11.4-25.5,25.5-25.5c1.1,0,2,0.9,2,2s-0.9,2-2,2
						c-11.9,0-21.5,9.6-21.5,21.5C41.9,81.1,41,82,39.9,82z"/>
				</g>
				<g>
					<path fill="#FFAB00" d="M86.9,80c0,13-10.5,23.5-23.5,23.5"/>
					<path fill="#37474F" d="M63.4,105.5c-1.1,0-2-0.9-2-2s0.9-2,2-2c11.9,0,21.5-9.6,21.5-21.5c0-1.1,0.9-2,2-2s2,0.9,2,2
						C88.9,94.1,77.5,105.5,63.4,105.5z"/>
				</g>
			</g>
			<g>
				<g>
					<polyline fill="#FFAB00" points="64.3,51.4 69.4,56.5 64.3,61.7 					"/>
					<path fill="#37474F" d="M64.3,63.7c-0.5,0-1-0.2-1.4-0.6c-0.8-0.8-0.8-2,0-2.8l3.7-3.7l-3.7-3.7c-0.8-0.8-0.8-2,0-2.8
						c0.8-0.8,2-0.8,2.8,0l5.1,5.1c0.8,0.8,0.8,2,0,2.8l-5.1,5.1C65.3,63.5,64.8,63.7,64.3,63.7z"/>
				</g>
				<g>
					<polyline fill="#FFAB00" points="62.6,108.7 57.5,103.5 62.6,98.4 					"/>
					<path fill="#37474F" d="M62.6,110.7c-0.5,0-1-0.2-1.4-0.6L56,105c-0.4-0.4-0.6-0.9-0.6-1.4s0.2-1,0.6-1.4l5.1-5.1
						c0.8-0.8,2-0.8,2.8,0c0.8,0.8,0.8,2,0,2.8l-3.7,3.7l3.7,3.7c0.8,0.8,0.8,2,0,2.8C63.6,110.5,63.1,110.7,62.6,110.7z"/>
				</g>
			</g>
		</g>
		<g>
			<line fill="#FFFFFF" x1="19" y1="31" x2="93" y2="31"/>
			<path fill="#37474F" d="M93,33H19c-1.1,0-2-0.9-2-2s0.9-2,2-2h74c1.1,0,2,0.9,2,2S94.1,33,93,33z"/>
		</g>
		<g>
			<path fill="#FFFFFF" d="M100.9,22.8c4.4,0,8,3.6,8,8s-3.6,8-8,8"/>
			<path fill="#37474F" d="M100.9,40.8c-1.1,0-2-0.9-2-2s0.9-2,2-2c3.3,0,6-2.7,6-6s-2.7-6-6-6c-1.1,0-2-0.9-2-2s0.9-2,2-2
				c5.5,0,10,4.5,10,10S106.4,40.8,100.9,40.8z"/>
		</g>
		<g>
			<path fill="#37474F" d="M21,25c-1.1,0-2-0.9-2-2v-7c0-1.1,0.9-2,2-2s2,0.9,2,2v7C23,24.1,22.1,25,21,25z"/>
		</g>
		<g>
			<path fill="#37474F" d="M28,25c-1.1,0-2-0.9-2-2v-7c0-1.1,0.9-2,2-2s2,0.9,2,2v7C30,24.1,29.1,25,28,25z"/>
		</g>
		<g>
			<path fill="#37474F" d="M35,25c-1.1,0-2-0.9-2-2v-7c0-1.1,0.9-2,2-2s2,0.9,2,2v7C37,24.1,36.1,25,35,25z"/>
		</g>
		<g>
			<circle fill="#FFECB3" cx="60.3" cy="18.7" r="5.9"/>
			<path fill="#37474F" d="M60.3,26.5c-4.3,0-7.9-3.5-7.9-7.9s3.5-7.9,7.9-7.9s7.9,3.5,7.9,7.9S64.6,26.5,60.3,26.5z M60.3,14.8
				c-2.1,0-3.9,1.7-3.9,3.9s1.7,3.9,3.9,3.9s3.9-1.7,3.9-3.9S62.4,14.8,60.3,14.8z"/>
		</g>
		<g>
			<circle fill="#FFECB3" cx="79.9" cy="18.7" r="5.9"/>
			<path fill="#37474F" d="M79.9,26.5c-4.3,0-7.9-3.5-7.9-7.9s3.5-7.9,7.9-7.9s7.9,3.5,7.9,7.9S84.3,26.5,79.9,26.5z M79.9,14.8
				c-2.1,0-3.9,1.7-3.9,3.9s1.7,3.9,3.9,3.9s3.9-1.7,3.9-3.9S82.1,14.8,79.9,14.8z"/>
		</g>
	</g>
	<g>
		<line fill="#FFECB3" x1="5" y1="124" x2="122" y2="124"/>
		<path fill="#37474F" d="M122,126H5c-1.1,0-2-0.9-2-2s0.9-2,2-2h117c1.1,0,2,0.9,2,2S123.1,126,122,126z"/>
	</g>
</g>
</svg>
