<?xml version="1.0" encoding="utf-8"?>
<!-- Generator: Adobe Illustrator 16.0.0, SVG Export Plug-In . SVG Version: 6.00 Build 0)  -->
<!DOCTYPE svg PUBLIC "-//W3C//DTD SVG 1.1//EN" "http://www.w3.org/Graphics/SVG/1.1/DTD/svg11.dtd">
<svg version="1.1" id="Layer_1" xmlns="http://www.w3.org/2000/svg" xmlns:xlink="http://www.w3.org/1999/xlink" x="0px" y="0px"
	 width="64px" height="64px" viewBox="0 0 64 64" enable-background="new 0 0 64 64" xml:space="preserve">
<g>
	<g>
		<rect x="4.5" y="1.6" fill="#FFAB00" width="50.1" height="56"/>
		<path fill="#37474F" d="M54.6,58.5H4.5c-0.6,0-1-0.4-1-1v-56c0-0.6,0.4-1,1-1h50.1c0.6,0,1,0.4,1,1v56
			C55.6,58.1,55.1,58.5,54.6,58.5z M5.5,56.5h48.1v-54H5.5V56.5z"/>
	</g>
	<g>
		<polygon fill="#37474F" points="5.5,56.5 28,29.6 5.5,2.7 		"/>
	</g>
	<g>
		<g>
			<rect x="41.8" y="34" fill="#37474F" width="2.9" height="26.5"/>
		</g>
		<g>
			<g>
				<path fill="#FFFFFF" d="M59.5,31.7c0,0.7,0.2,1.3-0.2,1.3H44.4c-0.4,0-0.6-0.6-0.6-1.3v-6.1c0-0.8,0.2-1.4,0.6-1.4h14.9
					c0.4,0,0.2,0.6,0.2,1.4V31.7z"/>
				<path fill="#37474F" d="M59.3,34H44.4c-0.7,0-1.6-0.6-1.6-2.3v-6.1c0-1.8,0.9-2.4,1.6-2.4h14.9c0.3,0,0.7,0.1,0.9,0.4
					c0.4,0.4,0.4,1,0.3,1.5c0,0.2,0,0.3,0,0.5v6.1c0,0.2,0,0.3,0,0.5c0,0.5,0.1,1-0.3,1.5C59.9,33.8,59.6,34,59.3,34z M44.8,32h13.7
					c0-0.1,0-0.2,0-0.3v-6.1c0-0.1,0-0.3,0-0.4H44.8c0,0.1,0,0.2,0,0.4v6.1C44.8,31.8,44.8,31.9,44.8,32z"/>
			</g>
			<g>
				<path fill="#78909C" d="M42.8,30c0,0.4,0.1,1-0.3,1H26.3c-0.4,0-1.2-0.6-1.2-1v-3.4c0-0.4,0.8-0.5,1.2-0.5h16.2
					c0.4,0,0.3,0.1,0.3,0.5V30z"/>
				<path fill="#37474F" d="M42.5,32H26.3c-0.8,0-2.2-0.9-2.2-2v-3.4c0-0.7,0.6-1.5,2.2-1.5h16.2c0.2,0,0.7,0,1,0.4
					c0.3,0.4,0.3,0.8,0.3,1c0,0,0,0.1,0,0.1V30c0,0.1,0,0.1,0,0.2c0,0.4,0.1,1-0.4,1.4C43.2,31.9,42.9,32,42.5,32z M26.4,30h15.4
					c0,0,0,0,0,0v-2.9l-15.4,0c-0.1,0-0.2,0-0.2,0v2.7C26.2,29.9,26.3,30,26.4,30z"/>
			</g>
			<g>
				<path fill="#FFECB3" d="M26.1,25.2c-1,0.5-2.3,2-2.3,3.9c0,1.8,1.3,3.3,2.3,3.9V25.2z"/>
			</g>
			<g>
				<path fill="#B0BEC5" d="M27.8,24.1c0.2,0,0.2,0.3,0.2,0.6v8.9c0,0.2,0,0.3-0.2,0.3h-1.9c-0.2,0-0.8-0.1-0.8-0.3v-8.9
					c0-0.2,0.6-0.6,0.8-0.6H27.8z"/>
				<path fill="#37474F" d="M27.8,35h-1.9c-0.9,0-1.8-0.4-1.8-1.3v-8.9c0-1,1.3-1.6,1.8-1.6h1.9c0.2,0,1.2,0.1,1.2,1.6v8.9
					C29.1,34.9,28,35,27.8,35z M26.1,25.1V33h0.9l0-7.8H26.1z"/>
			</g>
			<g>
				<path fill="#FFFFFF" d="M59.5,36.4c0,0.7-0.1,1.5-0.9,1.5H29.4c-0.8,0-1.3-0.7-1.3-1.5v-6.1c0-0.8,0.6-1.2,1.3-1.2h29.2
					c0.7,0,0.9,0.5,0.9,1.2V36.4z"/>
				<path fill="#37474F" d="M58.6,38.9H29.4c-1.3,0-2.3-1.1-2.3-2.5v-6.1c0-1.3,1-2.2,2.3-2.2h29.2c0.9,0,1.9,0.4,1.9,2.2v6.1
					C60.5,38.7,59.2,38.9,58.6,38.9z M58.6,36.9v1V36.9C58.6,36.9,58.6,36.9,58.6,36.9z M29.4,30.1c-0.3,0-0.3,0.1-0.3,0.2v6.1
					c0,0.2,0.2,0.5,0.3,0.5h29.1c0-0.1,0-0.2,0-0.5v-6.1c0-0.1,0-0.2,0-0.2L29.4,30.1z"/>
			</g>
			<g>
				<g>
					<path fill="#37474F" d="M53.5,33.3c0-0.4,0.4-0.8,0.8-0.8c0.4,0,0.8,0.4,0.8,0.8c0,0.4-0.4,0.8-0.8,0.8
						C53.8,34.1,53.5,33.8,53.5,33.3z"/>
					<path fill="#37474F" d="M54.2,34.6c-0.7,0-1.3-0.6-1.3-1.3c0-0.7,0.6-1.3,1.3-1.3c0.4,0,0.7,0.1,0.9,0.4
						c0.2,0.2,0.4,0.6,0.4,0.9C55.6,34.1,55,34.6,54.2,34.6L54.2,34.6z M54.3,33.1c-0.2,0-0.3,0.1-0.3,0.3c0,0.2,0.1,0.3,0.3,0.3
						v0.5l0-0.5c0.2,0,0.3-0.1,0.3-0.3c0-0.1,0-0.2-0.1-0.2C54.4,33.1,54.3,33.1,54.3,33.1z"/>
				</g>
				<g>
					<path fill="#37474F" d="M48,33.3c0-0.4,0.3-0.8,0.8-0.8c0.4,0,0.8,0.4,0.8,0.8c0,0.4-0.4,0.8-0.8,0.8
						C48.3,34.1,48,33.8,48,33.3z"/>
					<path fill="#37474F" d="M48.7,34.6L48.7,34.6c-0.7,0-1.3-0.6-1.3-1.3c0-0.3,0.1-0.7,0.4-0.9s0.6-0.4,0.9-0.4
						c0.7,0,1.3,0.6,1.3,1.3C50,34.1,49.4,34.6,48.7,34.6z M48.7,33.1c-0.1,0-0.1,0-0.2,0.1s-0.1,0.1-0.1,0.2c0,0.2,0.1,0.3,0.3,0.3
						c0.2,0,0.3-0.1,0.3-0.3C49,33.2,48.9,33.1,48.7,33.1z"/>
				</g>
				<g>
					<path fill="#37474F" d="M42.4,33.3c0-0.4,0.4-0.8,0.8-0.8c0.4,0,0.8,0.4,0.8,0.8c0,0.4-0.4,0.8-0.8,0.8
						C42.8,34.1,42.4,33.8,42.4,33.3z"/>
					<path fill="#37474F" d="M43.2,34.6L43.2,34.6L43.2,34.6c-0.7,0-1.3-0.6-1.3-1.3c0-0.7,0.6-1.3,1.3-1.3c0.7,0,1.3,0.6,1.3,1.3
						C44.5,34.1,43.9,34.6,43.2,34.6z M43.2,33.1c-0.2,0-0.3,0.1-0.3,0.3c0,0.2,0.1,0.3,0.3,0.3l0,0.5v-0.5c0.1,0,0.3-0.1,0.3-0.3
						C43.5,33.2,43.4,33.1,43.2,33.1z"/>
				</g>
			</g>
			<g>
				<line fill="#FFECB3" x1="31" y1="32" x2="31" y2="34.9"/>
				<path fill="#37474F" d="M31,35.9c-0.6,0-1-0.4-1-1V32c0-0.6,0.4-1,1-1s1,0.4,1,1v2.9C32,35.5,31.5,35.9,31,35.9z"/>
			</g>
			<g>
				<line fill="#FFECB3" x1="33.9" y1="32" x2="33.9" y2="34.9"/>
				<path fill="#37474F" d="M33.9,35.9c-0.6,0-1-0.4-1-1V32c0-0.6,0.4-1,1-1s1,0.4,1,1v2.9C34.9,35.5,34.5,35.9,33.9,35.9z"/>
			</g>
			<g>
				<line fill="#FFECB3" x1="36.9" y1="32" x2="36.9" y2="34.9"/>
				<path fill="#37474F" d="M36.9,35.9c-0.6,0-1-0.4-1-1V32c0-0.6,0.4-1,1-1s1,0.4,1,1v2.9C37.9,35.5,37.4,35.9,36.9,35.9z"/>
			</g>
		</g>
		<g>
			<path fill="#37474F" d="M50.7,60.5c0,1-0.8,2-1.7,2H37.8c-0.9,0-1.7-1-1.7-2l0,0c0-0.9,0.8-2,1.7-2H49
				C49.9,58.5,50.7,59.5,50.7,60.5L50.7,60.5z"/>
		</g>
		<g>
			<path fill="#37474F" d="M50.7,39.4c0,0.9-0.8,1.5-1.7,1.5H37.8c-0.9,0-1.7-0.5-1.7-1.5l0,0c0-1,0.8-1.5,1.7-1.5H49
				C49.9,37.9,50.7,38.4,50.7,39.4L50.7,39.4z"/>
		</g>
		<g>
			<path fill="#37474F" d="M48.4,58.5c0,0.7-0.5,1-1.2,1h-7.7c-0.7,0-1.2-0.3-1.2-1l0,0c0-0.7,0.5-1,1.2-1h7.7
				C47.9,57.5,48.4,57.9,48.4,58.5L48.4,58.5z"/>
		</g>
	</g>
</g>
</svg>
