<?xml version="1.0" encoding="utf-8"?>
<!-- Generator: Adobe Illustrator 16.0.0, SVG Export Plug-In . SVG Version: 6.00 Build 0)  -->
<!DOCTYPE svg PUBLIC "-//W3C//DTD SVG 1.1//EN" "http://www.w3.org/Graphics/SVG/1.1/DTD/svg11.dtd">
<svg version="1.1" id="Layer_1" xmlns="http://www.w3.org/2000/svg" xmlns:xlink="http://www.w3.org/1999/xlink" x="0px" y="0px"
	 width="64px" height="64px" viewBox="0 0 64 64" enable-background="new 0 0 64 64" xml:space="preserve">
<g>
	<g>
		<g>
			<path fill="#FFAB00" d="M19.2,42.7c0,1.8-1.5,3.3-3.3,3.3h-0.4c-1.8,0-3.3-1.5-3.3-3.3V32.3c0-1.8,1.5-3.3,3.3-3.3H16
				c1.8,0,3.3,1.5,3.3,3.3V42.7z"/>
			<path fill="#37474F" d="M16,47h-0.4c-2.4,0-4.3-1.9-4.3-4.3V32.3c0-2.4,1.9-4.3,4.3-4.3H16c2.4,0,4.3,1.9,4.3,4.3v10.4
				C20.2,45.1,18.3,47,16,47z M15.5,30c-1.3,0-2.3,1-2.3,2.3v10.4c0,1.3,1,2.3,2.3,2.3H16c1.3,0,2.3-1,2.3-2.3V32.3
				c0-1.3-1-2.3-2.3-2.3H15.5z"/>
		</g>
		<g>
			<polygon fill="#FFFFFF" points="23.2,63 7.1,63 9.4,36 20.9,36 			"/>
			<path fill="#37474F" d="M23.2,64C23.2,64,23.2,64,23.2,64h-16c-0.3,0-0.5-0.1-0.7-0.3s-0.3-0.5-0.3-0.8l2.3-27
				c0-0.5,0.5-0.9,1-0.9h11.5c0.5,0,1,0.4,1,0.9l2.3,26.8c0,0.1,0,0.2,0,0.3C24.2,63.6,23.7,64,23.2,64z M8.2,62h13.9L20,37h-9.6
				L8.2,62z"/>
		</g>
		<g>
			<path fill="#FFAB00" d="M23.5,34.5c0,1.8-1.5,3.5-3.3,3.5H10.1c-1.8,0-3.3-1.7-3.3-3.5l0,0c0-1.8,1.5-3.5,3.3-3.5h10.2
				C22.1,31,23.5,32.7,23.5,34.5L23.5,34.5z"/>
			<path fill="#37474F" d="M20.2,39H10.1c-2.3,0-4.3-2.1-4.3-4.5c0-2.4,2-4.5,4.3-4.5h10.2c2.3,0,4.3,2.1,4.3,4.5
				C24.5,36.9,22.6,39,20.2,39z M10.1,32c-1.2,0-2.3,1.2-2.3,2.5c0,1.3,1.1,2.5,2.3,2.5h10.2c1.2,0,2.3-1.2,2.3-2.5
				c0-1.3-1.1-2.5-2.3-2.5H10.1z"/>
		</g>
		<g>
			<g>
				<path fill="#37474F" d="M15.2,44.1c-0.4,0-0.7-0.3-0.7-0.7c0-0.4,0.3-0.8,0.7-0.7c0.4,0,0.7,0.3,0.7,0.7
					C15.9,43.8,15.5,44.1,15.2,44.1z"/>
				<path fill="#37474F" d="M15.2,44.6c-0.7,0-1.2-0.5-1.2-1.2c0-0.3,0.1-0.6,0.3-0.9c0.2-0.2,0.6-0.4,0.9-0.4
					c0.7,0,1.2,0.5,1.2,1.2c0,0.3-0.1,0.6-0.3,0.9C15.8,44.5,15.5,44.6,15.2,44.6z M15.1,43.1c-0.1,0-0.2,0-0.2,0.1
					c0,0-0.1,0.1-0.1,0.2c0,0.2,0.3,0.3,0.4,0.2c0,0,0.1-0.1,0.1-0.1C15.4,43.2,15.3,43.1,15.1,43.1L15.1,43.1z"/>
			</g>
			<g>
				<path fill="#37474F" d="M15.1,49.3c-0.4,0-0.7-0.3-0.7-0.7c0-0.4,0.3-0.8,0.7-0.8c0.4,0,0.7,0.3,0.7,0.7
					C15.9,49,15.5,49.3,15.1,49.3z"/>
				<path fill="#37474F" d="M15.1,49.8c-0.7,0-1.2-0.6-1.2-1.2c0-0.7,0.5-1.3,1.2-1.3c0.7,0,1.2,0.6,1.2,1.2
					C16.4,49.3,15.8,49.8,15.1,49.8L15.1,49.8z M15.2,48.3c-0.1,0-0.2,0.1-0.2,0.3c0,0.1,0.1,0.2,0.2,0.2v0.5l0-0.5
					c0.2,0,0.3-0.1,0.3-0.3C15.4,48.4,15.3,48.3,15.2,48.3z"/>
			</g>
			<g>
				<path fill="#37474F" d="M15.2,54.5c-0.4,0-0.7-0.3-0.7-0.7c0-0.4,0.3-0.8,0.7-0.8c0.4,0,0.7,0.3,0.7,0.7
					C15.9,54.1,15.6,54.5,15.2,54.5z"/>
				<path fill="#37474F" d="M15.2,55c-0.7,0-1.2-0.6-1.2-1.2c0-0.7,0.6-1.3,1.2-1.3c0.3,0,0.7,0.1,0.9,0.4c0.2,0.2,0.4,0.6,0.3,0.9
					c0,0.3-0.1,0.6-0.3,0.9C15.8,54.8,15.5,55,15.2,55z M15.2,53.5c-0.1,0-0.2,0.1-0.2,0.3c0,0.1,0.1,0.2,0.2,0.2
					c0.1,0,0.1,0,0.2-0.1c0,0,0.1-0.1,0.1-0.2c0-0.1,0-0.2-0.1-0.2C15.3,53.5,15.2,53.5,15.2,53.5z"/>
			</g>
		</g>
		<g>
			<line fill="#78909C" x1="8.2" y1="59" x2="22.2" y2="59"/>
			<path fill="#37474F" d="M22.2,60h-14c-0.6,0-1-0.4-1-1s0.4-1,1-1h14c0.6,0,1,0.4,1,1S22.8,60,22.2,60z"/>
		</g>
	</g>
	<g>
		<path fill="#78909C" d="M51.2,16.1V4.6C51.2,3.2,50.4,2,49,2h-2.2c-1.4,0-2.6,1.2-2.6,2.6v11.5c-3,0.4-6,3.1-6,6.4v34.2
			c0,3.6,3.2,6.3,6.8,6.3h5.8c3.6,0,6.5-2.7,6.5-6.3V22.5C57.2,19.2,55.2,16.5,51.2,16.1z"/>
		<path fill="#37474F" d="M50.8,64H45c-4.3,0-7.8-3.3-7.8-7.3V22.5c0-3.7,3-6.4,6-7.2V4.6c0-2,1.6-3.6,3.6-3.6H49
			c1.8,0,3.2,1.6,3.2,3.6v10.6c3.7,0.7,6,3.4,6,7.3v34.2C58.2,60.9,55,64,50.8,64z M46.8,3c-0.8,0-1.6,0.8-1.6,1.6v11.5
			c0,0.5-0.4,0.9-0.9,1c-2.5,0.3-5.1,2.6-5.1,5.4v34.2c0,3,2.5,5.3,5.8,5.3h5.8c3.1,0,5.5-2.3,5.5-5.3V22.5c0-3.1-1.9-5.1-5.1-5.4
			c-0.5-0.1-0.9-0.5-0.9-1V4.6C50.2,3.8,49.9,3,49,3H46.8z"/>
	</g>
	<g>
		<path fill="#FFAB00" d="M52.7,3c0,1.1-0.9,2-2,2h-6c-1.1,0-2-0.9-2-2l0,0c0-1.1,0.9-2,2-2h6C51.9,1,52.7,1.9,52.7,3L52.7,3z"/>
		<path fill="#37474F" d="M50.7,6h-6c-1.7,0-3-1.3-3-3s1.3-3,3-3h6c1.7,0,3,1.3,3,3S52.4,6,50.7,6z M44.7,2c-0.6,0-1,0.4-1,1
			s0.4,1,1,1h6c0.6,0,1-0.4,1-1s-0.4-1-1-1H44.7z"/>
	</g>
	<g>
		<path fill="#37474F" d="M38.7,21c-0.1,1-0.5,1-0.5,1.5v34.2c0,3.6,3.2,6.3,6.8,6.3h5.8c3.6,0,6.5-2.7,6.5-6.3V22.5
			c0-0.5-0.1-0.5-0.2-1.5H38.7z"/>
		<path fill="#37474F" d="M50.8,64H45c-4.3,0-7.8-3.3-7.8-7.3V22.5c0-0.5,0.2-0.8,0.3-1c0.1-0.2,0.2-0.3,0.2-0.6
			c0.1-0.5,0.5-0.9,1-0.9h18.3c0.5,0,0.9,0.4,1,0.9c0,0.4,0.1,0.6,0.1,0.8c0,0.3,0.1,0.5,0.1,0.8v34.2C58.2,60.9,55,64,50.8,64z
			 M39.5,22c-0.1,0.2-0.2,0.4-0.3,0.5c0,0,0,0.1-0.1,0.1l0,34.1c0,3,2.5,5.3,5.8,5.3h5.8c3.1,0,5.5-2.3,5.5-5.3V22.5
			c0-0.2,0-0.3,0-0.5H39.5z"/>
	</g>
	<g>
		<g>
			<path fill="#FFECB3" d="M34.2,42.7c0,1.8-1.5,3.3-3.3,3.3h-0.4c-1.8,0-3.3-1.5-3.3-3.3V32.3c0-1.8,1.5-3.3,3.3-3.3H31
				c1.8,0,3.3,1.5,3.3,3.3V42.7z"/>
			<path fill="#37474F" d="M31,47h-0.4c-2.4,0-4.3-1.9-4.3-4.3V32.3c0-2.4,1.9-4.3,4.3-4.3H31c2.4,0,4.3,1.9,4.3,4.3v10.4
				C35.2,45.1,33.3,47,31,47z M30.5,30c-1.3,0-2.3,1-2.3,2.3v10.4c0,1.3,1,2.3,2.3,2.3H31c1.3,0,2.3-1,2.3-2.3V32.3
				c0-1.3-1-2.3-2.3-2.3H30.5z"/>
		</g>
		<g>
			<polygon fill="#FFFFFF" points="39,63 23,63 25.3,36 36.7,36 			"/>
			<path fill="#37474F" d="M39,64C39,64,39,64,39,64H23c-0.3,0-0.5-0.1-0.7-0.3S22,63.2,22,62.9l2.3-27c0-0.5,0.5-0.9,1-0.9h11.5
				c0.5,0,1,0.4,1,0.9L40,62.7c0,0.1,0,0.2,0,0.3C40,63.6,39.6,64,39,64z M24.1,62h13.9l-2.1-25h-9.6L24.1,62z"/>
		</g>
		<g>
			<path fill="#FFECB3" d="M39.4,34.5c0,1.8-1.5,3.5-3.3,3.5H25.9c-1.8,0-3.3-1.7-3.3-3.5l0,0c0-1.8,1.5-3.5,3.3-3.5h10.2
				C37.9,31,39.4,32.7,39.4,34.5L39.4,34.5z"/>
			<path fill="#37474F" d="M36.1,39H25.9c-2.3,0-4.3-2.1-4.3-4.5c0-2.4,2-4.5,4.3-4.5h10.2c2.3,0,4.3,2.1,4.3,4.5
				C40.4,36.9,38.4,39,36.1,39z M25.9,32c-1.2,0-2.3,1.2-2.3,2.5c0,1.3,1.1,2.5,2.3,2.5h10.2c1.2,0,2.3-1.2,2.3-2.5
				c0-1.3-1.1-2.5-2.3-2.5H25.9z"/>
		</g>
		<g>
			<g>
				<path fill="#37474F" d="M31,44.1c-0.4,0-0.7-0.3-0.7-0.7c0-0.4,0.3-0.8,0.7-0.7c0.4,0,0.7,0.3,0.7,0.7
					C31.7,43.8,31.4,44.1,31,44.1z"/>
				<path fill="#37474F" d="M31,44.6c-0.7,0-1.2-0.5-1.2-1.2c0-0.3,0.1-0.6,0.3-0.9c0.2-0.2,0.6-0.4,0.9-0.4c0.7,0,1.2,0.5,1.2,1.2
					c0,0.3-0.1,0.6-0.3,0.9C31.7,44.5,31.3,44.6,31,44.6z M31,43.1c-0.1,0-0.2,0-0.2,0.1c0,0-0.1,0.1-0.1,0.2c0,0.2,0.3,0.3,0.4,0.2
					c0,0,0.1-0.1,0.1-0.1C31.2,43.2,31.1,43.1,31,43.1L31,43.1z"/>
			</g>
			<g>
				<path fill="#37474F" d="M31,49.3c-0.4,0-0.7-0.3-0.7-0.7c0-0.4,0.3-0.8,0.7-0.8c0.4,0,0.7,0.3,0.7,0.7
					C31.7,49,31.4,49.3,31,49.3z"/>
				<path fill="#37474F" d="M31,49.8c-0.7,0-1.2-0.6-1.2-1.2c0-0.7,0.5-1.3,1.2-1.3c0.7,0,1.2,0.6,1.2,1.2
					C32.2,49.3,31.7,49.8,31,49.8L31,49.8z M31,48.3c-0.1,0-0.2,0.1-0.2,0.3c0,0.1,0.1,0.2,0.2,0.2v0.5l0-0.5c0.2,0,0.3-0.1,0.3-0.3
					C31.2,48.4,31.1,48.3,31,48.3z"/>
			</g>
			<g>
				<path fill="#37474F" d="M31,54.5c-0.4,0-0.7-0.3-0.7-0.7c0-0.4,0.3-0.8,0.7-0.8s0.7,0.3,0.7,0.7C31.7,54.1,31.4,54.5,31,54.5z"
					/>
				<path fill="#37474F" d="M31,55c-0.7,0-1.2-0.6-1.2-1.2c0-0.7,0.6-1.3,1.2-1.3c0.3,0,0.7,0.1,0.9,0.4c0.2,0.2,0.4,0.6,0.3,0.9
					c0,0.3-0.1,0.6-0.3,0.9C31.7,54.8,31.3,55,31,55z M31,53.5c-0.1,0-0.2,0.1-0.2,0.3c0,0.1,0.1,0.2,0.2,0.2c0.1,0,0.1,0,0.2-0.1
					c0,0,0.1-0.1,0.1-0.2c0-0.1,0-0.2-0.1-0.2C31.1,53.5,31.1,53.5,31,53.5z"/>
			</g>
		</g>
		<g>
			<line fill="#78909C" x1="24.2" y1="59" x2="38.2" y2="59"/>
			<path fill="#37474F" d="M38.2,60h-14c-0.6,0-1-0.4-1-1s0.4-1,1-1h14c0.6,0,1,0.4,1,1S38.8,60,38.2,60z"/>
		</g>
	</g>
	<g>
		<rect x="46.2" y="30" fill="#FFFFFF" width="11" height="19"/>
		<path fill="#37474F" d="M57.2,50h-11c-0.6,0-1-0.4-1-1V30c0-0.6,0.4-1,1-1h11c0.6,0,1,0.4,1,1v19C58.2,49.6,57.8,50,57.2,50z
			 M47.2,48h9V31h-9V48z"/>
	</g>
	<g>
		<rect x="49.2" y="33" fill="#FFFFFF" width="8" height="14"/>
		<path fill="#37474F" d="M57.2,48h-8c-0.6,0-1-0.4-1-1V33c0-0.6,0.4-1,1-1h8c0.6,0,1,0.4,1,1v14C58.2,47.6,57.8,48,57.2,48z
			 M50.2,46h6V34h-6V46z"/>
	</g>
</g>
</svg>
