<?xml version="1.0" encoding="utf-8"?>
<!-- Generator: Adobe Illustrator 16.0.0, SVG Export Plug-In . SVG Version: 6.00 Build 0)  -->
<!DOCTYPE svg PUBLIC "-//W3C//DTD SVG 1.1//EN" "http://www.w3.org/Graphics/SVG/1.1/DTD/svg11.dtd">
<svg version="1.1" id="Layer_1" xmlns="http://www.w3.org/2000/svg" xmlns:xlink="http://www.w3.org/1999/xlink" x="0px" y="0px"
	 width="64px" height="64px" viewBox="0 0 64 64" enable-background="new 0 0 64 64" xml:space="preserve">
<g>
	<g>
		<g>
			<line fill="#FFFFFF" x1="10" y1="62" x2="10" y2="2"/>
			<path fill="#37474F" d="M10,63c-0.6,0-1-0.4-1-1V2c0-0.6,0.4-1,1-1s1,0.4,1,1v60C11,62.6,10.6,63,10,63z"/>
		</g>
		<g>
			<line fill="#FFFFFF" x1="62" y1="6" x2="2" y2="6"/>
			<path fill="#37474F" d="M62,7H2C1.4,7,1,6.6,1,6s0.4-1,1-1h60c0.6,0,1,0.4,1,1S62.6,7,62,7z"/>
		</g>
		<g>
			<polyline fill="#FFECB3" points="55,17 62,17 62,55 16,55 16,17 22,17 			"/>
			<path fill="#37474F" d="M62,56H16c-0.6,0-1-0.4-1-1V17c0-0.6,0.4-1,1-1h6c0.6,0,1,0.4,1,1s-0.4,1-1,1h-5v36h44V18h-6
				c-0.6,0-1-0.4-1-1s0.4-1,1-1h7c0.6,0,1,0.4,1,1v38C63,55.6,62.6,56,62,56z"/>
		</g>
		<g>
			<g>
				<path d="M22.2,24.1h5.1v1h-3.9v3.1H27v1h-3.6v4.3h-1.2V24.1z"/>
				<polygon fill="#37474F" points="24.4,34.6 21.2,34.6 21.2,23.1 28.3,23.1 28.3,26.2 24.4,26.2 24.4,27.3 28,27.3 28,30.3 
					24.4,30.3 				"/>
			</g>
			<g>
				<path d="M39.1,28.8c0,3.2-2,5-4.4,5c-2.5,0-4.2-1.9-4.2-4.8c0-3,1.9-5,4.4-5C37.4,24,39.1,26,39.1,28.8z M31.8,28.9
					c0,2,1.1,3.8,3,3.8c1.9,0,3-1.8,3-3.9c0-1.9-1-3.8-3-3.8C32.8,25,31.8,26.8,31.8,28.9z"/>
				<path fill="#37474F" d="M34.7,34.7c-3.1,0-5.2-2.4-5.2-5.8c0-3.5,2.3-6,5.4-6c3.1,0,5.2,2.4,5.2,5.8
					C40.1,32.9,37.4,34.7,34.7,34.7z M34.8,26c-1.5,0-2,1.6-2,2.9c0,1.4,0.6,2.8,2,2.8c1.4,0,2-1.5,2-2.9C36.8,27.8,36.4,26,34.8,26
					z"/>
			</g>
			<g>
				<path d="M42.7,24.3c0.6-0.1,1.5-0.2,2.3-0.2c1.3,0,2.1,0.2,2.7,0.8c0.5,0.4,0.7,1.1,0.7,1.8c0,1.2-0.8,2.1-1.8,2.4v0
					c0.7,0.3,1.2,0.9,1.4,1.9c0.3,1.3,0.5,2.2,0.7,2.6h-1.3c-0.2-0.3-0.4-1.1-0.6-2.3c-0.3-1.3-0.8-1.8-1.9-1.8h-1.1v4.1h-1.2V24.3z
					 M43.9,28.6h1.2c1.3,0,2.1-0.7,2.1-1.8c0-1.2-0.9-1.8-2.2-1.8c-0.6,0-1,0.1-1.2,0.1V28.6z"/>
				<path fill="#37474F" d="M50.5,34.6H47l-0.3-0.5c-0.2-0.3-0.4-1-0.7-2.5c-0.2-1-0.5-1-1-1.1l-0.1,0v4.1h-3.2V23.4l0.8-0.2
					c0.7-0.1,1.6-0.2,2.5-0.2c1.6,0,2.6,0.3,3.4,1c0.7,0.6,1.1,1.5,1.1,2.5c0,1-0.4,1.9-1.1,2.5c0.3,0.4,0.5,1,0.7,1.6
					c0.2,0.8,0.5,2.1,0.6,2.3L50.5,34.6z M44.9,27.6h0.2c0.4,0,1.1-0.1,1.1-0.8c0-0.3,0-0.8-1.2-0.8c-0.1,0-0.1,0-0.2,0V27.6z"/>
			</g>
			<g>
				<path d="M22.1,46.1c0.5,0.3,1.3,0.6,2.2,0.6c1.2,0,2-0.7,2-1.6c0-0.9-0.5-1.4-1.8-1.9c-1.5-0.5-2.5-1.3-2.5-2.7
					c0-1.5,1.2-2.6,3.1-2.6c1,0,1.7,0.2,2.1,0.5l-0.3,1C26.4,39.3,25.8,39,25,39c-1.3,0-1.8,0.8-1.8,1.4c0,0.9,0.6,1.3,1.9,1.8
					c1.6,0.6,2.4,1.4,2.4,2.8c0,1.5-1.1,2.7-3.3,2.7c-0.9,0-1.9-0.3-2.4-0.6L22.1,46.1z"/>
				<path fill="#37474F" d="M24.2,48.7c-1.1,0-2.3-0.3-3-0.8l-0.6-0.4l0.9-3l1.1,0.7c0.5,0.3,1.1,0.5,1.7,0.5c0.4,0,1-0.1,1-0.6
					c0-0.2,0-0.5-1.1-0.9c-2.1-0.7-3.1-2-3.1-3.6c0-2.1,1.7-3.6,4.1-3.6c1,0,1.9,0.2,2.6,0.6l0.7,0.4l-1,2.9l-1-0.6
					C26,40.2,25.5,40,25,40c-0.5,0-0.8,0.2-0.8,0.4c0,0.2,0,0.4,1.2,0.9c1.3,0.5,3,1.4,3,3.7C28.5,46.9,27.1,48.7,24.2,48.7z"/>
			</g>
			<g>
				<path d="M32.7,44.6l-1,3h-1.3l3.2-9.4h1.5l3.2,9.4H37l-1-3H32.7z M35.7,43.7l-0.9-2.7c-0.2-0.6-0.3-1.2-0.5-1.7h0
					c-0.1,0.6-0.3,1.1-0.5,1.7l-0.9,2.7H35.7z"/>
				<polygon fill="#37474F" points="39.7,48.6 36.3,48.6 35.3,45.6 33.4,45.6 32.4,48.6 29,48.6 32.9,37.1 35.8,37.1 				"/>
			</g>
			<g>
				<path d="M41.7,38.1h1.2v8.4h4v1h-5.2V38.1z"/>
				<polygon fill="#37474F" points="47.9,48.6 40.7,48.6 40.7,37.1 43.9,37.1 43.9,45.6 47.9,45.6 				"/>
			</g>
			<g>
				<path d="M55.2,43.2h-3.7v3.4h4.1v1h-5.3v-9.4h5.1v1h-3.9v3h3.7V43.2z"/>
				<polygon fill="#37474F" points="56.6,48.6 49.3,48.6 49.3,37.1 56.4,37.1 56.4,40.2 52.5,40.2 52.5,41.1 56.2,41.1 56.2,44.2 
					52.5,44.2 52.5,45.6 56.6,45.6 				"/>
			</g>
		</g>
		<g>
			<line fill="#FFECB3" x1="31" y1="17" x2="47" y2="17"/>
			<path fill="#37474F" d="M47,18H31c-0.6,0-1-0.4-1-1s0.4-1,1-1h16c0.6,0,1,0.4,1,1S47.6,18,47,18z"/>
		</g>
		<g>
			<g>
				<circle fill="#FFECB3" cx="26.5" cy="18" r="2.9"/>
				<path fill="#37474F" d="M26.5,21.9c-2.1,0-3.9-1.7-3.9-3.9s1.7-3.9,3.9-3.9s3.9,1.7,3.9,3.9S28.7,21.9,26.5,21.9z M26.5,16.1
					c-1,0-1.9,0.8-1.9,1.9s0.8,1.9,1.9,1.9s1.9-0.8,1.9-1.9S27.6,16.1,26.5,16.1z"/>
			</g>
			<g>
				<circle fill="#FFECB3" cx="50.8" cy="18" r="2.9"/>
				<path fill="#37474F" d="M50.8,21.9c-2.1,0-3.9-1.7-3.9-3.9s1.7-3.9,3.9-3.9c2.1,0,3.9,1.7,3.9,3.9S53,21.9,50.8,21.9z
					 M50.8,16.1c-1,0-1.9,0.8-1.9,1.9s0.8,1.9,1.9,1.9c1,0,1.9-0.8,1.9-1.9S51.9,16.1,50.8,16.1z"/>
			</g>
		</g>
		<g>
			<line fill="#FFECB3" x1="26.5" y1="8.9" x2="26.5" y2="14.9"/>
			<path fill="#37474F" d="M26.5,15.9c-0.6,0-1-0.4-1-1v-6c0-0.6,0.4-1,1-1s1,0.4,1,1v6C27.5,15.5,27.1,15.9,26.5,15.9z"/>
		</g>
		<g>
			<line fill="#FFECB3" x1="51" y1="9" x2="51" y2="15"/>
			<path fill="#37474F" d="M51,16c-0.6,0-1-0.4-1-1V9c0-0.6,0.4-1,1-1s1,0.4,1,1v6C52,15.6,51.6,16,51,16z"/>
		</g>
	</g>
</g>
</svg>
