<?xml version="1.0" encoding="utf-8"?>
<!-- Generator: Adobe Illustrator 16.0.0, SVG Export Plug-In . SVG Version: 6.00 Build 0)  -->
<!DOCTYPE svg PUBLIC "-//W3C//DTD SVG 1.1//EN" "http://www.w3.org/Graphics/SVG/1.1/DTD/svg11.dtd">
<svg version="1.1" id="Layer_1" xmlns="http://www.w3.org/2000/svg" xmlns:xlink="http://www.w3.org/1999/xlink" x="0px" y="0px"
	 width="64px" height="64px" viewBox="0 0 64 64" enable-background="new 0 0 64 64" xml:space="preserve">
<g>
	<g>
		<g>
			<circle fill="#FFFFFF" cx="29.9" cy="38.7" r="24.2"/>
			<path fill="#37474F" d="M29.9,63.9c-13.9,0-25.2-11.3-25.2-25.2c0-13.9,11.3-25.2,25.2-25.2c13.9,0,25.2,11.3,25.2,25.2
				C55.1,52.6,43.8,63.9,29.9,63.9z M30,15.5c-12.8,0-23.2,10.4-23.2,23.2c0,12.8,10.4,23.2,23.2,23.2c12.8,0,23.2-10.4,23.2-23.2
				C53.1,25.9,42.7,15.5,30,15.5z"/>
		</g>
		<g>
			<ellipse fill="#FFFFFF" cx="29.9" cy="38.7" rx="15.3" ry="24.2"/>
			<path fill="#37474F" d="M30,63.9c-9,0-16.3-11.3-16.3-25.2c0-13.9,7.3-25.2,16.3-25.2c9,0,16.3,11.3,16.3,25.2
				C46.3,52.6,38.9,63.9,30,63.9z M30,15.5c-7.9,0-14.3,10.4-14.3,23.2c0,12.8,6.4,23.2,14.3,23.2h0c7.9,0,14.3-10.4,14.3-23.2
				C44.3,25.9,37.8,15.5,30,15.5z"/>
		</g>
		<g>
			<ellipse fill="#FFFFFF" cx="29.9" cy="38.7" rx="5.4" ry="24.2"/>
			<path fill="#37474F" d="M29.9,63.9c-5.1,0-6.4-16.5-6.4-25.2s1.3-25.2,6.4-25.2c5.1,0,6.4,16.5,6.4,25.2
				C36.3,47.4,35,63.9,29.9,63.9z M30,15.5c-1.5,0-4.4,8.2-4.4,23.2s2.9,23.2,4.4,23.2h0c1.5,0,4.4-8.2,4.4-23.2
				C34.3,23.7,31.4,15.5,30,15.5z"/>
		</g>
	</g>
	<g>
		<g>
			<g>
				<g>
					<path fill="#FFECB3" d="M45,38.9c4-6.5,13.1-19.9,13.1-26.1C58.1,6.6,52,1.5,45,1.2v0c0,0,0.1,0,0,0c-0.1,0,0,0,0,0v0
						c-7,0.3-13.1,5.4-13.1,11.6C31.9,18.9,41,32.3,45,38.9v0.6c0-0.1-0.1-0.2,0-0.3c0.1,0.1,0,0.2,0,0.3V38.9z"/>
					<path fill="#37474F" d="M45,40.5c-0.5,0-1-0.4-1-1c0-0.1,0-0.3,0-0.5c-0.6-0.9-1.2-1.9-1.9-3c-4.7-7.5-11.2-17.8-11.2-23.3
						c0-6.6,6.2-12.2,13.9-12.6c0,0,0,0,0,0c0.1,0,0.3,0,0.4,0c0,0,0,0,0.1,0C53,0.7,59.1,6.3,59.1,12.8c0,5.5-6.5,15.8-11.2,23.3
						c-0.7,1.1-1.3,2.1-1.9,3c0,0.2,0,0.4,0,0.5c0,0,0,0,0,0C46,40.1,45.5,40.5,45,40.5z M45,2.2c-6.6,0.3-12,5.1-12,10.6
						c0,4.9,6.5,15.3,10.9,22.2c0.4,0.7,0.8,1.3,1.2,1.9c0.4-0.6,0.8-1.3,1.2-2c4.3-6.9,10.9-17.3,10.9-22.2
						C57.1,7.2,51.6,2.5,45,2.2z"/>
				</g>
				<g>
					<circle fill="#FFECB3" cx="45" cy="13.7" r="6.5"/>
					<path fill="#37474F" d="M45,21.1c-4.1,0-7.5-3.3-7.5-7.5c0-4.1,3.3-7.5,7.5-7.5c4.1,0,7.5,3.3,7.5,7.5
						C52.4,17.8,49.1,21.1,45,21.1z M45,8.2c-3,0-5.5,2.4-5.5,5.5s2.4,5.5,5.5,5.5c3,0,5.5-2.4,5.5-5.5S48,8.2,45,8.2z"/>
				</g>
			</g>
			<g>
				<line fill="#FFECB3" x1="45" y1="42" x2="45" y2="39"/>
				<path fill="#37474F" d="M45,43c-0.6,0-1-0.4-1-1v-3c0-0.6,0.4-1,1-1s1,0.4,1,1v3C46,42.6,45.6,43,45,43z"/>
			</g>
		</g>
	</g>
</g>
</svg>
