<?xml version="1.0" encoding="utf-8"?>
<!-- Generator: Adobe Illustrator 16.0.0, SVG Export Plug-In . SVG Version: 6.00 Build 0)  -->
<!DOCTYPE svg PUBLIC "-//W3C//DTD SVG 1.1//EN" "http://www.w3.org/Graphics/SVG/1.1/DTD/svg11.dtd">
<svg version="1.1" id="Layer_1" xmlns="http://www.w3.org/2000/svg" xmlns:xlink="http://www.w3.org/1999/xlink" x="0px" y="0px"
	 width="64px" height="64px" viewBox="0 0 64 64" enable-background="new 0 0 64 64" xml:space="preserve">
<g>
	<g>
		<path fill="#B0BEC5" d="M54,32.4c0,12.2-9.9,22-22,22c-12.2,0-22-9.9-22-22c0-12.2,9.9-22,22-22C44.2,10.4,54,20.2,54,32.4z"/>
		<path fill="#37474F" d="M32,55.5c-12.7,0-23-10.3-23-23c0-12.7,10.3-23,23-23s23,10.3,23,23C55,45.1,44.7,55.5,32,55.5z M32,11.4
			c-11.6,0-21,9.4-21,21c0,11.6,9.4,21,21,21s21-9.4,21-21C53,20.8,43.6,11.4,32,11.4z"/>
	</g>
	<g>
		<g>
			<rect x="23.4" y="58.7" fill="#FFFFFF" width="4" height="4"/>
			<path fill="#37474F" d="M27.3,63.6h-4c-0.6,0-1-0.4-1-1v-4c0-0.6,0.4-1,1-1h4c0.6,0,1,0.4,1,1v4C28.3,63.2,27.9,63.6,27.3,63.6z
				 M24.4,61.6h2v-2h-2V61.6z"/>
		</g>
		<g>
			<rect x="37.2" y="58.7" fill="#FFFFFF" width="3.9" height="4"/>
			<path fill="#37474F" d="M41.2,63.6h-3.9c-0.6,0-1-0.4-1-1v-4c0-0.6,0.4-1,1-1h3.9c0.6,0,1,0.4,1,1v4
				C42.2,63.2,41.7,63.6,41.2,63.6z M38.2,61.6h1.9v-2h-1.9V61.6z"/>
		</g>
	</g>
	<g>
		<path fill="#78909C" d="M42.6,58.2c0,0.7-0.8,1.5-1.7,1.5H23.1c-1,0-1.7-0.8-1.7-1.5l3.5-13c0-0.7,0.8-1.3,1.7-1.3h10.8
			c1,0,1.8,0.6,1.8,1.3L42.6,58.2z"/>
		<path fill="#37474F" d="M40.9,60.7H23.1c-1.5,0-2.7-1.2-2.7-2.5c0-0.1,0-0.2,0-0.3L23.9,45c0.1-1.2,1.3-2.2,2.7-2.2h10.8
			c1.5,0,2.7,1,2.7,2.2l3.4,12.9c0,0.1,0,0.2,0,0.3C43.6,59.5,42.3,60.7,40.9,60.7z M22.4,58.2c0.1,0.2,0.3,0.4,0.7,0.4h17.7
			c0.4,0,0.6-0.3,0.7-0.4l-3.4-12.8c0-0.1,0-0.2,0-0.3c0-0.1-0.3-0.3-0.8-0.3H26.6c-0.5,0-0.7,0.2-0.7,0.3c0,0.1,0,0.2,0,0.3
			L22.4,58.2z"/>
	</g>
	<g>
		<path fill="#FFFFFF" d="M42.2,31.8c0.1-0.4,1-2.4,1-2.8V10c0-3.7-3.3-6.7-6.9-6.7h-8.4c-3.6,0-6.4,3-6.4,6.7v19
			c0,0.4,0.1,0.7,0.1,1.1c0,0-0.1,0-0.1,0l0.1,0.4c0.1,0.4,0.1,0.8,0.3,1.2l3.1,11.6c0,0.7,0.8,1.5,1.7,1.5h10.8
			c1,0,1.8-0.8,1.8-1.5L42.2,31.8"/>
		<path fill="#37474F" d="M37.4,45.8H26.6c-1.4,0-2.6-1.1-2.7-2.4l-3-11.4c-0.1-0.3-0.2-0.6-0.2-0.9c0-0.1,0-0.2-0.1-0.3l-0.1-0.5
			c0-0.1,0-0.1,0-0.2c0-0.1,0-0.2,0-0.2c0-0.3-0.1-0.6-0.1-0.9V10c0-4.3,3.2-7.7,7.4-7.7h8.4c4.3,0,7.9,3.5,7.9,7.7v19
			c0,0.4-0.2,0.9-0.6,2.1c-0.1,0.4-0.3,0.8-0.3,1l-3,11.5C40,44.8,38.8,45.8,37.4,45.8z M22.5,30.3L22.5,30.3c0,0.2,0.1,0.3,0.1,0.5
			c0,0.2,0.1,0.4,0.1,0.5c0,0.1,0,0.1,0.1,0.2l3.1,11.6c0,0.1,0,0.2,0,0.3c0,0.1,0.3,0.5,0.7,0.5h10.8c0.5,0,0.8-0.4,0.8-0.5
			c0-0.1,0-0.2,0-0.3l3.1-11.5c0-0.1,0.1-0.5,0.4-1.2c0.2-0.5,0.5-1.2,0.5-1.4l0-18.9c0-3-2.8-5.7-5.9-5.7h-8.4
			c-3,0-5.4,2.5-5.4,5.7v19c0,0.3,0,0.6,0.1,1c0,0.1,0,0.1,0,0.2C22.5,30.2,22.5,30.2,22.5,30.3z"/>
	</g>
	<g>
		<path fill="#FFAB00" d="M42.6,8.3c-0.6-3-3.1-4.9-6.3-4.9h-8.4c-3.2,0-5.7,2-6.3,4.9H42.6z"/>
		<path fill="#37474F" d="M42.6,9.3H21.4c-0.3,0-0.6-0.1-0.8-0.4c-0.2-0.2-0.3-0.5-0.2-0.8c0.7-3.4,3.7-5.7,7.3-5.7h8.4
			c3.6,0,6.6,2.3,7.3,5.7c0.1,0.3,0,0.6-0.2,0.8C43.1,9.1,42.9,9.3,42.6,9.3z M22.8,7.3h18.3c-0.9-1.8-2.7-2.9-4.9-2.9h-8.4
			C25.5,4.3,23.7,5.5,22.8,7.3z"/>
	</g>
	<g>
		<path fill="#FFECB3" d="M36.1,4.3c-0.2-2-1.2-3-2.5-3h-3.3c-1.2,0-2.2,1-2.5,3H36.1z"/>
		<path fill="#37474F" d="M36.1,5.3h-8.2c-0.3,0-0.6-0.1-0.7-0.3c-0.2-0.2-0.3-0.5-0.2-0.8c0.3-2.8,2-3.8,3.5-3.8h3.3
			c1.4,0,3.1,1,3.5,3.8c0,0.3-0.1,0.6-0.2,0.8C36.7,5.2,36.4,5.3,36.1,5.3z M29.2,3.3h5.6c-0.2-0.5-0.6-1-1.2-1h-3.3
			C29.8,2.4,29.4,2.8,29.2,3.3z"/>
	</g>
	<g>
		<circle fill="#FFAB00" cx="32" cy="51.5" r="3.7"/>
		<path fill="#37474F" d="M32,56.2c-2.6,0-4.7-2.1-4.7-4.7c0-2.6,2.1-4.7,4.7-4.7c2.6,0,4.7,2.1,4.7,4.7
			C36.7,54.1,34.6,56.2,32,56.2z M32,48.8c-1.5,0-2.7,1.2-2.7,2.7c0,1.5,1.2,2.7,2.7,2.7c1.5,0,2.7-1.2,2.7-2.7
			C34.7,50,33.5,48.8,32,48.8z"/>
	</g>
	<g>
		<polyline fill="#FFECB3" points="43.1,16.2 49.1,16.2 49.1,28.7 46.8,31.1 		"/>
		<path fill="#37474F" d="M46.8,32.1c-0.2,0-0.5-0.1-0.7-0.3c-0.4-0.4-0.4-1,0-1.4l2-2.1V17.2h-4.9c-0.6,0-1-0.4-1-1s0.4-1,1-1h5.9
			c0.6,0,1,0.4,1,1v12.5c0,0.3-0.1,0.5-0.3,0.7l-2.2,2.4C47.4,32,47.1,32.1,46.8,32.1z"/>
	</g>
	<g>
		<g>
			<g>
				<path fill="#37474F" d="M27.1,19.6c-0.4,0-0.7-0.3-0.7-0.7c0-0.4,0.3-0.7,0.7-0.7c0.4,0,0.7,0.3,0.7,0.7
					C27.8,19.3,27.5,19.6,27.1,19.6z"/>
				<path fill="#37474F" d="M27.1,20.1c-0.7,0-1.2-0.5-1.2-1.2c0-0.3,0.1-0.7,0.3-0.9c0.5-0.5,1.3-0.4,1.7,0
					c0.2,0.2,0.3,0.5,0.3,0.9c0,0.3-0.1,0.6-0.3,0.8C27.7,20,27.4,20.1,27.1,20.1z M27.1,18.7c-0.1,0-0.1,0-0.2,0.1
					c0,0-0.1,0.1-0.1,0.1c0,0.1,0.2,0.3,0.4,0.2c0,0,0.1-0.1,0.1-0.1c0-0.1,0-0.1-0.1-0.2C27.2,18.7,27.2,18.7,27.1,18.7z"/>
			</g>
			<g>
				<path fill="#37474F" d="M27.1,24.6c-0.4,0-0.7-0.3-0.7-0.7c0-0.4,0.3-0.7,0.7-0.7c0.4,0,0.7,0.3,0.7,0.7
					C27.8,24.3,27.5,24.6,27.1,24.6z"/>
				<path fill="#37474F" d="M27.1,25.1c-0.3,0-0.6-0.1-0.8-0.4c-0.2-0.2-0.3-0.5-0.3-0.9c0-0.3,0.1-0.6,0.3-0.9
					c0.2-0.2,0.5-0.4,0.9-0.4c0.7,0,1.2,0.6,1.2,1.2C28.3,24.6,27.8,25.1,27.1,25.1L27.1,25.1z M27.1,23.7c-0.1,0-0.1,0-0.2,0.1
					c0,0-0.1,0.1-0.1,0.2c0,0.1,0,0.1,0.1,0.2c0,0,0.1,0.1,0.1,0.1v0.5l0-0.5c0.1,0,0.2-0.1,0.2-0.2C27.3,23.8,27.2,23.7,27.1,23.7z
					"/>
			</g>
			<g>
				<path fill="#37474F" d="M27.1,29.7c-0.4,0-0.7-0.3-0.7-0.7c0-0.4,0.3-0.7,0.7-0.7c0.4,0,0.7,0.3,0.7,0.7
					C27.8,29.3,27.5,29.7,27.1,29.7z"/>
				<path fill="#37474F" d="M27.1,30.2c-0.7,0-1.2-0.5-1.2-1.2c0-0.7,0.5-1.2,1.2-1.2c0.3,0,0.6,0.1,0.9,0.4
					c0.2,0.2,0.4,0.5,0.3,0.9c0,0.3-0.1,0.6-0.4,0.9C27.7,30,27.4,30.2,27.1,30.2z M27.1,28.7c-0.1,0-0.2,0.1-0.2,0.2
					c0,0.1,0.1,0.2,0.2,0.2c0.1,0,0.1,0,0.1-0.1c0,0,0.1-0.1,0.1-0.2c0-0.1,0-0.1-0.1-0.2C27.2,28.8,27.2,28.7,27.1,28.7z"/>
			</g>
		</g>
		<g>
			<g>
				<path fill="#37474F" d="M32,19.6c-0.4,0-0.7-0.3-0.7-0.7c0-0.4,0.3-0.7,0.7-0.7c0.4,0,0.7,0.3,0.7,0.7
					C32.7,19.3,32.4,19.6,32,19.6z"/>
				<path fill="#37474F" d="M32,20.1c-0.7,0-1.2-0.5-1.2-1.2c0-0.3,0.1-0.6,0.3-0.9c0.5-0.5,1.3-0.4,1.7,0c0.2,0.2,0.3,0.5,0.3,0.9
					c0,0.3-0.1,0.6-0.3,0.8C32.6,20,32.3,20.1,32,20.1z M32,18.7c-0.1,0-0.1,0-0.2,0.1c0,0-0.1,0.1-0.1,0.1c0,0.2,0.2,0.3,0.4,0.2
					c0,0,0.1-0.1,0.1-0.1c0-0.1,0-0.1-0.1-0.2S32.1,18.7,32,18.7z"/>
			</g>
			<g>
				<path fill="#37474F" d="M32,24.6c-0.4,0-0.7-0.3-0.7-0.7c0-0.4,0.3-0.7,0.7-0.7c0.4,0,0.7,0.3,0.7,0.7
					C32.7,24.3,32.4,24.6,32,24.6z"/>
				<path fill="#37474F" d="M32,25.1c-0.3,0-0.6-0.1-0.8-0.4c-0.2-0.2-0.4-0.5-0.4-0.9c0-0.3,0.1-0.6,0.4-0.9
					c0.2-0.2,0.5-0.4,0.9-0.4c0.7,0,1.2,0.6,1.2,1.2C33.2,24.6,32.7,25.1,32,25.1L32,25.1z M32,23.7c-0.1,0-0.1,0-0.2,0.1
					c0,0-0.1,0.1-0.1,0.2c0,0.1,0,0.1,0.1,0.2c0,0,0.1,0.1,0.1,0.1v0.5l0-0.5c0.1,0,0.2-0.1,0.2-0.2C32.2,23.8,32.1,23.7,32,23.7z"
					/>
			</g>
			<g>
				<path fill="#37474F" d="M32,29.7c-0.4,0-0.7-0.3-0.7-0.7c0-0.4,0.3-0.7,0.7-0.7c0.4,0,0.7,0.3,0.7,0.7
					C32.7,29.3,32.4,29.7,32,29.7z"/>
				<path fill="#37474F" d="M32,30.2c-0.7,0-1.2-0.5-1.2-1.2c0-0.7,0.5-1.2,1.2-1.2c0.3,0,0.6,0.1,0.9,0.4c0.2,0.2,0.4,0.5,0.3,0.9
					c0,0.3-0.1,0.6-0.4,0.9C32.6,30,32.3,30.2,32,30.2z M32,28.7c-0.1,0-0.2,0.1-0.2,0.2c0,0.1,0.1,0.2,0.2,0.2c0.1,0,0.1,0,0.1-0.1
					c0,0,0.1-0.1,0.1-0.2c0-0.1,0-0.1-0.1-0.2C32.1,28.8,32.1,28.7,32,28.7z"/>
			</g>
		</g>
		<g>
			<g>
				<path fill="#37474F" d="M36.9,19.6c-0.4,0-0.7-0.3-0.7-0.7c0-0.4,0.3-0.7,0.7-0.7c0.4,0,0.7,0.3,0.7,0.7
					C37.6,19.3,37.3,19.6,36.9,19.6z"/>
				<path fill="#37474F" d="M36.9,20.1c-0.7,0-1.2-0.5-1.2-1.2c0-0.3,0.1-0.6,0.3-0.9c0.5-0.5,1.3-0.4,1.7,0
					c0.2,0.2,0.3,0.5,0.3,0.9c0,0.3-0.1,0.6-0.3,0.8C37.6,20,37.2,20.1,36.9,20.1z M36.9,18.7c-0.1,0-0.1,0-0.2,0.1
					c0,0-0.1,0.1-0.1,0.2c0,0.1,0.2,0.3,0.4,0.2c0,0,0.1-0.1,0.1-0.1c0-0.1,0-0.1-0.1-0.2C37,18.7,36.9,18.7,36.9,18.7z"/>
			</g>
			<g>
				<path fill="#37474F" d="M36.9,24.6c-0.4,0-0.7-0.3-0.7-0.7c0-0.4,0.3-0.7,0.7-0.7c0.4,0,0.7,0.3,0.7,0.7
					C37.6,24.3,37.3,24.6,36.9,24.6z"/>
				<path fill="#37474F" d="M36.9,25.1c-0.3,0-0.6-0.1-0.8-0.4s-0.4-0.5-0.3-0.9c0-0.3,0.1-0.6,0.3-0.9c0.2-0.2,0.5-0.4,0.9-0.4
					c0.7,0,1.2,0.6,1.2,1.2C38.1,24.6,37.6,25.1,36.9,25.1L36.9,25.1z M36.9,23.7c-0.1,0-0.1,0-0.2,0.1c0,0-0.1,0.1-0.1,0.2
					c0,0.1,0,0.1,0.1,0.2c0,0,0.1,0.1,0.1,0.1v0.5l0-0.5c0.1,0,0.2-0.1,0.2-0.2C37.1,23.8,37,23.7,36.9,23.7z"/>
			</g>
			<g>
				<path fill="#37474F" d="M36.9,29.7c-0.4,0-0.7-0.3-0.7-0.7c0-0.4,0.3-0.7,0.7-0.7c0.4,0,0.7,0.3,0.7,0.7
					C37.6,29.3,37.3,29.7,36.9,29.7z"/>
				<path fill="#37474F" d="M36.9,30.2c-0.7,0-1.2-0.5-1.2-1.2c0-0.7,0.5-1.2,1.2-1.2c0.3,0,0.6,0.1,0.9,0.4
					c0.2,0.2,0.4,0.5,0.3,0.9c0,0.3-0.1,0.6-0.3,0.9C37.5,30,37.2,30.2,36.9,30.2z M36.9,28.7c-0.1,0-0.2,0.1-0.2,0.2
					c0,0.1,0.1,0.2,0.2,0.2c0.1,0,0.1,0,0.1-0.1c0,0,0.1-0.1,0.1-0.2c0-0.1,0-0.1-0.1-0.2C37,28.8,37,28.7,36.9,28.7z"/>
			</g>
		</g>
	</g>
</g>
</svg>
