<?xml version="1.0" encoding="utf-8"?>
<!-- Generator: Adobe Illustrator 16.0.0, SVG Export Plug-In . SVG Version: 6.00 Build 0)  -->
<!DOCTYPE svg PUBLIC "-//W3C//DTD SVG 1.1//EN" "http://www.w3.org/Graphics/SVG/1.1/DTD/svg11.dtd">
<svg version="1.1" id="Layer_1" xmlns="http://www.w3.org/2000/svg" xmlns:xlink="http://www.w3.org/1999/xlink" x="0px" y="0px"
	 width="32px" height="32px" viewBox="0 0 32 32" enable-background="new 0 0 32 32" xml:space="preserve">
<g>
	<g>
		<g>
			<polyline fill="#FFAB00" points="1.1,15.3 11.8,6.2 22.5,15.3 			"/>
			<path fill="#37474F" d="M22.5,15.8c-0.1,0-0.2,0-0.3-0.1L11.8,6.8L1.5,15.6c-0.2,0.2-0.5,0.2-0.7-0.1s-0.2-0.5,0.1-0.7l10.7-9.1
				c0.2-0.2,0.5-0.2,0.6,0l10.7,9.1c0.2,0.2,0.2,0.5,0.1,0.7C22.8,15.7,22.7,15.8,22.5,15.8z"/>
		</g>
		<g>
			<polyline fill="#FFECB3" points="19.5,15 19.5,26.5 4.5,26.5 4.5,15 			"/>
			<path fill="#37474F" d="M19.5,27h-15C4.2,27,4,26.8,4,26.5V15c0-0.3,0.2-0.5,0.5-0.5S5,14.7,5,15v11h14V15c0-0.3,0.2-0.5,0.5-0.5
				S20,14.7,20,15v11.5C20,26.8,19.8,27,19.5,27z"/>
		</g>
		<g>
			<rect x="6.5" y="18.5" fill="#FFECB3" width="5" height="8"/>
			<path fill="#37474F" d="M11.5,27h-5C6.2,27,6,26.8,6,26.5v-8C6,18.2,6.2,18,6.5,18h5c0.3,0,0.5,0.2,0.5,0.5v8
				C12,26.8,11.8,27,11.5,27z M7,26h4v-7H7V26z"/>
		</g>
		<g>
			<circle fill="#FFFFFF" cx="15.5" cy="20.8" r="2"/>
			<path fill="#37474F" d="M15.5,23.3c-1.4,0-2.5-1.1-2.5-2.5c0-1.4,1.1-2.5,2.5-2.5c1.4,0,2.5,1.1,2.5,2.5
				C18,22.2,16.9,23.3,15.5,23.3z M15.5,19.3c-0.8,0-1.5,0.7-1.5,1.5c0,0.8,0.7,1.5,1.5,1.5c0.8,0,1.5-0.7,1.5-1.5
				C17,20,16.3,19.3,15.5,19.3z"/>
		</g>
		<g>
			<line fill="#FFECB3" x1="17" y1="20.5" x2="14" y2="20.5"/>
			<path fill="#37474F" d="M17,21h-3c-0.3,0-0.5-0.2-0.5-0.5S13.7,20,14,20h3c0.3,0,0.5,0.2,0.5,0.5S17.3,21,17,21z"/>
		</g>
		<g>
			<polyline fill="#FFECB3" points="4.5,12 4.5,7.5 6,7.5 			"/>
			<path fill="#37474F" d="M4.5,12.5C4.2,12.5,4,12.3,4,12V7.5C4,7.2,4.2,7,4.5,7H6c0.3,0,0.5,0.2,0.5,0.5S6.3,8,6,8H5v4
				C5,12.3,4.8,12.5,4.5,12.5z"/>
		</g>
	</g>
	<g>
		<line fill="#FFFFFF" x1="1" y1="26.5" x2="31" y2="26.5"/>
		<path fill="#37474F" d="M31,27H1c-0.3,0-0.5-0.2-0.5-0.5S0.7,26,1,26h30c0.3,0,0.5,0.2,0.5,0.5S31.3,27,31,27z"/>
	</g>
	<g>
		<polyline fill="#FFFFFF" points="20,18.5 22.5,18.5 22.5,22.5 25.5,22.5 25.5,24.5 26.5,24.5 26.5,14.5 29.5,14.5 29.5,23.5 
			30.5,23.5 30.5,25 		"/>
		<path fill="#37474F" d="M30.5,25.5c-0.3,0-0.5-0.2-0.5-0.5v-1h-0.5c-0.3,0-0.5-0.2-0.5-0.5V15h-2v9.5c0,0.3-0.2,0.5-0.5,0.5h-1
			c-0.3,0-0.5-0.2-0.5-0.5V23h-2.5c-0.3,0-0.5-0.2-0.5-0.5V19h-2c-0.3,0-0.5-0.2-0.5-0.5S19.7,18,20,18h2.5c0.3,0,0.5,0.2,0.5,0.5
			V22h2.5c0.3,0,0.5,0.2,0.5,0.5V24v-9.5c0-0.3,0.2-0.5,0.5-0.5h3c0.3,0,0.5,0.2,0.5,0.5V23h0.5c0.3,0,0.5,0.2,0.5,0.5V25
			C31,25.3,30.8,25.5,30.5,25.5z"/>
	</g>
	<g>
		<polyline fill="#FFFFFF" points="1,23.5 2.5,23.5 2.5,21.5 4,21.5 		"/>
		<path fill="#37474F" d="M2.5,24H1c-0.3,0-0.5-0.2-0.5-0.5S0.7,23,1,23h1v-1.5C2,21.2,2.2,21,2.5,21H4c0.3,0,0.5,0.2,0.5,0.5
			S4.3,22,4,22H3v1.5C3,23.8,2.8,24,2.5,24z"/>
	</g>
</g>
</svg>
