<?xml version="1.0" encoding="utf-8"?>
<!-- Generator: Adobe Illustrator 16.0.0, SVG Export Plug-In . SVG Version: 6.00 Build 0)  -->
<!DOCTYPE svg PUBLIC "-//W3C//DTD SVG 1.1//EN" "http://www.w3.org/Graphics/SVG/1.1/DTD/svg11.dtd">
<svg version="1.1" id="Layer_1" xmlns="http://www.w3.org/2000/svg" xmlns:xlink="http://www.w3.org/1999/xlink" x="0px" y="0px"
	 width="64px" height="64px" viewBox="0 0 64 64" enable-background="new 0 0 64 64" xml:space="preserve">
<g>
	<g>
		<g>
			<rect x="24.8" y="5.9" fill="#FFECB3" width="17" height="6"/>
			<path fill="#37474F" d="M41.8,12.9h-17c-0.6,0-1-0.4-1-1v-6c0-0.6,0.4-1,1-1h17c0.6,0,1,0.4,1,1v6C42.8,12.5,42.3,12.9,41.8,12.9
				z M25.8,10.9h15v-4h-15V10.9z"/>
		</g>
		<g>
			<path fill="#B0BEC5" d="M49.4,23.9h10.9c-0.3-12-8.1-21-17.7-21c-0.9,0-2.7,0-2.7,0v11.4c0,0,0.4,0,0.6,0
				C45.1,14.3,49.1,18.9,49.4,23.9z"/>
			<path fill="#37474F" d="M60.2,24.9H49.4c-0.5,0-1-0.4-1-0.9c-0.3-4.7-3.9-8.7-8-8.7c-0.1,0-0.3,0-0.4,0l-0.1,0c-0.6,0-1-0.4-1-1
				V2.9c0-0.6,0.4-1,1-1h2.7c10.2,0,18.4,9.7,18.7,22c0,0.3-0.1,0.5-0.3,0.7C60.8,24.8,60.5,24.9,60.2,24.9z M50.3,22.9h8.9
				c-0.7-10.7-7.8-19-16.7-19h-1.7v9.4C45.4,13.6,49.6,17.8,50.3,22.9z"/>
		</g>
		<g>
			<path fill="#78909C" d="M50.9,17.9h8.1c-0.2-9-6.1-15.3-13.3-15.3c-0.6,0-1,0-2,0.1v8.2c0,0,0,0,0,0
				C47.3,10.9,50.7,13.9,50.9,17.9z"/>
			<path fill="#37474F" d="M60.1,18.9H50L49.9,18c-0.2-3.3-3-6.1-6.1-6.1h-1V1.8l0.9-0.1c0.7-0.1,1.1-0.1,1.5-0.1l0.6,0
				c7.9,0,14.1,7,14.3,16.3L60.1,18.9z M51.8,16.9H58C57.4,9.3,52.3,3.6,45.8,3.6l-0.6,0c-0.1,0-0.3,0-0.4,0V10
				C48.3,10.4,51.2,13.3,51.8,16.9z"/>
		</g>
		<g>
			<path fill="#B0BEC5" d="M59.8,22.7c-3-0.7-19.1-1.4-22.4-1.4c-17.8,0-32.1,11.6-34.2,25.6h56.6V22.7z"/>
			<path fill="#37474F" d="M59.8,47.9H3.1c-0.3,0-0.6-0.1-0.8-0.3s-0.3-0.5-0.2-0.8c2.3-15.1,17.5-26.5,35.2-26.5
				c3.2,0,19.5,0.6,22.6,1.4c0.5,0.1,0.8,0.5,0.8,1v24.3C60.8,47.5,60.3,47.9,59.8,47.9z M4.3,45.9h54.5V23.5
				c-4.2-0.6-18-1.2-21.4-1.2C21.1,22.3,7.1,32.4,4.3,45.9z"/>
		</g>
		<g>
			<path fill="#FFFFFF" d="M5.8,38.9h54V22.7c-3-0.7-19.1-1.4-22.4-1.4C23,21.2,11.1,28.9,5.8,38.9z"/>
			<path fill="#37474F" d="M59.8,39.9h-54c-0.4,0-0.7-0.2-0.9-0.5s-0.2-0.7,0-1c5.9-11.1,18.6-18.2,32.5-18.2
				c3.1,0,19.5,0.7,22.6,1.5c0.5,0.1,0.8,0.5,0.8,1v16.3C60.8,39.5,60.3,39.9,59.8,39.9z M7.5,37.9h51.3V23.5
				c-4.2-0.6-18.3-1.3-21.4-1.3C24.9,22.2,13.4,28.3,7.5,37.9z"/>
		</g>
		<g>
			<g>
				<path fill="#37474F" d="M30.5,33.7c0-0.5,0.4-0.9,0.9-0.9c0.5,0,0.9,0.4,0.9,0.9c0,0.5-0.4,0.9-0.9,0.9
					C30.9,34.6,30.5,34.2,30.5,33.7z"/>
				<path fill="#37474F" d="M31.3,35.1c-0.7,0-1.3-0.6-1.3-1.4c0-0.8,0.6-1.4,1.4-1.4c0.4,0,0.7,0.1,1,0.4c0.3,0.3,0.4,0.6,0.4,1
					C32.7,34.5,32.1,35.1,31.3,35.1L31.3,35.1z M31.4,33.3c-0.2,0-0.4,0.2-0.4,0.4c0,0.2,0.2,0.4,0.3,0.4v0.5l0-0.5
					c0.2,0,0.4-0.2,0.4-0.4c0-0.1-0.1-0.2-0.1-0.3C31.6,33.4,31.5,33.3,31.4,33.3z"/>
			</g>
			<g>
				<path fill="#37474F" d="M24.5,33.7c0-0.5,0.4-0.9,0.9-0.9c0.5,0,0.9,0.4,0.9,0.9c0,0.5-0.4,0.9-0.9,0.9
					C24.9,34.6,24.5,34.2,24.5,33.7z"/>
				<path fill="#37474F" d="M25.3,35.1L25.3,35.1c-0.8,0-1.3-0.6-1.3-1.4c0-0.4,0.1-0.7,0.4-1c0.3-0.3,0.6-0.4,1-0.4
					c0.7,0,1.4,0.6,1.4,1.4C26.7,34.5,26.1,35.1,25.3,35.1z M25.3,33.3c-0.1,0-0.2,0-0.3,0.1c0,0-0.1,0.1-0.1,0.3
					c0,0.2,0.2,0.4,0.4,0.4c0.2,0,0.4-0.2,0.4-0.4C25.7,33.5,25.5,33.3,25.3,33.3z"/>
			</g>
			<g>
				<path fill="#37474F" d="M18.4,33.7c0-0.5,0.4-0.9,0.9-0.9c0.5,0,0.9,0.4,0.9,0.9c0,0.5-0.4,0.9-0.9,0.9
					C18.8,34.6,18.4,34.2,18.4,33.7z"/>
				<path fill="#37474F" d="M19.3,35.1L19.3,35.1C19.3,35.1,19.3,35.1,19.3,35.1c-0.8,0-1.4-0.6-1.4-1.4c0-0.8,0.6-1.4,1.4-1.4
					c0.8,0,1.4,0.6,1.4,1.4C20.6,34.5,20,35.1,19.3,35.1z M19.3,33.3c-0.2,0-0.4,0.2-0.4,0.4c0,0.2,0.2,0.4,0.3,0.4l0.1,0.5v-0.5
					c0.2,0,0.3-0.2,0.3-0.4C19.6,33.5,19.5,33.3,19.3,33.3z"/>
			</g>
		</g>
		<g>
			<g>
				<path fill="#37474F" d="M51.6,33.7c0-0.5,0.4-0.9,0.9-0.9c0.5,0,0.9,0.4,0.9,0.9c0,0.5-0.4,0.9-0.9,0.9
					C52,34.6,51.6,34.2,51.6,33.7z"/>
				<path fill="#37474F" d="M52.4,35.1c-0.7,0-1.3-0.6-1.3-1.4c0-0.8,0.6-1.4,1.4-1.4c0.4,0,0.7,0.1,1,0.4c0.3,0.3,0.4,0.6,0.4,1
					C53.8,34.5,53.2,35.1,52.4,35.1L52.4,35.1z M52.5,33.3c-0.2,0-0.4,0.2-0.4,0.4c0,0.2,0.2,0.4,0.3,0.4v0.5l0-0.5
					c0.2,0,0.4-0.2,0.4-0.4c0-0.1-0.1-0.2-0.1-0.3C52.7,33.4,52.6,33.3,52.5,33.3z"/>
			</g>
			<g>
				<path fill="#37474F" d="M45.5,33.7c0-0.5,0.4-0.9,0.9-0.9c0.5,0,0.9,0.4,0.9,0.9c0,0.5-0.4,0.9-0.9,0.9
					C45.9,34.6,45.5,34.2,45.5,33.7z"/>
				<path fill="#37474F" d="M46.4,35.1L46.4,35.1c-0.8,0-1.3-0.6-1.3-1.4c0-0.4,0.1-0.7,0.4-1c0.3-0.3,0.6-0.4,1-0.4
					c0.8,0,1.4,0.6,1.4,1.4C47.8,34.5,47.2,35.1,46.4,35.1z M46.4,33.3c-0.1,0-0.2,0-0.3,0.1c0,0-0.1,0.1-0.1,0.3
					c0,0.2,0.2,0.4,0.4,0.4c0.2,0,0.4-0.2,0.4-0.4C46.8,33.5,46.6,33.3,46.4,33.3z"/>
			</g>
			<g>
				<path fill="#37474F" d="M39.5,33.7c0-0.5,0.4-0.9,0.9-0.9c0.5,0,0.9,0.4,0.9,0.9c0,0.5-0.4,0.9-0.9,0.9
					C39.9,34.6,39.5,34.2,39.5,33.7z"/>
				<path fill="#37474F" d="M40.4,35.1L40.4,35.1C40.3,35.1,40.3,35.1,40.4,35.1c-0.8,0-1.4-0.6-1.4-1.4c0-0.8,0.6-1.4,1.4-1.4
					c0.8,0,1.4,0.6,1.4,1.4C41.7,34.5,41.1,35.1,40.4,35.1z M40.4,33.3c-0.2,0-0.4,0.2-0.4,0.4c0,0.2,0.2,0.4,0.3,0.4l0.1,0.5v-0.5
					c0.2,0,0.3-0.2,0.3-0.4C40.7,33.5,40.6,33.3,40.4,33.3z"/>
			</g>
		</g>
		<g>
			<g>
				<path fill="#FFAB00" d="M60.9,22.2c0,3.2-2.6,5.7-5.7,5.7c-3.2,0-5.7-2.6-5.7-5.7c0-3.2,2.6-5.7,5.7-5.7
					C58.3,16.5,60.9,19,60.9,22.2z"/>
				<path fill="#37474F" d="M55.1,28.9c-3.7,0-6.7-3-6.7-6.7c0-3.7,3-6.7,6.7-6.7c3.7,0,6.7,3,6.7,6.7
					C61.9,25.9,58.8,28.9,55.1,28.9z M55.1,17.5c-2.6,0-4.7,2.1-4.7,4.7c0,2.6,2.1,4.7,4.7,4.7c2.6,0,4.7-2.1,4.7-4.7
					C59.9,19.6,57.7,17.5,55.1,17.5z"/>
			</g>
			<g>
				<path fill="#FFECB3" d="M57.7,22.2c0,1.4-1.2,2.6-2.6,2.6c-1.4,0-2.6-1.2-2.6-2.6c0-1.4,1.2-2.6,2.6-2.6
					C56.6,19.6,57.7,20.8,57.7,22.2z"/>
				<path fill="#37474F" d="M55.1,25.8c-2,0-3.6-1.6-3.6-3.6c0-2,1.6-3.6,3.6-3.6c2,0,3.6,1.6,3.6,3.6
					C58.7,24.2,57.1,25.8,55.1,25.8z M55.1,20.6c-0.9,0-1.6,0.7-1.6,1.6c0,0.9,0.7,1.6,1.6,1.6c0.9,0,1.6-0.7,1.6-1.6
					C56.7,21.3,56,20.6,55.1,20.6z"/>
			</g>
		</g>
		<g>
			<rect x="24.8" y="2.9" fill="#FFAB00" width="17" height="6"/>
			<path fill="#37474F" d="M41.8,9.9h-17c-0.6,0-1-0.4-1-1v-6c0-0.6,0.4-1,1-1h17c0.6,0,1,0.4,1,1v6C42.8,9.5,42.3,9.9,41.8,9.9z
				 M25.8,7.9h15v-4h-15V7.9z"/>
		</g>
	</g>
	<g>
		<g>
			<g>
				<line fill="#78909C" x1="15.1" y1="50.9" x2="15.1" y2="58.9"/>
				<path fill="#37474F" d="M15.1,59.9c-0.6,0-1-0.4-1-1v-8c0-0.6,0.4-1,1-1s1,0.4,1,1v8C16.1,59.5,15.6,59.9,15.1,59.9z"/>
			</g>
			<g>
				<polygon fill="#37474F" points="12.6,58.9 15.1,61.4 17.6,58.9 				"/>
			</g>
		</g>
	</g>
	<g>
		<g>
			<g>
				<line fill="#78909C" x1="26.9" y1="51.1" x2="26.9" y2="60.1"/>
				<path fill="#37474F" d="M26.9,61.1c-0.6,0-1-0.4-1-1v-9c0-0.6,0.4-1,1-1s1,0.4,1,1v9C27.9,60.6,27.4,61.1,26.9,61.1z"/>
			</g>
			<g>
				<polygon fill="#37474F" points="24.4,58.9 26.9,61.4 29.4,58.9 				"/>
			</g>
		</g>
	</g>
	<g>
		<g>
			<g>
				<line fill="#78909C" x1="38.7" y1="51.2" x2="38.7" y2="59.2"/>
				<path fill="#37474F" d="M38.7,60.2c-0.6,0-1-0.4-1-1v-8c0-0.6,0.4-1,1-1s1,0.4,1,1v8C39.7,59.8,39.2,60.2,38.7,60.2z"/>
			</g>
			<g>
				<polygon fill="#37474F" points="36.2,58.9 38.7,61.4 41.2,58.9 				"/>
			</g>
		</g>
	</g>
	<g>
		<g>
			<g>
				<line fill="#78909C" x1="50.4" y1="51" x2="50.4" y2="59"/>
				<path fill="#37474F" d="M50.4,60c-0.6,0-1-0.4-1-1v-8c0-0.6,0.4-1,1-1s1,0.4,1,1v8C51.4,59.6,51,60,50.4,60z"/>
			</g>
			<g>
				<polygon fill="#37474F" points="47.9,58.9 50.4,61.4 53,58.9 				"/>
			</g>
		</g>
	</g>
</g>
</svg>
