<?xml version="1.0" encoding="utf-8"?>
<!-- Generator: Adobe Illustrator 16.0.0, SVG Export Plug-In . SVG Version: 6.00 Build 0)  -->
<!DOCTYPE svg PUBLIC "-//W3C//DTD SVG 1.1//EN" "http://www.w3.org/Graphics/SVG/1.1/DTD/svg11.dtd">
<svg version="1.1" id="Layer_1" xmlns="http://www.w3.org/2000/svg" xmlns:xlink="http://www.w3.org/1999/xlink" x="0px" y="0px"
	 width="65px" height="65px" viewBox="0 0 65 65" enable-background="new 0 0 65 65" xml:space="preserve">
<g>
	<g>
		<rect x="1.5" y="7.5" fill="#FFFFFF" width="37" height="36"/>
		<path fill="#37474F" d="M38.5,44.5h-37c-0.6,0-1-0.4-1-1v-36c0-0.6,0.4-1,1-1h37c0.6,0,1,0.4,1,1v36
			C39.5,44.1,39.1,44.5,38.5,44.5z M2.5,42.5h35v-34h-35V42.5z"/>
	</g>
	<g>
		<circle fill="#FFECB3" cx="19.8" cy="25.5" r="11.3"/>
		<path fill="#37474F" d="M19.8,37.9c-6.8,0-12.3-5.5-12.3-12.3c0-6.8,5.5-12.3,12.3-12.3s12.3,5.5,12.3,12.3
			C32.2,32.3,26.6,37.9,19.8,37.9z M19.8,15.2c-5.7,0-10.3,4.6-10.3,10.3c0,5.7,4.6,10.3,10.3,10.3s10.3-4.6,10.3-10.3
			C30.2,19.8,25.5,15.2,19.8,15.2z"/>
	</g>
	<g>
		<g>
			<line fill="#FFFFFF" x1="16.5" y1="23.5" x2="16.5" y2="27.5"/>
			<path fill="#37474F" d="M16.5,28.5c-0.6,0-1-0.4-1-1v-4c0-0.6,0.4-1,1-1s1,0.4,1,1v4C17.5,28.1,17.1,28.5,16.5,28.5z"/>
		</g>
		<g>
			<line fill="#FFFFFF" x1="23.5" y1="23.5" x2="23.5" y2="27.5"/>
			<path fill="#37474F" d="M23.5,28.5c-0.6,0-1-0.4-1-1v-4c0-0.6,0.4-1,1-1s1,0.4,1,1v4C24.5,28.1,24.1,28.5,23.5,28.5z"/>
		</g>
	</g>
	<g>
		<g>
			<g>
				<g>
					<line fill="#FFFFFF" x1="48.5" y1="10.5" x2="48.5" y2="21.5"/>
					<path fill="#37474F" d="M48.5,22.5c-0.6,0-1-0.4-1-1v-11c0-0.6,0.4-1,1-1s1,0.4,1,1v11C49.5,22.1,49.1,22.5,48.5,22.5z"/>
				</g>
				<g>
					<line fill="#FFFFFF" x1="57.5" y1="10.5" x2="57.5" y2="21.5"/>
					<path fill="#37474F" d="M57.5,22.5c-0.6,0-1-0.4-1-1v-11c0-0.6,0.4-1,1-1s1,0.4,1,1v11C58.5,22.1,58.1,22.5,57.5,22.5z"/>
				</g>
			</g>
			<g>
				<path fill="#FFECB3" d="M42.4,21.5c0,5,4.7,10.5,10.5,10.5c5.8,0,10.5-5.5,10.5-10.5H42.4z"/>
				<path fill="#37474F" d="M52.9,33c-6.5,0-11.5-6.2-11.5-11.5c0-0.6,0.4-1,1-1h21.1c0.6,0,1,0.4,1,1C64.5,26.8,59.4,33,52.9,33z
					 M43.5,22.5C44,26.6,48,31,52.9,31c5,0,8.9-4.4,9.5-8.5H43.5z"/>
			</g>
		</g>
		<g>
			<path fill="#37474F" d="M40,58.5H4.5c-0.6,0-1-0.4-1-1s0.4-1,1-1H40c7.5,0,12.5-5.8,12.5-11.3v-6.7c0-0.6,0.4-1,1-1s1,0.4,1,1
				v6.7C54.5,52.4,47.8,58.5,40,58.5z"/>
		</g>
		<g>
			<path fill="#FFAB00" d="M60.5,34.2L60.5,34.2c0,2-1.6,3.3-3.5,3.3h-8.1c-2,0-3.5-1.5-3.5-3.4l0,0"/>
			<path fill="#37474F" d="M57,38.5h-8.1c-2.5,0-4.5-1.9-4.5-4.4c0-0.6,0.4-1,1-1s1,0.4,1,1c0,1.4,1.1,2.4,2.5,2.4H57
				c1.5,0,2.5-1,2.5-2.3c0-0.6,0.4-1,1-1s1,0.4,1,1C61.5,36.6,59.6,38.5,57,38.5z"/>
		</g>
	</g>
</g>
</svg>
