<?xml version="1.0" encoding="utf-8"?>
<!-- Generator: Adobe Illustrator 16.0.0, SVG Export Plug-In . SVG Version: 6.00 Build 0)  -->
<!DOCTYPE svg PUBLIC "-//W3C//DTD SVG 1.1//EN" "http://www.w3.org/Graphics/SVG/1.1/DTD/svg11.dtd">
<svg version="1.1" id="Layer_1" xmlns="http://www.w3.org/2000/svg" xmlns:xlink="http://www.w3.org/1999/xlink" x="0px" y="0px"
	 width="65px" height="65px" viewBox="0 0 65 65" enable-background="new 0 0 65 65" xml:space="preserve">
<g>
	<g>
		<g>
			<polygon fill="#FFECB3" points="23,47.9 17.9,50.8 12.8,47.9 12.8,42 17.9,39 23,42 			"/>
			<path fill="#37474F" d="M17.9,51.8c-0.2,0-0.3,0-0.5-0.1l-5.1-3c-0.3-0.2-0.5-0.5-0.5-0.9V42c0-0.4,0.2-0.7,0.5-0.9l5.1-3
				c0.3-0.2,0.7-0.2,1,0l5.1,3c0.3,0.2,0.5,0.5,0.5,0.9v5.9c0,0.4-0.2,0.7-0.5,0.9l-5.1,3C18.2,51.8,18.1,51.8,17.9,51.8z
				 M13.8,47.3l4.1,2.4l4.1-2.4v-4.7l-4.1-2.4l-4.1,2.4V47.3z"/>
		</g>
		<g>
			<g>
				<g>
					<polyline fill="#FFECB3" points="21,31.8 17.9,34.4 14.8,31.8 					"/>
					<path fill="#37474F" d="M17.9,35.4c-0.2,0-0.5-0.1-0.6-0.2l-3.1-2.6c-0.4-0.4-0.5-1-0.1-1.4c0.4-0.4,1-0.5,1.4-0.1l2.5,2.1
						l2.5-2.1c0.4-0.4,1.1-0.3,1.4,0.1s0.3,1.1-0.1,1.4l-3.1,2.6C18.3,35.3,18.1,35.4,17.9,35.4z"/>
				</g>
				<g>
					<line fill="#FFECB3" x1="17.9" y1="29.9" x2="17.9" y2="43.1"/>
					<path fill="#37474F" d="M17.9,44.1c-0.6,0-1-0.4-1-1V29.9c0-0.6,0.4-1,1-1s1,0.4,1,1v13.2C18.9,43.7,18.4,44.1,17.9,44.1z"/>
				</g>
			</g>
			<g>
				<g>
					<polyline fill="#FFECB3" points="14.8,58 17.9,55.4 21,58 					"/>
					<path fill="#37474F" d="M21,59c-0.2,0-0.5-0.1-0.6-0.2l-2.5-2.1l-2.5,2.1c-0.4,0.4-1.1,0.3-1.4-0.1c-0.4-0.4-0.3-1.1,0.1-1.4
						l3.1-2.6c0.4-0.3,0.9-0.3,1.3,0l3.1,2.6c0.4,0.4,0.5,1,0.1,1.4C21.6,58.9,21.3,59,21,59z"/>
				</g>
				<g>
					<line fill="#FFECB3" x1="17.9" y1="59.9" x2="17.9" y2="46.7"/>
					<path fill="#37474F" d="M17.9,60.9c-0.6,0-1-0.4-1-1V46.7c0-0.6,0.4-1,1-1s1,0.4,1,1v13.2C18.9,60.4,18.4,60.9,17.9,60.9z"/>
				</g>
			</g>
		</g>
		<g>
			<g>
				<g>
					<polyline fill="#FFECB3" points="30.7,40.9 26.9,39.5 27.6,35.5 					"/>
					<path fill="#37474F" d="M30.7,41.9c-0.1,0-0.2,0-0.3-0.1l-3.8-1.3c-0.5-0.2-0.7-0.6-0.7-1.1l0.6-4c0.1-0.5,0.6-0.9,1.1-0.8
						c0.5,0.1,0.9,0.6,0.8,1.1L28,38.9l3,1.1c0.5,0.2,0.8,0.8,0.6,1.3C31.5,41.6,31.1,41.9,30.7,41.9z"/>
				</g>
				<g>
					<line fill="#FFECB3" x1="30.7" y1="37.3" x2="19.4" y2="44"/>
					<path fill="#37474F" d="M19.4,45c-0.3,0-0.7-0.2-0.9-0.5c-0.3-0.5-0.1-1.1,0.3-1.4l11.3-6.7c0.5-0.3,1.1-0.1,1.4,0.3
						c0.3,0.5,0.1,1.1-0.3,1.4l-11.3,6.7C19.8,44.9,19.6,45,19.4,45z"/>
				</g>
			</g>
			<g>
				<g>
					<polyline fill="#FFECB3" points="5,48.9 8.8,50.3 8.2,54.3 					"/>
					<path fill="#37474F" d="M8.2,55.3c-0.1,0-0.1,0-0.2,0c-0.5-0.1-0.9-0.6-0.8-1.1L7.7,51l-3-1.1c-0.5-0.2-0.8-0.8-0.6-1.3
						c0.2-0.5,0.8-0.8,1.3-0.6l3.8,1.3c0.5,0.2,0.7,0.6,0.7,1.1l-0.6,4C9.1,54.9,8.7,55.3,8.2,55.3z"/>
				</g>
				<g>
					<line fill="#FFECB3" x1="5" y1="52.6" x2="16.3" y2="45.8"/>
					<path fill="#37474F" d="M5,53.6c-0.3,0-0.7-0.2-0.9-0.5C3.9,52.6,4,52,4.5,51.7L15.8,45c0.5-0.3,1.1-0.1,1.4,0.3
						c0.3,0.5,0.1,1.1-0.3,1.4L5.5,53.4C5.4,53.5,5.2,53.6,5,53.6z"/>
				</g>
			</g>
		</g>
		<g>
			<g>
				<g>
					<polyline fill="#FFECB3" points="27.8,54 27.1,50 30.8,48.6 					"/>
					<path fill="#37474F" d="M27.8,55c-0.5,0-0.9-0.3-1-0.8l-0.8-4c-0.1-0.5,0.2-0.9,0.6-1.1l3.8-1.5c0.5-0.2,1.1,0.1,1.3,0.6
						c0.2,0.5-0.1,1.1-0.6,1.3l-3,1.2l0.6,3.2c0.1,0.5-0.3,1.1-0.8,1.2C28,55,27.9,55,27.8,55z"/>
				</g>
				<g>
					<line fill="#FFECB3" x1="31" y1="52.2" x2="19.5" y2="45.8"/>
					<path fill="#37474F" d="M31,53.2c-0.2,0-0.3,0-0.5-0.1L19,46.7c-0.5-0.3-0.7-0.9-0.4-1.4c0.3-0.5,0.9-0.7,1.4-0.4l11.5,6.4
						c0.5,0.3,0.7,0.9,0.4,1.4C31.6,53,31.3,53.2,31,53.2z"/>
				</g>
			</g>
			<g>
				<g>
					<polyline fill="#FFECB3" points="7.9,35.8 8.7,39.8 4.9,41.3 					"/>
					<path fill="#37474F" d="M4.9,42.3c-0.4,0-0.8-0.2-0.9-0.6c-0.2-0.5,0.1-1.1,0.6-1.3l3-1.2L7,36c-0.1-0.5,0.3-1.1,0.8-1.2
						c0.5-0.1,1.1,0.3,1.2,0.8l0.8,4c0.1,0.5-0.2,0.9-0.6,1.1l-3.8,1.5C5.2,42.2,5,42.3,4.9,42.3z"/>
				</g>
				<g>
					<line fill="#FFECB3" x1="4.8" y1="37.6" x2="16.3" y2="44"/>
					<path fill="#37474F" d="M16.3,45c-0.2,0-0.3,0-0.5-0.1L4.3,38.5c-0.5-0.3-0.7-0.9-0.4-1.4c0.3-0.5,0.9-0.7,1.4-0.4l11.5,6.4
						c0.5,0.3,0.7,0.9,0.4,1.4C17,44.9,16.7,45,16.3,45z"/>
				</g>
			</g>
		</g>
	</g>
	<g>
		<path fill="#FFFFFF" d="M55.6,42.2v-38c0-1.5-1.5-2.8-3.3-2.8h-8.1c-1.8,0-3.3,1.2-3.3,2.8v38c-2.8,2.2-4.6,5.6-4.6,9.4
			c0,6.6,5.4,12,12,12c6.6,0,12-5.4,12-12C60.2,47.8,58.4,44.4,55.6,42.2z"/>
		<path fill="#37474F" d="M48.2,64.6c-7.2,0-13-5.8-13-13c0-3.9,1.7-7.4,4.6-9.9V4.2c0-2.1,1.9-3.8,4.3-3.8h8.1
			c2.4,0,4.3,1.7,4.3,3.8v37.5c2.9,2.5,4.6,6.1,4.6,9.9C61.2,58.8,55.4,64.6,48.2,64.6z M44.2,2.4c-1.3,0-2.3,0.8-2.3,1.8v38
			c0,0.3-0.1,0.6-0.4,0.8c-2.7,2.1-4.2,5.3-4.2,8.6c0,6.1,4.9,11,11,11c6.1,0,11-4.9,11-11c0-3.4-1.5-6.5-4.2-8.6
			c-0.2-0.2-0.4-0.5-0.4-0.8v-38c0-1-1-1.8-2.3-1.8H44.2z"/>
	</g>
	<g>
		<circle fill="#FFAB00" cx="48.2" cy="52.1" r="4.5"/>
		<path fill="#37474F" d="M48.2,57.6c-3,0-5.5-2.4-5.5-5.5s2.4-5.5,5.5-5.5c3,0,5.5,2.4,5.5,5.5S51.2,57.6,48.2,57.6z M48.2,48.7
			c-1.9,0-3.5,1.6-3.5,3.5s1.6,3.5,3.5,3.5c1.9,0,3.5-1.6,3.5-3.5S50.1,48.7,48.2,48.7z"/>
	</g>
	<g>
		<line fill="#FFAB00" x1="48.2" y1="26.7" x2="48.2" y2="46.8"/>
		<path fill="#37474F" d="M48.2,47.8c-0.6,0-1-0.4-1-1V26.7c0-0.6,0.4-1,1-1s1,0.4,1,1v20.2C49.2,47.4,48.8,47.8,48.2,47.8z"/>
	</g>
	<g>
		<g>
			<line fill="#FFAB00" x1="47.3" y1="22.3" x2="52.4" y2="22.3"/>
			<path fill="#37474F" d="M52.4,23.3h-5.2c-0.6,0-1-0.4-1-1s0.4-1,1-1h5.2c0.6,0,1,0.4,1,1S53,23.3,52.4,23.3z"/>
		</g>
		<g>
			<line fill="#FFAB00" x1="47.3" y1="17.8" x2="49.6" y2="17.8"/>
			<path fill="#37474F" d="M49.6,18.8h-2.3c-0.6,0-1-0.4-1-1s0.4-1,1-1h2.3c0.6,0,1,0.4,1,1S50.2,18.8,49.6,18.8z"/>
		</g>
	</g>
	<g>
		<g>
			<line fill="#FFAB00" x1="47.3" y1="13.5" x2="52.4" y2="13.5"/>
			<path fill="#37474F" d="M52.4,14.5h-5.2c-0.6,0-1-0.4-1-1s0.4-1,1-1h5.2c0.6,0,1,0.4,1,1S53,14.5,52.4,14.5z"/>
		</g>
		<g>
			<line fill="#FFAB00" x1="47.3" y1="9" x2="49.6" y2="9"/>
			<path fill="#37474F" d="M49.6,10h-2.3c-0.6,0-1-0.4-1-1s0.4-1,1-1h2.3c0.6,0,1,0.4,1,1S50.2,10,49.6,10z"/>
		</g>
	</g>
	<g>
		<g>
			<polyline fill="#FFECB3" points="18.8,15 25.7,6.1 32.6,15 			"/>
			<path fill="#37474F" d="M32.6,16c-0.3,0-0.6-0.1-0.8-0.4l-6.1-7.9l-6.1,7.9c-0.3,0.4-1,0.5-1.4,0.2c-0.4-0.3-0.5-1-0.2-1.4
				l6.9-8.9c0.4-0.5,1.2-0.5,1.6,0l6.9,8.9c0.3,0.4,0.3,1.1-0.2,1.4C33.1,15.9,32.8,16,32.6,16z"/>
		</g>
		<g>
			<polyline fill="#FFECB3" points="18.8,24.6 25.7,15.7 32.6,24.6 			"/>
			<path fill="#37474F" d="M32.6,25.6c-0.3,0-0.6-0.1-0.8-0.4l-6.1-7.9l-6.1,7.9c-0.3,0.4-1,0.5-1.4,0.2c-0.4-0.3-0.5-1-0.2-1.4
				l6.9-8.9c0.4-0.5,1.2-0.5,1.6,0l6.9,8.9c0.3,0.4,0.3,1.1-0.2,1.4C33.1,25.5,32.8,25.6,32.6,25.6z"/>
		</g>
	</g>
</g>
</svg>
