<?xml version="1.0" encoding="utf-8"?>
<!-- Generator: Adobe Illustrator 16.0.0, SVG Export Plug-In . SVG Version: 6.00 Build 0)  -->
<!DOCTYPE svg PUBLIC "-//W3C//DTD SVG 1.1//EN" "http://www.w3.org/Graphics/SVG/1.1/DTD/svg11.dtd">
<svg version="1.1" id="Layer_1" xmlns="http://www.w3.org/2000/svg" xmlns:xlink="http://www.w3.org/1999/xlink" x="0px" y="0px"
	 width="32px" height="32px" viewBox="0 0 32 32" enable-background="new 0 0 32 32" xml:space="preserve">
<g>
	<g>
		<g>
			<path fill="#FFFFFF" d="M4.7,13.9v-2.5C4.7,10.1,5.8,9,7.1,9h6.2c1.4,0,2.5,1.1,2.5,2.5v2.5"/>
			<path fill="#37474F" d="M15.8,14.4c-0.3,0-0.5-0.2-0.5-0.5v-2.5c0-1.1-0.9-2-2-2H7.1c-1.1,0-2,0.9-2,2v2.5c0,0.3-0.2,0.5-0.5,0.5
				s-0.5-0.2-0.5-0.5v-2.5c0-1.6,1.3-3,3-3h6.2c1.6,0,3,1.3,3,3v2.5C16.3,14.2,16,14.4,15.8,14.4z"/>
		</g>
		<g>
			<path fill="#FFFFFF" d="M16.1,13.9v-2.5c0-1.4,1.1-2.5,2.5-2.5h6.2c1.4,0,2.5,1.1,2.5,2.5v2.5"/>
			<path fill="#37474F" d="M27.2,14.4c-0.3,0-0.5-0.2-0.5-0.5v-2.5c0-1.1-0.9-2-2-2h-6.2c-1.1,0-2,0.9-2,2v2.5
				c0,0.3-0.2,0.5-0.5,0.5s-0.5-0.2-0.5-0.5v-2.5c0-1.6,1.3-3,3-3h6.2c1.6,0,3,1.3,3,3v2.5C27.7,14.2,27.5,14.4,27.2,14.4z"/>
		</g>
	</g>
	<g>
		<path fill="#FFECB3" d="M1.3,17.2v-0.4c0-1.5,1.2-2.7,2.7-2.7h23.9c1.5,0,2.7,1.2,2.7,2.7v0.4"/>
		<path fill="#37474F" d="M30.6,17.7c-0.3,0-0.5-0.2-0.5-0.5v-0.4c0-1.2-1-2.2-2.2-2.2H4c-1.2,0-2.2,1-2.2,2.2v0.4
			c0,0.3-0.2,0.5-0.5,0.5s-0.5-0.2-0.5-0.5v-0.4c0-1.8,1.4-3.2,3.2-3.2h23.9c1.8,0,3.2,1.4,3.2,3.2v0.4
			C31.1,17.4,30.9,17.7,30.6,17.7z"/>
	</g>
	<g>
		<path fill="#37474F" d="M29.4,7.8c-0.3,0-0.5-0.2-0.5-0.5V7c0-1.1-0.9-2-2-2H5C3.9,5,3,5.9,3,7v0.3c0,0.3-0.2,0.5-0.5,0.5
			S2,7.6,2,7.3V7c0-1.6,1.3-3,3-3h22c1.6,0,3,1.3,3,3v0.3C29.9,7.6,29.7,7.8,29.4,7.8z"/>
	</g>
	<g>
		<rect x="1.1" y="18.1" fill="#FFECB3" width="29.7" height="5.9"/>
		<path fill="#37474F" d="M30.8,24.5H1.1c-0.3,0-0.5-0.2-0.5-0.5v-5.9c0-0.3,0.2-0.5,0.5-0.5h29.7c0.3,0,0.5,0.2,0.5,0.5V24
			C31.3,24.3,31.1,24.5,30.8,24.5z M1.6,23.5h28.7v-4.9H1.6V23.5z"/>
	</g>
	<g>
		<g>
			<g>
				<line fill="#FFECB3" x1="4" y1="24.9" x2="4" y2="23.1"/>
				<path fill="#37474F" d="M4,25.4c-0.3,0-0.5-0.2-0.5-0.5v-1.8c0-0.3,0.2-0.5,0.5-0.5s0.5,0.2,0.5,0.5v1.8
					C4.5,25.1,4.2,25.4,4,25.4z"/>
			</g>
			<g>
				<path fill="#FFECB3" d="M2.2,27c0-1,0.8-1.8,1.8-1.8c1,0,1.8,0.8,1.8,1.8"/>
				<path fill="#37474F" d="M5.7,27.5c-0.3,0-0.5-0.2-0.5-0.5c0-0.7-0.6-1.3-1.3-1.3c-0.7,0-1.3,0.6-1.3,1.3c0,0.3-0.2,0.5-0.5,0.5
					S1.7,27.3,1.7,27c0-1.3,1-2.3,2.3-2.3c1.3,0,2.3,1,2.3,2.3C6.2,27.3,6,27.5,5.7,27.5z"/>
			</g>
			<g>
				<line fill="#FFECB3" x1="8.5" y1="27.5" x2="1.1" y2="27.5"/>
				<path fill="#37474F" d="M8.5,28H1.1c-0.3,0-0.5-0.2-0.5-0.5S0.8,27,1.1,27h7.4C8.8,27,9,27.2,9,27.5S8.8,28,8.5,28z"/>
			</g>
		</g>
		<g>
			<g>
				<line fill="#FFECB3" x1="28.1" y1="24.9" x2="28.1" y2="23.1"/>
				<path fill="#37474F" d="M28.1,25.4c-0.3,0-0.5-0.2-0.5-0.5v-1.8c0-0.3,0.2-0.5,0.5-0.5s0.5,0.2,0.5,0.5v1.8
					C28.6,25.1,28.3,25.4,28.1,25.4z"/>
			</g>
			<g>
				<path fill="#FFECB3" d="M29.9,27c0-1-0.8-1.8-1.8-1.8c-1,0-1.8,0.8-1.8,1.8"/>
				<path fill="#37474F" d="M29.9,27.5c-0.3,0-0.5-0.2-0.5-0.5c0-0.7-0.6-1.3-1.3-1.3c-0.7,0-1.3,0.6-1.3,1.3c0,0.3-0.2,0.5-0.5,0.5
					s-0.5-0.2-0.5-0.5c0-1.3,1-2.3,2.3-2.3c1.3,0,2.3,1,2.3,2.3C30.4,27.3,30.1,27.5,29.9,27.5z"/>
			</g>
			<g>
				<line fill="#FFECB3" x1="23.5" y1="27.5" x2="30.9" y2="27.5"/>
				<path fill="#37474F" d="M30.9,28h-7.4c-0.3,0-0.5-0.2-0.5-0.5s0.2-0.5,0.5-0.5h7.4c0.3,0,0.5,0.2,0.5,0.5S31.2,28,30.9,28z"/>
			</g>
		</g>
	</g>
	<g>
		<g>
			<g>
				<path fill="#37474F" d="M2.4,15c-0.3,0-0.5-0.2-0.5-0.5V8.9c0-0.3,0.2-0.5,0.5-0.5s0.5,0.2,0.5,0.5v5.6C2.9,14.8,2.6,15,2.4,15z
					"/>
			</g>
			<g>
				<path fill="#37474F" d="M3.4,9.1H1.3c-0.3,0-0.5-0.2-0.5-0.5s0.2-0.5,0.5-0.5h2.1c0.3,0,0.5,0.2,0.5,0.5S3.7,9.1,3.4,9.1z"/>
			</g>
		</g>
		<g>
			<g>
				<path fill="#37474F" d="M29.5,15c-0.3,0-0.5-0.2-0.5-0.5V8.9c0-0.3,0.2-0.5,0.5-0.5S30,8.6,30,8.9v5.6C30,14.8,29.8,15,29.5,15z
					"/>
			</g>
			<g>
				<path fill="#37474F" d="M30.6,9.1h-2.1c-0.3,0-0.5-0.2-0.5-0.5s0.2-0.5,0.5-0.5h2.1c0.3,0,0.5,0.2,0.5,0.5S30.8,9.1,30.6,9.1z"
					/>
			</g>
		</g>
	</g>
</g>
</svg>
