<?xml version="1.0" encoding="utf-8"?>
<!-- Generator: Adobe Illustrator 16.0.0, SVG Export Plug-In . SVG Version: 6.00 Build 0)  -->
<!DOCTYPE svg PUBLIC "-//W3C//DTD SVG 1.1//EN" "http://www.w3.org/Graphics/SVG/1.1/DTD/svg11.dtd">
<svg version="1.1" id="Layer_1" xmlns="http://www.w3.org/2000/svg" xmlns:xlink="http://www.w3.org/1999/xlink" x="0px" y="0px"
	 width="33px" height="33px" viewBox="0 0 33 33" enable-background="new 0 0 33 33" xml:space="preserve">
<g>
	<g>
		<circle fill="#FFECB3" cx="17.9" cy="14.6" r="4.9"/>
		<path fill="#37474F" d="M17.9,20c-3,0-5.4-2.4-5.4-5.4s2.4-5.4,5.4-5.4s5.4,2.4,5.4,5.4S20.8,20,17.9,20z M17.9,10.2
			c-2.4,0-4.4,2-4.4,4.4s2,4.4,4.4,4.4s4.4-2,4.4-4.4S20.3,10.2,17.9,10.2z"/>
	</g>
	<g>
		<path fill="#FFAB00" d="M27.7,12.1h-5.6c0.4,0.7,0.7,1.6,0.7,2.4s-0.2,1.7-0.7,2.4h5.6"/>
		<path fill="#37474F" d="M27.7,17.5h-5.6c-0.2,0-0.3-0.1-0.4-0.2c-0.1-0.2-0.1-0.3,0-0.5c0.4-0.7,0.6-1.4,0.6-2.2s-0.2-1.5-0.6-2.2
			c-0.1-0.2-0.1-0.3,0-0.5c0.1-0.2,0.3-0.2,0.4-0.2h5.6c0.3,0,0.5,0.2,0.5,0.5s-0.2,0.5-0.5,0.5h-4.8c0.2,0.6,0.4,1.3,0.4,1.9
			s-0.1,1.3-0.4,1.9h4.8c0.3,0,0.5,0.2,0.5,0.5S28,17.5,27.7,17.5z"/>
	</g>
	<g>
		<path fill="#FFECB3" d="M23.7,4.3c0,0.9-0.7,1.6-1.6,1.6h-8.5c-0.9,0-1.6-0.7-1.6-1.6l0,0c0-0.9,0.7-1.6,1.6-1.6h8.5
			C23,2.7,23.7,3.4,23.7,4.3L23.7,4.3z"/>
		<path fill="#37474F" d="M22.1,6.4h-8.5c-1.2,0-2.1-1-2.1-2.1c0-1.2,1-2.1,2.1-2.1h8.5c1.2,0,2.1,1,2.1,2.1
			C24.2,5.5,23.3,6.4,22.1,6.4z M13.6,3.2c-0.6,0-1.1,0.5-1.1,1.1s0.5,1.1,1.1,1.1h8.5c0.6,0,1.1-0.5,1.1-1.1s-0.5-1.1-1.1-1.1H13.6
			z"/>
	</g>
	<g>
		<g>
			<path fill="#FFECB3" d="M8.9,3.6L8.9,3.6C8.9,2.1,10,1,11.4,1"/>
			<path fill="#37474F" d="M8.9,4.1c-0.3,0-0.5-0.2-0.5-0.5c0-1.7,1.4-3.1,3.1-3.1c0.3,0,0.5,0.2,0.5,0.5s-0.2,0.5-0.5,0.5
				c-1.1,0-2.1,0.9-2.1,2.1C9.4,3.8,9.1,4.1,8.9,4.1z"/>
		</g>
		<g>
			<path fill="#FFECB3" d="M26.9,5.1L26.9,5.1c0,1.4-1.2,2.6-2.6,2.6"/>
			<path fill="#37474F" d="M24.3,8.1c-0.3,0-0.5-0.2-0.5-0.5s0.2-0.5,0.5-0.5c1.1,0,2.1-0.9,2.1-2.1c0-0.3,0.2-0.5,0.5-0.5
				s0.5,0.2,0.5,0.5C27.4,6.8,26,8.1,24.3,8.1z"/>
		</g>
	</g>
	<g>
		<line fill="#FFECB3" x1="17.9" y1="6.3" x2="17.9" y2="9.7"/>
		<path fill="#37474F" d="M17.9,10.2c-0.3,0-0.5-0.2-0.5-0.5V6.3c0-0.3,0.2-0.5,0.5-0.5s0.5,0.2,0.5,0.5v3.4
			C18.4,10,18.1,10.2,17.9,10.2z"/>
	</g>
	<g>
		<path fill="#FFFFFF" d="M11.7,16.8h4.5c0.1,0,0.2,0,0.2,0v-2c0-1.4-1.1-2.4-2.4-2.4H8.2c-1.4,0-2.4,1.1-2.4,2.4v2"/>
		<path fill="#37474F" d="M5.8,17.3c-0.3,0-0.5-0.2-0.5-0.5v-2c0-1.6,1.3-2.9,2.9-2.9h5.7c1.6,0,2.9,1.3,2.9,2.9v2
			c0,0.1-0.1,0.3-0.2,0.4c-0.1,0.1-0.3,0.1-0.4,0.1c0,0-0.1,0-0.2,0h-4.5c-0.3,0-0.5-0.2-0.5-0.5s0.2-0.5,0.5-0.5h4.2v-1.5
			c0-1.1-0.9-1.9-1.9-1.9H8.2c-1.1,0-1.9,0.9-1.9,1.9v2C6.3,17.1,6.1,17.3,5.8,17.3z"/>
	</g>
	<g>
		<path fill="#FFECB3" d="M12.3,18.1c0,0.6-0.5,1.2-1.2,1.2h-5c-0.6,0-1.2-0.5-1.2-1.2l0,0c0-0.6,0.5-1.2,1.2-1.2h5
			C11.7,16.9,12.3,17.5,12.3,18.1L12.3,18.1z"/>
		<path fill="#37474F" d="M11.1,19.8h-5c-0.9,0-1.7-0.7-1.7-1.7s0.7-1.7,1.7-1.7h5c0.9,0,1.7,0.7,1.7,1.7S12,19.8,11.1,19.8z
			 M6.1,17.4c-0.4,0-0.7,0.3-0.7,0.7s0.3,0.7,0.7,0.7h5c0.4,0,0.7-0.3,0.7-0.7s-0.3-0.7-0.7-0.7H6.1z"/>
	</g>
	<g>
		<path fill="#FFECB3" d="M24.4,12.2c1.3,1.3,1.3,3.4,0,4.7"/>
		<path fill="#37474F" d="M24.4,17.4c-0.1,0-0.3,0-0.4-0.1c-0.2-0.2-0.2-0.5,0-0.7c0.5-0.5,0.8-1.2,0.8-2s-0.3-1.5-0.8-2
			c-0.2-0.2-0.2-0.5,0-0.7s0.5-0.2,0.7,0c0.7,0.7,1.1,1.7,1.1,2.7c0,1-0.4,2-1.1,2.7C24.6,17.4,24.5,17.4,24.4,17.4z"/>
	</g>
	<g>
		<path fill="#FFECB3" d="M27.1,12.2c1.3,1.3,1.3,3.4,0,4.7"/>
		<path fill="#37474F" d="M27.1,17.4c-0.1,0-0.3,0-0.4-0.1c-0.2-0.2-0.2-0.5,0-0.7c1.1-1.1,1.1-2.9,0-4c-0.2-0.2-0.2-0.5,0-0.7
			s0.5-0.2,0.7,0c1.5,1.5,1.5,3.9,0,5.4C27.4,17.4,27.2,17.4,27.1,17.4z"/>
	</g>
	<g>
		<path fill="#FFAB00" d="M11.4,27.6L11.4,27.6l-2.8-6.7l-2.9,6.7l0,0c-0.2,0.4-0.3,0.8-0.3,1.3c0,1.7,1.4,3.1,3.1,3.1
			c1.7,0,3.1-1.4,3.1-3.1C11.7,28.4,11.6,28,11.4,27.6z"/>
		<path fill="#37474F" d="M8.6,32.5c-2,0-3.6-1.6-3.6-3.6c0-0.5,0.1-0.9,0.3-1.4c0,0,0-0.1,0-0.1l2.9-6.7c0.2-0.4,0.8-0.4,0.9,0
			l2.9,6.7c0,0,0,0.1,0,0.1c0.2,0.4,0.3,0.9,0.3,1.4C12.2,30.9,10.6,32.5,8.6,32.5z M6.2,27.7c0,0,0,0.1,0,0.1C6,28.2,6,28.5,6,28.9
			c0,1.4,1.2,2.6,2.6,2.6c1.4,0,2.6-1.2,2.6-2.6c0-0.4-0.1-0.7-0.2-1.1c0,0,0-0.1,0-0.1l-2.3-5.5L6.2,27.7z"/>
	</g>
</g>
</svg>
