<?xml version="1.0" encoding="utf-8"?>
<!-- Generator: Adobe Illustrator 16.0.0, SVG Export Plug-In . SVG Version: 6.00 Build 0)  -->
<!DOCTYPE svg PUBLIC "-//W3C//DTD SVG 1.1//EN" "http://www.w3.org/Graphics/SVG/1.1/DTD/svg11.dtd">
<svg version="1.1" id="Layer_1" xmlns="http://www.w3.org/2000/svg" xmlns:xlink="http://www.w3.org/1999/xlink" x="0px" y="0px"
	 width="64px" height="64px" viewBox="0 0 64 64" enable-background="new 0 0 64 64" xml:space="preserve">
<g>
	<g>
		<path fill="#FFFFFF" d="M60.7,32.2C60.7,48,47.8,60.8,32,60.8S3.3,48,3.3,32.2C3.3,16.4,16.2,3.5,32,3.5S60.7,16.4,60.7,32.2z"/>
		<path fill="#37474F" d="M32,61.8c-16.4,0-29.7-13.3-29.7-29.7C2.3,15.8,15.6,2.5,32,2.5s29.7,13.3,29.7,29.7
			C61.7,48.5,48.4,61.8,32,61.8z M32,4.5C16.8,4.5,4.3,16.9,4.3,32.2c0,15.2,12.4,27.7,27.7,27.7s27.7-12.4,27.7-27.7
			C59.7,16.9,47.2,4.5,32,4.5z"/>
	</g>
	<g>
		<g>
			<polygon fill="#B0BEC5" points="33.8,61.8 10.3,61.8 13.6,20.8 30.5,20.8 			"/>
			<path fill="#37474F" d="M34.9,62.8H9.2l3.5-43h18.7L34.9,62.8z M11.4,60.8h21.4l-3.2-39h-15L11.4,60.8z"/>
		</g>
		<g>
			<polyline fill="#FFECB3" points="15.2,12.8 15.2,2.8 29.2,2.8 29.2,6.8 			"/>
			<path fill="#37474F" d="M15.2,13.8c-0.6,0-1-0.4-1-1v-10c0-0.6,0.4-1,1-1h14c0.6,0,1,0.4,1,1v4c0,0.6-0.4,1-1,1s-1-0.4-1-1v-3
				h-12v9C16.2,13.4,15.8,13.8,15.2,13.8z"/>
		</g>
		<g>
			<g>
				<g>
					<g>
						<path fill="#37474F" d="M18.1,28.2c-0.5,0-0.8-0.4-0.9-0.8c0-0.5,0.4-0.9,0.9-0.9c0.5,0,0.8,0.4,0.8,0.9
							C19,27.8,18.6,28.2,18.1,28.2z"/>
						<path fill="#37474F" d="M18.1,28.7c-0.7,0-1.3-0.6-1.4-1.3c0-0.4,0.1-0.7,0.4-1c0.2-0.3,0.6-0.4,0.9-0.4
							c0.8,0,1.4,0.6,1.4,1.4c0,0.3-0.1,0.7-0.4,0.9C18.8,28.6,18.5,28.7,18.1,28.7z M18.1,27c-0.1,0-0.2,0.1-0.3,0.1
							c0,0-0.1,0.1-0.1,0.2c0,0.2,0.4,0.5,0.6,0.2c0,0,0.1-0.1,0.1-0.2C18.5,27.2,18.3,27,18.1,27C18.1,27,18.1,27,18.1,27z"/>
					</g>
					<g>
						<path fill="#37474F" d="M18.1,34.2c-0.5,0-0.8-0.4-0.8-0.8c0-0.5,0.4-0.9,0.9-0.9c0.5,0,0.9,0.4,0.9,0.9
							C19,33.8,18.6,34.2,18.1,34.2z"/>
						<path fill="#37474F" d="M18.1,34.7c-0.7,0-1.3-0.6-1.3-1.3c0-0.8,0.6-1.4,1.4-1.4c0.7,0,1.4,0.6,1.4,1.4
							C19.5,34.1,18.9,34.7,18.1,34.7L18.1,34.7z M18.1,33c-0.2,0-0.4,0.2-0.4,0.4c0,0.2,0.1,0.3,0.3,0.3v0.5l0-0.5
							c0.2,0,0.4-0.2,0.4-0.4C18.5,33.1,18.3,33,18.1,33z"/>
					</g>
					<g>
						<path fill="#37474F" d="M18.1,40.1c-0.5,0-0.9-0.4-0.9-0.9c0-0.5,0.4-0.9,0.9-0.9s0.9,0.4,0.8,0.9
							C19,39.8,18.6,40.1,18.1,40.1z"/>
						<path fill="#37474F" d="M18.1,40.6c-0.7,0-1.4-0.6-1.4-1.4c0-0.8,0.6-1.4,1.4-1.4c0.4,0,0.7,0.2,1,0.4c0.3,0.3,0.4,0.6,0.4,1
							c0,0.3-0.1,0.7-0.4,0.9C18.8,40.5,18.5,40.6,18.1,40.6z M18.1,38.9c-0.2,0-0.4,0.2-0.4,0.4c0,0.3,0.4,0.5,0.6,0.3
							c0.1-0.1,0.1-0.2,0.1-0.3c0-0.1,0-0.2-0.1-0.3C18.3,39,18.3,38.9,18.1,38.9z"/>
					</g>
				</g>
				<g>
					<g>
						<path fill="#37474F" d="M22.1,28.2c-0.5,0-0.8-0.4-0.9-0.8c0-0.5,0.4-0.9,0.9-0.9c0.5,0,0.8,0.4,0.8,0.9
							C22.9,27.8,22.5,28.2,22.1,28.2z"/>
						<path fill="#37474F" d="M22.1,28.7c-0.7,0-1.3-0.6-1.4-1.3c0-0.4,0.1-0.7,0.4-1c0.2-0.3,0.6-0.4,0.9-0.4
							c0.8,0,1.4,0.6,1.4,1.4c0,0.3-0.1,0.7-0.4,0.9C22.8,28.6,22.4,28.7,22.1,28.7z M22,27c-0.1,0-0.2,0.1-0.3,0.1
							c0,0-0.1,0.1-0.1,0.2c0,0.2,0.4,0.5,0.6,0.2c0,0,0.1-0.1,0.1-0.2C22.4,27.2,22.3,27,22,27C22,27,22,27,22,27z"/>
					</g>
					<g>
						<path fill="#37474F" d="M22,34.2c-0.5,0-0.8-0.4-0.8-0.8c0-0.5,0.4-0.9,0.9-0.9c0.5,0,0.9,0.4,0.9,0.9
							C22.9,33.8,22.5,34.2,22,34.2z"/>
						<path fill="#37474F" d="M22,34.7c-0.7,0-1.3-0.6-1.3-1.3c0-0.8,0.6-1.4,1.4-1.4c0.7,0,1.4,0.6,1.4,1.4
							C23.4,34.1,22.8,34.7,22,34.7L22,34.7z M22.1,33c-0.2,0-0.4,0.2-0.4,0.4c0,0.2,0.1,0.3,0.3,0.3v0.5l0-0.5
							c0.2,0,0.4-0.2,0.4-0.4C22.4,33.1,22.2,33,22.1,33z"/>
					</g>
					<g>
						<path fill="#37474F" d="M22.1,40.1c-0.5,0-0.9-0.4-0.9-0.9c0-0.5,0.4-0.9,0.9-0.9s0.9,0.4,0.8,0.9
							C22.9,39.8,22.5,40.1,22.1,40.1z"/>
						<path fill="#37474F" d="M22.1,40.6c-0.7,0-1.4-0.6-1.4-1.4c0-0.8,0.6-1.4,1.4-1.4c0.4,0,0.7,0.2,1,0.4c0.3,0.3,0.4,0.6,0.4,1
							c0,0.3-0.1,0.7-0.4,0.9C22.8,40.5,22.4,40.6,22.1,40.6z M22.1,38.9c-0.2,0-0.4,0.2-0.4,0.4c0,0.3,0.4,0.5,0.6,0.3
							c0.1-0.1,0.1-0.2,0.1-0.3c0-0.1,0-0.2-0.1-0.3C22.3,39,22.2,38.9,22.1,38.9z"/>
					</g>
				</g>
				<g>
					<g>
						<path fill="#37474F" d="M26,28.2c-0.5,0-0.8-0.4-0.9-0.8c0-0.5,0.4-0.9,0.9-0.9c0.5,0,0.8,0.4,0.8,0.9
							C26.8,27.8,26.4,28.2,26,28.2z"/>
						<path fill="#37474F" d="M26,28.7c-0.7,0-1.3-0.6-1.4-1.3c0-0.4,0.1-0.7,0.4-1c0.2-0.3,0.6-0.4,0.9-0.4c0.8,0,1.4,0.6,1.4,1.4
							c0,0.3-0.1,0.7-0.4,0.9C26.7,28.6,26.3,28.7,26,28.7z M26,27c-0.1,0-0.2,0.1-0.3,0.1c0,0-0.1,0.1-0.1,0.2
							c0,0.3,0.4,0.5,0.6,0.3c0,0,0.1-0.1,0.1-0.2C26.3,27.2,26.2,27,26,27C26,27,26,27,26,27z"/>
					</g>
					<g>
						<path fill="#37474F" d="M26,34.2c-0.5,0-0.8-0.4-0.8-0.8c0-0.5,0.4-0.9,0.9-0.9c0.5,0,0.9,0.4,0.9,0.9
							C26.8,33.8,26.4,34.2,26,34.2z"/>
						<path fill="#37474F" d="M25.9,34.7c-0.7,0-1.3-0.6-1.3-1.3c0-0.8,0.6-1.4,1.4-1.4c0.7,0,1.4,0.6,1.4,1.4
							C27.3,34.1,26.7,34.7,25.9,34.7L25.9,34.7z M26,33c-0.2,0-0.4,0.2-0.4,0.4c0,0.2,0.1,0.3,0.3,0.3v0.5l0-0.5
							c0.2,0,0.4-0.2,0.4-0.4C26.3,33.1,26.2,33,26,33z"/>
					</g>
					<g>
						<path fill="#37474F" d="M26,40.1c-0.5,0-0.9-0.4-0.9-0.9c0-0.5,0.4-0.9,0.9-0.9s0.9,0.4,0.8,0.9C26.8,39.8,26.4,40.1,26,40.1z
							"/>
						<path fill="#37474F" d="M26,40.6c-0.7,0-1.4-0.6-1.4-1.4c0-0.8,0.6-1.4,1.4-1.4c0.4,0,0.7,0.1,1,0.4c0.3,0.3,0.4,0.6,0.4,1
							c0,0.3-0.1,0.7-0.4,0.9C26.7,40.5,26.3,40.6,26,40.6z M26,38.9c-0.2,0-0.4,0.2-0.4,0.4c0,0.3,0.4,0.5,0.6,0.3
							c0.1-0.1,0.1-0.2,0.1-0.3c0-0.1,0-0.2-0.1-0.3C26.2,39,26.1,38.9,26,38.9z"/>
					</g>
				</g>
			</g>
			<g>
				<g>
					<g>
						<path fill="#37474F" d="M18.1,44.9c-0.5,0-0.8-0.4-0.9-0.8c0-0.5,0.4-0.9,0.9-0.9c0.5,0,0.8,0.4,0.8,0.9
							C19,44.5,18.6,44.9,18.1,44.9z"/>
						<path fill="#37474F" d="M18.1,45.4c-0.7,0-1.3-0.6-1.4-1.3c0-0.4,0.1-0.7,0.4-1c0.3-0.3,0.6-0.4,1-0.4c0.8,0,1.4,0.6,1.4,1.4
							c0,0.3-0.1,0.7-0.4,0.9C18.8,45.2,18.5,45.4,18.1,45.4z M18.1,43.7c-0.1,0-0.2,0-0.3,0.1c0,0-0.1,0.1-0.1,0.2
							c0,0.2,0.1,0.4,0.4,0.4c0.1,0,0.2,0,0.3-0.1c0,0,0.1-0.1,0.1-0.2C18.5,43.8,18.3,43.7,18.1,43.7L18.1,43.7z"/>
					</g>
					<g>
						<path fill="#37474F" d="M18.1,50.8c-0.5,0-0.8-0.4-0.8-0.8c0-0.5,0.4-0.9,0.9-0.9c0.5,0,0.9,0.4,0.9,0.9
							C19,50.5,18.6,50.8,18.1,50.8z"/>
						<path fill="#37474F" d="M18.1,51.3c-0.7,0-1.3-0.6-1.3-1.3c0-0.8,0.6-1.4,1.4-1.4c0.7,0,1.4,0.6,1.4,1.4
							C19.5,50.7,18.9,51.3,18.1,51.3L18.1,51.3z M18.1,49.6c-0.2,0-0.4,0.2-0.4,0.4c0,0.2,0.2,0.3,0.3,0.3v0.5l0-0.5
							c0.2,0,0.4-0.2,0.4-0.4C18.5,49.8,18.3,49.6,18.1,49.6z"/>
					</g>
					<g>
						<path fill="#37474F" d="M18.1,56.8c-0.5,0-0.9-0.4-0.9-0.9c0-0.5,0.4-0.9,0.9-0.9s0.9,0.4,0.8,0.9
							C19,56.4,18.6,56.8,18.1,56.8z"/>
						<path fill="#37474F" d="M18.1,57.3c-0.7,0-1.4-0.6-1.4-1.4c0-0.8,0.6-1.4,1.4-1.4c0.4,0,0.7,0.2,1,0.4c0.2,0.3,0.4,0.6,0.4,1
							c0,0.3-0.1,0.7-0.4,0.9C18.8,57.2,18.5,57.3,18.1,57.3z M18.1,55.6c-0.2,0-0.4,0.2-0.4,0.4c0,0.3,0.4,0.5,0.6,0.2
							c0.1-0.1,0.1-0.2,0.1-0.3c0-0.1,0-0.2-0.1-0.3C18.3,55.6,18.3,55.6,18.1,55.6z"/>
					</g>
				</g>
				<g>
					<g>
						<path fill="#37474F" d="M22.1,44.9c-0.5,0-0.8-0.4-0.9-0.8c0-0.5,0.4-0.9,0.9-0.9c0.5,0,0.8,0.4,0.8,0.9
							C22.9,44.5,22.5,44.9,22.1,44.9z"/>
						<path fill="#37474F" d="M22.1,45.4c-0.7,0-1.3-0.6-1.4-1.3c0-0.4,0.1-0.7,0.4-1c0.3-0.3,0.6-0.4,1-0.4c0.8,0,1.4,0.6,1.4,1.4
							c0,0.3-0.1,0.7-0.4,0.9C22.8,45.2,22.4,45.4,22.1,45.4z M22,43.7c-0.1,0-0.2,0-0.3,0.1c0,0-0.1,0.1-0.1,0.2
							c0,0.2,0.1,0.4,0.4,0.4c0.1,0,0.2,0,0.3-0.1c0,0,0.1-0.1,0.1-0.2C22.4,43.8,22.3,43.7,22,43.7L22,43.7z"/>
					</g>
					<g>
						<path fill="#37474F" d="M22,50.8c-0.5,0-0.8-0.4-0.8-0.8c0-0.5,0.4-0.9,0.9-0.9c0.5,0,0.9,0.4,0.9,0.9
							C22.9,50.5,22.5,50.8,22,50.8z"/>
						<path fill="#37474F" d="M22,51.3c-0.7,0-1.3-0.6-1.3-1.3c0-0.8,0.6-1.4,1.4-1.4c0.7,0,1.4,0.6,1.4,1.4
							C23.4,50.7,22.8,51.3,22,51.3L22,51.3z M22.1,49.6c-0.2,0-0.4,0.2-0.4,0.4c0,0.2,0.2,0.3,0.3,0.3v0.5l0-0.5
							c0.2,0,0.4-0.2,0.4-0.4C22.4,49.8,22.2,49.6,22.1,49.6z"/>
					</g>
					<g>
						<path fill="#37474F" d="M22.1,56.8c-0.5,0-0.9-0.4-0.9-0.9c0-0.5,0.4-0.9,0.9-0.9s0.9,0.4,0.8,0.9
							C22.9,56.4,22.5,56.8,22.1,56.8z"/>
						<path fill="#37474F" d="M22.1,57.3c-0.7,0-1.4-0.6-1.4-1.4c0-0.8,0.6-1.4,1.4-1.4c0.4,0,0.7,0.2,1,0.4c0.2,0.3,0.4,0.6,0.4,1
							c0,0.3-0.1,0.7-0.4,0.9C22.8,57.2,22.4,57.3,22.1,57.3z M22.1,55.6c-0.2,0-0.4,0.2-0.4,0.4c0,0.3,0.4,0.5,0.6,0.2
							c0.1-0.1,0.1-0.2,0.1-0.3c0-0.1,0-0.2-0.1-0.3C22.3,55.6,22.2,55.6,22.1,55.6z"/>
					</g>
				</g>
				<g>
					<g>
						<path fill="#37474F" d="M26,44.9c-0.5,0-0.8-0.4-0.9-0.8c0-0.5,0.4-0.9,0.9-0.9c0.5,0,0.8,0.4,0.8,0.9
							C26.8,44.5,26.4,44.9,26,44.9z"/>
						<path fill="#37474F" d="M26,45.4c-0.7,0-1.3-0.6-1.4-1.3c0-0.4,0.1-0.7,0.4-1c0.3-0.3,0.6-0.4,1-0.4c0.8,0,1.4,0.6,1.4,1.4
							c0,0.3-0.1,0.7-0.4,0.9C26.7,45.2,26.3,45.4,26,45.4z M26,43.7c-0.1,0-0.2,0-0.3,0.1c0,0-0.1,0.1-0.1,0.2
							c0,0.2,0.1,0.4,0.4,0.4c0.1,0,0.2,0,0.3-0.1c0,0,0.1-0.1,0.1-0.2C26.3,43.8,26.2,43.7,26,43.7L26,43.7z"/>
					</g>
					<g>
						<path fill="#37474F" d="M26,50.8c-0.5,0-0.8-0.4-0.8-0.8c0-0.5,0.4-0.9,0.9-0.9c0.5,0,0.9,0.4,0.9,0.9
							C26.8,50.5,26.4,50.8,26,50.8z"/>
						<path fill="#37474F" d="M25.9,51.3c-0.7,0-1.3-0.6-1.3-1.3c0-0.8,0.6-1.4,1.4-1.4c0.7,0,1.4,0.6,1.4,1.4
							C27.3,50.7,26.7,51.3,25.9,51.3L25.9,51.3z M26,49.6c-0.2,0-0.4,0.2-0.4,0.4c0,0.2,0.1,0.3,0.3,0.3v0.5l0-0.5
							c0.2,0,0.4-0.2,0.4-0.4C26.3,49.8,26.2,49.6,26,49.6z"/>
					</g>
					<g>
						<path fill="#37474F" d="M26,56.8c-0.5,0-0.9-0.4-0.9-0.9c0-0.5,0.4-0.9,0.9-0.9s0.9,0.4,0.8,0.9C26.8,56.4,26.4,56.8,26,56.8z
							"/>
						<path fill="#37474F" d="M26,57.3c-0.7,0-1.4-0.6-1.4-1.4c0-0.8,0.6-1.4,1.4-1.4c0.4,0,0.7,0.1,1,0.4c0.3,0.3,0.4,0.6,0.4,1
							c0,0.3-0.1,0.7-0.4,1C26.7,57.2,26.3,57.3,26,57.3z M26,55.6c-0.2,0-0.4,0.2-0.4,0.4c0,0.3,0.4,0.5,0.6,0.2
							c0.1-0.1,0.1-0.2,0.1-0.3c0-0.1,0-0.2-0.1-0.3C26.2,55.6,26.1,55.6,26,55.6z"/>
					</g>
				</g>
			</g>
		</g>
		<g>
			<g>
				<polygon fill="#78909C" points="10.3,12.8 33.8,12.8 30.5,22.8 13.6,22.8 				"/>
				<path fill="#37474F" d="M30.5,23.8H13.6c-0.4,0-0.8-0.3-0.9-0.7l-3.4-10c-0.1-0.3-0.1-0.6,0.1-0.9c0.2-0.3,0.5-0.4,0.8-0.4h23.5
					c0.3,0,0.6,0.2,0.8,0.4c0.2,0.3,0.2,0.6,0.1,0.9l-3.3,10C31.3,23.6,30.9,23.8,30.5,23.8z M14.4,21.8h15.4l2.7-8H11.7L14.4,21.8z
					"/>
			</g>
			<g>
				<g>
					<g>
						<path fill="#FFAB00" d="M39.2,42.8v16.6c0,1.5,1.5,2.7,3,2.7c1.5,0,3-1.2,3-2.7V42.8H39.2z"/>
						<path fill="#37474F" d="M42.2,63.2c-2.1,0-4-1.7-4-3.7V42.8c0-0.6,0.4-1,1-1h6c0.6,0,1,0.4,1,1v16.6
							C46.2,61.4,44.4,63.2,42.2,63.2z M40.2,43.8v15.6c0,0.9,1,1.7,2,1.7s2-0.8,2-1.7V43.8H40.2z"/>
					</g>
					<g>
						<polygon fill="#FFECB3" points="46.2,43.8 38.7,43.8 38.7,40.8 46.1,40.8 						"/>
						<path fill="#37474F" d="M46.2,44.8C46.2,44.8,46.2,44.8,46.2,44.8h-7.5c-0.6,0-1-0.4-1-1l0-3c0-0.3,0.1-0.5,0.3-0.7
							s0.4-0.3,0.7-0.3h7.5c0.5,0,1,0.4,1,1l0,2.8c0,0.1,0,0.1,0,0.2C47.2,44.4,46.7,44.8,46.2,44.8z M39.7,42.8h5.5l0-1h-5.5
							L39.7,42.8z"/>
					</g>
				</g>
				<g>
					<rect x="40.2" y="22.8" fill="#B0BEC5" width="4" height="18"/>
					<path fill="#37474F" d="M45.2,41.8h-6v-20h6V41.8z M41.2,39.8h2v-16h-2V39.8z"/>
				</g>
				<g>
					<g>
						<rect x="38.2" y="1.8" fill="#B0BEC5" width="15" height="32"/>
						<path fill="#37474F" d="M54.2,34.8h-17v-34h17V34.8z M39.2,32.8h13v-30h-13V32.8z"/>
					</g>
					<g>
						<rect x="49.2" y="1.8" fill="#FFFFFF" width="4" height="32"/>
						<path fill="#37474F" d="M53.2,34.8h-4c-0.6,0-1-0.4-1-1v-32c0-0.6,0.4-1,1-1h4c0.6,0,1,0.4,1,1v32
							C54.2,34.4,53.8,34.8,53.2,34.8z M50.2,32.8h2v-30h-2V32.8z"/>
					</g>
				</g>
				<g>
					<line fill="#B0BEC5" x1="39" y1="22" x2="48.6" y2="12.5"/>
					<path fill="#37474F" d="M39,23c-0.3,0-0.5-0.1-0.7-0.3c-0.4-0.4-0.4-1,0-1.4l9.6-9.6c0.4-0.4,1-0.4,1.4,0s0.4,1,0,1.4l-9.6,9.6
						C39.6,22.9,39.3,23,39,23z"/>
				</g>
				<g>
					<line fill="#B0BEC5" x1="39" y1="26.9" x2="48.6" y2="17.4"/>
					<path fill="#37474F" d="M39,27.9c-0.3,0-0.5-0.1-0.7-0.3c-0.4-0.4-0.4-1,0-1.4l9.6-9.6c0.4-0.4,1-0.4,1.4,0s0.4,1,0,1.4
						l-9.6,9.6C39.6,27.8,39.3,27.9,39,27.9z"/>
				</g>
				<g>
					<line fill="#B0BEC5" x1="39" y1="31.8" x2="48.6" y2="22.3"/>
					<path fill="#37474F" d="M39,32.8c-0.3,0-0.5-0.1-0.7-0.3c-0.4-0.4-0.4-1,0-1.4l9.6-9.6c0.4-0.4,1-0.4,1.4,0s0.4,1,0,1.4
						l-9.6,9.6C39.6,32.7,39.3,32.8,39,32.8z"/>
				</g>
			</g>
		</g>
	</g>
</g>
</svg>
