<?xml version="1.0" encoding="utf-8"?>
<!-- Generator: Adobe Illustrator 16.0.0, SVG Export Plug-In . SVG Version: 6.00 Build 0)  -->
<!DOCTYPE svg PUBLIC "-//W3C//DTD SVG 1.1//EN" "http://www.w3.org/Graphics/SVG/1.1/DTD/svg11.dtd">
<svg version="1.1" id="Layer_1" xmlns="http://www.w3.org/2000/svg" xmlns:xlink="http://www.w3.org/1999/xlink" x="0px" y="0px"
	 width="64px" height="64px" viewBox="0 0 64 64" enable-background="new 0 0 64 64" xml:space="preserve">
<g>
	<g>
		<path fill="#FFECB3" d="M57.3,30.7c-0.1-13.8-9.5-25-21.2-25c-11.7,0-21.1,11.2-21.2,25H57.3z"/>
		<path fill="#37474F" d="M57.3,31.7H14.9c-0.3,0-0.5-0.1-0.7-0.3c-0.2-0.2-0.3-0.4-0.3-0.7C14,16.4,23.9,4.7,36.1,4.7
			c12.1,0,22.1,11.6,22.2,25.9c0,0.3-0.1,0.5-0.3,0.7C57.8,31.6,57.6,31.7,57.3,31.7z M15.9,29.7h40.4c-0.5-12.7-9.4-23-20.2-23
			C25.3,6.7,16.4,16.9,15.9,29.7z"/>
	</g>
	<g>
		<path fill="#B0BEC5" d="M7.9,34.6c-0.9-1-1.5-2.2-2.1-3.4l-4,2.2c-0.2,1-0.4,2-0.4,3.1c0,8.2,6.9,14.8,15.8,14.9V38.1
			C14.3,38.3,10.4,37.2,7.9,34.6z"/>
		<path fill="#37474F" d="M17.2,52.3C17.2,52.3,17.2,52.3,17.2,52.3C7.8,52.3,0.5,45.3,0.5,36.4c0-1.2,0.2-2.4,0.5-3.3
			c0.1-0.3,0.2-0.5,0.5-0.6l4-2.2c0.2-0.1,0.5-0.2,0.8-0.1c0.3,0.1,0.5,0.3,0.6,0.5c0.5,1.1,1,2.2,1.9,3.1c2.2,2.4,5.4,3.2,7.7,3.2
			c0.3,0,0.5,0,0.8,0c0.3,0,0.6,0.1,0.8,0.3c0.2,0.2,0.3,0.5,0.3,0.7v13.3c0,0.3-0.1,0.5-0.3,0.7C17.7,52.2,17.5,52.3,17.2,52.3z
			 M2.8,34c-0.2,0.7-0.3,1.6-0.3,2.4c0,7.4,6,13.3,13.8,13.9V39.1c-3.4,0-6.8-1.5-9-3.9c-0.8-0.8-1.4-1.8-1.8-2.7L2.8,34z"/>
	</g>
	<g>
		<path fill="#FFFFFF" d="M61.9,55.3c-0.1-16.7-11.6-30.8-25.8-30.8c-14.2,0-25.7,14-25.8,30.8H61.9z"/>
		<path fill="#37474F" d="M61.9,56.3H10.2c-0.3,0-0.5-0.1-0.7-0.3c-0.2-0.2-0.3-0.4-0.3-0.7c0.1-17.5,12.2-31.7,26.8-31.7
			c14.7,0,26.7,14.2,26.8,31.7c0,0.3-0.1,0.5-0.3,0.7C62.5,56.2,62.2,56.3,61.9,56.3z M11.3,54.3h49.6
			c-0.6-15.9-11.5-28.8-24.8-28.8S11.8,38.4,11.3,54.3z"/>
	</g>
	<g>
		<rect x="10.3" y="55.3" fill="#B0BEC5" width="52.2" height="3"/>
		<path fill="#37474F" d="M62.5,59.3H10.3c-0.6,0-1-0.4-1-1v-3c0-0.6,0.4-1,1-1h52.2c0.6,0,1,0.4,1,1v3
			C63.5,58.8,63.1,59.3,62.5,59.3z M11.3,57.3h50.2v-1H11.3V57.3z"/>
	</g>
	<g>
		<path fill="#FFAB00" d="M53.9,33.6C49.3,27.7,43,25,36.1,25c-6.9,0-13.2,2.7-17.8,8.6H53.9z"/>
		<path fill="#37474F" d="M53.9,34.6H18.3c-0.4,0-0.7-0.2-0.9-0.6c-0.2-0.3-0.1-0.8,0.1-1.1c4.6-5.9,11.1-9,18.6-9
			c7.6,0,14,3.1,18.6,9c0.2,0.3,0.3,0.7,0.1,1.1C54.6,34.4,54.3,34.6,53.9,34.6z M20.4,32.6h31.3c-4.1-4.3-9.5-6.6-15.6-6.6
			S24.5,28.3,20.4,32.6z"/>
	</g>
	<g>
		<polygon fill="#37474F" points="36.1,27.5 32.7,24.1 36.1,20.7 39.5,24.1 		"/>
		<path fill="#37474F" d="M36.1,28.5c-0.3,0-0.5-0.1-0.7-0.3L32,24.9c-0.2-0.2-0.3-0.4-0.3-0.7c0-0.3,0.1-0.5,0.3-0.7l3.4-3.4
			c0.2-0.2,0.4-0.3,0.7-0.3c0,0,0,0,0,0c0.3,0,0.5,0.1,0.7,0.3l3.4,3.4c0.4,0.4,0.4,1,0,1.4l-3.4,3.4C36.6,28.4,36.3,28.5,36.1,28.5
			z M34.1,24.1l2,2l2-2l-2-2L34.1,24.1z"/>
	</g>
	<g>
		<g>
			<g>
				<path fill="#37474F" d="M26.4,44.7c0-0.4,0.3-0.7,0.7-0.7c0.4,0,0.7,0.3,0.7,0.7c0,0.4-0.3,0.7-0.7,0.7
					C26.8,45.4,26.4,45,26.4,44.7z"/>
				<path fill="#37474F" d="M27.1,45.9c-0.6,0-1.2-0.5-1.2-1.2c0-0.7,0.5-1.2,1.2-1.2c0.3,0,0.6,0.1,0.9,0.4
					c0.2,0.2,0.3,0.5,0.3,0.8C28.3,45.3,27.8,45.9,27.1,45.9z M27.1,44.5c-0.1,0-0.2,0.1-0.2,0.2c0,0.1,0.1,0.2,0.2,0.2
					c0.1,0,0.2-0.1,0.2-0.2c0-0.1,0-0.1,0-0.1C27.3,44.5,27.2,44.5,27.1,44.5z"/>
			</g>
			<g>
				<path fill="#37474F" d="M21.6,44.7c0-0.4,0.3-0.7,0.7-0.7c0.4,0,0.7,0.3,0.7,0.7c0,0.4-0.3,0.7-0.7,0.7
					C21.9,45.4,21.6,45,21.6,44.7z"/>
				<path fill="#37474F" d="M22.3,45.9c-0.7,0-1.2-0.5-1.2-1.2c0-0.3,0.1-0.6,0.3-0.8c0.2-0.2,0.5-0.4,0.9-0.4
					c0.7,0,1.2,0.5,1.2,1.2C23.5,45.3,22.9,45.9,22.3,45.9z M22.3,44.5c-0.1,0-0.1,0-0.1,0.1c0,0,0,0.1,0,0.1c0,0.1,0.1,0.2,0.2,0.2
					c0.1,0,0.2-0.1,0.2-0.2C22.5,44.6,22.4,44.5,22.3,44.5z"/>
			</g>
			<g>
				<path fill="#37474F" d="M16.7,44.7c0-0.4,0.3-0.7,0.7-0.7c0.4,0,0.7,0.3,0.7,0.7c0,0.4-0.3,0.7-0.7,0.7
					C17,45.4,16.7,45,16.7,44.7z"/>
				<path fill="#37474F" d="M17.4,45.9c-0.6,0-1.2-0.5-1.2-1.2c0-0.6,0.5-1.2,1.2-1.2c0.7,0,1.2,0.5,1.2,1.2
					C18.6,45.3,18.1,45.9,17.4,45.9z M17.4,44.5c-0.1,0-0.2,0.1-0.2,0.2c0,0.1,0.1,0.2,0.2,0.2c0.1,0,0.2-0.1,0.2-0.2
					C17.6,44.6,17.5,44.5,17.4,44.5z"/>
			</g>
		</g>
		<g>
			<g>
				<path fill="#37474F" d="M40.2,44.7c0-0.4,0.3-0.7,0.7-0.7c0.4,0,0.7,0.3,0.7,0.7c0,0.4-0.3,0.7-0.7,0.7
					C40.6,45.4,40.2,45,40.2,44.7z"/>
				<path fill="#37474F" d="M40.9,45.9c-0.6,0-1.2-0.5-1.2-1.2c0-0.7,0.5-1.2,1.2-1.2c0.3,0,0.6,0.1,0.9,0.4
					c0.2,0.2,0.3,0.5,0.3,0.8C42.1,45.3,41.6,45.9,40.9,45.9z M40.9,44.5c-0.1,0-0.2,0.1-0.2,0.2c0,0.1,0.1,0.2,0.2,0.2
					c0.1,0,0.2-0.1,0.2-0.2c0-0.1,0-0.1,0-0.1C41.1,44.5,41,44.5,40.9,44.5z"/>
			</g>
			<g>
				<path fill="#37474F" d="M35.4,44.7c0-0.4,0.3-0.7,0.7-0.7c0.4,0,0.7,0.3,0.7,0.7c0,0.4-0.3,0.7-0.7,0.7
					C35.7,45.4,35.4,45,35.4,44.7z"/>
				<path fill="#37474F" d="M36.1,45.9c-0.7,0-1.2-0.5-1.2-1.2c0-0.3,0.1-0.6,0.3-0.8c0.2-0.2,0.5-0.4,0.9-0.4
					c0.7,0,1.2,0.5,1.2,1.2C37.3,45.4,36.7,45.9,36.1,45.9z M36.1,44.5c-0.1,0-0.1,0-0.1,0.1c0,0,0,0.1,0,0.1c0,0.1,0.1,0.2,0.2,0.2
					c0.1,0,0.2-0.1,0.2-0.2C36.3,44.6,36.2,44.5,36.1,44.5z"/>
			</g>
			<g>
				<path fill="#37474F" d="M30.5,44.7c0-0.4,0.3-0.7,0.7-0.7c0.4,0,0.7,0.3,0.7,0.7c0,0.4-0.3,0.7-0.7,0.7
					C30.8,45.4,30.5,45,30.5,44.7z"/>
				<path fill="#37474F" d="M31.2,45.9c-0.6,0-1.2-0.5-1.2-1.2c0-0.6,0.5-1.2,1.2-1.2c0.7,0,1.2,0.5,1.2,1.2
					C32.4,45.3,31.9,45.9,31.2,45.9z M31.2,44.5c-0.1,0-0.2,0.1-0.2,0.2c0,0.1,0.1,0.2,0.2,0.2c0.1,0,0.2-0.1,0.2-0.2
					C31.4,44.6,31.3,44.5,31.2,44.5z"/>
			</g>
		</g>
		<g>
			<g>
				<path fill="#37474F" d="M54.1,44.7c0-0.4,0.3-0.7,0.7-0.7c0.4,0,0.7,0.3,0.7,0.7c0,0.4-0.3,0.7-0.7,0.7
					C54.4,45.4,54.1,45,54.1,44.7z"/>
				<path fill="#37474F" d="M54.8,45.9c-0.6,0-1.2-0.5-1.2-1.2c0-0.7,0.5-1.2,1.2-1.2c0.3,0,0.6,0.1,0.9,0.4
					c0.2,0.2,0.3,0.5,0.3,0.8C56,45.3,55.4,45.9,54.8,45.9z M54.8,44.5c-0.1,0-0.2,0.1-0.2,0.2c0,0.2,0.4,0.2,0.4,0
					c0-0.1,0-0.1,0-0.1C54.9,44.5,54.8,44.5,54.8,44.5z"/>
			</g>
			<g>
				<path fill="#37474F" d="M49.2,44.7c0-0.4,0.3-0.7,0.7-0.7c0.4,0,0.7,0.3,0.7,0.7c0,0.4-0.3,0.7-0.7,0.7
					C49.5,45.4,49.2,45,49.2,44.7z"/>
				<path fill="#37474F" d="M49.9,45.9c-0.7,0-1.2-0.5-1.2-1.2c0-0.3,0.1-0.6,0.3-0.8c0.2-0.2,0.5-0.4,0.9-0.4
					c0.7,0,1.2,0.5,1.2,1.2C51.1,45.4,50.6,45.9,49.9,45.9z M49.9,44.5c-0.1,0-0.1,0-0.1,0.1c0,0,0,0.1,0,0.1c0,0.1,0.1,0.2,0.2,0.2
					c0.1,0,0.2-0.1,0.2-0.2C50.1,44.6,50,44.5,49.9,44.5z"/>
			</g>
			<g>
				<path fill="#37474F" d="M44.3,44.7c0-0.4,0.3-0.7,0.7-0.7c0.4,0,0.7,0.3,0.7,0.7c0,0.4-0.3,0.7-0.7,0.7
					C44.7,45.4,44.3,45,44.3,44.7z"/>
				<path fill="#37474F" d="M45,45.9c-0.6,0-1.2-0.5-1.2-1.2c0-0.6,0.5-1.2,1.2-1.2c0.7,0,1.2,0.5,1.2,1.2
					C46.2,45.3,45.7,45.9,45,45.9z M45,44.5c-0.1,0-0.2,0.1-0.2,0.2c0,0.1,0.1,0.2,0.2,0.2c0.1,0,0.2-0.1,0.2-0.2
					C45.2,44.6,45.2,44.5,45,44.5z"/>
			</g>
		</g>
	</g>
</g>
</svg>
