<?xml version="1.0" encoding="utf-8"?>
<!-- Generator: Adobe Illustrator 16.0.0, SVG Export Plug-In . SVG Version: 6.00 Build 0)  -->
<!DOCTYPE svg PUBLIC "-//W3C//DTD SVG 1.1//EN" "http://www.w3.org/Graphics/SVG/1.1/DTD/svg11.dtd">
<svg version="1.1" id="Layer_1" xmlns="http://www.w3.org/2000/svg" xmlns:xlink="http://www.w3.org/1999/xlink" x="0px" y="0px"
	 width="65px" height="65px" viewBox="0 0 65 65" enable-background="new 0 0 65 65" xml:space="preserve">
<g>
	<g>
		<polygon fill="#FFECB3" points="5.8,17.1 32.5,1.7 59.2,17.1 59.2,47.9 32.5,63.3 5.8,47.9 		"/>
		<path fill="#37474F" d="M32.5,64.3c-0.2,0-0.3,0-0.5-0.1L5.3,48.8c-0.3-0.2-0.5-0.5-0.5-0.9V17.1c0-0.4,0.2-0.7,0.5-0.9L32,0.8
			c0.3-0.2,0.7-0.2,1,0l26.7,15.4c0.3,0.2,0.5,0.5,0.5,0.9v30.8c0,0.4-0.2,0.7-0.5,0.9L33,64.2C32.8,64.3,32.7,64.3,32.5,64.3z
			 M6.8,47.3l25.7,14.8l25.7-14.8V17.7L32.5,2.8L6.8,17.7V47.3z"/>
	</g>
	<g>
		<polyline fill="#FFECB3" points="59.2,17.3 32.5,32.7 5.8,17.3 		"/>
		<path fill="#37474F" d="M32.5,33.7c-0.2,0-0.3,0-0.5-0.1L5.3,18.2c-0.5-0.3-0.6-0.9-0.4-1.4c0.3-0.5,0.9-0.6,1.4-0.4l26.2,15.1
			l26.2-15.1c0.5-0.3,1.1-0.1,1.4,0.4c0.3,0.5,0.1,1.1-0.4,1.4L33,33.6C32.8,33.7,32.7,33.7,32.5,33.7z"/>
	</g>
	<g>
		<line fill="#FFECB3" x1="32.5" y1="32.7" x2="32.5" y2="63.3"/>
		<path fill="#37474F" d="M32.5,64.3c-0.6,0-1-0.4-1-1V32.7c0-0.6,0.4-1,1-1s1,0.4,1,1v30.6C33.5,63.9,33.1,64.3,32.5,64.3z"/>
	</g>
	<g>
		<g>
			<line fill="#FFECB3" x1="55.7" y1="44" x2="42.5" y2="51.6"/>
			<path fill="#37474F" d="M42.5,52.6c-0.3,0-0.7-0.2-0.9-0.5c-0.3-0.5-0.1-1.1,0.4-1.4l13.2-7.6c0.5-0.3,1.1-0.1,1.4,0.4
				c0.3,0.5,0.1,1.1-0.4,1.4L43,52.5C42.8,52.6,42.7,52.6,42.5,52.6z"/>
		</g>
		<g>
			<g>
				<line fill="#FFECB3" x1="46.1" y1="39.9" x2="46.1" y2="49"/>
				<path fill="#37474F" d="M46.1,50c-0.6,0-1-0.4-1-1v-9.2c0-0.6,0.4-1,1-1s1,0.4,1,1V49C47.1,49.6,46.7,50,46.1,50z"/>
			</g>
			<g>
				<polyline fill="#FFECB3" points="43.4,41.5 46.1,38.7 48.8,41.5 				"/>
				<path fill="#37474F" d="M43.4,42.5c-0.3,0-0.5-0.1-0.7-0.3c-0.4-0.4-0.4-1,0-1.4l2.7-2.7c0.2-0.2,0.4-0.3,0.7-0.3l0,0
					c0.3,0,0.5,0.1,0.7,0.3l2.7,2.7c0.4,0.4,0.4,1,0,1.4c-0.4,0.4-1,0.4-1.4,0l-2-2l-2,2C43.9,42.4,43.7,42.5,43.4,42.5z"/>
			</g>
		</g>
		<g>
			<g>
				<line fill="#FFECB3" x1="51.8" y1="36.6" x2="51.8" y2="45.8"/>
				<path fill="#37474F" d="M51.8,46.8c-0.6,0-1-0.4-1-1v-9.2c0-0.6,0.4-1,1-1s1,0.4,1,1v9.2C52.8,46.3,52.4,46.8,51.8,46.8z"/>
			</g>
			<g>
				<polyline fill="#FFECB3" points="49.1,38.2 51.8,35.5 54.5,38.2 				"/>
				<path fill="#37474F" d="M54.5,39.2c-0.3,0-0.5-0.1-0.7-0.3l-2-2l-2,2c-0.4,0.4-1,0.4-1.4,0s-0.4-1,0-1.4l2.7-2.7
					c0.4-0.4,1-0.4,1.4,0l2.7,2.7c0.4,0.4,0.4,1,0,1.4C55.1,39.1,54.8,39.2,54.5,39.2z"/>
			</g>
		</g>
	</g>
</g>
</svg>
