<?xml version="1.0" encoding="utf-8"?>
<!-- Generator: Adobe Illustrator 16.0.0, SVG Export Plug-In . SVG Version: 6.00 Build 0)  -->
<!DOCTYPE svg PUBLIC "-//W3C//DTD SVG 1.1//EN" "http://www.w3.org/Graphics/SVG/1.1/DTD/svg11.dtd">
<svg version="1.1" id="Layer_1" xmlns="http://www.w3.org/2000/svg" xmlns:xlink="http://www.w3.org/1999/xlink" x="0px" y="0px"
	 width="32px" height="32px" viewBox="0 0 32 32" enable-background="new 0 0 32 32" xml:space="preserve">
<g>
	<g>
		<g>
			<path fill="#37474F" d="M7.3,22H2.3C1,22,1,20.6,1,19.7v-5.1C1,13.1,1.7,13,2.6,13h4.7C8.4,13,9,13.6,9,14.6v5.1
				C9,20.8,8.3,22,7.3,22z M2.1,14c0,0-0.1,0.1-0.1,0.6v5.1C2,21,2.1,21,2.3,21h4.9C7.7,21,8,20.3,8,19.7v-5.1C8,14.3,7.9,14,7.3,14
				H2.6C2.4,14,2.1,14,2.1,14L2.1,14z"/>
		</g>
		<g>
			<path fill="#37474F" d="M29.4,22h-5.1c-1.1,0-2.3-1.2-2.3-2.3v-5.1c0-1.1,1.2-1.6,2.3-1.6h5.1c1.1,0,1.6,0.6,1.6,1.6v5.1
				C31,20.9,30.4,22,29.4,22z M24.3,14c-0.5,0-1.3,0.2-1.3,0.6v5.1c0,0.5,0.8,1.3,1.3,1.3h5.1c0.4,0,0.6-0.7,0.6-1.3v-5.1
				c0-0.5-0.1-0.6-0.6-0.6H24.3z"/>
		</g>
	</g>
	<g>
		<path fill="#B0BEC5" d="M3.5,9.5v15.2c0,2.2,1.2,3.8,3.1,3.8h18.4c1.8,0,3.6-1.5,3.6-3.8V9.5H3.5z"/>
		<path fill="#37474F" d="M24.9,29H6.6C4.5,29,3,27.2,3,24.7V9h26v15.7C29,27.4,26.9,29,24.9,29z M4,10v14.7c0,2,1,3.3,2.6,3.3h18.4
			c1.5,0,3.1-1.2,3.1-3.3V10H4z"/>
	</g>
	<g>
		<rect x="1.5" y="7.5" fill="#FFFFFF" width="29" height="3"/>
		<path fill="#37474F" d="M30.5,11h-29C1.2,11,1,10.8,1,10.5v-3C1,7.2,1.2,7,1.5,7h29C30.8,7,31,7.2,31,7.5v3
			C31,10.8,30.8,11,30.5,11z M2,10h28V8H2V10z"/>
	</g>
	<g>
		<polyline fill="#FFAB00" points="12,3.5 19.5,3.5 19.5,7 		"/>
		<path fill="#37474F" d="M19.5,7.5C19.2,7.5,19,7.3,19,7V4h-7c-0.3,0-0.5-0.2-0.5-0.5S11.7,3,12,3h7.5C19.8,3,20,3.2,20,3.5V7
			C20,7.3,19.8,7.5,19.5,7.5z"/>
	</g>
	<g>
		<g>
			<g>
				<g>
					<path fill="#37474F" d="M6.2,15.2c0,0.2-0.2,0.4-0.4,0.4c-0.2,0-0.4-0.2-0.4-0.4c0-0.2,0.2-0.4,0.4-0.4C6,14.8,6.2,15,6.2,15.2
						z"/>
					<path fill="#37474F" d="M5.8,16c-0.2,0-0.5-0.1-0.6-0.3c-0.2-0.2-0.2-0.4-0.2-0.6c0-0.5,0.4-0.8,0.9-0.8l0,0
						c0.5,0,0.9,0.4,0.9,0.9C6.7,15.6,6.3,16,5.8,16L5.8,16z"/>
				</g>
				<g>
					<path fill="#37474F" d="M8.7,15.2c0,0.2-0.2,0.4-0.4,0.4c-0.2,0-0.4-0.2-0.4-0.4c0-0.2,0.2-0.4,0.4-0.4
						C8.5,14.8,8.7,15,8.7,15.2z"/>
					<path fill="#37474F" d="M8.3,16c-0.5,0-0.9-0.4-0.9-0.9c0-0.5,0.4-0.9,0.9-0.9c0.5,0,0.9,0.4,0.9,0.9c0,0.2-0.1,0.4-0.2,0.6
						C8.8,16,8.6,16,8.3,16z"/>
				</g>
				<g>
					<path fill="#37474F" d="M11.2,15.2c0,0.2-0.2,0.4-0.4,0.4c-0.2,0-0.4-0.2-0.4-0.4c0-0.2,0.2-0.4,0.4-0.4
						C11.1,14.8,11.2,15,11.2,15.2z"/>
					<path fill="#37474F" d="M10.9,16c-0.5,0-0.9-0.4-0.9-0.9c0-0.5,0.4-0.9,0.9-0.9c0.5,0,0.9,0.4,0.9,0.9
						C11.7,15.7,11.4,16,10.9,16z M10.9,15c-0.1,0-0.1,0.1-0.1,0.1c0,0.1,0.3,0.2,0.3,0C11,15.1,11,15,10.9,15z"/>
				</g>
			</g>
			<g>
				<g>
					<path fill="#37474F" d="M13.6,15.2c0,0.2-0.2,0.4-0.4,0.4c-0.2,0-0.4-0.2-0.4-0.4c0-0.2,0.2-0.4,0.4-0.4
						C13.4,14.8,13.6,15,13.6,15.2z"/>
					<path fill="#37474F" d="M13.2,16c-0.2,0-0.5-0.1-0.6-0.3c-0.2-0.2-0.2-0.4-0.2-0.6c0-0.5,0.4-0.8,0.9-0.8l0,0
						c0.5,0,0.9,0.4,0.9,0.9C14.1,15.6,13.7,16,13.2,16L13.2,16z"/>
				</g>
				<g>
					<path fill="#37474F" d="M16.1,15.2c0,0.2-0.2,0.4-0.4,0.4c-0.2,0-0.4-0.2-0.4-0.4c0-0.2,0.2-0.4,0.4-0.4
						C16,14.8,16.1,15,16.1,15.2z"/>
					<path fill="#37474F" d="M15.8,16c-0.5,0-0.9-0.4-0.9-0.9c0-0.5,0.4-0.9,0.9-0.9c0.5,0,0.9,0.4,0.9,0.9c0,0.2-0.1,0.4-0.2,0.6
						C16.2,15.9,16,16,15.8,16z"/>
				</g>
				<g>
					<path fill="#37474F" d="M18.7,15.2c0,0.2-0.2,0.4-0.4,0.4c-0.2,0-0.4-0.2-0.4-0.4c0-0.2,0.2-0.4,0.4-0.4
						C18.5,14.8,18.7,15,18.7,15.2z"/>
					<path fill="#37474F" d="M18.3,16c-0.5,0-0.9-0.4-0.9-0.9c0-0.5,0.4-0.9,0.9-0.9c0.5,0,0.9,0.4,0.9,0.9
						C19.2,15.7,18.8,16,18.3,16z M18.3,15c-0.1,0-0.1,0.1-0.1,0.1c0,0.1,0.3,0.2,0.3,0C18.4,15.1,18.4,15,18.3,15z"/>
				</g>
			</g>
			<g>
				<g>
					<path fill="#37474F" d="M21,15.2c0,0.2-0.2,0.4-0.4,0.4c-0.2,0-0.4-0.2-0.4-0.4c0-0.2,0.2-0.4,0.4-0.4C20.8,14.8,21,15,21,15.2
						z"/>
					<path fill="#37474F" d="M20.6,16c-0.2,0-0.5-0.1-0.6-0.3c-0.2-0.2-0.2-0.4-0.2-0.6c0-0.5,0.4-0.8,0.9-0.8l0,0
						c0.5,0,0.9,0.4,0.9,0.9C21.5,15.6,21.1,16,20.6,16L20.6,16z"/>
				</g>
				<g>
					<path fill="#37474F" d="M23.5,15.2c0,0.2-0.2,0.4-0.4,0.4c-0.2,0-0.4-0.2-0.4-0.4c0-0.2,0.2-0.4,0.4-0.4
						C23.4,14.8,23.5,15,23.5,15.2z"/>
					<path fill="#37474F" d="M23.2,16c-0.5,0-0.9-0.4-0.9-0.9c0-0.5,0.4-0.9,0.9-0.9c0.5,0,0.9,0.4,0.9,0.9c0,0.2-0.1,0.4-0.2,0.6
						C23.6,15.9,23.4,16,23.2,16z"/>
				</g>
				<g>
					<path fill="#37474F" d="M26.1,15.2c0,0.2-0.2,0.4-0.4,0.4c-0.2,0-0.4-0.2-0.4-0.4c0-0.2,0.2-0.4,0.4-0.4
						C25.9,14.8,26.1,15,26.1,15.2z"/>
					<path fill="#37474F" d="M25.7,16c-0.5,0-0.9-0.4-0.9-0.9c0-0.5,0.4-0.9,0.9-0.9c0.5,0,0.9,0.4,0.9,0.9
						C26.6,15.7,26.2,16,25.7,16z M25.7,15c-0.1,0-0.1,0.1-0.1,0.1c0,0.2,0.3,0.1,0.3,0C25.8,15.1,25.8,15,25.7,15z"/>
				</g>
			</g>
		</g>
		<g>
			<g>
				<g>
					<path fill="#37474F" d="M6.2,18c0,0.2-0.2,0.4-0.4,0.4c-0.2,0-0.4-0.2-0.4-0.4c0-0.2,0.2-0.4,0.4-0.4C6,17.6,6.2,17.8,6.2,18z"
						/>
					<path fill="#37474F" d="M5.8,18.9c-0.2,0-0.5-0.1-0.6-0.3C5,18.4,4.9,18.2,4.9,18c0-0.5,0.4-0.8,0.9-0.8l0,0
						c0.5,0,0.9,0.4,0.9,0.9C6.7,18.5,6.3,18.8,5.8,18.9L5.8,18.9z"/>
				</g>
				<g>
					<path fill="#37474F" d="M8.7,18c0,0.2-0.2,0.4-0.4,0.4C8.1,18.4,8,18.2,8,18c0-0.2,0.2-0.4,0.4-0.4C8.5,17.6,8.7,17.8,8.7,18z"
						/>
					<path fill="#37474F" d="M8.3,18.9c-0.5,0-0.9-0.4-0.9-0.9c0-0.5,0.4-0.9,0.9-0.9c0.5,0,0.9,0.4,0.9,0.9c0,0.2-0.1,0.4-0.2,0.6
						C8.8,18.8,8.6,18.9,8.3,18.9z"/>
				</g>
				<g>
					<path fill="#37474F" d="M11.2,18c0,0.2-0.2,0.4-0.4,0.4c-0.2,0-0.4-0.2-0.4-0.4c0-0.2,0.2-0.4,0.4-0.4
						C11.1,17.6,11.2,17.8,11.2,18z"/>
					<path fill="#37474F" d="M10.9,18.9c-0.5,0-0.9-0.4-0.9-0.9c0-0.5,0.4-0.9,0.9-0.9c0.5,0,0.9,0.4,0.9,0.9
						C11.7,18.5,11.4,18.9,10.9,18.9z M10.9,17.9c-0.1,0-0.1,0.1-0.1,0.1c0,0.1,0.3,0.2,0.3,0C11,17.9,11,17.9,10.9,17.9z"/>
				</g>
			</g>
			<g>
				<g>
					<path fill="#37474F" d="M13.6,18c0,0.2-0.2,0.4-0.4,0.4c-0.2,0-0.4-0.2-0.4-0.4c0-0.2,0.2-0.4,0.4-0.4
						C13.4,17.6,13.6,17.8,13.6,18z"/>
					<path fill="#37474F" d="M13.2,18.9c-0.2,0-0.5-0.1-0.6-0.3c-0.2-0.2-0.2-0.4-0.2-0.6c0-0.5,0.4-0.8,0.9-0.8l0,0
						c0.5,0,0.9,0.4,0.9,0.9C14.1,18.5,13.7,18.8,13.2,18.9L13.2,18.9z"/>
				</g>
				<g>
					<path fill="#37474F" d="M16.1,18c0,0.2-0.2,0.4-0.4,0.4c-0.2,0-0.4-0.2-0.4-0.4c0-0.2,0.2-0.4,0.4-0.4
						C16,17.6,16.1,17.8,16.1,18z"/>
					<path fill="#37474F" d="M15.8,18.9c-0.5,0-0.9-0.4-0.9-0.9c0-0.5,0.4-0.9,0.9-0.9c0.5,0,0.9,0.4,0.9,0.9c0,0.2-0.1,0.4-0.2,0.6
						C16.2,18.8,16,18.9,15.8,18.9z"/>
				</g>
				<g>
					<path fill="#37474F" d="M18.7,18c0,0.2-0.2,0.4-0.4,0.4c-0.2,0-0.4-0.2-0.4-0.4c0-0.2,0.2-0.4,0.4-0.4
						C18.5,17.6,18.7,17.8,18.7,18z"/>
					<path fill="#37474F" d="M18.3,18.9c-0.5,0-0.9-0.4-0.9-0.9c0-0.5,0.4-0.9,0.8-0.9c0.5,0,0.9,0.4,0.9,0.9
						C19.2,18.5,18.8,18.9,18.3,18.9z M18.3,17.9c-0.1,0-0.1,0.1-0.1,0.1c0,0.1,0.3,0.2,0.3,0C18.4,17.9,18.4,17.9,18.3,17.9z"/>
				</g>
			</g>
			<g>
				<g>
					<path fill="#37474F" d="M21,18c0,0.2-0.2,0.4-0.4,0.4c-0.2,0-0.4-0.2-0.4-0.4c0-0.2,0.2-0.4,0.4-0.4C20.8,17.6,21,17.8,21,18z"
						/>
					<path fill="#37474F" d="M20.6,18.9c-0.2,0-0.5-0.1-0.6-0.3c-0.2-0.2-0.2-0.4-0.2-0.6c0-0.5,0.4-0.8,0.9-0.8l0,0
						c0.5,0,0.9,0.4,0.9,0.9C21.5,18.5,21.1,18.8,20.6,18.9L20.6,18.9z"/>
				</g>
				<g>
					<path fill="#37474F" d="M23.5,18c0,0.2-0.2,0.4-0.4,0.4c-0.2,0-0.4-0.2-0.4-0.4c0-0.2,0.2-0.4,0.4-0.4
						C23.4,17.6,23.5,17.8,23.5,18z"/>
					<path fill="#37474F" d="M23.2,18.9c-0.5,0-0.9-0.4-0.9-0.9c0-0.5,0.4-0.9,0.9-0.9c0.5,0,0.9,0.4,0.9,0.9c0,0.2-0.1,0.4-0.2,0.6
						C23.6,18.8,23.4,18.9,23.2,18.9z"/>
				</g>
				<g>
					<path fill="#37474F" d="M26.1,18c0,0.2-0.2,0.4-0.4,0.4c-0.2,0-0.4-0.2-0.4-0.4c0-0.2,0.2-0.4,0.4-0.4
						C25.9,17.6,26.1,17.8,26.1,18z"/>
					<path fill="#37474F" d="M25.7,18.9c-0.5,0-0.9-0.4-0.9-0.9c0-0.5,0.4-0.9,0.9-0.9c0.5,0,0.9,0.4,0.9,0.9
						C26.6,18.5,26.2,18.9,25.7,18.9z M25.7,17.9c-0.1,0-0.1,0.1-0.1,0.1c0,0.1,0.3,0.2,0.3,0C25.8,17.9,25.8,17.9,25.7,17.9z"/>
				</g>
			</g>
		</g>
		<g>
			<g>
				<g>
					<path fill="#37474F" d="M6.2,20.8c0,0.2-0.2,0.4-0.4,0.4c-0.2,0-0.4-0.2-0.4-0.4c0-0.2,0.2-0.4,0.4-0.4
						C6,20.5,6.2,20.6,6.2,20.8z"/>
					<path fill="#37474F" d="M5.8,21.7c-0.2,0-0.5-0.1-0.6-0.3C5,21.3,4.9,21,4.9,20.8c0-0.5,0.4-0.8,0.9-0.8c0,0,0,0,0,0
						c0.5,0,0.9,0.4,0.9,0.9C6.7,21.3,6.3,21.7,5.8,21.7L5.8,21.7z"/>
				</g>
				<g>
					<path fill="#37474F" d="M8.7,20.8c0,0.2-0.2,0.4-0.4,0.4C8.1,21.2,8,21,8,20.8c0-0.2,0.2-0.4,0.4-0.4
						C8.5,20.5,8.7,20.6,8.7,20.8z"/>
					<path fill="#37474F" d="M8.3,21.7c-0.5,0-0.9-0.4-0.9-0.9c0-0.5,0.4-0.9,0.9-0.9c0.5,0,0.9,0.4,0.9,0.9c0,0.2-0.1,0.4-0.2,0.6
						C8.8,21.6,8.6,21.7,8.3,21.7z"/>
				</g>
				<g>
					<path fill="#37474F" d="M11.2,20.8c0,0.2-0.2,0.4-0.4,0.4c-0.2,0-0.4-0.2-0.4-0.4c0-0.2,0.2-0.4,0.4-0.4
						C11.1,20.5,11.2,20.6,11.2,20.8z"/>
					<path fill="#37474F" d="M10.9,21.7c-0.5,0-0.9-0.4-0.9-0.9c0-0.5,0.4-0.9,0.9-0.9c0.5,0,0.9,0.4,0.9,0.9
						C11.7,21.3,11.4,21.7,10.9,21.7z M10.9,20.7c-0.1,0-0.1,0.1-0.1,0.1c0,0.1,0.3,0.2,0.3,0C11,20.7,11,20.7,10.9,20.7z"/>
				</g>
			</g>
			<g>
				<g>
					<path fill="#37474F" d="M13.6,20.8c0,0.2-0.2,0.4-0.4,0.4c-0.2,0-0.4-0.2-0.4-0.4c0-0.2,0.2-0.4,0.4-0.4
						C13.4,20.5,13.6,20.6,13.6,20.8z"/>
					<path fill="#37474F" d="M13.2,21.7c-0.2,0-0.4-0.1-0.6-0.3c-0.2-0.2-0.2-0.4-0.2-0.6c0-0.5,0.4-0.8,0.9-0.8c0,0,0,0,0,0
						c0.5,0,0.9,0.4,0.9,0.9C14.1,21.3,13.7,21.7,13.2,21.7L13.2,21.7z"/>
				</g>
				<g>
					<path fill="#37474F" d="M16.1,20.8c0,0.2-0.2,0.4-0.4,0.4c-0.2,0-0.4-0.2-0.4-0.4c0-0.2,0.2-0.4,0.4-0.4
						C16,20.5,16.1,20.6,16.1,20.8z"/>
					<path fill="#37474F" d="M15.8,21.7c-0.5,0-0.9-0.4-0.9-0.9c0-0.5,0.4-0.9,0.9-0.9c0.5,0,0.9,0.4,0.9,0.9c0,0.2-0.1,0.4-0.2,0.6
						C16.2,21.6,16,21.7,15.8,21.7z"/>
				</g>
				<g>
					<path fill="#37474F" d="M18.7,20.8c0,0.2-0.2,0.4-0.4,0.4c-0.2,0-0.4-0.2-0.4-0.4c0-0.2,0.2-0.4,0.4-0.4
						C18.5,20.5,18.7,20.6,18.7,20.8z"/>
					<path fill="#37474F" d="M18.3,21.7c-0.5,0-0.9-0.4-0.9-0.9c0-0.5,0.4-0.9,0.8-0.9c0.5,0,0.9,0.4,0.9,0.9
						C19.2,21.3,18.8,21.7,18.3,21.7z M18.3,20.7c-0.1,0-0.1,0.1-0.1,0.1c0,0.1,0.3,0.2,0.3,0C18.4,20.7,18.4,20.7,18.3,20.7z"/>
				</g>
			</g>
			<g>
				<g>
					<path fill="#37474F" d="M21,20.8c0,0.2-0.2,0.4-0.4,0.4c-0.2,0-0.4-0.2-0.4-0.4c0-0.2,0.2-0.4,0.4-0.4
						C20.8,20.5,21,20.6,21,20.8z"/>
					<path fill="#37474F" d="M20.6,21.7c-0.2,0-0.4-0.1-0.6-0.3c-0.2-0.2-0.2-0.4-0.2-0.6c0-0.5,0.4-0.8,0.9-0.8c0,0,0,0,0,0
						c0.5,0,0.9,0.4,0.9,0.9C21.5,21.3,21.1,21.7,20.6,21.7L20.6,21.7z"/>
				</g>
				<g>
					<path fill="#37474F" d="M23.5,20.8c0,0.2-0.2,0.4-0.4,0.4c-0.2,0-0.4-0.2-0.4-0.4c0-0.2,0.2-0.4,0.4-0.4
						C23.4,20.5,23.5,20.6,23.5,20.8z"/>
					<path fill="#37474F" d="M23.2,21.7c-0.5,0-0.9-0.4-0.9-0.9c0-0.5,0.4-0.9,0.9-0.9c0.5,0,0.9,0.4,0.9,0.9c0,0.2-0.1,0.4-0.2,0.6
						C23.6,21.6,23.4,21.7,23.2,21.7z"/>
				</g>
				<g>
					<path fill="#37474F" d="M26.1,20.8c0,0.2-0.2,0.4-0.4,0.4c-0.2,0-0.4-0.2-0.4-0.4c0-0.2,0.2-0.4,0.4-0.4
						C25.9,20.5,26.1,20.6,26.1,20.8z"/>
					<path fill="#37474F" d="M25.7,21.7c-0.5,0-0.9-0.4-0.9-0.9c0-0.5,0.4-0.9,0.9-0.9c0.5,0,0.9,0.4,0.9,0.9
						C26.6,21.3,26.2,21.7,25.7,21.7z M25.7,20.7c-0.1,0-0.1,0.1-0.1,0.1c0,0.1,0.3,0.2,0.3,0C25.8,20.8,25.8,20.7,25.7,20.7z"/>
				</g>
			</g>
		</g>
	</g>
</g>
</svg>
