<?xml version="1.0" encoding="utf-8"?>
<!-- Generator: Adobe Illustrator 16.0.0, SVG Export Plug-In . SVG Version: 6.00 Build 0)  -->
<!DOCTYPE svg PUBLIC "-//W3C//DTD SVG 1.1//EN" "http://www.w3.org/Graphics/SVG/1.1/DTD/svg11.dtd">
<svg version="1.1" id="Layer_1" xmlns="http://www.w3.org/2000/svg" xmlns:xlink="http://www.w3.org/1999/xlink" x="0px" y="0px"
	 width="128px" height="128px" viewBox="0 0 128 128" enable-background="new 0 0 128 128" xml:space="preserve">
<g>
	<g>
		<path fill="#FFFFFF" d="M121.6,27.9c0-13.5-10.9-24.4-24.4-24.4C90.8,3.5,85,6,80.6,10.1C76.2,6,70.4,3.5,64,3.5
			c-6.4,0-12.2,2.5-16.6,6.6C43,6,37.2,3.5,30.8,3.5C17.3,3.5,6.4,14.4,6.4,27.9c0,9.9,6.1,18.3,14.5,22.2c0,0.5-0.1,1-0.1,1.6v54.2
			c0,10.4,6.9,18.7,15.8,18.7h54.8c9,0,16.4-8.3,16.4-18.7V51.7c0-0.6-0.3-1-0.3-1.6C115.8,46.2,121.6,37.8,121.6,27.9z"/>
		<path fill="#37474F" d="M91.4,126H36.6c-9.7,0-17.3-8.9-17.3-20.2V51.7c0-0.2,0-0.4,0-0.6C10.5,46.5,4.9,37.6,4.9,27.9
			C4.9,13.6,16.5,2,30.8,2c6.1,0,11.9,2.2,16.6,6.1C52.1,4.2,57.9,2,64,2c6.1,0,11.9,2.2,16.6,6.1C85.3,4.2,91.1,2,97.2,2
			c14.3,0,25.9,11.6,25.9,25.9c0,9.7-5.4,18.5-14,23c0,0.2,0.1,0.5,0.1,0.8v54.2C109.3,116.9,101.3,126,91.4,126z M30.8,5
			C18.1,5,7.9,15.3,7.9,27.9c0,8.8,5.3,17,13.6,20.8c0.6,0.3,0.9,0.8,0.9,1.5l0,0.1c0,0.5-0.1,0.9-0.1,1.3v54.2
			c0,9.6,6.3,17.2,14.3,17.2h54.8c8.2,0,14.9-7.7,14.9-17.2V51.7c0-0.1-0.1-0.3-0.1-0.4c-0.1-0.3-0.2-0.6-0.2-1
			c-0.1-0.6,0.3-1.2,0.9-1.5c8.1-3.7,13.3-11.9,13.3-20.8C120.1,15.3,109.9,5,97.2,5c-5.8,0-11.3,2.2-15.6,6.2
			c-0.6,0.5-1.5,0.5-2.1,0C75.3,7.2,69.8,5,64,5c-5.8,0-11.3,2.2-15.6,6.2c-0.6,0.5-1.5,0.5-2.1,0C42.1,7.2,36.6,5,30.8,5z"/>
	</g>
	<g>
		<path fill="#FFAB00" d="M21.5,112.5c2.2,7,8.1,12,15.2,12h54.8c7.1,0,12.9-5,15.2-12H21.5z"/>
		<path fill="#37474F" d="M91.4,126H36.6c-7.6,0-14.1-5.1-16.6-13c-0.1-0.5-0.1-1,0.2-1.3c0.3-0.4,0.7-0.6,1.2-0.6h85.1
			c0.5,0,0.9,0.2,1.2,0.6c0.3,0.4,0.4,0.9,0.2,1.3C105.5,120.9,99,126,91.4,126z M23.6,114c2.5,5.5,7.4,9,13,9h54.8
			c5.6,0,10.5-3.5,13-9H23.6z"/>
	</g>
	<g>
		<g>
			<path fill="#37474F" d="M53.8,88.3c0,1-0.8,1.7-1.7,1.7c-0.9,0-1.7-0.8-1.7-1.7c0-0.9,0.7-1.7,1.7-1.7
				C53,86.6,53.8,87.4,53.8,88.3z"/>
			<path fill="#37474F" d="M52.1,90.6c-0.6,0-1.1-0.2-1.6-0.7c-0.4-0.4-0.6-1-0.6-1.6c0-1.2,1-2.1,2.2-2.1c0,0,0,0,0,0
				c1.2,0,2.2,1,2.2,2.2C54.3,89.5,53.3,90.5,52.1,90.6L52.1,90.6z M52.2,87.2c-0.8,0-1.3,0.5-1.3,1.2c0,0.3,0.1,0.6,0.3,0.9
				c0.2,0.2,0.5,0.4,0.8,0.4v0.5l0-0.5c0.7,0,1.2-0.6,1.2-1.2C53.3,87.7,52.8,87.2,52.2,87.2z"/>
		</g>
		<g>
			<path fill="#37474F" d="M65.7,88.4c0,0.9-0.8,1.7-1.7,1.7c-1,0-1.7-0.8-1.7-1.7c0-0.9,0.8-1.7,1.7-1.7
				C64.9,86.7,65.7,87.4,65.7,88.4z"/>
			<path fill="#37474F" d="M64,90.6c-1.3,0-2.2-1-2.2-2.2c0-1.2,1-2.2,2.2-2.2c1.2,0,2.2,1,2.2,2.2c0,0.5-0.2,1.1-0.6,1.5
				C65.2,90.3,64.6,90.6,64,90.6z M64,87.1c-0.6,0-1.2,0.6-1.2,1.2c0,0.7,0.5,1.2,1.2,1.2c0.3,0,0.6-0.1,0.9-0.4
				c0.2-0.2,0.3-0.5,0.3-0.8C65.2,87.7,64.6,87.2,64,87.1z"/>
		</g>
		<g>
			<path fill="#37474F" d="M77.6,88.3c0,1-0.8,1.7-1.7,1.7c-0.9,0-1.7-0.8-1.7-1.7c0-0.9,0.8-1.7,1.7-1.7
				C76.8,86.6,77.6,87.4,77.6,88.3z"/>
			<path fill="#37474F" d="M75.9,90.6c-1.2,0-2.2-1-2.2-2.2c0-1.2,1-2.2,2.1-2.2h0.1c1.2,0,2.2,1,2.2,2.2
				C78.1,89.6,77.1,90.6,75.9,90.6z M75.8,87.2c-0.6,0-1.1,0.5-1.1,1.2c0,0.7,0.6,1.2,1.2,1.2c0.7,0,1.2-0.6,1.2-1.2
				c0-0.6-0.5-1.2-1.2-1.2H75.8z"/>
		</g>
	</g>
	<g>
		<g>
			<path fill="#37474F" d="M51.3,50.6c-0.3,0-0.6-0.1-0.8-0.2c-9.2-5.9-11.9-18.2-6.1-27.4c0.4-0.7,1.4-0.9,2.1-0.5
				c0.7,0.4,0.9,1.4,0.5,2.1c-5,7.8-2.7,18.2,5.1,23.2c0.7,0.4,0.9,1.4,0.5,2.1C52.3,50.4,51.8,50.6,51.3,50.6z"/>
		</g>
		<g>
			<path fill="#37474F" d="M76.7,50.6c-0.5,0-1-0.2-1.3-0.7c-0.4-0.7-0.2-1.6,0.5-2.1c7.8-5,10.1-15.4,5.1-23.2
				c-0.4-0.7-0.2-1.6,0.5-2.1c0.7-0.4,1.6-0.2,2.1,0.5c5.9,9.2,3.1,21.5-6.1,27.4C77.3,50.5,77,50.6,76.7,50.6z"/>
		</g>
	</g>
</g>
</svg>
