<?xml version="1.0" encoding="utf-8"?>
<!-- Generator: Adobe Illustrator 16.0.0, SVG Export Plug-In . SVG Version: 6.00 Build 0)  -->
<!DOCTYPE svg PUBLIC "-//W3C//DTD SVG 1.1//EN" "http://www.w3.org/Graphics/SVG/1.1/DTD/svg11.dtd">
<svg version="1.1" id="Layer_1" xmlns="http://www.w3.org/2000/svg" xmlns:xlink="http://www.w3.org/1999/xlink" x="0px" y="0px"
	 width="25px" height="25px" viewBox="0 0 25 25" enable-background="new 0 0 25 25" xml:space="preserve">
<g>
	<path d="M11.7,8.6C11,7.8,9.9,7.6,9.3,8.2L8.8,8.7C8.6,8.9,8.4,9.2,8.4,9.6c0,0.5,0.3,1.1,0.7,1.5l11.1,11.7h-1.8
		c-0.3,0-0.5,0.2-0.5,0.5s0.2,0.5,0.5,0.5h4.9c0.3,0,0.5-0.2,0.5-0.5c0-0.2-0.1-0.4-0.3-0.4l0.6-0.6c0.2-0.2,0.3-0.5,0.3-0.8
		c0-0.5-0.3-1.1-0.7-1.6L11.7,8.6z M21.2,22.4l-11.4-12c-0.3-0.3-0.4-0.7-0.4-0.8c0-0.1,0-0.1,0-0.1L10,8.9c0,0,0.1,0,0.1,0
		c0.2,0,0.5,0.1,0.9,0.4l12,11.3c0.3,0.3,0.4,0.7,0.4,0.8c0,0.1,0,0.1,0,0.1l-1.2,1.2c0,0-0.1,0-0.1,0h0
		C21.9,22.8,21.6,22.7,21.2,22.4z"/>
	<path d="M12.5,2.8c-0.1-0.2-0.2-0.3-0.4-0.3L8.4,1.9c-0.2,0-0.3,0-0.4,0.1L1.6,8.4C1.5,8.5,1.5,8.6,1.5,8.7S1.5,9,1.6,9.1l2.2,2.2
		c0.1,0.1,0.2,0.1,0.4,0.1s0.3,0,0.4-0.1l7.9-7.9C12.5,3.2,12.5,3,12.5,2.8z M4.1,10.2L2.7,8.7l5.8-5.8L11,3.3L4.1,10.2z"/>
	<path d="M9.7,6.9C9.5,6.7,9.2,6.7,9,6.9L7.5,8.4c-0.2,0.2-0.2,0.5,0,0.7c0.1,0.1,0.2,0.1,0.4,0.1s0.3,0,0.4-0.1l1.5-1.5
		C9.9,7.4,9.9,7.1,9.7,6.9z"/>
	<path d="M6.8,18.2c-0.2,0-0.3,0.1-0.4,0.2c-0.3,0.1-1.1,0.3-2.5,0.3c-1.3,0-2.2-0.2-2.5-0.3c-0.1-0.1-0.2-0.2-0.4-0.2
		c-0.3,0-0.5,0.2-0.5,0.5c0,0.3,0,1,3.4,1c3.4,0,3.4-0.8,3.4-1C7.3,18.5,7.1,18.2,6.8,18.2z"/>
	<path d="M5,20.1H2.9c-0.3,0-0.5,0.2-0.5,0.5s0.2,0.5,0.5,0.5H5c0.3,0,0.5-0.2,0.5-0.5S5.3,20.1,5,20.1z"/>
	<path d="M5,21.4H2.9c-0.3,0-0.5,0.2-0.5,0.5s0.2,0.5,0.5,0.5H5c0.3,0,0.5-0.2,0.5-0.5S5.3,21.4,5,21.4z"/>
	<path d="M5,22.8H2.9c-0.3,0-0.5,0.2-0.5,0.5s0.2,0.5,0.5,0.5H5c0.3,0,0.5-0.2,0.5-0.5S5.3,22.8,5,22.8z"/>
	<path d="M5.9,10.9v4.8c0,0.3,0.2,0.5,0.5,0.5s0.5-0.2,0.5-0.5v-4.8c0-0.3-0.2-0.5-0.5-0.5S5.9,10.6,5.9,10.9z"/>
	<path d="M2.2,6.5V1.7c0-0.3-0.2-0.5-0.5-0.5S1.2,1.4,1.2,1.7v4.8C1.2,6.8,1.5,7,1.7,7S2.2,6.8,2.2,6.5z"/>
	<path d="M4,5.2V2.5C4,2.2,3.7,2,3.5,2S3,2.2,3,2.5v2.7c0,0.3,0.2,0.5,0.5,0.5S4,5.4,4,5.2z"/>
</g>
</svg>
