<?xml version="1.0" encoding="utf-8"?>
<!-- Generator: Adobe Illustrator 16.0.0, SVG Export Plug-In . SVG Version: 6.00 Build 0)  -->
<!DOCTYPE svg PUBLIC "-//W3C//DTD SVG 1.1//EN" "http://www.w3.org/Graphics/SVG/1.1/DTD/svg11.dtd">
<svg version="1.1" id="Layer_1" xmlns="http://www.w3.org/2000/svg" xmlns:xlink="http://www.w3.org/1999/xlink" x="0px" y="0px"
	 width="24px" height="24px" viewBox="0 0 24 24" enable-background="new 0 0 24 24" xml:space="preserve">
<g>
	<path d="M14.3,15.6c0-0.2-0.1-0.4-0.2-0.5c-0.1-0.1-0.3-0.2-0.6-0.2c-0.4,0-0.8,0.3-0.8,0.8c0,0.4,0.3,0.8,0.8,0.8
		C14,16.3,14.3,16,14.3,15.6z"/>
	<path d="M12.5,15.5c0-0.4-0.4-0.7-0.8-0.7c-0.2,0-0.4,0.1-0.5,0.2C11,15.2,11,15.4,11,15.5c0,0.4,0.3,0.8,0.8,0.8
		C12.1,16.3,12.5,16,12.5,15.5z"/>
	<circle cx="9.9" cy="15.5" r="0.8"/>
	<path d="M6.7,17.5c1.1,0,2-0.9,2-2c0-1.1-0.9-2-2-2c-1.1,0-2,0.9-2,2C4.6,16.6,5.5,17.5,6.7,17.5z M6.7,14.4c0.6,0,1,0.5,1,1
		c0,0.6-0.5,1-1,1c-0.6,0-1-0.5-1-1C5.6,14.9,6.1,14.4,6.7,14.4z"/>
	<path d="M22.6,11.7h-0.5c-0.3,0-0.5,0.2-0.5,0.5s0.2,0.5,0.5,0.5v1h-1c-0.1,0-0.2,0-0.3,0.1l-1.2-4.7c-0.1-0.2-0.3-0.4-0.5-0.4h0
		l0-4.4c0,0,0.1-0.2,0.2-0.2c0.2-0.3,0.4-0.6,0.4-1c0-1.3-1.3-2.3-2.9-2.3c-0.3,0-0.5,0.2-0.5,0.5c0,0,0,0,0,0.1
		c-0.6-0.7-1.6-1.1-2.8-1.1c-0.9,0-1.7,0.2-2.3,0.7c-0.6-0.4-1.5-0.7-2.3-0.7c-2,0-3.6,1.2-3.6,2.8c0,0.1,0,0.2,0,0.2
		c0,0.4-0.1,1.1,0.8,1.6v5.8c-0.3,0-0.5,0.2-0.5,0.5s0.2,0.5,0.5,0.5h0.5h9h1.5v1c0,0.3,0.2,0.5,0.5,0.5s0.5-0.2,0.5-0.5v-1.5
		c0-0.3-0.2-0.5-0.5-0.5h-1.5V4.9C17,4.4,17,3.7,17,3.2l0-0.1c0-0.5-0.2-0.9-0.4-1.3c0.1,0,0.1,0,0.2,0c1,0,1.9,0.6,1.9,1.3
		c0,0.1-0.1,0.3-0.2,0.4c-0.2,0.2-0.3,0.5-0.3,0.8v4.4h-1c-0.3,0-0.5,0.2-0.5,0.5s0.2,0.5,0.5,0.5h1.6l2.7,11H2l2.7-11h0.4
		c0.3,0,0.5-0.2,0.5-0.5S5.4,8.7,5.1,8.7H4.3c-0.2,0-0.4,0.2-0.5,0.4l-2.9,12c0,0.1,0,0.3,0.1,0.4c0.1,0.1,0.2,0.2,0.4,0.2h4.7v1h-2
		c-0.3,0-0.5,0.2-0.5,0.5s0.2,0.5,0.5,0.5h2.5c0.3,0,0.5-0.2,0.5-0.5v-1.5h12v1h-2c-0.3,0-0.5,0.2-0.5,0.5s0.2,0.5,0.5,0.5h2.5
		c0.3,0,0.5-0.2,0.5-0.5v-1.5h2c0.2,0,0.3-0.1,0.4-0.2c0.1-0.1,0.1-0.3,0.1-0.4L21,14.7c0,0,0.1,0,0.1,0h1v1c0,0.3,0.2,0.5,0.5,0.5
		s0.5-0.2,0.5-0.5v-3.5C23.1,12,22.9,11.7,22.6,11.7z M7.1,10.7V4.6c0-0.2-0.1-0.4-0.3-0.5C6.3,3.9,6.3,3.8,6.3,3.4
		c0-0.1,0-0.2,0-0.3c0-1,1.1-1.8,2.6-1.8c0.8,0,1.5,0.2,2,0.7c0.2,0.2,0.5,0.2,0.7,0c0.5-0.5,1.2-0.7,2-0.7c1.4,0,2.5,0.8,2.5,1.8
		l0,0.1c0,0.5,0,0.6-0.6,0.9c-0.2,0.1-0.3,0.3-0.3,0.5v6.1H7.1z"/>
</g>
</svg>
