<?xml version="1.0" encoding="utf-8"?>
<!-- Generator: Adobe Illustrator 16.0.0, SVG Export Plug-In . SVG Version: 6.00 Build 0)  -->
<!DOCTYPE svg PUBLIC "-//W3C//DTD SVG 1.1//EN" "http://www.w3.org/Graphics/SVG/1.1/DTD/svg11.dtd">
<svg version="1.1" id="Layer_1" xmlns="http://www.w3.org/2000/svg" xmlns:xlink="http://www.w3.org/1999/xlink" x="0px" y="0px"
	 width="32px" height="32px" viewBox="0 0 32 32" enable-background="new 0 0 32 32" xml:space="preserve">
<g>
	<g>
		<rect x="3.5" y="1" fill="#FFFFFF" width="25" height="30"/>
		<path fill="#37474F" d="M28.5,31.5h-25C3.2,31.5,3,31.3,3,31V1c0-0.3,0.2-0.5,0.5-0.5h25C28.8,0.5,29,0.7,29,1v30
			C29,31.3,28.8,31.5,28.5,31.5z M4,30.5h24v-29H4V30.5z"/>
	</g>
	<g>
		<rect x="3.5" y="10" fill="#FFAB00" width="25" height="17"/>
		<path fill="#37474F" d="M28.5,27.5h-25C3.2,27.5,3,27.3,3,27V10c0-0.3,0.2-0.5,0.5-0.5h25c0.3,0,0.5,0.2,0.5,0.5v17
			C29,27.3,28.8,27.5,28.5,27.5z M4,26.5h24v-16H4V26.5z"/>
	</g>
	<g>
		<rect x="3.5" y="12" fill="#FFECB3" width="25" height="12"/>
		<path fill="#37474F" d="M28.5,24.5h-25C3.2,24.5,3,24.3,3,24V12c0-0.3,0.2-0.5,0.5-0.5h25c0.3,0,0.5,0.2,0.5,0.5v12
			C29,24.3,28.8,24.5,28.5,24.5z M4,23.5h24v-11H4V23.5z"/>
	</g>
	<g>
		<path fill="#37474F" d="M26.5,25.6c0,1.8-1.7,3.4-3.4,3.4H9.2c-1.8,0-2.8-1.7-2.8-3.4V11.7C6.5,10,7.5,9,9.2,9h13.8
			c1.8,0,3.4,1,3.4,2.7V25.6z"/>
		<path fill="#37474F" d="M23.1,29.5H9.2c-2.1,0-3.2-2-3.2-3.9V11.7c0-2,1.2-3.2,3.2-3.2h13.8c2,0,3.9,1.1,3.9,3.2v13.8
			C27,27.6,25.1,29.5,23.1,29.5z M9.2,9.5C7.8,9.5,7,10.3,7,11.7v13.8c0,1.5,0.8,2.9,2.2,2.9h13.8c1.5,0,2.9-1.5,2.9-2.9V11.7
			c0-1.5-1.5-2.2-2.9-2.2H9.2z"/>
	</g>
	<g>
		<g>
			<path fill="#FFFFFF" d="M15.5,14.4c0,1.6-1.3,2.9-2.9,2.9c-1.6,0-2.9-1.3-2.9-2.9c0-1.6,1.3-2.9,2.9-2.9
				C14.2,11.5,15.5,12.8,15.5,14.4z"/>
			<path fill="#37474F" d="M12.6,17.7c-1.9,0-3.4-1.5-3.4-3.4c0-1.9,1.5-3.4,3.4-3.4c1.9,0,3.4,1.5,3.4,3.4
				C16,16.2,14.5,17.7,12.6,17.7z M12.6,12c-1.3,0-2.4,1.1-2.4,2.4c0,1.3,1.1,2.4,2.4,2.4c1.3,0,2.4-1.1,2.4-2.4
				C15,13,13.9,12,12.6,12z"/>
		</g>
	</g>
	<g>
		<g>
			<path fill="#B0BEC5" d="M18,16.4c0,2.9-2.4,5.3-5.3,5.3c-2.9,0-5.3-2.4-5.3-5.3c0-2.9,2.4-5.3,5.3-5.3C15.6,11.1,18,13.5,18,16.4
				z"/>
			<path fill="#37474F" d="M12.6,22.2c-3.2,0-5.8-2.6-5.8-5.8c0-3.2,2.6-5.8,5.8-5.8c3.2,0,5.8,2.6,5.8,5.8
				C18.5,19.6,15.8,22.2,12.6,22.2z M12.6,11.6c-2.7,0-4.8,2.2-4.8,4.8c0,2.7,2.2,4.8,4.8,4.8c2.7,0,4.8-2.2,4.8-4.8
				C17.5,13.7,15.3,11.6,12.6,11.6z"/>
		</g>
		<g>
			<path fill="#FFFFFF" d="M15.5,16.4c0,1.6-1.3,2.9-2.9,2.9c-1.6,0-2.9-1.3-2.9-2.9s1.3-2.9,2.9-2.9C14.2,13.5,15.5,14.8,15.5,16.4
				z"/>
			<path fill="#37474F" d="M12.6,19.8c-1.9,0-3.4-1.5-3.4-3.4c0-1.9,1.5-3.4,3.4-3.4c1.9,0,3.4,1.5,3.4,3.4
				C16,18.3,14.5,19.8,12.6,19.8z M12.6,14c-1.3,0-2.4,1.1-2.4,2.4c0,1.3,1.1,2.4,2.4,2.4c1.3,0,2.4-1.1,2.4-2.4
				C15,15.1,13.9,14,12.6,14z"/>
		</g>
	</g>
	<g>
		<g>
			<path fill="#FFFFFF" d="M15.5,18.4c0,1.6-1.3,2.9-2.9,2.9c-1.6,0-2.9-1.3-2.9-2.9c0-1.6,1.3-2.9,2.9-2.9
				C14.2,15.6,15.5,16.9,15.5,18.4z"/>
			<path fill="#37474F" d="M12.6,21.8c-1.9,0-3.4-1.5-3.4-3.4c0-1.9,1.5-3.4,3.4-3.4c1.9,0,3.4,1.5,3.4,3.4
				C16,20.3,14.5,21.8,12.6,21.8z M12.6,16.1c-1.3,0-2.4,1.1-2.4,2.4c0,1.3,1.1,2.4,2.4,2.4c1.3,0,2.4-1.1,2.4-2.4
				C15,17.1,13.9,16.1,12.6,16.1z"/>
		</g>
	</g>
	<g>
		<g>
			<circle fill="#FFFFFF" cx="12.6" cy="20.6" r="5.3"/>
			<path fill="#37474F" d="M12.6,26.4c-3.2,0-5.8-2.6-5.8-5.8c0-3.2,2.6-5.8,5.8-5.8c3.2,0,5.8,2.6,5.8,5.8
				C18.5,23.8,15.8,26.4,12.6,26.4z M12.6,15.8c-2.7,0-4.8,2.2-4.8,4.8c0,2.7,2.2,4.8,4.8,4.8c2.7,0,4.8-2.2,4.8-4.8
				C17.5,17.9,15.3,15.8,12.6,15.8z"/>
		</g>
		<g>
			<path fill="#FFFFFF" d="M15.5,20.6c0,1.6-1.3,2.9-2.9,2.9c-1.6,0-2.9-1.3-2.9-2.9c0-1.6,1.3-2.9,2.9-2.9
				C14.2,17.7,15.5,19,15.5,20.6z"/>
			<path fill="#37474F" d="M12.6,24c-1.9,0-3.4-1.5-3.4-3.4c0-1.9,1.5-3.4,3.4-3.4c1.9,0,3.4,1.5,3.4,3.4C16,22.4,14.5,24,12.6,24z
				 M12.6,18.2c-1.3,0-2.4,1.1-2.4,2.4c0,1.3,1.1,2.4,2.4,2.4c1.3,0,2.4-1.1,2.4-2.4C15,19.3,13.9,18.2,12.6,18.2z"/>
		</g>
	</g>
	<g>
		<g>
			<g>
				<path fill="#37474F" d="M25.5,5.9c0-0.2,0.2-0.4,0.4-0.4c0.2,0,0.4,0.2,0.4,0.4c0,0.2-0.2,0.4-0.4,0.4
					C25.7,6.2,25.5,6.1,25.5,5.9z"/>
				<path fill="#37474F" d="M25.9,6.7c-0.5,0-0.9-0.4-0.9-0.9C25,5.4,25.4,5,25.9,5c0.2,0,0.5,0.1,0.6,0.3c0.2,0.2,0.3,0.4,0.2,0.6
					C26.8,6.3,26.4,6.7,25.9,6.7L25.9,6.7z"/>
			</g>
			<g>
				<path fill="#37474F" d="M23,5.9c0-0.2,0.2-0.4,0.4-0.4c0.2,0,0.4,0.2,0.4,0.4c0,0.2-0.2,0.4-0.4,0.4C23.1,6.2,23,6.1,23,5.9z"/>
				<path fill="#37474F" d="M23.3,6.7L23.3,6.7c-0.5,0-0.9-0.4-0.9-0.9c0-0.2,0.1-0.4,0.2-0.6C22.9,5.1,23.1,5,23.3,5
					c0.5,0,0.9,0.4,0.9,0.9C24.2,6.4,23.8,6.7,23.3,6.7z"/>
			</g>
			<g>
				<path fill="#37474F" d="M20.4,5.9c0-0.2,0.2-0.4,0.4-0.4c0.2,0,0.4,0.2,0.4,0.4c0,0.2-0.2,0.4-0.4,0.4
					C20.6,6.2,20.4,6.1,20.4,5.9z"/>
				<path fill="#37474F" d="M20.8,6.7L20.8,6.7L20.8,6.7c-0.5,0-0.9-0.4-0.9-0.9c0-0.5,0.4-0.9,0.9-0.9s0.9,0.4,0.9,0.9
					C21.7,6.3,21.3,6.7,20.8,6.7z M20.8,6l0,0.2L20.8,6c0.1,0,0.1-0.1,0.1-0.1c0-0.1,0-0.1-0.1-0.1v0c0,0,0,0,0,0v0
					c-0.1,0-0.1,0.1-0.1,0.1C20.7,5.9,20.7,6,20.8,6z"/>
			</g>
		</g>
		<g>
			<g>
				<path fill="#37474F" d="M25.5,3.6c0-0.2,0.2-0.4,0.4-0.4c0.2,0,0.4,0.2,0.4,0.4c0,0.2-0.2,0.4-0.4,0.4C25.7,4,25.5,3.8,25.5,3.6
					z"/>
				<path fill="#37474F" d="M25.9,4.5c-0.5,0-0.9-0.4-0.9-0.9c0-0.5,0.4-0.9,0.9-0.9c0.2,0,0.5,0.1,0.6,0.3c0.2,0.2,0.3,0.4,0.2,0.6
					C26.8,4.1,26.4,4.5,25.9,4.5L25.9,4.5z"/>
			</g>
			<g>
				<path fill="#37474F" d="M23,3.6c0-0.2,0.2-0.4,0.4-0.4c0.2,0,0.4,0.2,0.4,0.4c0,0.2-0.2,0.4-0.4,0.4C23.1,4,23,3.8,23,3.6z"/>
				<path fill="#37474F" d="M23.3,4.5L23.3,4.5c-0.5,0-0.9-0.4-0.9-0.9c0-0.2,0.1-0.4,0.2-0.6c0.2-0.2,0.4-0.3,0.6-0.3
					c0.5,0,0.9,0.4,0.9,0.9C24.2,4.1,23.8,4.5,23.3,4.5z"/>
			</g>
			<g>
				<path fill="#37474F" d="M20.4,3.6c0-0.2,0.2-0.4,0.4-0.4c0.2,0,0.4,0.2,0.4,0.4C21.2,3.8,21,4,20.8,4C20.6,4,20.4,3.8,20.4,3.6z
					"/>
				<path fill="#37474F" d="M20.8,4.5L20.8,4.5C20.8,4.5,20.8,4.5,20.8,4.5c-0.5,0-0.9-0.4-0.9-0.9c0-0.5,0.4-0.9,0.9-0.9
					s0.9,0.4,0.9,0.9C21.7,4.1,21.3,4.5,20.8,4.5z M20.8,3.7l0,0.2L20.8,3.7c0.1,0,0.1-0.1,0.1-0.1c0-0.1-0.1-0.1-0.1-0.1v0
					c0,0,0,0,0,0l0,0c-0.1,0-0.1,0.1-0.1,0.1C20.7,3.7,20.7,3.7,20.8,3.7z"/>
			</g>
		</g>
	</g>
	<g>
		<g>
			<g>
				<g>
					<path fill="#FFFFFF" stroke="#37474F" stroke-linecap="round" stroke-linejoin="round" stroke-miterlimit="10" d="M21.2,16.4"
						/>
				</g>
				<g>
					<path fill="#FFFFFF" stroke="#37474F" stroke-linecap="round" stroke-linejoin="round" stroke-miterlimit="10" d="M20.7,11.9"
						/>
				</g>
			</g>
			<g>
				<g>
					<path fill="#FFFFFF" stroke="#37474F" stroke-linecap="round" stroke-linejoin="round" stroke-miterlimit="10" d="M22.5,16.4"
						/>
				</g>
				<g>
					<path fill="#FFFFFF" stroke="#37474F" stroke-linecap="round" stroke-linejoin="round" stroke-miterlimit="10" d="M23.3,11.9"
						/>
				</g>
				<g>
					<path fill="#FFFFFF" stroke="#37474F" stroke-linecap="round" stroke-linejoin="round" stroke-miterlimit="10" d="M21.8,16.4"
						/>
				</g>
				<g>
					<path fill="#FFFFFF" stroke="#37474F" stroke-linecap="round" stroke-linejoin="round" stroke-miterlimit="10" d="M22.3,11.9"
						/>
				</g>
			</g>
		</g>
	</g>
	<g>
		<g>
			<path fill="#B0BEC5" d="M24.1,14h-5.2l1,4h0.1C20,18,20,18.2,20,18.3c0,0.1,0.7,0.3,1.5,0.3c0.8,0,1.5-0.2,1.5-0.4
				c0,0,0-0.2-0.1-0.2h0.1L24.1,14z"/>
			<path fill="#37474F" d="M21.5,19.1c-0.8,0-2-0.1-2-0.8c0,0,0,0,0-0.1c0,0,0,0,0-0.1l-1-4c0-0.1,0-0.3,0.1-0.4
				c0.1-0.1,0.2-0.2,0.4-0.2h5.2c0.2,0,0.3,0.1,0.4,0.2s0.1,0.3,0.1,0.4l-1,4c0,0,0,0,0,0.1c0,0,0,0,0,0
				C23.5,19,21.7,19.1,21.5,19.1z M20.6,18c0.4,0.1,1.4,0.1,1.9,0c0-0.2,0.1-0.3,0.2-0.4l0.8-3.1h-3.9l0.8,3.1
				C20.5,17.7,20.6,17.8,20.6,18z"/>
		</g>
		<g>
			<path fill="#FFFFFF" d="M23.9,13.2c0,0.1-1.1,0.2-2.4,0.2c-1.3,0-2.4-0.1-2.4-0.2c0-0.1,1.1-0.2,2.4-0.2
				C22.8,13,23.9,13.1,23.9,13.2z"/>
		</g>
		<g>
			<g>
				<g>
					<path fill="#FFFFFF" stroke="#37474F" stroke-linecap="round" stroke-linejoin="round" stroke-miterlimit="10" d="M21.2,18.6"
						/>
				</g>
				<g>
					<path fill="#FFFFFF" stroke="#37474F" stroke-linecap="round" stroke-linejoin="round" stroke-miterlimit="10" d="M20.7,14"/>
				</g>
			</g>
			<g>
				<g>
					<path fill="#FFFFFF" stroke="#37474F" stroke-linecap="round" stroke-linejoin="round" stroke-miterlimit="10" d="M22.5,18.5"
						/>
				</g>
				<g>
					<path fill="#FFFFFF" stroke="#37474F" stroke-linecap="round" stroke-linejoin="round" stroke-miterlimit="10" d="M23.3,14"/>
				</g>
				<g>
					<path fill="#FFFFFF" stroke="#37474F" stroke-linecap="round" stroke-linejoin="round" stroke-miterlimit="10" d="M21.8,18.6"
						/>
				</g>
				<g>
					<path fill="#FFFFFF" stroke="#37474F" stroke-linecap="round" stroke-linejoin="round" stroke-miterlimit="10" d="M22.3,14"/>
				</g>
			</g>
		</g>
	</g>
	<g>
		<g>
			<g>
				<g>
					<path fill="#FFFFFF" stroke="#37474F" stroke-linecap="round" stroke-linejoin="round" stroke-miterlimit="10" d="M21.2,20.9"
						/>
				</g>
				<g>
					<path fill="#FFFFFF" stroke="#37474F" stroke-linecap="round" stroke-linejoin="round" stroke-miterlimit="10" d="M20.7,16.3"
						/>
				</g>
			</g>
			<g>
				<g>
					<path fill="#FFFFFF" stroke="#37474F" stroke-linecap="round" stroke-linejoin="round" stroke-miterlimit="10" d="M22.5,20.9"
						/>
				</g>
				<g>
					<path fill="#FFFFFF" stroke="#37474F" stroke-linecap="round" stroke-linejoin="round" stroke-miterlimit="10" d="M23.3,16.3"
						/>
				</g>
				<g>
					<path fill="#FFFFFF" stroke="#37474F" stroke-linecap="round" stroke-linejoin="round" stroke-miterlimit="10" d="M21.8,20.9"
						/>
				</g>
				<g>
					<path fill="#FFFFFF" stroke="#37474F" stroke-linecap="round" stroke-linejoin="round" stroke-miterlimit="10" d="M22.3,16.3"
						/>
				</g>
			</g>
		</g>
	</g>
	<g>
		<g>
			<path fill="#FFFFFF" d="M24.1,19h-5.2l1,4h0.1C20,23,20,23.2,20,23.2c0,0.1,0.7,0.3,1.5,0.3c0.8,0,1.5-0.2,1.5-0.3
				c0,0,0-0.2-0.1-0.2h0.1L24.1,19z"/>
			<path fill="#37474F" d="M21.5,24c-2,0-2-0.6-2-0.8c0,0,0,0,0,0c0,0,0,0,0-0.1l-1-4c0-0.1,0-0.3,0.1-0.4c0.1-0.1,0.2-0.2,0.4-0.2
				h5.2c0.2,0,0.3,0.1,0.4,0.2s0.1,0.3,0.1,0.4l-1,4c0,0,0,0,0,0.1C23.5,23.8,22.4,24,21.5,24z M20.5,22.9c0.5,0.1,1.5,0.1,1.9,0
				c0-0.1,0.1-0.2,0.2-0.3l0.8-3.1h-3.9l0.8,3.1C20.4,22.6,20.5,22.8,20.5,22.9z"/>
		</g>
		<g>
			<path fill="#FFFFFF" d="M23.9,18.1c0,0.1-1.1,0.2-2.4,0.2c-1.3,0-2.4-0.1-2.4-0.2c0-0.1,1.1-0.2,2.4-0.2
				C22.8,17.9,23.9,18,23.9,18.1z"/>
		</g>
		<g>
			<g>
				<g>
					<path fill="#FFFFFF" stroke="#37474F" stroke-linecap="round" stroke-linejoin="round" stroke-miterlimit="10" d="M21.2,23.4"
						/>
				</g>
				<g>
					<path fill="#FFFFFF" stroke="#37474F" stroke-linecap="round" stroke-linejoin="round" stroke-miterlimit="10" d="M20.7,18.8"
						/>
				</g>
			</g>
			<g>
				<g>
					<path fill="#FFFFFF" stroke="#37474F" stroke-linecap="round" stroke-linejoin="round" stroke-miterlimit="10" d="M22.5,23.4"
						/>
				</g>
				<g>
					<path fill="#FFFFFF" stroke="#37474F" stroke-linecap="round" stroke-linejoin="round" stroke-miterlimit="10" d="M23.3,18.8"
						/>
				</g>
				<g>
					<path fill="#FFFFFF" stroke="#37474F" stroke-linecap="round" stroke-linejoin="round" stroke-miterlimit="10" d="M21.8,23.4"
						/>
				</g>
				<g>
					<path fill="#FFFFFF" stroke="#37474F" stroke-linecap="round" stroke-linejoin="round" stroke-miterlimit="10" d="M22.3,18.8"
						/>
				</g>
			</g>
		</g>
	</g>
	<g>
		<g>
			<rect x="7.5" y="24" fill="#B0BEC5" width="18" height="3"/>
			<path fill="#37474F" d="M25.5,27.5h-18C7.2,27.5,7,27.3,7,27v-3c0-0.3,0.2-0.5,0.5-0.5h18c0.3,0,0.5,0.2,0.5,0.5v3
				C26,27.3,25.8,27.5,25.5,27.5z M8,26.5h17v-2H8V26.5z"/>
		</g>
	</g>
	<g>
		<path fill="#37474F" d="M18,5.5h-8C9.7,5.5,9.5,5.3,9.5,5S9.7,4.5,10,4.5h8c0.3,0,0.5,0.2,0.5,0.5S18.3,5.5,18,5.5z"/>
	</g>
	<g>
		<g>
			<path fill="#FFAB00" d="M10.1,4.9c0,1.1-0.9,2-2,2c-1.1,0-2-0.9-2-2c0-1.1,0.9-2,2-2C9.2,2.9,10.1,3.8,10.1,4.9z"/>
			<path fill="#37474F" d="M8.1,7.5c-1.4,0-2.5-1.1-2.5-2.5c0-1.4,1.1-2.5,2.5-2.5c1.4,0,2.5,1.1,2.5,2.5C10.6,6.3,9.5,7.5,8.1,7.5z
				 M8.1,3.4c-0.8,0-1.5,0.7-1.5,1.5c0,0.8,0.7,1.5,1.5,1.5c0.8,0,1.5-0.7,1.5-1.5C9.6,4.1,8.9,3.4,8.1,3.4z"/>
		</g>
	</g>
</g>
</svg>
