<?xml version="1.0" encoding="utf-8"?>
<!-- Generator: Adobe Illustrator 16.0.0, SVG Export Plug-In . SVG Version: 6.00 Build 0)  -->
<!DOCTYPE svg PUBLIC "-//W3C//DTD SVG 1.1//EN" "http://www.w3.org/Graphics/SVG/1.1/DTD/svg11.dtd">
<svg version="1.1" id="Layer_1" xmlns="http://www.w3.org/2000/svg" xmlns:xlink="http://www.w3.org/1999/xlink" x="0px" y="0px"
	 width="25px" height="25px" viewBox="0 0 25 25" enable-background="new 0 0 25 25" xml:space="preserve">
<g>
	<path d="M6.8,3.3c0.3,0,0.5-0.2,0.5-0.5c0-0.8,0.6-1.4,1.4-1.4c0.3,0,0.5-0.2,0.5-0.5S9,0.4,8.7,0.4c-1.3,0-2.4,1.1-2.4,2.4
		C6.3,3.1,6.5,3.3,6.8,3.3z"/>
	<path d="M17.8,5.8c0,0.3,0.2,0.5,0.5,0.5c1.3,0,2.4-1.1,2.4-2.4c0-0.3-0.2-0.5-0.5-0.5s-0.5,0.2-0.5,0.5c0,0.8-0.6,1.4-1.4,1.4
		C18.1,5.3,17.8,5.6,17.8,5.8z"/>
	<path d="M21.3,9.6c0.1-0.1,0.1-0.2,0.1-0.3c0-0.3-0.2-0.5-0.5-0.5h-4c-0.7-1-1.7-1.6-3-1.8V5.1h2.7c1,0,1.7-0.8,1.7-1.7
		s-0.8-1.7-1.7-1.7h-6.4c-1,0-1.7,0.8-1.7,1.7s0.8,1.7,1.7,1.7H13v1.8c-1.2,0.1-2.3,0.8-3,1.8c0,0,0,0.1-0.1,0.1H6.3
		C5,8.9,4,10,4,11.2v1.3c-0.4,0.2-0.7,0.7-0.7,1.2c0,0.8,0.6,1.4,1.4,1.4h3.8c0.8,0,1.4-0.6,1.4-1.4c0-0.2,0-0.3-0.1-0.5H10
		c0,0.1,0,0.2,0.1,0.2c0.8,1.1,2.1,1.8,3.4,1.8c1.4,0,2.7-0.7,3.5-1.8h4c0.3,0,0.5-0.2,0.5-0.5c0-0.1-0.1-0.3-0.1-0.3
		C21.8,11.6,21.8,10.5,21.3,9.6z M9.6,3.4c0-0.4,0.3-0.7,0.7-0.7h6.4c0.4,0,0.7,0.3,0.7,0.7s-0.3,0.7-0.7,0.7h-6.4
		C9.9,4.1,9.6,3.8,9.6,3.4z M19.3,12.4c0.2-0.4,0.3-0.9,0.3-1.3s-0.1-0.9-0.3-1.3h0.9c0.7,0.8,0.7,1.9,0,2.7H19.3z M6.3,9.9h4.3
		c0.7,0,1.3,0.6,1.3,1.3v1h-3c-0.1,0-0.2,0-0.3,0.1c0,0-0.1,0-0.1,0H5v-1.1C5,10.5,5.6,9.9,6.3,9.9z M8.4,14.1H4.7
		c-0.2,0-0.4-0.2-0.4-0.4s0.2-0.4,0.4-0.4h3.8c0.2,0,0.4,0.2,0.4,0.4S8.6,14.1,8.4,14.1z M13.5,14.2c-0.9,0-1.7-0.4-2.3-1h1
		c0,0,0.1,0,0.1,0c0.1,0,0.3,0,0.4-0.1c0.1-0.1,0.2-0.2,0.2-0.4v-1.5c0-1.1-0.8-2-1.8-2.3c0.6-0.7,1.4-1.1,2.4-1.1
		c1.2,0,2.2,0.7,2.8,1.7c0.1,0.2,0.2,0.4,0.2,0.6c0,0.1,0,0.1,0.1,0.2c0.1,0.2,0.1,0.5,0.1,0.8s0,0.5-0.1,0.8c0,0.1,0,0.1-0.1,0.2
		c-0.1,0.2-0.1,0.4-0.2,0.6C15.8,13.5,14.7,14.2,13.5,14.2z M17.5,12.1c0-0.1,0.1-0.2,0.1-0.3c0-0.2,0.1-0.5,0.1-0.8s0-0.5-0.1-0.8
		c0-0.1,0-0.2-0.1-0.3c0-0.1,0-0.2-0.1-0.3h0.6c0.3,0.4,0.5,0.8,0.5,1.3s-0.2,1-0.5,1.3h-0.6C17.5,12.3,17.5,12.2,17.5,12.1z"/>
	<path d="M9.2,20.6l-2.1-5c-0.2-0.4-0.8-0.4-0.9,0l-2.1,5c0,0,0,0.1,0,0.1c-0.1,0.3-0.2,0.7-0.2,1.1c0,1.6,1.3,2.8,2.8,2.8
		c1.6,0,2.8-1.3,2.8-2.8C9.4,21.4,9.3,21.1,9.2,20.6C9.2,20.7,9.2,20.7,9.2,20.6z M6.6,23.6c-1,0-1.8-0.8-1.8-1.8
		c0-0.3,0.1-0.5,0.2-0.8c0,0,0-0.1,0-0.1l1.6-3.9l1.6,3.9c0,0,0,0.1,0,0.1c0.1,0.2,0.2,0.5,0.2,0.8C8.4,22.8,7.6,23.6,6.6,23.6z"/>
</g>
</svg>
