<?xml version="1.0" encoding="utf-8"?>
<!-- Generator: Adobe Illustrator 16.0.0, SVG Export Plug-In . SVG Version: 6.00 Build 0)  -->
<!DOCTYPE svg PUBLIC "-//W3C//DTD SVG 1.1//EN" "http://www.w3.org/Graphics/SVG/1.1/DTD/svg11.dtd">
<svg version="1.1" id="Layer_1" xmlns="http://www.w3.org/2000/svg" xmlns:xlink="http://www.w3.org/1999/xlink" x="0px" y="0px"
	 width="128px" height="128px" viewBox="0 0 128 128" enable-background="new 0 0 128 128" xml:space="preserve">
<g>
	<g>
		<line fill="#FFFFFF" x1="19" y1="125" x2="19" y2="3"/>
		<path fill="#37474F" d="M19,127c-1.1,0-2-0.9-2-2V3c0-1.1,0.9-2,2-2s2,0.9,2,2v122C21,126.1,20.1,127,19,127z"/>
	</g>
	<g>
		<line fill="#FFFFFF" x1="125" y1="12" x2="3" y2="12"/>
		<path fill="#37474F" d="M125,14H3c-1.1,0-2-0.9-2-2s0.9-2,2-2h122c1.1,0,2,0.9,2,2S126.1,14,125,14z"/>
	</g>
	<g>
		<polyline fill="#FFECB3" points="111,35 123,35 123,82 32,82 32,35 44,35 		"/>
		<path fill="#37474F" d="M123,84H32c-1.1,0-2-0.9-2-2V35c0-1.1,0.9-2,2-2h12c1.1,0,2,0.9,2,2s-0.9,2-2,2H34v43h87V37h-10
			c-1.1,0-2-0.9-2-2s0.9-2,2-2h12c1.1,0,2,0.9,2,2v47C125,83.1,124.1,84,123,84z"/>
	</g>
	<g>
		<line fill="#FFECB3" x1="63" y1="35" x2="93" y2="35"/>
		<path fill="#37474F" d="M93,37H63c-1.1,0-2-0.9-2-2s0.9-2,2-2h30c1.1,0,2,0.9,2,2S94.1,37,93,37z"/>
	</g>
	<g>
		<g>
			<circle fill="#FFAB00" cx="53.3" cy="36.5" r="5.8"/>
			<path fill="#37474F" d="M53.3,44.2c-4.3,0-7.8-3.5-7.8-7.8c0-4.3,3.5-7.8,7.8-7.8c4.3,0,7.8,3.5,7.8,7.8
				C61.1,40.8,57.6,44.2,53.3,44.2z M53.3,32.7c-2.1,0-3.8,1.7-3.8,3.8c0,2.1,1.7,3.8,3.8,3.8c2.1,0,3.8-1.7,3.8-3.8
				C57.1,34.4,55.4,32.7,53.3,32.7z"/>
		</g>
		<g>
			<circle fill="#FFAB00" cx="102" cy="36.5" r="5.8"/>
			<path fill="#37474F" d="M102,44.2c-4.3,0-7.8-3.5-7.8-7.8c0-4.3,3.5-7.8,7.8-7.8c4.3,0,7.8,3.5,7.8,7.8
				C109.8,40.8,106.3,44.2,102,44.2z M102,32.7c-2.1,0-3.8,1.7-3.8,3.8c0,2.1,1.7,3.8,3.8,3.8c2.1,0,3.8-1.7,3.8-3.8
				C105.8,34.4,104.1,32.7,102,32.7z"/>
		</g>
	</g>
	<g>
		<line fill="#FFECB3" x1="53" y1="18" x2="53" y2="30"/>
		<path fill="#37474F" d="M53,32c-1.1,0-2-0.9-2-2V18c0-1.1,0.9-2,2-2s2,0.9,2,2v12C55,31.1,54.1,32,53,32z"/>
	</g>
	<g>
		<line fill="#FFECB3" x1="102" y1="18" x2="102" y2="30"/>
		<path fill="#37474F" d="M102,32c-1.1,0-2-0.9-2-2V18c0-1.1,0.9-2,2-2s2,0.9,2,2v12C104,31.1,103.1,32,102,32z"/>
	</g>
	<g>
		<g>
			<path fill="#37474F" d="M41.4,64.9c1.1,0.7,2.8,1.3,4.5,1.3c2.6,0,4.1-1.4,4.1-3.3c0-1.8-1-2.9-3.7-3.9c-3.2-1.1-5.2-2.8-5.2-5.5
				c0-3,2.5-5.3,6.3-5.3c2,0,3.4,0.5,4.3,1l-0.7,2.1c-0.6-0.3-1.9-0.9-3.7-0.9c-2.7,0-3.7,1.6-3.7,2.9c0,1.8,1.2,2.7,3.9,3.8
				c3.3,1.3,5,2.9,5,5.7c0,3-2.2,5.6-6.8,5.6c-1.9,0-3.9-0.6-5-1.2L41.4,64.9z"/>
			<path fill="#37474F" d="M45.8,70.3c-2.2,0-4.7-0.6-6.1-1.6l-1.2-0.8l1.8-6l2.2,1.4c1,0.6,2.3,1,3.5,1c0.9,0,2.1-0.2,2.1-1.3
				c0-0.5,0-1.1-2.4-2c-4.3-1.5-6.4-4-6.4-7.4c0-4.2,3.5-7.3,8.3-7.3c2,0,3.9,0.4,5.3,1.2l1.4,0.8l-2,5.9l-2.1-1.1
				c-0.5-0.3-1.4-0.7-2.7-0.7c-1,0-1.7,0.3-1.7,0.9c0,0.4,0,0.9,2.6,1.9c2.9,1.1,6.3,3,6.3,7.6C54.6,66.5,51.9,70.3,45.8,70.3z"/>
		</g>
		<g>
			<path fill="#37474F" d="M75.7,58c0,6.7-4.1,10.3-9.1,10.3c-5.2,0-8.8-4-8.8-9.9c0-6.2,3.8-10.2,9.1-10.2
				C72.2,48.2,75.7,52.3,75.7,58z M60.5,58.4c0,4.2,2.3,7.9,6.2,7.9c4,0,6.3-3.7,6.3-8.1c0-3.9-2-7.9-6.2-7.9
				C62.6,50.2,60.5,54.1,60.5,58.4z"/>
			<path fill="#37474F" d="M66.6,70.3c-6.3,0-10.8-4.9-10.8-11.9c0-7.1,4.6-12.2,11.1-12.2c6.3,0,10.8,4.9,10.8,11.9
				C77.7,66.5,72.1,70.3,66.6,70.3z M66.8,52.2c-3.1,0-4.2,3.3-4.2,6.1c0,2.8,1.3,5.9,4.2,5.9c2.9,0,4.3-3.1,4.3-6.1
				C71,56.1,70.1,52.2,66.8,52.2z"/>
		</g>
		<g>
			<path fill="#37474F" d="M81.9,48.5h2.5v17.4h8.3V68H81.9V48.5z"/>
			<polygon fill="#37474F" points="94.7,70 79.9,70 79.9,46.5 86.4,46.5 86.4,63.9 94.7,63.9 			"/>
		</g>
		<g>
			<path fill="#37474F" d="M98.5,48.8c1.5-0.2,3.4-0.4,5.4-0.4c3.6,0,6.2,0.8,7.9,2.4c1.7,1.6,2.7,3.8,2.7,7c0,3.2-1,5.8-2.8,7.6
				c-1.8,1.8-4.8,2.8-8.6,2.8c-1.8,0-3.3-0.1-4.6-0.2V48.8z M101,66c0.6,0.1,1.6,0.1,2.5,0.1c5.4,0,8.3-3,8.3-8.3
				c0-4.6-2.6-7.5-7.9-7.5c-1.3,0-2.3,0.1-3,0.3V66z"/>
			<path fill="#37474F" d="M103.1,70.2c-1.8,0-3.4-0.1-4.8-0.2l-1.8-0.2V47l1.7-0.3c1.9-0.3,3.8-0.4,5.7-0.4c4.1,0,7.1,1,9.3,3
				c2.2,2.1,3.4,4.9,3.4,8.5c0,3.7-1.2,6.8-3.4,9C110.9,69,107.4,70.2,103.1,70.2z M103,64.1c0.2,0,0.4,0,0.5,0
				c4.2,0,6.3-2.1,6.3-6.3c0-1.8-0.4-3.1-1.3-4.1c-1-1-2.5-1.5-4.6-1.5c-0.4,0-0.7,0-1,0V64.1z"/>
		</g>
	</g>
</g>
</svg>
