<?xml version="1.0" encoding="utf-8"?>
<!-- Generator: Adobe Illustrator 16.0.0, SVG Export Plug-In . SVG Version: 6.00 Build 0)  -->
<!DOCTYPE svg PUBLIC "-//W3C//DTD SVG 1.1//EN" "http://www.w3.org/Graphics/SVG/1.1/DTD/svg11.dtd">
<svg version="1.1" id="Layer_1" xmlns="http://www.w3.org/2000/svg" xmlns:xlink="http://www.w3.org/1999/xlink" x="0px" y="0px"
	 width="64px" height="64px" viewBox="0 0 64 64" enable-background="new 0 0 64 64" xml:space="preserve">
<g>
	<g>
		<path fill="#78909C" d="M60.5,55.5c0,3.7-3.3,6.5-7,6.5H10c-3.7,0-6.5-2.8-6.5-6.5V12c0-3.7,2.8-7,6.5-7h43.5c3.7,0,7,3.3,7,7
			V55.5z"/>
		<path fill="#37474F" d="M53.5,63H10c-4.3,0-7.5-3.2-7.5-7.5V12c0-4.4,3.4-8,7.5-8h43.5c4.3,0,8,3.7,8,8v43.5
			C61.5,59.6,57.9,63,53.5,63z M10,6c-3,0-5.5,2.7-5.5,6v43.5c0,3.1,2.4,5.5,5.5,5.5h43.5c3.3,0,6-2.5,6-5.5V12c0-3.1-2.9-6-6-6H10z
			"/>
	</g>
	<g>
		<path fill="#FFAB00" d="M60.5,52.2c0,3.7-3.3,6.8-7,6.8H10c-3.7,0-6.5-3.1-6.5-6.8V8.6C3.5,4.9,6.3,2,10,2h43.5c3.7,0,7,2.9,7,6.6
			V52.2z"/>
		<path fill="#37474F" d="M53.5,60H10c-4.1,0-7.5-3.5-7.5-7.8V8.6C2.5,4.4,5.8,1,10,1h43.5c4.3,0,8,3.5,8,7.6v43.5
			C61.5,56.4,57.8,60,53.5,60z M10,3C6.9,3,4.5,5.4,4.5,8.6v43.5c0,3.3,2.4,5.8,5.5,5.8h43.5c3.2,0,6-2.7,6-5.8V8.6
			c0-3.1-2.7-5.6-6-5.6H10z"/>
	</g>
	<g>
		<g>
			<path fill="#FFFFFF" d="M49.9,30c0.1-1,0.3-1.6,0.3-2.5c0-10.2-8.3-18.4-18.4-18.4c-10.2,0-18.4,8.2-18.4,18.4
				c0,0.9,0.1,1.6,0.3,2.6H49.9z"/>
			<path fill="#37474F" d="M49.9,31H13.6c-0.5,0-0.9-0.4-1-0.9c0-0.3-0.1-0.5-0.1-0.8c-0.1-0.6-0.2-1.2-0.2-1.9
				c0-10.7,8.7-19.4,19.4-19.4c10.7,0,19.4,8.7,19.4,19.4c0,0.7-0.1,1.3-0.2,1.9c0,0.2-0.1,0.5-0.1,0.8C50.9,30.6,50.4,31,49.9,31z
				 M14.4,29h34.6c0.1-0.5,0.1-1,0.1-1.5c0-9.6-7.8-17.4-17.4-17.4c-9.6,0-17.4,7.8-17.4,17.4C14.3,28,14.4,28.4,14.4,29z"/>
		</g>
		<g>
			<path fill="#FFECB3" d="M40.2,30c0,0,0.1-0.7,0.1-1.1c0-4.7-3.8-8.5-8.6-8.5c-4.7,0-8.6,3.8-8.6,8.5c0,0.4,0.1,1.2,0.1,1.2H40.2z
				"/>
			<path fill="#37474F" d="M40.2,31H23.3c-1.1,0-1.1-1.3-1.1-2.2c0-5.2,4.3-9.5,9.6-9.5c5.3,0,9.6,4.3,9.6,9.5
				C41.3,29.7,41.3,31,40.2,31z M24.2,29h15.1c0,0,0-0.1,0-0.1c0-4.1-3.4-7.5-7.6-7.5c-4.2,0-7.6,3.4-7.6,7.5
				C24.2,28.9,24.2,28.9,24.2,29z"/>
		</g>
	</g>
	<g>
		<g>
			<g>
				<g>
					<path fill="#37474F" d="M24.6,38.7c0-0.4,0.3-0.8,0.8-0.8c0.4,0,0.8,0.3,0.8,0.8c0,0.4-0.3,0.8-0.8,0.8
						C25,39.5,24.6,39.1,24.6,38.7z"/>
					<path fill="#37474F" d="M25.4,39.9c-0.7,0-1.2-0.6-1.2-1.3c0-0.7,0.6-1.3,1.3-1.3c0.3,0,0.7,0.1,0.9,0.4
						c0.2,0.2,0.4,0.6,0.4,0.9C26.7,39.4,26.1,39.9,25.4,39.9L25.4,39.9z M25.4,38.4c-0.2,0-0.3,0.1-0.3,0.3c0,0.1,0.1,0.3,0.2,0.3
						v0.5l0-0.5c0.2,0,0.3-0.1,0.3-0.3c0-0.1,0-0.2-0.1-0.2C25.5,38.4,25.5,38.4,25.4,38.4z"/>
				</g>
				<g>
					<path fill="#37474F" d="M19.3,38.7c0-0.4,0.3-0.8,0.8-0.8c0.4,0,0.8,0.3,0.8,0.8c0,0.4-0.4,0.8-0.8,0.8
						C19.6,39.4,19.3,39.1,19.3,38.7z"/>
					<path fill="#37474F" d="M20,40L20,40c-0.7,0-1.2-0.6-1.2-1.3c0-0.3,0.1-0.7,0.4-0.9c0.2-0.2,0.6-0.4,0.9-0.4
						c0.7,0,1.3,0.6,1.3,1.3C21.3,39.4,20.7,40,20,40z M20,38.4c-0.1,0-0.1,0-0.2,0.1c0,0-0.1,0.1-0.1,0.2c0,0.2,0.1,0.3,0.3,0.3
						c0.2,0,0.3-0.1,0.3-0.3C20.3,38.5,20.2,38.4,20,38.4z"/>
				</g>
				<g>
					<path fill="#37474F" d="M13.9,38.7c0-0.4,0.4-0.8,0.8-0.8c0.4,0,0.8,0.3,0.8,0.8c0,0.4-0.3,0.8-0.8,0.8
						C14.2,39.5,13.9,39.1,13.9,38.7z"/>
					<path fill="#37474F" d="M14.7,39.9L14.7,39.9C14.6,39.9,14.6,39.9,14.7,39.9c-0.7,0-1.3-0.6-1.3-1.3c0-0.7,0.6-1.3,1.3-1.3
						c0.7,0,1.3,0.6,1.3,1.3C15.9,39.4,15.4,39.9,14.7,39.9z M14.7,38.4c-0.1,0-0.3,0.1-0.3,0.3c0,0.1,0.1,0.3,0.2,0.3l0,0.5v-0.5
						c0.1,0,0.3-0.1,0.3-0.3C14.9,38.5,14.8,38.4,14.7,38.4z"/>
				</g>
			</g>
			<g>
				<g>
					<path fill="#37474F" d="M24.6,44c0-0.4,0.3-0.8,0.8-0.8c0.4,0,0.8,0.3,0.8,0.8c0,0.4-0.3,0.8-0.8,0.8
						C25,44.8,24.6,44.4,24.6,44z"/>
					<path fill="#37474F" d="M25.4,45.3c-0.7,0-1.3-0.6-1.3-1.3c0-0.7,0.6-1.3,1.3-1.3c0.3,0,0.7,0.1,0.9,0.4
						c0.2,0.2,0.4,0.6,0.4,0.9C26.7,44.7,26.1,45.3,25.4,45.3L25.4,45.3z M25.4,43.7c-0.1,0-0.3,0.1-0.3,0.3c0,0.1,0.1,0.3,0.3,0.3
						v0.5l0-0.5c0.2,0,0.3-0.1,0.3-0.3c0-0.1,0-0.2-0.1-0.2C25.5,43.7,25.5,43.7,25.4,43.7z"/>
				</g>
				<g>
					<path fill="#37474F" d="M19.3,44c0-0.4,0.3-0.8,0.8-0.8c0.4,0,0.8,0.3,0.8,0.8c0,0.4-0.4,0.8-0.8,0.8
						C19.6,44.8,19.3,44.4,19.3,44z"/>
					<path fill="#37474F" d="M20,45.3L20,45.3c-0.7,0-1.2-0.6-1.2-1.3c0-0.3,0.1-0.7,0.4-0.9c0.2-0.2,0.6-0.4,0.9-0.4
						c0.7,0,1.3,0.6,1.3,1.3C21.3,44.7,20.7,45.3,20,45.3z M20,43.7c-0.1,0-0.1,0-0.2,0.1c0,0-0.1,0.1-0.1,0.2
						c0,0.2,0.1,0.3,0.3,0.3c0.2,0,0.3-0.1,0.3-0.3C20.3,43.8,20.2,43.7,20,43.7z"/>
				</g>
				<g>
					<path fill="#37474F" d="M13.9,44c0-0.4,0.4-0.8,0.8-0.8c0.4,0,0.8,0.3,0.8,0.8c0,0.4-0.3,0.8-0.8,0.8
						C14.2,44.8,13.9,44.4,13.9,44z"/>
					<path fill="#37474F" d="M14.7,45.3L14.7,45.3c-0.7,0-1.3-0.6-1.3-1.3c0-0.7,0.6-1.3,1.3-1.3c0.7,0,1.3,0.6,1.3,1.3
						C15.9,44.7,15.4,45.3,14.7,45.3z M14.7,43.7c-0.1,0-0.3,0.1-0.3,0.3c0,0.1,0.1,0.3,0.3,0.3l0,0.5v-0.5c0.1,0,0.3-0.1,0.3-0.3
						C14.9,43.8,14.8,43.7,14.7,43.7z"/>
				</g>
			</g>
			<g>
				<g>
					<path fill="#37474F" d="M24.6,49.3c0-0.4,0.3-0.8,0.8-0.8c0.4,0,0.8,0.3,0.8,0.8c0,0.4-0.3,0.8-0.8,0.8
						C25,50.1,24.6,49.7,24.6,49.3z"/>
					<path fill="#37474F" d="M25.4,50.5c-0.7,0-1.3-0.6-1.3-1.3c0-0.7,0.6-1.3,1.3-1.3c0.3,0,0.7,0.1,0.9,0.4
						c0.2,0.2,0.4,0.6,0.4,0.9C26.7,50,26.1,50.5,25.4,50.5L25.4,50.5z M25.4,49c-0.2,0-0.3,0.1-0.3,0.3c0,0.1,0.1,0.3,0.3,0.3V50
						l0-0.5c0.2,0,0.3-0.1,0.3-0.3c0-0.1,0-0.2-0.1-0.2C25.5,49,25.5,49,25.4,49z"/>
				</g>
				<g>
					<path fill="#37474F" d="M19.3,49.3c0-0.4,0.3-0.8,0.8-0.8c0.4,0,0.8,0.3,0.8,0.8c0,0.4-0.4,0.8-0.8,0.8
						C19.6,50,19.3,49.7,19.3,49.3z"/>
					<path fill="#37474F" d="M20,50.6L20,50.6c-0.7,0-1.2-0.6-1.2-1.3c0-0.3,0.1-0.7,0.4-0.9c0.2-0.2,0.6-0.4,0.9-0.4
						c0.7,0,1.3,0.5,1.3,1.3C21.3,50,20.7,50.6,20,50.6z M20,49c-0.1,0-0.1,0-0.2,0.1c0,0-0.1,0.1-0.1,0.2c0,0.1,0.1,0.3,0.3,0.3
						c0.2,0,0.3-0.1,0.3-0.3C20.3,49.1,20.2,49,20,49z"/>
				</g>
				<g>
					<path fill="#37474F" d="M13.9,49.3c0-0.4,0.4-0.8,0.8-0.8c0.4,0,0.8,0.3,0.8,0.8c0,0.4-0.3,0.8-0.8,0.8
						C14.2,50.1,13.9,49.7,13.9,49.3z"/>
					<path fill="#37474F" d="M14.7,50.5L14.7,50.5C14.6,50.5,14.6,50.5,14.7,50.5c-0.7,0-1.3-0.6-1.3-1.3c0-0.7,0.6-1.3,1.3-1.3
						c0.7,0,1.3,0.6,1.3,1.3C15.9,50,15.4,50.5,14.7,50.5z M14.7,49c-0.1,0-0.3,0.1-0.3,0.3c0,0.1,0.1,0.3,0.2,0.3l0,0.5v-0.5
						c0.1,0,0.3-0.1,0.3-0.3C14.9,49.1,14.8,49,14.7,49z"/>
				</g>
			</g>
		</g>
		<g>
			<g>
				<g>
					<path fill="#37474F" d="M48.1,38.7c0-0.4,0.3-0.8,0.8-0.8c0.4,0,0.8,0.3,0.8,0.8c0,0.4-0.3,0.8-0.8,0.8
						C48.4,39.5,48.1,39.1,48.1,38.7z"/>
					<path fill="#37474F" d="M48.8,39.9c-0.7,0-1.2-0.6-1.2-1.3c0-0.7,0.6-1.3,1.3-1.3c0.3,0,0.7,0.1,0.9,0.4
						c0.2,0.2,0.4,0.6,0.4,0.9C50.1,39.4,49.5,39.9,48.8,39.9L48.8,39.9z M48.8,38.4c-0.2,0-0.3,0.1-0.3,0.3c0,0.1,0.1,0.3,0.2,0.3
						v0.5l0-0.5c0.2,0,0.3-0.1,0.3-0.3c0-0.1,0-0.2-0.1-0.2C49,38.4,48.9,38.4,48.8,38.4z"/>
				</g>
				<g>
					<path fill="#37474F" d="M42.7,38.7c0-0.4,0.3-0.8,0.8-0.8c0.4,0,0.8,0.3,0.8,0.8c0,0.4-0.4,0.8-0.8,0.8
						C43.1,39.4,42.7,39.1,42.7,38.7z"/>
					<path fill="#37474F" d="M43.5,40L43.5,40c-0.7,0-1.2-0.6-1.2-1.3c0-0.3,0.1-0.7,0.4-0.9s0.6-0.4,0.9-0.4c0.7,0,1.3,0.6,1.3,1.3
						C44.7,39.4,44.2,40,43.5,40z M43.5,38.4c-0.1,0-0.1,0-0.2,0.1c0,0-0.1,0.1-0.1,0.2c0,0.1,0.1,0.3,0.3,0.3
						c0.2,0,0.3-0.1,0.3-0.3C43.7,38.5,43.6,38.4,43.5,38.4z"/>
				</g>
				<g>
					<path fill="#37474F" d="M37.3,38.7c0-0.4,0.4-0.8,0.8-0.8c0.4,0,0.8,0.3,0.8,0.8c0,0.4-0.3,0.8-0.8,0.8
						C37.7,39.5,37.3,39.1,37.3,38.7z"/>
					<path fill="#37474F" d="M38.1,39.9L38.1,39.9C38.1,39.9,38.1,39.9,38.1,39.9c-0.7,0-1.3-0.6-1.3-1.3c0-0.7,0.6-1.3,1.3-1.3
						c0.7,0,1.3,0.6,1.3,1.3C39.4,39.4,38.8,39.9,38.1,39.9z M38.1,38.4c-0.1,0-0.3,0.1-0.3,0.3c0,0.1,0.1,0.3,0.3,0.3l0,0.5v-0.5
						c0.1,0,0.2-0.1,0.2-0.3C38.4,38.5,38.3,38.4,38.1,38.4z"/>
				</g>
			</g>
			<g>
				<g>
					<path fill="#37474F" d="M48.1,44c0-0.4,0.3-0.8,0.8-0.8c0.4,0,0.8,0.3,0.8,0.8c0,0.4-0.3,0.8-0.8,0.8
						C48.4,44.8,48.1,44.4,48.1,44z"/>
					<path fill="#37474F" d="M48.8,45.3c-0.7,0-1.3-0.6-1.3-1.3c0-0.7,0.6-1.3,1.3-1.3c0.3,0,0.7,0.1,0.9,0.4
						c0.2,0.2,0.4,0.6,0.4,0.9C50.1,44.7,49.5,45.3,48.8,45.3L48.8,45.3z M48.8,43.7c-0.1,0-0.3,0.1-0.3,0.3c0,0.1,0.1,0.3,0.3,0.3
						v0.5l0-0.5c0.2,0,0.3-0.1,0.3-0.3c0-0.1,0-0.2-0.1-0.2C49,43.7,48.9,43.7,48.8,43.7z"/>
				</g>
				<g>
					<path fill="#37474F" d="M42.7,44c0-0.4,0.3-0.8,0.8-0.8c0.4,0,0.8,0.3,0.8,0.8c0,0.4-0.4,0.8-0.8,0.8
						C43.1,44.8,42.7,44.4,42.7,44z"/>
					<path fill="#37474F" d="M43.5,45.3L43.5,45.3c-0.7,0-1.2-0.6-1.2-1.3c0-0.3,0.1-0.7,0.4-0.9c0.2-0.2,0.6-0.4,0.9-0.4
						c0.7,0,1.3,0.6,1.3,1.3C44.7,44.7,44.2,45.3,43.5,45.3z M43.5,43.7c-0.1,0-0.1,0-0.2,0.1c0,0-0.1,0.1-0.1,0.2
						c0,0.1,0.1,0.3,0.3,0.3c0.2,0,0.3-0.1,0.3-0.3C43.7,43.8,43.6,43.7,43.5,43.7z"/>
				</g>
				<g>
					<path fill="#37474F" d="M37.3,44c0-0.4,0.4-0.8,0.8-0.8c0.4,0,0.8,0.3,0.8,0.8c0,0.4-0.3,0.8-0.8,0.8
						C37.7,44.8,37.3,44.4,37.3,44z"/>
					<path fill="#37474F" d="M38.1,45.3L38.1,45.3c-0.7,0-1.3-0.6-1.3-1.3c0-0.7,0.6-1.3,1.3-1.3c0.7,0,1.3,0.6,1.3,1.3
						C39.4,44.7,38.8,45.3,38.1,45.3z M38.1,43.7c-0.1,0-0.3,0.1-0.3,0.3c0,0.1,0.1,0.3,0.3,0.3l0,0.5v-0.5c0.1,0,0.3-0.1,0.3-0.3
						C38.4,43.8,38.3,43.7,38.1,43.7z"/>
				</g>
			</g>
			<g>
				<g>
					<path fill="#37474F" d="M48.1,49.3c0-0.4,0.3-0.8,0.8-0.8c0.4,0,0.8,0.3,0.8,0.8c0,0.4-0.3,0.8-0.8,0.8
						C48.4,50.1,48.1,49.7,48.1,49.3z"/>
					<path fill="#37474F" d="M48.8,50.5c-0.7,0-1.2-0.6-1.2-1.3c0-0.7,0.6-1.3,1.3-1.3c0.3,0,0.7,0.1,0.9,0.4
						c0.2,0.2,0.4,0.6,0.4,0.9C50.1,50,49.5,50.5,48.8,50.5L48.8,50.5z M48.8,49c-0.1,0-0.3,0.1-0.3,0.3c0,0.1,0.1,0.3,0.2,0.3V50
						l0-0.5c0.2,0,0.3-0.1,0.3-0.3c0-0.1,0-0.2-0.1-0.2C49,49.1,48.9,49,48.8,49z"/>
				</g>
				<g>
					<path fill="#37474F" d="M42.7,49.3c0-0.4,0.3-0.8,0.8-0.8c0.4,0,0.8,0.3,0.8,0.8c0,0.4-0.4,0.8-0.8,0.8
						C43.1,50,42.7,49.7,42.7,49.3z"/>
					<path fill="#37474F" d="M43.5,50.6L43.5,50.6c-0.7,0-1.2-0.6-1.2-1.3c0-0.3,0.1-0.7,0.4-0.9c0.2-0.2,0.6-0.4,0.9-0.4
						c0.7,0,1.3,0.6,1.3,1.3C44.7,50,44.2,50.6,43.5,50.6z M43.5,49c-0.1,0-0.1,0-0.2,0.1c0,0-0.1,0.1-0.1,0.2
						c0,0.1,0.1,0.3,0.3,0.3c0.1,0,0.3-0.1,0.3-0.3C43.7,49.1,43.6,49,43.5,49z"/>
				</g>
				<g>
					<path fill="#37474F" d="M37.3,49.3c0-0.4,0.4-0.8,0.8-0.8c0.4,0,0.8,0.3,0.8,0.8c0,0.4-0.3,0.8-0.8,0.8
						C37.7,50.1,37.3,49.7,37.3,49.3z"/>
					<path fill="#37474F" d="M38.1,50.5L38.1,50.5L38.1,50.5c-0.7,0-1.3-0.6-1.3-1.3c0-0.7,0.6-1.3,1.3-1.3c0.7,0,1.3,0.6,1.3,1.3
						C39.4,50,38.8,50.5,38.1,50.5z M38.1,49c-0.1,0-0.3,0.1-0.3,0.3c0,0.1,0.1,0.3,0.3,0.3l0,0.5v-0.5c0.1,0,0.3-0.1,0.3-0.3
						C38.4,49.1,38.2,49,38.1,49z"/>
				</g>
			</g>
		</g>
	</g>
	<g>
		<line fill="#FFECB3" x1="18.9" y1="16.5" x2="30.5" y2="28.1"/>
		<path fill="#37474F" d="M30.5,29.1c-0.3,0-0.5-0.1-0.7-0.3L18.2,17.2c-0.4-0.4-0.4-1,0-1.4c0.4-0.4,1-0.4,1.4,0l11.6,11.6
			c0.4,0.4,0.4,1,0,1.4C31,29,30.7,29.1,30.5,29.1z"/>
	</g>
	<g>
		<g>
			<path fill="#B0BEC5" d="M11.8,8.3c0,1.2-1,2.2-2.2,2.2c-1.2,0-2.2-1-2.2-2.2c0-1.2,1-2.2,2.2-2.2C10.8,6.1,11.8,7.1,11.8,8.3z"/>
			<path fill="#37474F" d="M9.6,11.5c-1.8,0-3.2-1.4-3.2-3.2s1.4-3.2,3.2-3.2c1.8,0,3.2,1.4,3.2,3.2S11.3,11.5,9.6,11.5z M9.6,7.1
				c-0.7,0-1.2,0.5-1.2,1.2s0.5,1.2,1.2,1.2c0.7,0,1.2-0.5,1.2-1.2S10.2,7.1,9.6,7.1z"/>
		</g>
		<g>
			<path fill="#B0BEC5" d="M56.1,8.3c0,1.2-1,2.2-2.2,2.2s-2.2-1-2.2-2.2c0-1.2,1-2.2,2.2-2.2S56.1,7.1,56.1,8.3z"/>
			<path fill="#37474F" d="M53.9,11.5c-1.8,0-3.2-1.4-3.2-3.2s1.4-3.2,3.2-3.2c1.8,0,3.2,1.4,3.2,3.2S55.7,11.5,53.9,11.5z
				 M53.9,7.1c-0.7,0-1.2,0.5-1.2,1.2s0.5,1.2,1.2,1.2c0.7,0,1.2-0.5,1.2-1.2S54.6,7.1,53.9,7.1z"/>
		</g>
	</g>
	<g>
		<g>
			<path fill="#B0BEC5" d="M11.8,52.2c0,1.2-1,2.2-2.2,2.2c-1.2,0-2.2-1-2.2-2.2c0-1.2,1-2.2,2.2-2.2C10.8,50,11.8,51,11.8,52.2z"/>
			<path fill="#37474F" d="M9.6,55.4c-1.8,0-3.2-1.4-3.2-3.2c0-1.8,1.4-3.2,3.2-3.2c1.8,0,3.2,1.4,3.2,3.2
				C12.8,54,11.3,55.4,9.6,55.4z M9.6,51c-0.7,0-1.2,0.5-1.2,1.2c0,0.7,0.5,1.2,1.2,1.2c0.7,0,1.2-0.5,1.2-1.2
				C10.8,51.6,10.2,51,9.6,51z"/>
		</g>
		<g>
			<path fill="#B0BEC5" d="M56.1,52.2c0,1.2-1,2.2-2.2,2.2s-2.2-1-2.2-2.2c0-1.2,1-2.2,2.2-2.2S56.1,51,56.1,52.2z"/>
			<path fill="#37474F" d="M53.9,55.4c-1.8,0-3.2-1.4-3.2-3.2c0-1.8,1.4-3.2,3.2-3.2c1.8,0,3.2,1.4,3.2,3.2
				C57.1,54,55.7,55.4,53.9,55.4z M53.9,51c-0.7,0-1.2,0.5-1.2,1.2c0,0.7,0.5,1.2,1.2,1.2c0.7,0,1.2-0.5,1.2-1.2
				C55.1,51.6,54.6,51,53.9,51z"/>
		</g>
	</g>
	<g>
		<line fill="#B0BEC5" x1="31.5" y1="32" x2="31.5" y2="58"/>
		<path fill="#37474F" d="M31.5,59c-0.6,0-1-0.4-1-1V32c0-0.6,0.4-1,1-1s1,0.4,1,1v26C32.5,58.6,32.1,59,31.5,59z"/>
	</g>
	<g>
		<path fill="#FFFFFF" d="M34,29.8c0,1.2-1,2.2-2.2,2.2c-1.2,0-2.2-1-2.2-2.2c0-1.2,1-2.2,2.2-2.2C33,27.5,34,28.5,34,29.8z"/>
		<path fill="#37474F" d="M31.8,33c-1.8,0-3.2-1.5-3.2-3.2c0-1.8,1.5-3.2,3.2-3.2c1.8,0,3.2,1.5,3.2,3.2C35,31.5,33.5,33,31.8,33z
			 M31.8,28.5c-0.7,0-1.2,0.6-1.2,1.2c0,0.7,0.6,1.2,1.2,1.2c0.7,0,1.2-0.6,1.2-1.2C33,29.1,32.4,28.5,31.8,28.5z"/>
	</g>
</g>
</svg>
