<?xml version="1.0" encoding="utf-8"?>
<!-- Generator: Adobe Illustrator 16.0.0, SVG Export Plug-In . SVG Version: 6.00 Build 0)  -->
<!DOCTYPE svg PUBLIC "-//W3C//DTD SVG 1.1//EN" "http://www.w3.org/Graphics/SVG/1.1/DTD/svg11.dtd">
<svg version="1.1" id="Layer_1" xmlns="http://www.w3.org/2000/svg" xmlns:xlink="http://www.w3.org/1999/xlink" x="0px" y="0px"
	 width="64px" height="64px" viewBox="0 0 64 64" enable-background="new 0 0 64 64" xml:space="preserve">
<g>
	<g>
		<g>
			<line fill="#FFFFFF" x1="10" y1="62" x2="10" y2="2"/>
			<path fill="#37474F" d="M10,63c-0.6,0-1-0.4-1-1V2c0-0.6,0.4-1,1-1s1,0.4,1,1v60C11,62.6,10.6,63,10,63z"/>
		</g>
		<g>
			<line fill="#FFFFFF" x1="62" y1="6" x2="2" y2="6"/>
			<path fill="#37474F" d="M62,7H2C1.4,7,1,6.6,1,6s0.4-1,1-1h60c0.6,0,1,0.4,1,1S62.6,7,62,7z"/>
		</g>
		<g>
			<polyline fill="#FFECB3" points="55,17 62,17 62,55 16,55 16,17 22,17 			"/>
			<path fill="#37474F" d="M62,56H16c-0.6,0-1-0.4-1-1V17c0-0.6,0.4-1,1-1h6c0.6,0,1,0.4,1,1s-0.4,1-1,1h-5v36h44V18h-6
				c-0.6,0-1-0.4-1-1s0.4-1,1-1h7c0.6,0,1,0.4,1,1v38C63,55.6,62.6,56,62,56z"/>
		</g>
		<g>
			<line fill="#FFECB3" x1="31" y1="17" x2="47" y2="17"/>
			<path fill="#37474F" d="M47,18H31c-0.6,0-1-0.4-1-1s0.4-1,1-1h16c0.6,0,1,0.4,1,1S47.6,18,47,18z"/>
		</g>
		<g>
			<g>
				<circle fill="#FFECB3" cx="26.5" cy="18" r="2.9"/>
				<path fill="#37474F" d="M26.5,21.9c-2.1,0-3.9-1.7-3.9-3.9c0-2.1,1.7-3.9,3.9-3.9s3.9,1.7,3.9,3.9
					C30.4,20.1,28.7,21.9,26.5,21.9z M26.5,16.1c-1,0-1.9,0.8-1.9,1.9c0,1,0.8,1.9,1.9,1.9s1.9-0.8,1.9-1.9
					C28.4,16.9,27.6,16.1,26.5,16.1z"/>
			</g>
			<g>
				<circle fill="#FFECB3" cx="50.8" cy="18" r="2.9"/>
				<path fill="#37474F" d="M50.8,21.9c-2.1,0-3.9-1.7-3.9-3.9c0-2.1,1.7-3.9,3.9-3.9s3.9,1.7,3.9,3.9C54.7,20.1,53,21.9,50.8,21.9z
					 M50.8,16.1c-1,0-1.9,0.8-1.9,1.9c0,1,0.8,1.9,1.9,1.9s1.9-0.8,1.9-1.9C52.7,16.9,51.9,16.1,50.8,16.1z"/>
			</g>
		</g>
		<g>
			<line fill="#FFECB3" x1="26.5" y1="9.1" x2="26.5" y2="15.1"/>
			<path fill="#37474F" d="M26.5,16.1c-0.6,0-1-0.4-1-1v-6c0-0.6,0.4-1,1-1s1,0.4,1,1v6C27.5,15.6,27.1,16.1,26.5,16.1z"/>
		</g>
		<g>
			<line fill="#FFECB3" x1="51" y1="9" x2="51" y2="15"/>
			<path fill="#37474F" d="M51,16c-0.6,0-1-0.4-1-1V9c0-0.6,0.4-1,1-1s1,0.4,1,1v6C52,15.6,51.6,16,51,16z"/>
		</g>
	</g>
	<g>
		<g>
			<path d="M22.6,24.4h5.1v1h-3.9v3.1h3.6v1h-3.6v4.3h-1.2V24.4z"/>
			<polygon fill="#37474F" points="24.8,34.9 21.6,34.9 21.6,23.4 28.6,23.4 28.6,26.5 24.8,26.5 24.8,27.6 28.4,27.6 28.4,30.6 
				24.8,30.6 			"/>
		</g>
		<g>
			<path d="M39.4,29.1c0,3.2-2,5-4.4,5c-2.5,0-4.2-1.9-4.2-4.8c0-3,1.9-5,4.4-5C37.8,24.3,39.4,26.3,39.4,29.1z M32.1,29.2
				c0,2,1.1,3.8,3,3.8c1.9,0,3-1.8,3-3.9c0-1.9-1-3.8-3-3.8C33.1,25.3,32.1,27.1,32.1,29.2z"/>
			<path fill="#37474F" d="M35.1,35c-3.1,0-5.2-2.4-5.2-5.8c0-3.5,2.3-6,5.4-6c3.1,0,5.2,2.4,5.2,5.8C40.4,33.2,37.7,35,35.1,35z
				 M35.2,26.3c-1.5,0-2,1.6-2,2.9c0,1.4,0.6,2.8,2,2.8c1.4,0,2-1.5,2-2.9C37.2,28.1,36.7,26.3,35.2,26.3z"/>
		</g>
		<g>
			<path d="M43,24.6c0.6-0.1,1.5-0.2,2.3-0.2c1.3,0,2.1,0.2,2.7,0.8c0.5,0.4,0.7,1.1,0.7,1.8c0,1.2-0.8,2.1-1.8,2.4v0
				c0.7,0.3,1.2,0.9,1.4,1.9c0.3,1.3,0.5,2.2,0.7,2.6h-1.3c-0.2-0.3-0.4-1.1-0.6-2.3c-0.3-1.3-0.8-1.8-1.9-1.8h-1.1v4.1H43V24.6z
				 M44.2,28.9h1.2c1.3,0,2.1-0.7,2.1-1.8c0-1.2-0.9-1.8-2.2-1.8c-0.6,0-1,0.1-1.2,0.1V28.9z"/>
			<path fill="#37474F" d="M50.9,34.9h-3.5l-0.3-0.5c-0.2-0.3-0.4-0.8-0.7-2.5c-0.2-1-0.4-1-1-1.1l-0.1,0v4.1H42V23.8l0.8-0.2
				c0.7-0.1,1.6-0.2,2.5-0.2c1.6,0,2.6,0.3,3.4,1c0.7,0.6,1.1,1.5,1.1,2.5c0,1-0.4,1.9-1.1,2.5c0.3,0.4,0.5,1,0.7,1.6
				c0.2,0.8,0.5,2.1,0.6,2.3L50.9,34.9z M45.2,27.9h0.2c0.4,0,1.1-0.1,1.1-0.8c0-0.3,0-0.8-1.2-0.8c-0.1,0-0.1,0-0.2,0V27.9z"/>
		</g>
		<g>
			<path d="M22.6,38.6c0.6-0.1,1.5-0.2,2.3-0.2c1.3,0,2.1,0.2,2.7,0.8c0.5,0.4,0.7,1.1,0.7,1.8c0,1.2-0.8,2.1-1.8,2.4v0
				c0.7,0.3,1.2,0.9,1.4,1.9c0.3,1.3,0.5,2.2,0.7,2.6h-1.3c-0.2-0.3-0.4-1.1-0.6-2.3c-0.3-1.3-0.8-1.8-1.9-1.8h-1.1v4.1h-1.2V38.6z
				 M23.8,42.9H25c1.3,0,2.1-0.7,2.1-1.8c0-1.2-0.9-1.8-2.2-1.8c-0.6,0-1,0.1-1.2,0.1V42.9z"/>
			<path fill="#37474F" d="M30.4,48.9h-3.5l-0.3-0.5c-0.2-0.4-0.4-1-0.7-2.5c-0.2-1-0.5-1-1-1.1l-0.1,0v4.1h-3.2V37.8l0.8-0.2
				c0.7-0.1,1.6-0.2,2.5-0.2c1.6,0,2.6,0.3,3.4,1c0.7,0.6,1.1,1.5,1.1,2.5c0,1-0.4,1.9-1.1,2.5c0.3,0.4,0.5,1,0.7,1.6
				c0.2,0.7,0.5,2.1,0.6,2.3L30.4,48.9z M24.8,41.9H25c0.4,0,1.1-0.1,1.1-0.8c0-0.3,0-0.7-1.2-0.8c-0.1,0-0.1,0-0.2,0V41.9z"/>
		</g>
		<g>
			<path d="M37,43.5h-3.7v3.4h4.1v1h-5.3v-9.4h5.1v1h-3.9v3H37V43.5z"/>
			<polygon fill="#37474F" points="38.4,48.9 31.1,48.9 31.1,37.4 38.2,37.4 38.2,40.5 34.3,40.5 34.3,41.4 38,41.4 38,44.5 
				34.3,44.5 34.3,45.9 38.4,45.9 			"/>
		</g>
		<g>
			<path d="M41,47.9v-9.4h1.3l3,4.8c0.7,1.1,1.2,2.1,1.7,3.1l0,0c-0.1-1.3-0.1-2.4-0.1-3.9v-3.9h1.1v9.4h-1.2l-3-4.8
				c-0.7-1.1-1.3-2.1-1.8-3.2l0,0c0.1,1.2,0.1,2.3,0.1,3.9v4H41z"/>
			<polygon fill="#37474F" points="49.1,48.9 46.3,48.9 43.1,43.8 43.1,43.8 43.1,48.9 40,48.9 40,37.4 42.9,37.4 45.9,42.3 
				45.9,37.4 49.1,37.4 			"/>
		</g>
		<g>
			<path d="M54,39.5h-2.9v-1h7v1h-2.9v8.4H54V39.5z"/>
			<polygon fill="#37474F" points="56.2,48.9 53,48.9 53,40.5 50.1,40.5 50.1,37.4 59.1,37.4 59.1,40.5 56.2,40.5 			"/>
		</g>
	</g>
</g>
</svg>
