<?xml version="1.0" encoding="utf-8"?>
<!-- Generator: Adobe Illustrator 16.0.0, SVG Export Plug-In . SVG Version: 6.00 Build 0)  -->
<!DOCTYPE svg PUBLIC "-//W3C//DTD SVG 1.1//EN" "http://www.w3.org/Graphics/SVG/1.1/DTD/svg11.dtd">
<svg version="1.1" id="Layer_1" xmlns="http://www.w3.org/2000/svg" xmlns:xlink="http://www.w3.org/1999/xlink" x="0px" y="0px"
	 width="32px" height="32px" viewBox="0 0 32 32" enable-background="new 0 0 32 32" xml:space="preserve">
<g>
	<g>
		<path fill="#FFFFFF" d="M26.9,16.4c0,6-4.9,10.9-10.9,10.9c-6,0-10.9-4.9-10.9-10.9c0-6,4.9-10.9,10.9-10.9
			C22,5.5,26.9,10.3,26.9,16.4z"/>
		<path fill="#37474F" d="M16,27.7c-6.3,0-11.4-5.1-11.4-11.4S9.7,5,16,5c6.3,0,11.4,5.1,11.4,11.4S22.3,27.7,16,27.7z M16,6
			C10.3,6,5.6,10.6,5.6,16.4c0,5.7,4.7,10.4,10.4,10.4c5.7,0,10.4-4.7,10.4-10.4C26.4,10.6,21.7,6,16,6z"/>
	</g>
	<g>
		<g>
			<rect x="14.9" y="0.8" fill="#FFAB00" width="2" height="19.6"/>
			<path fill="#37474F" d="M16.8,20.9h-2c-0.3,0-0.5-0.2-0.5-0.5V0.8c0-0.3,0.2-0.5,0.5-0.5h2c0.3,0,0.5,0.2,0.5,0.5v19.6
				C17.3,20.7,17.1,20.9,16.8,20.9z M15.4,19.9h1V1.3h-1V19.9z"/>
		</g>
		<g>
			<g>
				<polygon fill="#FFECB3" points="23.4,31.2 8.6,31.2 10.9,23.3 21.1,23.3 				"/>
				<path fill="#37474F" d="M23.4,31.7C23.4,31.7,23.4,31.7,23.4,31.7H8.6c-0.2,0-0.3-0.1-0.4-0.2c-0.1-0.1-0.1-0.3-0.1-0.4l2.3-7.8
					c0.1-0.2,0.3-0.4,0.5-0.4h10.2c0.2,0,0.4,0.1,0.5,0.4l2.3,7.7c0,0.1,0.1,0.2,0.1,0.3C23.9,31.5,23.7,31.7,23.4,31.7z M9.2,30.7
					h13.5l-2-6.8h-9.5L9.2,30.7z"/>
			</g>
			<g>
				<g>
					<g>
						<g>
							<line fill="#FFECB3" x1="11.6" y1="29.2" x2="12.9" y2="23.7"/>
							<path fill="#37474F" d="M11.6,29.7c0,0-0.1,0-0.1,0c-0.3-0.1-0.4-0.3-0.4-0.6l1.3-5.5c0.1-0.3,0.3-0.4,0.6-0.4
								c0.3,0.1,0.4,0.3,0.4,0.6l-1.3,5.5C12,29.6,11.8,29.7,11.6,29.7z"/>
						</g>
					</g>
					<g>
						<g>
							<line fill="#FFECB3" x1="20.4" y1="29.2" x2="19.1" y2="23.7"/>
							<path fill="#37474F" d="M20.4,29.7c-0.2,0-0.4-0.2-0.5-0.4l-1.3-5.5c-0.1-0.3,0.1-0.5,0.4-0.6c0.3-0.1,0.5,0.1,0.6,0.4
								l1.3,5.5c0.1,0.3-0.1,0.5-0.4,0.6C20.5,29.7,20.5,29.7,20.4,29.7z"/>
						</g>
					</g>
				</g>
				<g>
					<line fill="#FFECB3" x1="16.3" y1="29.7" x2="16.3" y2="23.8"/>
					<path fill="#37474F" d="M16.3,30.2c-0.3,0-0.5-0.2-0.5-0.5v-5.9c0-0.3,0.2-0.5,0.5-0.5s0.5,0.2,0.5,0.5v5.9
						C16.8,30,16.6,30.2,16.3,30.2z"/>
				</g>
			</g>
			<g>
				<rect x="9.5" y="21.4" fill="#78909C" width="12.7" height="2.9"/>
				<path fill="#37474F" d="M22.7,24.8H9v-3.9h13.7V24.8z M10,23.8h11.7v-1.9H10V23.8z"/>
			</g>
			<g>
				<rect x="11.4" y="19.4" fill="#B0BEC5" width="8.8" height="2"/>
				<path fill="#37474F" d="M20.3,21.9h-8.8c-0.3,0-0.5-0.2-0.5-0.5v-2c0-0.3,0.2-0.5,0.5-0.5h8.8c0.3,0,0.5,0.2,0.5,0.5v2
					C20.8,21.7,20.5,21.9,20.3,21.9z M11.9,20.9h7.8v-1h-7.8V20.9z"/>
			</g>
		</g>
	</g>
	<g>
		<g>
			<g>
				<path fill="#37474F" d="M11.7,16.4c0-0.2,0.2-0.4,0.4-0.4c0.2,0,0.4,0.2,0.4,0.4c0,0.2-0.2,0.4-0.4,0.4
					C11.8,16.8,11.7,16.6,11.7,16.4z"/>
				<path fill="#37474F" d="M12,17.2c-0.5,0-0.9-0.4-0.9-0.9c0-0.5,0.4-0.9,0.9-0.9c0.2,0,0.5,0.1,0.6,0.3c0.2,0.2,0.3,0.4,0.3,0.6
					C12.9,16.8,12.5,17.2,12,17.2L12,17.2z"/>
			</g>
			<g>
				<path fill="#37474F" d="M8.9,16.4c0-0.2,0.2-0.4,0.4-0.4c0.2,0,0.4,0.2,0.4,0.4c0,0.2-0.2,0.4-0.4,0.4
					C9.1,16.7,8.9,16.6,8.9,16.4z"/>
				<path fill="#37474F" d="M9.3,17.3L9.3,17.3c-0.5,0-0.9-0.4-0.9-0.9c0-0.2,0.1-0.5,0.3-0.6c0.2-0.2,0.4-0.3,0.6-0.3
					c0.5,0,0.9,0.4,0.9,0.9C10.2,16.9,9.8,17.3,9.3,17.3z"/>
			</g>
			<g>
				<path fill="#37474F" d="M6.2,16.4c0-0.2,0.2-0.4,0.4-0.4C6.8,16,7,16.1,7,16.4c0,0.2-0.2,0.4-0.4,0.4
					C6.3,16.8,6.2,16.6,6.2,16.4z"/>
				<path fill="#37474F" d="M6.6,17.2L6.6,17.2C6.5,17.2,6.5,17.2,6.6,17.2c-0.5,0-0.9-0.4-0.9-0.9c0-0.5,0.4-0.9,0.9-0.9
					c0.5,0,0.9,0.4,0.9,0.9C7.5,16.9,7.1,17.2,6.6,17.2z M6.6,16.5l0,0.3L6.6,16.5c0.1,0,0.1,0,0.1-0.1c0-0.1,0-0.1-0.1-0.1v0
					c0,0,0,0,0,0l0,0c0,0-0.1,0.1-0.1,0.1C6.5,16.4,6.5,16.5,6.6,16.5z"/>
			</g>
		</g>
		<g>
			<g>
				<path fill="#37474F" d="M25,16.4c0-0.2,0.2-0.4,0.4-0.4c0.2,0,0.4,0.2,0.4,0.4c0,0.2-0.2,0.4-0.4,0.4C25.2,16.8,25,16.6,25,16.4
					z"/>
				<path fill="#37474F" d="M25.4,17.2c-0.5,0-0.9-0.4-0.9-0.9c0-0.5,0.4-0.9,0.9-0.9c0.2,0,0.5,0.1,0.6,0.3
					c0.2,0.2,0.3,0.4,0.3,0.6C26.3,16.8,25.9,17.2,25.4,17.2L25.4,17.2z"/>
			</g>
			<g>
				<path fill="#37474F" d="M22.3,16.4c0-0.2,0.2-0.4,0.4-0.4c0.2,0,0.4,0.2,0.4,0.4c0,0.2-0.2,0.4-0.4,0.4
					C22.5,16.7,22.3,16.6,22.3,16.4z"/>
				<path fill="#37474F" d="M22.7,17.3L22.7,17.3c-0.5,0-0.9-0.4-0.9-0.9c0-0.2,0.1-0.5,0.3-0.6s0.4-0.3,0.6-0.3
					c0.5,0,0.9,0.4,0.9,0.9C23.6,16.9,23.2,17.3,22.7,17.3z"/>
			</g>
			<g>
				<path fill="#37474F" d="M19.5,16.4c0-0.2,0.2-0.4,0.4-0.4c0.2,0,0.4,0.2,0.4,0.4c0,0.2-0.2,0.4-0.4,0.4
					C19.7,16.8,19.5,16.6,19.5,16.4z"/>
				<path fill="#37474F" d="M20,17.2L20,17.2C19.9,17.2,19.9,17.2,20,17.2c-0.5,0-0.9-0.4-0.9-0.9c0-0.5,0.4-0.9,0.9-0.9
					c0.5,0,0.9,0.4,0.9,0.9C20.8,16.9,20.4,17.2,20,17.2z M19.9,16.5l0,0.3L19.9,16.5c0.1,0,0.1,0,0.1-0.1c0-0.1,0-0.1-0.1-0.1v0
					c0,0,0,0,0,0l0,0c-0.1,0-0.1,0.1-0.1,0.1C19.8,16.4,19.9,16.5,19.9,16.5z"/>
			</g>
		</g>
	</g>
</g>
</svg>
