<?xml version="1.0" encoding="iso-8859-1"?>
<!-- Generator: Adobe Illustrator 17.1.0, SVG Export Plug-In . SVG Version: 6.00 Build 0)  -->
<!DOCTYPE svg PUBLIC "-//W3C//DTD SVG 1.1//EN" "http://www.w3.org/Graphics/SVG/1.1/DTD/svg11.dtd">
<svg version="1.1" xmlns="http://www.w3.org/2000/svg" xmlns:xlink="http://www.w3.org/1999/xlink" x="0px" y="0px"
	 viewBox="0 0 1009.976 1009.976" style="enable-background:new 0 0 1009.976 1009.976;" xml:space="preserve">
<g id="building">
	<path id="label_32_" style="fill:#EFEFEF;" d="M504.988,0C226.081,0,0,226.08,0,504.988c0,278.895,226.081,504.988,504.988,504.988
		c278.883,0,504.988-226.094,504.988-504.988C1009.976,226.08,783.871,0,504.988,0z"/>
	<g id="icon_34_">
		<g>
			<path style="fill:#434A54;" d="M353.978,310.508v402.579c0,23.578,19.181,42.746,42.746,42.746h122.533
				c23.554,0,42.734-19.168,42.734-42.746V310.508c0-23.566-19.181-42.759-42.734-42.759H396.724
				C373.159,267.749,353.978,286.942,353.978,310.508z M491.245,656.843c0-3.638,2.952-6.589,6.578-6.589H519
				c3.626,0,6.565,2.952,6.565,6.589v30.364c0,3.65-2.939,6.602-6.565,6.602h-21.177c-3.626,0-6.578-2.952-6.578-6.602V656.843z
				 M491.245,589.146c0-3.638,2.952-6.602,6.578-6.602H519c3.626,0,6.565,2.964,6.565,6.602v30.376c0,3.625-2.939,6.565-6.565,6.565
				h-21.177c-3.626,0-6.578-2.94-6.578-6.565V589.146z M491.245,521.438c0-3.638,2.952-6.59,6.578-6.59H519
				c3.626,0,6.565,2.952,6.565,6.59v30.363c0,3.625-2.939,6.578-6.565,6.578h-21.177c-3.626,0-6.578-2.952-6.578-6.578V521.438z
				 M491.245,453.716c0-3.638,2.952-6.553,6.578-6.553H519c3.626,0,6.565,2.915,6.565,6.553v30.375c0,3.626-2.939,6.578-6.565,6.578
				h-21.177c-3.626,0-6.578-2.952-6.578-6.578V453.716z M491.245,386.007c0-3.613,2.952-6.578,6.578-6.578H519
				c3.626,0,6.565,2.964,6.565,6.578v30.388c0,3.626-2.939,6.565-6.565,6.565h-21.177c-3.626,0-6.578-2.939-6.578-6.565V386.007z
				 M491.245,318.298c0-3.625,2.952-6.578,6.578-6.578H519c3.626,0,6.565,2.952,6.565,6.578v30.364c0,3.65-2.939,6.602-6.565,6.602
				h-21.177c-3.626,0-6.578-2.952-6.578-6.602V318.298z M440.819,656.843c0-3.638,2.952-6.589,6.589-6.589h21.177
				c3.613,0,6.565,2.952,6.565,6.589v30.364c0,3.65-2.952,6.602-6.565,6.602h-21.177c-3.638,0-6.589-2.952-6.589-6.602V656.843z
				 M440.819,589.146c0-3.638,2.952-6.602,6.589-6.602h21.177c3.613,0,6.565,2.964,6.565,6.602v30.376
				c0,3.625-2.952,6.565-6.565,6.565h-21.177c-3.638,0-6.589-2.94-6.589-6.565V589.146z M440.819,521.438
				c0-3.638,2.952-6.59,6.589-6.59h21.177c3.613,0,6.565,2.952,6.565,6.59v30.363c0,3.625-2.952,6.578-6.565,6.578h-21.177
				c-3.638,0-6.589-2.952-6.589-6.578V521.438z M440.819,453.716c0-3.638,2.952-6.553,6.589-6.553h21.177
				c3.613,0,6.565,2.915,6.565,6.553v30.375c0,3.626-2.952,6.578-6.565,6.578h-21.177c-3.638,0-6.589-2.952-6.589-6.578V453.716z
				 M440.819,386.007c0-3.613,2.952-6.578,6.589-6.578h21.177c3.613,0,6.565,2.964,6.565,6.578v30.388
				c0,3.626-2.952,6.565-6.565,6.565h-21.177c-3.638,0-6.589-2.939-6.589-6.565V386.007z M440.819,318.298
				c0-3.625,2.952-6.578,6.589-6.578h21.177c3.613,0,6.565,2.952,6.565,6.578v30.364c0,3.65-2.952,6.602-6.565,6.602h-21.177
				c-3.638,0-6.589-2.952-6.589-6.602V318.298z M390.404,656.843c0-3.638,2.94-6.589,6.578-6.589h21.177
				c3.625,0,6.565,2.952,6.565,6.589v30.364c0,3.65-2.939,6.602-6.565,6.602h-21.177c-3.638,0-6.578-2.952-6.578-6.602V656.843z
				 M390.404,589.146c0-3.638,2.94-6.602,6.578-6.602h21.177c3.625,0,6.565,2.964,6.565,6.602v30.376
				c0,3.625-2.939,6.565-6.565,6.565h-21.177c-3.638,0-6.578-2.94-6.578-6.565V589.146z M390.404,521.438
				c0-3.638,2.94-6.59,6.578-6.59h21.177c3.625,0,6.565,2.952,6.565,6.59v30.363c0,3.625-2.939,6.578-6.565,6.578h-21.177
				c-3.638,0-6.578-2.952-6.578-6.578V521.438z M390.404,453.716c0-3.638,2.94-6.553,6.578-6.553h21.177
				c3.625,0,6.565,2.915,6.565,6.553v30.375c0,3.626-2.939,6.578-6.565,6.578h-21.177c-3.638,0-6.578-2.952-6.578-6.578V453.716z
				 M390.404,386.007c0-3.613,2.94-6.578,6.578-6.578h21.177c3.625,0,6.565,2.964,6.565,6.578v30.388
				c0,3.626-2.939,6.565-6.565,6.565h-21.177c-3.638,0-6.578-2.939-6.578-6.565V386.007z M390.404,318.298
				c0-3.625,2.94-6.578,6.578-6.578h21.177c3.625,0,6.565,2.952,6.565,6.578v30.364c0,3.65-2.939,6.602-6.565,6.602h-21.177
				c-3.638,0-6.578-2.952-6.578-6.602V318.298z"/>
			<path style="fill:#434A54;" d="M648.845,489.873V690.93c0,23.578-19.182,42.722-42.747,42.722h-24.608V447.163h24.608
				C629.664,447.163,648.845,466.283,648.845,489.873z"/>
			<path style="fill:#434A54;" d="M278.614,305.462l33.989-22.954c11.979-8.121,21.79-2.903,21.79,11.55v435.466
				c0,14.465-10.154,20.222-22.586,12.811l-32.409-19.364c-12.42-7.423-22.598-25.33-22.598-39.808V346.481
				C256.799,332.016,266.623,313.57,278.614,305.462z"/>
		</g>
		<g>
			<path style="fill:#1CABEA;" d="M637.135,384.893c0.024,7.998-6.455,14.502-14.44,14.502c-7.998,0.012-14.478-6.48-14.466-14.49
				c-0.012-7.986,6.468-14.49,14.466-14.465C630.693,370.415,637.197,376.907,637.135,384.893z"/>
			<path style="fill:#1CABEA;" d="M619.546,351.332c-5.744,0-10.436-4.679-10.411-10.411l0,0
				c-0.025-5.757,4.667-10.436,10.411-10.399l0,0c31.602-0.012,57.249,25.623,57.249,57.249l0,0
				c0.013,5.757-4.654,10.411-10.398,10.411l0,0c-5.757-0.024-10.424-4.679-10.424-10.436l0,0
				C655.973,367.623,639.683,351.332,619.546,351.332L619.546,351.332z"/>
			<path style="fill:#1CABEA;" d="M619.535,313.166c-5.732-0.024-10.387-4.691-10.424-10.387l0,0
				c0.037-5.781,4.692-10.423,10.436-10.448l0,0c52.729,0.025,95.439,42.698,95.428,95.403l0,0
				c0.012,5.781-4.654,10.423-10.435,10.448l0,0c-5.696-0.024-10.375-4.679-10.424-10.436l0,0
				C694.053,346.531,660.726,313.227,619.535,313.166L619.535,313.166z"/>
			<path style="fill:#1CABEA;" d="M619.535,275c-5.732-0.049-10.375-4.679-10.399-10.411l0,0
				c-0.025-5.794,4.63-10.448,10.436-10.448l0,0c73.747-0.012,133.604,59.821,133.617,133.605l0,0
				c-0.049,5.768-4.716,10.411-10.461,10.436l0,0c-5.72-0.024-10.398-4.679-10.41-10.436l0,0
				C732.219,325.488,681.83,275.086,619.535,275L619.535,275z"/>
		</g>
	</g>
</g>
<g id="Layer_1">
</g>
</svg>
