<?xml version="1.0" encoding="iso-8859-1"?>
<!-- Generator: Adobe Illustrator 17.1.0, SVG Export Plug-In . SVG Version: 6.00 Build 0)  -->
<!DOCTYPE svg PUBLIC "-//W3C//DTD SVG 1.1//EN" "http://www.w3.org/Graphics/SVG/1.1/DTD/svg11.dtd">
<svg version="1.1" xmlns="http://www.w3.org/2000/svg" xmlns:xlink="http://www.w3.org/1999/xlink" x="0px" y="0px"
	 viewBox="0 0 1009.976 1009.988" style="enable-background:new 0 0 1009.976 1009.988;" xml:space="preserve">
<g id="heart">
	<path id="label_14_" style="fill:#EFEFEF;" d="M504.988,0C226.081,0,0,226.086,0,505c0,278.883,226.081,504.988,504.988,504.988
		c278.896,0,504.988-226.105,504.988-504.988C1009.976,226.086,783.883,0,504.988,0z"/>
	<g id="icon_16_">
		<path style="fill:#434A54;" d="M556.492,548.482c-36.781,14.778-51.504,34.73-51.504,34.73s-14.723-19.952-51.517-34.73
			c-43.139-17.38-48.736-85.573,3.601-98.269c21.202-5.132,37.333,2.597,47.915,17.454c10.559-14.857,26.701-22.586,47.916-17.454
			C605.241,462.909,599.619,531.101,556.492,548.482z"/>
		<g>
			<path style="fill:#1CABEA;" d="M387.624,414.815c-0.759-0.796-1.604-1.531-2.474-2.101c-6.124-4.207-14.515-3.717-20.087,1.611
				c-52.203,49.851-54.101,132.877-4.213,185.109c6.112,6.357,16.192,6.59,22.562,0.515c6.381-6.094,6.602-16.205,0.526-22.549
				c-37.7-39.489-36.268-102.298,3.173-140.023C393.491,431.296,393.699,421.233,387.624,414.815z"/>
			<path style="fill:#1CABEA;" d="M287.959,505.165c1.041-44.774,19.414-86.436,51.774-117.352
				c6.345-6.124,6.59-16.198,0.478-22.567c-0.735-0.827-1.567-1.507-2.462-2.119c-6.075-4.232-14.514-3.742-20.087,1.592
				c-38.521,36.837-60.385,86.443-61.609,139.735c-1.213,53.268,18.385,103.811,55.203,142.357
				c6.137,6.394,16.205,6.583,22.586,0.49c6.357-6.063,6.59-16.187,0.49-22.568C303.404,592.374,286.918,549.939,287.959,505.165z"
				/>
			<path style="fill:#1CABEA;" d="M223.41,503.677c1.409-61.971,26.873-119.703,71.714-162.542
				c6.369-6.124,6.589-16.198,0.502-22.592c-0.771-0.79-1.604-1.5-2.474-2.095c-6.112-4.226-14.502-3.748-20.075,1.604
				c-51.027,48.743-79.982,114.412-81.574,184.908c-1.617,70.538,24.325,137.463,73.062,188.496
				c6.136,6.375,16.204,6.577,22.586,0.465c6.345-6.056,6.602-16.18,0.502-22.573C244.82,624.532,222.001,565.684,223.41,503.677z"
				/>
		</g>
		<g>
			<path style="fill:#1CABEA;" d="M622.328,414.815c0.783-0.796,1.604-1.531,2.486-2.101c6.124-4.207,14.514-3.717,20.074,1.611
				c52.215,49.851,54.102,132.877,4.227,185.109c-6.112,6.357-16.193,6.59-22.562,0.515c-6.393-6.094-6.589-16.205-0.526-22.549
				c37.7-39.489,36.255-102.298-3.172-140.023C616.472,431.296,616.251,421.233,622.328,414.815z"/>
			<path style="fill:#1CABEA;" d="M722.004,505.165c-1.041-44.774-19.414-86.436-51.774-117.352
				c-6.357-6.124-6.602-16.198-0.489-22.567c0.734-0.827,1.556-1.507,2.462-2.119c6.075-4.232,14.526-3.742,20.1,1.592
				c38.521,36.837,60.396,86.443,61.597,139.735c1.213,53.268-18.385,103.811-55.191,142.357c-6.124,6.394-16.204,6.583-22.586,0.49
				c-6.369-6.063-6.589-16.187-0.489-22.568C706.559,592.374,723.033,549.939,722.004,505.165z"/>
			<path style="fill:#1CABEA;" d="M786.553,503.677c-1.409-61.971-26.873-119.703-71.714-162.542
				c-6.369-6.124-6.59-16.198-0.515-22.592c0.796-0.79,1.604-1.5,2.486-2.095c6.087-4.226,14.502-3.748,20.087,1.604
				c51.015,48.743,79.97,114.412,81.574,184.908c1.604,70.538-24.325,137.463-73.086,188.496
				c-6.124,6.375-16.204,6.577-22.573,0.465c-6.357-6.056-6.614-16.18-0.503-22.573C765.13,624.532,787.961,565.684,786.553,503.677
				z"/>
		</g>
	</g>
</g>
<g id="Layer_1">
</g>
</svg>
