<?xml version="1.0" encoding="iso-8859-1"?>
<!-- Generator: Adobe Illustrator 17.1.0, SVG Export Plug-In . SVG Version: 6.00 Build 0)  -->
<!DOCTYPE svg PUBLIC "-//W3C//DTD SVG 1.1//EN" "http://www.w3.org/Graphics/SVG/1.1/DTD/svg11.dtd">
<svg version="1.1" xmlns="http://www.w3.org/2000/svg" xmlns:xlink="http://www.w3.org/1999/xlink" x="0px" y="0px"
	 viewBox="0 0 1009.976 1009.988" style="enable-background:new 0 0 1009.976 1009.988;" xml:space="preserve">
<g id="mail">
	<path id="label_19_" style="fill:#EFEFEF;" d="M504.988,0C226.092,0,0,226.117,0,504.988c0,278.908,226.092,505,504.988,505
		s504.988-226.093,504.988-505C1009.976,226.117,783.883,0,504.988,0z"/>
	<g id="icon_21_">
		<path style="fill:#434A54;" d="M415.452,539.492L254.141,711.991V406.958L415.452,539.492z M603.783,538.022l152.052,166.185
			V407.926L603.783,538.022z M519.501,610.128l-8.818,7.569l-9.039-7.404l-64.61-53.097l-159.56,170.558h462.217L582.618,556.119
			L519.501,610.128z"/>
		<g>
			<path style="fill:#1CABEA;" d="M581.38,498.294l26.555-22.721c-0.478-0.656-0.783-1.396-1.371-2.015
				c-55.522-57.182-147.116-58.608-204.475-3.332l27.632,22.69c43.494-38.882,110.48-36.953,151.524,5.255
				C581.295,498.227,581.344,498.239,581.38,498.294z"/>
			<path style="fill:#1CABEA;" d="M639.769,448.339l25.023-21.404c-0.821-2.253-1.973-4.397-3.748-6.228
				c-23.701-24.405-52.129-42.404-83.167-53.642c-22.831-8.237-47.033-12.953-72.02-13.314c-27.216-0.392-53.66,4.324-78.512,13.314
				c-28.992,10.509-55.767,26.94-78.549,49.061c-2.033,1.972-3.405,4.312-4.287,6.804l25.586,21.012
				c1.164-0.698,2.291-1.482,3.319-2.48c35.533-34.516,82.371-53.14,131.928-52.423c49.52,0.772,95.831,20.706,130.322,56.263
				C636.903,446.576,638.311,447.525,639.769,448.339z"/>
			<path style="fill:#1CABEA;" d="M310.705,395.157c4.63,0.165,9.32-1.457,12.922-4.942c8.745-8.513,18.152-16.058,27.84-23.149
				c44.755-32.728,98.489-50.268,154.918-49.416c53.893,0.741,104.895,18.183,147.531,49.416
				c11.648,8.525,22.782,17.901,33.046,28.453c2.499,2.554,5.585,4.177,8.831,4.899l21.398-18.305
				c-0.245-4.073-1.838-8.065-4.888-11.213c-1.286-1.316-2.608-2.535-3.907-3.833c-53.966-53.544-125.288-83.644-201.498-84.79
				c-78.046-1.133-151.903,28.22-207.891,82.572c-0.723,0.692-1.31,1.445-1.887,2.217c-3.147,4.268-4.127,9.572-2.964,14.514
				L310.705,395.157z"/>
			<path style="fill:#1CABEA;" d="M487.215,510.065c-6.455,6.442-9.027,15.164-7.974,23.535c0.76,6.002,3.319,11.795,7.912,16.407
				c6.002,6.014,14.049,8.635,21.912,8.09l1.237,1.004l1.458-1.261c5.622-0.931,11.023-3.497,15.371-7.833
				c3.197-3.197,5.354-7.012,6.688-11.036c3.283-9.836,1.127-21.067-6.688-28.906C516.084,499.035,498.153,499.035,487.215,510.065z
				"/>
		</g>
	</g>
</g>
<g id="Layer_1">
</g>
</svg>
