<?xml version="1.0" encoding="iso-8859-1"?>
<!-- Generator: Adobe Illustrator 17.1.0, SVG Export Plug-In . SVG Version: 6.00 Build 0)  -->
<!DOCTYPE svg PUBLIC "-//W3C//DTD SVG 1.1//EN" "http://www.w3.org/Graphics/SVG/1.1/DTD/svg11.dtd">
<svg version="1.1" xmlns="http://www.w3.org/2000/svg" xmlns:xlink="http://www.w3.org/1999/xlink" x="0px" y="0px"
	 viewBox="0 0 1009.976 1009.976" style="enable-background:new 0 0 1009.976 1009.976;" xml:space="preserve">
<g id="satellite-3">
	<path id="label_30_" style="fill:#EFEFEF;" d="M504.988,0C226.092,0,0,226.08,0,505c0,278.871,226.092,504.976,504.988,504.976
		S1009.976,783.871,1009.976,505C1009.976,226.08,783.883,0,504.988,0z"/>
	<g id="icon_32_">
		<g>
			<path style="fill:#1CABEA;" d="M640.381,336.242c18.862,0.22,33.965,15.629,33.817,34.516c-0.037,5.389,4.275,9.799,9.676,9.848
				c5.378,0.049,9.811-4.287,9.86-9.676c0.282-29.665-23.479-53.893-53.145-54.187c-5.401-0.098-9.823,4.262-9.897,9.627
				C630.656,331.759,635.004,336.168,640.381,336.242z"/>
			<path style="fill:#1CABEA;" d="M645.966,293.936c38.631,0.466,69.583,32.042,69.228,70.673c-0.012,5.365,4.324,9.774,9.725,9.848
				c5.365,0.073,9.786-4.263,9.848-9.676c0.453-49.41-39.183-89.854-88.58-90.344c-5.401-0.049-9.836,4.262-9.885,9.627
				C636.265,289.502,640.614,293.887,645.966,293.936z"/>
		</g>
		<path style="fill:#434A54;" d="M612.578,471.856l-74.471-74.446c-7.667-7.692-20.234-7.692-27.914,0L386.767,520.849
			c-7.68,7.643-7.68,20.21,0,27.926l74.446,74.446c7.667,7.667,20.234,7.667,27.914,0l123.451-123.463
			C620.245,492.09,620.245,479.523,612.578,471.856z"/>
		<path style="fill:#434A54;" d="M738.527,608.229L619.424,535.67c-8.513-4.997-18.789-6.247-26.456,1.47l-55.841,55.828
			c-7.692,7.667-6.234,18.201-1.47,26.432l72.571,119.152c6.896,6.883,18.789,6.222,26.482-1.471l102.371-102.347
			C744.738,627.042,745.423,615.137,738.527,608.229z"/>
		<path style="fill:#434A54;" d="M417.02,472.86l55.828-55.853c7.68-7.667,6.491-17.932,1.47-26.432l-72.584-119.152
			c-6.883-6.859-18.776-6.222-26.469,1.47L272.906,375.241c-7.692,7.717-8.341,19.622-1.47,26.505l119.103,72.584
			C398.807,479.058,409.34,480.552,417.02,472.86z"/>
		<path style="fill:#434A54;" d="M383.558,557.203c-5.769-5.781-38.411,17.491-44.217,23.272c-5.769,5.756-5.769,15.163,0,20.944
			l69.24,69.179c5.781,5.806,15.151,5.806,20.945,0.025c5.768-5.757,29.04-38.411,23.271-44.217L383.558,557.203z"/>
		<path style="fill:#434A54;" d="M614.476,453.998c33.939,13.474,73.441,8.599,103.254-14.747l-147.006-147.03
			c-23.345,29.837-28.207,69.351-14.722,103.278L614.476,453.998z"/>
	</g>
</g>
<g id="Layer_1">
</g>
</svg>
