<?xml version="1.0" encoding="iso-8859-1"?>
<!-- Generator: Adobe Illustrator 17.1.0, SVG Export Plug-In . SVG Version: 6.00 Build 0)  -->
<!DOCTYPE svg PUBLIC "-//W3C//DTD SVG 1.1//EN" "http://www.w3.org/Graphics/SVG/1.1/DTD/svg11.dtd">
<svg version="1.1" xmlns="http://www.w3.org/2000/svg" xmlns:xlink="http://www.w3.org/1999/xlink" x="0px" y="0px"
	 viewBox="0 0 1009.976 1009.976" style="enable-background:new 0 0 1009.976 1009.976;" xml:space="preserve">
<g id="wifi-point">
	<path id="label_18_" style="fill:#EFEFEF;" d="M504.988,0C226.092,0,0,226.092,0,505c0,278.882,226.092,504.976,504.988,504.976
		S1009.976,783.882,1009.976,505C1009.976,226.092,783.883,0,504.988,0z"/>
	<g id="icon_20_">
		<path style="fill-rule:evenodd;clip-rule:evenodd;fill:#1CABEA;" d="M360.531,625.322c6.736,6.148-10.338,22.2-16.046,16.027
			c-88.653-88.561-88.653-232.205,0-320.797c88.642-88.544,232.389-88.544,320.993,0c88.666,88.592,88.666,232.235,0,320.797
			c-7.324,7.723-23.063-8.892-16.045-16.027c79.798-79.7,79.798-209,0-288.712c-79.762-79.712-209.141-79.712-288.902,0
			C280.757,416.322,280.757,545.622,360.531,625.322"/>
		<path style="fill-rule:evenodd;clip-rule:evenodd;fill:#1CABEA;" d="M392.633,368.676c-62.087,62.025-62.087,162.542,0,224.549
			c7.104,5.977,22.157-9.486,15.997-16.002c-53.158-53.134-53.158-139.387,0-192.52c53.219-53.145,139.508-53.145,192.63,0
			c53.183,53.133,53.183,139.386,0,192.52c-6.933,7.557,8.843,23.388,16.069,16.002c62.038-62.007,62.038-162.524,0-224.549
			C555.292,306.705,454.635,306.705,392.633,368.676"/>
		<path style="fill-rule:evenodd;clip-rule:evenodd;fill:#1CABEA;" d="M440.77,416.769c-35.447,35.435-35.447,92.916,0,128.338
			c7.092,7.239,22.096-8.476,16.045-16.064c-26.603-26.524-26.603-69.663,0-96.217c26.542-26.543,69.718-26.543,96.309,0
			c26.555,26.554,26.555,69.693,0,96.217c-6.993,7.931,8.88,23.86,16.07,16.064c35.41-35.422,35.41-92.904,0-128.338
			C533.711,381.365,476.216,381.365,440.77,416.769"/>
		<path style="fill-rule:evenodd;clip-rule:evenodd;fill:#434A54;" d="M504.976,509.863c15.053,0,27.387-12.261,27.387-27.388
			c0-14.961-12.334-27.295-27.387-27.295c-15.041,0-27.363,12.334-27.363,27.295C477.613,497.602,489.935,509.863,504.976,509.863"
			/>
		<path style="fill-rule:evenodd;clip-rule:evenodd;fill:#434A54;" d="M541.415,570.712c0.159,69.283-11.624,120.408-17.466,180.614
			c-0.05,6.008-38.632,6.008-38.669,0c-5.634-60.207-17-114.424-16.755-180.614c-0.245-37.039,18.593-42.024,36.451-42.024
			C523.667,528.688,541.574,535.529,541.415,570.712"/>
	</g>
</g>
<g id="Layer_1">
</g>
</svg>
