<?xml version="1.0" encoding="utf-8"?>
<!-- Generator: Adobe Illustrator 16.0.0, SVG Export Plug-In . SVG Version: 6.00 Build 0)  -->
<!DOCTYPE svg PUBLIC "-//W3C//DTD SVG 1.1//EN" "http://www.w3.org/Graphics/SVG/1.1/DTD/svg11.dtd">
<svg version="1.1" id="Layer_1" xmlns="http://www.w3.org/2000/svg" xmlns:xlink="http://www.w3.org/1999/xlink" x="0px" y="0px"
	 width="64px" height="64px" viewBox="0 0 64 64" enable-background="new 0 0 64 64" xml:space="preserve">
<g>
	<g>
		<rect x="11" y="30" fill="#FFECB3" width="43" height="26"/>
		<path fill="#37474F" d="M54,57H11c-0.6,0-1-0.4-1-1V30c0-0.6,0.4-1,1-1h43c0.6,0,1,0.4,1,1v26C55,56.6,54.6,57,54,57z M12,55h41
			V31H12V55z"/>
	</g>
	<g>
		<rect x="11" y="30" fill="#FFFFFF" width="12" height="26"/>
		<path fill="#37474F" d="M23,57H11c-0.6,0-1-0.4-1-1V30c0-0.6,0.4-1,1-1h12c0.6,0,1,0.4,1,1v26C24,56.6,23.6,57,23,57z M12,55h10
			V31H12V55z"/>
	</g>
	<g>
		<line fill="#FFFFFF" x1="18" y1="45" x2="20" y2="45"/>
		<path fill="#37474F" d="M20,46h-2c-0.6,0-1-0.4-1-1s0.4-1,1-1h2c0.6,0,1,0.4,1,1S20.6,46,20,46z"/>
	</g>
	<g>
		<line fill="#FFFFFF" x1="36.1" y1="49.1" x2="47.8" y2="37.4"/>
		<path fill="#37474F" d="M36.1,50.1c-0.3,0-0.5-0.1-0.7-0.3c-0.4-0.4-0.4-1,0-1.4l11.7-11.7c0.4-0.4,1-0.4,1.4,0s0.4,1,0,1.4
			L36.8,49.8C36.6,50,36.4,50.1,36.1,50.1z"/>
	</g>
	<g>
		<line fill="#FFFFFF" x1="41.8" y1="50.5" x2="48.1" y2="44.2"/>
		<path fill="#37474F" d="M41.8,51.5c-0.3,0-0.5-0.1-0.7-0.3c-0.4-0.4-0.4-1,0-1.4l6.3-6.3c0.4-0.4,1-0.4,1.4,0s0.4,1,0,1.4
			l-6.3,6.3C42.3,51.4,42.1,51.5,41.8,51.5z"/>
	</g>
	<g>
		<line fill="#FFFFFF" x1="2" y1="56" x2="62" y2="56"/>
		<path fill="#37474F" d="M62,57H2c-0.6,0-1-0.4-1-1s0.4-1,1-1h60c0.6,0,1,0.4,1,1S62.6,57,62,57z"/>
	</g>
	<g>
		<g>
			<path fill="#FFFFFF" d="M6,18v9.3c0,1.4,1.8,2.5,4,2.5s4-1.1,4-2.5V18H6z"/>
			<path fill="#37474F" d="M10,30.8c-2.8,0-5-1.5-5-3.5V18c0-0.6,0.4-1,1-1h8c0.6,0,1,0.4,1,1v9.3C15,29.3,12.8,30.8,10,30.8z M7,19
				v8.3c0,0.6,1.2,1.5,3,1.5c1.8,0,3-0.9,3-1.5V19H7z"/>
		</g>
		<g>
			<path fill="#FFAB00" d="M13,18v9.3c0,1.4,1.8,2.5,4,2.5s4-1.1,4-2.5V18H13z"/>
			<path fill="#37474F" d="M17,30.8c-2.8,0-5-1.5-5-3.5V18c0-0.6,0.4-1,1-1h8c0.6,0,1,0.4,1,1v9.3C22,29.3,19.8,30.8,17,30.8z
				 M14,19v8.3c0,0.6,1.2,1.5,3,1.5c1.8,0,3-0.9,3-1.5V19H14z"/>
		</g>
		<g>
			<path fill="#FFFFFF" d="M21,18v9.3c0,1.4,1.3,2.5,3.5,2.5s3.5-1.1,3.5-2.5V18H21z"/>
			<path fill="#37474F" d="M24.5,30.8c-3,0-4.5-1.7-4.5-3.5V18c0-0.6,0.4-1,1-1h7c0.6,0,1,0.4,1,1v9.3C29,29.1,27.5,30.8,24.5,30.8z
				 M22,19v8.3c0,0.9,1,1.5,2.5,1.5s2.5-0.6,2.5-1.5V19H22z"/>
		</g>
		<g>
			<path fill="#FFAB00" d="M28,18v9.3c0,1.4,1.8,2.5,4,2.5s4-1.1,4-2.5V18H28z"/>
			<path fill="#37474F" d="M32,30.8c-2.8,0-5-1.5-5-3.5V18c0-0.6,0.4-1,1-1h8c0.6,0,1,0.4,1,1v9.3C37,29.3,34.8,30.8,32,30.8z
				 M29,19v8.3c0,0.6,1.2,1.5,3,1.5c1.8,0,3-0.9,3-1.5V19H29z"/>
		</g>
		<g>
			<path fill="#FFFFFF" d="M35,18v9.3c0,1.4,1.8,2.5,4,2.5c2.2,0,4-1.1,4-2.5V18H35z"/>
			<path fill="#37474F" d="M39,30.8c-2.8,0-5-1.5-5-3.5V18c0-0.6,0.4-1,1-1h8c0.6,0,1,0.4,1,1v9.3C44,29.3,41.8,30.8,39,30.8z
				 M36,19v8.3c0,0.6,1.2,1.5,3,1.5c1.8,0,3-0.9,3-1.5V19H36z"/>
		</g>
		<g>
			<path fill="#FFAB00" d="M43,18v9.3c0,1.4,1.8,2.5,4,2.5s4-1.1,4-2.5V18H43z"/>
			<path fill="#37474F" d="M47,30.8c-2.8,0-5-1.5-5-3.5V18c0-0.6,0.4-1,1-1h8c0.6,0,1,0.4,1,1v9.3C52,29.3,49.8,30.8,47,30.8z
				 M44,19v8.3c0,0.6,1.2,1.5,3,1.5c1.8,0,3-0.9,3-1.5V19H44z"/>
		</g>
		<g>
			<path fill="#FFFFFF" d="M50,18v9.3c0,1.4,1.8,2.5,4,2.5s4-1.1,4-2.5V18H50z"/>
			<path fill="#37474F" d="M54,30.8c-2.8,0-5-1.5-5-3.5V18c0-0.6,0.4-1,1-1h8c0.6,0,1,0.4,1,1v9.3C59,29.3,56.8,30.8,54,30.8z
				 M51,19v8.3c0,0.6,1.2,1.5,3,1.5c1.8,0,3-0.9,3-1.5V19H51z"/>
		</g>
	</g>
	<g>
		<polygon fill="#FFECB3" points="57.8,18 5.9,18 12.8,9 50.9,9 		"/>
		<path fill="#37474F" d="M57.9,19C57.9,19,57.8,19,57.9,19H5.9c-0.4,0-0.7-0.2-0.9-0.6c-0.2-0.3-0.1-0.7,0.1-1.1l6.9-9
			C12.2,8.1,12.5,8,12.8,8h38.1c0.3,0,0.6,0.1,0.8,0.4l6.8,8.9c0.2,0.2,0.3,0.4,0.3,0.7C58.9,18.6,58.4,19,57.9,19z M8,17h47.8
			l-5.4-7H13.3L8,17z"/>
	</g>
</g>
</svg>
