<?xml version="1.0" encoding="utf-8"?>
<!-- Generator: Adobe Illustrator 16.0.0, SVG Export Plug-In . SVG Version: 6.00 Build 0)  -->
<!DOCTYPE svg PUBLIC "-//W3C//DTD SVG 1.1//EN" "http://www.w3.org/Graphics/SVG/1.1/DTD/svg11.dtd">
<svg version="1.1" id="Layer_1" xmlns="http://www.w3.org/2000/svg" xmlns:xlink="http://www.w3.org/1999/xlink" x="0px" y="0px"
	 width="32px" height="32px" viewBox="0 0 32 32" enable-background="new 0 0 32 32" xml:space="preserve">
<g>
	<g>
		<path fill="#FFFFFF" d="M30.5,18v3.1c0,3-2.9,5.4-5.9,5.4H7.4c-3,0-5.9-2.4-5.9-5.4V18"/>
		<path fill="#37474F" d="M24.6,27H7.4C4,27,1,24.2,1,21.1V18c0-0.3,0.2-0.5,0.5-0.5S2,17.7,2,18v3.1C2,23.7,4.5,26,7.4,26h17.2
			c2.9,0,5.4-2.3,5.4-4.9V18c0-0.3,0.2-0.5,0.5-0.5S31,17.7,31,18v3.1C31,24.2,28,27,24.6,27z"/>
	</g>
	<g>
		<g>
			<line fill="#FFFFFF" x1="2.8" y1="29.1" x2="5.4" y2="26.4"/>
			<path fill="#37474F" d="M2.8,29.6c-0.1,0-0.3,0-0.4-0.1c-0.2-0.2-0.2-0.5,0-0.7L5,26.1c0.2-0.2,0.5-0.2,0.7,0s0.2,0.5,0,0.7
				l-2.6,2.6C3,29.5,2.9,29.6,2.8,29.6z"/>
		</g>
		<g>
			<line fill="#FFFFFF" x1="29.2" y1="29.1" x2="26.6" y2="26.4"/>
			<path fill="#37474F" d="M29.2,29.6c-0.1,0-0.3,0-0.4-0.1l-2.6-2.6c-0.2-0.2-0.2-0.5,0-0.7s0.5-0.2,0.7,0l2.6,2.6
				c0.2,0.2,0.2,0.5,0,0.7C29.5,29.5,29.4,29.6,29.2,29.6z"/>
		</g>
	</g>
	<g>
		<path fill="#FFAB00" d="M31.4,16c0,0.9-0.7,1.5-1.6,1.5H2.2c-0.9,0-1.6-0.6-1.6-1.5l0,0c0-0.9,0.7-1.5,1.6-1.5h27.6
			C30.7,14.5,31.4,15.1,31.4,16L31.4,16z"/>
		<path fill="#37474F" d="M29.8,18H2.2c-1.2,0-2.1-0.9-2.1-2c0-1.1,0.9-2,2.1-2h27.6c1.2,0,2.1,0.9,2.1,2C31.9,17.1,31,18,29.8,18z
			 M2.2,15c-0.5,0-1.1,0.3-1.1,1s0.6,1,1.1,1h27.6c0.5,0,1.1-0.3,1.1-1s-0.6-1-1.1-1H2.2z"/>
	</g>
	<g>
		<g>
			<path fill="#FFECB3" d="M3.5,12V5.4c0-1.4,0.8-2.9,2.1-2.9h1.2c1.4,0,2.7,1.5,2.7,2.8"/>
			<path fill="#37474F" d="M3.5,12.5C3.2,12.5,3,12.3,3,12V5.4C3,3.7,4,2,5.6,2h1.2C8.4,2,10,3.6,10,5.3c0,0.3-0.2,0.5-0.5,0.5
				S9,5.6,9,5.3C9,4.2,7.9,3,6.8,3H5.6C4.6,3,4,4.3,4,5.4V12C4,12.3,3.8,12.5,3.5,12.5z"/>
		</g>
		<g>
			<line fill="#FFECB3" x1="2" y1="12.5" x2="5" y2="12.5"/>
			<path fill="#37474F" d="M5,13H2c-0.3,0-0.5-0.2-0.5-0.5S1.7,12,2,12h3c0.3,0,0.5,0.2,0.5,0.5S5.3,13,5,13z"/>
		</g>
	</g>
</g>
</svg>
