<?xml version="1.0" encoding="utf-8"?>
<!-- Generator: Adobe Illustrator 16.0.0, SVG Export Plug-In . SVG Version: 6.00 Build 0)  -->
<!DOCTYPE svg PUBLIC "-//W3C//DTD SVG 1.1//EN" "http://www.w3.org/Graphics/SVG/1.1/DTD/svg11.dtd">
<svg version="1.1" id="Layer_1" xmlns="http://www.w3.org/2000/svg" xmlns:xlink="http://www.w3.org/1999/xlink" x="0px" y="0px"
	 width="65px" height="65px" viewBox="0 0 65 65" enable-background="new 0 0 65 65" xml:space="preserve">
<g>
	<g>
		<polyline fill="#FFECB3" points="26.2,10.6 32.5,1.1 38.2,10.2 		"/>
		<path fill="#37474F" d="M26.2,11.5c-0.2,0-0.4-0.1-0.5-0.2c-0.4-0.3-0.5-0.9-0.3-1.3l6.3-9.5c0.2-0.3,0.5-0.4,0.8-0.4
			c0.3,0,0.6,0.2,0.8,0.4L39,9.7c0.3,0.4,0.1,1-0.3,1.3c-0.4,0.3-1,0.1-1.3-0.3l-5-7.9l-5.5,8.3C26.8,11.3,26.5,11.5,26.2,11.5z"/>
	</g>
	<g>
		<g>
			<rect x="18.5" y="14.5" fill="#FFAB00" width="28" height="49"/>
			<path fill="#37474F" d="M46.5,64.5h-28c-0.6,0-1-0.4-1-1v-49c0-0.6,0.4-1,1-1h28c0.6,0,1,0.4,1,1v49
				C47.5,64.1,47.1,64.5,46.5,64.5z M19.5,62.5h26v-47h-26V62.5z"/>
		</g>
		<g>
			<g>
				<polyline fill="#FFFFFF" points="26.5,24.5 21.5,24.5 21.5,19.5 				"/>
				<path fill="#37474F" d="M26.5,25.5h-5c-0.6,0-1-0.4-1-1v-5c0-0.6,0.4-1,1-1s1,0.4,1,1v4h4c0.6,0,1,0.4,1,1S27.1,25.5,26.5,25.5z
					"/>
			</g>
			<g>
				<polyline fill="#FFFFFF" points="35.5,24.5 29.5,24.5 29.5,19.5 				"/>
				<path fill="#37474F" d="M35.5,25.5h-6c-0.6,0-1-0.4-1-1v-5c0-0.6,0.4-1,1-1s1,0.4,1,1v4h5c0.6,0,1,0.4,1,1S36.1,25.5,35.5,25.5z
					"/>
			</g>
			<g>
				<polyline fill="#FFFFFF" points="43.5,24.5 38.5,24.5 38.5,19.5 				"/>
				<path fill="#37474F" d="M43.5,25.5h-5c-0.6,0-1-0.4-1-1v-5c0-0.6,0.4-1,1-1s1,0.4,1,1v4h4c0.6,0,1,0.4,1,1S44.1,25.5,43.5,25.5z
					"/>
			</g>
		</g>
		<g>
			<g>
				<polyline fill="#FFFFFF" points="26.5,33.5 21.5,33.5 21.5,28.5 				"/>
				<path fill="#37474F" d="M26.5,34.5h-5c-0.6,0-1-0.4-1-1v-5c0-0.6,0.4-1,1-1s1,0.4,1,1v4h4c0.6,0,1,0.4,1,1
					C27.5,34.1,27.1,34.5,26.5,34.5z"/>
			</g>
			<g>
				<polyline fill="#FFFFFF" points="35.5,33.5 29.5,33.5 29.5,28.5 				"/>
				<path fill="#37474F" d="M35.5,34.5h-6c-0.6,0-1-0.4-1-1v-5c0-0.6,0.4-1,1-1s1,0.4,1,1v4h5c0.6,0,1,0.4,1,1
					C36.5,34.1,36.1,34.5,35.5,34.5z"/>
			</g>
			<g>
				<polyline fill="#FFFFFF" points="43.5,33.5 38.5,33.5 38.5,28.5 				"/>
				<path fill="#37474F" d="M43.5,34.5h-5c-0.6,0-1-0.4-1-1v-5c0-0.6,0.4-1,1-1s1,0.4,1,1v4h4c0.6,0,1,0.4,1,1
					C44.5,34.1,44.1,34.5,43.5,34.5z"/>
			</g>
		</g>
		<g>
			<g>
				<polyline fill="#FFFFFF" points="26.5,43.5 21.5,43.5 21.5,38.5 				"/>
				<path fill="#37474F" d="M26.5,44.5h-5c-0.6,0-1-0.4-1-1v-5c0-0.6,0.4-1,1-1s1,0.4,1,1v4h4c0.6,0,1,0.4,1,1S27.1,44.5,26.5,44.5z
					"/>
			</g>
			<g>
				<polyline fill="#FFFFFF" points="35.5,43.5 29.5,43.5 29.5,38.5 				"/>
				<path fill="#37474F" d="M35.5,44.5h-6c-0.6,0-1-0.4-1-1v-5c0-0.6,0.4-1,1-1s1,0.4,1,1v4h5c0.6,0,1,0.4,1,1S36.1,44.5,35.5,44.5z
					"/>
			</g>
			<g>
				<polyline fill="#FFFFFF" points="43.5,43.5 38.5,43.5 38.5,38.5 				"/>
				<path fill="#37474F" d="M43.5,44.5h-5c-0.6,0-1-0.4-1-1v-5c0-0.6,0.4-1,1-1s1,0.4,1,1v4h4c0.6,0,1,0.4,1,1S44.1,44.5,43.5,44.5z
					"/>
			</g>
		</g>
		<g>
			<g>
				<polyline fill="#FFFFFF" points="26.5,52.5 21.5,52.5 21.5,47.5 				"/>
				<path fill="#37474F" d="M26.5,53.5h-5c-0.6,0-1-0.4-1-1v-5c0-0.6,0.4-1,1-1s1,0.4,1,1v4h4c0.6,0,1,0.4,1,1S27.1,53.5,26.5,53.5z
					"/>
			</g>
			<g>
				<polyline fill="#FFFFFF" points="35.5,52.5 29.5,52.5 29.5,47.5 				"/>
				<path fill="#37474F" d="M35.5,53.5h-6c-0.6,0-1-0.4-1-1v-5c0-0.6,0.4-1,1-1s1,0.4,1,1v4h5c0.6,0,1,0.4,1,1S36.1,53.5,35.5,53.5z
					"/>
			</g>
			<g>
				<polyline fill="#FFFFFF" points="43.5,52.5 38.5,52.5 38.5,47.5 				"/>
				<path fill="#37474F" d="M43.5,53.5h-5c-0.6,0-1-0.4-1-1v-5c0-0.6,0.4-1,1-1s1,0.4,1,1v4h4c0.6,0,1,0.4,1,1S44.1,53.5,43.5,53.5z
					"/>
			</g>
		</g>
		<g>
			<g>
				<line fill="#FFFFFF" x1="21.5" y1="61.5" x2="21.5" y2="56.5"/>
				<path fill="#37474F" d="M21.5,62.5c-0.6,0-1-0.4-1-1v-5c0-0.6,0.4-1,1-1s1,0.4,1,1v5C22.5,62.1,22.1,62.5,21.5,62.5z"/>
			</g>
			<g>
				<line fill="#FFFFFF" x1="43.5" y1="61.5" x2="43.5" y2="56.5"/>
				<path fill="#37474F" d="M43.5,62.5c-0.6,0-1-0.4-1-1v-5c0-0.6,0.4-1,1-1s1,0.4,1,1v5C44.5,62.1,44.1,62.5,43.5,62.5z"/>
			</g>
		</g>
		<g>
			<rect x="29.5" y="55.5" fill="#FFECB3" width="6" height="8"/>
			<path fill="#37474F" d="M35.5,64.5h-6c-0.6,0-1-0.4-1-1v-8c0-0.6,0.4-1,1-1h6c0.6,0,1,0.4,1,1v8C36.5,64.1,36.1,64.5,35.5,64.5z
				 M30.5,62.5h4v-6h-4V62.5z"/>
		</g>
		<g>
			<g>
				<g>
					<rect x="6.5" y="41.5" fill="#FFECB3" width="12" height="22"/>
					<path fill="#37474F" d="M18.5,64.5h-12c-0.6,0-1-0.4-1-1v-22c0-0.6,0.4-1,1-1h12c0.6,0,1,0.4,1,1v22
						C19.5,64.1,19.1,64.5,18.5,64.5z M7.5,62.5h10v-20h-10V62.5z"/>
				</g>
				<g>
					<line fill="#FFECB3" x1="12.5" y1="41.5" x2="12.5" y2="62.5"/>
					<path fill="#37474F" d="M12.5,63.5c-0.6,0-1-0.4-1-1v-21c0-0.6,0.4-1,1-1s1,0.4,1,1v21C13.5,63.1,13.1,63.5,12.5,63.5z"/>
				</g>
				<g>
					<line fill="#FFECB3" x1="6.5" y1="47.5" x2="17.5" y2="47.5"/>
					<path fill="#37474F" d="M17.5,48.5h-11c-0.6,0-1-0.4-1-1s0.4-1,1-1h11c0.6,0,1,0.4,1,1S18.1,48.5,17.5,48.5z"/>
				</g>
				<g>
					<line fill="#FFECB3" x1="6.5" y1="52.5" x2="17.5" y2="52.5"/>
					<path fill="#37474F" d="M17.5,53.5h-11c-0.6,0-1-0.4-1-1s0.4-1,1-1h11c0.6,0,1,0.4,1,1S18.1,53.5,17.5,53.5z"/>
				</g>
				<g>
					<line fill="#FFECB3" x1="6.5" y1="57.5" x2="17.5" y2="57.5"/>
					<path fill="#37474F" d="M17.5,58.5h-11c-0.6,0-1-0.4-1-1s0.4-1,1-1h11c0.6,0,1,0.4,1,1S18.1,58.5,17.5,58.5z"/>
				</g>
			</g>
			<g>
				<g>
					<rect x="46.5" y="41.5" fill="#FFECB3" width="12" height="22"/>
					<path fill="#37474F" d="M58.5,64.5h-12c-0.6,0-1-0.4-1-1v-22c0-0.6,0.4-1,1-1h12c0.6,0,1,0.4,1,1v22
						C59.5,64.1,59.1,64.5,58.5,64.5z M47.5,62.5h10v-20h-10V62.5z"/>
				</g>
				<g>
					<line fill="#FFECB3" x1="52.5" y1="41.5" x2="52.5" y2="62.5"/>
					<path fill="#37474F" d="M52.5,63.5c-0.6,0-1-0.4-1-1v-21c0-0.6,0.4-1,1-1s1,0.4,1,1v21C53.5,63.1,53.1,63.5,52.5,63.5z"/>
				</g>
				<g>
					<line fill="#FFECB3" x1="46.5" y1="47.5" x2="57.5" y2="47.5"/>
					<path fill="#37474F" d="M57.5,48.5h-11c-0.6,0-1-0.4-1-1s0.4-1,1-1h11c0.6,0,1,0.4,1,1S58.1,48.5,57.5,48.5z"/>
				</g>
				<g>
					<line fill="#FFECB3" x1="46.5" y1="52.5" x2="57.5" y2="52.5"/>
					<path fill="#37474F" d="M57.5,53.5h-11c-0.6,0-1-0.4-1-1s0.4-1,1-1h11c0.6,0,1,0.4,1,1S58.1,53.5,57.5,53.5z"/>
				</g>
				<g>
					<line fill="#FFECB3" x1="46.5" y1="57.5" x2="57.5" y2="57.5"/>
					<path fill="#37474F" d="M57.5,58.5h-11c-0.6,0-1-0.4-1-1s0.4-1,1-1h11c0.6,0,1,0.4,1,1S58.1,58.5,57.5,58.5z"/>
				</g>
			</g>
		</g>
		<g>
			<rect x="22.5" y="10.5" fill="#FFECB3" width="20" height="4"/>
			<path fill="#37474F" d="M42.5,15.5h-20c-0.6,0-1-0.4-1-1v-4c0-0.6,0.4-1,1-1h20c0.6,0,1,0.4,1,1v4C43.5,15.1,43.1,15.5,42.5,15.5
				z M23.5,13.5h18v-2h-18V13.5z"/>
		</g>
	</g>
</g>
</svg>
