<?xml version="1.0" encoding="utf-8"?>
<!-- Generator: Adobe Illustrator 16.0.0, SVG Export Plug-In . SVG Version: 6.00 Build 0)  -->
<!DOCTYPE svg PUBLIC "-//W3C//DTD SVG 1.1//EN" "http://www.w3.org/Graphics/SVG/1.1/DTD/svg11.dtd">
<svg version="1.1" id="Layer_1" xmlns="http://www.w3.org/2000/svg" xmlns:xlink="http://www.w3.org/1999/xlink" x="0px" y="0px"
	 width="128px" height="128px" viewBox="0 0 128 128" enable-background="new 0 0 128 128" xml:space="preserve">
<g>
	<g>
		<path fill="#FFFFFF" d="M108.5,64.4c0,24.5-19.9,44.4-44.4,44.4c-24.6,0-44.5-19.9-44.5-44.4c0-24.6,19.9-44.5,44.5-44.5
			C88.5,19.9,108.5,39.8,108.5,64.4z"/>
		<path fill="#37474F" d="M64,110.3c-25.3,0-46-20.6-46-45.9c0-25.3,20.6-46,46-46c25.3,0,45.9,20.6,45.9,46
			C110,89.7,89.3,110.3,64,110.3z M64,21.4c-23.7,0-43,19.3-43,43c0,23.7,19.3,42.9,43,42.9c23.7,0,42.9-19.3,42.9-42.9
			C107,40.7,87.7,21.4,64,21.4z"/>
	</g>
	<g>
		<g>
			<rect x="59.3" y="2.5" fill="#FFAB00" width="9" height="80"/>
			<path fill="#37474F" d="M68.3,84h-9c-0.8,0-1.5-0.7-1.5-1.5v-80c0-0.8,0.7-1.5,1.5-1.5h9c0.8,0,1.5,0.7,1.5,1.5v80
				C69.8,83.3,69.2,84,68.3,84z M60.8,81h6V4h-6V81z"/>
		</g>
		<g>
			<g>
				<polygon fill="#FFECB3" points="94.3,125.5 33.7,125.5 43.1,92.5 84.9,92.5 				"/>
				<path fill="#37474F" d="M94.3,127C94.3,127,94.3,127,94.3,127H33.7c-0.5,0-0.9-0.2-1.2-0.6c-0.3-0.4-0.4-0.9-0.2-1.3l9.4-33
					c0.2-0.6,0.8-1.1,1.4-1.1h41.8c0.7,0,1.3,0.4,1.4,1.1l9.4,32.8c0.1,0.2,0.1,0.4,0.1,0.6C95.8,126.3,95.2,127,94.3,127z
					 M35.7,124h56.6l-8.6-30H44.3L35.7,124z"/>
			</g>
			<g>
				<g>
					<g>
						<g>
							<line fill="#FFECB3" x1="46" y1="116.9" x2="51.4" y2="94.5"/>
							<path fill="#37474F" d="M46,118.4c-0.1,0-0.2,0-0.4,0c-0.8-0.2-1.3-1-1.1-1.8L50,94.2c0.2-0.8,1-1.3,1.8-1.1
								c0.8,0.2,1.3,1,1.1,1.8l-5.4,22.4C47.3,117.9,46.7,118.4,46,118.4z"/>
						</g>
						<g>
							<line fill="#FFECB3" x1="54.9" y1="117.1" x2="58.5" y2="94.3"/>
							<path fill="#37474F" d="M54.9,118.6c-0.1,0-0.2,0-0.2,0c-0.8-0.1-1.4-0.9-1.2-1.7L57,94.1c0.1-0.8,0.9-1.4,1.7-1.2
								c0.8,0.1,1.4,0.9,1.2,1.7l-3.6,22.8C56.3,118.1,55.6,118.6,54.9,118.6z"/>
						</g>
					</g>
					<g>
						<g>
							<line fill="#FFECB3" x1="82.1" y1="116.9" x2="76.7" y2="94.5"/>
							<path fill="#37474F" d="M82.1,118.4c-0.7,0-1.3-0.5-1.5-1.1l-5.4-22.4c-0.2-0.8,0.3-1.6,1.1-1.8c0.8-0.2,1.6,0.3,1.8,1.1
								l5.4,22.4c0.2,0.8-0.3,1.6-1.1,1.8C82.4,118.4,82.2,118.4,82.1,118.4z"/>
						</g>
						<g>
							<line fill="#FFECB3" x1="73.3" y1="117.1" x2="69.6" y2="94.3"/>
							<path fill="#37474F" d="M73.3,118.6c-0.7,0-1.4-0.5-1.5-1.3l-3.6-22.8c-0.1-0.8,0.4-1.6,1.2-1.7c0.8-0.1,1.6,0.4,1.7,1.2
								l3.6,22.8c0.1,0.8-0.4,1.6-1.2,1.7C73.4,118.6,73.3,118.6,73.3,118.6z"/>
						</g>
					</g>
				</g>
				<g>
					<line fill="#FFECB3" x1="64.3" y1="118" x2="64.3" y2="94"/>
					<path fill="#37474F" d="M64.3,119.5c-0.8,0-1.5-0.7-1.5-1.5V94c0-0.8,0.7-1.5,1.5-1.5s1.5,0.7,1.5,1.5v24
						C65.8,118.8,65.2,119.5,64.3,119.5z"/>
				</g>
			</g>
			<g>
				<rect x="37.3" y="86.5" fill="#78909C" width="53" height="9"/>
				<path fill="#37474F" d="M91.8,97h-56V85h56V97z M38.8,94h50v-6h-50V94z"/>
			</g>
			<g>
				<rect x="46.3" y="77.5" fill="#B0BEC5" width="35" height="9"/>
				<path fill="#37474F" d="M81.3,88h-35c-0.8,0-1.5-0.7-1.5-1.5v-9c0-0.8,0.7-1.5,1.5-1.5h35c0.8,0,1.5,0.7,1.5,1.5v9
					C82.8,87.3,82.2,88,81.3,88z M47.8,85h32v-6h-32V85z"/>
			</g>
		</g>
	</g>
	<g>
		<g>
			<g>
				<path fill="#37474F" d="M46.3,64.4c0-0.9,0.7-1.6,1.6-1.6c0.9,0,1.6,0.7,1.6,1.6c0,0.9-0.7,1.6-1.6,1.6
					C47,66,46.3,65.2,46.3,64.4z"/>
				<path fill="#37474F" d="M47.8,66.5c-1.1,0-2-0.9-2-2.1c0-1.2,0.9-2.1,2.1-2.1c0.6,0,1.1,0.2,1.5,0.6c0.4,0.4,0.6,0.9,0.6,1.5
					C50,65.5,49.1,66.5,47.8,66.5L47.8,66.5z M47.9,63.3c-0.6,0-1.1,0.5-1.1,1.1c0,0.6,0.5,1.1,1,1.1V66l0-0.5
					c0.6,0,1.1-0.5,1.1-1.1c0-0.3-0.1-0.6-0.3-0.8C48.5,63.4,48.2,63.3,47.9,63.3z"/>
			</g>
			<g>
				<path fill="#37474F" d="M35.1,64.4c0-0.9,0.7-1.6,1.6-1.6c0.9,0,1.6,0.7,1.6,1.6c0,0.9-0.7,1.6-1.6,1.6
					C35.8,66,35.1,65.2,35.1,64.4z"/>
				<path fill="#37474F" d="M36.7,66.5L36.7,66.5c-1.2,0-2.1-1-2.1-2.1c0-0.6,0.2-1.1,0.6-1.5c0.4-0.4,0.9-0.6,1.5-0.6
					c1.2,0,2.1,0.9,2.1,2.1C38.8,65.5,37.8,66.5,36.7,66.5z M36.7,63.3c-0.3,0-0.6,0.1-0.8,0.3c-0.2,0.2-0.3,0.5-0.3,0.8
					c0,0.6,0.5,1.1,1.1,1.1c0.6,0,1.1-0.5,1.1-1.1C37.8,63.8,37.3,63.3,36.7,63.3z"/>
			</g>
			<g>
				<path fill="#37474F" d="M23.9,64.4c0-0.9,0.7-1.6,1.6-1.6c0.9,0,1.6,0.7,1.6,1.6c0,0.9-0.7,1.6-1.6,1.6
					C24.6,66,23.9,65.2,23.9,64.4z"/>
				<path fill="#37474F" d="M25.5,66.5L25.5,66.5C25.4,66.5,25.4,66.5,25.5,66.5c-1.2,0-2.2-0.9-2.2-2.1c0-1.2,0.9-2.1,2.1-2.1
					c1.2,0,2.1,1,2.1,2.1C27.6,65.5,26.6,66.5,25.5,66.5z M25.5,63.3c-0.6,0-1.1,0.5-1.1,1.1c0,0.6,0.5,1.1,1,1.1l0.1,0.5v-0.5
					c0.6,0,1.1-0.5,1.1-1.1C26.6,63.8,26.1,63.3,25.5,63.3z"/>
			</g>
		</g>
		<g>
			<g>
				<path fill="#37474F" d="M100.9,64.4c0-0.9,0.7-1.6,1.6-1.6c0.9,0,1.6,0.7,1.6,1.6c0,0.9-0.7,1.6-1.6,1.6
					C101.6,66,100.9,65.2,100.9,64.4z"/>
				<path fill="#37474F" d="M102.5,66.5c-1.1,0-2-0.9-2-2.1c0-1.2,0.9-2.1,2.1-2.1c0.6,0,1.1,0.2,1.5,0.6c0.4,0.4,0.6,0.9,0.6,1.5
					C104.6,65.5,103.7,66.5,102.5,66.5L102.5,66.5z M102.5,63.3c-0.6,0-1.1,0.5-1.1,1.1c0,0.6,0.5,1.1,1,1.1V66l0-0.5
					c0.6,0,1.1-0.5,1.1-1.1c0-0.3-0.1-0.6-0.3-0.8C103.1,63.4,102.8,63.3,102.5,63.3z"/>
			</g>
			<g>
				<path fill="#37474F" d="M89.7,64.4c0-0.9,0.7-1.6,1.6-1.6c0.9,0,1.6,0.7,1.6,1.6c0,0.9-0.7,1.6-1.6,1.6
					C90.4,66,89.7,65.2,89.7,64.4z"/>
				<path fill="#37474F" d="M91.3,66.5L91.3,66.5c-1.2,0-2.1-1-2.1-2.1c0-0.6,0.2-1.1,0.6-1.5c0.4-0.4,0.9-0.6,1.5-0.6
					c1.2,0,2.1,0.9,2.1,2.1C93.4,65.5,92.5,66.5,91.3,66.5z M91.3,63.3c-0.3,0-0.6,0.1-0.8,0.3c-0.2,0.2-0.3,0.5-0.3,0.8
					c0,0.6,0.5,1.1,1.1,1.1c0.6,0,1.1-0.5,1.1-1.1C92.4,63.8,91.9,63.3,91.3,63.3z"/>
			</g>
			<g>
				<path fill="#37474F" d="M78.5,64.4c0-0.9,0.7-1.6,1.6-1.6c0.9,0,1.6,0.7,1.6,1.6c0,0.9-0.7,1.6-1.6,1.6
					C79.2,66,78.5,65.2,78.5,64.4z"/>
				<path fill="#37474F" d="M80.1,66.5L80.1,66.5C80.1,66.5,80.1,66.5,80.1,66.5c-1.2,0-2.2-0.9-2.2-2.1c0-1.2,0.9-2.1,2.1-2.1
					c1.2,0,2.1,1,2.1,2.1C82.2,65.5,81.3,66.5,80.1,66.5z M80.1,63.3c-0.6,0-1.1,0.5-1.1,1.1c0,0.6,0.5,1.1,1,1.1l0.1,0.5v-0.5
					c0.6,0,1.1-0.5,1.1-1.1C81.2,63.8,80.7,63.3,80.1,63.3z"/>
			</g>
		</g>
	</g>
</g>
</svg>
