<?xml version="1.0" encoding="utf-8"?>
<!-- Generator: Adobe Illustrator 16.0.0, SVG Export Plug-In . SVG Version: 6.00 Build 0)  -->
<!DOCTYPE svg PUBLIC "-//W3C//DTD SVG 1.1//EN" "http://www.w3.org/Graphics/SVG/1.1/DTD/svg11.dtd">
<svg version="1.1" id="Layer_1" xmlns="http://www.w3.org/2000/svg" xmlns:xlink="http://www.w3.org/1999/xlink" x="0px" y="0px"
	 width="128px" height="128px" viewBox="0 0 128 128" enable-background="new 0 0 128 128" xml:space="preserve">
<g>
	<g>
		<polygon fill="#FFECB3" points="101.4,32.6 89.3,44.7 69.1,24.5 81.2,12.4 		"/>
		<path fill="#37474F" d="M89.3,46.2c-0.4,0-0.8-0.1-1.1-0.4L68.1,25.6c-0.6-0.6-0.6-1.5,0-2.1l12.1-12.1c0.6-0.6,1.5-0.6,2.1,0
			l20.2,20.2c0.3,0.3,0.4,0.7,0.4,1.1s-0.2,0.8-0.4,1.1L90.4,45.8C90.1,46.1,89.7,46.2,89.3,46.2z M71.3,24.5l18.1,18.1l10-10
			L81.2,14.6L71.3,24.5z"/>
	</g>
	<g>
		<polygon fill="#FFFFFF" points="3.5,11 3.5,23 87.5,23 87.5,105 3.5,105 3.5,117 124.5,117 124.5,11 		"/>
		<path fill="#37474F" d="M124.5,118.5H3.5c-0.8,0-1.5-0.7-1.5-1.5v-12c0-0.8,0.7-1.5,1.5-1.5H86v-79H3.5C2.7,24.5,2,23.8,2,23V11
			c0-0.8,0.7-1.5,1.5-1.5h121c0.8,0,1.5,0.7,1.5,1.5v106C126,117.8,125.3,118.5,124.5,118.5z M5,115.5h118v-103H5v9h82.5
			c0.8,0,1.5,0.7,1.5,1.5v82c0,0.8-0.7,1.5-1.5,1.5H5V115.5z"/>
	</g>
	<g>
		<g>
			<polygon fill="#37474F" points="64.9,102 18.8,102 25.4,75 58.4,75 			"/>
			<path fill="#37474F" d="M65,103.5C65,103.5,64.9,103.5,65,103.5H18.8c-0.5,0-0.9-0.2-1.2-0.6c-0.3-0.4-0.4-0.8-0.3-1.3l6.6-27
				c0.2-0.7,0.8-1.1,1.5-1.1h33c0.7,0,1.3,0.5,1.5,1.1l6.5,26.8c0.1,0.2,0.1,0.4,0.1,0.6C66.5,102.8,65.8,103.5,65,103.5z
				 M20.7,100.5H63l-5.8-24H26.6L20.7,100.5z"/>
		</g>
		<g>
			<polyline fill="#FFECB3" points="22,61 10.5,61 10.5,86.2 14.8,90.6 			"/>
			<path fill="#37474F" d="M14.8,92.1c-0.4,0-0.8-0.1-1.1-0.4l-4.3-4.4C9.2,86.9,9,86.6,9,86.2V61c0-0.8,0.7-1.5,1.5-1.5H22
				c0.8,0,1.5,0.7,1.5,1.5s-0.7,1.5-1.5,1.5H12v23.1l3.9,3.9c0.6,0.6,0.6,1.5,0,2.1C15.6,91.9,15.2,92.1,14.8,92.1z"/>
		</g>
		<g>
			<polygon fill="#FFECB3" points="18.8,47 64.9,47 58.4,74 25.4,74 			"/>
			<path fill="#37474F" d="M58.4,75.5h-33c-0.7,0-1.3-0.5-1.5-1.1l-6.6-27c-0.1-0.4,0-0.9,0.3-1.3c0.3-0.4,0.7-0.6,1.2-0.6h46.1
				c0.5,0,0.9,0.2,1.2,0.6s0.4,0.8,0.3,1.3l-6.5,27C59.7,75,59.1,75.5,58.4,75.5z M26.6,72.5h30.6l5.8-24H20.7L26.6,72.5z"/>
		</g>
		<g>
			<g>
				<path fill="#37474F" d="M33.4,60.7c0,0.8-0.6,1.4-1.4,1.4c-0.8,0-1.4-0.6-1.4-1.4c0-0.8,0.6-1.4,1.4-1.4
					C32.8,59.3,33.4,59.9,33.4,60.7z"/>
				<path fill="#37474F" d="M32,62.6c-0.5,0-1-0.2-1.3-0.6c-0.4-0.4-0.5-0.9-0.5-1.4c0-1,0.8-1.9,1.9-1.9h0c1,0,1.9,0.9,1.9,1.9
					C33.9,61.7,33.1,62.5,32,62.6L32,62.6z M32.1,59.8c-0.6,0-0.9,0.4-0.9,0.9c0,0.2,0.1,0.5,0.2,0.6c0.2,0.2,0.4,0.3,0.6,0.3v0.5
					l0-0.5c0.5,0,0.9-0.4,0.9-0.9C32.9,60.2,32.5,59.8,32.1,59.8z"/>
			</g>
			<g>
				<path fill="#37474F" d="M43.3,60.7c0,0.8-0.6,1.4-1.4,1.4c-0.8,0-1.4-0.6-1.4-1.4c0-0.8,0.7-1.4,1.4-1.4
					C42.7,59.3,43.3,59.9,43.3,60.7z"/>
				<path fill="#37474F" d="M41.9,62.6c-1.1,0-1.9-0.9-1.9-1.9c0-1,0.9-1.9,1.9-1.9c1.1,0,1.9,0.9,1.9,1.9c0,0.5-0.2,0.9-0.5,1.3
					C42.9,62.4,42.4,62.6,41.9,62.6z M41.9,59.8c-0.5,0-0.9,0.4-0.9,0.9c0,0.5,0.4,0.9,0.9,0.9c0.2,0,0.5-0.1,0.7-0.3
					c0.2-0.2,0.2-0.4,0.2-0.6C42.8,60.2,42.4,59.8,41.9,59.8z"/>
			</g>
			<g>
				<path fill="#37474F" d="M53.1,60.7c0,0.8-0.7,1.4-1.4,1.4c-0.8,0-1.4-0.6-1.4-1.4c0-0.8,0.7-1.4,1.4-1.4
					C52.5,59.3,53.1,59.9,53.1,60.7z"/>
				<path fill="#37474F" d="M51.7,62.6c-1.1,0-1.9-0.9-1.9-1.9c0-1,0.9-1.9,1.9-1.9c1.1,0,2,0.8,2,1.9
					C53.6,61.7,52.8,62.6,51.7,62.6z M51.7,59.8c-0.5,0-0.9,0.4-0.9,0.9c0,0.5,0.4,0.9,0.9,0.9c0.5,0,0.9-0.4,0.9-0.9
					C52.6,60.2,52.2,59.8,51.7,59.8z"/>
			</g>
		</g>
	</g>
	<g>
		<g>
			<rect x="26.5" y="23" fill="#B0BEC5" width="32" height="9"/>
			<path fill="#37474F" d="M60,33.5H25v-12h35V33.5z M28,30.5h29v-6H28V30.5z"/>
		</g>
		<g>
			<line fill="#FFECB3" x1="42.5" y1="40.5" x2="42.5" y2="33.5"/>
			<path fill="#37474F" d="M42.5,42c-0.8,0-1.5-0.7-1.5-1.5v-7c0-0.8,0.7-1.5,1.5-1.5s1.5,0.7,1.5,1.5v7C44,41.3,43.3,42,42.5,42z"
				/>
		</g>
	</g>
	<g>
		<g>
			<rect x="102.5" y="45" fill="#FFECB3" width="7" height="7"/>
			<path fill="#37474F" d="M109.5,53.5h-7c-0.8,0-1.5-0.7-1.5-1.5v-7c0-0.8,0.7-1.5,1.5-1.5h7c0.8,0,1.5,0.7,1.5,1.5v7
				C111,52.8,110.3,53.5,109.5,53.5z M104,50.5h4v-4h-4V50.5z"/>
		</g>
		<g>
			<rect x="102.5" y="60" fill="#FFECB3" width="7" height="7"/>
			<path fill="#37474F" d="M109.5,68.5h-7c-0.8,0-1.5-0.7-1.5-1.5v-7c0-0.8,0.7-1.5,1.5-1.5h7c0.8,0,1.5,0.7,1.5,1.5v7
				C111,67.8,110.3,68.5,109.5,68.5z M104,65.5h4v-4h-4V65.5z"/>
		</g>
	</g>
	<g>
		<rect x="87.5" y="74" fill="#FFAB00" width="37" height="25"/>
		<path fill="#37474F" d="M124.5,100.5h-37c-0.8,0-1.5-0.7-1.5-1.5V74c0-0.8,0.7-1.5,1.5-1.5h37c0.8,0,1.5,0.7,1.5,1.5v25
			C126,99.8,125.3,100.5,124.5,100.5z M89,97.5h34v-22H89V97.5z"/>
	</g>
	<g>
		<g>
			<line fill="#FFAB00" x1="99.5" y1="90.5" x2="99.5" y2="82.5"/>
			<path fill="#37474F" d="M99.5,92c-0.8,0-1.5-0.7-1.5-1.5v-8c0-0.8,0.7-1.5,1.5-1.5s1.5,0.7,1.5,1.5v8C101,91.3,100.3,92,99.5,92z
				"/>
		</g>
		<g>
			<line fill="#FFAB00" x1="105.5" y1="90.5" x2="105.5" y2="82.5"/>
			<path fill="#37474F" d="M105.5,92c-0.8,0-1.5-0.7-1.5-1.5v-8c0-0.8,0.7-1.5,1.5-1.5s1.5,0.7,1.5,1.5v8
				C107,91.3,106.3,92,105.5,92z"/>
		</g>
		<g>
			<line fill="#FFAB00" x1="112.5" y1="90.5" x2="112.5" y2="82.5"/>
			<path fill="#37474F" d="M112.5,92c-0.8,0-1.5-0.7-1.5-1.5v-8c0-0.8,0.7-1.5,1.5-1.5s1.5,0.7,1.5,1.5v8
				C114,91.3,113.3,92,112.5,92z"/>
		</g>
	</g>
	<g>
		<rect x="93.5" y="28" fill="#78909C" width="24" height="7"/>
		<path fill="#37474F" d="M117.5,36.5h-24c-0.8,0-1.5-0.7-1.5-1.5v-7c0-0.8,0.7-1.5,1.5-1.5h24c0.8,0,1.5,0.7,1.5,1.5v7
			C119,35.8,118.3,36.5,117.5,36.5z M95,33.5h21v-4H95V33.5z"/>
	</g>
	<g>
		<line fill="#78909C" x1="34.5" y1="106.5" x2="34.5" y2="115.5"/>
		<path fill="#37474F" d="M34.5,117c-0.8,0-1.5-0.7-1.5-1.5v-9c0-0.8,0.7-1.5,1.5-1.5s1.5,0.7,1.5,1.5v9C36,116.3,35.3,117,34.5,117
			z"/>
	</g>
	<g>
		<line fill="#78909C" x1="42.5" y1="106.5" x2="42.5" y2="115.5"/>
		<path fill="#37474F" d="M42.5,117c-0.8,0-1.5-0.7-1.5-1.5v-9c0-0.8,0.7-1.5,1.5-1.5s1.5,0.7,1.5,1.5v9C44,116.3,43.3,117,42.5,117
			z"/>
	</g>
	<g>
		<line fill="#78909C" x1="49.5" y1="106.5" x2="49.5" y2="115.5"/>
		<path fill="#37474F" d="M49.5,117c-0.8,0-1.5-0.7-1.5-1.5v-9c0-0.8,0.7-1.5,1.5-1.5s1.5,0.7,1.5,1.5v9C51,116.3,50.3,117,49.5,117
			z"/>
	</g>
	<g>
		<line fill="#78909C" x1="57.5" y1="106.5" x2="57.5" y2="115.5"/>
		<path fill="#37474F" d="M57.5,117c-0.8,0-1.5-0.7-1.5-1.5v-9c0-0.8,0.7-1.5,1.5-1.5s1.5,0.7,1.5,1.5v9C59,116.3,58.3,117,57.5,117
			z"/>
	</g>
	<g>
		<line fill="#78909C" x1="65.5" y1="106.5" x2="65.5" y2="115.5"/>
		<path fill="#37474F" d="M65.5,117c-0.8,0-1.5-0.7-1.5-1.5v-9c0-0.8,0.7-1.5,1.5-1.5s1.5,0.7,1.5,1.5v9C67,116.3,66.3,117,65.5,117
			z"/>
	</g>
</g>
</svg>
