<?xml version="1.0" encoding="utf-8"?>
<!-- Generator: Adobe Illustrator 16.0.0, SVG Export Plug-In . SVG Version: 6.00 Build 0)  -->
<!DOCTYPE svg PUBLIC "-//W3C//DTD SVG 1.1//EN" "http://www.w3.org/Graphics/SVG/1.1/DTD/svg11.dtd">
<svg version="1.1" id="Layer_1" xmlns="http://www.w3.org/2000/svg" xmlns:xlink="http://www.w3.org/1999/xlink" x="0px" y="0px"
	 width="128px" height="128px" viewBox="0 0 128 128" enable-background="new 0 0 128 128" xml:space="preserve">
<g>
	<g>
		<path fill="#B0BEC5" d="M122.4,95.9c0,7.7-7,16.4-15.6,16.4H21.2c-8.6,0-15.6-8.8-15.6-16.4l0,0c0-7.7,7-13.6,15.6-13.6h85.5
			C115.4,82.3,122.4,88.2,122.4,95.9L122.4,95.9z"/>
		<path fill="#37474F" d="M106.7,113.8H21.2c-9.6,0-17.1-9.6-17.1-17.9c0-8.4,7.5-15.1,17.1-15.1h85.5c9.6,0,17.1,6.6,17.1,15.1
			C123.9,104.2,116.4,113.8,106.7,113.8z M21.2,83.8c-7.9,0-14.1,5.3-14.1,12.1c0,6.8,6.3,14.9,14.1,14.9h85.5
			c7.8,0,14.1-8.2,14.1-14.9c0-6.8-6.2-12.1-14.1-12.1H21.2z"/>
	</g>
	<g>
		<g>
			<rect x="102" y="17.3" fill="#FFFFFF" width="6" height="53"/>
			<path fill="#37474F" d="M108,71.8h-6c-0.8,0-1.5-0.7-1.5-1.5v-53c0-0.8,0.7-1.5,1.5-1.5h6c0.8,0,1.5,0.7,1.5,1.5v53
				C109.5,71.2,108.9,71.8,108,71.8z M103.5,68.8h3v-50h-3V68.8z"/>
		</g>
		<g>
			<rect x="100" y="52.3" fill="#FFAB00" width="10" height="52"/>
			<path fill="#37474F" d="M110,105.8h-10c-0.8,0-1.5-0.7-1.5-1.5v-52c0-0.8,0.7-1.5,1.5-1.5h10c0.8,0,1.5,0.7,1.5,1.5v52
				C111.5,105.2,110.9,105.8,110,105.8z M101.5,102.8h7v-49h-7V102.8z"/>
		</g>
	</g>
	<g>
		<path fill="#FFFFFF" d="M122.4,103.8c0,7.7-7,13.5-15.6,13.5H21.2c-8.6,0-15.6-5.8-15.6-13.5l0,0c0-7.7,7-13.5,15.6-13.5h85.5
			C115.4,90.3,122.4,96.2,122.4,103.8L122.4,103.8z"/>
		<path fill="#37474F" d="M106.7,118.8H21.2c-9.6,0-17.1-6.6-17.1-15s7.5-15,17.1-15h85.5c9.6,0,17.1,6.6,17.1,15
			S116.4,118.8,106.7,118.8z M21.2,91.8c-7.9,0-14.1,5.3-14.1,12s6.2,12,14.1,12h85.5c7.9,0,14.1-5.3,14.1-12s-6.2-12-14.1-12H21.2z
			"/>
	</g>
	<g>
		<polygon fill="#FFAB00" points="26.5,111.7 18.7,103.9 26.5,96.1 34.2,103.9 		"/>
		<path fill="#37474F" d="M26.5,113.2c-0.4,0-0.8-0.2-1.1-0.4l-7.8-7.8c-0.6-0.6-0.6-1.5,0-2.1l7.7-7.8c0.3-0.3,0.7-0.4,1.1-0.4
			c0,0,0,0,0,0c0.4,0,0.8,0.2,1.1,0.4l7.8,7.8c0.6,0.6,0.6,1.5,0,2.1l-7.7,7.8C27.3,113,26.9,113.2,26.5,113.2
			C26.5,113.2,26.5,113.2,26.5,113.2z M20.9,103.9l5.6,5.7l5.6-5.7l-5.6-5.6L20.9,103.9z"/>
	</g>
	<g>
		<g>
			<g>
				<path fill="#37474F" d="M69.4,103.9c0-0.9,0.7-1.6,1.6-1.6c0.9,0,1.6,0.7,1.6,1.6c0,0.9-0.7,1.6-1.6,1.6
					C70.2,105.5,69.4,104.8,69.4,103.9z"/>
				<path fill="#37474F" d="M71,106c-1.1,0-2-1-2-2.1c0-1.2,0.9-2.1,2.1-2.1c0.6,0,1.1,0.2,1.5,0.6c0.4,0.4,0.6,0.9,0.6,1.5
					C73.1,105,72.2,106,71,106L71,106z M71,102.8c-0.6,0-1.1,0.5-1.1,1.1c0,0.6,0.5,1.1,1,1.1v0.5l0-0.5c0.6,0,1.1-0.5,1.1-1.1
					c0-0.3-0.1-0.6-0.3-0.8C71.6,102.9,71.3,102.8,71,102.8z"/>
			</g>
			<g>
				<path fill="#37474F" d="M58.3,103.9c0-0.9,0.7-1.6,1.6-1.6c0.9,0,1.6,0.7,1.6,1.6c0,0.9-0.7,1.6-1.6,1.6
					C59,105.5,58.3,104.8,58.3,103.9z"/>
				<path fill="#37474F" d="M59.9,106L59.9,106c-1.2-0.1-2.1-1-2.1-2.1c0-0.6,0.2-1.1,0.6-1.5c0.4-0.4,0.9-0.6,1.5-0.6
					c1.2,0,2.1,0.9,2.1,2.1C62,105,61.1,106,59.9,106z M59.9,102.8c-0.3,0-0.6,0.1-0.8,0.3c-0.2,0.2-0.3,0.5-0.3,0.8
					c0,0.6,0.5,1.1,1.1,1.1c0.6,0,1.1-0.5,1.1-1.1C61,103.3,60.5,102.8,59.9,102.8z"/>
			</g>
			<g>
				<path fill="#37474F" d="M47.2,103.9c0-0.9,0.7-1.6,1.6-1.6c0.9,0,1.6,0.7,1.6,1.6c0,0.9-0.7,1.6-1.6,1.6
					C47.9,105.5,47.2,104.8,47.2,103.9z"/>
				<path fill="#37474F" d="M48.9,106L48.9,106C48.8,106,48.8,106,48.9,106c-1.3,0-2.2-0.9-2.2-2.1c0-1.2,0.9-2.1,2.1-2.1
					c1.1,0,2.1,0.9,2.1,2.1C50.9,105,50,106,48.9,106z M48.8,102.8c-0.6,0-1.1,0.5-1.1,1.1c0,0.6,0.5,1.1,1,1.1l0.1,0.5V105
					c0.6,0,1-0.5,1-1.1C49.9,103.3,49.4,102.8,48.8,102.8z"/>
			</g>
		</g>
		<g>
			<g>
				<path fill="#37474F" d="M107.1,103.9c0-0.9,0.7-1.6,1.6-1.6c0.9,0,1.6,0.7,1.6,1.6c0,0.9-0.7,1.6-1.6,1.6
					C107.9,105.5,107.1,104.8,107.1,103.9z"/>
				<path fill="#37474F" d="M108.7,106c-1.1,0-2-0.9-2-2.1c0-1.2,0.9-2.1,2.1-2.1c0.6,0,1.1,0.2,1.5,0.6c0.4,0.4,0.6,0.9,0.6,1.5
					C110.8,105,109.9,106,108.7,106L108.7,106z M108.7,102.8c-0.6,0-1.1,0.5-1.1,1.1c0,0.6,0.5,1.1,1,1.1v0.5l0-0.5
					c0.6,0,1.1-0.5,1.1-1.1c0-0.3-0.1-0.6-0.3-0.8C109.3,102.9,109,102.8,108.7,102.8z"/>
			</g>
			<g>
				<path fill="#37474F" d="M96,103.9c0-0.9,0.7-1.6,1.6-1.6c0.9,0,1.6,0.7,1.6,1.6c0,0.9-0.7,1.6-1.6,1.6
					C96.7,105.5,96,104.8,96,103.9z"/>
				<path fill="#37474F" d="M97.6,106L97.6,106c-1.2-0.1-2.1-1-2.1-2.1c0-0.6,0.2-1.1,0.6-1.5c0.4-0.4,0.9-0.6,1.5-0.6
					c1.1,0,2.1,0.9,2.1,2.1C99.7,105,98.7,106,97.6,106z M97.6,102.8c-0.3,0-0.6,0.1-0.8,0.3c-0.2,0.2-0.3,0.5-0.3,0.8
					c0,0.6,0.5,1.1,1.1,1.1c0.6,0,1.1-0.5,1.1-1.1C98.7,103.3,98.2,102.8,97.6,102.8z"/>
			</g>
			<g>
				<path fill="#37474F" d="M84.9,103.9c0-0.9,0.7-1.6,1.6-1.6c0.9,0,1.6,0.7,1.6,1.6c0,0.9-0.7,1.6-1.6,1.6
					C85.6,105.5,84.9,104.8,84.9,103.9z"/>
				<path fill="#37474F" d="M86.6,106L86.6,106C86.5,106,86.5,106,86.6,106c-1.3,0-2.2-0.9-2.2-2.1c0-1.2,0.9-2.1,2.1-2.1
					c1.1,0,2.1,0.9,2.1,2.1C88.6,105,87.7,106,86.6,106z M86.5,102.8c-0.6,0-1.1,0.5-1.1,1.1c0,0.6,0.5,1.1,1,1.1l0.1,0.5V105
					c0.6,0,1-0.5,1-1.1C87.6,103.3,87.1,102.8,86.5,102.8z"/>
			</g>
		</g>
	</g>
	<g>
		<path fill="#B0BEC5" d="M111.3,17.2c0,3.6-2.9,6.5-6.5,6.5c-3.6,0-6.5-2.9-6.5-6.5c0-3.6,2.9-6.5,6.5-6.5
			C108.4,10.7,111.3,13.6,111.3,17.2z"/>
		<path fill="#37474F" d="M104.8,25.2c-4.4,0-8-3.6-8-8c0-4.4,3.6-8,8-8c4.4,0,8,3.6,8,8C112.8,21.6,109.2,25.2,104.8,25.2z
			 M104.8,12.2c-2.8,0-5,2.2-5,5c0,2.8,2.2,5,5,5c2.8,0,5-2.2,5-5C109.8,14.4,107.6,12.2,104.8,12.2z"/>
	</g>
	<g>
		<g>
			<g>
				<g>
					<path fill="#FFAB00" d="M89.3,47.4c0-15.4-17.2-27.9-38.5-27.9c-21.3,0-38.5,12.5-38.5,27.9"/>
					<path fill="#37474F" d="M89.3,48.9c-0.8,0-1.5-0.7-1.5-1.5c0-14.5-16.6-26.4-37-26.4c-20.4,0-37,11.8-37,26.4
						c0,0.8-0.7,1.5-1.5,1.5s-1.5-0.7-1.5-1.5c0-16.2,18-29.4,40-29.4c22.1,0,40,13.2,40,29.4C90.8,48.3,90.1,48.9,89.3,48.9z"/>
				</g>
			</g>
			<g>
				<g>
					<path fill="#FFECB3" d="M79.8,54.1c0-13.1-13-23.8-29.1-23.8S21.7,41,21.7,54.1"/>
					<path fill="#37474F" d="M79.8,55.6c-0.8,0-1.5-0.7-1.5-1.5c0-12.3-12.4-22.3-27.6-22.3s-27.6,10-27.6,22.3
						c0,0.8-0.7,1.5-1.5,1.5s-1.5-0.7-1.5-1.5c0-14,13.7-25.3,30.6-25.3s30.6,11.4,30.6,25.3C81.3,54.9,80.7,55.6,79.8,55.6z"/>
				</g>
			</g>
			<g>
				<g>
					<path fill="#FFFFFF" d="M71.3,60.9c0-9.6-9.2-17.3-20.6-17.3s-20.6,7.7-20.6,17.3"/>
					<path fill="#37474F" d="M71.3,62.4c-0.8,0-1.5-0.7-1.5-1.5c0-8.7-8.6-15.8-19.1-15.8c-10.5,0-19.1,7.1-19.1,15.8
						c0,0.8-0.7,1.5-1.5,1.5s-1.5-0.7-1.5-1.5c0-10.4,9.9-18.8,22.1-18.8c12.2,0,22.1,8.4,22.1,18.8C72.8,61.8,72.2,62.4,71.3,62.4z
						"/>
				</g>
			</g>
		</g>
		<g>
			<polygon fill="#37474F" points="40.2,64.8 50.8,82 61.3,64.8 			"/>
		</g>
	</g>
</g>
</svg>
