<?xml version="1.0" encoding="utf-8"?>
<!-- Generator: Adobe Illustrator 16.0.0, SVG Export Plug-In . SVG Version: 6.00 Build 0)  -->
<!DOCTYPE svg PUBLIC "-//W3C//DTD SVG 1.1//EN" "http://www.w3.org/Graphics/SVG/1.1/DTD/svg11.dtd">
<svg version="1.1" id="Layer_1" xmlns="http://www.w3.org/2000/svg" xmlns:xlink="http://www.w3.org/1999/xlink" x="0px" y="0px"
	 width="128px" height="128px" viewBox="0 0 128 128" enable-background="new 0 0 128 128" xml:space="preserve">
<g>
	<g>
		<g>
			<path fill="#FFAB00" d="M101.7,17.8c0-5.4-5.7-9.7-12.9-9.7c-4,0-7.4,1.3-9.8,3.4c-2.4-2.1-5.9-3.4-9.8-3.4
				c-7.1,0-12.9,4.3-12.9,9.7c0,2.4,1.1,4.6,3.1,6.3v27.5h39V24.1C100.5,22.4,101.7,20.2,101.7,17.8z"/>
			<path fill="#37474F" d="M98.5,53.2h-39c-0.8,0-1.5-0.7-1.5-1.5V24.8c-2.1-2-3.1-4.3-3.1-6.9c0-6.2,6.5-11.2,14.4-11.2
				c3.6,0,7.1,1.1,9.8,3c2.7-2,6.1-3,9.8-3c7.9,0,14.4,5,14.4,11.2c0,2.5-1.1,5-3.2,6.9v26.9C100,52.5,99.3,53.2,98.5,53.2z
				 M61,50.2h36v-26c0-0.4,0.2-0.9,0.5-1.1c1.2-1,2.7-2.8,2.7-5.1c0-4.5-5.1-8.2-11.4-8.2c-3.4,0-6.6,1.1-8.8,3.1
				c-0.6,0.5-1.4,0.5-2,0c-2.2-1.9-5.4-3.1-8.8-3.1c-6.3,0-11.4,3.7-11.4,8.2c0,1.9,0.9,3.7,2.6,5.1c0.3,0.3,0.5,0.7,0.5,1.1V50.2z"
				/>
		</g>
	</g>
	<g>
		<g>
			<rect x="21.5" y="113.7" fill="#B0BEC5" width="11" height="9"/>
			<path fill="#37474F" d="M32.5,124.2h-11c-0.8,0-1.5-0.7-1.5-1.5v-9c0-0.8,0.7-1.5,1.5-1.5h11c0.8,0,1.5,0.7,1.5,1.5v9
				C34,123.5,33.3,124.2,32.5,124.2z M23,121.2h8v-6h-8V121.2z"/>
		</g>
		<g>
			<rect x="91.5" y="113.7" fill="#B0BEC5" width="12" height="9"/>
			<path fill="#37474F" d="M103.5,124.2h-12c-0.8,0-1.5-0.7-1.5-1.5v-9c0-0.8,0.7-1.5,1.5-1.5h12c0.8,0,1.5,0.7,1.5,1.5v9
				C105,123.5,104.3,124.2,103.5,124.2z M93,121.2h9v-6h-9V121.2z"/>
		</g>
	</g>
	<g>
		<polygon fill="#FFFFFF" points="117.5,115.7 7.3,115.7 23,49.7 101.9,49.7 		"/>
		<path fill="#37474F" d="M117.5,117.2C117.5,117.2,117.5,117.2,117.5,117.2H7.3c-0.5,0-0.9-0.2-1.2-0.6c-0.3-0.4-0.4-0.8-0.3-1.3
			l15.6-66c0.2-0.7,0.8-1.2,1.5-1.2h78.9c0.7,0,1.3,0.5,1.5,1.2l15.6,65.8c0.1,0.2,0.1,0.4,0.1,0.6
			C119,116.5,118.4,117.2,117.5,117.2z M9.2,114.2h106.4l-14.9-63H24.2L9.2,114.2z"/>
	</g>
	<g>
		<g>
			<path fill="#FFECB3" d="M88.6,17.7c0-6.8-7.3-12.4-16.4-12.4c-5,0-9.4,1.7-12.5,4.4c-3-2.7-7.4-4.4-12.5-4.4
				c-9.1,0-16.6,5.5-16.6,12.4c0,3.1,1.9,5.8,3.9,8v34.9h50V25.7C87.5,23.5,88.6,20.8,88.6,17.7z"/>
			<path fill="#37474F" d="M84.5,62.2h-50c-0.8,0-1.5-0.7-1.5-1.5V26.3c-2.6-3-3.9-5.8-3.9-8.6c0-7.6,8.1-13.9,18.1-13.9
				c4.7,0,9.1,1.4,12.5,4c3.4-2.6,7.8-4,12.5-4c9.9,0,17.9,6.2,17.9,13.9c0,3.6-1.4,6.5-4.1,8.8v34.2C86,61.5,85.3,62.2,84.5,62.2z
				 M36,59.2h47V25.7c0-0.5,0.2-0.9,0.6-1.2c2.4-1.7,3.4-3.9,3.4-6.8c0-6-6.7-10.9-14.9-10.9c-4.4,0-8.6,1.5-11.5,4
				c-0.6,0.5-1.4,0.5-2,0c-2.9-2.6-7.1-4-11.5-4c-8.3,0-15.1,4.9-15.1,10.9c0,2.2,1.1,4.5,3.5,7c0.3,0.3,0.4,0.6,0.4,1V59.2z"/>
		</g>
	</g>
	<g>
		<polyline fill="#FFAB00" points="31,60.7 94.5,60.7 94.5,69.2 		"/>
		<path fill="#37474F" d="M94.5,70.7c-0.8,0-1.5-0.7-1.5-1.5v-7H31c-0.8,0-1.5-0.7-1.5-1.5s0.7-1.5,1.5-1.5h63.5
			c0.8,0,1.5,0.7,1.5,1.5v8.5C96,70,95.3,70.7,94.5,70.7z"/>
	</g>
	<g>
		<rect x="6.5" y="111.7" fill="#78909C" width="112" height="7"/>
		<path fill="#37474F" d="M120,120.2H5v-10h115V120.2z M8,117.2h109v-4H8V117.2z"/>
	</g>
	<g>
		<g>
			<path fill="#37474F" d="M70.7,84.1c0-0.8,0.6-1.4,1.4-1.4c0.8,0,1.4,0.6,1.4,1.4c0,0.7-0.6,1.4-1.4,1.4
				C71.4,85.5,70.7,84.8,70.7,84.1z"/>
			<path fill="#37474F" d="M72.1,86c-1,0-1.9-0.9-1.9-1.9c0-1,0.8-1.9,1.9-1.9c0.5,0,1,0.2,1.4,0.6c0.3,0.4,0.5,0.8,0.5,1.3
				C74,85.1,73.2,86,72.1,86z M72.1,83.2c-0.5,0-0.9,0.4-0.9,0.9c0,0.5,0.4,0.9,0.9,0.9c0.5,0,0.9-0.4,0.9-0.9
				c0-0.3-0.1-0.5-0.2-0.6C72.6,83.3,72.4,83.2,72.1,83.2z"/>
		</g>
		<g>
			<path fill="#37474F" d="M61.1,84.1c0-0.8,0.6-1.4,1.4-1.4c0.8,0,1.4,0.6,1.4,1.4c0,0.7-0.6,1.4-1.4,1.4
				C61.7,85.5,61.1,84.8,61.1,84.1z"/>
			<path fill="#37474F" d="M62.4,86c-1,0-1.9-0.9-1.9-1.9c0-0.5,0.2-1,0.5-1.3c0.3-0.4,0.8-0.6,1.3-0.6c1.1,0,1.9,0.8,1.9,1.9
				C64.3,85.1,63.4,86,62.4,86z M62.4,83.2c-0.2,0-0.5,0.1-0.6,0.3c-0.2,0.2-0.2,0.4-0.2,0.6c0,0.5,0.4,0.9,0.9,0.9
				c0.5,0,0.9-0.4,0.9-0.9C63.3,83.6,62.9,83.2,62.4,83.2z"/>
		</g>
		<g>
			<path fill="#37474F" d="M51.4,84.1c0-0.8,0.6-1.4,1.4-1.4c0.8,0,1.4,0.6,1.4,1.4c0,0.7-0.6,1.4-1.4,1.4
				C52,85.5,51.4,84.8,51.4,84.1z"/>
			<path fill="#37474F" d="M52.8,86c-1,0-1.9-0.9-1.9-1.9c0-1,0.8-1.9,1.9-1.9c1.1,0,1.9,0.8,1.9,1.9C54.6,85.1,53.8,86,52.8,86z
				 M52.8,83.2c-0.5,0-0.9,0.4-0.9,0.9c0,0.5,0.4,0.9,0.9,0.9c0.5,0,0.9-0.4,0.9-0.9C53.6,83.6,53.3,83.2,52.8,83.2z"/>
		</g>
	</g>
	<g>
		<path fill="#FFAB00" d="M43.6,83.6c0,4.5-3.7,8.2-8.2,8.2s-8.2-3.7-8.2-8.2c0-4.5,3.7-8.2,8.2-8.2S43.6,79.1,43.6,83.6z"/>
		<path fill="#37474F" d="M35.3,93.3c-5.4,0-9.7-4.4-9.7-9.7c0-5.4,4.4-9.7,9.7-9.7c5.4,0,9.7,4.4,9.7,9.7
			C45.1,88.9,40.7,93.3,35.3,93.3z M35.3,76.9c-3.7,0-6.7,3-6.7,6.7c0,3.7,3,6.7,6.7,6.7c3.7,0,6.7-3,6.7-6.7
			C42.1,79.9,39.1,76.9,35.3,76.9z"/>
	</g>
	<g>
		<line fill="#FFECB3" x1="109" y1="76.7" x2="116" y2="76.7"/>
		<path fill="#37474F" d="M116,78.2h-7c-0.8,0-1.5-0.7-1.5-1.5s0.7-1.5,1.5-1.5h7c0.8,0,1.5,0.7,1.5,1.5S116.8,78.2,116,78.2z"/>
	</g>
	<g>
		<rect x="115.5" y="68.7" fill="#FFECB3" width="6" height="16"/>
		<path fill="#37474F" d="M121.5,86.2h-6c-0.8,0-1.5-0.7-1.5-1.5v-16c0-0.8,0.7-1.5,1.5-1.5h6c0.8,0,1.5,0.7,1.5,1.5v16
			C123,85.5,122.3,86.2,121.5,86.2z M117,83.2h3v-13h-3V83.2z"/>
	</g>
</g>
</svg>
