<?xml version="1.0" encoding="utf-8"?>
<!-- Generator: Adobe Illustrator 16.0.0, SVG Export Plug-In . SVG Version: 6.00 Build 0)  -->
<!DOCTYPE svg PUBLIC "-//W3C//DTD SVG 1.1//EN" "http://www.w3.org/Graphics/SVG/1.1/DTD/svg11.dtd">
<svg version="1.1" id="Layer_1" xmlns="http://www.w3.org/2000/svg" xmlns:xlink="http://www.w3.org/1999/xlink" x="0px" y="0px"
	 width="128px" height="128px" viewBox="0 0 128 128" enable-background="new 0 0 128 128" xml:space="preserve">
<g>
	<g>
		<g>
			<rect x="13" y="3" fill="#FFFFFF" width="102" height="122"/>
			<path fill="#37474F" d="M115,126.5H13c-0.8,0-1.5-0.7-1.5-1.5V3c0-0.8,0.7-1.5,1.5-1.5h102c0.8,0,1.5,0.7,1.5,1.5v122
				C116.5,125.8,115.8,126.5,115,126.5z M14.5,123.5h99V4.5h-99V123.5z"/>
		</g>
		<g>
			<rect x="13" y="42" fill="#FFAB00" width="102" height="68"/>
			<path fill="#37474F" d="M115,111.5H13c-0.8,0-1.5-0.7-1.5-1.5V42c0-0.8,0.7-1.5,1.5-1.5h102c0.8,0,1.5,0.7,1.5,1.5v68
				C116.5,110.8,115.8,111.5,115,111.5z M14.5,108.5h99v-65h-99V108.5z"/>
		</g>
		<g>
			<rect x="13" y="52" fill="#B0BEC5" width="102" height="47"/>
			<path fill="#37474F" d="M115,100.5H13c-0.8,0-1.5-0.7-1.5-1.5V52c0-0.8,0.7-1.5,1.5-1.5h102c0.8,0,1.5,0.7,1.5,1.5v47
				C116.5,99.8,115.8,100.5,115,100.5z M14.5,97.5h99v-44h-99V97.5z"/>
		</g>
		<g>
			<g>
				<g>
					<path fill="#37474F" d="M101.8,22c0-0.8,0.7-1.5,1.5-1.5c0.8,0,1.5,0.7,1.5,1.5c0,0.8-0.7,1.5-1.5,1.5
						C102.5,23.5,101.8,22.8,101.8,22z"/>
					<path fill="#37474F" d="M103.3,24c-1.1,0-2-0.9-2-2c0-1.1,0.9-2,2-2c0.6,0,1.1,0.2,1.4,0.6c0.4,0.4,0.6,0.9,0.6,1.4
						C105.3,23.1,104.4,24,103.3,24L103.3,24z M103.3,21c-0.6,0-1,0.4-1,1c0,0.5,0.4,1,1,1v0.5l0-0.5c0.6,0,1-0.4,1-1
						c0-0.3-0.1-0.5-0.3-0.7C103.9,21.1,103.6,21,103.3,21z"/>
				</g>
				<g>
					<path fill="#37474F" d="M91.5,22c0-0.8,0.7-1.5,1.5-1.5c0.8,0,1.5,0.7,1.5,1.5c0,0.8-0.7,1.5-1.5,1.5
						C92.1,23.5,91.5,22.8,91.5,22z"/>
					<path fill="#37474F" d="M92.9,24L92.9,24c-1.1,0-2-0.9-2-2c0-0.5,0.2-1,0.6-1.4c0.4-0.4,0.9-0.6,1.4-0.6c1.1,0,2,0.9,2,2
						C94.9,23.1,94,24,92.9,24z M92.9,21c-0.3,0-0.5,0.1-0.7,0.3c-0.2,0.2-0.3,0.4-0.3,0.7c0,0.5,0.4,1,1,1c0.5,0,1-0.5,1-1
						C93.9,21.5,93.5,21,92.9,21z"/>
				</g>
				<g>
					<path fill="#37474F" d="M81,22c0-0.8,0.7-1.5,1.5-1.5c0.8,0,1.5,0.7,1.5,1.5c0,0.8-0.7,1.5-1.5,1.5C81.7,23.5,81,22.8,81,22z"
						/>
					<path fill="#37474F" d="M82.5,24L82.5,24C82.5,24,82.5,24,82.5,24c-1.1,0-2-0.9-2-2c0-1.1,0.9-2,2-2c1.1,0,2,0.9,2,2
						C84.5,23.1,83.6,24,82.5,24z M82.5,21c-0.5,0-1,0.5-1,1c0,0.5,0.4,1,0.9,1l0.1,0.5V23c0.5,0,1-0.4,1-1
						C83.5,21.5,83.1,21,82.5,21z"/>
				</g>
			</g>
			<g>
				<g>
					<path fill="#37474F" d="M101.8,12.8c0-0.8,0.7-1.5,1.5-1.5c0.8,0,1.5,0.7,1.5,1.5c0,0.8-0.7,1.5-1.5,1.5
						C102.5,14.3,101.8,13.6,101.8,12.8z"/>
					<path fill="#37474F" d="M103.3,14.8c-1.1,0-2-0.9-2-2c0-1.1,0.9-2,2-2c0.5,0,1.1,0.2,1.4,0.6c0.4,0.4,0.6,0.9,0.6,1.4
						C105.3,13.9,104.4,14.8,103.3,14.8L103.3,14.8z M103.3,11.8c-0.5,0-1,0.4-1,1c0,0.5,0.4,1,1,1v0.5l0-0.5c0.6,0,1-0.4,1-1
						c0-0.3-0.1-0.5-0.3-0.7C103.9,11.9,103.6,11.8,103.3,11.8z"/>
				</g>
				<g>
					<path fill="#37474F" d="M91.5,12.8c0-0.8,0.7-1.5,1.5-1.5c0.8,0,1.5,0.7,1.5,1.5c0,0.8-0.7,1.5-1.5,1.5
						C92.1,14.3,91.5,13.6,91.5,12.8z"/>
					<path fill="#37474F" d="M92.9,14.8L92.9,14.8c-1.1,0-2-0.9-2-2c0-0.5,0.2-1,0.6-1.4c0.4-0.4,0.9-0.6,1.4-0.6c1.1,0,2,0.9,2,2
						C94.9,13.9,94,14.8,92.9,14.8z M92.9,11.8c-0.3,0-0.5,0.1-0.7,0.3c-0.2,0.2-0.3,0.4-0.3,0.7c0,0.5,0.4,1,1,1c0.5,0,1-0.5,1-1
						C93.9,12.3,93.5,11.8,92.9,11.8z"/>
				</g>
				<g>
					<path fill="#37474F" d="M81,12.8c0-0.8,0.7-1.5,1.5-1.5c0.8,0,1.5,0.7,1.5,1.5c0,0.8-0.7,1.5-1.5,1.5
						C81.7,14.3,81,13.6,81,12.8z"/>
					<path fill="#37474F" d="M82.5,14.8L82.5,14.8C82.5,14.8,82.5,14.8,82.5,14.8c-1.1,0-2-0.9-2-2c0-1.1,0.9-2,2-2c1.1,0,2,0.9,2,2
						C84.5,13.9,83.6,14.8,82.5,14.8z M82.5,11.8c-0.5,0-1,0.5-1,1c0,0.5,0.4,1,0.9,1l0.1,0.5v-0.5c0.5,0,1-0.5,1-1
						C83.5,12.3,83.1,11.8,82.5,11.8z"/>
				</g>
			</g>
		</g>
		<g>
			<path fill="#37474F" d="M53.5,23.5h-17c-0.8,0-1.5-0.7-1.5-1.5s0.7-1.5,1.5-1.5h17c0.8,0,1.5,0.7,1.5,1.5S54.3,23.5,53.5,23.5z"
				/>
		</g>
		<g>
			<path fill="#37474F" d="M54,43c-0.8,0-1.5-0.7-1.5-1.5v-38C52.5,2.7,53.2,2,54,2s1.5,0.7,1.5,1.5v38C55.5,42.3,54.8,43,54,43z"/>
		</g>
		<g>
			<g>
				<path fill="#FFAB00" d="M39.1,22.3c0,4.6-3.7,8.2-8.2,8.2c-4.5,0-8.2-3.7-8.2-8.2c0-4.6,3.7-8.3,8.2-8.3
					C35.4,14,39.1,17.7,39.1,22.3z"/>
				<path fill="#37474F" d="M30.8,32c-5.4,0-9.7-4.4-9.7-9.7c0-5.4,4.4-9.8,9.7-9.8c5.4,0,9.7,4.4,9.7,9.8
					C40.6,27.6,36.2,32,30.8,32z M30.8,15.5c-3.7,0-6.7,3-6.7,6.8c0,3.7,3,6.7,6.7,6.7c3.7,0,6.7-3,6.7-6.7
					C37.6,18.6,34.6,15.5,30.8,15.5z"/>
			</g>
			<g>
				<path fill="#FFECB3" d="M34.6,22.3c0,2.1-1.7,3.7-3.7,3.7c-2.1,0-3.7-1.7-3.7-3.7c0-2.1,1.7-3.7,3.7-3.7
					C32.9,18.5,34.6,20.2,34.6,22.3z"/>
				<path fill="#37474F" d="M30.8,27.5c-2.9,0-5.2-2.3-5.2-5.2c0-2.9,2.3-5.2,5.2-5.2c2.9,0,5.2,2.3,5.2,5.2
					C36.1,25.2,33.7,27.5,30.8,27.5z M30.8,20c-1.2,0-2.2,1-2.2,2.2c0,1.2,1,2.2,2.2,2.2c1.2,0,2.2-1,2.2-2.2
					C33.1,21,32.1,20,30.8,20z"/>
			</g>
		</g>
		<g>
			<path fill="#37474F" d="M103.2,73.6c0,21.8-17.7,39.5-39.5,39.5c-21.8,0-39.5-17.7-39.5-39.5c0-21.8,17.7-39.5,39.5-39.5
				C85.5,34.1,103.2,51.8,103.2,73.6z"/>
			<path fill="#37474F" d="M63.7,114.6c-22.6,0-41-18.4-41-41c0-22.6,18.4-41,41-41c22.6,0,41,18.4,41,41
				C104.7,96.2,86.3,114.6,63.7,114.6z M63.7,35.6c-21,0-38,17-38,38c0,21,17,38,38,38c20.9,0,38-17,38-38
				C101.7,52.7,84.7,35.6,63.7,35.6z"/>
		</g>
		<g>
			<g>
				<g>
					<g>
						<path fill="#FFFFFF" d="M84.3,71.7c-0.9,0-1.6-0.7-1.6-1.6c0-11.7-9.5-21.2-21.2-21.2c-11.7,0-21.2,9.5-21.2,21.2
							c0,0.9-0.7,1.6-1.6,1.6c-0.9,0-1.6-0.7-1.6-1.6c0-13.5,11-24.5,24.4-24.5c13.5,0,24.4,11,24.4,24.5
							C85.9,71,85.2,71.7,84.3,71.7z"/>
					</g>
				</g>
				<g>
					<g>
						<polygon fill="#FFFFFF" points="88.8,70.5 84.2,74.8 79.7,70.5 						"/>
					</g>
				</g>
			</g>
			<g>
				<g>
					<g>
						<path fill="#FFFFFF" d="M66,101.6c-13.5,0-24.4-11-24.4-24.4c0-0.9,0.7-1.6,1.6-1.6c0.9,0,1.6,0.7,1.6,1.6
							c0,11.7,9.5,21.2,21.2,21.2c11.7,0,21.2-9.5,21.2-21.2c0-0.9,0.7-1.6,1.6-1.6c0.9,0,1.6,0.7,1.6,1.6
							C90.4,90.7,79.4,101.6,66,101.6z"/>
					</g>
				</g>
				<g>
					<g>
						<polygon fill="#FFFFFF" points="38.7,76.5 43.2,72.2 47.7,76.5 						"/>
					</g>
				</g>
			</g>
		</g>
	</g>
	<g>
		<rect x="65" y="11" fill="#B0BEC5" width="7" height="8"/>
		<path fill="#37474F" d="M72,20.5h-7c-0.8,0-1.5-0.7-1.5-1.5v-8c0-0.8,0.7-1.5,1.5-1.5h7c0.8,0,1.5,0.7,1.5,1.5v8
			C73.5,19.8,72.8,20.5,72,20.5z M66.5,17.5h4v-5h-4V17.5z"/>
	</g>
	<g>
		<rect x="65" y="23" fill="#B0BEC5" width="7" height="8"/>
		<path fill="#37474F" d="M72,32.5h-7c-0.8,0-1.5-0.7-1.5-1.5v-8c0-0.8,0.7-1.5,1.5-1.5h7c0.8,0,1.5,0.7,1.5,1.5v8
			C73.5,31.8,72.8,32.5,72,32.5z M66.5,29.5h4v-5h-4V29.5z"/>
	</g>
</g>
</svg>
