<?xml version="1.0" encoding="utf-8"?>
<!-- Generator: Adobe Illustrator 16.0.0, SVG Export Plug-In . SVG Version: 6.00 Build 0)  -->
<!DOCTYPE svg PUBLIC "-//W3C//DTD SVG 1.1//EN" "http://www.w3.org/Graphics/SVG/1.1/DTD/svg11.dtd">
<svg version="1.1" id="Layer_1" xmlns="http://www.w3.org/2000/svg" xmlns:xlink="http://www.w3.org/1999/xlink" x="0px" y="0px"
	 width="64px" height="64px" viewBox="0 0 64 64" enable-background="new 0 0 64 64" xml:space="preserve">
<g>
	<g>
		<polygon fill="#37474F" points="34.1,39.5 32,30.5 29.9,39.5 		"/>
		<path fill="#37474F" d="M34.1,40.5h-4.3c-0.3,0-0.6-0.1-0.8-0.4c-0.2-0.2-0.3-0.6-0.2-0.9l2.1-9c0.1-0.5,0.5-0.8,1-0.8
			c0,0,0,0,0,0c0.5,0,0.9,0.3,1,0.8l2.1,9c0.1,0.3,0,0.6-0.2,0.9C34.7,40.4,34.4,40.5,34.1,40.5z M31.1,38.5h1.7L32,34.8L31.1,38.5z
			"/>
	</g>
	<g>
		<g>
			<g>
				<rect x="7.5" y="2.5" fill="#37474F" width="49" height="28"/>
				<path fill="#37474F" d="M56.5,31.5h-49c-0.6,0-1-0.4-1-1v-28c0-0.6,0.4-1,1-1h49c0.6,0,1,0.4,1,1v28
					C57.5,31.1,57.1,31.5,56.5,31.5z M8.5,29.5h47v-26h-47V29.5z"/>
			</g>
			<g>
				<rect x="9.5" y="3.5" fill="#B0BEC5" width="44" height="24"/>
			</g>
			<g>
				<polygon fill="#FFFFFF" points="32.8,29.3 32,30 31.2,29.3 32,28.5 				"/>
			</g>
			<g>
				<defs>
					<rect id="SVGID_1_" x="9.5" y="3.5" width="44" height="24"/>
				</defs>
				<clipPath id="SVGID_2_">
					<use xlink:href="#SVGID_1_"  overflow="visible"/>
				</clipPath>
				<g clip-path="url(#SVGID_2_)">
					<polygon fill="#FFFFFF" points="43.5,-5.9 8.9,28.8 -0.6,19.3 34.1,-15.3 					"/>
				</g>
				<g clip-path="url(#SVGID_2_)">
					<polygon fill="#FFFFFF" points="74,10.7 39.3,45.4 29.9,35.9 64.5,1.3 					"/>
				</g>
				<g clip-path="url(#SVGID_2_)">
					<polygon fill="#FFFFFF" points="54.5,-0.8 19.9,33.8 15.6,29.5 50.3,-5.1 					"/>
				</g>
				<g clip-path="url(#SVGID_2_)">
					<polygon fill="#FFFFFF" points="62.1,-3.3 27.4,31.3 26.5,30.4 61.1,-4.3 					"/>
				</g>
			</g>
		</g>
		<g>
			<g>
				<path fill="#37474F" d="M36.7,16.5c0-0.4,0.4-0.8,0.8-0.8c0.4,0,0.8,0.3,0.8,0.8c0,0.4-0.3,0.8-0.8,0.8
					C37,17.3,36.7,16.9,36.7,16.5z"/>
				<path fill="#37474F" d="M37.4,17.8c-0.7,0-1.3-0.6-1.3-1.3c0-0.7,0.6-1.3,1.3-1.3c0.4,0,0.7,0.1,0.9,0.4
					c0.2,0.2,0.4,0.6,0.4,0.9C38.7,17.2,38.2,17.8,37.4,17.8L37.4,17.8z M37.4,16.2c-0.2,0-0.3,0.1-0.3,0.3c0,0.1,0.1,0.3,0.3,0.3
					v0.5l0-0.5c0.2,0,0.3-0.1,0.3-0.3c0-0.1,0-0.2-0.1-0.2C37.6,16.2,37.5,16.2,37.4,16.2z"/>
			</g>
			<g>
				<path fill="#37474F" d="M31.2,16.5c0-0.4,0.4-0.8,0.8-0.8c0.4,0,0.8,0.3,0.8,0.8c0,0.4-0.4,0.8-0.8,0.8
					C31.6,17.3,31.2,16.9,31.2,16.5z"/>
				<path fill="#37474F" d="M32,17.8L32,17.8c-0.7,0-1.3-0.6-1.3-1.3c0-0.7,0.6-1.3,1.3-1.3c0.7,0,1.3,0.6,1.3,1.3
					C33.3,17.2,32.7,17.8,32,17.8z M32,16.2c-0.1,0-0.3,0.1-0.3,0.3c0,0.1,0.1,0.3,0.3,0.3c0.2,0,0.3-0.1,0.3-0.3
					C32.3,16.3,32.1,16.2,32,16.2z"/>
			</g>
			<g>
				<path fill="#37474F" d="M25.7,16.5c0-0.4,0.4-0.8,0.8-0.8c0.4,0,0.8,0.3,0.8,0.8c0,0.4-0.4,0.8-0.8,0.8
					C26.1,17.3,25.7,16.9,25.7,16.5z"/>
				<path fill="#37474F" d="M26.5,17.8L26.5,17.8C26.5,17.8,26.5,17.8,26.5,17.8c-0.7,0-1.3-0.6-1.3-1.3c0-0.7,0.6-1.3,1.3-1.3
					c0.7,0,1.3,0.6,1.3,1.3C27.8,17.2,27.2,17.8,26.5,17.8z M26.5,16.2c-0.2,0-0.3,0.1-0.3,0.3c0,0.1,0.1,0.3,0.3,0.3l0,0.5l0-0.5
					c0.1,0,0.3-0.1,0.3-0.3C26.8,16.3,26.7,16.2,26.5,16.2z"/>
			</g>
		</g>
	</g>
	<g>
		<g>
			<g>
				<g>
					<path fill="#B0BEC5" d="M10.5,53.1c0,2.6-1.9,4.6-4.5,4.6l0,0c-2.6,0-4.5-2.1-4.5-4.6V37.6C1.5,35.1,3.4,33,6,33l0,0
						c2.6,0,4.5,2.1,4.5,4.6V53.1z"/>
					<path fill="#37474F" d="M6,58.8c-3.1,0-5.5-2.5-5.5-5.6V37.6C0.5,34.5,2.9,32,6,32c3.1,0,5.5,2.5,5.5,5.6v15.5
						C11.5,56.3,9.1,58.8,6,58.8z M6,34c-2,0-3.5,1.6-3.5,3.6v15.5c0,2,1.5,3.6,3.5,3.6c2,0,3.5-1.6,3.5-3.6V37.6
						C9.5,35.6,8,34,6,34z"/>
				</g>
				<g>
					<path fill="#FFFFFF" d="M9.5,50.3c0,2.2-1.5,4-3.5,4l0,0c-2,0-3.5-1.8-3.5-4V37c0-2.2,1.5-4,3.5-4l0,0c2,0,3.5,1.8,3.5,4V50.3z
						"/>
				</g>
				<g>
					<g>
						<path fill="#FFAB00" d="M8,38.9C8,40.1,7.1,41,5.9,41c-1.1,0-2-0.9-2-2.1c0-1.1,0.9-2.1,2-2.1C7.1,36.9,8,37.8,8,38.9z"/>
						<path fill="#37474F" d="M5.9,42c-1.7,0-3-1.4-3-3.1c0-1.7,1.4-3.1,3-3.1c1.7,0,3.1,1.4,3.1,3.1C9,40.6,7.6,42,5.9,42z
							 M5.9,37.9c-0.6,0-1,0.5-1,1.1c0,0.6,0.5,1.1,1,1.1C6.5,40,7,39.5,7,38.9C7,38.4,6.5,37.9,5.9,37.9z"/>
					</g>
					<g>
						<line fill="#FFAB00" x1="6" y1="41.8" x2="6" y2="57.8"/>
						<path fill="#37474F" d="M6,58.8c-0.6,0-1-0.4-1-1v-16c0-0.6,0.4-1,1-1s1,0.4,1,1v16C7,58.3,6.5,58.8,6,58.8z"/>
					</g>
				</g>
			</g>
			<g>
				<path fill="#FFAB00" d="M10.1,59.5c0,1.1-0.9,2-1.9,2H3.7c-1,0-1.9-1-1.9-2l0,0c0-1,0.9-2,1.9-2h4.6
					C9.3,57.5,10.1,58.4,10.1,59.5L10.1,59.5z"/>
				<path fill="#37474F" d="M8.2,62.5H3.7c-1.6,0-2.9-1.4-2.9-3c0-1.6,1.3-3,2.9-3h4.6c1.6,0,2.9,1.4,2.9,3
					C11.1,61.1,9.8,62.5,8.2,62.5z M3.7,58.5c-0.5,0-0.9,0.5-0.9,1c0,0.5,0.4,1,0.9,1h4.6c0.5,0,0.9-0.5,0.9-1c0-0.5-0.4-1-0.9-1
					H3.7z"/>
			</g>
		</g>
		<g>
			<g>
				<g>
					<path fill="#B0BEC5" d="M62.5,53.1c0,2.6-1.9,4.6-4.5,4.6l0,0c-2.6,0-4.5-2.1-4.5-4.6V37.6c0-2.6,1.9-4.6,4.5-4.6l0,0
						c2.6,0,4.5,2.1,4.5,4.6V53.1z"/>
					<path fill="#37474F" d="M58,58.8c-3.1,0-5.5-2.5-5.5-5.6V37.6c0-3.2,2.4-5.6,5.5-5.6c3.1,0,5.5,2.5,5.5,5.6v15.5
						C63.5,56.3,61.1,58.8,58,58.8z M58,34c-2,0-3.5,1.6-3.5,3.6v15.5c0,2,1.5,3.6,3.5,3.6c2,0,3.5-1.6,3.5-3.6V37.6
						C61.5,35.6,60,34,58,34z"/>
				</g>
				<g>
					<path fill="#FFFFFF" d="M61.5,50.3c0,2.2-1.5,4-3.5,4l0,0c-2,0-3.5-1.8-3.5-4V37c0-2.2,1.5-4,3.5-4l0,0c2,0,3.5,1.8,3.5,4V50.3
						z"/>
				</g>
				<g>
					<g>
						<path fill="#FFAB00" d="M60.1,38.9c0,1.1-0.9,2.1-2.1,2.1c-1.1,0-2.1-0.9-2.1-2.1c0-1.1,0.9-2.1,2.1-2.1
							C59.2,36.9,60.1,37.8,60.1,38.9z"/>
						<path fill="#37474F" d="M58,42c-1.7,0-3.1-1.4-3.1-3.1c0-1.7,1.4-3.1,3.1-3.1c1.7,0,3.1,1.4,3.1,3.1C61.1,40.6,59.7,42,58,42z
							 M58,37.9c-0.6,0-1.1,0.5-1.1,1.1c0,0.6,0.5,1.1,1.1,1.1c0.6,0,1.1-0.5,1.1-1.1C59.1,38.4,58.6,37.9,58,37.9z"/>
					</g>
					<g>
						<line fill="#FFAB00" x1="58" y1="41.6" x2="58" y2="57.6"/>
						<path fill="#37474F" d="M58,58.6c-0.6,0-1-0.4-1-1v-16c0-0.6,0.4-1,1-1s1,0.4,1,1v16C59,58.1,58.6,58.6,58,58.6z"/>
					</g>
				</g>
			</g>
			<g>
				<path fill="#FFAB00" d="M62.2,59.5c0,1.1-0.9,2-1.9,2h-4.6c-1,0-1.9-1-1.9-2l0,0c0-1,0.9-2,1.9-2h4.6
					C61.4,57.5,62.2,58.4,62.2,59.5L62.2,59.5z"/>
				<path fill="#37474F" d="M60.3,62.5h-4.6c-1.6,0-2.9-1.4-2.9-3c0-1.6,1.3-3,2.9-3h4.6c1.6,0,2.9,1.4,2.9,3
					C63.2,61.1,61.9,62.5,60.3,62.5z M55.7,58.5c-0.5,0-0.9,0.5-0.9,1c0,0.5,0.4,1,0.9,1h4.6c0.5,0,0.9-0.5,0.9-1c0-0.5-0.4-1-0.9-1
					H55.7z"/>
			</g>
		</g>
	</g>
	<g>
		<rect x="15.5" y="55.5" fill="#37474F" width="32" height="6"/>
		<path fill="#37474F" d="M47.5,62.5h-32c-0.6,0-1-0.4-1-1v-6c0-0.6,0.4-1,1-1h32c0.6,0,1,0.4,1,1v6C48.5,62.1,48.1,62.5,47.5,62.5z
			 M16.5,60.5h30v-4h-30V60.5z"/>
	</g>
	<g>
		<rect x="15.5" y="46.5" fill="#78909C" width="32" height="7"/>
		<path fill="#37474F" d="M48.5,54.5h-34v-9h34V54.5z M16.5,52.5h30v-5h-30V52.5z"/>
	</g>
	<g>
		<rect x="15.5" y="39.5" fill="#B0BEC5" width="32" height="7"/>
		<path fill="#37474F" d="M47.5,47.5h-32c-0.6,0-1-0.4-1-1v-7c0-0.6,0.4-1,1-1h32c0.6,0,1,0.4,1,1v7C48.5,47.1,48.1,47.5,47.5,47.5z
			 M16.5,45.5h30v-5h-30V45.5z"/>
	</g>
	<g>
		<g>
			<rect x="19.5" y="42.5" fill="#37474F" width="22" height="1"/>
		</g>
		<g>
			<path fill="#37474F" d="M40.9,43.1c0,1,0.8,1.8,1.8,1.8c1,0,1.8-0.8,1.8-1.8c0-1-0.8-1.8-1.8-1.8C41.7,41.3,40.9,42.1,40.9,43.1z
				"/>
		</g>
	</g>
	<g>
		<g>
			<rect x="22.5" y="49.5" fill="#37474F" width="22" height="1"/>
		</g>
		<g>
			<path fill="#37474F" d="M23,49.9c0-1-0.8-1.8-1.8-1.8c-1,0-1.8,0.8-1.8,1.8c0,1,0.8,1.8,1.8,1.8C22.2,51.7,23,50.9,23,49.9z"/>
		</g>
	</g>
</g>
</svg>
