<?xml version="1.0" encoding="utf-8"?>
<!-- Generator: Adobe Illustrator 16.0.0, SVG Export Plug-In . SVG Version: 6.00 Build 0)  -->
<!DOCTYPE svg PUBLIC "-//W3C//DTD SVG 1.1//EN" "http://www.w3.org/Graphics/SVG/1.1/DTD/svg11.dtd">
<svg version="1.1" id="Layer_1" xmlns="http://www.w3.org/2000/svg" xmlns:xlink="http://www.w3.org/1999/xlink" x="0px" y="0px"
	 width="128px" height="128px" viewBox="0 0 128 128" enable-background="new 0 0 128 128" xml:space="preserve">
<g>
	<g>
		<g>
			<path fill="#78909C" d="M121,111c0,7.4-6.3,13.5-13.7,13.5H20.2C12.8,124.5,7,118.4,7,111v-87c0-7.4,5.8-13.4,13.2-13.4h87.1
				c7.4,0,13.7,6,13.7,13.4V111z"/>
		</g>
		<g>
			<path fill="#37474F" d="M107.3,126H20.2c-8.1,0-14.7-6.8-14.7-15v-87C5.5,15.7,12.1,9,20.2,9h87.1c8.4,0,15.2,6.7,15.2,14.9v87
				C122.5,119.1,115.5,126,107.3,126z M20.2,12c-6.6,0-11.7,5.2-11.7,11.9v87c0,6.6,5.3,12,11.7,12h87.1c6.6,0,12.2-5.5,12.2-12v-87
				c0-6.5-5.6-11.9-12.2-11.9H20.2z"/>
		</g>
	</g>
	<g>
		<g>
			<path fill="#FFAB00" d="M121,104.3c0,7.4-6.3,13.2-13.7,13.2H20.2c-7.4,0-13.2-5.8-13.2-13.2V17.2C7,9.8,12.8,3.5,20.2,3.5h87.1
				c7.4,0,13.7,6.3,13.7,13.7V104.3z"/>
		</g>
		<g>
			<path fill="#37474F" d="M107.3,119H20.2c-8.3,0-14.7-6.5-14.7-14.7V17.2C5.5,8.8,12.1,2,20.2,2h87.1c8.2,0,15.2,7,15.2,15.2v87.1
				C122.5,112.4,115.7,119,107.3,119z M20.2,5C13.8,5,8.5,10.5,8.5,17.2v87.1c0,6.6,5.2,11.7,11.7,11.7h87.1
				c6.7,0,12.2-5.3,12.2-11.7V17.2c0-6.6-5.6-12.2-12.2-12.2H20.2z"/>
		</g>
	</g>
	<g>
		<g>
			<g>
				<path fill="#FFFFFF" d="M100.1,60.5c0.2-2,0.5-3.6,0.5-5.4c0-20.4-16.5-36.9-36.9-36.9c-20.4,0-36.9,16.6-36.9,37
					c0,1.8,0.3,3.4,0.5,5.4H100.1z"/>
			</g>
			<g>
				<path fill="#37474F" d="M100.1,62H27.4c-0.8,0-1.4-0.6-1.5-1.3c-0.1-0.5-0.1-1-0.2-1.5c-0.2-1.4-0.4-2.6-0.4-4.1
					c0-21.2,17.2-38.5,38.4-38.5c21.2,0,38.4,17.2,38.4,38.4c0,1.5-0.2,2.8-0.4,4.2c-0.1,0.4-0.1,0.9-0.2,1.4
					C101.5,61.4,100.9,62,100.1,62z M28.7,59h70.1c0,0,0-0.1,0-0.1c0.2-1.3,0.3-2.5,0.3-3.8c0-19.5-15.9-35.4-35.4-35.4
					c-19.5,0-35.4,15.9-35.4,35.5c0,1.2,0.2,2.4,0.3,3.7C28.7,58.9,28.7,58.9,28.7,59z"/>
			</g>
		</g>
		<g>
			<g>
				<path fill="#FFECB3" d="M80.6,60.5c0.1-1,0.2-1.7,0.2-2.6c0-9.4-7.7-17.2-17.1-17.2c-9.5,0-17.1,7.8-17.1,17.2
					c0,0.8,0.1,1.5,0.3,2.5H80.6z"/>
			</g>
			<g>
				<path fill="#37474F" d="M80.6,62H46.9c-0.8,0-1.4-0.6-1.5-1.3c0-0.3-0.1-0.6-0.1-0.8c-0.1-0.6-0.2-1.2-0.2-1.9
					c0-10.3,8.4-18.7,18.6-18.7c10.3,0,18.6,8.4,18.6,18.7c0,0.6-0.1,1.2-0.1,1.8c0,0.3-0.1,0.6-0.1,0.9C82.1,61.4,81.4,62,80.6,62z
					 M48.2,59h31.1c0-0.4,0.1-0.7,0.1-1.1c0-8.6-7-15.7-15.6-15.7c-8.6,0-15.6,7-15.6,15.7C48.1,58.3,48.2,58.6,48.2,59z"/>
			</g>
		</g>
	</g>
	<g>
		<g>
			<g>
				<g>
					<g>
						<path fill="#37474F" d="M49.5,77.3c0-0.9,0.7-1.5,1.5-1.5c0.8,0,1.6,0.7,1.5,1.5c0,0.8-0.7,1.5-1.5,1.5
							C50.2,78.8,49.5,78.1,49.5,77.3z"/>
					</g>
					<g>
						<path fill="#37474F" d="M51,79.3c-1.1,0-2-0.9-2-2c0-1.1,0.9-2,2-2c0.6,0,1.1,0.2,1.5,0.6c0.4,0.4,0.6,0.9,0.6,1.4
							C53.1,78.4,52.2,79.3,51,79.3L51,79.3z M51.1,76.2c-0.6,0-1,0.5-1,1c0,0.6,0.5,1,1,1v0.5l0-0.5c0.6,0,1.1-0.5,1.1-1
							c0-0.3-0.1-0.5-0.3-0.7C51.6,76.4,51.3,76.2,51.1,76.2z"/>
					</g>
				</g>
				<g>
					<g>
						<path fill="#37474F" d="M38.8,77.3c0-0.9,0.7-1.5,1.5-1.5c0.9,0,1.5,0.7,1.6,1.5c0,0.8-0.7,1.5-1.6,1.5
							C39.5,78.8,38.8,78.1,38.8,77.3z"/>
					</g>
					<g>
						<path fill="#37474F" d="M40.3,79.3L40.3,79.3c-1.1,0-2-0.9-2-2c0-0.5,0.2-1.1,0.6-1.4c0.4-0.4,0.9-0.6,1.4-0.6
							c1.1,0,2,0.9,2.1,2C42.3,78.4,41.4,79.3,40.3,79.3z M40.3,76.2c-0.3,0-0.5,0.1-0.7,0.3c-0.2,0.2-0.3,0.5-0.3,0.7
							c0,0.6,0.5,1,1,1c0.6,0,1.1-0.5,1.1-1.1C41.3,76.7,40.9,76.2,40.3,76.2z"/>
					</g>
				</g>
				<g>
					<g>
						<path fill="#37474F" d="M28,77.3c0-0.8,0.7-1.5,1.5-1.5c0.8,0,1.5,0.7,1.5,1.5c0,0.8-0.7,1.5-1.6,1.5
							C28.7,78.8,28,78.1,28,77.3z"/>
					</g>
					<g>
						<path fill="#37474F" d="M29.6,79.3L29.6,79.3C29.5,79.3,29.5,79.3,29.6,79.3c-1.2,0-2.1-0.9-2.1-2c0-1.1,0.9-2,2-2
							c1.1,0,2,0.9,2,2C31.6,78.4,30.7,79.3,29.6,79.3z M29.6,76.2c-0.6,0-1,0.5-1,1c0,0.6,0.5,1,1,1l0.1,0.5v-0.5c0.6,0,1-0.5,1-1
							C30.6,76.7,30.2,76.2,29.6,76.2z"/>
					</g>
				</g>
			</g>
			<g>
				<g>
					<g>
						<path fill="#37474F" d="M49.5,87.9c0-0.9,0.7-1.5,1.5-1.5c0.8,0,1.6,0.7,1.5,1.5c0,0.8-0.7,1.5-1.5,1.5
							C50.2,89.4,49.5,88.7,49.5,87.9z"/>
					</g>
					<g>
						<path fill="#37474F" d="M51,89.9c-1.1,0-2-0.9-2-2c0-1.1,0.9-2,2-2c0.5,0,1.1,0.2,1.5,0.6c0.4,0.4,0.6,0.9,0.6,1.4
							C53.1,89,52.2,89.9,51,89.9L51,89.9z M51.1,86.8c-0.6,0-1,0.5-1,1c0,0.6,0.5,1,1,1v0.5l0-0.5c0.6,0,1-0.5,1-1
							c0-0.3-0.1-0.5-0.3-0.7C51.6,87,51.3,86.8,51.1,86.8z"/>
					</g>
				</g>
				<g>
					<g>
						<path fill="#37474F" d="M38.8,87.9c0-0.9,0.7-1.5,1.5-1.5c0.9,0,1.5,0.7,1.6,1.5c0,0.8-0.7,1.6-1.6,1.6
							C39.5,89.4,38.8,88.7,38.8,87.9z"/>
					</g>
					<g>
						<path fill="#37474F" d="M40.3,89.9L40.3,89.9c-1.1,0-2-0.9-2-2.1c0-0.5,0.2-1.1,0.6-1.4c0.4-0.4,0.9-0.6,1.4-0.6
							c1.1,0,2,0.9,2.1,2C42.3,89,41.4,89.9,40.3,89.9z M40.3,86.8c-0.3,0-0.5,0.1-0.7,0.3c-0.2,0.2-0.3,0.5-0.3,0.7
							c0,0.6,0.5,1,1,1.1c0.6,0,1.1-0.5,1.1-1.1C41.3,87.3,40.9,86.8,40.3,86.8z"/>
					</g>
				</g>
				<g>
					<g>
						<path fill="#37474F" d="M28,87.9c0-0.8,0.7-1.5,1.5-1.5c0.8,0,1.5,0.7,1.5,1.5c0,0.8-0.7,1.6-1.6,1.5
							C28.7,89.4,28,88.7,28,87.9z"/>
					</g>
					<g>
						<path fill="#37474F" d="M29.6,89.9L29.6,89.9L29.6,89.9c-1.1,0-2.1-0.9-2.1-2c0-1.1,0.9-2,2-2c1.1,0,2,0.9,2,2
							C31.6,89,30.7,89.9,29.6,89.9z M29.6,86.8c-0.6,0-1,0.5-1,1c0,0.6,0.5,1,1,1l0.1,0.5l0-0.5c0.6,0,1-0.5,1-1
							C30.6,87.3,30.2,86.8,29.6,86.8z"/>
					</g>
				</g>
			</g>
			<g>
				<g>
					<g>
						<path fill="#37474F" d="M49.5,98.5c0-0.9,0.7-1.5,1.5-1.5c0.8,0,1.6,0.7,1.5,1.5c0,0.8-0.7,1.5-1.5,1.5
							C50.2,100,49.5,99.3,49.5,98.5z"/>
					</g>
					<g>
						<path fill="#37474F" d="M51,100.5c-1.1,0-2-0.9-2-2c0-1.1,0.9-2,2-2c0.6,0,1.1,0.2,1.5,0.6c0.4,0.4,0.6,0.9,0.6,1.4
							C53.1,99.6,52.2,100.5,51,100.5L51,100.5z M51.1,97.5c-0.6,0-1,0.5-1,1c0,0.5,0.5,1,1,1v0.5l0-0.5c0.6,0,1.1-0.5,1.1-1
							c0-0.3-0.1-0.5-0.3-0.7C51.6,97.6,51.3,97.5,51.1,97.5z"/>
					</g>
				</g>
				<g>
					<g>
						<path fill="#37474F" d="M38.8,98.5c0-0.9,0.7-1.5,1.5-1.5c0.9,0,1.5,0.7,1.6,1.5c0,0.8-0.7,1.5-1.6,1.5
							C39.5,100,38.8,99.3,38.8,98.5z"/>
					</g>
					<g>
						<path fill="#37474F" d="M40.3,100.5L40.3,100.5c-1.1,0-2-0.9-2-2c0-0.5,0.2-1.1,0.6-1.4c0.4-0.4,0.9-0.6,1.4-0.6
							c1.1,0,2,0.9,2.1,2C42.3,99.6,41.4,100.5,40.3,100.5z M40.3,97.5c-0.3,0-0.5,0.1-0.7,0.3c-0.2,0.2-0.3,0.4-0.3,0.7
							c0,0.6,0.5,1,1,1c0.6,0,1.1-0.5,1.1-1.1C41.3,97.9,40.9,97.5,40.3,97.5z"/>
					</g>
				</g>
				<g>
					<g>
						<path fill="#37474F" d="M28,98.5c0-0.8,0.7-1.5,1.5-1.5c0.8,0,1.5,0.7,1.5,1.5c0,0.8-0.7,1.5-1.6,1.5
							C28.7,100,28,99.3,28,98.5z"/>
					</g>
					<g>
						<path fill="#37474F" d="M29.6,100.5L29.6,100.5C29.5,100.5,29.5,100.5,29.6,100.5c-1.2,0-2.1-0.9-2.1-2c0-1.1,0.9-2,2-2
							c1.1,0,2,0.9,2,2C31.6,99.6,30.7,100.5,29.6,100.5z M29.6,97.5c-0.6,0-1,0.5-1,1c0,0.5,0.5,1,1,1l0.1,0.5v-0.5
							c0.6,0,1-0.5,1-1C30.6,97.9,30.2,97.5,29.6,97.5z"/>
					</g>
				</g>
			</g>
		</g>
		<g>
			<g>
				<g>
					<g>
						<path fill="#37474F" d="M96.4,77.3c0-0.9,0.7-1.5,1.5-1.5c0.8,0,1.6,0.7,1.5,1.5c0,0.8-0.7,1.5-1.5,1.5
							C97.1,78.8,96.4,78.1,96.4,77.3z"/>
					</g>
					<g>
						<path fill="#37474F" d="M97.9,79.3c-1.1,0-2-0.9-2-2c0-1.1,0.9-2,2-2c0.6,0,1.1,0.2,1.5,0.6c0.4,0.4,0.6,0.9,0.6,1.4
							C100,78.4,99.1,79.3,97.9,79.3L97.9,79.3z M97.9,76.2c-0.6,0-1,0.5-1,1c0,0.6,0.4,1,1,1v0.5l0-0.5c0.6,0,1.1-0.5,1.1-1
							c0-0.3-0.1-0.5-0.3-0.7C98.5,76.4,98.2,76.2,97.9,76.2z"/>
					</g>
				</g>
				<g>
					<g>
						<path fill="#37474F" d="M85.7,77.3c0-0.9,0.7-1.5,1.5-1.5c0.8,0,1.5,0.7,1.6,1.5c0,0.8-0.7,1.5-1.6,1.5
							C86.4,78.8,85.7,78.1,85.7,77.3z"/>
					</g>
					<g>
						<path fill="#37474F" d="M87.2,79.3L87.2,79.3c-1.1,0-2-0.9-2-2c0-0.5,0.2-1.1,0.6-1.4c0.4-0.4,0.9-0.6,1.4-0.6
							c1.1,0,2,0.9,2.1,2C89.2,78.4,88.3,79.3,87.2,79.3z M87.2,76.2c-0.3,0-0.5,0.1-0.7,0.3c-0.2,0.2-0.3,0.5-0.3,0.7
							c0,0.6,0.5,1,1,1c0.6,0,1.1-0.5,1.1-1.1C88.2,76.7,87.8,76.2,87.2,76.2z"/>
					</g>
				</g>
				<g>
					<g>
						<path fill="#37474F" d="M74.9,77.3c0-0.8,0.7-1.5,1.6-1.5c0.8,0,1.5,0.7,1.5,1.5c0,0.8-0.7,1.5-1.5,1.5
							C75.6,78.8,74.9,78.1,74.9,77.3z"/>
					</g>
					<g>
						<path fill="#37474F" d="M76.5,79.3L76.5,79.3C76.5,79.3,76.5,79.3,76.5,79.3c-1.2,0-2.1-0.9-2.1-2c0-1.1,0.9-2,2.1-2
							c1.1,0,2,0.9,2,2C78.5,78.4,77.6,79.3,76.5,79.3z M76.5,76.2c-0.6,0-1.1,0.5-1.1,1c0,0.6,0.5,1,1,1l0.1,0.5v-0.5
							c0.5,0,1-0.5,1-1C77.5,76.7,77.1,76.2,76.5,76.2z"/>
					</g>
				</g>
			</g>
			<g>
				<g>
					<g>
						<path fill="#37474F" d="M96.4,87.9c0-0.9,0.7-1.5,1.5-1.5c0.8,0,1.6,0.7,1.5,1.5c0,0.8-0.7,1.5-1.5,1.5
							C97.1,89.4,96.4,88.7,96.4,87.9z"/>
					</g>
					<g>
						<path fill="#37474F" d="M97.9,89.9c-1.1,0-2-0.9-2-2c0-1.1,0.9-2,2-2c0.5,0,1.1,0.2,1.5,0.6c0.4,0.4,0.6,0.9,0.6,1.4
							C100,89,99.1,89.9,97.9,89.9L97.9,89.9z M97.9,86.8c-0.6,0-1,0.5-1,1c0,0.6,0.5,1,1,1v0.5l0-0.5c0.6,0,1-0.5,1-1
							c0-0.3-0.1-0.5-0.3-0.7C98.5,87,98.2,86.8,97.9,86.8z"/>
					</g>
				</g>
				<g>
					<g>
						<path fill="#37474F" d="M85.7,87.9c0-0.9,0.7-1.5,1.5-1.5c0.8,0,1.5,0.7,1.6,1.5c0,0.8-0.7,1.6-1.6,1.6
							C86.4,89.4,85.7,88.7,85.7,87.9z"/>
					</g>
					<g>
						<path fill="#37474F" d="M87.2,89.9L87.2,89.9c-1.1,0-2-0.9-2-2.1c0-0.5,0.2-1.1,0.6-1.4c0.4-0.4,0.9-0.6,1.4-0.6
							c1.1,0,2,0.9,2.1,2C89.2,89,88.3,89.9,87.2,89.9z M87.2,86.8c-0.3,0-0.5,0.1-0.7,0.3s-0.3,0.5-0.3,0.7c0,0.6,0.5,1,1,1.1
							c0.6,0,1.1-0.5,1.1-1.1C88.2,87.3,87.8,86.8,87.2,86.8z"/>
					</g>
				</g>
				<g>
					<g>
						<path fill="#37474F" d="M74.9,87.9c0-0.8,0.7-1.5,1.6-1.5c0.8,0,1.5,0.7,1.5,1.5c0,0.8-0.7,1.6-1.5,1.5
							C75.6,89.4,74.9,88.7,74.9,87.9z"/>
					</g>
					<g>
						<path fill="#37474F" d="M76.5,89.9L76.5,89.9L76.5,89.9c-1.1,0-2.1-0.9-2.1-2c0-1.1,0.9-2,2.1-2c1.1,0,2,0.9,2,2
							C78.5,89,77.6,89.9,76.5,89.9z M76.5,86.8c-0.6,0-1.1,0.5-1.1,1c0,0.6,0.5,1,1,1l0.1,0.5v-0.5c0.5,0,1-0.5,1-1
							C77.5,87.3,77,86.8,76.5,86.8z"/>
					</g>
				</g>
			</g>
			<g>
				<g>
					<g>
						<path fill="#37474F" d="M96.4,98.5c0-0.9,0.7-1.5,1.5-1.5c0.8,0,1.6,0.7,1.5,1.5c0,0.8-0.7,1.5-1.5,1.5
							C97.1,100,96.4,99.3,96.4,98.5z"/>
					</g>
					<g>
						<path fill="#37474F" d="M97.9,100.5c-1.1,0-2-0.9-2-2c0-1.1,0.9-2,2-2c0.6,0,1.1,0.2,1.5,0.6c0.4,0.4,0.6,0.9,0.6,1.4
							C100,99.6,99.1,100.5,97.9,100.5L97.9,100.5z M97.9,97.5c-0.6,0-1,0.5-1,1c0,0.6,0.5,1,1,1v0.5l0-0.5c0.6,0,1.1-0.5,1.1-1
							c0-0.3-0.1-0.5-0.3-0.7C98.5,97.6,98.2,97.5,97.9,97.5z"/>
					</g>
				</g>
				<g>
					<g>
						<path fill="#37474F" d="M85.7,98.5c0-0.9,0.7-1.5,1.5-1.5c0.8,0,1.5,0.7,1.6,1.5c0,0.8-0.7,1.5-1.6,1.5
							C86.4,100,85.7,99.3,85.7,98.5z"/>
					</g>
					<g>
						<path fill="#37474F" d="M87.2,100.5L87.2,100.5c-1.1,0-2-0.9-2-2c0-0.5,0.2-1,0.6-1.4c0.4-0.4,0.9-0.6,1.4-0.6
							c1.1,0,2,0.9,2.1,2C89.2,99.6,88.3,100.5,87.2,100.5z M87.2,97.5c-0.3,0-0.5,0.1-0.7,0.3c-0.2,0.2-0.3,0.4-0.3,0.7
							c0,0.6,0.5,1,1,1c0.6,0,1.1-0.5,1.1-1.1C88.2,97.9,87.8,97.5,87.2,97.5z"/>
					</g>
				</g>
				<g>
					<g>
						<path fill="#37474F" d="M74.9,98.5c0-0.8,0.7-1.5,1.6-1.5c0.8,0,1.5,0.7,1.5,1.5c0,0.8-0.7,1.5-1.5,1.5
							C75.6,100,74.9,99.3,74.9,98.5z"/>
					</g>
					<g>
						<path fill="#37474F" d="M76.5,100.5L76.5,100.5C76.5,100.5,76.5,100.5,76.5,100.5c-1.2,0-2.1-0.9-2.1-2c0-1.1,0.9-2,2.1-2
							c1.1,0,2,0.9,2,2C78.5,99.6,77.6,100.5,76.5,100.5z M76.5,97.5c-0.6,0-1.1,0.5-1.1,1c0,0.5,0.5,1,1,1l0.1,0.5l0-0.5
							c0.5,0,1-0.5,1-1C77.5,97.9,77.1,97.5,76.5,97.5z"/>
					</g>
				</g>
			</g>
		</g>
	</g>
	<g>
		<g>
			<line fill="#FFECB3" x1="38" y1="32.9" x2="61.2" y2="56"/>
		</g>
		<g>
			<path fill="#37474F" d="M61.2,57.5c-0.4,0-0.8-0.1-1.1-0.4L37,34c-0.6-0.6-0.6-1.5,0-2.1c0.6-0.6,1.5-0.6,2.1,0L62.2,55
				c0.6,0.6,0.6,1.5,0,2.1C62,57.4,61.6,57.5,61.2,57.5z"/>
		</g>
	</g>
	<g>
		<g>
			<g>
				<path fill="#B0BEC5" d="M23.8,16.5c0,2.4-2,4.4-4.4,4.4s-4.4-2-4.4-4.4c0-2.4,2-4.4,4.4-4.4S23.8,14.1,23.8,16.5z"/>
			</g>
			<g>
				<path fill="#37474F" d="M19.4,22.4c-3.3,0-5.9-2.6-5.9-5.9s2.6-5.9,5.9-5.9c3.3,0,5.9,2.6,5.9,5.9S22.6,22.4,19.4,22.4z
					 M19.4,13.6c-1.6,0-2.9,1.3-2.9,2.9s1.3,2.9,2.9,2.9c1.6,0,2.9-1.3,2.9-2.9S21,13.6,19.4,13.6z"/>
			</g>
		</g>
		<g>
			<g>
				<path fill="#B0BEC5" d="M112.5,16.5c0,2.4-2,4.4-4.4,4.4s-4.4-2-4.4-4.4c0-2.4,2-4.4,4.4-4.4S112.5,14.1,112.5,16.5z"/>
			</g>
			<g>
				<path fill="#37474F" d="M108.1,22.4c-3.3,0-5.9-2.6-5.9-5.9s2.6-5.9,5.9-5.9s5.9,2.6,5.9,5.9S111.4,22.4,108.1,22.4z
					 M108.1,13.6c-1.6,0-2.9,1.3-2.9,2.9s1.3,2.9,2.9,2.9s2.9-1.3,2.9-2.9S109.7,13.6,108.1,13.6z"/>
			</g>
		</g>
	</g>
	<g>
		<g>
			<g>
				<path fill="#B0BEC5" d="M23.8,104.4c0,2.4-2,4.4-4.4,4.4s-4.4-2-4.4-4.4c0-2.4,2-4.4,4.4-4.4S23.8,102,23.8,104.4z"/>
			</g>
			<g>
				<path fill="#37474F" d="M19.4,110.3c-3.3,0-5.9-2.7-5.9-5.9c0-3.2,2.6-5.9,5.9-5.9c3.3,0,5.9,2.6,5.9,5.9
					C25.3,107.7,22.6,110.3,19.4,110.3z M19.4,101.5c-1.6,0-2.9,1.3-2.9,2.9c0,1.6,1.3,2.9,2.9,2.9c1.6,0,2.9-1.3,2.9-2.9
					C22.3,102.8,21,101.5,19.4,101.5z"/>
			</g>
		</g>
		<g>
			<g>
				<path fill="#B0BEC5" d="M112.5,104.4c0,2.4-2,4.4-4.4,4.4s-4.4-2-4.4-4.4c0-2.4,2-4.4,4.4-4.4S112.5,102,112.5,104.4z"/>
			</g>
			<g>
				<path fill="#37474F" d="M108.1,110.3c-3.3,0-5.9-2.7-5.9-5.9c0-3.2,2.6-5.9,5.9-5.9s5.9,2.6,5.9,5.9
					C114,107.7,111.4,110.3,108.1,110.3z M108.1,101.5c-1.6,0-2.9,1.3-2.9,2.9c0,1.6,1.3,2.9,2.9,2.9s2.9-1.3,2.9-2.9
					C111,102.8,109.7,101.5,108.1,101.5z"/>
			</g>
		</g>
	</g>
	<g>
		<g>
			<line fill="#B0BEC5" x1="64" y1="63" x2="64" y2="116"/>
		</g>
		<g>
			<path fill="#37474F" d="M64,117.5c-0.8,0-1.5-0.7-1.5-1.5V63c0-0.8,0.7-1.5,1.5-1.5s1.5,0.7,1.5,1.5v53
				C65.5,116.8,64.8,117.5,64,117.5z"/>
		</g>
	</g>
	<g>
		<g>
			<path fill="#FFFFFF" d="M68.2,59.4c0,2.5-2,4.5-4.5,4.5c-2.5,0-4.5-2-4.5-4.5c0-2.5,2-4.5,4.5-4.5C66.2,55,68.2,57,68.2,59.4z"/>
		</g>
		<g>
			<path fill="#37474F" d="M63.8,65.4c-3.3,0-6-2.7-6-6s2.7-6,6-6c3.3,0,6,2.7,6,6S67.1,65.4,63.8,65.4z M63.8,56.5
				c-1.6,0-3,1.3-3,3s1.3,3,3,3c1.6,0,3-1.3,3-3S65.4,56.5,63.8,56.5z"/>
		</g>
	</g>
</g>
</svg>
