<?xml version="1.0" encoding="utf-8"?>
<!-- Generator: Adobe Illustrator 16.0.0, SVG Export Plug-In . SVG Version: 6.00 Build 0)  -->
<!DOCTYPE svg PUBLIC "-//W3C//DTD SVG 1.1//EN" "http://www.w3.org/Graphics/SVG/1.1/DTD/svg11.dtd">
<svg version="1.1" id="Layer_1" xmlns="http://www.w3.org/2000/svg" xmlns:xlink="http://www.w3.org/1999/xlink" x="0px" y="0px"
	 width="128px" height="128px" viewBox="0 0 128 128" enable-background="new 0 0 128 128" xml:space="preserve">
<g>
	<g>
		<rect x="34.3" y="18" fill="#FFECB3" width="60" height="77"/>
		<path fill="#37474F" d="M94.3,96.5h-60c-0.8,0-1.5-0.7-1.5-1.5V18c0-0.8,0.7-1.5,1.5-1.5h60c0.8,0,1.5,0.7,1.5,1.5v77
			C95.8,95.8,95.1,96.5,94.3,96.5z M35.8,93.5h57v-74h-57V93.5z"/>
	</g>
	<g>
		<rect x="34.3" y="34" fill="#FFAB00" width="26" height="12"/>
		<path fill="#37474F" d="M60.3,47.5h-26c-0.8,0-1.5-0.7-1.5-1.5V34c0-0.8,0.7-1.5,1.5-1.5h26c0.8,0,1.5,0.7,1.5,1.5v12
			C61.8,46.8,61.1,47.5,60.3,47.5z M35.8,44.5h23v-9h-23V44.5z"/>
	</g>
	<g>
		<rect x="34.3" y="59" fill="#FFAB00" width="26" height="13"/>
		<path fill="#37474F" d="M60.3,73.5h-26c-0.8,0-1.5-0.7-1.5-1.5V59c0-0.8,0.7-1.5,1.5-1.5h26c0.8,0,1.5,0.7,1.5,1.5v13
			C61.8,72.8,61.1,73.5,60.3,73.5z M35.8,70.5h23v-10h-23V70.5z"/>
	</g>
	<g>
		<rect x="84.3" y="59" fill="#FFAB00" width="9" height="13"/>
		<path fill="#37474F" d="M93.3,73.5h-9c-0.8,0-1.5-0.7-1.5-1.5V59c0-0.8,0.7-1.5,1.5-1.5h9c0.8,0,1.5,0.7,1.5,1.5v13
			C94.8,72.8,94.1,73.5,93.3,73.5z M85.8,70.5h6v-10h-6V70.5z"/>
	</g>
	<g>
		<rect x="60.3" y="34" fill="#FFECB3" width="26" height="12"/>
		<path fill="#37474F" d="M86.3,47.5h-26c-0.8,0-1.5-0.7-1.5-1.5V34c0-0.8,0.7-1.5,1.5-1.5h26c0.8,0,1.5,0.7,1.5,1.5v12
			C87.8,46.8,87.1,47.5,86.3,47.5z M61.8,44.5h23v-9h-23V44.5z"/>
	</g>
	<g>
		<rect x="86.3" y="34" fill="#FFAB00" width="6" height="12"/>
		<path fill="#37474F" d="M92.3,47.5h-6c-0.8,0-1.5-0.7-1.5-1.5V34c0-0.8,0.7-1.5,1.5-1.5h6c0.8,0,1.5,0.7,1.5,1.5v12
			C93.8,46.8,93.1,47.5,92.3,47.5z M87.8,44.5h3v-9h-3V44.5z"/>
	</g>
	<g>
		<g>
			<rect x="50.3" y="21" fill="#FFAB00" width="24" height="12"/>
			<path fill="#37474F" d="M74.3,34.5h-24c-0.8,0-1.5-0.7-1.5-1.5V21c0-0.8,0.7-1.5,1.5-1.5h24c0.8,0,1.5,0.7,1.5,1.5v12
				C75.8,33.8,75.1,34.5,74.3,34.5z M51.8,31.5h21v-9h-21V31.5z"/>
		</g>
		<g>
			<rect x="50.3" y="47" fill="#FFECB3" width="24" height="13"/>
			<path fill="#37474F" d="M74.3,61.5h-24c-0.8,0-1.5-0.7-1.5-1.5V47c0-0.8,0.7-1.5,1.5-1.5h24c0.8,0,1.5,0.7,1.5,1.5v13
				C75.8,60.8,75.1,61.5,74.3,61.5z M51.8,58.5h21v-10h-21V58.5z"/>
		</g>
		<g>
			<rect x="75.3" y="47" fill="#FFAB00" width="19" height="13"/>
			<path fill="#37474F" d="M94.3,61.5h-19c-0.8,0-1.5-0.7-1.5-1.5V47c0-0.8,0.7-1.5,1.5-1.5h19c0.8,0,1.5,0.7,1.5,1.5v13
				C95.8,60.8,95.1,61.5,94.3,61.5z M76.8,58.5h16v-10h-16V58.5z"/>
		</g>
		<g>
			<rect x="35.3" y="47" fill="#FFAB00" width="15" height="13"/>
			<path fill="#37474F" d="M50.3,61.5h-15c-0.8,0-1.5-0.7-1.5-1.5V47c0-0.8,0.7-1.5,1.5-1.5h15c0.8,0,1.5,0.7,1.5,1.5v13
				C51.8,60.8,51.1,61.5,50.3,61.5z M36.8,58.5h12v-10h-12V58.5z"/>
		</g>
	</g>
	<g>
		<rect x="22.3" y="3" fill="#FFFFFF" width="83" height="18"/>
		<path fill="#37474F" d="M105.3,22.5h-83c-0.8,0-1.5-0.7-1.5-1.5V3c0-0.8,0.7-1.5,1.5-1.5h83c0.8,0,1.5,0.7,1.5,1.5v18
			C106.8,21.8,106.1,22.5,105.3,22.5z M23.8,19.5h80v-15h-80V19.5z"/>
	</g>
	<g>
		<path fill="#B0BEC5" d="M116.5,125c0.4-2,0.8-4.8,0.8-7.4c0-29.4-23.8-53.2-53.3-53.2c-29.4,0-53.3,23.7-53.3,53.1
			c0,2.6,0.4,5.5,0.8,7.5H116.5z"/>
		<path fill="#37474F" d="M116.5,126.5h-105c-0.7,0-1.4-0.5-1.5-1.2c-0.4-2-0.8-5-0.8-7.7c0-30.1,24.6-54.6,54.8-54.6
			c30.2,0,54.8,24.5,54.8,54.7c0,2.7-0.4,5.7-0.8,7.7C117.8,126,117.2,126.5,116.5,126.5z M12.8,123.5h102.4
			c0.3-1.8,0.5-3.9,0.5-5.9c0-28.5-23.2-51.7-51.8-51.7c-28.5,0-51.8,23.2-51.8,51.6C12.2,119.5,12.5,121.7,12.8,123.5z"/>
	</g>
	<g>
		<path fill="#37474F" d="M88.4,125c0.2-1,0.4-2.2,0.4-3.4C88.7,108,77.7,97,64,97c-13.7,0-24.7,10.9-24.7,24.6
			c0,1.2,0.2,2.4,0.4,3.4H88.4z"/>
		<path fill="#37474F" d="M88.4,126.5H39.6c-0.7,0-1.4-0.5-1.5-1.3c-0.2-1.1-0.4-2.4-0.4-3.7c0-14.4,11.8-26.1,26.2-26.1
			s26.2,11.7,26.2,26.1c0,1.3-0.2,2.5-0.4,3.5l0,0.1C89.7,126,89.1,126.5,88.4,126.5z M40.9,123.5h46.2c0.1-0.6,0.1-1.2,0.1-1.9
			c0-12.8-10.4-23.1-23.2-23.1s-23.2,10.4-23.2,23.1C40.8,122.2,40.8,122.9,40.9,123.5z"/>
	</g>
	<g>
		<path fill="#37474F" d="M101,126.5H27c-0.7,0-1.3-0.5-1.5-1.1c-0.3-1.1-0.6-3.6-0.6-5.6c0-21.5,17.5-38.9,39.1-38.9
			c21.5,0,39.1,17.5,39.1,39c0,2-0.3,4.5-0.6,5.6C102.3,126,101.7,126.5,101,126.5z M28.2,123.5h71.6c0.2-1.1,0.3-2.5,0.3-3.7
			c0-19.8-16.2-36-36.1-36c-19.9,0-36.1,16.1-36.1,35.9C27.9,121,28.1,122.5,28.2,123.5z"/>
	</g>
	<g>
		<g>
			<path fill="#37474F" d="M32.3,20c-0.8,0-1.5-0.7-1.5-1.5v-13c0-0.8,0.7-1.5,1.5-1.5s1.5,0.7,1.5,1.5v13
				C33.8,19.3,33.1,20,32.3,20z"/>
		</g>
		<g>
			<path fill="#37474F" d="M40.3,20c-0.8,0-1.5-0.7-1.5-1.5v-13c0-0.8,0.7-1.5,1.5-1.5s1.5,0.7,1.5,1.5v13
				C41.8,19.3,41.1,20,40.3,20z"/>
		</g>
		<g>
			<path fill="#37474F" d="M48.3,20c-0.8,0-1.5-0.7-1.5-1.5v-13c0-0.8,0.7-1.5,1.5-1.5s1.5,0.7,1.5,1.5v13
				C49.8,19.3,49.1,20,48.3,20z"/>
		</g>
		<g>
			<path fill="#37474F" d="M56.3,20c-0.8,0-1.5-0.7-1.5-1.5v-13c0-0.8,0.7-1.5,1.5-1.5s1.5,0.7,1.5,1.5v13
				C57.8,19.3,57.1,20,56.3,20z"/>
		</g>
		<g>
			<path fill="#37474F" d="M64.3,20c-0.8,0-1.5-0.7-1.5-1.5v-13c0-0.8,0.7-1.5,1.5-1.5s1.5,0.7,1.5,1.5v13
				C65.8,19.3,65.1,20,64.3,20z"/>
		</g>
		<g>
			<path fill="#37474F" d="M72.3,20c-0.8,0-1.5-0.7-1.5-1.5v-13c0-0.8,0.7-1.5,1.5-1.5s1.5,0.7,1.5,1.5v13
				C73.8,19.3,73.1,20,72.3,20z"/>
		</g>
		<g>
			<path fill="#37474F" d="M80.3,20c-0.8,0-1.5-0.7-1.5-1.5v-13c0-0.8,0.7-1.5,1.5-1.5s1.5,0.7,1.5,1.5v13
				C81.8,19.3,81.1,20,80.3,20z"/>
		</g>
		<g>
			<path fill="#37474F" d="M88.3,20c-0.8,0-1.5-0.7-1.5-1.5v-13c0-0.8,0.7-1.5,1.5-1.5s1.5,0.7,1.5,1.5v13
				C89.8,19.3,89.1,20,88.3,20z"/>
		</g>
		<g>
			<path fill="#37474F" d="M96.3,20c-0.8,0-1.5-0.7-1.5-1.5v-13c0-0.8,0.7-1.5,1.5-1.5s1.5,0.7,1.5,1.5v13
				C97.8,19.3,97.1,20,96.3,20z"/>
		</g>
	</g>
	<g>
		<path fill="#FFAB00" d="M79.5,119c1.2,2.2-2.9,2.4-2.9,2.4s-2.2-1.7,0.5-5c2.6-3.3-4.8-8.6-4.8-8.6s-3.3-2.4-1,0.2
			c2.4,2.6-1.1,6.2-1.1,6.2c1.4-3.2-6.5-10.5-6.5-10.5s-7.7,7.3-6.3,10.5c0,0-3.4-3.6-1-6.2c2.4-2.6-0.9-0.2-0.9-0.2
			s-7.4,5.2-4.8,8.6c2.6,3.3,0.5,5,0.5,5s-4.1-0.2-2.9-2.4c0,0-3.6,5,4.3,4.8c7.9-0.3,11,0,11,0l-0.1-2l0.2,2c0,0,3.4-0.3,11.3,0
			C83.1,124,79.5,119,79.5,119z"/>
	</g>
	<g>
		<g>
			<g>
				<path fill="#37474F" d="M74.4,90.6c0-1,0.8-1.8,1.7-1.8c1,0,1.8,0.8,1.8,1.8c0,0.9-0.8,1.7-1.8,1.7
					C75.2,92.4,74.4,91.6,74.4,90.6z"/>
				<path fill="#37474F" d="M76.1,92.8c-1.2,0-2.2-1-2.2-2.2c0-1.2,1-2.3,2.2-2.3c0.6,0,1.2,0.2,1.6,0.7c0.4,0.4,0.6,1,0.6,1.6
					C78.4,91.8,77.4,92.8,76.1,92.8L76.1,92.8z M76.2,89.4c-0.7,0-1.2,0.6-1.2,1.3c0,0.7,0.5,1.2,1.2,1.2v0.5l0-0.5
					c0.7,0,1.3-0.5,1.3-1.2c0-0.3-0.1-0.7-0.3-0.9C76.9,89.5,76.5,89.4,76.2,89.4z"/>
			</g>
			<g>
				<path fill="#37474F" d="M62.3,90.6c0-1,0.8-1.8,1.7-1.8c1,0,1.7,0.8,1.8,1.8c0,0.9-0.8,1.7-1.8,1.7C63,92.3,62.3,91.6,62.3,90.6
					z"/>
				<path fill="#37474F" d="M64,92.9L64,92.9c-1.2,0-2.2-1-2.2-2.2c0-0.6,0.2-1.2,0.6-1.6c0.4-0.4,1-0.7,1.6-0.7
					c1.2,0,2.2,1,2.3,2.2C66.2,91.9,65.2,92.9,64,92.9z M64,89.4c-0.3,0-0.6,0.1-0.9,0.4c-0.2,0.2-0.4,0.5-0.3,0.9
					c0,0.7,0.5,1.2,1.2,1.3c0.7,0,1.3-0.6,1.3-1.3C65.2,89.9,64.7,89.4,64,89.4z"/>
			</g>
			<g>
				<path fill="#37474F" d="M50,90.6c0-1,0.8-1.8,1.8-1.8c1,0,1.7,0.8,1.7,1.8c0,0.9-0.8,1.7-1.8,1.7C50.8,92.4,50,91.6,50,90.6z"/>
				<path fill="#37474F" d="M51.8,92.8L51.8,92.8C51.8,92.8,51.8,92.8,51.8,92.8c-1.3,0-2.3-1-2.3-2.2c0-1.2,1-2.3,2.3-2.3
					c1.2,0,2.2,1,2.2,2.3C54,91.8,53,92.8,51.8,92.8z M51.8,89.4c-0.7,0-1.3,0.6-1.3,1.3c0,0.7,0.5,1.2,1.2,1.2l0.1,0.5v-0.5
					c0.7,0,1.2-0.6,1.2-1.2C53,89.9,52.5,89.4,51.8,89.4z"/>
			</g>
		</g>
		<g>
			<g>
				<path fill="#37474F" d="M74.4,76c0-1,0.8-1.8,1.7-1.8c1,0,1.8,0.8,1.8,1.8c0,1-0.8,1.7-1.8,1.7C75.2,77.8,74.4,77,74.4,76z"/>
				<path fill="#37474F" d="M76.1,78.2c-1.2,0-2.2-1-2.2-2.2c0-1.2,1-2.3,2.2-2.3c0.6,0,1.2,0.2,1.6,0.7c0.4,0.4,0.6,1,0.6,1.6
					C78.4,77.2,77.4,78.2,76.1,78.2L76.1,78.2z M76.2,74.8c-0.7,0-1.2,0.6-1.2,1.3c0,0.7,0.5,1.2,1.2,1.2v0.5l0-0.5
					c0.7,0,1.3-0.5,1.3-1.2c0-0.3-0.1-0.6-0.3-0.9C76.9,74.9,76.5,74.8,76.2,74.8z"/>
			</g>
			<g>
				<path fill="#37474F" d="M62.3,76c0-1,0.8-1.8,1.7-1.8c1,0,1.7,0.8,1.8,1.8c0,1-0.8,1.8-1.8,1.8C63,77.7,62.3,77,62.3,76z"/>
				<path fill="#37474F" d="M64,78.3L64,78.3c-1.2,0-2.2-1-2.2-2.3c0-0.6,0.2-1.2,0.6-1.6c0.4-0.4,1-0.7,1.6-0.7
					c1.2,0,2.2,1,2.3,2.2C66.2,77.3,65.2,78.3,64,78.3z M64,74.8c-0.3,0-0.6,0.1-0.9,0.4c-0.2,0.2-0.4,0.5-0.4,0.9
					c0,0.7,0.5,1.2,1.2,1.3c0.7,0,1.3-0.6,1.3-1.3C65.2,75.3,64.7,74.8,64,74.8z"/>
			</g>
			<g>
				<path fill="#37474F" d="M50,76c0-1,0.8-1.8,1.8-1.8c1,0,1.7,0.8,1.7,1.8c0,1-0.8,1.8-1.8,1.7C50.8,77.8,50,77,50,76z"/>
				<path fill="#37474F" d="M51.8,78.2L51.8,78.2C51.8,78.2,51.8,78.2,51.8,78.2c-1.3,0-2.3-1-2.3-2.2c0-1.2,1-2.3,2.3-2.3
					c1.2,0,2.2,1,2.2,2.3C54,77.2,53.1,78.2,51.8,78.2z M51.8,74.8c-0.7,0-1.3,0.6-1.3,1.3c0,0.7,0.5,1.2,1.2,1.2l0.1,0.5v-0.5
					c0.6,0,1.2-0.6,1.2-1.2C53,75.3,52.5,74.8,51.8,74.8z"/>
			</g>
		</g>
	</g>
</g>
</svg>
