<?xml version="1.0" encoding="utf-8"?>
<!-- Generator: Adobe Illustrator 16.0.0, SVG Export Plug-In . SVG Version: 6.00 Build 0)  -->
<!DOCTYPE svg PUBLIC "-//W3C//DTD SVG 1.1//EN" "http://www.w3.org/Graphics/SVG/1.1/DTD/svg11.dtd">
<svg version="1.1" id="Layer_1" xmlns="http://www.w3.org/2000/svg" xmlns:xlink="http://www.w3.org/1999/xlink" x="0px" y="0px"
	 width="130px" height="130px" viewBox="0 0 130 130" enable-background="new 0 0 130 130" xml:space="preserve">
<g>
	<g>
		<g>
			<g>
				<ellipse fill="#B0BEC5" cx="65" cy="17.1" rx="16" ry="13.8"/>
				<path fill="#37474F" d="M65,32.8c-9.9,0-18-7.1-18-15.8S55.1,1.3,65,1.3c9.9,0,18,7.1,18,15.8S74.9,32.8,65,32.8z M65,5.3
					c-7.7,0-14,5.3-14,11.8s6.3,11.8,14,11.8c7.7,0,14-5.3,14-11.8S72.7,5.3,65,5.3z"/>
			</g>
			<g>
				<path fill="#37474F" d="M65,129c-1.1,0-2-0.9-2-2V31c0-1.1,0.9-2,2-2s2,0.9,2,2v96C67,128.1,66.1,129,65,129z"/>
			</g>
		</g>
		<g>
			<path fill="#37474F" d="M76,112c-1.1,0-2-0.9-2-2v-4h-9c-1.1,0-2-0.9-2-2s0.9-2,2-2h11c1.1,0,2,0.9,2,2v6
				C78,111.1,77.1,112,76,112z"/>
		</g>
		<g>
			<path fill="#37474F" d="M76,122H65c-1.1,0-2-0.9-2-2s0.9-2,2-2h11c1.1,0,2,0.9,2,2S77.1,122,76,122z"/>
		</g>
	</g>
	<g>
		<g>
			<path fill="#FFECB3" d="M41.7,16.7c-17.9,8.7-30.3,27-30.3,48.3c0,21.2,12.4,39.6,30.3,48.3"/>
			<path fill="#37474F" d="M41.7,115.3c-0.3,0-0.6-0.1-0.9-0.2C21.7,105.8,9.4,86.2,9.4,65s12.3-40.8,31.4-50.1
				c1-0.5,2.2-0.1,2.7,0.9c0.5,1,0.1,2.2-0.9,2.7C24.9,27.1,13.4,45.4,13.4,65s11.4,37.9,29.1,46.5c1,0.5,1.4,1.7,0.9,2.7
				C43.1,114.8,42.4,115.3,41.7,115.3z"/>
		</g>
		<g>
			<path fill="#FFAB00" d="M88.3,113.3c17.9-8.7,30.3-27,30.3-48.3c0-21.2-12.4-39.6-30.3-48.3"/>
			<path fill="#37474F" d="M88.3,115.3c-0.7,0-1.5-0.4-1.8-1.1c-0.5-1-0.1-2.2,0.9-2.7c17.7-8.6,29.1-26.8,29.1-46.5
				c0-19.7-11.4-37.9-29.1-46.5c-1-0.5-1.4-1.7-0.9-2.7c0.5-1,1.7-1.4,2.7-0.9c19.1,9.2,31.4,28.9,31.4,50.1
				c0,21.2-12.3,40.8-31.4,50.1C88.9,115.2,88.6,115.3,88.3,115.3z"/>
		</g>
	</g>
</g>
</svg>
