<?xml version="1.0" encoding="utf-8"?>
<!-- Generator: Adobe Illustrator 16.0.0, SVG Export Plug-In . SVG Version: 6.00 Build 0)  -->
<!DOCTYPE svg PUBLIC "-//W3C//DTD SVG 1.1//EN" "http://www.w3.org/Graphics/SVG/1.1/DTD/svg11.dtd">
<svg version="1.1" id="Layer_1" xmlns="http://www.w3.org/2000/svg" xmlns:xlink="http://www.w3.org/1999/xlink" x="0px" y="0px"
	 width="128px" height="128px" viewBox="0 0 128 128" enable-background="new 0 0 128 128" xml:space="preserve">
<g>
	<g>
		<line fill="#FFECB3" x1="44" y1="125" x2="83" y2="125"/>
		<path fill="#37474F" d="M83,127H44c-1.1,0-2-0.9-2-2s0.9-2,2-2h39c1.1,0,2,0.9,2,2S84.1,127,83,127z"/>
	</g>
	<g>
		<g>
			<g>
				<path fill="#FFAB00" d="M64,108.9c10-18.2,36.5-55.6,36.5-72.7C100.5,18.8,84,4.7,64,3.8v0c0,0-0.3,0-0.5,0c-0.2,0-0.5,0-0.5,0
					v0C42,4.7,26.5,18.8,26.5,36.2c0,17.1,26.5,54.4,36.5,72.7v1.8c0-0.3,0.3-0.6,0.5-0.9c0.2,0.3,0.5,0.6,0.5,0.9V108.9z"/>
				<path fill="#37474F" d="M64,112.7c-0.2,0-0.3,0-0.5-0.1c-0.2,0-0.3,0.1-0.5,0.1c-1.1,0-2-0.9-2-2v-1.3c-2.5-4.5-6-10.3-9.8-16.4
					C39.3,73.7,24.5,49.6,24.5,36.2c0-18.6,16.3-33.3,38-34.4c0.2-0.1,0.4-0.1,0.7-0.1l0.4,0l0.3,0c0.2,0,0.5,0,0.7,0.1
					c21.3,1.1,38,16.2,38,34.4c0,13.3-14.8,37.4-26.7,56.8c-3.7,6.1-7.3,11.9-9.8,16.4v1.3C66,111.8,65.1,112.7,64,112.7z M63.3,5.8
					c-0.1,0-0.2,0-0.2,0C43.4,6.6,28.5,19.7,28.5,36.2C28.5,48.4,43.6,73,54.6,91c3.3,5.4,6.4,10.5,8.9,14.8
					c2.4-4.3,5.6-9.4,8.9-14.8c11-17.9,26.1-42.5,26.1-54.7C98.5,20.3,83,6.6,63.9,5.8c-0.1,0-0.2,0-0.2,0c0,0-0.1,0-0.2,0
					C63.4,5.8,63.4,5.8,63.3,5.8z"/>
			</g>
			<g>
				<circle fill="#FFECB3" cx="63.2" cy="38.7" r="18"/>
				<path fill="#37474F" d="M63.2,58.7c-11,0-20-9-20-20s9-20,20-20s20,9,20,20S74.3,58.7,63.2,58.7z M63.2,22.7
					c-8.8,0-16,7.2-16,16s7.2,16,16,16s16-7.2,16-16S72.1,22.7,63.2,22.7z"/>
			</g>
		</g>
		<g>
			<line fill="#FFECB3" x1="63.5" y1="119.3" x2="63.5" y2="109.3"/>
			<path fill="#37474F" d="M63.5,121.3c-1.1,0-2-0.9-2-2v-10c0-1.1,0.9-2,2-2s2,0.9,2,2v10C65.5,120.4,64.6,121.3,63.5,121.3z"/>
		</g>
	</g>
</g>
</svg>
