<?xml version="1.0" encoding="utf-8"?>
<!-- Generator: Adobe Illustrator 16.0.0, SVG Export Plug-In . SVG Version: 6.00 Build 0)  -->
<!DOCTYPE svg PUBLIC "-//W3C//DTD SVG 1.1//EN" "http://www.w3.org/Graphics/SVG/1.1/DTD/svg11.dtd">
<svg version="1.1" id="Layer_1" xmlns="http://www.w3.org/2000/svg" xmlns:xlink="http://www.w3.org/1999/xlink" x="0px" y="0px"
	 width="128px" height="128px" viewBox="0 0 128 128" enable-background="new 0 0 128 128" xml:space="preserve">
<g>
	<g>
		<g>
			<path fill="#FFECB3" d="M98,39.4C98,20.4,82.7,5.1,63.7,5.1S29.4,20.4,29.4,39.4c0,9.5,3.8,18,10,24.2l3.7,13.8
				C43.2,83.4,48,88,54,88h19.4c6,0,10.8-4.6,10.8-10.6L88,63.5C94.2,57.3,98,48.8,98,39.4z"/>
			<path fill="#37474F" d="M73.4,90H54c-7.1,0-12.7-5.4-12.8-12.3l-3.5-13C31,57.8,27.4,48.9,27.4,39.4c0-20,16.3-36.3,36.3-36.3
				S100,19.3,100,39.4c0,9.4-3.6,18.4-10.2,25.2l-3.5,13.2C86.1,84.6,80.5,90,73.4,90z M63.7,7.1c-17.8,0-32.3,14.5-32.3,32.3
				c0,8.6,3.4,16.7,9.5,22.8c0.2,0.2,0.4,0.6,0.5,0.9l3.7,13.8c0,0.2,0.1,0.3,0.1,0.5c0,4.8,3.9,8.6,8.8,8.6h19.4
				c4.9,0,8.8-3.8,8.8-8.6c0-0.2,0-0.3,0.1-0.5L86.1,63c0.1-0.3,0.3-0.6,0.5-0.9C92.7,56,96,47.9,96,39.4C96,21.6,81.5,7.1,63.7,7.1
				z"/>
		</g>
		<g>
			<g>
				<line fill="#FFECB3" x1="49" y1="99" x2="79" y2="99"/>
				<path fill="#37474F" d="M79,101H49c-1.1,0-2-0.9-2-2s0.9-2,2-2h30c1.1,0,2,0.9,2,2S80.1,101,79,101z"/>
			</g>
			<g>
				<line fill="#FFECB3" x1="49" y1="108" x2="79" y2="108"/>
				<path fill="#37474F" d="M79,110H49c-1.1,0-2-0.9-2-2s0.9-2,2-2h30c1.1,0,2,0.9,2,2S80.1,110,79,110z"/>
			</g>
		</g>
		<g>
			<path fill="#FFAB00" d="M50.6,115.6c-0.2,0.6-0.3,1.2-0.3,1.8c0,3.7,3,6.6,6.6,6.6h13.5c3.7,0,6.6-3,6.6-6.6
				c0-0.6-0.1-1.2-0.3-1.8"/>
			<path fill="#37474F" d="M70.5,126H57c-4.8,0-8.6-3.9-8.6-8.6c0-0.8,0.1-1.6,0.3-2.3c0.3-1.1,1.4-1.7,2.5-1.4
				c1.1,0.3,1.7,1.4,1.4,2.5c-0.1,0.4-0.2,0.8-0.2,1.3c0,2.5,2.1,4.6,4.6,4.6h13.5c2.5,0,4.6-2.1,4.6-4.6c0-0.4-0.1-0.8-0.2-1.3
				c-0.3-1.1,0.3-2.2,1.4-2.5c1.1-0.3,2.2,0.3,2.5,1.4c0.2,0.8,0.3,1.6,0.3,2.3C79.1,122.1,75.2,126,70.5,126z"/>
		</g>
	</g>
	<g>
		<g>
			<g>
				<g>
					<path fill="#78909C" d="M57.5,40.4c-7.4-8.2-18.4-7.6-19.3-7.5l-0.1-0.1c0,0,0,0.1,0,0.1c0,0-0.1,0-0.1,0l0.1,0.1
						c-0.1,0.9-0.7,11.9,7.5,19.3c8.2,7.4,16.7,5.9,17.5,5.8l0.1,0.1c0,0,0-0.1,0-0.1l0,0l0-0.1C63.5,57.2,64.9,48.6,57.5,40.4z"/>
					<path fill="#37474F" d="M60.6,60.3c-3.4,0-9.9-0.8-16.2-6.5c-8-7.2-8.3-17.4-8.2-20.4c-0.1-0.3-0.1-0.7,0-1
						c0.1-0.4,0.3-0.7,0.6-0.9c0.2-0.2,0.5-0.4,0.9-0.5c0.3-0.1,0.7-0.1,1,0c0.2,0,0.5,0,0.8,0c3.7,0,13,0.8,19.6,8.2
						c7.4,8.3,6.7,16.8,6.3,19c0,0.2,0,0.3-0.1,0.5c-0.2,0.6-0.6,1.2-1.2,1.4c-0.3,0.1-0.6,0.2-0.9,0.1
						C62.1,60.2,61.2,60.3,60.6,60.3z M40.1,34.9c0.1,3.5,1.1,10.7,6.9,15.9c5.3,4.8,10.8,5.5,13.6,5.5c0.3,0,0.6,0,0.9,0
						c0.1-2.7-0.2-8.6-5.5-14.5C50.8,36,43.6,35,40.1,34.9z"/>
				</g>
				<g>
					
						<path fill="#FFECB3" stroke="#37474F" stroke-width="4" stroke-linecap="round" stroke-linejoin="round" stroke-miterlimit="10" d="
						M57.7,61.6"/>
				</g>
				<g>
					
						<path fill="#FFECB3" stroke="#37474F" stroke-width="4" stroke-linecap="round" stroke-linejoin="round" stroke-miterlimit="10" d="
						M43,47"/>
				</g>
				<g>
					
						<path fill="#FFECB3" stroke="#37474F" stroke-width="4" stroke-linecap="round" stroke-linejoin="round" stroke-miterlimit="10" d="
						M50.2,53.1"/>
				</g>
				<g>
					
						<path fill="#FFECB3" stroke="#37474F" stroke-width="4" stroke-linecap="round" stroke-linejoin="round" stroke-miterlimit="10" d="
						M52.2,44.6"/>
				</g>
			</g>
			<g>
				<g>
					<path fill="#78909C" d="M69.9,40.4c7.4-8.2,18.4-7.6,19.3-7.5l0.1-0.1c0,0,0,0.1,0,0.1c0,0,0.1,0,0.1,0L89.3,33
						c0.1,0.9,0.7,11.9-7.5,19.3c-8.2,7.4-16.7,5.9-17.5,5.8l-0.1,0.1c0,0,0-0.1,0-0.1l0,0l0-0.1C64,57.2,62.6,48.6,69.9,40.4z"/>
					<path fill="#37474F" d="M66.9,60.3c-0.7,0-1.7,0-2.7-0.2c-0.2,0-0.5,0-0.7-0.1c-0.5-0.2-0.9-0.6-1.1-1.1
						c-0.1-0.3-0.2-0.6-0.2-0.9c-0.4-2.3-1-10.7,6.3-18.9c6.7-7.4,16-8.2,19.6-8.2c0.4,0,0.7,0,1,0c0.3,0,0.5,0,0.8,0.1
						c0.1,0,0.2,0.1,0.3,0.1c0.6,0.2,1,0.7,1.2,1.3c0.1,0.3,0.1,0.7,0,1c0.1,3-0.2,13.2-8.2,20.4C76.8,59.4,70.2,60.3,66.9,60.3z
						 M65.9,56.2c0.3,0,0.6,0,0.9,0c2.8,0,8.3-0.7,13.6-5.5c5.8-5.2,6.8-12.4,6.9-15.9C83.8,35,76.6,36,71.4,41.8
						C66.2,47.6,65.8,53.6,65.9,56.2z"/>
				</g>
				<g>
					
						<path fill="#FFECB3" stroke="#37474F" stroke-width="4" stroke-linecap="round" stroke-linejoin="round" stroke-miterlimit="10" d="
						M69.8,61.6"/>
				</g>
				<g>
					
						<path fill="#FFECB3" stroke="#37474F" stroke-width="4" stroke-linecap="round" stroke-linejoin="round" stroke-miterlimit="10" d="
						M84.4,47"/>
				</g>
				<g>
					
						<path fill="#FFECB3" stroke="#37474F" stroke-width="4" stroke-linecap="round" stroke-linejoin="round" stroke-miterlimit="10" d="
						M77.3,53.1"/>
				</g>
				<g>
					
						<path fill="#FFECB3" stroke="#37474F" stroke-width="4" stroke-linecap="round" stroke-linejoin="round" stroke-miterlimit="10" d="
						M75.2,44.6"/>
				</g>
			</g>
		</g>
		<g>
			<line fill="#FFECB3" x1="64" y1="59" x2="64" y2="86"/>
			<path fill="#37474F" d="M64,88c-1.1,0-2-0.9-2-2V59c0-1.1,0.9-2,2-2s2,0.9,2,2v27C66,87.1,65.1,88,64,88z"/>
		</g>
	</g>
	<g>
		<circle fill="#FFAB00" cx="63.7" cy="22.4" r="9.2"/>
		<path fill="#37474F" d="M63.7,33.6c-6.2,0-11.2-5-11.2-11.2s5-11.2,11.2-11.2s11.2,5,11.2,11.2S69.9,33.6,63.7,33.6z M63.7,15.3
			c-4,0-7.2,3.2-7.2,7.2s3.2,7.2,7.2,7.2s7.2-3.2,7.2-7.2S67.7,15.3,63.7,15.3z"/>
	</g>
</g>
</svg>
