<?xml version="1.0" encoding="utf-8"?>
<!-- Generator: Adobe Illustrator 16.0.0, SVG Export Plug-In . SVG Version: 6.00 Build 0)  -->
<!DOCTYPE svg PUBLIC "-//W3C//DTD SVG 1.1//EN" "http://www.w3.org/Graphics/SVG/1.1/DTD/svg11.dtd">
<svg version="1.1" id="Layer_1" xmlns="http://www.w3.org/2000/svg" xmlns:xlink="http://www.w3.org/1999/xlink" x="0px" y="0px"
	 width="128px" height="128px" viewBox="0 0 128 128" enable-background="new 0 0 128 128" xml:space="preserve">
<g>
	<g>
		<g>
			<g>
				<path fill="#FFECB3" d="M82.7,33.2c0,16.6-8.4,30.1-18.7,30.1c0.4,0,11.4-12-13.7-30.1C36.8,23.6,53.7,3.2,64,3.2
					C74.3,3.2,82.7,16.6,82.7,33.2z"/>
				<path fill="#37474F" d="M64,65.3c-1.1,0-2-0.9-2-2c0-0.7,0.3-1.3,0.8-1.6c0.3-0.4,2.1-2.6,1.9-6.6c-0.3-4.3-3.2-11.4-15.6-20.2
					c-5.4-3.8-7.1-9.6-5-16.3C47,9.6,56.7,1.2,64,1.2c11.4,0,20.7,14.4,20.7,32.1S75.4,65.3,64,65.3z M64,5.2
					c-5.1,0-13.5,6.8-16,14.7c-1.1,3.4-1.4,8.3,3.5,11.8c18.3,13.1,18.2,23.6,16.6,28.6c0,0,0,0.1-0.1,0.3
					c7.3-3,12.7-14.1,12.7-27.3C80.7,17.8,73.2,5.2,64,5.2z"/>
			</g>
			<g>
				<path fill="#FFECB3" d="M62.7,13.2c6.6,0,11.9,8.6,11.9,19.2"/>
				<path fill="#37474F" d="M74.7,34.4c-1.1,0-2-0.9-2-2c0-9.3-4.5-17.2-9.9-17.2c-1.1,0-2-0.9-2-2s0.9-2,2-2
					c7.8,0,13.9,9.3,13.9,21.2C76.7,33.5,75.8,34.4,74.7,34.4z"/>
			</g>
		</g>
		<g>
			<g>
				<path fill="#FFECB3" d="M45.3,94.8c0-16.6,8.4-30.1,18.7-30.1c-0.4,0-11.4,12,13.7,30.1c13.5,9.7-3.4,30.1-13.7,30.1
					S45.3,111.4,45.3,94.8z"/>
				<path fill="#37474F" d="M64,126.8c-11.4,0-20.7-14.4-20.7-32.1S52.6,62.7,64,62.7c1.1,0,2,0.9,2,2c0,0.7-0.3,1.3-0.8,1.6
					c-0.3,0.4-2.1,2.6-1.9,6.6c0.3,4.3,3.2,11.4,15.6,20.2c5.4,3.8,7.1,9.6,5,16.3C81,118.4,71.3,126.8,64,126.8z M60,67.5
					c-7.3,3-12.7,14.1-12.7,27.3c0,15.5,7.5,28.1,16.7,28.1c5.1,0,13.5-6.8,16-14.7c1.1-3.4,1.4-8.3-3.5-11.8
					C58.3,83.3,58.3,72.8,59.9,67.7C59.9,67.7,60,67.6,60,67.5z"/>
			</g>
			<g>
				<path fill="#FFECB3" d="M65.3,114.8c-6.6,0-11.9-8.6-11.9-19.2"/>
				<path fill="#37474F" d="M65.3,116.8c-7.8,0-13.9-9.3-13.9-21.2c0-1.1,0.9-2,2-2s2,0.9,2,2c0,9.3,4.5,17.2,9.9,17.2
					c1.1,0,2,0.9,2,2S66.4,116.8,65.3,116.8z"/>
			</g>
		</g>
	</g>
	<g>
		<g>
			<g>
				<path fill="#FFECB3" d="M94.8,82.7c-16.6,0-30.1-8.4-30.1-18.7c0,0.4,12,11.4,30.1-13.7c9.7-13.5,30.1,3.4,30.1,13.7
					C124.8,74.3,111.4,82.7,94.8,82.7z"/>
				<path fill="#37474F" d="M94.8,84.7c-17.7,0-32.1-9.3-32.1-20.7c0-1.1,0.9-2,2-2c0.7,0,1.3,0.3,1.6,0.8c0.5,0.5,2.6,1.9,5.8,1.9
					c4.5,0,11.8-2.7,21-15.6c2.7-3.8,6.6-5.9,11-5.9c11,0,22.7,12.2,22.7,20.7C126.8,75.4,112.4,84.7,94.8,84.7z M67.5,68
					c3,7.3,14.1,12.8,27.3,12.8c15.5,0,28.1-7.5,28.1-16.7c0-7.6-11.5-16.7-18.7-16.7c-3.1,0-5.8,1.4-7.7,4.2
					C86.1,65.7,77.5,68.7,72.1,68.7C70.5,68.7,68.9,68.4,67.5,68z"/>
			</g>
			<g>
				<path fill="#FFECB3" d="M114.8,62.7c0,6.6-8.6,11.9-19.2,11.9"/>
				<path fill="#37474F" d="M95.6,76.7c-1.1,0-2-0.9-2-2s0.9-2,2-2c9.3,0,17.2-4.5,17.2-9.9c0-1.1,0.9-2,2-2s2,0.9,2,2
					C116.8,70.5,107.5,76.7,95.6,76.7z"/>
			</g>
		</g>
		<g>
			<g>
				<path fill="#FFECB3" d="M33.2,45.3c16.6,0,30.1,8.4,30.1,18.7c0-0.4-12-11.4-30.1,13.7C23.6,91.2,3.2,74.3,3.2,64
					S16.6,45.3,33.2,45.3z"/>
				<path fill="#37474F" d="M23.9,84.7c-11,0-22.7-12.2-22.7-20.7c0-11.4,14.4-20.7,32.1-20.7S65.3,52.6,65.3,64c0,1.1-0.9,2-2,2
					c-0.7,0-1.3-0.3-1.6-0.8c-0.5-0.5-2.6-1.9-5.8-1.9c-4.5,0-11.8,2.7-21,15.6C32.1,82.7,28.3,84.7,23.9,84.7z M33.2,47.3
					C17.8,47.3,5.2,54.8,5.2,64c0,7.6,11.5,16.7,18.7,16.7c3.1,0,5.8-1.4,7.8-4.2c10.2-14.3,18.9-17.3,24.3-17.3
					c1.6,0,3.2,0.3,4.7,0.8C57.6,52.7,46.5,47.3,33.2,47.3z"/>
			</g>
			<g>
				<path fill="#FFECB3" d="M13.2,65.3c0-6.6,8.6-11.9,19.2-11.9"/>
				<path fill="#37474F" d="M13.2,67.3c-1.1,0-2-0.9-2-2c0-7.8,9.3-13.9,21.2-13.9c1.1,0,2,0.9,2,2s-0.9,2-2,2
					c-9.3,0-17.2,4.5-17.2,9.9C15.2,66.4,14.3,67.3,13.2,67.3z"/>
			</g>
		</g>
	</g>
</g>
</svg>
