<?xml version="1.0" encoding="utf-8"?>
<!-- Generator: Adobe Illustrator 16.0.0, SVG Export Plug-In . SVG Version: 6.00 Build 0)  -->
<!DOCTYPE svg PUBLIC "-//W3C//DTD SVG 1.1//EN" "http://www.w3.org/Graphics/SVG/1.1/DTD/svg11.dtd">
<svg version="1.1" id="Layer_1" xmlns="http://www.w3.org/2000/svg" xmlns:xlink="http://www.w3.org/1999/xlink" x="0px" y="0px"
	 width="128px" height="128px" viewBox="0 0 128 128" enable-background="new 0 0 128 128" xml:space="preserve">
<g>
	<g>
		<g>
			<line fill="#FFFFFF" x1="19" y1="125" x2="19" y2="3"/>
			<path fill="#37474F" d="M19,127c-1.1,0-2-0.9-2-2V3c0-1.1,0.9-2,2-2s2,0.9,2,2v122C21,126.1,20.1,127,19,127z"/>
		</g>
		<g>
			<line fill="#FFFFFF" x1="125" y1="12" x2="3" y2="12"/>
			<path fill="#37474F" d="M125,14H3c-1.1,0-2-0.9-2-2s0.9-2,2-2h122c1.1,0,2,0.9,2,2S126.1,14,125,14z"/>
		</g>
		<g>
			<polyline fill="#FFAB00" points="111,34 123,34 123,109 32,109 32,34 44,34 			"/>
			<path fill="#37474F" d="M123,111H32c-1.1,0-2-0.9-2-2V34c0-1.1,0.9-2,2-2h12c1.1,0,2,0.9,2,2s-0.9,2-2,2H34v71h87V36h-10
				c-1.1,0-2-0.9-2-2s0.9-2,2-2h12c1.1,0,2,0.9,2,2v75C125,110.1,124.1,111,123,111z"/>
		</g>
		<g>
			<g>
				<path d="M44.4,48.3h10.2v2h-7.7v6.3H54v2h-7.1v8.5h-2.4V48.3z"/>
				<polygon fill="#37474F" points="48.4,68.7 42.9,68.7 42.9,46.8 56.1,46.8 56.1,51.8 48.4,51.8 48.4,55.1 55.5,55.1 55.5,60.1 
					48.4,60.1 				"/>
			</g>
			<g>
				<path d="M78.2,57.5c0,6.5-3.9,9.9-8.8,9.9c-5,0-8.5-3.9-8.5-9.6c0-6,3.7-9.9,8.8-9.9C74.9,48,78.2,51.9,78.2,57.5z M63.6,57.8
					c0,4,2.2,7.6,6,7.6c3.9,0,6-3.6,6-7.8c0-3.8-2-7.7-6-7.7C65.6,50,63.6,53.7,63.6,57.8z"/>
				<path fill="#37474F" d="M69.4,69c-5.9,0-10-4.6-10-11.1c0-6.7,4.2-11.4,10.3-11.4c5.9,0,10,4.5,10,11C79.7,65.4,74.6,69,69.4,69
					z M69.6,51.5c-3.4,0-4.5,3.4-4.5,6.4c0,3,1.4,6.1,4.5,6.1c3.1,0,4.5-3.2,4.5-6.3C74.1,54.7,72.7,51.5,69.6,51.5z"/>
			</g>
			<g>
				<path d="M85.4,48.5c1.2-0.3,3-0.4,4.7-0.4c2.6,0,4.3,0.5,5.5,1.5c1,0.8,1.5,2.1,1.5,3.6c0,2.5-1.6,4.1-3.6,4.8v0.1
					c1.5,0.5,2.3,1.8,2.8,3.8c0.6,2.6,1.1,4.5,1.5,5.2h-2.5c-0.3-0.5-0.7-2.2-1.3-4.5c-0.6-2.6-1.6-3.6-3.8-3.7h-2.3v8.2h-2.4V48.5z
					 M87.8,57.1h2.5c2.6,0,4.3-1.4,4.3-3.6c0-2.4-1.8-3.5-4.3-3.5c-1.2,0-2,0.1-2.4,0.2V57.1z"/>
				<path fill="#37474F" d="M100.2,68.7h-5.9l-0.4-0.8c-0.4-0.7-0.7-1.9-1.4-4.9c-0.5-2.2-1.1-2.5-2.4-2.5l-0.7,0v8.2h-5.4V47.3
					l1.2-0.2c1.3-0.3,3.1-0.4,5-0.4c3,0,5,0.6,6.5,1.9c1.3,1.1,2,2.8,2,4.7c0,2-0.9,3.8-2.4,5c0.7,0.8,1.2,2,1.5,3.4
					c0.4,1.8,1,4.2,1.3,4.8L100.2,68.7z M89.3,55.6h1c0.8,0,2.8-0.2,2.8-2.1c0-0.6,0-2-2.8-2c-0.3,0-0.6,0-0.9,0V55.6z"/>
			</g>
			<g>
				<path d="M44.1,92.2c1.1,0.7,2.7,1.2,4.4,1.2c2.5,0,3.9-1.3,3.9-3.2c0-1.8-1-2.8-3.6-3.8c-3.1-1.1-5-2.7-5-5.3
					c0-2.9,2.4-5.1,6.1-5.1c1.9,0,3.3,0.4,4.2,0.9l-0.7,2c-0.6-0.3-1.9-0.9-3.6-0.9c-2.6,0-3.6,1.5-3.6,2.8c0,1.8,1.1,2.6,3.8,3.6
					c3.2,1.2,4.8,2.8,4.8,5.5c0,2.9-2.2,5.4-6.6,5.4c-1.8,0-3.8-0.5-4.8-1.2L44.1,92.2z"/>
				<path fill="#37474F" d="M48.3,96.9c-2.1,0-4.3-0.6-5.6-1.5l-0.9-0.6l1.5-5l1.7,1c1,0.6,2.4,1,3.6,1c0.9,0,2.4-0.2,2.4-1.7
					c0-0.6,0-1.4-2.6-2.4c-1.4-0.5-5.9-2.1-5.9-6.7c0-3.8,3.2-6.6,7.6-6.6c2.6,0,4.2,0.7,4.9,1.1l1.1,0.6l-1.6,4.9l-1.6-0.9
					c-0.6-0.3-1.6-0.7-2.9-0.7c-1.5,0-2.1,0.7-2.1,1.3c0,0.6,0,1.2,2.8,2.2c2.7,1,5.8,2.8,5.8,6.9C56.4,93.5,53.9,96.9,48.3,96.9z"
					/>
			</g>
			<g>
				<path d="M65.3,89.2l-2,5.9h-2.5l6.4-18.9h2.9l6.4,18.9H74l-2-5.9H65.3z M71.5,87.3l-1.8-5.4c-0.4-1.2-0.7-2.4-1-3.4h-0.1
					c-0.3,1.1-0.6,2.3-1,3.4l-1.8,5.5H71.5z"/>
				<path fill="#37474F" d="M78.7,96.7h-5.8l-2-5.9h-4.5l-2,5.9h-5.7l7.4-21.9h5.1L78.7,96.7z M67.9,85.8h1.5l-0.8-2.2L67.9,85.8z"
					/>
			</g>
			<g>
				<path d="M83.4,76.3h2.4v16.8h8.1v2H83.4V76.3z"/>
				<polygon fill="#37474F" points="95.4,96.7 81.9,96.7 81.9,74.8 87.3,74.8 87.3,91.6 95.4,91.6 				"/>
			</g>
			<g>
				<path d="M110.4,86.3H103v6.8h8.2v2h-10.6V76.3h10.2v2H103v6h7.3V86.3z"/>
				<polygon fill="#37474F" points="112.7,96.7 99.1,96.7 99.1,74.8 112.3,74.8 112.3,79.8 104.5,79.8 104.5,82.8 111.9,82.8 
					111.9,87.8 104.5,87.8 104.5,91.6 112.7,91.6 				"/>
			</g>
		</g>
		<g>
			<line fill="#FFECB3" x1="62" y1="34" x2="93" y2="34"/>
			<path fill="#37474F" d="M93,36H62c-1.1,0-2-0.9-2-2s0.9-2,2-2h31c1.1,0,2,0.9,2,2S94.1,36,93,36z"/>
		</g>
		<g>
			<g>
				<circle fill="#FFECB3" cx="53" cy="35.9" r="5.8"/>
				<path fill="#37474F" d="M53,43.7c-4.3,0-7.8-3.5-7.8-7.8c0-4.3,3.5-7.8,7.8-7.8c4.3,0,7.8,3.5,7.8,7.8
					C60.8,40.2,57.3,43.7,53,43.7z M53,32.1c-2.1,0-3.8,1.7-3.8,3.8c0,2.1,1.7,3.8,3.8,3.8c2.1,0,3.8-1.7,3.8-3.8
					C56.8,33.8,55.1,32.1,53,32.1z"/>
			</g>
			<g>
				<circle fill="#FFECB3" cx="101.7" cy="35.9" r="5.8"/>
				<path fill="#37474F" d="M101.7,43.7c-4.3,0-7.8-3.5-7.8-7.8c0-4.3,3.5-7.8,7.8-7.8c4.3,0,7.8,3.5,7.8,7.8
					C109.5,40.2,106,43.7,101.7,43.7z M101.7,32.1c-2.1,0-3.8,1.7-3.8,3.8c0,2.1,1.7,3.8,3.8,3.8c2.1,0,3.8-1.7,3.8-3.8
					C105.5,33.8,103.8,32.1,101.7,32.1z"/>
			</g>
		</g>
		<g>
			<line fill="#FFECB3" x1="53" y1="19" x2="53" y2="30"/>
			<path fill="#37474F" d="M53,32c-1.1,0-2-0.9-2-2V19c0-1.1,0.9-2,2-2s2,0.9,2,2v11C55,31.1,54.1,32,53,32z"/>
		</g>
		<g>
			<line fill="#FFECB3" x1="101" y1="19" x2="101" y2="30"/>
			<path fill="#37474F" d="M101,32c-1.1,0-2-0.9-2-2V19c0-1.1,0.9-2,2-2s2,0.9,2,2v11C103,31.1,102.1,32,101,32z"/>
		</g>
	</g>
</g>
</svg>
