<?xml version="1.0" encoding="utf-8"?>
<!-- Generator: Adobe Illustrator 16.0.0, SVG Export Plug-In . SVG Version: 6.00 Build 0)  -->
<!DOCTYPE svg PUBLIC "-//W3C//DTD SVG 1.1//EN" "http://www.w3.org/Graphics/SVG/1.1/DTD/svg11.dtd">
<svg version="1.1" id="Layer_1" xmlns="http://www.w3.org/2000/svg" xmlns:xlink="http://www.w3.org/1999/xlink" x="0px" y="0px"
	 width="128px" height="128px" viewBox="0 0 128 128" enable-background="new 0 0 128 128" xml:space="preserve">
<g>
	<g>
		<g>
			<polyline fill="#FFAB00" points="3.2,47 48.2,8.7 93.2,47 			"/>
			<path fill="#37474F" d="M3.2,49c-0.6,0-1.1-0.2-1.5-0.7c-0.7-0.8-0.6-2.1,0.2-2.8l45-38.4c0.7-0.6,1.8-0.6,2.6,0l45,38.4
				c0.8,0.7,0.9,2,0.2,2.8c-0.7,0.8-2,0.9-2.8,0.2L48.2,11.3L4.5,48.5C4.1,48.9,3.6,49,3.2,49z"/>
		</g>
		<g>
			<polyline fill="#FFECB3" points="46,96 15,96 15,47 			"/>
			<path fill="#37474F" d="M46,98H15c-1.1,0-2-0.9-2-2V47c0-1.1,0.9-2,2-2s2,0.9,2,2v47h29c1.1,0,2,0.9,2,2S47.1,98,46,98z"/>
		</g>
		<g>
			<line fill="#FFECB3" x1="81" y1="47" x2="81" y2="67"/>
			<path fill="#37474F" d="M81,69c-1.1,0-2-0.9-2-2V47c0-1.1,0.9-2,2-2s2,0.9,2,2v20C83,68.1,82.1,69,81,69z"/>
		</g>
		<g>
			<rect x="26" y="62" fill="#B0BEC5" width="20" height="34"/>
			<path fill="#37474F" d="M46,98H26c-1.1,0-2-0.9-2-2V62c0-1.1,0.9-2,2-2h20c1.1,0,2,0.9,2,2v34C48,97.1,47.1,98,46,98z M28,94h16
				V64H28V94z"/>
		</g>
		<g>
			<line fill="#FFECB3" x1="64" y1="62" x2="64" y2="77"/>
			<path fill="#37474F" d="M64,79c-1.1,0-2-0.9-2-2V62c0-1.1,0.9-2,2-2s2,0.9,2,2v15C66,78.1,65.1,79,64,79z"/>
		</g>
		<g>
			<line fill="#FFECB3" x1="71" y1="70" x2="56" y2="70"/>
			<path fill="#37474F" d="M71,72H56c-1.1,0-2-0.9-2-2s0.9-2,2-2h15c1.1,0,2,0.9,2,2S72.1,72,71,72z"/>
		</g>
		<g>
			<polyline fill="#FFECB3" points="15,35 15,13 26,13 			"/>
			<path fill="#37474F" d="M15,37c-1.1,0-2-0.9-2-2V13c0-1.1,0.9-2,2-2h11c1.1,0,2,0.9,2,2s-0.9,2-2,2h-9v20C17,36.1,16.1,37,15,37z
				"/>
		</g>
		<g>
			<polyline fill="#FFECB3" points="23.1,120.4 47.3,96.2 58.6,107.5 105.4,60.7 			"/>
			<path fill="#37474F" d="M23.1,122.4c-0.5,0-1-0.2-1.4-0.6c-0.8-0.8-0.8-2,0-2.8l24.2-24.2c0.8-0.8,2-0.8,2.8,0l9.9,9.9L104,59.3
				c0.8-0.8,2-0.8,2.8,0c0.8,0.8,0.8,2,0,2.8L60,108.9c-0.8,0.8-2,0.8-2.8,0L47.3,99l-22.8,22.8C24.1,122.2,23.6,122.4,23.1,122.4z"
				/>
		</g>
		<g>
			<line fill="#FFECB3" x1="79.4" y1="101.5" x2="112.5" y2="68.3"/>
			<path fill="#37474F" d="M79.4,103.5c-0.5,0-1-0.2-1.4-0.6c-0.8-0.8-0.8-2,0-2.8l33.2-33.2c0.8-0.8,2-0.8,2.8,0s0.8,2,0,2.8
				l-33.2,33.2C80.4,103.3,79.9,103.5,79.4,103.5z"/>
		</g>
		<g>
			<line fill="#FFECB3" x1="39.8" y1="118.4" x2="54.4" y2="103.8"/>
			<path fill="#37474F" d="M39.8,120.4c-0.5,0-1-0.2-1.4-0.6c-0.8-0.8-0.8-2,0-2.8L53,102.4c0.8-0.8,2-0.8,2.8,0
				c0.8,0.8,0.8,2,0,2.8l-14.6,14.6C40.8,120.2,40.3,120.4,39.8,120.4z"/>
		</g>
	</g>
	<g>
		<polyline fill="#78909C" points="103.3,45.2 124.2,42.2 121.2,63.1 111.4,53.2 		"/>
		<path fill="#37474F" d="M121.2,65.1c-0.5,0-1-0.2-1.4-0.6l-9.8-9.8c-0.8-0.8-0.8-2,0-2.8c0.8-0.8,2-0.8,2.8,0l7,7l2-14.3
			l-18.2,2.6c-1.1,0.2-2.1-0.6-2.3-1.7c-0.2-1.1,0.6-2.1,1.7-2.3l20.9-3c0.6-0.1,1.3,0.1,1.7,0.6c0.4,0.4,0.7,1.1,0.6,1.7l-3,20.9
			c-0.1,0.8-0.6,1.4-1.3,1.6C121.6,65,121.4,65.1,121.2,65.1z"/>
	</g>
</g>
</svg>
