<?xml version="1.0" encoding="utf-8"?>
<!-- Generator: Adobe Illustrator 16.0.0, SVG Export Plug-In . SVG Version: 6.00 Build 0)  -->
<!DOCTYPE svg PUBLIC "-//W3C//DTD SVG 1.1//EN" "http://www.w3.org/Graphics/SVG/1.1/DTD/svg11.dtd">
<svg version="1.1" id="Layer_1" xmlns="http://www.w3.org/2000/svg" xmlns:xlink="http://www.w3.org/1999/xlink" x="0px" y="0px"
	 width="32px" height="32px" viewBox="0 0 32 32" enable-background="new 0 0 32 32" xml:space="preserve">
<g>
	<g>
		<path fill="#FFECB3" d="M29,15.8c-0.1-7-4.8-12.7-10.8-12.7c-5.9,0-10.7,5.7-10.8,12.7H29z"/>
		<path fill="#37474F" d="M29,16.3H7.4c-0.1,0-0.3-0.1-0.4-0.1C7,16.1,6.9,16,6.9,15.8C7,8.6,12,2.7,18.2,2.7
			c6.2,0,11.2,5.9,11.3,13.2c0,0.1-0.1,0.3-0.1,0.4C29.2,16.3,29.1,16.3,29,16.3z M7.9,15.3h20.5C28.2,8.9,23.7,3.7,18.2,3.7
			C12.7,3.7,8.2,8.9,7.9,15.3z"/>
	</g>
	<g>
		<path fill="#B0BEC5" d="M3.9,17.8c-0.5-0.5-0.8-1.1-1.1-1.7l-2,1.1c-0.1,0.5-0.2,1-0.2,1.6c0,4.2,4,7.5,8,7.6v-6.7
			C6.7,19.8,5.2,19.2,3.9,17.8z"/>
		<path fill="#37474F" d="M8.7,26.9C8.7,26.9,8.7,26.9,8.7,26.9c-4,0-8.5-3.4-8.5-8.1c0-0.5,0.1-1.1,0.2-1.7c0-0.1,0.1-0.3,0.2-0.3
			l2-1.1c0.1-0.1,0.3-0.1,0.4,0c0.1,0,0.2,0.1,0.3,0.3c0.2,0.5,0.5,1.1,1,1.6c1.2,1.3,2.5,1.8,4.4,1.6c0.1,0,0.3,0,0.4,0.1
			c0.1,0.1,0.2,0.2,0.2,0.4v6.7c0,0.1-0.1,0.3-0.1,0.4C9,26.8,8.8,26.9,8.7,26.9z M1.3,17.6c-0.1,0.4-0.1,0.8-0.1,1.2
			c0,3.8,3.6,6.7,7,7v-5.7c-1.9,0-3.3-0.6-4.6-2c-0.4-0.4-0.7-0.9-0.9-1.4L1.3,17.6z"/>
	</g>
	<g>
		<path fill="#FFFFFF" d="M31.3,28.8c-0.1-9-5.9-15.6-13.1-15.6c-7.2,0-13.1,6.6-13.1,15.6H31.3z"/>
		<path fill="#37474F" d="M31.3,29.3H5.1c-0.1,0-0.3-0.1-0.4-0.1c-0.1-0.1-0.1-0.2-0.1-0.4c0.1-9.2,5.9-16.1,13.6-16.1
			c7.6,0,13.6,7.1,13.6,16.1c0,0.1-0.1,0.3-0.1,0.4C31.6,29.3,31.5,29.3,31.3,29.3z M5.6,28.3h25.2c-0.3-8.4-5.6-14.6-12.6-14.6
			C11.2,13.7,5.9,20,5.6,28.3z"/>
	</g>
	<g>
		<path fill="#FFAB00" d="M26.3,16.8c-2.4-2-4.5-4.4-8-4.4c-3.5,0-5.7,2.4-8.1,4.4H26.3z"/>
		<path fill="#37474F" d="M26.3,17.3H10.2c-0.2,0-0.4-0.1-0.5-0.3c-0.1-0.2,0-0.4,0.1-0.6c0.3-0.3,0.6-0.5,0.9-0.8
			c2.1-1.8,4.2-3.7,7.5-3.7c3.2,0,5.4,1.9,7.5,3.7c0.3,0.3,0.6,0.5,0.9,0.8c0.2,0.1,0.2,0.4,0.1,0.6C26.7,17.2,26.5,17.3,26.3,17.3z
			 M11.5,16.3h13.4c-2-1.7-3.9-3.4-6.7-3.4C15.4,13,13.5,14.6,11.5,16.3z"/>
	</g>
	<g>
		<polygon fill="#37474F" points="18.2,14.3 16.5,12.6 18.2,10.8 19.9,12.6 		"/>
		<path fill="#37474F" d="M18.2,14.8c-0.1,0-0.3,0-0.4-0.1l-1.7-1.7C16,12.8,16,12.7,16,12.6s0.1-0.3,0.1-0.4l1.7-1.7
			c0.1-0.1,0.2-0.1,0.4-0.1h0c0.1,0,0.3,0.1,0.4,0.1l1.7,1.7c0.2,0.2,0.2,0.5,0,0.7l-1.7,1.7C18.5,14.7,18.3,14.8,18.2,14.8z
			 M17.2,12.6l1,1l1-1l-1-1L17.2,12.6z"/>
	</g>
	<g>
		<g>
			<g>
				<path fill="#37474F" d="M15.3,23c0-0.2,0.2-0.4,0.4-0.4c0.2,0,0.4,0.2,0.4,0.4c0,0.2-0.2,0.4-0.4,0.4
					C15.5,23.3,15.3,23.2,15.3,23z"/>
				<path fill="#37474F" d="M15.7,23.8c-0.5,0-0.9-0.4-0.9-0.9c0-0.5,0.4-0.9,0.9-0.9c0.2,0,0.5,0.1,0.6,0.3
					c0.2,0.2,0.2,0.4,0.2,0.6C16.5,23.4,16.1,23.8,15.7,23.8z M15.7,22.8c-0.1,0-0.1,0.1-0.1,0.1c0,0,0,0.1,0,0.1
					c0.1,0.1,0.2,0,0.2-0.1C15.8,22.9,15.7,22.8,15.7,22.8z"/>
			</g>
			<g>
				<path fill="#37474F" d="M11.8,23c0-0.2,0.2-0.4,0.3-0.4c0.2,0,0.4,0.2,0.4,0.4c0,0.2-0.2,0.4-0.4,0.4C12,23.3,11.8,23.2,11.8,23
					z"/>
				<path fill="#37474F" d="M12.2,23.8c-0.5,0-0.8-0.4-0.8-0.9c0-0.2,0.1-0.4,0.2-0.6c0.2-0.2,0.4-0.3,0.6-0.3
					c0.5,0,0.8,0.4,0.9,0.8C13,23.5,12.7,23.8,12.2,23.8z M12.2,22.8c-0.1,0-0.1,0-0.1,0.1c0,0.2,0.2,0.2,0.2,0.1c0,0,0-0.1,0-0.1
					C12.3,22.9,12.3,22.8,12.2,22.8z"/>
			</g>
			<g>
				<path fill="#37474F" d="M8.4,23c0-0.2,0.2-0.4,0.4-0.4c0.2,0,0.4,0.2,0.4,0.4c0,0.2-0.2,0.4-0.4,0.4C8.5,23.3,8.4,23.2,8.4,23z"
					/>
				<path fill="#37474F" d="M8.7,23.8c-0.5,0-0.9-0.4-0.9-0.9c0-0.5,0.4-0.9,0.9-0.9c0.5,0,0.9,0.4,0.9,0.9
					C9.6,23.4,9.2,23.8,8.7,23.8z M8.7,22.8c-0.1,0-0.1,0.1-0.1,0.1c0,0.2,0.3,0.2,0.3,0C8.9,22.9,8.8,22.8,8.7,22.8z"/>
			</g>
		</g>
		<g>
			<g>
				<path fill="#37474F" d="M27.3,23c0-0.2,0.2-0.4,0.4-0.4c0.2,0,0.4,0.2,0.4,0.4c0,0.2-0.2,0.4-0.4,0.4
					C27.5,23.3,27.3,23.2,27.3,23z"/>
				<path fill="#37474F" d="M27.7,23.8c-0.5,0-0.9-0.4-0.9-0.9c0-0.5,0.4-0.9,0.9-0.9c0.2,0,0.5,0.1,0.6,0.3
					c0.2,0.2,0.2,0.4,0.2,0.6C28.5,23.4,28.2,23.8,27.7,23.8z M27.7,22.8c-0.1,0-0.1,0.1-0.1,0.1c0,0,0,0.1,0,0.1
					c0.1,0.1,0.2,0,0.2-0.1C27.8,22.9,27.8,22.8,27.7,22.8z"/>
			</g>
			<g>
				<path fill="#37474F" d="M23.9,23c0-0.2,0.2-0.4,0.3-0.4c0.2,0,0.4,0.2,0.4,0.4c0,0.2-0.2,0.4-0.4,0.4C24,23.3,23.9,23.2,23.9,23
					z"/>
				<path fill="#37474F" d="M24.2,23.8c-0.5,0-0.8-0.4-0.8-0.9c0-0.2,0.1-0.4,0.2-0.6c0.2-0.2,0.4-0.3,0.6-0.3
					c0.5,0,0.8,0.4,0.9,0.8C25.1,23.5,24.7,23.8,24.2,23.8z M24.2,22.8c-0.1,0-0.1,0-0.1,0.1c0,0.2,0.2,0.2,0.2,0.1c0,0,0-0.1,0-0.1
					C24.4,22.9,24.3,22.8,24.2,22.8z"/>
			</g>
			<g>
				<path fill="#37474F" d="M20.4,23c0-0.2,0.2-0.4,0.4-0.4c0.2,0,0.4,0.2,0.4,0.4c0,0.2-0.2,0.4-0.4,0.4
					C20.6,23.3,20.4,23.2,20.4,23z"/>
				<path fill="#37474F" d="M20.8,23.8c-0.5,0-0.9-0.4-0.9-0.9c0-0.5,0.4-0.9,0.9-0.9c0.5,0,0.9,0.4,0.9,0.9
					C21.6,23.4,21.2,23.8,20.8,23.8z M20.8,22.8c-0.1,0-0.1,0.1-0.1,0.1c0,0.2,0.3,0.2,0.3,0C20.9,22.9,20.8,22.8,20.8,22.8z"/>
			</g>
		</g>
	</g>
</g>
</svg>
