<?xml version="1.0" encoding="utf-8"?>
<!-- Generator: Adobe Illustrator 16.0.0, SVG Export Plug-In . SVG Version: 6.00 Build 0)  -->
<!DOCTYPE svg PUBLIC "-//W3C//DTD SVG 1.1//EN" "http://www.w3.org/Graphics/SVG/1.1/DTD/svg11.dtd">
<svg version="1.1" id="Layer_1" xmlns="http://www.w3.org/2000/svg" xmlns:xlink="http://www.w3.org/1999/xlink" x="0px" y="0px"
	 width="128px" height="128px" viewBox="0 0 128 128" enable-background="new 0 0 128 128" xml:space="preserve">
<g>
	<g>
		<polygon fill="#37474F" points="68.3,79 64,60.9 59.7,79 		"/>
		<path fill="#37474F" d="M68.3,80.5h-8.5c-0.5,0-0.9-0.2-1.2-0.6c-0.3-0.4-0.4-0.8-0.3-1.3l4.3-18.1c0.2-0.7,0.8-1.2,1.5-1.2h0
			c0.7,0,1.3,0.5,1.5,1.2l4.3,18.1c0.1,0.4,0,0.9-0.3,1.3C69.2,80.3,68.7,80.5,68.3,80.5z M61.6,77.5h4.7L64,67.4L61.6,77.5z"/>
	</g>
	<g>
		<g>
			<g>
				<rect x="16" y="4" fill="#37474F" width="96" height="58"/>
				<path fill="#37474F" d="M112,63.5H16c-0.8,0-1.5-0.7-1.5-1.5V4c0-0.8,0.7-1.5,1.5-1.5h96c0.8,0,1.5,0.7,1.5,1.5v58
					C113.5,62.8,112.8,63.5,112,63.5z M17.5,60.5h93v-55h-93V60.5z"/>
			</g>
			<g>
				<rect x="19.5" y="7.5" fill="#B0BEC5" width="89" height="47"/>
			</g>
			<g>
				<polygon fill="#FFFFFF" points="65.5,58.7 64,60.2 62.4,58.7 64,57.2 				"/>
			</g>
			<g>
				<defs>
					<rect id="SVGID_1_" x="19.5" y="7.5" width="89" height="47"/>
				</defs>
				<clipPath id="SVGID_2_">
					<use xlink:href="#SVGID_1_"  overflow="visible"/>
				</clipPath>
				<g clip-path="url(#SVGID_2_)">
					<polygon fill="#FFFFFF" points="87.1,-11.7 17.8,57.6 -1.1,38.7 68.2,-30.5 					"/>
				</g>
				<g clip-path="url(#SVGID_2_)">
					<polygon fill="#FFFFFF" points="148,21.6 78.7,90.9 59.8,72 129.1,2.7 					"/>
				</g>
				<g clip-path="url(#SVGID_2_)">
					<polygon fill="#FFFFFF" points="109.1,-1.6 39.8,67.7 31.3,59.2 100.6,-10.1 					"/>
				</g>
				<g clip-path="url(#SVGID_2_)">
					<polygon fill="#FFFFFF" points="124.2,-6.5 54.9,62.8 53,60.9 122.3,-8.4 					"/>
				</g>
			</g>
		</g>
		<g>
			<g>
				<path fill="#37474F" d="M73.4,33.1c0-0.9,0.7-1.6,1.6-1.6c0.9,0,1.6,0.7,1.6,1.6c0,0.9-0.7,1.5-1.6,1.5
					C74.1,34.7,73.4,34,73.4,33.1z"/>
				<path fill="#37474F" d="M74.9,35.2c-1.1,0-2-0.9-2-2c0-1.2,0.9-2.1,2.1-2.1c0.6,0,1.1,0.2,1.5,0.6c0.4,0.4,0.6,0.9,0.6,1.5
					C77,34.3,76.1,35.2,74.9,35.2L74.9,35.2z M74.9,32.1c-0.6,0-1.1,0.5-1.1,1.1c0,0.6,0.5,1,1,1v0.5l0-0.5c0.6,0,1.1-0.5,1.1-1
					c0-0.3-0.1-0.6-0.3-0.8C75.5,32.2,75.2,32.1,74.9,32.1z"/>
			</g>
			<g>
				<path fill="#37474F" d="M62.4,33.1c0-0.9,0.7-1.6,1.5-1.6c0.9,0,1.6,0.7,1.6,1.6c0,0.9-0.7,1.6-1.6,1.6
					C63.1,34.7,62.4,34,62.4,33.1z"/>
				<path fill="#37474F" d="M64,35.2L64,35.2c-1.1,0-2-1-2-2.1c0-1.1,0.9-2.1,2-2.1c1.1,0,2.1,0.9,2.1,2.1
					C66,34.3,65.1,35.2,64,35.2z M64,32.1c-0.6,0-1,0.5-1,1.1c0,0.6,0.5,1,1.1,1.1c0.6,0,1.1-0.5,1.1-1.1
					C65.1,32.6,64.6,32.1,64,32.1z"/>
			</g>
			<g>
				<path fill="#37474F" d="M51.5,33.1c0-0.9,0.7-1.6,1.6-1.6c0.8,0,1.5,0.7,1.5,1.6c0,0.9-0.7,1.6-1.6,1.5
					C52.2,34.7,51.5,34,51.5,33.1z"/>
				<path fill="#37474F" d="M53.1,35.2L53.1,35.2C53.1,35.2,53,35.2,53.1,35.2c-1.2,0-2.1-0.9-2.1-2c0-1.1,0.9-2.1,2.1-2.1
					c1.1,0,2,0.9,2,2.1C55.1,34.3,54.2,35.2,53.1,35.2z M53.1,32.1c-0.6,0-1.1,0.5-1.1,1.1c0,0.6,0.5,1,1,1l0.1,0.5v-0.5
					c0.6,0,1-0.5,1-1C54.1,32.6,53.7,32.1,53.1,32.1z"/>
			</g>
		</g>
	</g>
	<g>
		<g>
			<g>
				<g>
					<path fill="#B0BEC5" d="M21,106.4c0,5.1-3.9,9.3-9,9.3l0,0c-5.1,0-9-4.1-9-9.3v-31c0-5.1,3.9-9.3,9-9.3l0,0c5.1,0,9,4.1,9,9.3
						V106.4z"/>
					<path fill="#37474F" d="M12,117.1c-5.9,0-10.5-4.7-10.5-10.8v-31c0-6,4.6-10.8,10.5-10.8c5.9,0,10.5,4.7,10.5,10.8v31
						C22.5,112.4,17.9,117.1,12,117.1z M12,67.7c-4.2,0-7.5,3.4-7.5,7.8v31c0,4.4,3.3,7.8,7.5,7.8c4.2,0,7.5-3.4,7.5-7.8v-31
						C19.5,71.1,16.2,67.7,12,67.7z"/>
				</g>
				<g>
					<path fill="#FFFFFF" d="M19.5,100.7c0,4.4-3.6,8-7.5,8l0,0c-3.9,0-7.5-3.6-7.5-8V74.1c0-4.4,3.6-8,7.5-8l0,0
						c3.9,0,7.5,3.6,7.5,8V100.7z"/>
				</g>
				<g>
					<g>
						<path fill="#FFAB00" d="M16,78c0,2.2-1.8,4.1-4.1,4.1c-2.3,0-4.1-1.9-4.1-4.1c0-2.3,1.8-4.1,4.1-4.1C14.2,73.9,16,75.7,16,78z
							"/>
						<path fill="#37474F" d="M11.9,83.6c-3.1,0-5.6-2.5-5.6-5.6c0-3.1,2.5-5.6,5.6-5.6c3.1,0,5.6,2.5,5.6,5.6
							C17.5,81.1,15,83.6,11.9,83.6z M11.9,75.4c-1.4,0-2.6,1.2-2.6,2.6c0,1.4,1.2,2.6,2.6,2.6c1.4,0,2.6-1.2,2.6-2.6
							C14.5,76.6,13.4,75.4,11.9,75.4z"/>
					</g>
					<g>
						<line fill="#FFAB00" x1="12" y1="82.5" x2="12" y2="115.5"/>
						<path fill="#37474F" d="M12,117c-0.8,0-1.5-0.7-1.5-1.5v-33c0-0.8,0.7-1.5,1.5-1.5s1.5,0.7,1.5,1.5v33
							C13.5,116.3,12.8,117,12,117z"/>
					</g>
				</g>
			</g>
			<g>
				<path fill="#FFAB00" d="M20.3,120c0,2.1-1.7,4-3.8,4H7.4c-2.1,0-3.8-1.9-3.8-4l0,0c0-2.1,1.7-4,3.8-4h9.1
					C18.6,116,20.3,117.9,20.3,120L20.3,120z"/>
				<path fill="#37474F" d="M16.5,125.5H7.4C4.5,125.5,2,123,2,120c0-3,2.4-5.5,5.3-5.5h9.1c2.9,0,5.3,2.5,5.3,5.5
					C21.8,123,19.4,125.5,16.5,125.5z M7.4,117.5c-1.2,0-2.3,1.2-2.3,2.5c0,1.3,1.1,2.5,2.3,2.5h9.1c1.2,0,2.3-1.2,2.3-2.5
					c0-1.3-1.1-2.5-2.3-2.5H7.4z"/>
			</g>
		</g>
		<g>
			<g>
				<g>
					<path fill="#B0BEC5" d="M125,106.4c0,5.1-3.9,9.3-9,9.3l0,0c-5.1,0-9-4.1-9-9.3v-31c0-5.1,3.9-9.3,9-9.3l0,0c5.1,0,9,4.1,9,9.3
						V106.4z"/>
					<path fill="#37474F" d="M116,117.1c-5.9,0-10.5-4.7-10.5-10.8v-31c0-6,4.6-10.8,10.5-10.8c5.9,0,10.5,4.7,10.5,10.8v31
						C126.5,112.4,121.9,117.1,116,117.1z M116,67.7c-4.2,0-7.5,3.4-7.5,7.8v31c0,4.4,3.3,7.8,7.5,7.8c4.2,0,7.5-3.4,7.5-7.8v-31
						C123.5,71.1,120.2,67.7,116,67.7z"/>
				</g>
				<g>
					<path fill="#FFFFFF" d="M123.5,100.7c0,4.4-3.6,8-7.5,8l0,0c-3.9,0-7.5-3.6-7.5-8V74.1c0-4.4,3.6-8,7.5-8l0,0
						c3.9,0,7.5,3.6,7.5,8V100.7z"/>
				</g>
				<g>
					<g>
						<path fill="#FFAB00" d="M120.2,78c0,2.2-1.8,4.1-4.1,4.1c-2.3,0-4.1-1.9-4.1-4.1c0-2.3,1.8-4.1,4.1-4.1
							C118.3,73.9,120.2,75.7,120.2,78z"/>
						<path fill="#37474F" d="M116.1,83.6c-3.1,0-5.6-2.5-5.6-5.6c0-3.1,2.5-5.6,5.6-5.6c3.1,0,5.6,2.5,5.6,5.6
							C121.7,81.1,119.2,83.6,116.1,83.6z M116.1,75.4c-1.4,0-2.6,1.2-2.6,2.6c0,1.4,1.2,2.6,2.6,2.6c1.4,0,2.6-1.2,2.6-2.6
							C118.7,76.6,117.5,75.4,116.1,75.4z"/>
					</g>
					<g>
						<line fill="#FFAB00" x1="116" y1="82.5" x2="116" y2="115.5"/>
						<path fill="#37474F" d="M116,117c-0.8,0-1.5-0.7-1.5-1.5v-33c0-0.8,0.7-1.5,1.5-1.5s1.5,0.7,1.5,1.5v33
							C117.5,116.3,116.8,117,116,117z"/>
					</g>
				</g>
			</g>
			<g>
				<path fill="#FFAB00" d="M124.4,120c0,2.1-1.7,4-3.8,4h-9.1c-2.1,0-3.8-1.9-3.8-4l0,0c0-2.1,1.7-4,3.8-4h9.1
					C122.7,116,124.4,117.9,124.4,120L124.4,120z"/>
				<path fill="#37474F" d="M120.6,125.5h-9.1c-2.9,0-5.3-2.5-5.3-5.5c0-3,2.4-5.5,5.3-5.5h9.1c2.9,0,5.3,2.5,5.3,5.5
					C125.9,123,123.5,125.5,120.6,125.5z M111.5,117.5c-1.2,0-2.3,1.2-2.3,2.5c0,1.3,1.1,2.5,2.3,2.5h9.1c1.2,0,2.3-1.2,2.3-2.5
					c0-1.3-1.1-2.5-2.3-2.5H111.5z"/>
			</g>
		</g>
	</g>
	<g>
		<rect x="32" y="110" fill="#37474F" width="64" height="14"/>
		<path fill="#37474F" d="M96,125.5H32c-0.8,0-1.5-0.7-1.5-1.5v-14c0-0.8,0.7-1.5,1.5-1.5h64c0.8,0,1.5,0.7,1.5,1.5v14
			C97.5,124.8,96.8,125.5,96,125.5z M33.5,122.5h61v-11h-61V122.5z"/>
	</g>
	<g>
		<rect x="32" y="93" fill="#78909C" width="64" height="14"/>
		<path fill="#37474F" d="M97.5,108.5h-67v-17h67V108.5z M33.5,105.5h61v-11h-61V105.5z"/>
	</g>
	<g>
		<rect x="32" y="80" fill="#B0BEC5" width="64" height="13"/>
		<path fill="#37474F" d="M96,94.5H32c-0.8,0-1.5-0.7-1.5-1.5V80c0-0.8,0.7-1.5,1.5-1.5h64c0.8,0,1.5,0.7,1.5,1.5v13
			C97.5,93.8,96.8,94.5,96,94.5z M33.5,91.5h61v-10h-61V91.5z"/>
	</g>
	<g>
		<g>
			<rect x="39.5" y="85.5" fill="#37474F" width="44" height="2"/>
		</g>
		<g>
			<path fill="#37474F" d="M81.9,86.2c0,2,1.6,3.5,3.5,3.5c2,0,3.6-1.6,3.6-3.5c0-1.9-1.6-3.5-3.6-3.5
				C83.5,82.7,81.9,84.3,81.9,86.2z"/>
		</g>
	</g>
	<g>
		<g>
			<rect x="44.5" y="99.5" fill="#37474F" width="44" height="1"/>
		</g>
		<g>
			<path fill="#37474F" d="M46.1,99.9c0-2-1.6-3.5-3.6-3.5c-1.9,0-3.5,1.6-3.5,3.5c0,1.9,1.6,3.5,3.5,3.5
				C44.5,103.5,46.1,101.9,46.1,99.9z"/>
		</g>
	</g>
</g>
</svg>
