<?xml version="1.0" encoding="utf-8"?>
<!-- Generator: Adobe Illustrator 16.0.0, SVG Export Plug-In . SVG Version: 6.00 Build 0)  -->
<!DOCTYPE svg PUBLIC "-//W3C//DTD SVG 1.1//EN" "http://www.w3.org/Graphics/SVG/1.1/DTD/svg11.dtd">
<svg version="1.1" id="Layer_1" xmlns="http://www.w3.org/2000/svg" xmlns:xlink="http://www.w3.org/1999/xlink" x="0px" y="0px"
	 width="33px" height="33px" viewBox="0 0 33 33" enable-background="new 0 0 33 33" xml:space="preserve">
<g>
	<g>
		<rect x="1" y="9" fill="#FFAB00" width="31" height="3"/>
		<path fill="#37474F" d="M32,12.5H1c-0.3,0-0.5-0.2-0.5-0.5V9c0-0.3,0.2-0.5,0.5-0.5h31c0.3,0,0.5,0.2,0.5,0.5v3
			C32.5,12.3,32.3,12.5,32,12.5z M1.5,11.5h30v-2h-30V11.5z"/>
	</g>
	<g>
		<polyline fill="#FFECB3" points="21.4,31.6 24.1,1 27.3,1 30,31.5 		"/>
		<path fill="#37474F" d="M21.4,32.1C21.3,32.1,21.3,32.1,21.4,32.1c-0.3,0-0.5-0.3-0.5-0.5L23.6,1c0-0.3,0.2-0.5,0.5-0.5h3.2
			c0.3,0,0.5,0.2,0.5,0.5l2.7,30.5c0,0.3-0.2,0.5-0.5,0.5c-0.3,0-0.5-0.2-0.5-0.5l-2.7-30h-2.3l-2.7,30.1
			C21.8,31.9,21.6,32.1,21.4,32.1z"/>
	</g>
	<g>
		<line fill="#FFFFFF" x1="4" y1="12.5" x2="4" y2="15.5"/>
		<path fill="#37474F" d="M4,16c-0.3,0-0.5-0.2-0.5-0.5v-3C3.5,12.2,3.7,12,4,12s0.5,0.2,0.5,0.5v3C4.5,15.8,4.3,16,4,16z"/>
	</g>
	<g>
		<line fill="#FFFFFF" x1="2.5" y1="17" x2="5.5" y2="17"/>
		<path fill="#37474F" d="M5.5,17.5h-3C2.2,17.5,2,17.3,2,17s0.2-0.5,0.5-0.5h3C5.8,16.5,6,16.7,6,17S5.8,17.5,5.5,17.5z"/>
	</g>
	<g>
		<path fill="#FFECB3" d="M1.3,20.6L1.3,20.6c0-1.4,1.1-2.6,2.5-2.6h0.9c1.4,0,2.5,1.2,2.5,2.6l0,0"/>
		<path fill="#37474F" d="M1.3,21.1c-0.3,0-0.5-0.2-0.5-0.5c0-1.7,1.4-3.1,3-3.1h0.9c1.7,0,3,1.4,3,3.1c0,0.3-0.2,0.5-0.5,0.5
			s-0.5-0.2-0.5-0.5c0-1.1-0.9-2.1-2-2.1H3.8c-1.1,0-2,1-2,2.1C1.8,20.9,1.6,21.1,1.3,21.1z"/>
	</g>
	<g>
		<line fill="#FFECB3" x1="17.1" y1="8.2" x2="24" y2="1.3"/>
		<path fill="#37474F" d="M17.1,8.7c-0.1,0-0.3,0-0.4-0.1c-0.2-0.2-0.2-0.5,0-0.7l7-7c0.2-0.2,0.5-0.2,0.7,0s0.2,0.5,0,0.7l-7,7
			C17.3,8.7,17.2,8.7,17.1,8.7z"/>
	</g>
	<g>
		<path fill="#FFECB3" d="M4.2,22l0.1,3.2c-0.8,0-1.4,0.6-1.4,1.4c0,0.8,0.6,1.4,1.4,1.4s1.4-0.6,1.4-1.4"/>
		<path fill="#37474F" d="M4.3,28.5c-1.1,0-1.9-0.9-1.9-1.9c0-0.9,0.6-1.6,1.4-1.8L3.7,22c0-0.3,0.2-0.5,0.5-0.5c0,0,0,0,0,0
			c0.3,0,0.5,0.2,0.5,0.5l0.1,3.2c0,0.1,0,0.3-0.1,0.4c-0.1,0.1-0.2,0.2-0.4,0.2c-0.5,0-0.9,0.4-0.9,0.9s0.4,0.9,0.9,0.9
			s0.9-0.4,0.9-0.9c0-0.3,0.2-0.5,0.5-0.5s0.5,0.2,0.5,0.5C6.2,27.6,5.4,28.5,4.3,28.5z"/>
	</g>
	<g>
		<path fill="#37474F" d="M22.1,31.7c-0.1,0-0.3,0-0.4-0.1c-0.2-0.2-0.2-0.5,0-0.7l6.7-6.7l-6-6.4c-0.2-0.2-0.2-0.5,0-0.7l5-5
			l-3.9-3.9c-0.2-0.2-0.2-0.5,0-0.7L27,4c0.2-0.2,0.5-0.2,0.7,0s0.2,0.5,0,0.7l-3.1,3.1l3.9,3.9c0.2,0.2,0.2,0.5,0,0.7l-5,5l6,6.4
			c0.2,0.2,0.2,0.5,0,0.7l-7,7C22.4,31.6,22.3,31.7,22.1,31.7z"/>
	</g>
</g>
</svg>
