<?xml version="1.0" encoding="utf-8"?>
<!-- Generator: Adobe Illustrator 16.0.0, SVG Export Plug-In . SVG Version: 6.00 Build 0)  -->
<!DOCTYPE svg PUBLIC "-//W3C//DTD SVG 1.1//EN" "http://www.w3.org/Graphics/SVG/1.1/DTD/svg11.dtd">
<svg version="1.1" id="Layer_1" xmlns="http://www.w3.org/2000/svg" xmlns:xlink="http://www.w3.org/1999/xlink" x="0px" y="0px"
	 width="128px" height="128px" viewBox="0 0 128 128" enable-background="new 0 0 128 128" xml:space="preserve">
<g>
	<g>
		<g>
			<g>
				<path fill="#FFECB3" d="M121.9,105.4c3.1,3.1,4,7.1,2.1,9l-6.3,6.4c-1.9,1.9-5.9,0.9-9-2.1L48.1,54.8c-3.1-3.1-4-7.1-2.1-9l3-3
					c1.9-1.9,5.9-0.9,9,2.1L121.9,105.4z"/>
				<path fill="#37474F" d="M115.1,123.8c-2.6,0-5.5-1.4-7.8-3.7L46.7,56.2c-1.7-1.7-2.9-3.8-3.4-5.9c-0.6-2.4-0.1-4.5,1.3-5.9l3-3
					c1-1,2.4-1.6,4-1.6c2.6,0,5.5,1.4,7.8,3.7l63.8,60.5c4,4,4.9,9.2,2.2,11.9l-6.4,6.4C118.1,123.2,116.7,123.8,115.1,123.8z
					 M51.6,43.7c-0.4,0-0.9,0.1-1.2,0.4l-3,3c-0.4,0.4-0.5,1.2-0.3,2.2c0.3,1.3,1.2,2.8,2.4,4l60.6,63.9c1.8,1.8,3.8,2.5,4.9,2.5
					c0.4,0,0.9-0.1,1.2-0.4l6.3-6.3c0.8-0.8,0.4-3.6-2.1-6.2L56.7,46.3C55.1,44.7,53.1,43.7,51.6,43.7z"/>
			</g>
			<g>
				<polygon fill="#B0BEC5" points="61.4,13.3 19.3,55.4 7.8,43.9 41.6,10.1 				"/>
				<path fill="#37474F" d="M19.3,57.4c-0.5,0-1-0.2-1.4-0.6L6.4,45.3c-0.4-0.4-0.6-0.9-0.6-1.4s0.2-1,0.6-1.4L40.2,8.7
					c0.5-0.5,1.1-0.7,1.7-0.6l19.8,3.2c0.7,0.1,1.4,0.6,1.6,1.4c0.2,0.7,0,1.5-0.5,2L20.7,56.8C20.3,57.2,19.8,57.4,19.3,57.4z
					 M10.6,43.9l8.7,8.7l38-38l-14.9-2.4L10.6,43.9z"/>
			</g>
			<g>
				<line fill="#FFAB00" x1="39.2" y1="43.9" x2="47.2" y2="35.9"/>
				<path fill="#37474F" d="M39.2,45.9c-0.5,0-1-0.2-1.4-0.6c-0.8-0.8-0.8-2,0-2.8l8-8c0.8-0.8,2-0.8,2.8,0s0.8,2,0,2.8l-8,8
					C40.2,45.7,39.7,45.9,39.2,45.9z"/>
			</g>
		</g>
		<g>
			<line fill="#FFAB00" x1="96" y1="122" x2="122" y2="122"/>
			<path fill="#37474F" d="M122,124H96c-1.1,0-2-0.9-2-2s0.9-2,2-2h26c1.1,0,2,0.9,2,2S123.1,124,122,124z"/>
		</g>
		<g>
			<g>
				<path fill="#B0BEC5" d="M33.9,97.3c0,1.5-6.9,2.8-15.4,2.8C9.9,100.1,3,98.8,3,97.3"/>
				<path fill="#37474F" d="M18.4,102.1C6.9,102.1,1,100.5,1,97.3c0-1.1,0.9-2,2-2c0.8,0,1.5,0.5,1.8,1.2c1.2,0.6,6,1.6,13.6,1.6
					s12.4-1,13.6-1.6c0.3-0.7,1-1.2,1.8-1.2c1.1,0,2,0.9,2,2C35.9,100.5,30,102.1,18.4,102.1z"/>
			</g>
			<g>
				<line fill="#FFAB00" x1="13" y1="107" x2="24" y2="107"/>
				<path fill="#37474F" d="M24,109H13c-1.1,0-2-0.9-2-2s0.9-2,2-2h11c1.1,0,2,0.9,2,2S25.1,109,24,109z"/>
			</g>
			<g>
				<line fill="#FFAB00" x1="13" y1="114" x2="24" y2="114"/>
				<path fill="#37474F" d="M24,116H13c-1.1,0-2-0.9-2-2s0.9-2,2-2h11c1.1,0,2,0.9,2,2S25.1,116,24,116z"/>
			</g>
			<g>
				<line fill="#FFAB00" x1="13" y1="121" x2="24" y2="121"/>
				<path fill="#37474F" d="M24,123H13c-1.1,0-2-0.9-2-2s0.9-2,2-2h11c1.1,0,2,0.9,2,2S25.1,123,24,123z"/>
			</g>
		</g>
	</g>
	<g>
		<line fill="#FFAB00" x1="31" y1="56" x2="31" y2="81"/>
		<path fill="#37474F" d="M31,83c-1.1,0-2-0.9-2-2V56c0-1.1,0.9-2,2-2s2,0.9,2,2v25C33,82.1,32.1,83,31,83z"/>
	</g>
	<g>
		<line fill="#FFAB00" x1="7" y1="6" x2="7" y2="32"/>
		<path fill="#37474F" d="M7,34c-1.1,0-2-0.9-2-2V6c0-1.1,0.9-2,2-2s2,0.9,2,2v26C9,33.1,8.1,34,7,34z"/>
	</g>
	<g>
		<line fill="#FFAB00" x1="16" y1="10" x2="16" y2="25"/>
		<path fill="#37474F" d="M16,27c-1.1,0-2-0.9-2-2V10c0-1.1,0.9-2,2-2s2,0.9,2,2v15C18,26.1,17.1,27,16,27z"/>
	</g>
</g>
</svg>
