<?xml version="1.0" encoding="utf-8"?>
<!-- Generator: Adobe Illustrator 16.0.0, SVG Export Plug-In . SVG Version: 6.00 Build 0)  -->
<!DOCTYPE svg PUBLIC "-//W3C//DTD SVG 1.1//EN" "http://www.w3.org/Graphics/SVG/1.1/DTD/svg11.dtd">
<svg version="1.1" id="Layer_1" xmlns="http://www.w3.org/2000/svg" xmlns:xlink="http://www.w3.org/1999/xlink" x="0px" y="0px"
	 width="25px" height="25px" viewBox="0 0 25 25" enable-background="new 0 0 25 25" xml:space="preserve">
<g>
	<path d="M12.2,24.5C12.3,24.5,12.3,24.5,12.2,24.5c0.1,0,0.2,0.1,0.2,0.1s0.2,0,0.2-0.1c0,0,0,0,0,0l10-5.8
		c0.2-0.1,0.2-0.3,0.2-0.4V6.7c0-0.2-0.1-0.3-0.2-0.4l-10-5.8c-0.2-0.1-0.3-0.1-0.5,0l-10,5.8C2.1,6.4,2,6.5,2,6.7v11.6
		c0,0.2,0.1,0.3,0.2,0.4L12.2,24.5z M3,7.7l9,5.2v10.3L3,18V7.7z M13,23.2V12.9l9-5.2V18L13,23.2z M12.5,1.5l9.1,5.3L12.5,12
		L3.4,6.8L12.5,1.5z"/>
	<path d="M20.9,16.4l-0.7,0.4v-2l0.2,0.2c0.1,0.1,0.2,0.1,0.4,0.1s0.3,0,0.4-0.1c0.2-0.2,0.2-0.5,0-0.7l-1-1c-0.2-0.2-0.5-0.2-0.7,0
		c-0.2,0.2-0.2,0.4-0.1,0.6c0,0.1-0.1,0.1-0.1,0.2v3.3L18.1,18v-2l0.2,0.2c0.1,0.1,0.2,0.1,0.4,0.1s0.3,0,0.4-0.1
		c0.2-0.2,0.2-0.5,0-0.7l-1-1c-0.2-0.2-0.5-0.2-0.7,0c-0.2,0.2-0.2,0.4-0.1,0.6c0,0.1-0.1,0.1-0.1,0.2v3.3L16,19.2
		c-0.2,0.1-0.3,0.4-0.2,0.7c0.1,0.2,0.3,0.2,0.4,0.2c0.1,0,0.2,0,0.2-0.1l4.9-2.9c0.2-0.1,0.3-0.4,0.2-0.7
		C21.5,16.3,21.2,16.2,20.9,16.4z"/>
</g>
</svg>
