<?xml version="1.0" encoding="utf-8"?>
<!-- Generator: Adobe Illustrator 16.0.0, SVG Export Plug-In . SVG Version: 6.00 Build 0)  -->
<!DOCTYPE svg PUBLIC "-//W3C//DTD SVG 1.1//EN" "http://www.w3.org/Graphics/SVG/1.1/DTD/svg11.dtd">
<svg version="1.1" id="Layer_1" xmlns="http://www.w3.org/2000/svg" xmlns:xlink="http://www.w3.org/1999/xlink" x="0px" y="0px"
	 width="25px" height="25px" viewBox="0 0 25 25" enable-background="new 0 0 25 25" xml:space="preserve">
<g>
	<path d="M14.5,7.1c0.3,0,0.5-0.2,0.5-0.5c0-2.3-1.2-4.1-2.7-4.1c-0.3,0-0.5,0.2-0.5,0.5s0.2,0.5,0.5,0.5c0.9,0,1.7,1.4,1.7,3.1
		C14,6.8,14.2,7.1,14.5,7.1z"/>
	<path d="M10.5,17.9c-0.3,0-0.5,0.2-0.5,0.5c0,2.3,1.2,4.1,2.7,4.1c0.3,0,0.5-0.2,0.5-0.5s-0.2-0.5-0.5-0.5c-0.9,0-1.7-1.4-1.7-3.1
		C11,18.2,10.8,17.9,10.5,17.9z"/>
	<path d="M20,8.5c-0.9,0-1.6,0.4-2.2,1.2c-1.8,2.6-3.2,3-4,2.9c1.6-0.8,2.7-3.1,2.7-5.8c0-3.4-1.8-6.1-4-6.1c-1.4,0-3.3,1.6-3.8,3.4
		c-0.4,1.3-0.1,2.4,1,3.2c2.3,1.6,2.8,2.9,2.9,3.7c0,0.1,0,0.2,0,0.3c-0.9-1.5-3.1-2.6-5.8-2.6c-3.4,0-6.1,1.8-6.1,4
		c0,1.7,2.3,4,4.4,4c0.9,0,1.6-0.4,2.2-1.2c1.8-2.6,3.2-3,4-2.9c-1.6,0.8-2.7,3.1-2.7,5.8c0,3.4,1.8,6.1,4,6.1
		c1.4,0,3.3-1.6,3.8-3.4c0.4-1.3,0.1-2.4-1-3.2c-2.3-1.6-2.8-2.9-2.9-3.7c0-0.1,0-0.2,0-0.3c0.9,1.5,3.1,2.6,5.8,2.6
		c3.4,0,6.1-1.8,6.1-4C24.4,10.8,22.1,8.5,20,8.5z M10.2,6.3C9.5,5.8,9.3,5.1,9.6,4.3c0.5-1.4,2-2.7,2.9-2.7c1.6,0,3,2.4,3,5.1
		c0,2.2-0.9,4.2-2.1,4.9C13.7,10.6,13.5,8.6,10.2,6.3z M6.3,14.8C6,15.3,5.5,15.5,5,15.5c-1.5,0-3.4-1.8-3.4-3c0-1.6,2.4-3,5.1-3
		c2.2,0,4.2,0.9,4.9,2.1C10,11.2,8.1,12.3,6.3,14.8z M14.8,18.7c0.7,0.5,0.9,1.2,0.6,2.1c-0.5,1.4-2,2.7-2.9,2.7c-1.6,0-3-2.4-3-5.1
		c0-2.2,0.9-4.2,2.1-4.9C11.3,14.4,11.5,16.4,14.8,18.7z M18.3,15.5c-2.2,0-4.2-0.9-4.9-2.1c1.6,0.4,3.5-0.7,5.3-3.2
		C19,9.7,19.5,9.5,20,9.5c1.5,0,3.4,1.8,3.4,3C23.4,14.1,21.1,15.5,18.3,15.5z"/>
	<path d="M21.5,12.3c0,0.9-1.4,1.7-3.1,1.7c-0.3,0-0.5,0.2-0.5,0.5s0.2,0.5,0.5,0.5c2.3,0,4.1-1.2,4.1-2.7c0-0.3-0.2-0.5-0.5-0.5
		S21.5,12,21.5,12.3z"/>
	<path d="M6.6,10c-2.3,0-4.1,1.2-4.1,2.7c0,0.3,0.2,0.5,0.5,0.5s0.5-0.2,0.5-0.5c0-0.9,1.4-1.7,3.1-1.7c0.3,0,0.5-0.2,0.5-0.5
		S6.8,10,6.6,10z"/>
</g>
</svg>
