<?xml version="1.0" encoding="utf-8"?>
<!-- Generator: Adobe Illustrator 16.0.0, SVG Export Plug-In . SVG Version: 6.00 Build 0)  -->
<!DOCTYPE svg PUBLIC "-//W3C//DTD SVG 1.1//EN" "http://www.w3.org/Graphics/SVG/1.1/DTD/svg11.dtd">
<svg version="1.1" id="Layer_1" xmlns="http://www.w3.org/2000/svg" xmlns:xlink="http://www.w3.org/1999/xlink" x="0px" y="0px"
	 width="25px" height="25px" viewBox="0 0 25 25" enable-background="new 0 0 25 25" xml:space="preserve">
<g>
	<path d="M24,2.2H4.6V1c0-0.3-0.2-0.5-0.5-0.5S3.6,0.8,3.6,1v1.2H1c-0.3,0-0.5,0.2-0.5,0.5S0.8,3.2,1,3.2h2.5V24
		c0,0.3,0.2,0.5,0.5,0.5s0.5-0.2,0.5-0.5V3.2H24c0.3,0,0.5-0.2,0.5-0.5S24.2,2.2,24,2.2z"/>
	<path d="M10.5,3.5C10.2,3.5,10,3.8,10,4v1.7C9.6,5.9,9.2,6.1,9.1,6.5C9,6.5,8.9,6.4,8.8,6.4H6.4c-0.3,0-0.5,0.2-0.5,0.5V21
		c0,0.3,0.2,0.5,0.5,0.5h17.1c0.3,0,0.5-0.2,0.5-0.5V6.9c0-0.3-0.2-0.5-0.5-0.5h-2.3c-0.1,0-0.2,0-0.3,0.1c-0.2-0.4-0.5-0.7-0.9-0.8
		V4c0-0.3-0.2-0.5-0.5-0.5S19,3.8,19,4v1.7c-0.4,0.1-0.6,0.4-0.8,0.7c-0.1,0-0.1,0-0.2,0h-5.8c-0.1,0-0.2,0-0.3,0.1
		c-0.2-0.4-0.5-0.7-0.9-0.8V4C11,3.8,10.7,3.5,10.5,3.5z M19.6,6.7c0.3,0,0.6,0.3,0.6,0.6c0,0.3-0.3,0.6-0.6,0.6
		c-0.3,0-0.6-0.3-0.6-0.6C19,6.9,19.2,6.7,19.6,6.7z M12,7.4c0.1,0,0.1,0,0.2,0H18c0,0,0,0,0,0c0.1,0.8,0.8,1.4,1.6,1.4
		c0.8,0,1.5-0.6,1.6-1.4c0,0,0.1,0,0.1,0h1.8v13.1H6.9V7.4h1.9c0,0,0,0,0.1,0C9,8.2,9.6,8.8,10.4,8.8C11.3,8.8,11.9,8.2,12,7.4z
		 M10.4,7.8c-0.3,0-0.6-0.3-0.6-0.6c0-0.3,0.3-0.6,0.6-0.6c0.3,0,0.6,0.3,0.6,0.6C11,7.6,10.8,7.8,10.4,7.8z"/>
	<polygon points="8.5,13.7 9.9,13.7 9.9,12.1 11.3,12.1 11.3,10.7 9.9,10.7 9.9,10.5 11.4,10.5 11.4,9.2 8.5,9.2 	"/>
	<path d="M13.7,13.8c1.3,0,2.1-1,2.1-2.4c0-1.3-0.9-2.3-2.1-2.3c-1.2,0-2.1,1-2.1,2.4C11.6,12.8,12.4,13.8,13.7,13.8z M13.7,10.5
		c0.5,0,0.6,0.6,0.6,0.9c0,0.4-0.1,1-0.6,1c-0.4,0-0.6-0.5-0.6-0.9C13,11.4,13.1,10.5,13.7,10.5z"/>
	<path d="M17.6,12.2c0.1,0,0.1,0.1,0.2,0.3c0.1,0.6,0.2,0.8,0.3,1l0.1,0.3h0.8l0.8,0L19.4,13c-0.1-0.1-0.2-0.6-0.2-0.8
		c-0.1-0.2-0.1-0.4-0.2-0.5c0.2-0.3,0.4-0.6,0.4-1c0-0.4-0.2-0.8-0.4-1c-0.3-0.3-0.7-0.4-1.4-0.4c-0.3,0-0.7,0-1,0.1l-0.4,0.1v4.4
		h1.5V12.2z M17.6,10.5c0.3,0,0.3,0.1,0.3,0.2c0,0,0,0.2-0.3,0.2V10.5z"/>
	<path d="M13.5,17.3h1.4v-1.4h-1.4v-0.1h1.5v-1.4H12v4.5l-0.3-0.7c-0.1-0.1-0.2-0.6-0.2-0.8c-0.1-0.2-0.1-0.4-0.2-0.5
		c0.2-0.3,0.4-0.6,0.4-1c0-0.4-0.2-0.8-0.4-1c-0.3-0.3-0.7-0.4-1.4-0.4c-0.3,0-0.7,0-1,0.1l-0.4,0.1V19h1.5v-1.5
		c0.1,0,0.1,0.1,0.2,0.3c0.1,0.6,0.2,0.8,0.3,1l0.1,0.2h0.8l0.8,0v0h3v-1.4h-1.5V17.3z M9.9,16.1v-0.3c0.3,0,0.3,0.1,0.3,0.2
		C10.2,15.9,10.2,16.1,9.9,16.1z"/>
	<polygon points="17.6,15.9 16.6,14.4 15.4,14.4 15.4,19 16.8,19 16.8,17.4 17.8,19 19,19 19,14.4 17.6,14.4 	"/>
	<polygon points="19.2,15.8 20.2,15.8 20.2,19 21.7,19 21.7,15.8 22.8,15.8 22.8,14.4 19.2,14.4 	"/>
</g>
</svg>
