<?xml version="1.0" encoding="utf-8"?>
<!-- Generator: Adobe Illustrator 16.0.0, SVG Export Plug-In . SVG Version: 6.00 Build 0)  -->
<!DOCTYPE svg PUBLIC "-//W3C//DTD SVG 1.1//EN" "http://www.w3.org/Graphics/SVG/1.1/DTD/svg11.dtd">
<svg version="1.1" id="Layer_1" xmlns="http://www.w3.org/2000/svg" xmlns:xlink="http://www.w3.org/1999/xlink" x="0px" y="0px"
	 width="24px" height="24px" viewBox="0 0 24 24" enable-background="new 0 0 24 24" xml:space="preserve">
<g>
	<path d="M1.9,11.3c0.3,0,0.5-0.2,0.5-0.5V9.3H7c0.3,0,0.5-0.2,0.5-0.5S7.3,8.3,7,8.3H1.9c-0.3,0-0.5,0.2-0.5,0.5v2
		C1.4,11.1,1.6,11.3,1.9,11.3z"/>
	<path d="M1.4,14.4c0,0.3,0.2,0.5,0.5,0.5s0.5-0.2,0.5-0.5v-1.5H7c0.3,0,0.5-0.2,0.5-0.5S7.3,11.9,7,11.9H1.9
		c-0.3,0-0.5,0.2-0.5,0.5V14.4z"/>
	<path d="M1.4,17.9c0,0.3,0.2,0.5,0.5,0.5s0.5-0.2,0.5-0.5v-1.5H7c0.3,0,0.5-0.2,0.5-0.5S7.3,15.4,7,15.4H1.9
		c-0.3,0-0.5,0.2-0.5,0.5V17.9z"/>
	<path d="M17,11.3c0.3,0,0.5-0.2,0.5-0.5V9.3h4.6c0.3,0,0.5-0.2,0.5-0.5s-0.2-0.5-0.5-0.5H17c-0.3,0-0.5,0.2-0.5,0.5v2
		C16.5,11.1,16.7,11.3,17,11.3z"/>
	<path d="M16.5,14.4c0,0.3,0.2,0.5,0.5,0.5s0.5-0.2,0.5-0.5v-1.5h4.6c0.3,0,0.5-0.2,0.5-0.5s-0.2-0.5-0.5-0.5H17
		c-0.3,0-0.5,0.2-0.5,0.5V14.4z"/>
	<path d="M16.5,17.9c0,0.3,0.2,0.5,0.5,0.5s0.5-0.2,0.5-0.5v-1.5h4.6c0.3,0,0.5-0.2,0.5-0.5s-0.2-0.5-0.5-0.5H17
		c-0.3,0-0.5,0.2-0.5,0.5V17.9z"/>
	<path d="M23.2,19.3H0.8c-0.3,0-0.5,0.2-0.5,0.5s0.2,0.5,0.5,0.5h22.3c0.3,0,0.5-0.2,0.5-0.5S23.4,19.3,23.2,19.3z"/>
	<path d="M23.3,3.7H0.7c-0.3,0-0.5,0.2-0.5,0.5v2.4c0,0.3,0.2,0.5,0.5,0.5h22.7c0.3,0,0.5-0.2,0.5-0.5V4.2
		C23.8,3.9,23.6,3.7,23.3,3.7z M22.8,6.2H1.2V4.7h21.7V6.2z"/>
	<path d="M11.5,19c0.1,0,0.1,0.1,0.2,0.1c0,0,0.1,0.1,0.1,0.1c0,0,0,0,0,0c0,0,0,0,0,0c0,0,0,0,0,0c0,0,0.1,0,0.1,0c0,0,0,0,0,0
		c0,0,0.1,0,0.1,0c0,0,0,0,0,0c0,0,0,0,0,0c0,0,0,0,0,0c0,0,0,0,0,0c0,0,0,0,0,0c0,0,0,0,0,0c0.1,0,0.1-0.1,0.2-0.1
		c0.8-0.5,2.7-1.9,2.9-4.5c0.2-2.8-2.3-4.7-3-5.2c0,0-0.1-0.1-0.1-0.1C12.2,9.1,12,9,11.9,9.1c-0.1,0-0.1,0-0.2,0.1
		c0,0-0.1,0-0.1,0.1c-0.7,0.5-3.3,2.4-3.1,5.3C8.7,17.1,10.7,18.5,11.5,19z M12,18.1c-0.4-0.3-1.2-0.9-1.3-2c-0.1-1.1,0.8-2,1.3-2.3
		c0.5,0.4,1.4,1.2,1.3,2.3C13.2,17.2,12.4,17.8,12,18.1z M12,10.2c0.8,0.6,2.6,2.1,2.5,4.2c0,0.4-0.1,0.7-0.2,1
		c-0.3-1.4-1.4-2.3-1.9-2.6c0,0-0.1-0.1-0.1-0.1c-0.1-0.1-0.2-0.1-0.4-0.1c-0.1,0-0.1,0-0.2,0.1c0,0-0.1,0-0.1,0.1
		C11.2,13,10,14,9.8,15.4c-0.1-0.3-0.2-0.6-0.2-1C9.4,12.3,11.2,10.7,12,10.2z"/>
</g>
</svg>
