<?xml version="1.0" encoding="utf-8"?>
<!-- Generator: Adobe Illustrator 16.0.0, SVG Export Plug-In . SVG Version: 6.00 Build 0)  -->
<!DOCTYPE svg PUBLIC "-//W3C//DTD SVG 1.1//EN" "http://www.w3.org/Graphics/SVG/1.1/DTD/svg11.dtd">
<svg version="1.1" id="Layer_1" xmlns="http://www.w3.org/2000/svg" xmlns:xlink="http://www.w3.org/1999/xlink" x="0px" y="0px"
	 width="25px" height="25px" viewBox="0 0 25 25" enable-background="new 0 0 25 25" xml:space="preserve">
<g>
	<path d="M24.3,16.5V9.2c0-2.5-2-4.5-4.6-4.5H6.1c0,0,0,0,0,0c0,0-0.1,0-0.1,0H5.7c-2.5,0-4.5,2-4.5,4.5v7.1H0.9
		c-0.3,0-0.5,0.2-0.5,0.5s0.2,0.5,0.5,0.5h22.9c0.3,0,0.5-0.2,0.5-0.5c0-0.1,0-0.1,0-0.2C24.3,16.6,24.3,16.5,24.3,16.5z M19.8,5.7
		c1.9,0,3.5,1.6,3.5,3.5v7.1H10.5V9.2c0-1.4-0.7-2.7-1.7-3.5H19.8z M2.2,9.2c0-1.9,1.6-3.5,3.5-3.5H6c1.9,0,3.5,1.6,3.5,3.5v7.1H2.2
		V9.2z"/>
	<path d="M8,7.5H3.8C3.5,7.5,3.3,7.8,3.3,8v1.8c0,0.3,0.2,0.5,0.5,0.5H8c0.3,0,0.5-0.2,0.5-0.5V8C8.5,7.8,8.3,7.5,8,7.5z M7.5,9.4
		H4.3V8.5h3.2V9.4z"/>
	<path d="M13.4,12.4c0.6,0,1.1-0.2,1.5-0.6h4.5v1.5c0,0.3,0.2,0.5,0.5,0.5h1.9c0.3,0,0.5-0.2,0.5-0.5v-2v-1.1V9.5
		C22.2,9.2,22,9,21.7,9h-6.8c-0.4-0.4-0.9-0.6-1.5-0.6c-1.1,0-2,0.9-2,2C11.4,11.5,12.3,12.4,13.4,12.4z M21.2,10v0.3v1.1v1.5h-0.9
		v-2c0-0.3-0.2-0.5-0.5-0.5s-0.5,0.2-0.5,0.5v0h-3.9c0-0.1,0-0.3,0-0.4c0-0.1,0-0.3,0-0.4H21.2z M13.4,9.4c0.6,0,1,0.5,1,1
		c0,0.6-0.5,1-1,1s-1-0.5-1-1C12.4,9.8,12.9,9.4,13.4,9.4z"/>
	<path d="M13.5,22.2c0.3,0,0.5-0.2,0.5-0.5v-2.9h2.4c0.3,0,0.5-0.2,0.5-0.5s-0.2-0.5-0.5-0.5h-5.8c-0.3,0-0.5,0.2-0.5,0.5
		s0.2,0.5,0.5,0.5H13v2.9C13,22,13.2,22.2,13.5,22.2z"/>
</g>
</svg>
