<?xml version="1.0" encoding="utf-8"?>
<!-- Generator: Adobe Illustrator 16.0.0, SVG Export Plug-In . SVG Version: 6.00 Build 0)  -->
<!DOCTYPE svg PUBLIC "-//W3C//DTD SVG 1.1//EN" "http://www.w3.org/Graphics/SVG/1.1/DTD/svg11.dtd">
<svg version="1.1" id="Layer_1" xmlns="http://www.w3.org/2000/svg" xmlns:xlink="http://www.w3.org/1999/xlink" x="0px" y="0px"
	 width="24px" height="24px" viewBox="0 0 24 24" enable-background="new 0 0 24 24" xml:space="preserve">
<g>
	<path d="M0.9,11.5c0.1,0,0.2,0,0.3-0.1l7.7-6.6l7.7,6.6c0.2,0.2,0.5,0.2,0.7-0.1c0.2-0.2,0.2-0.5-0.1-0.7l-8-6.8
		C9,3.7,8.8,3.7,8.6,3.8L4,7.7V5h1c0.3,0,0.5-0.2,0.5-0.5S5.3,4,5,4H3.5C3.2,4,3,4.2,3,4.5V8c0,0.2,0.1,0.3,0.2,0.4l-2.7,2.3
		c-0.2,0.2-0.2,0.5-0.1,0.7C0.6,11.5,0.7,11.5,0.9,11.5z"/>
	<path d="M15,11.5c0-0.3-0.2-0.5-0.5-0.5h-11C3.2,11,3,11.2,3,11.5V15H1.5C1.2,15,1,15.2,1,15.5V17c0,0.3,0.2,0.5,0.5,0.5
		S2,17.3,2,17v-1h1v3H1c-0.3,0-0.5,0.2-0.5,0.5S0.7,20,1,20h2.5h2h3h6H23c0.3,0,0.5-0.2,0.5-0.5S23.3,19,23,19h-8v-5h2v2.5
		c0,0.3,0.2,0.5,0.5,0.5H18v0.5c0,0.3,0.2,0.5,0.5,0.5h2c0.3,0,0.5-0.2,0.5-0.5V11h2c0.3,0,0.5-0.2,0.5-0.5S23.3,10,23,10h-2.5
		c-0.3,0-0.5,0.2-0.5,0.5V17h-1v-0.5c0-0.3-0.2-0.5-0.5-0.5H18v-2.5c0-0.3-0.2-0.5-0.5-0.5H15V11.5z M6,19v-5h2v5H6z M9,19v-5.5
		C9,13.2,8.8,13,8.5,13h-3C5.2,13,5,13.2,5,13.5V19H4v-7h10v7H9z"/>
	<path d="M11.7,13.2c-1.1,0-2,0.9-2,2s0.9,2,2,2c1.1,0,2-0.9,2-2S12.8,13.2,11.7,13.2z M11.7,16.2c-0.5,0-1-0.4-1-1s0.4-1,1-1
		c0.5,0,1,0.4,1,1S12.2,16.2,11.7,16.2z"/>
</g>
</svg>
