<?xml version="1.0" encoding="utf-8"?>
<!-- Generator: Adobe Illustrator 16.0.0, SVG Export Plug-In . SVG Version: 6.00 Build 0)  -->
<!DOCTYPE svg PUBLIC "-//W3C//DTD SVG 1.1//EN" "http://www.w3.org/Graphics/SVG/1.1/DTD/svg11.dtd">
<svg version="1.1" id="Layer_1" xmlns="http://www.w3.org/2000/svg" xmlns:xlink="http://www.w3.org/1999/xlink" x="0px" y="0px"
	 width="24px" height="24px" viewBox="0 0 24 24" enable-background="new 0 0 24 24" xml:space="preserve">
<g>
	<path d="M4.3,9h15.4c0.2,0,0.4-0.2,0.4-0.4V7.9c0-1.6-1.3-2.9-2.9-2.9H6.9C5.2,5,3.9,6.3,3.9,7.9v0.7C3.9,8.8,4.1,9,4.3,9z
		 M4.7,7.9c0-1.2,1-2.2,2.2-2.2h10.3c1.2,0,2.2,1,2.2,2.2v0.3H4.7V7.9z"/>
	<path d="M8.8,4.1h6.4c0.2,0,0.4-0.2,0.4-0.4s-0.2-0.4-0.4-0.4h-2.9c0,0,0,0,0-0.1V0.6c0-0.2-0.2-0.4-0.4-0.4s-0.4,0.2-0.4,0.4v2.7
		c0,0,0,0,0,0.1H8.8c-0.2,0-0.4,0.2-0.4,0.4S8.6,4.1,8.8,4.1z"/>
	<path d="M12.3,10.4c0-0.2-0.2-0.4-0.4-0.4s-0.4,0.2-0.4,0.4v1.3c0,0.2,0.2,0.4,0.4,0.4s0.4-0.2,0.4-0.4V10.4z"/>
	<path d="M12.3,17.9c0-0.2-0.2-0.4-0.4-0.4s-0.4,0.2-0.4,0.4V20c0,0.2,0.2,0.4,0.4,0.4s0.4-0.2,0.4-0.4V17.9z"/>
	<path d="M12.3,13.8c0-0.2-0.2-0.4-0.4-0.4s-0.4,0.2-0.4,0.4v2.1c0,0.2,0.2,0.4,0.4,0.4s0.4-0.2,0.4-0.4V13.8z"/>
	<path d="M11.9,21.7c-0.2,0-0.4,0.2-0.4,0.4v1.3c0,0.2,0.2,0.4,0.4,0.4s0.4-0.2,0.4-0.4v-1.3C12.3,21.9,12.1,21.7,11.9,21.7z"/>
	<path d="M15.1,11.6l-0.2-1.3c0-0.2-0.2-0.3-0.4-0.3c-0.2,0-0.3,0.2-0.3,0.4l0.2,1.3c0,0.2,0.2,0.3,0.4,0.3c0,0,0,0,0.1,0
		C15,12,15.1,11.8,15.1,11.6z"/>
	<path d="M15.7,18.7C15.8,18.7,15.8,18.7,15.7,18.7c0.3,0,0.4-0.2,0.4-0.4l-0.5-3.3c0-0.2-0.2-0.3-0.4-0.3c-0.2,0-0.3,0.2-0.3,0.4
		l0.5,3.3C15.4,18.5,15.6,18.7,15.7,18.7z"/>
	<path d="M16.5,23.3C16.5,23.3,16.5,23.3,16.5,23.3c0.3,0,0.4-0.2,0.4-0.4l-0.2-1.3c0-0.2-0.2-0.3-0.4-0.3c-0.2,0-0.3,0.2-0.3,0.4
		l0.2,1.3C16.1,23.1,16.3,23.3,16.5,23.3z"/>
	<path d="M17.2,10c-0.2,0.1-0.3,0.3-0.2,0.5l0.4,1.2c0.1,0.2,0.2,0.3,0.4,0.3c0,0,0.1,0,0.1,0c0.2-0.1,0.3-0.3,0.2-0.5l-0.4-1.2
		C17.6,10.1,17.4,10,17.2,10z"/>
	<path d="M18.6,14.3c-0.2,0.1-0.3,0.3-0.2,0.5l1,3c0.1,0.2,0.2,0.3,0.4,0.3c0,0,0.1,0,0.1,0c0.2-0.1,0.3-0.3,0.2-0.5l-1-3
		C19,14.3,18.8,14.2,18.6,14.3z"/>
	<path d="M20.6,22c0.1,0.2,0.2,0.3,0.4,0.3c0,0,0.1,0,0.1,0c0.2-0.1,0.3-0.3,0.2-0.5L21,20.5c-0.1-0.2-0.3-0.3-0.5-0.2
		c-0.2,0.1-0.3,0.3-0.2,0.5L20.6,22z"/>
	<path d="M9.3,12c0.2,0,0.3-0.1,0.4-0.3l0.2-1.3c0-0.2-0.1-0.4-0.3-0.4c-0.2,0-0.4,0.1-0.4,0.3l-0.2,1.3C8.9,11.8,9,12,9.3,12
		C9.3,12,9.3,12,9.3,12z"/>
	<path d="M8.3,18.7c0.2,0,0.3-0.1,0.4-0.3L9.1,15c0-0.2-0.1-0.4-0.3-0.4c-0.2,0-0.4,0.1-0.4,0.3l-0.5,3.3C7.8,18.4,8,18.6,8.3,18.7
		C8.2,18.7,8.2,18.7,8.3,18.7z"/>
	<path d="M7.4,21.5l-0.2,1.3c0,0.2,0.1,0.4,0.3,0.4c0,0,0,0,0.1,0c0.2,0,0.3-0.1,0.4-0.3l0.2-1.3c0-0.2-0.1-0.4-0.3-0.4
		C7.6,21.2,7.4,21.3,7.4,21.5z"/>
	<path d="M6.3,10.3l-0.4,1.2c-0.1,0.2,0,0.4,0.2,0.5c0,0,0.1,0,0.1,0c0.2,0,0.3-0.1,0.4-0.3l0.4-1.2c0.1-0.2,0-0.4-0.2-0.5
		C6.6,10,6.4,10.1,6.3,10.3z"/>
	<path d="M5,14.5l-1,3c-0.1,0.2,0,0.4,0.2,0.5c0,0,0.1,0,0.1,0c0.2,0,0.3-0.1,0.4-0.3l1-3c0.1-0.2,0-0.4-0.2-0.5
		C5.2,14.2,5,14.3,5,14.5z"/>
	<path d="M2.9,22.2c0,0,0.1,0,0.1,0c0.2,0,0.3-0.1,0.4-0.3l0.4-1.2c0.1-0.2,0-0.4-0.2-0.5c-0.2-0.1-0.4,0-0.5,0.2l-0.4,1.2
		C2.6,22,2.7,22.2,2.9,22.2z"/>
</g>
</svg>
