<?xml version="1.0" encoding="utf-8"?>
<!-- Generator: Adobe Illustrator 16.0.0, SVG Export Plug-In . SVG Version: 6.00 Build 0)  -->
<!DOCTYPE svg PUBLIC "-//W3C//DTD SVG 1.1//EN" "http://www.w3.org/Graphics/SVG/1.1/DTD/svg11.dtd">
<svg version="1.1" id="Layer_1" xmlns="http://www.w3.org/2000/svg" xmlns:xlink="http://www.w3.org/1999/xlink" x="0px" y="0px"
	 width="25px" height="25px" viewBox="0 0 25 25" enable-background="new 0 0 25 25" xml:space="preserve">
<g>
	<path d="M12.2,19.4l-0.5-0.3l0.4-0.2c0.3-0.1,0.4-0.4,0.3-0.6S12,18,11.7,18.1l-1.2,0.5l-1.1-0.6v-1.6l1-0.6l1.2,0.4
		c0.1,0,0.1,0,0.2,0c0.2,0,0.4-0.1,0.5-0.3c0.1-0.3,0-0.5-0.3-0.6L11.6,15l0.5-0.3c0.2-0.1,0.3-0.4,0.2-0.7s-0.4-0.3-0.7-0.2
		l-0.5,0.3l0.1-0.4c0-0.3-0.1-0.5-0.4-0.6c-0.3,0-0.5,0.1-0.6,0.4l-0.2,1.3l-1,0.6l-1.4-0.8v-1.2l1-0.8c0.2-0.2,0.2-0.5,0.1-0.7
		c-0.2-0.2-0.5-0.2-0.7-0.1l-0.3,0.3v-0.6C7.5,11.3,7.3,11,7,11s-0.5,0.2-0.5,0.5v0.6l-0.3-0.3c-0.2-0.2-0.5-0.1-0.7,0.1
		c-0.2,0.2-0.1,0.5,0.1,0.7l1,0.8v1.2l-1.5,0.8l-1-0.6l-0.2-1.3c-0.1-0.3-0.3-0.4-0.6-0.4c-0.3,0.1-0.4,0.3-0.4,0.6l0.1,0.4L2.4,14
		c-0.2-0.1-0.5,0-0.7,0.2c-0.1,0.2,0,0.5,0.2,0.7l0.5,0.3L2,15.3c-0.3,0.1-0.4,0.4-0.3,0.6c0.1,0.2,0.3,0.3,0.5,0.3
		c0.1,0,0.1,0,0.2,0l1.2-0.5l1.1,0.6V18l-1,0.6l-1.2-0.4c-0.3-0.1-0.5,0-0.6,0.3c-0.1,0.3,0,0.5,0.3,0.6l0.4,0.1l-0.5,0.3
		c-0.2,0.1-0.3,0.4-0.2,0.7c0.1,0.2,0.3,0.2,0.4,0.2c0.1,0,0.2,0,0.3-0.1L3,20.1l-0.1,0.4c0,0.3,0.1,0.5,0.4,0.6c0,0,0.1,0,0.1,0
		c0.2,0,0.5-0.2,0.5-0.4l0.2-1.3l1-0.6l1.4,0.8v1.2l-1,0.8c-0.2,0.2-0.2,0.5-0.1,0.7c0.2,0.2,0.5,0.2,0.7,0.1l0.3-0.3v0.6
		c0,0.3,0.2,0.5,0.5,0.5s0.5-0.2,0.5-0.5v-0.6l0.3,0.3c0.1,0.1,0.2,0.1,0.3,0.1c0.1,0,0.3-0.1,0.4-0.2c0.2-0.2,0.1-0.5-0.1-0.7
		l-1-0.8v-1.2L9,18.8l1,0.6l0.2,1.3c0,0.2,0.3,0.4,0.5,0.4c0,0,0.1,0,0.1,0c0.3-0.1,0.4-0.3,0.4-0.6L11.2,20l0.5,0.3
		c0.1,0,0.2,0.1,0.2,0.1c0.2,0,0.3-0.1,0.4-0.3C12.5,19.9,12.4,19.6,12.2,19.4z M8.4,17.4L8,17.1l0.4-0.2V17.4z M7.2,17.2
		c0,0,0,0.1,0,0.1c0,0-0.1,0-0.1,0c0,0-0.1,0-0.1,0c0,0,0-0.1,0-0.1c0,0-0.1-0.1-0.1-0.1c0,0,0.1,0,0.1-0.1c0,0,0-0.1,0-0.1
		c0,0,0.1,0,0.1,0c0,0,0.1,0,0.1,0c0,0,0,0.1,0,0.1C7.2,17.1,7.2,17.1,7.2,17.2C7.2,17.2,7.2,17.2,7.2,17.2z M7.9,16l-0.4,0.2v-0.5
		L7.9,16z M6.5,15.8v0.5l-0.4-0.2L6.5,15.8z M5.6,16.9L6,17.2l-0.4,0.2V16.9z M6.1,18.3L6.5,18v0.5L6.1,18.3z M7.5,18.5V18L8,18.2
		L7.5,18.5z"/>
	<path d="M21.7,15.9v-14c0-0.8-0.8-1.5-1.7-1.5h-3c-1,0-1.7,0.7-1.7,1.5v14c-1.1,1-1.7,2.3-1.7,3.8c0,2.8,2.2,5,5,5c2.8,0,5-2.2,5-5
		C23.4,18.2,22.8,16.8,21.7,15.9z M18.4,23.7c-2.2,0-4-1.8-4-4c0-1.2,0.6-2.4,1.5-3.1c0.1-0.1,0.2-0.2,0.2-0.4V1.9
		c0-0.3,0.3-0.5,0.7-0.5h3c0.4,0,0.7,0.2,0.7,0.5v14.3c0,0.2,0.1,0.3,0.2,0.4c1,0.8,1.5,1.9,1.5,3.1C22.4,21.9,20.6,23.7,18.4,23.7z
		"/>
	<path d="M18.9,17.8v-7.4c0-0.3-0.2-0.5-0.5-0.5s-0.5,0.2-0.5,0.5v7.4c-1,0.2-1.7,1.1-1.7,2.1c0,1.2,1,2.2,2.2,2.2
		c1.2,0,2.2-1,2.2-2.2C20.6,18.8,19.9,18,18.9,17.8z M18.4,21c-0.6,0-1.2-0.5-1.2-1.2c0-0.6,0.5-1.2,1.2-1.2c0.6,0,1.2,0.5,1.2,1.2
		C19.6,20.5,19,21,18.4,21z"/>
	<path d="M18,9.2H20c0.3,0,0.5-0.2,0.5-0.5S20.3,8.2,20,8.2H18c-0.3,0-0.5,0.2-0.5,0.5S17.8,9.2,18,9.2z"/>
	<path d="M18,7.5h0.9c0.3,0,0.5-0.2,0.5-0.5s-0.2-0.5-0.5-0.5H18c-0.3,0-0.5,0.2-0.5,0.5S17.8,7.5,18,7.5z"/>
	<path d="M18,5.9H20c0.3,0,0.5-0.2,0.5-0.5S20.3,4.9,20,4.9H18c-0.3,0-0.5,0.2-0.5,0.5S17.8,5.9,18,5.9z"/>
	<path d="M18,4.2h0.9c0.3,0,0.5-0.2,0.5-0.5s-0.2-0.5-0.5-0.5H18c-0.3,0-0.5,0.2-0.5,0.5S17.8,4.2,18,4.2z"/>
	<path d="M10.4,2.3C10.2,2,9.8,2,9.6,2.3L7,5.6C6.8,5.8,6.9,6.1,7.1,6.3c0.1,0.1,0.2,0.1,0.3,0.1c0.1,0,0.3-0.1,0.4-0.2L10,3.4
		l2.2,2.8c0.2,0.2,0.5,0.3,0.7,0.1c0.2-0.2,0.3-0.5,0.1-0.7L10.4,2.3z"/>
	<path d="M10.4,5.9c-0.2-0.2-0.6-0.2-0.8,0L7,9.2C6.8,9.5,6.9,9.8,7.1,9.9C7.2,10,7.3,10,7.4,10c0.1,0,0.3-0.1,0.4-0.2L10,7l2.2,2.8
		c0.2,0.2,0.5,0.3,0.7,0.1c0.2-0.2,0.3-0.5,0.1-0.7L10.4,5.9z"/>
</g>
</svg>
