<?xml version="1.0" encoding="utf-8"?>
<!-- Generator: Adobe Illustrator 16.0.0, SVG Export Plug-In . SVG Version: 6.00 Build 0)  -->
<!DOCTYPE svg PUBLIC "-//W3C//DTD SVG 1.1//EN" "http://www.w3.org/Graphics/SVG/1.1/DTD/svg11.dtd">
<svg version="1.1" id="Layer_1" xmlns="http://www.w3.org/2000/svg" xmlns:xlink="http://www.w3.org/1999/xlink" x="0px" y="0px"
	 width="33px" height="33px" viewBox="0 0 33 33" enable-background="new 0 0 33 33" xml:space="preserve">
<g>
	<g>
		<rect x="9.2" y="1.9" fill="#FFFFFF" width="14.8" height="30.3"/>
		<path fill="#37474F" d="M24,32.7H9.2c-0.3,0-0.5-0.2-0.5-0.5V1.9c0-0.3,0.2-0.5,0.5-0.5H24c0.3,0,0.5,0.2,0.5,0.5v30.3
			C24.5,32.5,24.2,32.7,24,32.7z M9.7,31.7h13.8V2.4H9.7V31.7z"/>
	</g>
	<g>
		<rect x="12.1" y="4.9" fill="#FFECB3" width="8.9" height="15.7"/>
		<path fill="#37474F" d="M21,21.1h-8.9c-0.3,0-0.5-0.2-0.5-0.5V4.9c0-0.3,0.2-0.5,0.5-0.5H21c0.3,0,0.5,0.2,0.5,0.5v15.7
			C21.5,20.9,21.3,21.1,21,21.1z M12.6,20.1h7.9V5.4h-7.9V20.1z"/>
	</g>
	<g>
		<line fill="#FFFFFF" x1="5.1" y1="32.2" x2="28.1" y2="32.2"/>
		<path fill="#37474F" d="M28.1,32.7h-23c-0.3,0-0.5-0.2-0.5-0.5s0.2-0.5,0.5-0.5h23c0.3,0,0.5,0.2,0.5,0.5S28.3,32.7,28.1,32.7z"/>
	</g>
	<g>
		<line fill="#FFECB3" x1="16.6" y1="5" x2="16.6" y2="20.5"/>
		<path fill="#37474F" d="M16.6,21c-0.3,0-0.5-0.2-0.5-0.5V5c0-0.3,0.2-0.5,0.5-0.5s0.5,0.2,0.5,0.5v15.5C17.1,20.8,16.8,21,16.6,21
			z"/>
	</g>
	<g>
		<line fill="#FFECB3" x1="11.8" y1="12.8" x2="21.3" y2="12.8"/>
		<path fill="#37474F" d="M21.3,13.3h-9.6c-0.3,0-0.5-0.2-0.5-0.5s0.2-0.5,0.5-0.5h9.6c0.3,0,0.5,0.2,0.5,0.5S21.6,13.3,21.3,13.3z"
			/>
	</g>
	<g>
		<path fill="#FFECB3" d="M21,24.9c0,0.9-0.7,1.6-1.6,1.6c-0.9,0-1.6-0.7-1.6-1.6c0-0.9,0.7-1.6,1.6-1.6"/>
		<path fill="#37474F" d="M19.4,27c-1.2,0-2.1-0.9-2.1-2.1c0-1.2,0.9-2.1,2.1-2.1c0.3,0,0.5,0.2,0.5,0.5s-0.2,0.5-0.5,0.5
			c-0.6,0-1.1,0.5-1.1,1.1c0,0.6,0.5,1.1,1.1,1.1c0.6,0,1.1-0.5,1.1-1.1c0-0.3,0.2-0.5,0.5-0.5s0.5,0.2,0.5,0.5
			C21.5,26.1,20.6,27,19.4,27z"/>
	</g>
</g>
</svg>
