<?xml version="1.0" encoding="utf-8"?>
<!-- Generator: Adobe Illustrator 16.0.0, SVG Export Plug-In . SVG Version: 6.00 Build 0)  -->
<!DOCTYPE svg PUBLIC "-//W3C//DTD SVG 1.1//EN" "http://www.w3.org/Graphics/SVG/1.1/DTD/svg11.dtd">
<svg version="1.1" id="Layer_1" xmlns="http://www.w3.org/2000/svg" xmlns:xlink="http://www.w3.org/1999/xlink" x="0px" y="0px"
	 width="33px" height="33px" viewBox="0 0 33 33" enable-background="new 0 0 33 33" xml:space="preserve">
<g>
	<g>
		<rect x="1" y="4" fill="#FFFFFF" width="18" height="18"/>
		<path fill="#37474F" d="M19,22.5H1c-0.3,0-0.5-0.2-0.5-0.5V4c0-0.3,0.2-0.5,0.5-0.5h18c0.3,0,0.5,0.2,0.5,0.5v18
			C19.5,22.3,19.3,22.5,19,22.5z M1.5,21.5h17v-17h-17V21.5z"/>
	</g>
	<g>
		<circle fill="#FFECB3" cx="10.2" cy="13" r="5.7"/>
		<path fill="#37474F" d="M10.2,19.2C6.8,19.2,4,16.4,4,13s2.8-6.2,6.2-6.2s6.2,2.8,6.2,6.2S13.6,19.2,10.2,19.2z M10.2,7.8
			C7.3,7.8,5,10.2,5,13c0,2.9,2.3,5.2,5.2,5.2s5.2-2.3,5.2-5.2C15.3,10.2,13,7.8,10.2,7.8z"/>
	</g>
	<g>
		<g>
			<line fill="#FFFFFF" x1="8" y1="12.5" x2="8" y2="13.5"/>
			<path fill="#37474F" d="M8,14c-0.3,0-0.5-0.2-0.5-0.5v-1C7.5,12.2,7.7,12,8,12s0.5,0.2,0.5,0.5v1C8.5,13.8,8.3,14,8,14z"/>
		</g>
		<g>
			<line fill="#FFFFFF" x1="12" y1="12.5" x2="12" y2="13.5"/>
			<path fill="#37474F" d="M12,14c-0.3,0-0.5-0.2-0.5-0.5v-1c0-0.3,0.2-0.5,0.5-0.5s0.5,0.2,0.5,0.5v1C12.5,13.8,12.3,14,12,14z"/>
		</g>
	</g>
	<g>
		<g>
			<g>
				<g>
					<line fill="#FFFFFF" x1="25" y1="5.5" x2="25" y2="11.5"/>
					<path fill="#37474F" d="M25,12c-0.3,0-0.5-0.2-0.5-0.5v-6C24.5,5.2,24.7,5,25,5s0.5,0.2,0.5,0.5v6C25.5,11.8,25.3,12,25,12z"/>
				</g>
				<g>
					<line fill="#FFFFFF" x1="29" y1="5.5" x2="29" y2="11.5"/>
					<path fill="#37474F" d="M29,12c-0.3,0-0.5-0.2-0.5-0.5v-6C28.5,5.2,28.7,5,29,5s0.5,0.2,0.5,0.5v6C29.5,11.8,29.3,12,29,12z"/>
				</g>
			</g>
			<g>
				<path fill="#FFECB3" d="M21.5,11c0,3,2.4,5.3,5.3,5.3c2.9,0,5.3-2.3,5.3-5.3H21.5z"/>
				<path fill="#37474F" d="M26.7,16.8c-3.2,0-5.8-2.5-5.8-5.8c0-0.3,0.2-0.5,0.5-0.5H32c0.3,0,0.5,0.2,0.5,0.5
					C32.5,14.2,30,16.8,26.7,16.8z M22,11.5c0.2,2.4,2.2,4.3,4.7,4.3c2.5,0,4.5-1.8,4.7-4.3H22z"/>
			</g>
		</g>
		<g>
			<path fill="#37474F" d="M20.2,29.5H2.5C2.2,29.5,2,29.3,2,29s0.2-0.5,0.5-0.5h17.7c3,0,6.3-2.3,6.3-5.6v-3.4
				c0-0.3,0.2-0.5,0.5-0.5s0.5,0.2,0.5,0.5v3.4C27.5,26.5,24.2,29.5,20.2,29.5z"/>
		</g>
		<g>
			<path fill="#FFAB00" d="M30.5,17.3L30.5,17.3c0,1-0.8,1.7-1.8,1.7h-4c-1,0-1.8-0.7-1.8-1.7l0,0"/>
			<path fill="#37474F" d="M28.7,19.5h-4c-1.3,0-2.3-1-2.3-2.2c0-0.3,0.2-0.5,0.5-0.5s0.5,0.2,0.5,0.5c0,0.7,0.6,1.2,1.3,1.2h4
				c0.7,0,1.3-0.5,1.3-1.2c0-0.3,0.2-0.5,0.5-0.5s0.5,0.2,0.5,0.5C31,18.6,30,19.5,28.7,19.5z"/>
		</g>
	</g>
</g>
</svg>
