<?xml version="1.0" encoding="utf-8"?>
<!-- Generator: Adobe Illustrator 16.0.0, SVG Export Plug-In . SVG Version: 6.00 Build 0)  -->
<!DOCTYPE svg PUBLIC "-//W3C//DTD SVG 1.1//EN" "http://www.w3.org/Graphics/SVG/1.1/DTD/svg11.dtd">
<svg version="1.1" id="Layer_1" xmlns="http://www.w3.org/2000/svg" xmlns:xlink="http://www.w3.org/1999/xlink" x="0px" y="0px"
	 width="32px" height="32px" viewBox="0 0 32 32" enable-background="new 0 0 32 32" xml:space="preserve">
<g>
	<g>
		<g>
			<line fill="#FFFFFF" x1="4.5" y1="31" x2="4.5" y2="1"/>
			<path fill="#37474F" d="M4.5,31.5C4.2,31.5,4,31.3,4,31V1c0-0.3,0.2-0.5,0.5-0.5S5,0.7,5,1v30C5,31.3,4.8,31.5,4.5,31.5z"/>
		</g>
		<g>
			<line fill="#FFFFFF" x1="31" y1="2.5" x2="1" y2="2.5"/>
			<path fill="#37474F" d="M31,3H1C0.7,3,0.5,2.8,0.5,2.5S0.7,2,1,2h30c0.3,0,0.5,0.2,0.5,0.5S31.3,3,31,3z"/>
		</g>
		<g>
			<polyline fill="#FFECB3" points="28,8.5 30.5,8.5 30.5,27.5 7.5,27.5 7.5,8.5 11,8.5 			"/>
			<path fill="#37474F" d="M30.5,28h-23C7.2,28,7,27.8,7,27.5v-19C7,8.2,7.2,8,7.5,8H11c0.3,0,0.5,0.2,0.5,0.5S11.3,9,11,9H8v18h22
				V9h-2c-0.3,0-0.5-0.2-0.5-0.5S27.7,8,28,8h2.5C30.8,8,31,8.2,31,8.5v19C31,27.8,30.8,28,30.5,28z"/>
		</g>
		<g>
			<line fill="#FFECB3" x1="16" y1="8.5" x2="23" y2="8.5"/>
			<path fill="#37474F" d="M23,9h-7c-0.3,0-0.5-0.2-0.5-0.5S15.7,8,16,8h7c0.3,0,0.5,0.2,0.5,0.5S23.3,9,23,9z"/>
		</g>
		<g>
			<g>
				<circle fill="#FFECB3" cx="13.3" cy="9" r="1.4"/>
				<path fill="#37474F" d="M13.3,10.9c-1.1,0-1.9-0.9-1.9-1.9c0-1.1,0.9-1.9,1.9-1.9c1.1,0,1.9,0.9,1.9,1.9
					C15.2,10.1,14.3,10.9,13.3,10.9z M13.3,8c-0.5,0-0.9,0.4-0.9,0.9c0,0.5,0.4,0.9,0.9,0.9c0.5,0,0.9-0.4,0.9-0.9
					C14.2,8.5,13.8,8,13.3,8z"/>
			</g>
			<g>
				<circle fill="#FFECB3" cx="25.4" cy="9" r="1.4"/>
				<path fill="#37474F" d="M25.4,10.9c-1.1,0-1.9-0.9-1.9-1.9c0-1.1,0.9-1.9,1.9-1.9c1.1,0,1.9,0.9,1.9,1.9
					C27.4,10.1,26.5,10.9,25.4,10.9z M25.4,8c-0.5,0-0.9,0.4-0.9,0.9c0,0.5,0.4,0.9,0.9,0.9s0.9-0.4,0.9-0.9C26.4,8.5,25.9,8,25.4,8
					z"/>
			</g>
		</g>
		<g>
			<line fill="#FFECB3" x1="13.3" y1="5.2" x2="13.3" y2="7.5"/>
			<path fill="#37474F" d="M13.3,8L13.3,8c-0.3,0-0.5-0.2-0.5-0.5l0-2.4c0-0.3,0.2-0.5,0.5-0.5l0,0c0.3,0,0.5,0.2,0.5,0.5l0,2.4
				C13.8,7.8,13.5,8,13.3,8z"/>
		</g>
		<g>
			<line fill="#FFECB3" x1="25.5" y1="5" x2="25.5" y2="7"/>
			<path fill="#37474F" d="M25.5,7.5C25.2,7.5,25,7.3,25,7V5c0-0.3,0.2-0.5,0.5-0.5S26,4.7,26,5v2C26,7.3,25.8,7.5,25.5,7.5z"/>
		</g>
	</g>
	<g>
		<g>
			<path d="M11.3,12.2h2.5v0.5h-1.9v1.6h1.8v0.5h-1.8v2.1h-0.6V12.2z"/>
			<polygon fill="#37474F" points="12.4,17.4 10.8,17.4 10.8,11.7 14.3,11.7 14.3,13.2 12.4,13.2 12.4,13.8 14.2,13.8 14.2,15.3 
				12.4,15.3 			"/>
		</g>
		<g>
			<path d="M19.7,14.5c0,1.6-1,2.5-2.2,2.5c-1.2,0-2.1-1-2.1-2.4c0-1.5,0.9-2.5,2.2-2.5C18.9,12.1,19.7,13.1,19.7,14.5z M16.1,14.6
				c0,1,0.5,1.9,1.5,1.9c1,0,1.5-0.9,1.5-2c0-0.9-0.5-1.9-1.5-1.9C16.6,12.6,16.1,13.6,16.1,14.6z"/>
			<path fill="#37474F" d="M17.5,17.5c-1.5,0-2.6-1.2-2.6-2.9c0-1.7,1.1-3,2.7-3c1.5,0,2.6,1.2,2.6,2.9
				C20.2,16.6,18.9,17.5,17.5,17.5z M17.6,13.1c-0.7,0-1,0.8-1,1.5c0,0.7,0.3,1.4,1,1.4c0.7,0,1-0.7,1-1.5
				C18.6,14.1,18.4,13.1,17.6,13.1z"/>
		</g>
		<g>
			<path d="M21.5,12.3c0.3-0.1,0.8-0.1,1.2-0.1c0.7,0,1.1,0.1,1.4,0.4c0.2,0.2,0.4,0.5,0.4,0.9c0,0.6-0.4,1-0.9,1.2v0
				c0.4,0.1,0.6,0.5,0.7,1c0.2,0.7,0.3,1.1,0.4,1.3H24c-0.1-0.1-0.2-0.5-0.3-1.1c-0.1-0.7-0.4-0.9-0.9-0.9h-0.6v2h-0.6V12.3z
				 M22.1,14.4h0.6c0.7,0,1.1-0.4,1.1-0.9c0-0.6-0.4-0.9-1.1-0.9c-0.3,0-0.5,0-0.6,0.1V14.4z"/>
			<path fill="#37474F" d="M25.4,17.4h-1.8l-0.1-0.2c-0.1-0.2-0.2-0.5-0.4-1.3c-0.1-0.5-0.2-0.5-0.5-0.5h-0.1v2H21v-5.6l0.4-0.1
				c0.3-0.1,0.8-0.1,1.3-0.1c0.8,0,1.3,0.2,1.7,0.5c0.3,0.3,0.5,0.8,0.5,1.3c0,0.5-0.2,1-0.5,1.3c0.1,0.2,0.3,0.5,0.3,0.8
				c0.1,0.4,0.2,1,0.3,1.2L25.4,17.4z M22.6,13.9h0.1c0.2,0,0.6-0.1,0.6-0.4c0-0.1,0-0.4-0.6-0.4c0,0-0.1,0-0.1,0V13.9z"/>
		</g>
		<g>
			<path d="M11.3,19.3c0.3-0.1,0.8-0.1,1.2-0.1c0.7,0,1.1,0.1,1.4,0.4c0.2,0.2,0.4,0.5,0.4,0.9c0,0.6-0.4,1-0.9,1.2v0
				c0.4,0.1,0.6,0.5,0.7,1c0.2,0.7,0.3,1.1,0.4,1.3h-0.6c-0.1-0.1-0.2-0.5-0.3-1.1c-0.1-0.7-0.4-0.9-0.9-0.9h-0.6v2h-0.6V19.3z
				 M11.9,21.4h0.6c0.7,0,1.1-0.4,1.1-0.9c0-0.6-0.4-0.9-1.1-0.9c-0.3,0-0.5,0-0.6,0.1V21.4z"/>
			<path fill="#37474F" d="M15.2,24.4h-1.8l-0.1-0.3c-0.1-0.2-0.2-0.4-0.4-1.3c-0.1-0.5-0.2-0.5-0.5-0.5h-0.1v2h-1.6v-5.6l0.4-0.1
				c0.3-0.1,0.8-0.1,1.3-0.1c0.8,0,1.3,0.2,1.7,0.5c0.3,0.3,0.5,0.8,0.5,1.3c0,0.5-0.2,1-0.5,1.3c0.1,0.2,0.3,0.5,0.3,0.8
				c0.1,0.4,0.2,1,0.3,1.2L15.2,24.4z M12.4,20.9h0.1c0.2,0,0.6-0.1,0.6-0.4c0-0.1,0-0.4-0.6-0.4c0,0-0.1,0-0.1,0V20.9z"/>
		</g>
		<g>
			<path d="M18.5,21.7h-1.8v1.7h2v0.5H16v-4.7h2.5v0.5h-1.9v1.5h1.8V21.7z"/>
			<polygon fill="#37474F" points="19.2,24.4 15.5,24.4 15.5,18.7 19.1,18.7 19.1,20.2 17.2,20.2 17.2,20.7 19,20.7 19,22.2 
				17.2,22.2 17.2,22.9 19.2,22.9 			"/>
		</g>
		<g>
			<path d="M20.5,23.9v-4.7h0.7l1.5,2.4c0.4,0.6,0.6,1.1,0.8,1.5l0,0c-0.1-0.6-0.1-1.2-0.1-1.9v-2H24v4.7h-0.6l-1.5-2.4
				C21.6,21,21.3,20.5,21,20l0,0c0,0.6,0,1.2,0,1.9v2H20.5z"/>
			<polygon fill="#37474F" points="24.5,24.4 23.1,24.4 21.6,21.9 21.6,21.9 21.6,24.4 20,24.4 20,18.7 21.4,18.7 23,21.1 23,18.7 
				24.5,18.7 			"/>
		</g>
		<g>
			<path d="M27,19.7h-1.4v-0.5h3.5v0.5h-1.4v4.2H27V19.7z"/>
			<polygon fill="#37474F" points="28.1,24.4 26.5,24.4 26.5,20.2 25.1,20.2 25.1,18.7 29.6,18.7 29.6,20.2 28.1,20.2 			"/>
		</g>
	</g>
</g>
</svg>
