<?xml version="1.0" encoding="utf-8"?>
<!-- Generator: Adobe Illustrator 16.0.0, SVG Export Plug-In . SVG Version: 6.00 Build 0)  -->
<!DOCTYPE svg PUBLIC "-//W3C//DTD SVG 1.1//EN" "http://www.w3.org/Graphics/SVG/1.1/DTD/svg11.dtd">
<svg version="1.1" id="Layer_1" xmlns="http://www.w3.org/2000/svg" xmlns:xlink="http://www.w3.org/1999/xlink" x="0px" y="0px"
	 width="32px" height="32px" viewBox="0 0 32 32" enable-background="new 0 0 32 32" xml:space="preserve">
<g>
	<g>
		<polygon fill="#FFECB3" points="23.6,5.2 4.4,30.4 10.1,30.4 29.3,5.2 		"/>
		<path fill="#37474F" d="M10.1,30.9H4.4c-0.2,0-0.4-0.1-0.4-0.3c-0.1-0.2-0.1-0.4,0.1-0.5L23.2,4.9c0.1-0.1,0.2-0.2,0.4-0.2h5.7
			c0.2,0,0.4,0.1,0.4,0.3c0.1,0.2,0.1,0.4-0.1,0.5L10.5,30.7C10.4,30.8,10.3,30.9,10.1,30.9z M5.4,29.9h4.4L28.3,5.7h-4.4L5.4,29.9z
			"/>
	</g>
	<g>
		<g>
			<polyline fill="#FFAB00" points="0.8,8.9 9.3,1.6 17.8,8.9 			"/>
			<path fill="#37474F" d="M17.8,9.4c-0.1,0-0.2,0-0.3-0.1l-8.2-7l-8.2,7C0.9,9.4,0.5,9.4,0.4,9.2C0.2,9,0.2,8.6,0.4,8.5l8.5-7.3
				c0.2-0.2,0.5-0.2,0.6,0l8.5,7.3c0.2,0.2,0.2,0.5,0.1,0.7C18.1,9.3,17.9,9.4,17.8,9.4z"/>
		</g>
		<g>
			<polyline fill="#FFECB3" points="9.3,18.1 3.1,18.1 3.1,8.9 			"/>
			<path fill="#37474F" d="M9.3,18.6H3.1c-0.3,0-0.5-0.2-0.5-0.5V8.9c0-0.3,0.2-0.5,0.5-0.5s0.5,0.2,0.5,0.5v8.7h5.8
				c0.3,0,0.5,0.2,0.5,0.5S9.6,18.6,9.3,18.6z"/>
		</g>
		<g>
			<line fill="#FFECB3" x1="15.5" y1="8.9" x2="15.5" y2="11.6"/>
			<path fill="#37474F" d="M15.5,12.1c-0.3,0-0.5-0.2-0.5-0.5V8.9c0-0.3,0.2-0.5,0.5-0.5S16,8.6,16,8.9v2.7
				C16,11.9,15.7,12.1,15.5,12.1z"/>
		</g>
		<g>
			<rect x="5.1" y="11.7" fill="#FFECB3" width="3.8" height="6.4"/>
			<path fill="#37474F" d="M8.9,18.6H5.1c-0.3,0-0.5-0.2-0.5-0.5v-6.4c0-0.3,0.2-0.5,0.5-0.5h3.8c0.3,0,0.5,0.2,0.5,0.5v6.4
				C9.4,18.4,9.2,18.6,8.9,18.6z M5.6,17.6h2.8v-5.4H5.6V17.6z"/>
		</g>
		<g>
			<line fill="#FFECB3" x1="12.2" y1="11.7" x2="12.2" y2="14.6"/>
			<path fill="#37474F" d="M12.2,15.1c-0.3,0-0.5-0.2-0.5-0.5v-2.9c0-0.3,0.2-0.5,0.5-0.5s0.5,0.2,0.5,0.5v2.9
				C12.7,14.8,12.5,15.1,12.2,15.1z"/>
		</g>
		<g>
			<line fill="#FFECB3" x1="13.6" y1="13.3" x2="10.8" y2="13.3"/>
			<path fill="#37474F" d="M13.6,13.8h-2.9c-0.3,0-0.5-0.2-0.5-0.5s0.2-0.5,0.5-0.5h2.9c0.3,0,0.5,0.2,0.5,0.5S13.9,13.8,13.6,13.8z
				"/>
		</g>
		<g>
			<polyline fill="#FFECB3" points="3.1,6.6 3.1,2.4 5,2.4 			"/>
			<path fill="#37474F" d="M3.1,7.1c-0.3,0-0.5-0.2-0.5-0.5V2.4c0-0.3,0.2-0.5,0.5-0.5H5c0.3,0,0.5,0.2,0.5,0.5S5.3,2.9,5,2.9H3.6
				v3.7C3.6,6.9,3.3,7.1,3.1,7.1z"/>
		</g>
	</g>
	<g>
		<path fill="#FFECB3" d="M31.2,27.1c0,1.8-1.5,3.3-3.3,3.3h-2c-1.8,0-3.3-1.5-3.3-3.3v-7.6c0-1.8,1.5-3.3,3.3-3.3h2
			c1.8,0,3.3,1.5,3.3,3.3V27.1z"/>
		<path fill="#37474F" d="M27.9,30.9h-2c-2.1,0-3.8-1.7-3.8-3.8v-7.6c0-2.1,1.7-3.8,3.8-3.8h2c2.1,0,3.8,1.7,3.8,3.8v7.6
			C31.8,29.2,30,30.9,27.9,30.9z M25.9,16.6c-1.6,0-2.8,1.3-2.8,2.8v7.6c0,1.6,1.3,2.8,2.8,2.8h2c1.6,0,2.8-1.3,2.8-2.8v-7.6
			c0-1.6-1.3-2.8-2.8-2.8H25.9z"/>
	</g>
	<g>
		<path fill="#FFFFFF" d="M28.8,25.7c0,1.2-0.7,2.1-1.5,2.1h-0.9c-0.8,0-1.5-0.9-1.5-2.1v-4.8c0-1.2,0.7-2.1,1.5-2.1h0.9
			c0.8,0,1.5,0.9,1.5,2.1V25.7z"/>
		<path fill="#37474F" d="M27.4,28.3h-0.9c-1.1,0-2-1.1-2-2.6v-4.8c0-1.5,0.9-2.6,2-2.6h0.9c1.1,0,2,1.1,2,2.6v4.8
			C29.3,27.1,28.5,28.3,27.4,28.3z M26.5,19.3c-0.5,0-1,0.7-1,1.6v4.8c0,0.9,0.5,1.6,1,1.6h0.9c0.5,0,1-0.7,1-1.6v-4.8
			c0-0.9-0.5-1.6-1-1.6H26.5z"/>
	</g>
</g>
</svg>
