<?xml version="1.0" encoding="utf-8"?>
<!-- Generator: Adobe Illustrator 16.0.0, SVG Export Plug-In . SVG Version: 6.00 Build 0)  -->
<!DOCTYPE svg PUBLIC "-//W3C//DTD SVG 1.1//EN" "http://www.w3.org/Graphics/SVG/1.1/DTD/svg11.dtd">
<svg version="1.1" id="Layer_1" xmlns="http://www.w3.org/2000/svg" xmlns:xlink="http://www.w3.org/1999/xlink" x="0px" y="0px"
	 width="32px" height="32px" viewBox="0 0 32 32" enable-background="new 0 0 32 32" xml:space="preserve">
<g>
	<g>
		<g>
			<g>
				<path fill="#FFAB00" d="M5.7,11.5v-0.9c0-1.9,1.5-3.4,3.4-3.4h13.7c1.9,0,3.4,1.5,3.4,3.4v0.9H5.7z"/>
				<path fill="#37474F" d="M26.3,12H5.7c-0.3,0-0.5-0.2-0.5-0.5v-0.9c0-2.2,1.8-3.9,3.9-3.9h13.7c2.2,0,3.9,1.8,3.9,3.9v0.9
					C26.8,11.7,26.6,12,26.3,12z M6.2,11h19.6v-0.4c0-1.6-1.3-2.9-2.9-2.9H9.1c-1.6,0-2.9,1.3-2.9,2.9V11z"/>
			</g>
			<g>
				<line fill="#FFAB00" x1="11.7" y1="5" x2="20.3" y2="5"/>
				<path fill="#37474F" d="M20.3,5.5h-8.6c-0.3,0-0.5-0.2-0.5-0.5s0.2-0.5,0.5-0.5h8.6c0.3,0,0.5,0.2,0.5,0.5S20.6,5.5,20.3,5.5z"
					/>
			</g>
		</g>
		<g>
			<line fill="#FFAB00" x1="16" y1="0.8" x2="16" y2="4.4"/>
			<path fill="#37474F" d="M16,4.9c-0.3,0-0.5-0.2-0.5-0.5V0.8c0-0.3,0.2-0.5,0.5-0.5s0.5,0.2,0.5,0.5v3.6C16.5,4.7,16.3,4.9,16,4.9
				z"/>
		</g>
	</g>
	<g>
		<g>
			<g>
				<line fill="#FFAB00" x1="15.9" y1="13.8" x2="15.9" y2="31.2"/>
			</g>
			<g>
				<g>
					<path fill="#37474F" d="M15.9,16.1c-0.3,0-0.5-0.2-0.5-0.5v-1.8c0-0.3,0.2-0.5,0.5-0.5s0.5,0.2,0.5,0.5v1.8
						C16.4,15.9,16.2,16.1,15.9,16.1z"/>
				</g>
				<g>
					<path fill="#37474F" d="M15.9,27.2c-0.3,0-0.5-0.2-0.5-0.5v-2.8c0-0.3,0.2-0.5,0.5-0.5s0.5,0.2,0.5,0.5v2.8
						C16.4,27,16.2,27.2,15.9,27.2z M15.9,21.6c-0.3,0-0.5-0.2-0.5-0.5v-2.8c0-0.3,0.2-0.5,0.5-0.5s0.5,0.2,0.5,0.5v2.8
						C16.4,21.4,16.2,21.6,15.9,21.6z"/>
				</g>
				<g>
					<path fill="#37474F" d="M15.9,31.7c-0.3,0-0.5-0.2-0.5-0.5v-1.8c0-0.3,0.2-0.5,0.5-0.5s0.5,0.2,0.5,0.5v1.8
						C16.4,31.5,16.2,31.7,15.9,31.7z"/>
				</g>
			</g>
		</g>
		<g>
			<g>
				<g>
					<g>
						<line fill="#FFAB00" x1="19.3" y1="13.8" x2="22" y2="30.5"/>
					</g>
					<g>
						<g>
							<path fill="#37474F" d="M19.6,16.1c-0.2,0-0.5-0.2-0.5-0.4l-0.3-1.7c0-0.3,0.1-0.5,0.4-0.6c0.3,0,0.5,0.1,0.6,0.4l0.3,1.7
								C20.1,15.8,20,16,19.6,16.1C19.7,16.1,19.6,16.1,19.6,16.1z"/>
						</g>
						<g>
							<path fill="#37474F" d="M21,24.9c-0.2,0-0.5-0.2-0.5-0.4L19.8,20c0-0.3,0.1-0.5,0.4-0.6c0.3,0,0.5,0.1,0.6,0.4l0.7,4.4
								C21.5,24.6,21.3,24.8,21,24.9C21,24.9,21,24.9,21,24.9z"/>
						</g>
						<g>
							<path fill="#37474F" d="M22,31c-0.2,0-0.5-0.2-0.5-0.4l-0.3-1.7c0-0.3,0.1-0.5,0.4-0.6c0.3,0,0.5,0.1,0.6,0.4l0.3,1.7
								C22.5,30.7,22.3,31,22,31C22,31,22,31,22,31z"/>
						</g>
					</g>
				</g>
				<g>
					<g>
						<line fill="#FFAB00" x1="23.1" y1="13.8" x2="28" y2="29.2"/>
					</g>
					<g>
						<g>
							<path fill="#37474F" d="M23.6,16c-0.2,0-0.4-0.1-0.5-0.3L22.6,14c-0.1-0.3,0.1-0.5,0.3-0.6c0.3-0.1,0.5,0.1,0.6,0.3l0.5,1.7
								c0.1,0.3-0.1,0.5-0.3,0.6C23.7,16,23.7,16,23.6,16z"/>
						</g>
						<g>
							<path fill="#37474F" d="M26.2,24c-0.2,0-0.4-0.1-0.5-0.3l-1.3-4c-0.1-0.3,0.1-0.5,0.3-0.6c0.3-0.1,0.5,0.1,0.6,0.3l1.3,4
								c0.1,0.3-0.1,0.5-0.3,0.6C26.3,24,26.2,24,26.2,24z"/>
						</g>
						<g>
							<path fill="#37474F" d="M28,29.7c-0.2,0-0.4-0.1-0.5-0.3L27,27.7c-0.1-0.3,0.1-0.5,0.3-0.6c0.3-0.1,0.5,0.1,0.6,0.3l0.5,1.7
								c0.1,0.3-0.1,0.5-0.3,0.6C28.1,29.7,28.1,29.7,28,29.7z"/>
						</g>
					</g>
				</g>
			</g>
			<g>
				<g>
					<g>
						<line fill="#FFAB00" x1="12.7" y1="13.8" x2="10" y2="30.5"/>
					</g>
					<g>
						<g>
							<path fill="#37474F" d="M12.4,16.1C12.4,16.1,12.3,16.1,12.4,16.1c-0.4,0-0.5-0.3-0.5-0.6l0.3-1.7c0-0.3,0.3-0.5,0.6-0.4
								c0.3,0,0.5,0.3,0.4,0.6l-0.3,1.7C12.9,15.9,12.6,16.1,12.4,16.1z"/>
						</g>
						<g>
							<path fill="#37474F" d="M11,24.9C11,24.9,11,24.9,11,24.9c-0.4,0-0.5-0.3-0.5-0.6l0.7-4.4c0-0.3,0.3-0.5,0.6-0.4
								c0.3,0,0.5,0.3,0.4,0.6l-0.7,4.4C11.5,24.7,11.2,24.9,11,24.9z"/>
						</g>
						<g>
							<path fill="#37474F" d="M10,31C10,31,10,31,10,31c-0.4,0-0.5-0.3-0.5-0.6l0.3-1.7c0-0.3,0.3-0.5,0.6-0.4
								c0.3,0,0.5,0.3,0.4,0.6l-0.3,1.7C10.5,30.8,10.3,31,10,31z"/>
						</g>
					</g>
				</g>
				<g>
					<g>
						<line fill="#FFAB00" x1="8.9" y1="13.8" x2="4" y2="29.2"/>
					</g>
					<g>
						<g>
							<path fill="#37474F" d="M8.4,16c-0.1,0-0.1,0-0.2,0c-0.3-0.1-0.4-0.4-0.3-0.6l0.5-1.7c0.1-0.3,0.4-0.4,0.6-0.3
								c0.3,0.1,0.4,0.4,0.3,0.6l-0.5,1.7C8.8,15.9,8.6,16,8.4,16z"/>
						</g>
						<g>
							<path fill="#37474F" d="M5.8,24c-0.1,0-0.1,0-0.2,0c-0.3-0.1-0.4-0.4-0.3-0.6l1.3-4C6.7,19.1,7,18.9,7.3,19
								c0.3,0.1,0.4,0.4,0.3,0.6l-1.3,4C6.2,23.9,6,24,5.8,24z"/>
						</g>
						<g>
							<path fill="#37474F" d="M4,29.7c-0.1,0-0.1,0-0.2,0c-0.3-0.1-0.4-0.4-0.3-0.6l0.5-1.7C4.1,27.1,4.4,27,4.7,27
								s0.4,0.4,0.3,0.6l-0.5,1.7C4.4,29.5,4.2,29.7,4,29.7z"/>
						</g>
					</g>
				</g>
			</g>
		</g>
	</g>
</g>
</svg>
