<?xml version="1.0" encoding="utf-8"?>
<!-- Generator: Adobe Illustrator 16.0.0, SVG Export Plug-In . SVG Version: 6.00 Build 0)  -->
<!DOCTYPE svg PUBLIC "-//W3C//DTD SVG 1.1//EN" "http://www.w3.org/Graphics/SVG/1.1/DTD/svg11.dtd">
<svg version="1.1" id="Layer_1" xmlns="http://www.w3.org/2000/svg" xmlns:xlink="http://www.w3.org/1999/xlink" x="0px" y="0px"
	 width="128px" height="128px" viewBox="0 0 128 128" enable-background="new 0 0 128 128" xml:space="preserve">
<g>
	<g>
		<rect x="3.5" y="85.2" fill="#FFFFFF" width="121" height="29"/>
		<path fill="#37474F" d="M124.5,115.7H3.5c-0.8,0-1.5-0.7-1.5-1.5v-29c0-0.8,0.7-1.5,1.5-1.5h121c0.8,0,1.5,0.7,1.5,1.5v29
			C126,115,125.3,115.7,124.5,115.7z M5,112.7h118v-26H5V112.7z"/>
	</g>
	<g>
		<g>
			<path fill="#37474F" d="M36.8,99.8c0-0.7,0.6-1.4,1.4-1.4c0.8,0,1.4,0.6,1.4,1.4c0,0.7-0.6,1.4-1.4,1.4
				C37.4,101.2,36.8,100.6,36.8,99.8z"/>
			<path fill="#37474F" d="M38.2,101.7c-1,0-1.9-0.9-1.9-1.9c0-1,0.8-1.9,1.9-1.9c0.5,0,1,0.2,1.4,0.6c0.3,0.4,0.5,0.8,0.5,1.3
				C40,100.9,39.2,101.7,38.2,101.7z M38.2,99c-0.5,0-0.9,0.4-0.9,0.9s0.4,0.9,0.9,0.9c0.5,0,0.9-0.4,0.9-0.9c0-0.2-0.1-0.4-0.2-0.6
				C38.6,99.1,38.4,99,38.2,99z"/>
		</g>
		<g>
			<path fill="#37474F" d="M27.3,99.8c0-0.7,0.6-1.4,1.3-1.4c0.8,0,1.4,0.6,1.4,1.4c0,0.7-0.6,1.4-1.4,1.4
				C27.9,101.2,27.3,100.6,27.3,99.8z"/>
			<path fill="#37474F" d="M28.7,101.7c-1,0-1.8-0.8-1.8-1.9c0-0.5,0.2-0.9,0.5-1.3c0.3-0.4,0.8-0.6,1.3-0.6c1,0,1.8,0.8,1.9,1.8
				C30.5,100.9,29.7,101.7,28.7,101.7z M28.7,99c-0.2,0-0.5,0.1-0.6,0.3c-0.2,0.2-0.2,0.4-0.2,0.6c0,0.5,0.4,0.9,0.8,0.9
				c0.5,0,0.9-0.4,0.9-0.9C29.5,99.3,29.1,99,28.7,99z"/>
		</g>
		<g>
			<path fill="#37474F" d="M17.8,99.8c0-0.7,0.6-1.4,1.4-1.4c0.8,0,1.4,0.6,1.4,1.4c0,0.7-0.6,1.4-1.4,1.4
				C18.4,101.2,17.8,100.6,17.8,99.8z"/>
			<path fill="#37474F" d="M19.2,101.7c-1,0-1.9-0.9-1.9-1.9c0-1,0.9-1.9,1.9-1.9c1,0,1.9,0.8,1.9,1.9
				C21,100.9,20.2,101.7,19.2,101.7z M19.2,99c-0.5,0-0.9,0.4-0.9,0.9c0,0.5,0.4,0.9,0.9,0.9c0.5,0,0.9-0.4,0.9-0.9
				C20,99.3,19.6,99,19.2,99z"/>
		</g>
	</g>
	<g>
		<path fill="#FFAB00" d="M62.9,99.8c0,4.5-3.6,8.1-8.1,8.1c-4.5,0-8.1-3.6-8.1-8.1c0-4.4,3.6-8.1,8.1-8.1
			C59.2,91.8,62.9,95.4,62.9,99.8z"/>
		<path fill="#37474F" d="M54.8,109.4c-5.3,0-9.6-4.3-9.6-9.6c0-5.3,4.3-9.6,9.6-9.6s9.6,4.3,9.6,9.6
			C64.4,105.1,60.1,109.4,54.8,109.4z M54.8,93.3c-3.6,0-6.6,2.9-6.6,6.6c0,3.6,2.9,6.6,6.6,6.6s6.6-2.9,6.6-6.6
			C61.4,96.2,58.4,93.3,54.8,93.3z"/>
	</g>
	<g>
		<g>
			<rect x="75.5" y="96.2" fill="#FFECB3" width="7" height="7"/>
			<path fill="#37474F" d="M82.5,104.7h-7c-0.8,0-1.5-0.7-1.5-1.5v-7c0-0.8,0.7-1.5,1.5-1.5h7c0.8,0,1.5,0.7,1.5,1.5v7
				C84,104,83.3,104.7,82.5,104.7z M77,101.7h4v-4h-4V101.7z"/>
		</g>
		<g>
			<rect x="91.5" y="96.2" fill="#FFECB3" width="7" height="7"/>
			<path fill="#37474F" d="M98.5,104.7h-7c-0.8,0-1.5-0.7-1.5-1.5v-7c0-0.8,0.7-1.5,1.5-1.5h7c0.8,0,1.5,0.7,1.5,1.5v7
				C100,104,99.3,104.7,98.5,104.7z M93,101.7h4v-4h-4V101.7z"/>
		</g>
		<g>
			<rect x="107.5" y="96.2" fill="#FFECB3" width="7" height="7"/>
			<path fill="#37474F" d="M114.5,104.7h-7c-0.8,0-1.5-0.7-1.5-1.5v-7c0-0.8,0.7-1.5,1.5-1.5h7c0.8,0,1.5,0.7,1.5,1.5v7
				C116,104,115.3,104.7,114.5,104.7z M109,101.7h4v-4h-4V101.7z"/>
		</g>
	</g>
	<g>
		<g>
			<rect x="24.5" y="77.2" fill="#B0BEC5" width="8" height="7"/>
			<path fill="#37474F" d="M32.5,85.7h-8c-0.8,0-1.5-0.7-1.5-1.5v-7c0-0.8,0.7-1.5,1.5-1.5h8c0.8,0,1.5,0.7,1.5,1.5v7
				C34,85,33.3,85.7,32.5,85.7z M26,82.7h5v-4h-5V82.7z"/>
		</g>
		<g>
			<rect x="95.5" y="77.2" fill="#B0BEC5" width="8" height="7"/>
			<path fill="#37474F" d="M103.5,85.7h-8c-0.8,0-1.5-0.7-1.5-1.5v-7c0-0.8,0.7-1.5,1.5-1.5h8c0.8,0,1.5,0.7,1.5,1.5v7
				C105,85,104.3,85.7,103.5,85.7z M97,82.7h5v-4h-5V82.7z"/>
		</g>
	</g>
	<g>
		<g>
			<g>
				<polyline fill="#B0BEC5" points="33,77.4 45.1,65.2 60,65.2 				"/>
				<path fill="#37474F" d="M33,78.9c-0.4,0-0.8-0.1-1.1-0.4c-0.6-0.6-0.6-1.5,0-2.1L44,64.1c0.3-0.3,0.7-0.4,1.1-0.4H60
					c0.8,0,1.5,0.7,1.5,1.5c0,0.8-0.7,1.5-1.5,1.5H45.7L34.1,78.5C33.8,78.8,33.4,78.9,33,78.9z"/>
			</g>
			<g>
				<polyline fill="#B0BEC5" points="41.5,69.7 41.5,77.2 49.8,77.2 40.6,84.2 				"/>
				<path fill="#37474F" d="M40.6,85.7c-0.5,0-0.9-0.2-1.2-0.6c-0.5-0.7-0.4-1.6,0.3-2.1l5.6-4.3h-3.9c-0.8,0-1.5-0.7-1.5-1.5v-7.5
					c0-0.8,0.7-1.5,1.5-1.5s1.5,0.7,1.5,1.5v6h6.8c0.6,0,1.2,0.4,1.4,1c0.2,0.6,0,1.3-0.5,1.7l-9.2,7C41.3,85.6,41,85.7,40.6,85.7z"
					/>
			</g>
		</g>
		<g>
			<g>
				<polyline fill="#B0BEC5" points="94.9,77.4 82.8,65.2 68,65.2 				"/>
				<path fill="#37474F" d="M94.9,78.9c-0.4,0-0.8-0.1-1.1-0.4L82.2,66.7H68c-0.8,0-1.5-0.7-1.5-1.5c0-0.8,0.7-1.5,1.5-1.5h14.8
					c0.4,0,0.8,0.2,1.1,0.4L96,76.4c0.6,0.6,0.6,1.5,0,2.1C95.7,78.8,95.3,78.9,94.9,78.9z"/>
			</g>
			<g>
				<polyline fill="#B0BEC5" points="85.5,68.7 85.5,77.2 78.1,77.2 86.8,84.2 				"/>
				<path fill="#37474F" d="M86.8,85.7c-0.3,0-0.7-0.1-0.9-0.3l-8.7-7c-0.5-0.4-0.7-1.1-0.5-1.7c0.2-0.6,0.8-1,1.4-1H84v-7
					c0-0.8,0.7-1.5,1.5-1.5s1.5,0.7,1.5,1.5v8.5c0,0.8-0.7,1.5-1.5,1.5h-3.1l5.4,4.3c0.6,0.5,0.7,1.5,0.2,2.1
					C87.7,85.5,87.2,85.7,86.8,85.7z"/>
			</g>
		</g>
	</g>
	<g>
		<rect x="47.5" y="77.2" fill="#B0BEC5" width="33" height="8"/>
		<path fill="#37474F" d="M80.5,86.7h-33c-0.8,0-1.5-0.7-1.5-1.5v-8c0-0.8,0.7-1.5,1.5-1.5h33c0.8,0,1.5,0.7,1.5,1.5v8
			C82,86,81.3,86.7,80.5,86.7z M49,83.7h30v-5H49V83.7z"/>
	</g>
	<g>
		<g>
			<line fill="#B0BEC5" x1="56.5" y1="77.7" x2="56.5" y2="84.7"/>
			<path fill="#37474F" d="M56.5,86.2c-0.8,0-1.5-0.7-1.5-1.5v-7c0-0.8,0.7-1.5,1.5-1.5s1.5,0.7,1.5,1.5v7
				C58,85.5,57.3,86.2,56.5,86.2z"/>
		</g>
		<g>
			<line fill="#B0BEC5" x1="63.5" y1="77.7" x2="63.5" y2="84.7"/>
			<path fill="#37474F" d="M63.5,86.2c-0.8,0-1.5-0.7-1.5-1.5v-7c0-0.8,0.7-1.5,1.5-1.5s1.5,0.7,1.5,1.5v7
				C65,85.5,64.3,86.2,63.5,86.2z"/>
		</g>
		<g>
			<line fill="#B0BEC5" x1="71.5" y1="77.7" x2="71.5" y2="84.7"/>
			<path fill="#37474F" d="M71.5,86.2c-0.8,0-1.5-0.7-1.5-1.5v-7c0-0.8,0.7-1.5,1.5-1.5s1.5,0.7,1.5,1.5v7
				C73,85.5,72.3,86.2,71.5,86.2z"/>
		</g>
	</g>
	<g>
		<path fill="#FFAB00" d="M59.7,69.8"/>
	</g>
	<g>
		<g>
			<g>
				<polygon fill="#FFAB00" points="54.6,52.6 63.8,72.8 43.3,64.3 34.2,44 				"/>
				<path fill="#37474F" d="M63.8,74.3c-0.2,0-0.4,0-0.6-0.1l-20.5-8.6c-0.3-0.1-0.6-0.4-0.8-0.8l-9.2-20.2
					c-0.3-0.6-0.1-1.2,0.3-1.7c0.4-0.4,1.1-0.6,1.7-0.3l20.5,8.6c0.3,0.1,0.6,0.4,0.8,0.8l9.1,20c0.2,0.2,0.2,0.5,0.2,0.8
					C65.3,73.6,64.6,74.3,63.8,74.3C63.8,74.3,63.8,74.3,63.8,74.3z M44.5,63.1L60.9,70l-7.3-16.2l-16.4-6.9L44.5,63.1z"/>
			</g>
			<g>
				<polygon fill="#FFECB3" points="54.1,59 57.7,67 49.7,63.6 46.1,55.6 				"/>
			</g>
		</g>
		<g>
			<g>
				<polygon fill="#FFAB00" points="73.3,52.6 64.1,72.8 84.6,64.3 93.7,44 				"/>
				<path fill="#37474F" d="M64.1,74.3c-0.4,0-0.8-0.2-1.1-0.5c-0.4-0.4-0.5-1.1-0.3-1.7L71.9,52c0.2-0.3,0.4-0.6,0.8-0.8l20.4-8.6
					c0.6-0.2,1.2-0.1,1.7,0.3c0.4,0.4,0.5,1.1,0.3,1.7l-9.1,20.2c-0.2,0.3-0.4,0.6-0.8,0.8l-20.5,8.6C64.5,74.3,64.3,74.3,64.1,74.3
					z M74.4,53.8L67,70l16.4-6.9l7.3-16.2L74.4,53.8z"/>
			</g>
			<g>
				<polygon fill="#FFECB3" points="73.7,59 70.2,67 78.2,63.6 81.8,55.6 				"/>
			</g>
		</g>
	</g>
	<g>
		<g>
			<polygon fill="#FFAB00" points="75.5,43.3 64,72.8 52.4,43.3 64,13.8 			"/>
			<path fill="#37474F" d="M64,74.3c-0.6,0-1.2-0.4-1.4-1L51,43.9c-0.1-0.4-0.1-0.7,0-1.1l11.6-29.5c0.2-0.6,0.8-1,1.4-1
				c0,0,0,0,0,0c0.6,0,1.2,0.4,1.4,1l11.6,29.5c0.1,0.4,0.1,0.7,0,1.1L65.4,73.4C65.1,73.9,64.6,74.3,64,74.3
				C64,74.3,64,74.3,64,74.3z M54,43.3l10,25.4l10-25.4L64,17.9L54,43.3z"/>
		</g>
		<g>
			<polygon fill="#FFECB3" points="68.5,49.1 63.9,60.8 59.4,49.1 63.9,37.5 			"/>
		</g>
	</g>
</g>
</svg>
