<?xml version="1.0" encoding="utf-8"?>
<!-- Generator: Adobe Illustrator 16.0.0, SVG Export Plug-In . SVG Version: 6.00 Build 0)  -->
<!DOCTYPE svg PUBLIC "-//W3C//DTD SVG 1.1//EN" "http://www.w3.org/Graphics/SVG/1.1/DTD/svg11.dtd">
<svg version="1.1" id="Layer_1" xmlns="http://www.w3.org/2000/svg" xmlns:xlink="http://www.w3.org/1999/xlink" x="0px" y="0px"
	 width="64px" height="64px" viewBox="0 0 64 64" enable-background="new 0 0 64 64" xml:space="preserve">
<g>
	<g>
		<line fill="#FFECB3" x1="22" y1="62" x2="42" y2="62"/>
		<path fill="#37474F" d="M42,63H22c-0.6,0-1-0.4-1-1s0.4-1,1-1h20c0.6,0,1,0.4,1,1S42.6,63,42,63z"/>
	</g>
	<g>
		<g>
			<g>
				<path fill="#FFAB00" d="M32,54.1c5-9.1,18.3-27.8,18.3-36.3C50.3,9.1,42,2,32,1.5v0c0,0,0.1,0,0,0c-0.1,0,0,0,0,0v0
					C22,2,13.7,9.1,13.7,17.8C13.7,26.3,27,45,32,54.1V55c0-0.1-0.1-0.3,0-0.4c0.1,0.1,0,0.3,0,0.4V54.1z"/>
				<path fill="#37474F" d="M32,56c-0.5,0-1-0.4-1-1c0-0.1-0.1-0.4,0-0.7v0c-1.3-2.3-3-5.1-4.9-8.2c-5.9-9.7-13.4-21.7-13.4-28.4
					c0-9.1,8.3-16.6,19-17.2c0,0,0,0,0.1,0c0.1,0,0.3,0,0.4,0c0,0,0.1,0,0.1,0c10.7,0.6,19,8.1,19,17.2c0,6.7-7.4,18.7-13.4,28.4
					c-1.9,3.1-3.6,5.9-4.9,8.2v0c0.1,0.3,0,0.5,0,0.6C33,55.6,32.6,56,32,56z M32,2.5C22.5,3,14.7,9.8,14.7,17.8
					c0,6.1,7.5,18.4,13.1,27.4c1.5,2.5,3,4.9,4.2,7c1.2-2,2.7-4.4,4.2-7c5.5-9,13.1-21.3,13.1-27.4C49.3,9.8,41.5,3,32,2.5z"/>
			</g>
			<g>
				<circle fill="#FFECB3" cx="32" cy="19" r="9"/>
				<path fill="#37474F" d="M32,29c-5.5,0-10-4.5-10-10S26.5,9,32,9s10,4.5,10,10S37.5,29,32,29z M32,11c-4.4,0-8,3.6-8,8s3.6,8,8,8
					s8-3.6,8-8S36.4,11,32,11z"/>
			</g>
		</g>
		<g>
			<line fill="#FFECB3" x1="32" y1="59" x2="32" y2="54"/>
			<path fill="#37474F" d="M32,60c-0.6,0-1-0.4-1-1v-5c0-0.6,0.4-1,1-1s1,0.4,1,1v5C33,59.6,32.6,60,32,60z"/>
		</g>
	</g>
</g>
</svg>
