<?xml version="1.0" encoding="utf-8"?>
<!-- Generator: Adobe Illustrator 16.0.0, SVG Export Plug-In . SVG Version: 6.00 Build 0)  -->
<!DOCTYPE svg PUBLIC "-//W3C//DTD SVG 1.1//EN" "http://www.w3.org/Graphics/SVG/1.1/DTD/svg11.dtd">
<svg version="1.1" id="Layer_1" xmlns="http://www.w3.org/2000/svg" xmlns:xlink="http://www.w3.org/1999/xlink" x="0px" y="0px"
	 width="128px" height="128px" viewBox="0 0 128 128" enable-background="new 0 0 128 128" xml:space="preserve">
<g>
	<g>
		<polygon fill="#FFECB3" points="11,33.2 64,2.3 117,33.2 117,94.8 64,125.7 11,94.8 		"/>
		<path fill="#37474F" d="M64,127.7c-0.3,0-0.7-0.1-1-0.3L10,96.6c-0.6-0.4-1-1-1-1.7V33.2c0-0.7,0.4-1.4,1-1.7L63,0.6
			c0.6-0.4,1.4-0.4,2,0l53,30.8c0.6,0.4,1,1,1,1.7v61.7c0,0.7-0.4,1.4-1,1.7l-53,30.8C64.7,127.6,64.3,127.7,64,127.7z M13,93.7
			l51,29.7l51-29.7V34.3L64,4.6L13,34.3V93.7z"/>
	</g>
	<g>
		<polyline fill="#FFAB00" points="117.4,33.6 64,64.5 10.6,33.6 		"/>
		<path fill="#37474F" d="M64,66.5c-0.3,0-0.7-0.1-1-0.3L9.6,35.4c-1-0.6-1.3-1.8-0.7-2.7s1.8-1.3,2.7-0.7L64,62.2l52.4-30.3
			c1-0.6,2.2-0.2,2.7,0.7c0.6,1,0.2,2.2-0.7,2.7L65,66.2C64.7,66.4,64.3,66.5,64,66.5z"/>
	</g>
	<g>
		<line fill="#FFECB3" x1="64" y1="64" x2="64" y2="124"/>
		<path fill="#37474F" d="M64,126c-1.1,0-2-0.9-2-2V64c0-1.1,0.9-2,2-2s2,0.9,2,2v60C66,125.1,65.1,126,64,126z"/>
	</g>
	<g>
		<g>
			<line fill="#FFECB3" x1="110.3" y1="87" x2="84" y2="102.2"/>
			<path fill="#37474F" d="M84,104.2c-0.7,0-1.4-0.4-1.7-1c-0.6-1-0.2-2.2,0.7-2.7l26.3-15.2c1-0.6,2.2-0.2,2.7,0.7
				c0.6,1,0.2,2.2-0.7,2.7L85,104C84.7,104.1,84.3,104.2,84,104.2z"/>
		</g>
		<g>
			<g>
				<line fill="#FFECB3" x1="91" y1="79" x2="91" y2="97"/>
				<path fill="#37474F" d="M91,99c-1.1,0-2-0.9-2-2V79c0-1.1,0.9-2,2-2s2,0.9,2,2v18C93,98.1,92.1,99,91,99z"/>
			</g>
			<g>
				<polyline fill="#FFECB3" points="85.8,81.9 91.2,76.5 96.6,81.9 				"/>
				<path fill="#37474F" d="M96.6,83.9c-0.5,0-1-0.2-1.4-0.6l-4-4l-4,4c-0.8,0.8-2,0.8-2.8,0s-0.8-2,0-2.8l5.4-5.4
					c0.4-0.4,0.9-0.6,1.4-0.6l0,0c0.5,0,1,0.2,1.4,0.6l5.4,5.4c0.8,0.8,0.8,2,0,2.8C97.6,83.7,97.1,83.9,96.6,83.9z"/>
			</g>
		</g>
		<g>
			<g>
				<line fill="#FFECB3" x1="103" y1="72" x2="103" y2="91"/>
				<path fill="#37474F" d="M103,93c-1.1,0-2-0.9-2-2V72c0-1.1,0.9-2,2-2s2,0.9,2,2v19C105,92.1,104.1,93,103,93z"/>
			</g>
			<g>
				<polyline fill="#FFECB3" points="97.3,75.3 102.7,69.9 108.1,75.3 				"/>
				<path fill="#37474F" d="M108.1,77.3c-0.5,0-1-0.2-1.4-0.6l-4-4l-4,4c-0.8,0.8-2,0.8-2.8,0c-0.8-0.8-0.8-2,0-2.8l5.4-5.4
					c0.8-0.8,2.1-0.8,2.8,0l5.4,5.4c0.8,0.8,0.8,2,0,2.8C109.1,77.2,108.6,77.3,108.1,77.3z"/>
			</g>
		</g>
	</g>
</g>
</svg>
