<?xml version="1.0" encoding="utf-8"?>
<!-- Generator: Adobe Illustrator 16.0.0, SVG Export Plug-In . SVG Version: 6.00 Build 0)  -->
<!DOCTYPE svg PUBLIC "-//W3C//DTD SVG 1.1//EN" "http://www.w3.org/Graphics/SVG/1.1/DTD/svg11.dtd">
<svg version="1.1" id="Layer_1" xmlns="http://www.w3.org/2000/svg" xmlns:xlink="http://www.w3.org/1999/xlink" x="0px" y="0px"
	 width="64px" height="64px" viewBox="0 0 64 64" enable-background="new 0 0 64 64" xml:space="preserve">
<g>
	<g>
		<polyline fill="#FFECB3" points="10.5,19.5 10.5,32.5 14.5,32.5 14.5,38.5 11.8,41.2 14.2,43.6 10.1,47.7 16.7,54.1 		"/>
		<path fill="#37474F" d="M16.7,55.1c-0.3,0-0.5-0.1-0.7-0.3l-6.6-6.4c-0.2-0.2-0.3-0.4-0.3-0.7c0-0.3,0.1-0.5,0.3-0.7l3.4-3.4
			l-1.7-1.7c-0.2-0.2-0.3-0.4-0.3-0.7s0.1-0.5,0.3-0.7l2.4-2.4v-4.6h-3c-0.6,0-1-0.4-1-1v-13c0-0.6,0.4-1,1-1s1,0.4,1,1v12h3
			c0.6,0,1,0.4,1,1v6c0,0.3-0.1,0.5-0.3,0.7l-2,2l1.7,1.7c0.4,0.4,0.4,1,0,1.4l-3.4,3.4l5.9,5.7c0.4,0.4,0.4,1,0,1.4
			C17.2,55,16.9,55.1,16.7,55.1z"/>
	</g>
	<g>
		<rect x="10.5" y="10.5" fill="#37474F" width="51" height="4"/>
		<path fill="#37474F" d="M61.5,15.5h-51c-0.6,0-1-0.4-1-1v-4c0-0.6,0.4-1,1-1h51c0.6,0,1,0.4,1,1v4C62.5,15.1,62.1,15.5,61.5,15.5z
			 M11.5,13.5h49v-2h-49V13.5z"/>
	</g>
	<g>
		<path fill="#78909C" d="M37.5,29.8c0,1.1-0.9,1.9-2,1.9l0,0c-1.1,0-2-0.9-2-1.9v-12c0-1.1,0.9-1.9,2-1.9l0,0c1.1,0,2,0.9,2,1.9
			V29.8z"/>
		<path fill="#37474F" d="M35.5,32.7c-1.7,0-3-1.3-3-2.9v-12c0-1.6,1.4-2.9,3-2.9c1.6,0,3,1.4,3,2.9v12
			C38.5,31.4,37.2,32.7,35.5,32.7z M35.5,16.9c-0.5,0-1,0.5-1,0.9v12c0,0.5,0.5,0.9,1,0.9c0.5,0,1-0.4,1-0.9v-12
			C36.5,17.3,36,16.9,35.5,16.9z"/>
	</g>
	<g>
		<path fill="#FFFFFF" d="M35.5,27.8c-11.6,0-21,10.4-21,23c0,1.2,0.2,1.8,0.3,3.8h41.3c0.2-2,0.3-2.6,0.3-3.8
			C56.5,38.2,47.1,27.8,35.5,27.8z"/>
		<path fill="#37474F" d="M56.2,55.5H14.9c-0.5,0-1-0.4-1-0.9c-0.1-0.8-0.1-1.4-0.2-1.8c-0.1-0.7-0.1-1.3-0.1-2c0-13.2,9.9-24,22-24
			c12.1,0,22,10.8,22,24c0,0.8-0.1,1.3-0.1,2c-0.1,0.5-0.1,1-0.2,1.8C57.1,55.1,56.7,55.5,56.2,55.5z M15.8,53.5h39.5
			c0-0.4,0.1-0.7,0.1-1c0.1-0.7,0.1-1.1,0.1-1.8c0-12.1-9-22-20-22c-11,0-20,9.9-20,22c0,0.7,0.1,1.1,0.1,1.8
			C15.7,52.8,15.8,53.1,15.8,53.5z"/>
	</g>
	<g>
		<path fill="#FFECB3" d="M10.2,10.6c-4.8,0-8.7,4.2-8.7,9.4c0,0.5,0.1,1.4,0.1,1.4h17.2c0.1,0,0.1-0.9,0.1-1.4
			C18.9,14.9,15,10.6,10.2,10.6z"/>
		<path fill="#37474F" d="M18.8,22.5H1.6c-1.1,0-1.1-1.3-1.1-2.4c0-5.7,4.4-10.4,9.7-10.4c5.4,0,9.7,4.7,9.7,10.4
			C19.9,21.2,19.9,22.5,18.8,22.5z M2.5,20.5h15.4c0-0.2,0-0.3,0-0.4c0-4.6-3.5-8.4-7.7-8.4c-4.3,0-7.7,3.8-7.7,8.4
			C2.5,20.2,2.5,20.4,2.5,20.5z"/>
	</g>
	<g>
		<g>
			<path fill="#FFAB00" d="M44.3,40.9c0,4.8-3.9,8.7-8.7,8.7c-4.8,0-8.7-3.9-8.7-8.7c0-4.8,3.9-8.7,8.7-8.7
				C40.4,32.2,44.3,36.1,44.3,40.9z"/>
			<path fill="#37474F" d="M35.5,50.6c-5.4,0-9.7-4.4-9.7-9.7c0-5.4,4.4-9.7,9.7-9.7c5.4,0,9.7,4.4,9.7,9.7
				C45.3,46.3,40.9,50.6,35.5,50.6z M35.5,33.2c-4.3,0-7.7,3.5-7.7,7.7c0,4.3,3.5,7.7,7.7,7.7c4.3,0,7.7-3.5,7.7-7.7
				C43.3,36.6,39.8,33.2,35.5,33.2z"/>
		</g>
		<g>
			<path fill="#FFECB3" d="M39.5,40.9c0,2.2-1.8,4-4,4c-2.2,0-4-1.8-4-4c0-2.2,1.8-4,4-4C37.7,36.9,39.5,38.7,39.5,40.9z"/>
			<path fill="#37474F" d="M35.5,45.8c-2.7,0-5-2.2-5-5c0-2.7,2.2-5,5-5c2.7,0,5,2.2,5,5C40.5,43.6,38.3,45.8,35.5,45.8z M35.5,37.9
				c-1.6,0-3,1.3-3,3c0,1.6,1.3,3,3,3c1.6,0,3-1.3,3-3C38.5,39.3,37.2,37.9,35.5,37.9z"/>
		</g>
	</g>
	<g>
		<path fill="#FFECB3" d="M56.3,54c0,1-0.8,1.5-1.8,1.5H16.6c-1,0-1.8-0.5-1.8-1.5l0,0c0-1,0.8-1.5,1.8-1.5h37.8
			C55.5,52.5,56.3,53,56.3,54L56.3,54z"/>
		<path fill="#37474F" d="M54.4,56.5H16.6c-1.7,0-2.8-1-2.8-2.5c0-1.5,1.1-2.5,2.8-2.5h37.8c1.7,0,2.8,1,2.8,2.5
			C57.3,55.5,56.1,56.5,54.4,56.5z M16.6,53.5c-0.8,0-0.8,0.4-0.8,0.5c0,0.3,0.3,0.5,0.8,0.5h37.8c0.5,0,0.8-0.2,0.8-0.5
			c0-0.1,0-0.5-0.8-0.5H16.6z"/>
	</g>
	<g>
		<path fill="#FFAB00" d="M47.4,12.5c0,2.2-1.9,4-4.3,4h-15c-2.4,0-4.4-1.8-4.4-4l0,0c0-2.2,1.9-4,4.4-4h15
			C45.4,8.5,47.4,10.3,47.4,12.5L47.4,12.5z"/>
		<path fill="#37474F" d="M43,17.5h-15c-3,0-5.4-2.2-5.4-5c0-2.8,2.4-5,5.4-5h15c2.9,0,5.3,2.2,5.3,5C48.4,15.3,46,17.5,43,17.5z
			 M28.1,9.5c-1.8,0-3.4,1.3-3.4,3c0,1.6,1.5,3,3.4,3h15c1.8,0,3.3-1.3,3.3-3c0-1.7-1.5-3-3.3-3H28.1z"/>
	</g>
	<g>
		<rect x="55.5" y="10.5" fill="#78909C" width="7" height="17"/>
		<path fill="#37474F" d="M63.5,28.5h-9v-19h9V28.5z M56.5,26.5h5v-15h-5V26.5z"/>
	</g>
	<g>
		<g>
			<path fill="#37474F" d="M40.9,12.4c0-0.5,0.4-0.9,0.9-0.9c0.5,0,0.9,0.4,0.9,0.9c0,0.5-0.4,0.9-0.9,0.9
				C41.3,13.3,40.9,12.8,40.9,12.4z"/>
			<path fill="#37474F" d="M41.8,13.7c-0.7,0-1.4-0.6-1.4-1.4c0-0.8,0.6-1.4,1.4-1.4c0.4,0,0.7,0.1,1,0.4c0.3,0.3,0.4,0.6,0.4,1
				C43.2,13.1,42.6,13.7,41.8,13.7L41.8,13.7z M41.8,12c-0.2,0-0.4,0.2-0.4,0.4c0,0.2,0.2,0.4,0.4,0.4v0.5l0-0.5
				c0.2,0,0.4-0.2,0.4-0.4c0-0.1-0.1-0.2-0.1-0.3C42,12,41.9,12,41.8,12z"/>
		</g>
		<g>
			<path fill="#37474F" d="M34.7,12.4c0-0.5,0.4-0.9,0.9-0.9c0.5,0,0.9,0.4,0.9,0.9c0,0.5-0.4,0.9-0.9,0.9
				C35,13.2,34.7,12.8,34.7,12.4z"/>
			<path fill="#37474F" d="M35.5,13.8L35.5,13.8c-0.8,0-1.4-0.6-1.4-1.4c0-0.4,0.1-0.7,0.4-1c0.3-0.3,0.6-0.4,1-0.4
				c0.8,0,1.4,0.6,1.4,1.4C36.9,13.1,36.3,13.8,35.5,13.8z M35.5,12c-0.1,0-0.2,0-0.3,0.1c-0.1,0.1-0.1,0.1-0.1,0.3
				c0,0.2,0.2,0.4,0.4,0.4c0.2,0,0.4-0.2,0.4-0.4C35.9,12.1,35.8,12,35.5,12z"/>
		</g>
		<g>
			<path fill="#37474F" d="M28.4,12.4c0-0.5,0.4-0.9,0.9-0.9c0.5,0,0.9,0.4,0.9,0.9c0,0.5-0.4,0.9-0.9,0.9
				C28.8,13.3,28.4,12.8,28.4,12.4z"/>
			<path fill="#37474F" d="M29.3,13.7L29.3,13.7C29.3,13.7,29.3,13.7,29.3,13.7c-0.8,0-1.4-0.6-1.4-1.4c0-0.8,0.6-1.4,1.4-1.4
				c0.8,0,1.4,0.6,1.4,1.4C30.7,13.1,30.1,13.7,29.3,13.7z M29.3,12c-0.2,0-0.4,0.2-0.4,0.4c0,0.2,0.2,0.4,0.4,0.4l0.1,0.5v-0.5
				c0.2,0,0.4-0.2,0.4-0.4C29.7,12.1,29.5,12,29.3,12z"/>
		</g>
	</g>
	<g>
		<line fill="#FFECB3" x1="56.5" y1="14.5" x2="62.5" y2="14.5"/>
		<path fill="#37474F" d="M62.5,15.5h-6c-0.6,0-1-0.4-1-1s0.4-1,1-1h6c0.6,0,1,0.4,1,1S63.1,15.5,62.5,15.5z"/>
	</g>
	<g>
		<line fill="#FFECB3" x1="56.5" y1="17.5" x2="62.5" y2="17.5"/>
		<path fill="#37474F" d="M62.5,18.5h-6c-0.6,0-1-0.4-1-1s0.4-1,1-1h6c0.6,0,1,0.4,1,1S63.1,18.5,62.5,18.5z"/>
	</g>
	<g>
		<line fill="#FFECB3" x1="56.5" y1="20.5" x2="62.5" y2="20.5"/>
		<path fill="#37474F" d="M62.5,21.5h-6c-0.6,0-1-0.4-1-1s0.4-1,1-1h6c0.6,0,1,0.4,1,1S63.1,21.5,62.5,21.5z"/>
	</g>
	<g>
		<line fill="#FFECB3" x1="56.5" y1="23.5" x2="62.5" y2="23.5"/>
		<path fill="#37474F" d="M62.5,24.5h-6c-0.6,0-1-0.4-1-1s0.4-1,1-1h6c0.6,0,1,0.4,1,1S63.1,24.5,62.5,24.5z"/>
	</g>
	<g>
		<path fill="#FFECB3" d="M62.5,27.6c0-4.8-4.3-8.7-9.5-8.7c-0.5,0-0.5,0.1-1.5,0.1v17.2c1,0.1,1,0.1,1.5,0.1
			C58.2,36.4,62.5,32.5,62.5,27.6z"/>
		<path fill="#37474F" d="M53,37.4c-0.3,0-0.5,0-0.7-0.1c-0.2,0-0.4-0.1-0.9-0.1c-0.5,0-0.9-0.5-0.9-1V19.1c0-0.5,0.4-1,0.9-1
			c0.5,0,0.7-0.1,0.9-0.1c0.2,0,0.4-0.1,0.7-0.1c5.8,0,10.5,4.4,10.5,9.7C63.5,33,58.8,37.4,53,37.4z M52.5,35.3
			C52.5,35.3,52.6,35.3,52.5,35.3c0.2,0,0.3,0,0.5,0c4.7,0,8.5-3.5,8.5-7.7c0-4.3-3.8-7.7-8.5-7.7c-0.2,0-0.3,0-0.4,0
			c0,0-0.1,0-0.1,0V35.3z"/>
	</g>
	<g>
		<path fill="#B0BEC5" d="M51.7,36.4c-1.2,0-2.1-3.9-2.1-8.7c0-4.8,0.9-8.7,2.1-8.7c1.2,0,2.1,3.9,2.1,8.7
			C53.8,32.4,52.9,36.4,51.7,36.4z"/>
		<path fill="#37474F" d="M51.7,37.4c-3,0-3.1-8.1-3.1-9.7s0.1-9.7,3.1-9.7c3,0,3.1,8.1,3.1,9.7S54.7,37.4,51.7,37.4z M51.7,20.2
			c-0.5,0.9-1.1,3.5-1.1,7.5c0,4,0.6,6.6,1.1,7.5c0.5-0.9,1.1-3.5,1.1-7.5C52.8,23.6,52.2,21.1,51.7,20.2z"/>
	</g>
</g>
</svg>
