<?xml version="1.0" encoding="utf-8"?>
<!-- Generator: Adobe Illustrator 16.0.0, SVG Export Plug-In . SVG Version: 6.00 Build 0)  -->
<!DOCTYPE svg PUBLIC "-//W3C//DTD SVG 1.1//EN" "http://www.w3.org/Graphics/SVG/1.1/DTD/svg11.dtd">
<svg version="1.1" id="Layer_1" xmlns="http://www.w3.org/2000/svg" xmlns:xlink="http://www.w3.org/1999/xlink" x="0px" y="0px"
	 width="32px" height="32px" viewBox="0 0 32 32" enable-background="new 0 0 32 32" xml:space="preserve">
<g>
	<g>
		<g>
			<g>
				<path fill="#FFAB00" d="M22.5,29.7c0,0.7-0.6,1.3-1.3,1.3h-0.4c-0.7,0-1.3-0.6-1.3-1.3v-0.4c0-0.7,0.6-1.3,1.3-1.3h0.4
					c0.7,0,1.3,0.6,1.3,1.3V29.7z"/>
				<path fill="#37474F" d="M21.2,31.5h-0.4c-1,0-1.8-0.8-1.8-1.8v-0.4c0-1,0.8-1.8,1.8-1.8h0.4c1,0,1.8,0.8,1.8,1.8v0.4
					C23,30.7,22.2,31.5,21.2,31.5z M20.8,28.5c-0.4,0-0.8,0.4-0.8,0.8v0.4c0,0.4,0.4,0.8,0.8,0.8h0.4c0.4,0,0.8-0.4,0.8-0.8v-0.4
					c0-0.4-0.4-0.8-0.8-0.8H20.8z"/>
			</g>
		</g>
		<g>
			<g>
				<path fill="#FFAB00" d="M12.2,29.7c0,0.7-0.6,1.3-1.3,1.3h-0.4c-0.7,0-1.3-0.6-1.3-1.3v-0.4c0-0.7,0.6-1.3,1.3-1.3h0.4
					c0.7,0,1.3,0.6,1.3,1.3V29.7z"/>
				<path fill="#37474F" d="M10.9,31.5h-0.4c-1,0-1.8-0.8-1.8-1.8v-0.4c0-1,0.8-1.8,1.8-1.8h0.4c1,0,1.8,0.8,1.8,1.8v0.4
					C12.7,30.7,11.9,31.5,10.9,31.5z M10.5,28.5c-0.4,0-0.8,0.4-0.8,0.8v0.4c0,0.4,0.4,0.8,0.8,0.8h0.4c0.4,0,0.8-0.4,0.8-0.8v-0.4
					c0-0.4-0.4-0.8-0.8-0.8H10.5z"/>
			</g>
		</g>
		<g>
			<g>
				<path fill="#FFFFFF" d="M25.5,26.1c0,1.6-1.5,2.9-3.1,2.9H9.3c-1.6,0-2.8-1.3-2.8-2.9v-22C6.5,2.5,7.7,1,9.3,1h13.1
					c1.6,0,3.1,1.5,3.1,3.1V26.1z"/>
				<path fill="#37474F" d="M22.4,29.5H9.3C7.5,29.5,6,28,6,26.1v-22c0-1.9,1.5-3.6,3.3-3.6h13.1c1.9,0,3.6,1.7,3.6,3.6v22
					C26,27.9,24.4,29.5,22.4,29.5z M9.3,1.5C8.1,1.5,7,2.7,7,4.1v22c0,1.3,1,2.4,2.3,2.4h13.1c1.4,0,2.6-1.1,2.6-2.4v-22
					c0-1.3-1.2-2.6-2.6-2.6H9.3z"/>
			</g>
			<g>
				<path fill="#FFAB00" d="M23.5,17.6c0,0.5-0.5,1-1,1l0,0c-0.5,0-1-0.4-1-1v-6c0-0.5,0.5-1,1-1l0,0c0.5,0,1,0.4,1,1V17.6z"/>
				<path fill="#37474F" d="M22.5,19c-0.8,0-1.5-0.7-1.5-1.5v-6c0-0.8,0.7-1.5,1.5-1.5s1.5,0.7,1.5,1.5v6C24,18.4,23.3,19,22.5,19z
					 M22.5,11.1c-0.3,0-0.5,0.2-0.5,0.5v6c0,0.2,0.2,0.5,0.5,0.5s0.5-0.2,0.5-0.5v-6C23,11.3,22.8,11.1,22.5,11.1z"/>
			</g>
			<g>
				<path fill="#B0BEC5" d="M6.5,24v2.1c0,1.6,1.2,2.9,2.8,2.9h13.1c1.6,0,3.1-1.3,3.1-2.9V24H6.5z"/>
				<path fill="#37474F" d="M22.4,29.5H9.3C7.5,29.5,6,28,6,26.1V24c0-0.3,0.2-0.5,0.5-0.5h19c0.3,0,0.5,0.2,0.5,0.5v2.1
					C26,27.9,24.4,29.5,22.4,29.5z M7,24.5v1.6c0,1.3,1,2.4,2.3,2.4h13.1c1.4,0,2.6-1.1,2.6-2.4v-1.6H7z"/>
			</g>
		</g>
		<g>
			<g>
				<path fill="#37474F" d="M12.5,15.1c0-0.2,0.1-0.3,0.3-0.3c0.2,0,0.3,0.1,0.3,0.3c0,0.2-0.1,0.3-0.3,0.3
					C12.7,15.4,12.5,15.2,12.5,15.1z"/>
				<path fill="#37474F" d="M12.8,15.9c-0.4,0-0.8-0.4-0.8-0.8c0-0.4,0.4-0.8,0.8-0.8c0.2,0,0.4,0.1,0.6,0.2
					c0.2,0.2,0.2,0.4,0.2,0.6C13.7,15.5,13.3,15.9,12.8,15.9z M12.8,14.9c-0.1,0-0.2,0.1-0.2,0.2c0,0,0,0.1,0.1,0.1
					c0.1,0.1,0.3,0,0.3-0.1C13,15,13,14.9,12.8,14.9z"/>
			</g>
			<g>
				<path fill="#37474F" d="M10.4,15.1c0-0.2,0.1-0.3,0.3-0.3c0.2,0,0.3,0.1,0.3,0.3c0,0.2-0.1,0.3-0.3,0.3
					C10.5,15.4,10.4,15.2,10.4,15.1z"/>
				<path fill="#37474F" d="M10.7,15.9c-0.4,0-0.8-0.4-0.8-0.8c0-0.2,0.1-0.4,0.2-0.6c0.1-0.2,0.4-0.2,0.6-0.2
					c0.4,0,0.8,0.4,0.8,0.8C11.5,15.5,11.1,15.9,10.7,15.9z M10.7,14.9c-0.1,0-0.2,0.1-0.2,0.2c0,0.2,0.2,0.3,0.3,0.1
					c0,0,0.1-0.1,0.1-0.1C10.9,15,10.8,14.9,10.7,14.9z"/>
			</g>
			<g>
				<path fill="#37474F" d="M8.2,15.1c0-0.2,0.1-0.3,0.3-0.3c0.2,0,0.3,0.1,0.3,0.3c0,0.2-0.1,0.3-0.3,0.3
					C8.4,15.4,8.2,15.2,8.2,15.1z"/>
				<path fill="#37474F" d="M8.5,15.9c-0.4,0-0.8-0.4-0.8-0.8c0-0.4,0.4-0.8,0.8-0.8c0.4,0,0.8,0.4,0.8,0.8
					C9.3,15.5,9,15.9,8.5,15.9z M8.5,14.9c-0.1,0-0.2,0.1-0.2,0.2c0,0.2,0.4,0.2,0.4,0C8.7,15,8.6,14.9,8.5,14.9z"/>
			</g>
		</g>
		<g>
			<g>
				<path fill="#37474F" d="M19.1,15.1c0-0.2,0.1-0.3,0.3-0.3c0.2,0,0.3,0.1,0.3,0.3c0,0.2-0.1,0.3-0.3,0.3
					C19.2,15.4,19.1,15.2,19.1,15.1z"/>
				<path fill="#37474F" d="M19.4,15.9c-0.4,0-0.8-0.4-0.8-0.8c0-0.4,0.4-0.8,0.8-0.8c0.2,0,0.4,0.1,0.6,0.3
					c0.2,0.2,0.2,0.4,0.2,0.6C20.2,15.5,19.8,15.9,19.4,15.9z M19.4,14.9c-0.1,0-0.2,0.1-0.2,0.2c0,0,0,0.1,0.1,0.1
					c0.1,0.1,0.3,0,0.3-0.1C19.6,15,19.5,14.9,19.4,14.9z"/>
			</g>
			<g>
				<path fill="#37474F" d="M16.9,15.1c0-0.2,0.1-0.3,0.3-0.3c0.2,0,0.3,0.1,0.3,0.3c0,0.2-0.1,0.3-0.3,0.3
					C17,15.4,16.9,15.2,16.9,15.1z"/>
				<path fill="#37474F" d="M17.2,15.9c-0.4,0-0.8-0.4-0.8-0.8c0-0.2,0.1-0.4,0.2-0.6c0.2-0.2,0.4-0.2,0.6-0.2
					c0.4,0,0.8,0.4,0.8,0.8C18,15.5,17.6,15.9,17.2,15.9z M17.2,14.9c-0.1,0-0.2,0.1-0.2,0.2c0,0.2,0.2,0.3,0.3,0.1
					c0,0,0.1-0.1,0.1-0.1C17.4,15,17.3,14.9,17.2,14.9z"/>
			</g>
			<g>
				<path fill="#37474F" d="M14.7,15.1c0-0.2,0.1-0.3,0.3-0.3c0.2,0,0.3,0.1,0.3,0.3c0,0.2-0.1,0.3-0.3,0.3
					C14.9,15.4,14.7,15.2,14.7,15.1z"/>
				<path fill="#37474F" d="M15,15.9c-0.4,0-0.8-0.4-0.8-0.8c0-0.4,0.4-0.8,0.8-0.8c0.4,0,0.8,0.4,0.8,0.8
					C15.9,15.5,15.5,15.9,15,15.9z M15,14.9c-0.1,0-0.2,0.1-0.2,0.2c0,0.2,0.4,0.2,0.4,0C15.2,15,15.2,14.9,15,14.9z"/>
			</g>
		</g>
		<g>
			<g>
				<line fill="#FFAB00" x1="9.5" y1="27.5" x2="9.5" y2="24.5"/>
				<path fill="#37474F" d="M9.5,28C9.2,28,9,27.8,9,27.5v-3C9,24.2,9.2,24,9.5,24s0.5,0.2,0.5,0.5v3C10,27.8,9.8,28,9.5,28z"/>
			</g>
			<g>
				<line fill="#FFAB00" x1="11.5" y1="27.5" x2="11.5" y2="24.5"/>
				<path fill="#37474F" d="M11.5,28c-0.3,0-0.5-0.2-0.5-0.5v-3c0-0.3,0.2-0.5,0.5-0.5s0.5,0.2,0.5,0.5v3C12,27.8,11.8,28,11.5,28z"
					/>
			</g>
		</g>
	</g>
	<g>
		<circle fill="#78909C" cx="11.3" cy="5.4" r="2"/>
		<path fill="#37474F" d="M11.3,7.9c-1.4,0-2.5-1.1-2.5-2.5C8.8,4.1,9.9,3,11.3,3c1.4,0,2.5,1.1,2.5,2.5C13.8,6.8,12.6,7.9,11.3,7.9
			z M11.3,4c-0.8,0-1.5,0.7-1.5,1.5c0,0.8,0.7,1.5,1.5,1.5c0.8,0,1.5-0.7,1.5-1.5C12.8,4.6,12.1,4,11.3,4z"/>
	</g>
</g>
</svg>
