<?xml version="1.0" encoding="utf-8"?>
<!-- Generator: Adobe Illustrator 16.0.0, SVG Export Plug-In . SVG Version: 6.00 Build 0)  -->
<!DOCTYPE svg PUBLIC "-//W3C//DTD SVG 1.1//EN" "http://www.w3.org/Graphics/SVG/1.1/DTD/svg11.dtd">
<svg version="1.1" id="Layer_1" xmlns="http://www.w3.org/2000/svg" xmlns:xlink="http://www.w3.org/1999/xlink" x="0px" y="0px"
	 width="32px" height="32px" viewBox="0 0 32 32" enable-background="new 0 0 32 32" xml:space="preserve">
<g>
	<g>
		<polygon fill="#37474F" points="16.6,19.9 15.6,15.5 14.5,19.9 		"/>
		<path fill="#37474F" d="M16.6,20.4h-2.1c-0.2,0-0.3-0.1-0.4-0.2c-0.1-0.1-0.1-0.3-0.1-0.4l1-4.4c0.1-0.2,0.3-0.4,0.5-0.4
			c0,0,0,0,0,0c0.2,0,0.4,0.2,0.5,0.4l1,4.4c0,0.1,0,0.3-0.1,0.4C16.9,20.3,16.7,20.4,16.6,20.4z M15.2,19.4H16l-0.4-1.7L15.2,19.4z
			"/>
	</g>
	<g>
		<g>
			<g>
				<rect x="4" y="1.5" fill="#37474F" width="23.1" height="13.5"/>
				<path fill="#37474F" d="M27.2,15.5H4c-0.3,0-0.5-0.2-0.5-0.5V1.5C3.5,1.3,3.7,1,4,1h23.1c0.3,0,0.5,0.2,0.5,0.5V15
					C27.7,15.3,27.4,15.5,27.2,15.5z M4.5,14.5h22.1V2H4.5V14.5z"/>
			</g>
			<g>
				<rect x="5.5" y="2" fill="#B0BEC5" width="20.2" height="11.6"/>
			</g>
			<g>
				<polygon fill="#FFFFFF" points="15.9,14.6 15.6,15 15.2,14.6 15.6,14.3 				"/>
			</g>
			<g>
				<defs>
					<rect id="SVGID_1_" x="5.5" y="2" width="20.2" height="11.6"/>
				</defs>
				<clipPath id="SVGID_2_">
					<use xlink:href="#SVGID_1_"  overflow="visible"/>
				</clipPath>
				<g clip-path="url(#SVGID_2_)">
					<polygon fill="#FFFFFF" points="21.1,-2.3 4.4,14.4 -0.1,9.8 16.6,-6.9 					"/>
				</g>
				<g clip-path="url(#SVGID_2_)">
					
						<rect x="13.4" y="8.5" transform="matrix(0.707 -0.7072 0.7072 0.707 -0.9345 21.2482)" fill="#FFFFFF" width="23.6" height="6.4"/>
				</g>
				<g clip-path="url(#SVGID_2_)">
					
						<rect x="5.2" y="6" transform="matrix(0.7072 -0.707 0.707 0.7072 -0.2585 14.2298)" fill="#FFFFFF" width="23.6" height="2.9"/>
				</g>
				<g clip-path="url(#SVGID_2_)">
					<polygon fill="#FFFFFF" points="30.1,-1.1 13.4,15.6 12.9,15.2 29.6,-1.5 					"/>
				</g>
			</g>
		</g>
		<g>
			<g>
				<path fill="#37474F" d="M17.8,8.5c0-0.2,0.2-0.4,0.4-0.4c0.2,0,0.4,0.2,0.4,0.4c0,0.2-0.2,0.4-0.4,0.4C18,8.8,17.8,8.7,17.8,8.5
					z"/>
				<path fill="#37474F" d="M18.2,9.3c-0.5,0-0.9-0.4-0.9-0.9c0-0.5,0.4-0.9,0.9-0.9c0.2,0,0.5,0.1,0.6,0.3C19,8,19.1,8.2,19.1,8.5
					C19.1,8.9,18.7,9.3,18.2,9.3L18.2,9.3z"/>
			</g>
			<g>
				<path fill="#37474F" d="M15.2,8.5c0-0.2,0.2-0.4,0.4-0.4c0.2,0,0.4,0.2,0.4,0.4c0,0.2-0.2,0.4-0.4,0.4
					C15.4,8.8,15.2,8.7,15.2,8.5z"/>
				<path fill="#37474F" d="M15.6,9.3L15.6,9.3c-0.5,0-0.9-0.4-0.9-0.9c0-0.5,0.4-0.9,0.9-0.9c0.5,0,0.9,0.4,0.9,0.9
					C16.4,9,16,9.3,15.6,9.3z"/>
			</g>
			<g>
				<path fill="#37474F" d="M12.6,8.5c0-0.2,0.2-0.4,0.4-0.4c0.2,0,0.4,0.2,0.4,0.4c0,0.2-0.2,0.4-0.4,0.4
					C12.7,8.8,12.6,8.7,12.6,8.5z"/>
				<path fill="#37474F" d="M12.9,9.3L12.9,9.3L12.9,9.3c-0.5,0-0.9-0.4-0.9-0.9c0-0.5,0.4-0.9,0.9-0.9c0.5,0,0.9,0.4,0.9,0.9
					C13.8,8.9,13.4,9.3,12.9,9.3z M12.9,8.6l0,0.3L12.9,8.6c0.1,0,0.1-0.1,0.1-0.1c0-0.1-0.1-0.1-0.1-0.1v0c0,0,0,0,0,0v0
					c-0.1,0-0.1,0.1-0.1,0.1C12.8,8.5,12.9,8.6,12.9,8.6z"/>
			</g>
		</g>
	</g>
	<g>
		<g>
			<g>
				<g>
					<path fill="#37474F" d="M3,28.8c-1.4,0-2.4-1.1-2.4-2.7v-7.5c0-1.6,1-2.7,2.4-2.7c1.4,0,2.4,1.1,2.4,2.7v7.5
						C5.5,27.7,4.5,28.8,3,28.8z M3,16.9c-1.1,0-1.4,0.9-1.4,1.7v7.5c0,0.8,0.4,1.7,1.4,1.7c1.1,0,1.4-0.9,1.4-1.7v-7.5
						C4.5,17.9,4.1,16.9,3,16.9z"/>
				</g>
				<g>
					<g>
						<path fill="#FFAB00" d="M4,19.3c0,0.5-0.4,1-1,1c-0.5,0-1-0.4-1-1c0-0.6,0.4-1,1-1C3.6,18.3,4,18.7,4,19.3z"/>
						<path fill="#37474F" d="M3,20.8c-0.8,0-1.5-0.7-1.5-1.5c0-0.8,0.7-1.5,1.5-1.5c0.8,0,1.5,0.7,1.5,1.5
							C4.5,20.1,3.8,20.8,3,20.8z M3,18.8c-0.3,0-0.5,0.2-0.5,0.5c0,0.3,0.2,0.5,0.5,0.5c0.3,0,0.5-0.2,0.5-0.5
							C3.5,19,3.3,18.8,3,18.8z"/>
					</g>
					<g>
						<line fill="#FFAB00" x1="3" y1="20.3" x2="3" y2="28.1"/>
						<path fill="#37474F" d="M3,28.6c-0.3,0-0.5-0.2-0.5-0.5v-7.7c0-0.3,0.2-0.5,0.5-0.5s0.5,0.2,0.5,0.5v7.7
							C3.5,28.3,3.3,28.6,3,28.6z"/>
					</g>
				</g>
			</g>
			<g>
				<path fill="#FFAB00" d="M5,29.5c0,0.5-0.4,1-0.9,1H1.9c-0.5,0-0.9-0.5-0.9-1l0,0c0-0.5,0.4-1,0.9-1h2.2C4.6,28.5,5,29,5,29.5
					L5,29.5z"/>
				<path fill="#37474F" d="M4.1,31H1.9c-0.8,0-1.4-0.7-1.4-1.5c0-0.8,0.6-1.5,1.4-1.5h2.2c0.8,0,1.4,0.7,1.4,1.5
					C5.5,30.3,4.9,31,4.1,31z M1.9,29c-0.2,0-0.4,0.2-0.4,0.5c0,0.2,0.2,0.5,0.4,0.5h2.2c0.2,0,0.4-0.2,0.4-0.5
					c0-0.2-0.2-0.5-0.4-0.5H1.9z"/>
			</g>
		</g>
	</g>
	<g>
		<g>
			<g>
				<g>
					<path fill="#37474F" d="M27.8,28.8c-1.4,0-2.4-1.1-2.4-2.7v-7.5c0-1.6,1-2.7,2.4-2.7c1.4,0,2.4,1.1,2.4,2.7v7.5
						C30.2,27.7,29.2,28.8,27.8,28.8z M27.8,16.9c-1.1,0-1.4,0.9-1.4,1.7v7.5c0,0.8,0.4,1.7,1.4,1.7c1.1,0,1.4-0.9,1.4-1.7v-7.5
						C29.2,17.9,28.8,16.9,27.8,16.9z"/>
				</g>
				<g>
					<g>
						<path fill="#FFAB00" d="M28.7,19.3c0,0.5-0.4,1-1,1c-0.5,0-1-0.4-1-1c0-0.6,0.4-1,1-1C28.3,18.3,28.7,18.7,28.7,19.3z"/>
						<path fill="#37474F" d="M27.7,20.8c-0.8,0-1.5-0.7-1.5-1.5c0-0.8,0.7-1.5,1.5-1.5c0.8,0,1.5,0.7,1.5,1.5
							C29.2,20.1,28.5,20.8,27.7,20.8z M27.7,18.8c-0.3,0-0.5,0.2-0.5,0.5c0,0.3,0.2,0.5,0.5,0.5c0.3,0,0.5-0.2,0.5-0.5
							C28.2,19,28,18.8,27.7,18.8z"/>
					</g>
					<g>
						<line fill="#FFAB00" x1="27.8" y1="20.3" x2="27.8" y2="28.1"/>
						<path fill="#37474F" d="M27.8,28.6c-0.3,0-0.5-0.2-0.5-0.5v-7.7c0-0.3,0.2-0.5,0.5-0.5s0.5,0.2,0.5,0.5v7.7
							C28.3,28.3,28,28.6,27.8,28.6z"/>
					</g>
				</g>
			</g>
			<g>
				<path fill="#FFAB00" d="M29.7,29.5c0,0.5-0.4,1-0.9,1h-2.2c-0.5,0-0.9-0.5-0.9-1l0,0c0-0.5,0.4-1,0.9-1h2.2
					C29.3,28.5,29.7,29,29.7,29.5L29.7,29.5z"/>
				<path fill="#37474F" d="M28.8,31h-2.2c-0.8,0-1.4-0.7-1.4-1.5c0-0.8,0.6-1.5,1.4-1.5h2.2c0.8,0,1.4,0.7,1.4,1.5
					C30.2,30.3,29.6,31,28.8,31z M26.6,29c-0.2,0-0.4,0.2-0.4,0.5c0,0.2,0.2,0.5,0.4,0.5h2.2c0.2,0,0.4-0.2,0.4-0.5
					c0-0.2-0.2-0.5-0.4-0.5H26.6z"/>
			</g>
		</g>
	</g>
	<g>
		<rect x="7.9" y="24.7" fill="#78909C" width="15.4" height="5.8"/>
		<path fill="#37474F" d="M23.8,31H7.4v-6.8h16.4V31z M8.4,30h14.4v-4.8H8.4V30z"/>
	</g>
	<g>
		<rect x="7.9" y="19.9" fill="#B0BEC5" width="15.4" height="4.8"/>
		<path fill="#37474F" d="M23.3,25.2H7.9c-0.3,0-0.5-0.2-0.5-0.5v-4.8c0-0.3,0.2-0.5,0.5-0.5h15.4c0.3,0,0.5,0.2,0.5,0.5v4.8
			C23.8,25,23.6,25.2,23.3,25.2z M8.4,24.2h14.4v-3.8H8.4V24.2z"/>
	</g>
	<g>
		<g>
			<rect x="9.3" y="22.3" fill="#37474F" width="10.6" height="1"/>
		</g>
		<g>
			<circle fill="#37474F" cx="20.7" cy="22.2" r="0.9"/>
		</g>
	</g>
	<g>
		<g>
			<rect x="11.2" y="27.1" fill="#37474F" width="10.6" height="1"/>
		</g>
		<g>
			<path fill="#37474F" d="M11.2,27.5c0-0.5-0.4-0.9-0.9-0.9c-0.5,0-0.9,0.4-0.9,0.9c0,0.5,0.4,0.9,0.9,0.9
				C10.9,28.3,11.2,27.9,11.2,27.5z"/>
		</g>
	</g>
</g>
</svg>
