<?xml version="1.0" encoding="utf-8"?>
<!-- Generator: Adobe Illustrator 16.0.0, SVG Export Plug-In . SVG Version: 6.00 Build 0)  -->
<!DOCTYPE svg PUBLIC "-//W3C//DTD SVG 1.1//EN" "http://www.w3.org/Graphics/SVG/1.1/DTD/svg11.dtd">
<svg version="1.1" id="Layer_1" xmlns="http://www.w3.org/2000/svg" xmlns:xlink="http://www.w3.org/1999/xlink" x="0px" y="0px"
	 width="32px" height="32px" viewBox="0 0 32 32" enable-background="new 0 0 32 32" xml:space="preserve">
<g>
	<g>
		<polygon fill="#FFAB00" points="14.7,4.3 14.7,2 17.3,2 17.9,2 19.7,2 19.7,4 		"/>
		<path fill="#37474F" d="M14.7,4.8c-0.1,0-0.2,0-0.3-0.1c-0.1-0.1-0.2-0.2-0.2-0.4V2c0-0.3,0.2-0.5,0.5-0.5h5
			c0.3,0,0.5,0.2,0.5,0.5v2c0,0.3-0.2,0.5-0.5,0.5L14.7,4.8C14.7,4.8,14.7,4.8,14.7,4.8z M15.2,2.5v1.3l4-0.3v-1H15.2z"/>
	</g>
	<g>
		<path fill="#FFFFFF" d="M27.4,4H4.8c-2,0-3.2,1.3-3.2,3.3V8h17.2c2,0,3.8,1.6,3.8,3v13.5c0,1.4-1.8,2.5-3.8,2.5H1.3
			c0.3,2,1.7,3,3.5,3h22.5c2,0,3.3-1.6,3.3-3.6V7.3C30.7,5.3,29.4,4,27.4,4z"/>
		<path fill="#37474F" d="M27.4,30.5H4.8c-2.2,0-3.7-1.3-4-3.4c0-0.1,0-0.3,0.1-0.4c0.1-0.1,0.2-0.2,0.4-0.2h17.6c1.8,0,3.3-1,3.3-2
			V11c0-1.1-1.6-2.5-3.3-2.5H1.7C1.4,8.5,1.2,8.3,1.2,8V7.3c0-2.3,1.4-3.8,3.7-3.8h22.5c2.3,0,3.8,1.5,3.8,3.8v19.1
			C31.2,28.8,29.6,30.5,27.4,30.5z M1.9,27.5c0.4,1.3,1.4,2,2.9,2h22.5c1.7,0,2.8-1.3,2.8-3.1V7.3c0-1.7-1.1-2.8-2.8-2.8H4.8
			c-1.7,0-2.7,1-2.7,2.8v0.2h16.7c2.2,0,4.3,1.7,4.3,3.5v13.5c0,1.7-1.9,3-4.3,3H1.9z"/>
	</g>
	<g>
		<path fill="#FFAB00" d="M2,18c0,5,3.9,8.4,8.7,8.4c4.8,0,8.6-3.4,8.7-8.4H2z"/>
		<path fill="#37474F" d="M10.7,26.9c-5.3,0-9.1-3.7-9.2-8.8c0-0.1,0.1-0.3,0.1-0.4c0.1-0.1,0.2-0.1,0.4-0.1h17.4
			c0.1,0,0.3,0.1,0.4,0.1c0.1,0.1,0.1,0.2,0.1,0.4C19.8,23.1,16,26.9,10.7,26.9z M2.5,18.5c0.3,4.3,3.6,7.4,8.2,7.4
			c4.5,0,7.9-3.1,8.2-7.4H2.5z"/>
	</g>
	<g>
		<rect x="6.7" y="9" fill="#B0BEC5" width="8" height="2"/>
		<path fill="#37474F" d="M14.7,11.5h-8c-0.3,0-0.5-0.2-0.5-0.5V9c0-0.3,0.2-0.5,0.5-0.5h8c0.3,0,0.5,0.2,0.5,0.5v2
			C15.2,11.3,15,11.5,14.7,11.5z M7.2,10.5h7v-1h-7V10.5z"/>
	</g>
	<g>
		<g>
			<line fill="#FFAB00" x1="25.2" y1="10" x2="28.2" y2="10"/>
			<path fill="#37474F" d="M28.2,10.5h-3c-0.3,0-0.5-0.2-0.5-0.5s0.2-0.5,0.5-0.5h3c0.3,0,0.5,0.2,0.5,0.5S28.5,10.5,28.2,10.5z"/>
		</g>
		<g>
			<line fill="#FFAB00" x1="25.2" y1="14" x2="28.2" y2="14"/>
			<path fill="#37474F" d="M28.2,14.5h-3c-0.3,0-0.5-0.2-0.5-0.5s0.2-0.5,0.5-0.5h3c0.3,0,0.5,0.2,0.5,0.5S28.5,14.5,28.2,14.5z"/>
		</g>
	</g>
	<g>
		
			<rect x="26.2" y="21.8" transform="matrix(0.7064 -0.7078 0.7078 0.7064 -8.0153 25.6264)" fill="#FFFFFF" width="1.4" height="1.4"/>
		<path fill="#37474F" d="M26.9,23.9c-0.1,0-0.3-0.1-0.4-0.1l-1-1c-0.2-0.2-0.2-0.5,0-0.7l1-1c0.1-0.1,0.2-0.1,0.4-0.1l0,0
			c0.1,0,0.3,0.1,0.4,0.1l1,1c0.2,0.2,0.2,0.5,0,0.7l-1,1C27.1,23.9,27,23.9,26.9,23.9L26.9,23.9z M26.6,22.5l0.3,0.3l0.3-0.3
			l-0.3-0.3L26.6,22.5z"/>
	</g>
	<g>
		<g>
			<path fill="#37474F" d="M28.7,18c0-0.2,0.2-0.4,0.4-0.4c0.2,0,0.4,0.2,0.4,0.4c0,0.2-0.2,0.4-0.4,0.4
				C28.9,18.3,28.7,18.2,28.7,18z"/>
			<path fill="#37474F" d="M29.1,18.8c-0.5,0-0.9-0.4-0.9-0.9c0-0.5,0.4-0.9,0.9-0.9c0.2,0,0.5,0.1,0.6,0.3c0.2,0.2,0.2,0.4,0.2,0.6
				C29.9,18.4,29.6,18.8,29.1,18.8z M29.1,17.8c-0.1,0-0.1,0.1-0.1,0.1c0,0,0,0.1,0,0.1c0.1,0.1,0.2,0,0.2-0.1
				C29.2,17.9,29.2,17.8,29.1,17.8z"/>
		</g>
		<g>
			<path fill="#37474F" d="M26.3,18c0-0.2,0.2-0.4,0.3-0.4c0.2,0,0.4,0.2,0.4,0.4c0,0.2-0.2,0.4-0.4,0.4
				C26.4,18.3,26.3,18.2,26.3,18z"/>
			<path fill="#37474F" d="M26.6,18.8c-0.5,0-0.8-0.4-0.8-0.9c0-0.2,0.1-0.4,0.2-0.6c0.2-0.2,0.4-0.3,0.6-0.3c0.5,0,0.8,0.4,0.9,0.8
				C27.5,18.5,27.1,18.8,26.6,18.8z M26.6,17.8c-0.1,0-0.1,0-0.1,0.1c0,0.2,0.2,0.2,0.2,0.1c0,0,0-0.1,0-0.1
				C26.8,17.9,26.7,17.8,26.6,17.8z"/>
		</g>
		<g>
			<path fill="#37474F" d="M23.8,18c0-0.2,0.2-0.4,0.4-0.4c0.2,0,0.4,0.2,0.4,0.4c0,0.2-0.2,0.4-0.4,0.4C24,18.3,23.8,18.2,23.8,18z
				"/>
			<path fill="#37474F" d="M24.2,18.8c-0.5,0-0.9-0.4-0.9-0.9c0-0.5,0.4-0.9,0.9-0.9c0.5,0,0.9,0.4,0.9,0.9
				C25,18.4,24.6,18.8,24.2,18.8z M24.2,17.8c-0.1,0-0.1,0.1-0.1,0.1c0,0.2,0.3,0.2,0.3,0C24.3,17.9,24.2,17.8,24.2,17.8z"/>
		</g>
	</g>
	<g>
		<line fill="#B0BEC5" x1="10.7" y1="14.5" x2="10.7" y2="11.5"/>
		<path fill="#37474F" d="M10.7,15c-0.3,0-0.5-0.2-0.5-0.5v-3c0-0.3,0.2-0.5,0.5-0.5s0.5,0.2,0.5,0.5v3C11.2,14.8,11,15,10.7,15z"/>
	</g>
	<g>
		<path fill="#B0BEC5" d="M13.2,15.5c0,0.4-0.3,0.5-0.7,0.5H8.9c-0.4,0-0.7-0.1-0.7-0.5l0,0c0-0.4,0.3-0.5,0.7-0.5h3.5
			C12.9,15,13.2,15.1,13.2,15.5L13.2,15.5z"/>
		<path fill="#37474F" d="M12.5,16.5H8.9c-1.1,0-1.2-0.8-1.2-1c0-0.2,0.1-1,1.2-1h3.5c1.1,0,1.2,0.8,1.2,1
			C13.7,15.7,13.6,16.5,12.5,16.5z M8.9,15.5h3.5H8.9z"/>
	</g>
	<g>
		<path fill="#B0BEC5" d="M13.2,17c0,0.4-0.3,1-0.7,1H8.9c-0.4,0-0.7-0.6-0.7-1l0,0c0-0.4,0.3-1,0.7-1h3.5
			C12.9,16,13.2,16.6,13.2,17L13.2,17z"/>
		<path fill="#37474F" d="M12.5,18.5H8.9c-0.7,0-1.2-0.9-1.2-1.5c0-0.6,0.5-1.5,1.2-1.5h3.5c0.7,0,1.2,0.9,1.2,1.5
			C13.7,17.6,13.2,18.5,12.5,18.5z M12.4,16.5l-3.5,0c-0.1,0-0.2,0.3-0.2,0.5c0,0.2,0.2,0.5,0.3,0.5l3.5,0c0.1-0.1,0.2-0.3,0.2-0.5
			C12.7,16.8,12.5,16.5,12.4,16.5z"/>
	</g>
	<g>
		<polyline fill="#FFFFFF" points="3.2,21.5 7.2,21.5 7.2,23.6 11.2,19.6 13.4,21.5 14.8,21.5 15.9,22.5 17.2,22.5 		"/>
	</g>
</g>
</svg>
