<?xml version="1.0" encoding="utf-8"?>
<!-- Generator: Adobe Illustrator 16.0.0, SVG Export Plug-In . SVG Version: 6.00 Build 0)  -->
<!DOCTYPE svg PUBLIC "-//W3C//DTD SVG 1.1//EN" "http://www.w3.org/Graphics/SVG/1.1/DTD/svg11.dtd">
<svg version="1.1" id="Layer_1" xmlns="http://www.w3.org/2000/svg" xmlns:xlink="http://www.w3.org/1999/xlink" x="0px" y="0px"
	 width="65px" height="65px" viewBox="0 0 65 65" enable-background="new 0 0 65 65" xml:space="preserve">
<g>
	<g>
		<circle fill="#FFECB3" cx="35.2" cy="28.7" r="9.8"/>
		<path fill="#37474F" d="M35.2,39.5c-5.9,0-10.8-4.8-10.8-10.8c0-5.9,4.8-10.8,10.8-10.8c5.9,0,10.8,4.8,10.8,10.8
			C46,34.6,41.2,39.5,35.2,39.5z M35.2,19.9c-4.8,0-8.8,3.9-8.8,8.8c0,4.8,3.9,8.8,8.8,8.8c4.8,0,8.8-3.9,8.8-8.8
			C44,23.8,40.1,19.9,35.2,19.9z"/>
	</g>
	<g>
		<path fill="#FFAB00" d="M54.5,23.5H43.7c0.8,2,1.3,3.2,1.3,5s-0.5,4-1.3,5h10.8"/>
		<path fill="#37474F" d="M54.5,34.5H43.7c-0.4,0-0.7-0.2-0.9-0.6c-0.2-0.4-0.1-0.8,0.1-1.1c0.6-0.7,1.1-2.6,1.1-4.4
			c0-1.6-0.4-2.6-1.2-4.6c-0.1-0.3-0.1-0.7,0.1-0.9s0.5-0.4,0.8-0.4h10.8c0.6,0,1,0.4,1,1s-0.4,1-1,1h-9.3c0.5,1.3,0.8,2.5,0.8,4
			c0,1.2-0.2,2.7-0.7,4h9.2c0.6,0,1,0.4,1,1S55.1,34.5,54.5,34.5z"/>
	</g>
	<g>
		<path fill="#FFECB3" d="M47.5,8.2c0,1.8-1.5,3.3-3.3,3.3H26.8c-1.8,0-3.3-1.5-3.3-3.3V7.8c0-1.8,1.5-3.3,3.3-3.3h17.5
			c1.8,0,3.3,1.5,3.3,3.3V8.2z"/>
		<path fill="#37474F" d="M44.2,12.5H26.8c-2.4,0-4.3-1.9-4.3-4.3V7.8c0-2.4,1.9-4.3,4.3-4.3h17.5c2.4,0,4.3,1.9,4.3,4.3v0.5
			C48.5,10.6,46.6,12.5,44.2,12.5z M26.8,5.5c-1.2,0-2.3,1-2.3,2.3v0.5c0,1.2,1,2.3,2.3,2.3h17.5c1.2,0,2.3-1,2.3-2.3V7.8
			c0-1.2-1-2.3-2.3-2.3H26.8z"/>
	</g>
	<g>
		<g>
			<path fill="#FFECB3" d="M17.2,6.6L17.2,6.6c0-2.8,2.3-5.1,5.1-5.1"/>
			<path fill="#37474F" d="M17.2,7.6c-0.6,0-1-0.4-1-1c0-3.4,2.8-6.1,6.1-6.1c0.6,0,1,0.4,1,1s-0.4,1-1,1c-2.3,0-4.1,1.9-4.1,4.1
				C18.2,7.2,17.8,7.6,17.2,7.6z"/>
		</g>
		<g>
			<path fill="#FFECB3" d="M53.2,9.6L53.2,9.6c0,2.8-2.3,5.1-5.1,5.1"/>
			<path fill="#37474F" d="M48.1,15.8c-0.6,0-1-0.4-1-1s0.4-1,1-1c2.3,0,4.1-1.9,4.1-4.1c0-0.6,0.4-1,1-1s1,0.4,1,1
				C54.2,13,51.5,15.8,48.1,15.8z"/>
		</g>
	</g>
	<g>
		<line fill="#FFECB3" x1="35.5" y1="12.5" x2="35.5" y2="18.5"/>
		<path fill="#37474F" d="M35.5,19.5c-0.6,0-1-0.4-1-1v-6c0-0.6,0.4-1,1-1s1,0.4,1,1v6C36.5,19.1,36.1,19.5,35.5,19.5z"/>
	</g>
	<g>
		<path fill="#FFFFFF" d="M22.5,33.5h9.3c0.2,0,0.7-0.4,0.7-0.4v-3.9c0-2.7-2.4-4.7-5.1-4.7H16c-2.7,0-4.5,2-4.5,4.7v4.3"/>
		<path fill="#37474F" d="M31.8,34.5h-9.3c-0.6,0-1-0.4-1-1s0.4-1,1-1h9v-3.3c0-2-1.8-3.7-4.1-3.7H16c-2.1,0-3.5,1.4-3.5,3.7v4.3
			c0,0.6-0.4,1-1,1s-1-0.4-1-1v-4.3c0-3.3,2.2-5.7,5.5-5.7h11.4c3.4,0,6.1,2.5,6.1,5.7v3.9c0,0.3-0.2,0.7-0.5,0.9c0,0,0,0,0,0
			C32.6,34.3,32.2,34.5,31.8,34.5z"/>
	</g>
	<g>
		<path fill="#FFECB3" d="M24,36c0,1.3-1,2.5-2.3,2.5h-10c-1.3,0-2.3-1.2-2.3-2.5l0,0c0-1.3,1-2.5,2.3-2.5h10C23,33.5,24,34.7,24,36
			L24,36z"/>
		<path fill="#37474F" d="M21.7,39.5h-10c-1.8,0-3.3-1.6-3.3-3.5s1.5-3.5,3.3-3.5h10c1.8,0,3.3,1.6,3.3,3.5S23.5,39.5,21.7,39.5z
			 M11.6,34.5c-0.7,0-1.3,0.7-1.3,1.5s0.6,1.5,1.3,1.5h10c0.7,0,1.3-0.7,1.3-1.5s-0.6-1.5-1.3-1.5H11.6z"/>
	</g>
	<g>
		<path fill="#FFECB3" d="M48.2,24c2.6,2.6,2.6,6.8,0,9.4"/>
		<path fill="#37474F" d="M48.2,34.4c-0.3,0-0.5-0.1-0.7-0.3c-0.4-0.4-0.4-1,0-1.4c2.2-2.2,2.2-5.8,0-8c-0.4-0.4-0.4-1,0-1.4
			s1-0.4,1.4,0c3,3,3,7.9,0,10.9C48.7,34.3,48.5,34.4,48.2,34.4z"/>
	</g>
	<g>
		<path fill="#FFECB3" d="M53.7,24c2.6,2.6,2.6,6.8,0,9.4"/>
		<path fill="#37474F" d="M53.7,34.4c-0.3,0-0.5-0.1-0.7-0.3c-0.4-0.4-0.4-1,0-1.4c2.2-2.2,2.2-5.8,0-8c-0.4-0.4-0.4-1,0-1.4
			s1-0.4,1.4,0c3,3,3,7.9,0,10.9C54.2,34.3,54,34.4,53.7,34.4z"/>
	</g>
	<g>
		<path fill="#FFAB00" d="M22.3,54.7L22.3,54.7l-5.7-13.5L11,54.7l0,0c-0.4,0.8-0.6,1.7-0.6,2.6c0,3.4,2.8,6.2,6.2,6.2
			c3.4,0,6.2-2.8,6.2-6.2C22.9,56.4,22.7,55.5,22.3,54.7z"/>
		<path fill="#37474F" d="M16.7,64.5c-4,0-7.2-3.2-7.2-7.2c0-1,0.2-1.9,0.6-2.8c0-0.1,0-0.1,0.1-0.2l5.7-13.4
			c0.2-0.4,0.5-0.6,0.9-0.6l0,0c0.4,0,0.8,0.2,0.9,0.6l5.7,13.4c0,0.1,0.1,0.1,0.1,0.2c0.4,0.9,0.5,1.8,0.5,2.8
			C23.9,61.3,20.7,64.5,16.7,64.5z M12,54.9c0,0.1,0,0.2-0.1,0.2c-0.3,0.7-0.5,1.4-0.5,2.2c0,2.9,2.3,5.2,5.2,5.2s5.2-2.3,5.2-5.2
			c0-0.7-0.2-1.5-0.5-2.2c0-0.1-0.1-0.2-0.1-0.3l-4.7-11.1L12,54.9z"/>
	</g>
</g>
</svg>
