<?xml version="1.0" encoding="utf-8"?>
<!-- Generator: Adobe Illustrator 16.0.0, SVG Export Plug-In . SVG Version: 6.00 Build 0)  -->
<!DOCTYPE svg PUBLIC "-//W3C//DTD SVG 1.1//EN" "http://www.w3.org/Graphics/SVG/1.1/DTD/svg11.dtd">
<svg version="1.1" id="Layer_1" xmlns="http://www.w3.org/2000/svg" xmlns:xlink="http://www.w3.org/1999/xlink" x="0px" y="0px"
	 width="129px" height="129px" viewBox="0 0 129 129" enable-background="new 0 0 129 129" xml:space="preserve">
<g>
	<g>
		<polyline fill="#FFECB3" points="120.5,8.5 120.5,122.5 8.5,122.5 8.5,8.5 		"/>
		<path fill="#37474F" d="M120.5,124.5H8.5c-1.1,0-2-0.9-2-2V8.5c0-1.1,0.9-2,2-2s2,0.9,2,2v112h108V8.5c0-1.1,0.9-2,2-2s2,0.9,2,2
			v114C122.5,123.6,121.6,124.5,120.5,124.5z"/>
	</g>
	<g>
		<line fill="#FFECB3" x1="2.5" y1="122.5" x2="126.5" y2="122.5"/>
		<path fill="#37474F" d="M126.5,124.5H2.5c-1.1,0-2-0.9-2-2s0.9-2,2-2h124c1.1,0,2,0.9,2,2S127.6,124.5,126.5,124.5z"/>
	</g>
	<g>
		<g>
			<polyline fill="#FFECB3" points="13.5,72.5 64.5,72.5 64.5,92.5 13.5,92.5 			"/>
			<path fill="#37474F" d="M64.5,94.5h-51c-1.1,0-2-0.9-2-2s0.9-2,2-2h49v-16h-49c-1.1,0-2-0.9-2-2s0.9-2,2-2h51c1.1,0,2,0.9,2,2v20
				C66.5,93.6,65.6,94.5,64.5,94.5z"/>
		</g>
		<g>
			<polyline fill="#B0BEC5" points="116.5,92.5 64.5,92.5 64.5,72.5 116.5,72.5 			"/>
			<path fill="#37474F" d="M116.5,94.5h-52c-1.1,0-2-0.9-2-2v-20c0-1.1,0.9-2,2-2h52c1.1,0,2,0.9,2,2s-0.9,2-2,2h-50v16h50
				c1.1,0,2,0.9,2,2S117.6,94.5,116.5,94.5z"/>
		</g>
	</g>
	<g>
		<g>
			<polyline fill="#FFECB3" points="12.5,33.5 64.5,33.5 64.5,52.5 12.5,52.5 			"/>
			<path fill="#37474F" d="M64.5,54.5h-52c-1.1,0-2-0.9-2-2s0.9-2,2-2h50v-15h-50c-1.1,0-2-0.9-2-2s0.9-2,2-2h52c1.1,0,2,0.9,2,2v19
				C66.5,53.6,65.6,54.5,64.5,54.5z"/>
		</g>
		<g>
			<polyline fill="#FFECB3" points="116.5,52.5 64.5,52.5 64.5,33.5 116.5,33.5 			"/>
			<path fill="#37474F" d="M116.5,54.5h-52c-1.1,0-2-0.9-2-2v-19c0-1.1,0.9-2,2-2h52c1.1,0,2,0.9,2,2s-0.9,2-2,2h-50v15h50
				c1.1,0,2,0.9,2,2S117.6,54.5,116.5,54.5z"/>
		</g>
	</g>
	<g>
		<g>
			<rect x="38.5" y="53.5" fill="#FFECB3" width="52" height="19"/>
			<path fill="#37474F" d="M90.5,74.5h-52c-1.1,0-2-0.9-2-2v-19c0-1.1,0.9-2,2-2h52c1.1,0,2,0.9,2,2v19
				C92.5,73.6,91.6,74.5,90.5,74.5z M40.5,70.5h48v-15h-48V70.5z"/>
		</g>
		<g>
			<rect x="9.5" y="53.5" fill="#B0BEC5" width="28" height="19"/>
			<path fill="#37474F" d="M37.5,74.5h-28c-1.1,0-2-0.9-2-2v-19c0-1.1,0.9-2,2-2h28c1.1,0,2,0.9,2,2v19
				C39.5,73.6,38.6,74.5,37.5,74.5z M11.5,70.5h24v-15h-24V70.5z"/>
		</g>
		<g>
			<rect x="91.5" y="53.5" fill="#FFECB3" width="28" height="19"/>
			<path fill="#37474F" d="M119.5,74.5h-28c-1.1,0-2-0.9-2-2v-19c0-1.1,0.9-2,2-2h28c1.1,0,2,0.9,2,2v19
				C121.5,73.6,120.6,74.5,119.5,74.5z M93.5,70.5h24v-15h-24V70.5z"/>
		</g>
	</g>
	<g>
		<g>
			<rect x="38.5" y="92.5" fill="#78909C" width="52" height="19"/>
			<path fill="#37474F" d="M90.5,113.5h-52c-1.1,0-2-0.9-2-2v-19c0-1.1,0.9-2,2-2h52c1.1,0,2,0.9,2,2v19
				C92.5,112.6,91.6,113.5,90.5,113.5z M40.5,109.5h48v-15h-48V109.5z"/>
		</g>
		<g>
			<rect x="9.5" y="92.5" fill="#FFAB00" width="28" height="19"/>
			<path fill="#37474F" d="M37.5,113.5h-28c-1.1,0-2-0.9-2-2v-19c0-1.1,0.9-2,2-2h28c1.1,0,2,0.9,2,2v19
				C39.5,112.6,38.6,113.5,37.5,113.5z M11.5,109.5h24v-15h-24V109.5z"/>
		</g>
		<g>
			<rect x="91.5" y="92.5" fill="#FFECB3" width="28" height="19"/>
			<path fill="#37474F" d="M119.5,113.5h-28c-1.1,0-2-0.9-2-2v-19c0-1.1,0.9-2,2-2h28c1.1,0,2,0.9,2,2v19
				C121.5,112.6,120.6,113.5,119.5,113.5z M93.5,109.5h24v-15h-24V109.5z"/>
		</g>
	</g>
	<g>
		<g>
			<rect x="38.5" y="13.5" fill="#78909C" width="52" height="19"/>
			<path fill="#37474F" d="M90.5,34.5h-52c-1.1,0-2-0.9-2-2v-19c0-1.1,0.9-2,2-2h52c1.1,0,2,0.9,2,2v19
				C92.5,33.6,91.6,34.5,90.5,34.5z M40.5,30.5h48v-15h-48V30.5z"/>
		</g>
		<g>
			<rect x="9.5" y="13.5" fill="#FFECB3" width="28" height="19"/>
			<path fill="#37474F" d="M37.5,34.5h-28c-1.1,0-2-0.9-2-2v-19c0-1.1,0.9-2,2-2h28c1.1,0,2,0.9,2,2v19
				C39.5,33.6,38.6,34.5,37.5,34.5z M11.5,30.5h24v-15h-24V30.5z"/>
		</g>
		<g>
			<rect x="91.5" y="13.5" fill="#FFAB00" width="28" height="19"/>
			<path fill="#37474F" d="M119.5,34.5h-28c-1.1,0-2-0.9-2-2v-19c0-1.1,0.9-2,2-2h28c1.1,0,2,0.9,2,2v19
				C121.5,33.6,120.6,34.5,119.5,34.5z M93.5,30.5h24v-15h-24V30.5z"/>
		</g>
	</g>
</g>
</svg>
