<?xml version="1.0" encoding="utf-8"?>
<!-- Generator: Adobe Illustrator 16.0.0, SVG Export Plug-In . SVG Version: 6.00 Build 0)  -->
<!DOCTYPE svg PUBLIC "-//W3C//DTD SVG 1.1//EN" "http://www.w3.org/Graphics/SVG/1.1/DTD/svg11.dtd">
<svg version="1.1" id="Layer_1" xmlns="http://www.w3.org/2000/svg" xmlns:xlink="http://www.w3.org/1999/xlink" x="0px" y="0px"
	 width="33px" height="33px" viewBox="0 0 33 33" enable-background="new 0 0 33 33" xml:space="preserve">
<g>
	<g>
		<polygon fill="#FFECB3" points="3.1,8.8 16.5,1.1 29.9,8.8 29.9,24.2 16.5,31.9 3.1,24.2 		"/>
		<path fill="#37474F" d="M16.5,32.4c-0.1,0-0.2,0-0.2-0.1L2.9,24.6c-0.2-0.1-0.2-0.3-0.2-0.4V8.8c0-0.2,0.1-0.3,0.2-0.4l13.4-7.7
			c0.2-0.1,0.3-0.1,0.5,0l13.4,7.7c0.2,0.1,0.2,0.3,0.2,0.4v15.4c0,0.2-0.1,0.3-0.2,0.4l-13.4,7.7C16.7,32.4,16.6,32.4,16.5,32.4z
			 M3.6,23.9l12.9,7.4l12.9-7.4V9.1L16.5,1.7L3.6,9.1V23.9z"/>
	</g>
	<g>
		<polyline fill="#FFECB3" points="29.9,8.9 16.5,16.6 3.1,8.9 		"/>
		<path fill="#37474F" d="M16.5,17.1c-0.1,0-0.2,0-0.2-0.1L2.9,9.3C2.7,9.2,2.6,8.9,2.7,8.7c0.1-0.2,0.4-0.3,0.7-0.2L16.5,16
			l13.1-7.6c0.2-0.1,0.5-0.1,0.7,0.2c0.1,0.2,0.1,0.5-0.2,0.7l-13.4,7.7C16.7,17.1,16.6,17.1,16.5,17.1z"/>
	</g>
	<g>
		<line fill="#FFECB3" x1="16.5" y1="16.6" x2="16.5" y2="31.9"/>
		<path fill="#37474F" d="M16.5,32.4c-0.3,0-0.5-0.2-0.5-0.5V16.6c0-0.3,0.2-0.5,0.5-0.5s0.5,0.2,0.5,0.5v15.3
			C17,32.2,16.8,32.4,16.5,32.4z"/>
	</g>
	<g>
		<g>
			<line fill="#FFECB3" x1="28.1" y1="22.3" x2="21.5" y2="26.1"/>
			<path fill="#37474F" d="M21.5,26.6c-0.2,0-0.3-0.1-0.4-0.2c-0.1-0.2-0.1-0.5,0.2-0.7l6.6-3.8c0.2-0.1,0.5-0.1,0.7,0.2
				c0.1,0.2,0.1,0.5-0.2,0.7l-6.6,3.8C21.7,26.5,21.6,26.6,21.5,26.6z"/>
		</g>
		<g>
			<g>
				<line fill="#FFECB3" x1="23.3" y1="20.2" x2="23.3" y2="24.8"/>
				<path fill="#37474F" d="M23.3,25.3c-0.3,0-0.5-0.2-0.5-0.5v-4.6c0-0.3,0.2-0.5,0.5-0.5s0.5,0.2,0.5,0.5v4.6
					C23.8,25,23.6,25.3,23.3,25.3z"/>
			</g>
			<g>
				<polyline fill="#FFECB3" points="21.9,21 23.3,19.6 24.7,21 				"/>
				<path fill="#37474F" d="M24.7,21.5c-0.1,0-0.3,0-0.4-0.1l-1-1l-1,1c-0.2,0.2-0.5,0.2-0.7,0s-0.2-0.5,0-0.7l1.4-1.4
					c0.1-0.1,0.2-0.1,0.4-0.1l0,0c0.1,0,0.3,0.1,0.4,0.1l1.4,1.4c0.2,0.2,0.2,0.5,0,0.7C24.9,21.4,24.8,21.5,24.7,21.5z"/>
			</g>
		</g>
		<g>
			<g>
				<line fill="#FFECB3" x1="26.2" y1="18.6" x2="26.2" y2="23.1"/>
				<path fill="#37474F" d="M26.2,23.6c-0.3,0-0.5-0.2-0.5-0.5v-4.6c0-0.3,0.2-0.5,0.5-0.5s0.5,0.2,0.5,0.5v4.6
					C26.7,23.4,26.4,23.6,26.2,23.6z"/>
			</g>
			<g>
				<polyline fill="#FFECB3" points="24.8,19.3 26.2,18 27.5,19.3 				"/>
				<path fill="#37474F" d="M27.5,19.8c-0.1,0-0.3,0-0.4-0.1l-1-1l-1,1c-0.2,0.2-0.5,0.2-0.7,0s-0.2-0.5,0-0.7l1.4-1.4
					c0.1-0.1,0.2-0.1,0.4-0.1l0,0c0.1,0,0.3,0.1,0.4,0.1l1.4,1.4c0.2,0.2,0.2,0.5,0,0.7C27.8,19.8,27.7,19.8,27.5,19.8z"/>
			</g>
		</g>
	</g>
</g>
</svg>
