<?xml version="1.0" encoding="utf-8"?>
<!-- Generator: Adobe Illustrator 16.0.0, SVG Export Plug-In . SVG Version: 6.00 Build 0)  -->
<!DOCTYPE svg PUBLIC "-//W3C//DTD SVG 1.1//EN" "http://www.w3.org/Graphics/SVG/1.1/DTD/svg11.dtd">
<svg version="1.1" id="Layer_1" xmlns="http://www.w3.org/2000/svg" xmlns:xlink="http://www.w3.org/1999/xlink" x="0px" y="0px"
	 width="128px" height="128px" viewBox="0 0 128 128" enable-background="new 0 0 128 128" xml:space="preserve">
<g>
	<g>
		<path fill="#FFECB3" d="M115.6,61.3c-0.2-28-19.4-50.7-43.1-50.7c-23.7,0-42.9,22.7-43.1,50.7H115.6z"/>
		<path fill="#37474F" d="M115.6,62.8H29.4c-0.4,0-0.8-0.2-1.1-0.4c-0.3-0.3-0.4-0.7-0.4-1.1C28.1,32.6,48.1,9.2,72.5,9.2
			c24.4,0,44.4,23.4,44.6,52.2c0,0.4-0.2,0.8-0.4,1.1C116.4,62.7,116,62.8,115.6,62.8z M30.9,59.8h83.1
			c-0.9-26.4-19.2-47.7-41.6-47.7C50.2,12.2,31.8,33.4,30.9,59.8z"/>
	</g>
	<g>
		<path fill="#B0BEC5" d="M15.5,69.6c-1.9-2-3.2-4.4-4.3-6.9l-8.1,4.4c-0.5,2-0.7,4.1-0.7,6.3c0,16.7,14.2,30.1,32.2,30.2V76.8
			C27.6,77.3,20.6,75.1,15.5,69.6z"/>
		<path fill="#37474F" d="M34.6,105.2C34.6,105.2,34.6,105.2,34.6,105.2C15.7,105,0.9,91.1,0.9,73.4c0-2.3,0.3-4.5,0.8-6.6
			c0.1-0.4,0.4-0.8,0.7-1l8.1-4.4c0.4-0.2,0.8-0.2,1.2-0.1c0.4,0.1,0.7,0.4,0.9,0.8c1.2,2.8,2.5,4.9,4,6.5c4.1,4.4,9.7,6.7,15.9,6.7
			c0.7,0,1.3,0,2-0.1c0.4,0,0.8,0.1,1.1,0.4c0.3,0.3,0.5,0.7,0.5,1.1v26.9c0,0.4-0.2,0.8-0.4,1.1C35.4,105,35,105.2,34.6,105.2z
			 M4.4,68.2c-0.4,1.7-0.5,3.5-0.5,5.3c0,15.5,12.7,27.9,29.2,28.7V78.3c-7.3,0.2-13.9-2.6-18.7-7.7c-1.5-1.6-2.7-3.4-3.9-5.8
			L4.4,68.2z"/>
	</g>
	<g>
		<path fill="#FFFFFF" d="M125,111.3c-0.2-34-23.6-62.5-52.5-62.5c-28.9,0-52.3,28.5-52.5,62.5H125z"/>
		<path fill="#37474F" d="M125,112.8H20c-0.4,0-0.8-0.2-1.1-0.4c-0.3-0.3-0.4-0.7-0.4-1.1c0.3-35.3,24.5-64,54-64
			c29.5,0,53.7,28.7,54,64c0,0.4-0.2,0.8-0.4,1.1C125.8,112.7,125.4,112.8,125,112.8z M21.5,109.8h101.9
			c-0.9-32.9-23.5-59.5-51-59.5C45.1,50.4,22.4,76.9,21.5,109.8z"/>
	</g>
	<g>
		<rect x="19.6" y="111.3" fill="#B0BEC5" width="106" height="6"/>
		<path fill="#37474F" d="M125.6,118.8h-106c-0.8,0-1.5-0.7-1.5-1.5v-6c0-0.8,0.7-1.5,1.5-1.5h106c0.8,0,1.5,0.7,1.5,1.5v6
			C127.1,118.2,126.4,118.8,125.6,118.8z M21.1,115.8h103v-3h-103V115.8z"/>
	</g>
	<g>
		<path fill="#FFAB00" d="M108.7,67.3c-9.4-11-22.1-17.5-36.2-17.5c-14.1,0-26.8,6.5-36.2,17.5H108.7z"/>
		<path fill="#37474F" d="M108.7,68.8H36.3c-0.6,0-1.1-0.3-1.4-0.9c-0.2-0.5-0.2-1.2,0.2-1.6c10-11.6,23.2-18,37.3-18
			c14.1,0,27.4,6.4,37.3,18c0.4,0.4,0.5,1.1,0.2,1.6C109.8,68.5,109.3,68.8,108.7,68.8z M39.7,65.8h65.6
			c-9.1-9.4-20.6-14.5-32.8-14.5C60.3,51.3,48.8,56.5,39.7,65.8z"/>
	</g>
	<g>
		<polygon fill="#37474F" points="72.5,55.3 65.6,48.5 72.5,41.6 79.4,48.5 		"/>
		<path fill="#37474F" d="M72.5,56.8c-0.4,0-0.8-0.1-1.1-0.4l-6.9-6.9c-0.3-0.3-0.4-0.7-0.4-1.1s0.2-0.8,0.4-1.1l6.9-6.9
			c0.3-0.3,0.7-0.4,1.1-0.4c0,0,0,0,0,0c0.4,0,0.8,0.2,1.1,0.4l6.9,6.9c0.6,0.6,0.6,1.5,0,2.1l-6.9,6.9
			C73.3,56.7,72.9,56.8,72.5,56.8z M67.7,48.5l4.8,4.8l4.8-4.8l-4.8-4.8L67.7,48.5z"/>
	</g>
	<g>
		<g>
			<g>
				<path fill="#37474F" d="M52.9,90.2c0-0.8,0.7-1.4,1.4-1.4c0.8,0,1.4,0.6,1.4,1.4c0,0.8-0.6,1.4-1.4,1.4
					C53.6,91.6,52.9,90.9,52.9,90.2z"/>
				<path fill="#37474F" d="M54.3,92.1c-1,0-1.9-0.9-1.9-1.9c0-1.1,0.9-1.9,1.9-1.9c0.5,0,1,0.2,1.4,0.6c0.4,0.4,0.5,0.8,0.5,1.3
					C56.2,91.2,55.4,92.1,54.3,92.1z M54.3,89.2c-0.5,0-0.9,0.4-0.9,0.9c0,0.5,0.4,0.9,0.9,0.9c0.5,0,0.9-0.4,0.9-0.9
					c0-0.2-0.1-0.5-0.2-0.6C54.8,89.3,54.6,89.2,54.3,89.2z"/>
			</g>
			<g>
				<path fill="#37474F" d="M43.1,90.2c0-0.8,0.6-1.4,1.4-1.4c0.8,0,1.4,0.6,1.4,1.4c0,0.8-0.6,1.4-1.4,1.4
					C43.7,91.6,43.1,90.9,43.1,90.2z"/>
				<path fill="#37474F" d="M44.4,92.1c-1,0-1.9-0.9-1.9-1.9c0-0.5,0.2-1,0.5-1.3c0.4-0.4,0.9-0.6,1.4-0.6c1.1,0,1.9,0.8,1.9,1.9
					C46.3,91.2,45.5,92.1,44.4,92.1z M44.4,89.2c-0.2,0-0.5,0.1-0.6,0.3c-0.2,0.2-0.2,0.4-0.2,0.6c0,0.5,0.4,0.9,0.9,0.9
					c0.5,0,0.9-0.4,0.9-0.9C45.4,89.6,45,89.2,44.4,89.2z"/>
			</g>
			<g>
				<path fill="#37474F" d="M33.2,90.2c0-0.8,0.6-1.4,1.4-1.4c0.8,0,1.4,0.6,1.4,1.4c0,0.8-0.6,1.4-1.4,1.4
					C33.8,91.6,33.2,90.9,33.2,90.2z"/>
				<path fill="#37474F" d="M34.6,92.1c-1,0-1.9-0.9-1.9-1.9c0-1,0.9-1.9,1.9-1.9c1.1,0,1.9,0.8,1.9,1.9
					C36.5,91.2,35.6,92.1,34.6,92.1z M34.6,89.2c-0.5,0-0.9,0.4-0.9,0.9c0,0.5,0.4,0.9,0.9,0.9c0.5,0,0.9-0.4,0.9-0.9
					C35.5,89.6,35.1,89.2,34.6,89.2z"/>
			</g>
		</g>
		<g>
			<g>
				<path fill="#37474F" d="M81,90.2c0-0.8,0.7-1.4,1.4-1.4c0.8,0,1.5,0.6,1.4,1.4c0,0.8-0.6,1.4-1.4,1.4C81.6,91.6,81,90.9,81,90.2
					z"/>
				<path fill="#37474F" d="M82.4,92.1c-1,0-1.9-0.9-1.9-1.9c0-1.1,0.9-1.9,1.9-1.9c0.5,0,1,0.2,1.4,0.6c0.4,0.4,0.5,0.8,0.5,1.3
					C84.3,91.2,83.4,92.1,82.4,92.1z M82.4,89.2c-0.5,0-0.9,0.4-0.9,0.9c0,0.5,0.4,0.9,0.9,0.9c0.5,0,0.9-0.4,0.9-0.9
					c0-0.2-0.1-0.5-0.2-0.6C82.9,89.3,82.6,89.2,82.4,89.2z"/>
			</g>
			<g>
				<path fill="#37474F" d="M71.1,90.2c0-0.8,0.6-1.4,1.4-1.4c0.8,0,1.4,0.6,1.4,1.4c0,0.8-0.7,1.4-1.4,1.4
					C71.7,91.6,71.1,90.9,71.1,90.2z"/>
				<path fill="#37474F" d="M72.5,92.1c-1,0-1.9-0.9-1.9-1.9c0-0.5,0.2-1,0.5-1.3c0.4-0.4,0.9-0.6,1.4-0.6c1,0,1.9,0.8,1.9,1.9
					C74.4,91.2,73.5,92.1,72.5,92.1z M72.5,89.2c-0.2,0-0.5,0.1-0.6,0.3c-0.2,0.2-0.2,0.4-0.2,0.6c0,0.5,0.4,0.9,0.9,0.9
					c0.5,0,0.9-0.4,0.9-0.9C73.4,89.6,73,89.2,72.5,89.2z"/>
			</g>
			<g>
				<path fill="#37474F" d="M61.2,90.2c0-0.8,0.7-1.4,1.4-1.4c0.8,0,1.4,0.6,1.4,1.4c0,0.8-0.6,1.4-1.4,1.4
					C61.9,91.6,61.2,90.9,61.2,90.2z"/>
				<path fill="#37474F" d="M62.6,92.1c-1,0-1.9-0.9-1.9-1.9c0-1,0.9-1.9,1.9-1.9c1.1,0,1.9,0.8,1.9,1.9
					C64.5,91.2,63.7,92.1,62.6,92.1z M62.6,89.2c-0.5,0-0.9,0.4-0.9,0.9c0,0.5,0.4,0.9,0.9,0.9c0.5,0,0.9-0.4,0.9-0.9
					C63.5,89.6,63.1,89.2,62.6,89.2z"/>
			</g>
		</g>
		<g>
			<g>
				<path fill="#37474F" d="M109,90.2c0-0.8,0.7-1.4,1.4-1.4c0.8,0,1.4,0.6,1.4,1.4c0,0.8-0.6,1.4-1.4,1.4
					C109.7,91.6,109,90.9,109,90.2z"/>
				<path fill="#37474F" d="M110.4,92.1c-1,0-1.9-0.9-1.9-1.9c0-1.1,0.9-1.9,1.9-1.9c0.5,0,1,0.2,1.4,0.6c0.4,0.4,0.5,0.8,0.5,1.3
					C112.4,91.2,111.5,92.1,110.4,92.1z M110.4,89.2c-0.5,0-0.9,0.4-0.9,0.9c0,0.5,0.4,0.9,0.9,0.9c0.5,0,0.9-0.4,0.9-0.9
					c0-0.2-0.1-0.5-0.2-0.6C110.9,89.3,110.7,89.2,110.4,89.2z"/>
			</g>
			<g>
				<path fill="#37474F" d="M99.2,90.2c0-0.8,0.6-1.4,1.4-1.4c0.8,0,1.4,0.6,1.4,1.4c0,0.8-0.6,1.4-1.4,1.4
					C99.8,91.6,99.2,90.9,99.2,90.2z"/>
				<path fill="#37474F" d="M100.6,92.1c-1,0-1.9-0.9-1.9-1.9c0-0.5,0.2-1,0.5-1.3c0.4-0.4,0.9-0.6,1.4-0.6c1.1,0,1.9,0.8,1.9,1.9
					C102.5,91.2,101.6,92.1,100.6,92.1z M100.6,89.2c-0.2,0-0.5,0.1-0.6,0.3c-0.2,0.2-0.2,0.4-0.2,0.6c0,0.5,0.4,0.9,0.9,0.9
					c0.5,0,0.9-0.4,0.9-0.9C101.5,89.6,101.1,89.2,100.6,89.2z"/>
			</g>
			<g>
				<path fill="#37474F" d="M89.3,90.2c0-0.8,0.7-1.4,1.4-1.4c0.8,0,1.4,0.6,1.4,1.4c0,0.8-0.6,1.4-1.4,1.4
					C89.9,91.6,89.3,90.9,89.3,90.2z"/>
				<path fill="#37474F" d="M90.7,92.1c-1,0-1.9-0.9-1.9-1.9c0-1,0.9-1.9,1.9-1.9c1.1,0,1.9,0.8,1.9,1.9
					C92.6,91.2,91.7,92.1,90.7,92.1z M90.7,89.2c-0.5,0-0.9,0.4-0.9,0.9c0,0.5,0.4,0.9,0.9,0.9c0.5,0,0.9-0.4,0.9-0.9
					C91.6,89.6,91.2,89.2,90.7,89.2z"/>
			</g>
		</g>
	</g>
</g>
</svg>
