<?xml version="1.0" encoding="utf-8"?>
<!-- Generator: Adobe Illustrator 16.0.0, SVG Export Plug-In . SVG Version: 6.00 Build 0)  -->
<!DOCTYPE svg PUBLIC "-//W3C//DTD SVG 1.1//EN" "http://www.w3.org/Graphics/SVG/1.1/DTD/svg11.dtd">
<svg version="1.1" id="Layer_1" xmlns="http://www.w3.org/2000/svg" xmlns:xlink="http://www.w3.org/1999/xlink" x="0px" y="0px"
	 width="64px" height="64px" viewBox="0 0 64 64" enable-background="new 0 0 64 64" xml:space="preserve">
<g>
	<g>
		<g>
			<path fill="#B0BEC5" d="M8,36.3V2.9c0,0,6.7,3.5,7.1,11.7c0.3,8.2-0.1,11-0.1,11l-4.6,4.6l0,4.8l-1.9,1"/>
			<path fill="#37474F" d="M8.9,36.7l-0.2-0.4H7V1.3L8.5,2c0.3,0.2,7.3,3.9,7.6,12.5c0.3,8.2-0.1,11.1-0.1,11.2L15.9,26l-4.6,4.5
				l0,4.9L8.9,36.7z M9,4.8v29.6l0.3-0.2l0-4.6l4.7-4.6c0.1-0.9,0.3-4,0.1-10.5C13.9,9.4,10.9,6.2,9,4.8z"/>
		</g>
		<g>
			<path fill="#FFAB00" d="M6,38v19.7C6,59.5,7.7,61,9.5,61c1.8,0,3.5-1.5,3.5-3.3V38L6,38z"/>
			<path fill="#37474F" d="M9.5,62C7.1,62,5,60,5,57.7V38c0-0.6,0.4-1,1-1l7,0h0c0.3,0,0.5,0.1,0.7,0.3S14,37.7,14,38v19.7
				C14,60,12,62,9.5,62z M7,39v18.7C7,58.9,8.2,60,9.5,60c1.3,0,2.5-1.1,2.5-2.3V39L7,39z"/>
		</g>
		<g>
			<polygon fill="#FFECB3" points="14,38.3 5,38.3 5,34.8 14,34.7 			"/>
			<path fill="#37474F" d="M14.1,39.3C14.1,39.3,14,39.3,14.1,39.3H5c-0.6,0-1-0.4-1-1l0-3.5c0-0.5,0.4-1,1-1l9-0.1
				c0.2,0,0.5,0.1,0.7,0.3c0.2,0.2,0.3,0.4,0.3,0.7l0,3.4c0,0.1,0,0.1,0,0.2C15.1,38.9,14.6,39.3,14.1,39.3z M6,37.3h7l0-1.6l-7,0.1
				L6,37.3z"/>
		</g>
		<g>
			<line fill="#B0BEC5" x1="11.8" y1="11.4" x2="14.5" y2="14.1"/>
			<path fill="#37474F" d="M14.5,15.1c-0.3,0-0.5-0.1-0.7-0.3l-2.7-2.7c-0.4-0.4-0.4-1,0-1.4s1-0.4,1.4,0l2.7,2.7
				c0.4,0.4,0.4,1,0,1.4C15,15,14.7,15.1,14.5,15.1z"/>
		</g>
		<g>
			<line fill="#B0BEC5" x1="11.8" y1="15.1" x2="14.5" y2="17.8"/>
			<path fill="#37474F" d="M14.5,18.8c-0.3,0-0.5-0.1-0.7-0.3l-2.7-2.7c-0.4-0.4-0.4-1,0-1.4c0.4-0.4,1-0.4,1.4,0l2.7,2.7
				c0.4,0.4,0.4,1,0,1.4C15,18.7,14.7,18.8,14.5,18.8z"/>
		</g>
		<g>
			<line fill="#B0BEC5" x1="11.8" y1="18.9" x2="14.5" y2="21.6"/>
			<path fill="#37474F" d="M14.5,22.6c-0.3,0-0.5-0.1-0.7-0.3l-2.7-2.7c-0.4-0.4-0.4-1,0-1.4c0.4-0.4,1-0.4,1.4,0l2.7,2.7
				c0.4,0.4,0.4,1,0,1.4C15,22.5,14.7,22.6,14.5,22.6z"/>
		</g>
		<g>
			<line fill="#B0BEC5" x1="11.8" y1="22.6" x2="14.5" y2="25.3"/>
			<path fill="#37474F" d="M14.5,26.3c-0.3,0-0.5-0.1-0.7-0.3l-2.7-2.7c-0.4-0.4-0.4-1,0-1.4c0.4-0.4,1-0.4,1.4,0l2.7,2.7
				c0.4,0.4,0.4,1,0,1.4C15,26.2,14.7,26.3,14.5,26.3z"/>
		</g>
		<g>
			<g>
				<path fill="#37474F" d="M9.5,44.2c-0.4,0-0.7-0.3-0.7-0.7c0-0.4,0.3-0.7,0.7-0.7c0.4,0,0.7,0.3,0.7,0.7
					C10.2,43.9,9.9,44.2,9.5,44.2z"/>
				<path fill="#37474F" d="M9.5,44.7L9.5,44.7c-0.7,0-1.2-0.5-1.2-1.2c0-0.3,0.1-0.6,0.4-0.9c0.5-0.5,1.3-0.5,1.7,0
					c0.2,0.2,0.3,0.5,0.3,0.9c0,0.3-0.1,0.6-0.3,0.8C10.2,44.5,9.9,44.7,9.5,44.7z M9.5,43.3c-0.1,0-0.1,0-0.1,0.1s-0.1,0.1-0.1,0.2
					c0,0.2,0.3,0.3,0.4,0.1c0,0,0-0.1,0-0.1c0-0.1,0-0.2-0.1-0.2C9.6,43.3,9.6,43.3,9.5,43.3z"/>
			</g>
			<g>
				<path fill="#37474F" d="M9.5,49.1c-0.4,0-0.7-0.3-0.7-0.7c0-0.4,0.3-0.7,0.7-0.7c0.4,0,0.7,0.3,0.7,0.7
					C10.2,48.8,9.9,49.1,9.5,49.1z"/>
				<path fill="#37474F" d="M9.5,49.6c-0.3,0-0.6-0.1-0.9-0.4c-0.2-0.2-0.3-0.5-0.3-0.9c0-0.6,0.5-1.2,1.2-1.2
					c0.7,0,1.2,0.5,1.2,1.2C10.7,49.1,10.2,49.6,9.5,49.6L9.5,49.6z M9.5,48.2c-0.1,0-0.2,0.1-0.2,0.2c0,0.1,0,0.1,0.1,0.1
					c0,0,0.1,0.1,0.1,0.1v0.5l0-0.5c0.1,0,0.2-0.1,0.2-0.2C9.7,48.3,9.6,48.2,9.5,48.2z"/>
			</g>
			<g>
				<path fill="#37474F" d="M9.5,54c-0.4,0-0.7-0.3-0.7-0.7c0-0.4,0.3-0.7,0.7-0.7c0.4,0,0.7,0.3,0.7,0.7C10.2,53.7,9.9,54,9.5,54z"
					/>
				<path fill="#37474F" d="M9.5,54.5c-0.7,0-1.2-0.5-1.2-1.2c0-0.7,0.5-1.2,1.2-1.2c0.3,0,0.6,0.1,0.9,0.4c0.2,0.2,0.3,0.5,0.3,0.8
					c0,0.3-0.1,0.6-0.3,0.8C10.2,54.4,9.8,54.5,9.5,54.5z M9.5,53.1c-0.1,0-0.2,0.1-0.2,0.2c0,0.1,0.1,0.2,0.2,0.2
					c0.1,0,0.1,0,0.1-0.1s0.1-0.1,0.1-0.1c0-0.1,0-0.1-0.1-0.2C9.6,53.2,9.6,53.1,9.5,53.1L9.5,53.1z"/>
			</g>
		</g>
	</g>
	<g>
		<g>
			<polygon fill="#B0BEC5" points="26,37.4 23,37.4 23,24.1 26,24.1 			"/>
			<path fill="#37474F" d="M27,38.4l-5,0V23.1l5,0V38.4z M24,36.4l1,0V25.1l-1,0V36.4z"/>
		</g>
		<g>
			<g>
				<path fill="#FFAB00" d="M21.3,38.3l0,19.6c0,1.8,1.5,3.2,3.4,3.2s3.4-1.6,3.4-3.4V38.3H21.3z"/>
				<path fill="#37474F" d="M24.7,62.1c-1.2,0-2.3-0.5-3.1-1.3c-0.8-0.8-1.2-1.8-1.2-3l0-19.5c0-0.3,0.1-0.5,0.3-0.7
					s0.4-0.3,0.7-0.3H28c0.6,0,1,0.4,1,1v19.4C29,60.1,27,62.1,24.7,62.1z M22.3,39.3l0,18.6c0,0.6,0.2,1.1,0.6,1.5
					c0.4,0.4,1.1,0.7,1.7,0.7c1.3,0,2.4-1.1,2.4-2.4V39.3H22.3z"/>
			</g>
			<g>
				<polygon fill="#FFECB3" points="29,38.3 20,38.3 20,35 29,35 				"/>
				<path fill="#37474F" d="M29,39.3h-9c-0.6,0-1-0.4-1-1V35c0-0.3,0.1-0.5,0.3-0.7S19.8,34,20,34c0,0,0,0,0,0l9,0c0.6,0,1,0.4,1,1
					v3.3C30,38.9,29.6,39.3,29,39.3z M21,37.3h7V36l-7,0V37.3z"/>
			</g>
			<g>
				<g>
					<path fill="#37474F" d="M24.6,44.2c-0.4,0-0.7-0.3-0.7-0.7c0-0.4,0.3-0.7,0.7-0.7c0.4,0,0.7,0.3,0.7,0.7
						C25.3,43.9,25,44.2,24.6,44.2z"/>
					<path fill="#37474F" d="M24.6,44.7L24.6,44.7c-0.7,0-1.2-0.5-1.2-1.2c0-0.3,0.1-0.6,0.3-0.9c0.5-0.5,1.3-0.5,1.7,0
						c0.2,0.2,0.3,0.5,0.3,0.9c0,0.3-0.1,0.6-0.3,0.8C25.3,44.5,25,44.7,24.6,44.7z M24.6,43.3c-0.1,0-0.1,0-0.2,0.1
						c0,0-0.1,0.1-0.1,0.1c0,0.1,0.1,0.2,0.2,0.2c0.1,0,0.1,0,0.1-0.1c0,0,0.1-0.1,0.1-0.1c0-0.1,0-0.1-0.1-0.2
						C24.8,43.3,24.7,43.3,24.6,43.3L24.6,43.3z"/>
				</g>
				<g>
					<path fill="#37474F" d="M24.6,49.1c-0.4,0-0.7-0.3-0.7-0.7c0-0.4,0.3-0.7,0.7-0.7c0.4,0,0.7,0.3,0.7,0.7
						C25.3,48.8,25,49.1,24.6,49.1z"/>
					<path fill="#37474F" d="M24.6,49.6c-0.3,0-0.6-0.1-0.8-0.4c-0.2-0.2-0.3-0.5-0.3-0.9c0-0.7,0.5-1.2,1.2-1.2
						c0.7,0,1.2,0.5,1.2,1.2C25.8,49.1,25.3,49.6,24.6,49.6L24.6,49.6z M24.6,48.2c-0.1,0-0.2,0.1-0.2,0.2c0,0.1,0,0.1,0.1,0.2
						c0,0,0.1,0,0.1,0v0.5l0-0.5c0.1,0,0.2-0.1,0.2-0.2C24.8,48.3,24.7,48.2,24.6,48.2z"/>
				</g>
				<g>
					<path fill="#37474F" d="M24.6,54c-0.4,0-0.7-0.3-0.7-0.7c0-0.4,0.3-0.7,0.7-0.7c0.4,0,0.7,0.3,0.7,0.7C25.3,53.7,25,54,24.6,54
						z"/>
					<path fill="#37474F" d="M24.6,54.5c-0.7,0-1.2-0.5-1.2-1.2c0-0.7,0.5-1.2,1.2-1.2c0.3,0,0.6,0.1,0.9,0.4
						c0.2,0.2,0.4,0.5,0.3,0.9c0,0.3-0.1,0.6-0.3,0.9C25.3,54.4,25,54.5,24.6,54.5z M24.6,53.1c-0.1,0-0.2,0.1-0.2,0.2
						c0,0.1,0.1,0.2,0.2,0.2c0.1,0,0.1,0,0.1-0.1c0,0,0.1-0.1,0.1-0.1c0-0.1,0-0.1-0.1-0.2C24.8,53.2,24.7,53.1,24.6,53.1z"/>
				</g>
			</g>
		</g>
		<g>
			<path fill="#B0BEC5" d="M29,5.5c0-0.6-0.4-1-1-1c-0.6,0-1,0.5-1,1v9.8h-1V5.5c0-0.6-0.4-1-1-1c-0.6,0-1,0.5-1,1v9.8h-2V5.5
				c0-0.6-0.4-1-1-1c-0.6,0-1,0.5-1,1v13.4c0,0.1,0,0.2,0,0.3v4c0,1,0.7,2.2,1.7,2.2h5.8c1,0,1.5-1,1.5-2l0-3.4c0-0.1,0-0.9,0-1V5.5
				z"/>
			<path fill="#37474F" d="M27.5,26.3h-5.8c-1.6,0-2.7-1.7-2.7-3.2V5.5c0-1.1,0.9-2,2-2c1.1,0,2,0.9,2,2v8.8V5.5c0-1.1,0.9-2,2-2
				c0.6,0,1.1,0.3,1.5,0.7c0.4-0.4,0.9-0.7,1.5-0.7c1.1,0,2,0.9,2,2L30,19c0,0.6,0,0.8,0,0.9l0,3.4C30.1,25,29,26.3,27.5,26.3z
				 M21,16.3v6.8c0,0.6,0.4,1.2,0.7,1.2h5.8c0.4,0,0.5-0.6,0.5-1l0-3.5l0-0.1c0-0.1,0-0.5,0-0.7l0-2.7H21z"/>
		</g>
	</g>
	<g>
		<g>
			<path fill="#FFFFFF" d="M42,46.3v-39l0,0c-0.2-1-1.8-3-3.3-3h-3c-1.6,0-3,1.4-3,3c0,1.6,1.3,3,3,3H39v39l0,0
				c0.8,7,4.8,9.7,9.8,9.7c5.6,0,10.1-4.7,10.2-12.7H42z"/>
			<path fill="#37474F" d="M48.8,60c-6.1,0-10-3.7-10.8-10.6c0,0,0-0.1,0-0.1v-38h-2.3c-2.2,0-4-1.8-4-4c0-2.2,1.8-4,4-4h3
				c2.1,0,4,2.5,4.3,3.8c0,0.1,0,0.1,0,0.2v38h16c0.3,0,0.5,0.1,0.7,0.3S60,46,60,46.3C59.9,54.4,55.3,60,48.8,60z M40,49.2
				c0.7,5.8,3.7,8.7,8.8,8.7c5.2,0,8.8-4.2,9.2-10.7H42c-0.6,0-1-0.4-1-1V7.4c-0.2-0.7-1.5-2.1-2.3-2.1h-3c-1.1,0-2,0.9-2,2
				c0,1.1,0.9,2,2,2H39c0.6,0,1,0.4,1,1V49.2z"/>
		</g>
		<g>
			<path fill="#B0BEC5" d="M42.2,46.6c0,1.3,3.7,2.3,8.3,2.3c4.6,0,8.3-1,8.3-2.3c0-1.3-3.7-2.3-8.3-2.3
				C45.9,44.3,42.2,45.3,42.2,46.6z"/>
			<path fill="#37474F" d="M50.5,49.9c-1,0-9.3-0.1-9.3-3.3c0-3.2,8.4-3.3,9.3-3.3s9.3,0.1,9.3,3.3C59.8,49.9,51.4,49.9,50.5,49.9z
				 M43.2,46.6c0.6,0.5,3.3,1.3,7.2,1.3c4,0,6.6-0.8,7.2-1.3c-0.6-0.5-3.3-1.3-7.2-1.3C46.5,45.3,43.9,46.1,43.2,46.6z"/>
		</g>
	</g>
</g>
</svg>
