<?xml version="1.0" encoding="utf-8"?>
<!-- Generator: Adobe Illustrator 16.0.0, SVG Export Plug-In . SVG Version: 6.00 Build 0)  -->
<!DOCTYPE svg PUBLIC "-//W3C//DTD SVG 1.1//EN" "http://www.w3.org/Graphics/SVG/1.1/DTD/svg11.dtd">
<svg version="1.1" id="Layer_1" xmlns="http://www.w3.org/2000/svg" xmlns:xlink="http://www.w3.org/1999/xlink" x="0px" y="0px"
	 width="25px" height="25px" viewBox="0 0 25 25" enable-background="new 0 0 25 25" xml:space="preserve">
<g>
	<path d="M8.5,9.9h1.9c0.2,0,0.4-0.2,0.4-0.4s-0.2-0.4-0.4-0.4H8.9V7.6c0-0.2-0.2-0.4-0.4-0.4S8.1,7.4,8.1,7.6v1.9
		C8.1,9.7,8.3,9.9,8.5,9.9z"/>
	<path d="M11.6,9.9h1.9c0.2,0,0.4-0.2,0.4-0.4s-0.2-0.4-0.4-0.4h-1.5V7.6c0-0.2-0.2-0.4-0.4-0.4s-0.4,0.2-0.4,0.4v1.9
		C11.2,9.7,11.3,9.9,11.6,9.9z"/>
	<path d="M14.6,9.9h1.9c0.2,0,0.4-0.2,0.4-0.4s-0.2-0.4-0.4-0.4H15V7.6c0-0.2-0.2-0.4-0.4-0.4s-0.4,0.2-0.4,0.4v1.9
		C14.2,9.7,14.4,9.9,14.6,9.9z"/>
	<path d="M8.5,13.4h1.9c0.2,0,0.4-0.2,0.4-0.4s-0.2-0.4-0.4-0.4H8.9v-1.5c0-0.2-0.2-0.4-0.4-0.4s-0.4,0.2-0.4,0.4V13
		C8.1,13.2,8.3,13.4,8.5,13.4z"/>
	<path d="M11.6,13.4h1.9c0.2,0,0.4-0.2,0.4-0.4s-0.2-0.4-0.4-0.4h-1.5v-1.5c0-0.2-0.2-0.4-0.4-0.4s-0.4,0.2-0.4,0.4V13
		C11.2,13.2,11.3,13.4,11.6,13.4z"/>
	<path d="M14.6,13.4h1.9c0.2,0,0.4-0.2,0.4-0.4s-0.2-0.4-0.4-0.4H15v-1.5c0-0.2-0.2-0.4-0.4-0.4s-0.4,0.2-0.4,0.4V13
		C14.2,13.2,14.4,13.4,14.6,13.4z"/>
	<path d="M8.5,16.9h1.9c0.2,0,0.4-0.2,0.4-0.4s-0.2-0.4-0.4-0.4H8.9v-1.5c0-0.2-0.2-0.4-0.4-0.4s-0.4,0.2-0.4,0.4v1.9
		C8.1,16.7,8.3,16.9,8.5,16.9z"/>
	<path d="M11.6,16.9h1.9c0.2,0,0.4-0.2,0.4-0.4s-0.2-0.4-0.4-0.4h-1.5v-1.5c0-0.2-0.2-0.4-0.4-0.4s-0.4,0.2-0.4,0.4v1.9
		C11.2,16.7,11.3,16.9,11.6,16.9z"/>
	<path d="M14.6,16.9h1.9c0.2,0,0.4-0.2,0.4-0.4s-0.2-0.4-0.4-0.4H15v-1.5c0-0.2-0.2-0.4-0.4-0.4s-0.4,0.2-0.4,0.4v1.9
		C14.2,16.7,14.4,16.9,14.6,16.9z"/>
	<path d="M8.5,20.4h1.9c0.2,0,0.4-0.2,0.4-0.4s-0.2-0.4-0.4-0.4H8.9v-1.5c0-0.2-0.2-0.4-0.4-0.4s-0.4,0.2-0.4,0.4V20
		C8.1,20.2,8.3,20.4,8.5,20.4z"/>
	<path d="M11.6,20.4h1.9c0.2,0,0.4-0.2,0.4-0.4s-0.2-0.4-0.4-0.4h-1.5v-1.5c0-0.2-0.2-0.4-0.4-0.4s-0.4,0.2-0.4,0.4V20
		C11.2,20.2,11.3,20.4,11.6,20.4z"/>
	<path d="M14.6,20.4h1.9c0.2,0,0.4-0.2,0.4-0.4s-0.2-0.4-0.4-0.4H15v-1.5c0-0.2-0.2-0.4-0.4-0.4s-0.4,0.2-0.4,0.4V20
		C14.2,20.2,14.4,20.4,14.6,20.4z"/>
	<path d="M16.2,3.6h-1.3l-2-3.2c-0.1-0.1-0.2-0.2-0.4-0.2c0,0,0,0,0,0c-0.2,0-0.3,0.1-0.4,0.2L10,3.6c0,0,0,0,0,0H8.8
		c-0.3,0-0.5,0.2-0.5,0.5v1.2H7.2c-0.3,0-0.5,0.2-0.5,0.5v9.7h-4c-0.3,0-0.5,0.2-0.5,0.5v8.3c0,0.3,0.2,0.5,0.5,0.5h4.5c0,0,0,0,0,0
		s0,0,0,0h10.6c0,0,0,0,0,0s0,0,0,0h4.5c0.3,0,0.5-0.2,0.5-0.5v-8.3c0-0.3-0.2-0.5-0.5-0.5h-4V5.8c0-0.3-0.2-0.5-0.5-0.5h-1.1V4.1
		C16.7,3.8,16.5,3.6,16.2,3.6z M12.5,1.6l1.3,2.1h-2.7L12.5,1.6z M9.3,4.6h6.4v0.6H9.3V4.6z M6.7,19.5H5.4v-0.9h1.2V19.5z M4.4,19.5
		H3.2v-0.9h1.2V19.5z M3.2,20.5h1.2v0.9H3.2V20.5z M5.4,20.5h1.2v0.9H5.4V20.5z M6.7,17.6H5.4v-1.1h1.2V17.6z M4.4,16.4v1.1H3.2
		v-1.1H4.4z M3.2,22.4h1.2v1.3H3.2V22.4z M5.4,23.8v-1.3h1.2v1.3H5.4z M11.9,23.7v-2h1.2v2H11.9z M18.3,20.5h1.2v0.9h-1.2V20.5z
		 M20.6,20.5h1.2v0.9h-1.2V20.5z M21.8,19.5h-1.2v-0.9h1.2V19.5z M19.6,19.5h-1.2v-0.9h1.2V19.5z M18.3,22.4h1.2v1.3h-1.2V22.4z
		 M20.6,23.8v-1.3h1.2v1.3H20.6z M21.8,17.6h-1.2v-1.1h1.2V17.6z M19.6,16.4v1.1h-1.2v-1.1H19.6z M17.3,23.8h-0.6
		c0.1-0.1,0.1-0.2,0.1-0.3v-1.9c0-0.2-0.2-0.4-0.4-0.4s-0.4,0.2-0.4,0.4v1.9c0,0.1,0.1,0.2,0.1,0.3h-2.2v-2.6c0-0.3-0.2-0.5-0.5-0.5
		h-2.2c-0.3,0-0.5,0.2-0.5,0.5v2.6H8.7c0.1-0.1,0.1-0.2,0.1-0.3v-1.9c0-0.2-0.2-0.4-0.4-0.4s-0.4,0.2-0.4,0.4v1.9
		c0,0.1,0.1,0.2,0.1,0.3H7.7V6.3h9.6V23.8z"/>
</g>
</svg>
