<?xml version="1.0" encoding="utf-8"?>
<!-- Generator: Adobe Illustrator 16.0.0, SVG Export Plug-In . SVG Version: 6.00 Build 0)  -->
<!DOCTYPE svg PUBLIC "-//W3C//DTD SVG 1.1//EN" "http://www.w3.org/Graphics/SVG/1.1/DTD/svg11.dtd">
<svg version="1.1" id="Layer_1" xmlns="http://www.w3.org/2000/svg" xmlns:xlink="http://www.w3.org/1999/xlink" x="0px" y="0px"
	 width="128px" height="128px" viewBox="0 0 128 128" enable-background="new 0 0 128 128" xml:space="preserve">
<g>
	<g>
		<rect x="34" y="4" fill="#FFAB00" width="59" height="121"/>
		<path fill="#37474F" d="M93,127H34c-1.1,0-2-0.9-2-2V4c0-1.1,0.9-2,2-2h59c1.1,0,2,0.9,2,2v121C95,126.1,94.1,127,93,127z M36,123
			h55V6H36V123z"/>
	</g>
	<g>
		<rect x="46" y="16" fill="#FFECB3" width="35" height="63"/>
		<path fill="#37474F" d="M81,81H46c-1.1,0-2-0.9-2-2V16c0-1.1,0.9-2,2-2h35c1.1,0,2,0.9,2,2v63C83,80.1,82.1,81,81,81z M48,77h31
			V18H48V77z"/>
	</g>
	<g>
		<line fill="#FFFFFF" x1="17" y1="125" x2="109" y2="125"/>
		<path fill="#37474F" d="M109,127H17c-1.1,0-2-0.9-2-2s0.9-2,2-2h92c1.1,0,2,0.9,2,2S110.1,127,109,127z"/>
	</g>
	<g>
		<line fill="#FFECB3" x1="63" y1="16" x2="63" y2="78"/>
		<path fill="#37474F" d="M63,80c-1.1,0-2-0.9-2-2V16c0-1.1,0.9-2,2-2s2,0.9,2,2v62C65,79.1,64.1,80,63,80z"/>
	</g>
	<g>
		<line fill="#FFECB3" x1="44" y1="47" x2="82" y2="47"/>
		<path fill="#37474F" d="M82,49H44c-1.1,0-2-0.9-2-2s0.9-2,2-2h38c1.1,0,2,0.9,2,2S83.1,49,82,49z"/>
	</g>
	<g>
		<path fill="#B0BEC5" d="M81.1,96.1c0,3.6-2.9,6.4-6.4,6.4s-6.4-2.9-6.4-6.4s2.9-6.4,6.4-6.4"/>
		<path fill="#37474F" d="M74.6,104.5c-4.7,0-8.4-3.8-8.4-8.4s3.8-8.4,8.4-8.4c1.1,0,2,0.9,2,2s-0.9,2-2,2c-2.5,0-4.4,2-4.4,4.4
			s2,4.4,4.4,4.4c2.5,0,4.4-2,4.4-4.4c0-1.1,0.9-2,2-2s2,0.9,2,2C83.1,100.7,79.3,104.5,74.6,104.5z"/>
	</g>
</g>
</svg>
