<?xml version="1.0" encoding="utf-8"?>
<!-- Generator: Adobe Illustrator 16.0.0, SVG Export Plug-In . SVG Version: 6.00 Build 0)  -->
<!DOCTYPE svg PUBLIC "-//W3C//DTD SVG 1.1//EN" "http://www.w3.org/Graphics/SVG/1.1/DTD/svg11.dtd">
<svg version="1.1" id="Layer_1" xmlns="http://www.w3.org/2000/svg" xmlns:xlink="http://www.w3.org/1999/xlink" x="0px" y="0px"
	 width="24px" height="24px" viewBox="0 0 24 24" enable-background="new 0 0 24 24" xml:space="preserve">
<g>
	<path d="M22,7.8h-5.1h0H10H9C8.9,7.7,8.7,7.6,8.5,7.6c0,0,0,0,0,0L2.9,1h16.9v4.9c0,0.3,0.2,0.5,0.5,0.5s0.5-0.2,0.5-0.5V0.5
		c0-0.3-0.2-0.5-0.5-0.5H1.7C1.5,0,1.2,0.2,1.2,0.5V21c0,0.3,0.2,0.5,0.5,0.5h14.2v1h-1.5c-0.4,0-0.6,0.1-0.6,0.5
		c0,0.4,0.3,0.5,0.6,0.5h4.2c0.4,0,0.6-0.1,0.6-0.5c0-0.4-0.3-0.5-0.6-0.5h-1.7v-1h3.4c0.3,0,0.5-0.2,0.5-0.5v-4.4
		c0-0.3-0.2-0.5-0.5-0.5s-0.5,0.2-0.5,0.5v3.9h-2.9v-4.9H22c0.8,0,0.8-1.1,0.8-1.6v-2.3v-0.5V9C22.8,8.4,22.5,7.8,22,7.8z M21.7,8.8
		c0,0,0,0.1,0,0.2v0.8h-4.9v-1H21.7z M15.9,9.8h-4.6c-0.6,0-1.3,0.9-1.3,1.5v0.5h-1V8.8h1h5.8V9.8z M15.9,20.5H2.2v-0.2L8.5,13
		c0,0,0,0,0.1,0c0,0,0,0,0,0c0.2,0,0.3-0.1,0.4-0.3h1v1.4c0,0.5,0.6,1.6,1.3,1.6h4.6V20.5z M21.8,14.1c0,0.3,0,0.5,0,0.6H11.4
		c-0.1-0.1-0.3-0.4-0.3-0.6v-2.8c0-0.1,0.2-0.5,0.3-0.5h10.4c0,0.1,0,0.3,0,0.5v0.5V14.1z"/>
	<path d="M20.6,11.9c-0.4,0-0.8,0.4-0.8,0.8c0,0.4,0.4,0.8,0.8,0.8h0c0.4,0,0.8-0.4,0.8-0.8c0-0.2-0.1-0.4-0.2-0.6
		C21,12,20.8,11.9,20.6,11.9z"/>
	<path d="M18.5,11.9c-0.2,0-0.4,0.1-0.6,0.2c-0.2,0.2-0.2,0.4-0.2,0.6c0,0.4,0.4,0.8,0.8,0.8h0c0.4,0,0.8-0.4,0.8-0.8
		C19.3,12.2,18.9,11.9,18.5,11.9z"/>
	<path d="M16.5,11.9c-0.4,0-0.8,0.4-0.8,0.8c0,0.4,0.4,0.8,0.8,0.8h0c0.4,0,0.8-0.4,0.8-0.8C17.2,12.3,16.9,11.9,16.5,11.9z
		 M16.5,13L16.5,13L16.5,13L16.5,13z"/>
	<path d="M13.5,11.3c-0.3,0-0.5,0.2-0.5,0.5v2c0,0.3,0.2,0.5,0.5,0.5S14,14,14,13.7v-2C14,11.5,13.7,11.3,13.5,11.3z"/>
</g>
</svg>
