<?xml version="1.0" encoding="utf-8"?>
<!-- Generator: Adobe Illustrator 16.0.0, SVG Export Plug-In . SVG Version: 6.00 Build 0)  -->
<!DOCTYPE svg PUBLIC "-//W3C//DTD SVG 1.1//EN" "http://www.w3.org/Graphics/SVG/1.1/DTD/svg11.dtd">
<svg version="1.1" id="Layer_1" xmlns="http://www.w3.org/2000/svg" xmlns:xlink="http://www.w3.org/1999/xlink" x="0px" y="0px"
	 width="32px" height="32px" viewBox="0 0 32 32" enable-background="new 0 0 32 32" xml:space="preserve">
<g>
	<g>
		<line fill="#FFFFFF" x1="4.5" y1="31" x2="4.5" y2="1"/>
		<path fill="#37474F" d="M4.5,31.5C4.2,31.5,4,31.3,4,31V1c0-0.3,0.2-0.5,0.5-0.5S5,0.7,5,1v30C5,31.3,4.8,31.5,4.5,31.5z"/>
	</g>
	<g>
		<line fill="#FFFFFF" x1="31" y1="2.5" x2="1" y2="2.5"/>
		<path fill="#37474F" d="M31,3H1C0.7,3,0.5,2.8,0.5,2.5S0.7,2,1,2h30c0.3,0,0.5,0.2,0.5,0.5S31.3,3,31,3z"/>
	</g>
	<g>
		<polyline fill="#FFECB3" points="28,8.5 30.5,8.5 30.5,20.5 7.5,20.5 7.5,8.5 11,8.5 		"/>
		<path fill="#37474F" d="M30.5,21h-23C7.2,21,7,20.8,7,20.5v-12C7,8.2,7.2,8,7.5,8H11c0.3,0,0.5,0.2,0.5,0.5S11.3,9,11,9H8v11h22V9
			h-2c-0.3,0-0.5-0.2-0.5-0.5S27.7,8,28,8h2.5C30.8,8,31,8.2,31,8.5v12C31,20.8,30.8,21,30.5,21z"/>
	</g>
	<g>
		<line fill="#FFECB3" x1="16" y1="8.5" x2="23" y2="8.5"/>
		<path fill="#37474F" d="M23,9h-7c-0.3,0-0.5-0.2-0.5-0.5S15.7,8,16,8h7c0.3,0,0.5,0.2,0.5,0.5S23.3,9,23,9z"/>
	</g>
	<g>
		<g>
			<circle fill="#FFECB3" cx="13.3" cy="9" r="1.4"/>
			<path fill="#37474F" d="M13.3,10.9c-1.1,0-1.9-0.9-1.9-1.9c0-1.1,0.9-1.9,1.9-1.9c1.1,0,1.9,0.9,1.9,1.9
				C15.2,10.1,14.3,10.9,13.3,10.9z M13.3,8c-0.5,0-0.9,0.4-0.9,0.9c0,0.5,0.4,0.9,0.9,0.9c0.5,0,0.9-0.4,0.9-0.9
				C14.2,8.5,13.8,8,13.3,8z"/>
		</g>
		<g>
			<circle fill="#FFECB3" cx="25.4" cy="9" r="1.4"/>
			<path fill="#37474F" d="M25.4,10.9c-1.1,0-1.9-0.9-1.9-1.9c0-1.1,0.9-1.9,1.9-1.9s1.9,0.9,1.9,1.9C27.4,10.1,26.5,10.9,25.4,10.9
				z M25.4,8c-0.5,0-0.9,0.4-0.9,0.9c0,0.5,0.4,0.9,0.9,0.9s0.9-0.4,0.9-0.9C26.4,8.5,25.9,8,25.4,8z"/>
		</g>
	</g>
	<g>
		<line fill="#FFECB3" x1="13.3" y1="5" x2="13.3" y2="7"/>
		<path fill="#37474F" d="M13.3,7.5c-0.3,0-0.5-0.2-0.5-0.5V5c0-0.3,0.2-0.5,0.5-0.5s0.5,0.2,0.5,0.5v2C13.8,7.3,13.5,7.5,13.3,7.5z
			"/>
	</g>
	<g>
		<line fill="#FFECB3" x1="25.5" y1="5" x2="25.5" y2="7"/>
		<path fill="#37474F" d="M25.5,7.5C25.2,7.5,25,7.3,25,7V5c0-0.3,0.2-0.5,0.5-0.5S26,4.7,26,5v2C26,7.3,25.8,7.5,25.5,7.5z"/>
	</g>
	<g>
		<g>
			<path fill="#37474F" d="M10.3,16.1c0.3,0.2,0.7,0.3,1.1,0.3c0.6,0,1-0.3,1-0.8c0-0.5-0.3-0.7-0.9-1c-0.8-0.3-1.3-0.7-1.3-1.4
				c0-0.8,0.6-1.3,1.6-1.3c0.5,0,0.9,0.1,1.1,0.2l-0.2,0.5c-0.2-0.1-0.5-0.2-0.9-0.2c-0.7,0-0.9,0.4-0.9,0.7c0,0.5,0.3,0.7,1,0.9
				c0.8,0.3,1.2,0.7,1.2,1.4c0,0.8-0.6,1.4-1.7,1.4c-0.5,0-1-0.1-1.2-0.3L10.3,16.1z"/>
			<path fill="#37474F" d="M11.4,17.4c-0.6,0-1.2-0.2-1.5-0.4l-0.3-0.2l0.5-1.5l0.6,0.3c0.2,0.2,0.6,0.2,0.9,0.2
				c0.2,0,0.5-0.1,0.5-0.3c0-0.1,0-0.3-0.6-0.5c-1.1-0.4-1.6-1-1.6-1.8c0-1.1,0.9-1.8,2.1-1.8c0.5,0,1,0.1,1.3,0.3l0.4,0.2L13,13.4
				l-0.5-0.3c-0.1-0.1-0.4-0.2-0.7-0.2c-0.3,0-0.4,0.1-0.4,0.2c0,0.1,0,0.2,0.7,0.5c0.7,0.3,1.6,0.7,1.6,1.9
				C13.6,16.5,12.9,17.4,11.4,17.4z"/>
		</g>
		<g>
			<path fill="#37474F" d="M18.8,14.4c0,1.7-1,2.6-2.3,2.6c-1.3,0-2.2-1-2.2-2.5c0-1.5,1-2.6,2.3-2.6C18,11.9,18.8,12.9,18.8,14.4z
				 M15.1,14.5c0,1,0.6,2,1.6,2c1,0,1.6-0.9,1.6-2c0-1-0.5-2-1.6-2C15.6,12.4,15.1,13.4,15.1,14.5z"/>
			<path fill="#37474F" d="M16.6,17.4c-1.6,0-2.7-1.2-2.7-3c0-1.8,1.2-3.1,2.8-3.1c1.6,0,2.7,1.2,2.7,3C19.3,16.5,18,17.4,16.6,17.4
				z M16.6,12.9c-0.8,0-1.1,0.8-1.1,1.5c0,0.7,0.3,1.5,1.1,1.5c0.7,0,1.1-0.8,1.1-1.5C17.7,13.9,17.5,12.9,16.6,12.9z"/>
		</g>
		<g>
			<path fill="#37474F" d="M20.4,12H21v4.3h2.1v0.5h-2.7V12z"/>
			<polygon fill="#37474F" points="23.6,17.4 19.9,17.4 19.9,11.5 21.5,11.5 21.5,15.8 23.6,15.8 			"/>
		</g>
		<g>
			<path fill="#37474F" d="M24.6,12.1c0.4-0.1,0.8-0.1,1.3-0.1c0.9,0,1.5,0.2,2,0.6c0.4,0.4,0.7,1,0.7,1.8c0,0.8-0.2,1.4-0.7,1.9
				c-0.5,0.5-1.2,0.7-2.2,0.7c-0.4,0-0.8,0-1.1-0.1V12.1z M25.2,16.4c0.2,0,0.4,0,0.6,0c1.3,0,2.1-0.8,2.1-2.1c0-1.2-0.6-1.9-2-1.9
				c-0.3,0-0.6,0-0.7,0.1V16.4z"/>
			<path fill="#37474F" d="M25.7,17.4c-0.4,0-0.8,0-1.2-0.1l-0.4-0.1v-5.7l0.4-0.1c0.5-0.1,0.9-0.1,1.4-0.1c1,0,1.8,0.2,2.3,0.7
				c0.6,0.5,0.8,1.2,0.8,2.1c0,0.9-0.3,1.7-0.9,2.3C27.7,17.1,26.8,17.4,25.7,17.4z M25.7,15.9c0,0,0.1,0,0.1,0
				c1.1,0,1.6-0.5,1.6-1.6c0-0.4-0.1-0.8-0.3-1c-0.2-0.2-0.6-0.4-1.1-0.4c-0.1,0-0.2,0-0.2,0V15.9z"/>
		</g>
	</g>
</g>
</svg>
