<?xml version="1.0" encoding="utf-8"?>
<!-- Generator: Adobe Illustrator 16.0.0, SVG Export Plug-In . SVG Version: 6.00 Build 0)  -->
<!DOCTYPE svg PUBLIC "-//W3C//DTD SVG 1.1//EN" "http://www.w3.org/Graphics/SVG/1.1/DTD/svg11.dtd">
<svg version="1.1" id="Layer_1" xmlns="http://www.w3.org/2000/svg" xmlns:xlink="http://www.w3.org/1999/xlink" x="0px" y="0px"
	 width="128px" height="128px" viewBox="0 0 128 128" enable-background="new 0 0 128 128" xml:space="preserve">
<g>
	<g>
		<g>
			<path fill="#37474F" d="M30.3,86H9.7c-3.9,0-7.2-3.4-7.2-7.3V58.1c0-3.9,3.3-7.1,7.2-7.1h20.5c4,0,7.2,3.2,7.2,7.1v20.5
				C37.5,82.6,34.2,86,30.3,86z M9.7,54c-2.3,0-4.2,1.9-4.2,4.1v20.5c0,2.3,2,4.3,4.2,4.3h20.5c2.3,0,4.2-2,4.2-4.3V58.1
				c0-2.2-1.9-4.1-4.2-4.1H9.7z"/>
		</g>
		<g>
			<path fill="#37474F" d="M118.8,86H98.3c-3.8,0-6.8-3.2-6.8-7.3V58.1c0-4.1,2.9-7.1,6.8-7.1h20.5c3.8,0,6.7,3.1,6.7,7.1v20.5
				C125.5,82.8,122.6,86,118.8,86z M98.3,54c-2.2,0-3.8,1.7-3.8,4.1v20.5c0,2.1,1.4,4.3,3.8,4.3h20.5c2.4,0,3.7-2.2,3.7-4.3V58.1
				c0-2.1-1.3-4.1-3.7-4.1H98.3z"/>
		</g>
	</g>
	<g>
		<path fill="#B0BEC5" d="M14,39.5v59.2c0,9,6.1,15.8,13.5,15.8H101c7.4,0,13-6.9,13-15.8V39.5H14z"/>
		<path fill="#37474F" d="M101,116H27.5c-8.3,0-15-7.8-15-17.3V38h103v60.7C115.5,108.5,109.3,116,101,116z M15.5,41v57.7
			c0,7.9,5.4,14.3,12,14.3H101c6.5,0,11.5-6.2,11.5-14.3V41H15.5z"/>
	</g>
	<g>
		<rect x="7" y="29.5" fill="#FFFFFF" width="115" height="12"/>
		<path fill="#37474F" d="M122,43H7c-0.8,0-1.5-0.7-1.5-1.5v-12C5.5,28.7,6.2,28,7,28h115c0.8,0,1.5,0.7,1.5,1.5v12
			C123.5,42.3,122.8,43,122,43z M8.5,40h112v-9H8.5V40z"/>
	</g>
	<g>
		<path fill="#FFAB00" d="M15,103.5c1.8,7,6.6,11,12.5,11H101c5.9,0,10.7-4,12.5-11H15z"/>
		<path fill="#37474F" d="M101,116H27.5c-6.7,0-12.1-4.6-14-12.1c-0.1-0.4,0-0.9,0.3-1.3c0.3-0.4,0.7-0.6,1.2-0.6h98.5
			c0.5,0,0.9,0.2,1.2,0.6c0.3,0.4,0.4,0.8,0.3,1.3C113.1,111.4,107.7,116,101,116z M17,105c1.9,5,5.7,8,10.5,8H101
			c4.8,0,8.6-3,10.5-8H17z"/>
	</g>
	<g>
		<polyline fill="#FFAB00" points="49.5,13.5 79,13.5 79,28 		"/>
		<path fill="#37474F" d="M79,29.5c-0.8,0-1.5-0.7-1.5-1.5V15h-28c-0.8,0-1.5-0.7-1.5-1.5s0.7-1.5,1.5-1.5H79c0.8,0,1.5,0.7,1.5,1.5
			V28C80.5,28.8,79.8,29.5,79,29.5z"/>
	</g>
	<g>
		<g>
			<g>
				<g>
					<path fill="#37474F" d="M25.9,60.5c0,0.8-0.7,1.4-1.4,1.4c-0.8,0-1.5-0.7-1.5-1.4c0-0.8,0.6-1.4,1.5-1.4
						C25.2,59,25.9,59.7,25.9,60.5z"/>
					<path fill="#37474F" d="M24.4,62.4c-0.5,0-1-0.2-1.4-0.6c-0.4-0.4-0.6-0.9-0.5-1.4c0-1.1,0.8-1.9,2-1.9h0
						c1.1,0,1.9,0.9,1.9,1.9C26.4,61.5,25.6,62.4,24.4,62.4L24.4,62.4z M24.5,59.5c-0.6,0-1,0.4-1,0.9c0,0.3,0.1,0.5,0.3,0.7
						c0.2,0.2,0.4,0.3,0.7,0.3v0.5l0-0.5c0.5,0,0.9-0.4,0.9-0.9C25.4,60,25,59.5,24.5,59.5z"/>
				</g>
				<g>
					<path fill="#37474F" d="M36.1,60.5c0,0.8-0.7,1.4-1.4,1.4c-0.8,0-1.5-0.7-1.5-1.4c0-0.8,0.7-1.5,1.5-1.5
						C35.4,59,36.1,59.7,36.1,60.5z"/>
					<path fill="#37474F" d="M34.6,62.4c-1.1,0-2-0.9-2-1.9c0-1.1,0.9-2,2-2c1.1,0,2,0.9,2,2c0,0.5-0.2,1-0.5,1.3
						C35.7,62.2,35.2,62.4,34.6,62.4z M34.6,59.5c-0.5,0-1,0.4-1,1c0,0.5,0.4,0.9,1,0.9c0.3,0,0.5-0.1,0.7-0.3
						c0.2-0.2,0.3-0.4,0.3-0.6C35.6,60,35.1,59.5,34.6,59.5z"/>
				</g>
				<g>
					<path fill="#37474F" d="M46.2,60.5c0,0.8-0.7,1.4-1.5,1.4c-0.8,0-1.5-0.7-1.5-1.4c0-0.8,0.7-1.5,1.5-1.4
						C45.6,59,46.2,59.7,46.2,60.5z"/>
					<path fill="#37474F" d="M44.8,62.4c-1.1,0-2-0.9-2-1.9c0-1.1,0.9-1.9,1.9-1.9c1.1,0,2,0.9,2,1.9C46.7,61.6,45.9,62.4,44.8,62.4
						z M44.8,59.5c-0.6,0-1,0.4-1,0.9c0,0.5,0.4,0.9,1,0.9c0.5,0,1-0.4,1-0.9C45.7,60,45.3,59.5,44.8,59.5z"/>
				</g>
			</g>
			<g>
				<g>
					<path fill="#37474F" d="M55.5,60.5c0,0.8-0.7,1.4-1.4,1.4c-0.8,0-1.5-0.7-1.5-1.4c0-0.8,0.6-1.4,1.5-1.4
						C54.9,59,55.5,59.7,55.5,60.5z"/>
					<path fill="#37474F" d="M54.1,62.4c-0.5,0-1-0.2-1.4-0.6c-0.4-0.4-0.5-0.9-0.5-1.4c0-1.1,0.8-1.9,2-1.9h0
						c1.1,0,1.9,0.9,1.9,1.9C56,61.5,55.2,62.4,54.1,62.4L54.1,62.4z M54.1,59.5c-0.6,0-1,0.4-1,0.9c0,0.3,0.1,0.5,0.3,0.7
						c0.2,0.2,0.4,0.3,0.7,0.3v0.5l0-0.5c0.5,0,0.9-0.4,0.9-0.9C55,60,54.6,59.5,54.1,59.5z"/>
				</g>
				<g>
					<path fill="#37474F" d="M65.7,60.5c0,0.8-0.7,1.4-1.4,1.4c-0.8,0-1.5-0.7-1.5-1.4c0-0.8,0.7-1.5,1.5-1.5
						C65.1,59,65.7,59.7,65.7,60.5z"/>
					<path fill="#37474F" d="M64.3,62.4c-1.1,0-2-0.9-2-1.9c0-1.1,0.9-2,2-2c1.1,0,2,0.9,2,2c0,0.5-0.2,1-0.5,1.3
						C65.3,62.2,64.8,62.4,64.3,62.4z M64.2,59.5c-0.5,0-1,0.5-1,1c0,0.5,0.4,0.9,1,0.9c0.3,0,0.5-0.1,0.7-0.3
						c0.2-0.2,0.3-0.4,0.2-0.6C65.2,60,64.8,59.5,64.2,59.5z"/>
				</g>
				<g>
					<path fill="#37474F" d="M75.9,60.5c0,0.8-0.7,1.4-1.5,1.4c-0.8,0-1.5-0.7-1.5-1.4c0-0.8,0.7-1.5,1.4-1.4
						C75.2,59,75.9,59.7,75.9,60.5z"/>
					<path fill="#37474F" d="M74.4,62.4c-1.1,0-2-0.9-2-1.9c0-1.1,0.9-1.9,1.9-1.9c1.2,0,2,0.9,2,1.9C76.4,61.6,75.5,62.4,74.4,62.4
						z M74.4,59.5c-0.6,0-1,0.4-1,0.9c0,0.5,0.4,0.9,1,0.9c0.5,0,1-0.4,1-0.9C75.4,60,75,59.5,74.4,59.5z"/>
				</g>
			</g>
			<g>
				<g>
					<path fill="#37474F" d="M85.2,60.5c0,0.8-0.6,1.4-1.4,1.4c-0.8,0-1.5-0.7-1.5-1.4c0-0.8,0.6-1.4,1.5-1.4
						C84.5,59,85.2,59.7,85.2,60.5z"/>
					<path fill="#37474F" d="M83.7,62.4c-0.5,0-1-0.2-1.4-0.6c-0.4-0.4-0.6-0.9-0.5-1.4c0-1.1,0.8-1.9,2-1.9h0
						c1.1,0,1.9,0.9,1.9,1.9C85.7,61.5,84.8,62.4,83.7,62.4L83.7,62.4z M83.8,59.5c-0.6,0-1,0.4-1,0.9c0,0.3,0.1,0.5,0.3,0.7
						c0.2,0.2,0.4,0.3,0.7,0.3v0.5l0-0.5c0.5,0,0.9-0.4,0.9-0.9C84.7,60,84.3,59.5,83.8,59.5z"/>
				</g>
				<g>
					<path fill="#37474F" d="M95.4,60.5c0,0.8-0.7,1.4-1.4,1.4c-0.8,0-1.5-0.7-1.5-1.4c0-0.8,0.7-1.5,1.5-1.5
						C94.7,59,95.4,59.7,95.4,60.5z"/>
					<path fill="#37474F" d="M93.9,62.4c-1.1,0-2-0.9-2-1.9c0-1.1,0.9-2,2-2c1.1,0,2,0.9,2,2c0,0.5-0.2,1-0.5,1.3
						C95,62.2,94.5,62.4,93.9,62.4z M93.9,59.5c-0.5,0-1,0.5-1,1c0,0.5,0.4,0.9,1,0.9c0.3,0,0.5-0.1,0.7-0.3
						c0.2-0.2,0.3-0.4,0.2-0.6C94.9,60,94.4,59.5,93.9,59.5z"/>
				</g>
				<g>
					<path fill="#37474F" d="M105.5,60.5c0,0.8-0.7,1.4-1.5,1.4c-0.8,0-1.5-0.7-1.5-1.4c0-0.8,0.7-1.5,1.5-1.4
						C104.9,59,105.5,59.7,105.5,60.5z"/>
					<path fill="#37474F" d="M104.1,62.4c-1.1,0-2-0.9-2-1.9c0-1.1,0.9-1.9,1.9-1.9c1.2,0,2,0.9,2,1.9
						C106,61.6,105.2,62.4,104.1,62.4z M104.1,59.5c-0.6,0-1,0.4-1,0.9c0,0.5,0.5,0.9,1,0.9c0.5,0,1-0.4,1-0.9
						C105,60,104.6,59.5,104.1,59.5z"/>
				</g>
			</g>
		</g>
		<g>
			<g>
				<g>
					<path fill="#37474F" d="M25.9,71.8c0,0.8-0.7,1.4-1.4,1.4c-0.8,0-1.5-0.6-1.5-1.4c0-0.8,0.6-1.4,1.5-1.4
						C25.2,70.3,25.9,71,25.9,71.8z"/>
					<path fill="#37474F" d="M24.4,73.7c-0.5,0-1-0.2-1.4-0.6c-0.4-0.4-0.6-0.9-0.5-1.4c0-1.1,0.9-1.9,2-1.9h0
						c1.1,0,1.9,0.9,1.9,1.9C26.4,72.8,25.6,73.7,24.4,73.7L24.4,73.7z M24.5,70.8c-0.6,0-1,0.4-1,0.9c0,0.3,0.1,0.5,0.3,0.7
						c0.2,0.2,0.4,0.3,0.7,0.3v0.5l0-0.5c0.5,0,0.9-0.4,0.9-0.9C25.4,71.2,25,70.8,24.5,70.8z"/>
				</g>
				<g>
					<path fill="#37474F" d="M36.1,71.8c0,0.8-0.7,1.4-1.4,1.4c-0.8,0-1.5-0.6-1.5-1.4c0-0.8,0.7-1.5,1.5-1.5
						C35.4,70.3,36.1,71,36.1,71.8z"/>
					<path fill="#37474F" d="M34.6,73.7c-1.1,0-2-0.9-2-1.9c0-1.1,0.9-2,2-2c1.1,0,2,0.9,2,2c0,0.5-0.2,1-0.5,1.3
						C35.7,73.5,35.2,73.7,34.6,73.7z M34.6,70.8c-0.5,0-0.9,0.5-0.9,1c0,0.5,0.4,0.9,1,0.9c0.3,0,0.5-0.1,0.7-0.3
						c0.2-0.2,0.3-0.4,0.2-0.6C35.6,71.2,35.1,70.8,34.6,70.8z"/>
				</g>
				<g>
					<path fill="#37474F" d="M46.2,71.8c0,0.8-0.7,1.4-1.5,1.4c-0.8,0-1.5-0.6-1.5-1.4c0-0.8,0.7-1.5,1.5-1.4
						C45.6,70.3,46.2,70.9,46.2,71.8z"/>
					<path fill="#37474F" d="M44.8,73.7c-1.1,0-2-0.9-2-1.9c0-1.1,0.9-1.9,1.9-1.9c1.2,0,2,0.9,2,1.9C46.7,72.8,45.9,73.7,44.8,73.7
						z M44.8,70.8c-0.6,0-1,0.4-1,0.9c0,0.5,0.4,0.9,1,0.9c0.5,0,1-0.4,1-0.9C45.7,71.2,45.3,70.8,44.8,70.8z"/>
				</g>
			</g>
			<g>
				<g>
					<path fill="#37474F" d="M55.5,71.8c0,0.8-0.7,1.4-1.4,1.4c-0.8,0-1.5-0.6-1.5-1.4c0-0.8,0.6-1.4,1.5-1.4
						C54.9,70.3,55.5,71,55.5,71.8z"/>
					<path fill="#37474F" d="M54.1,73.7c-0.5,0-1-0.2-1.4-0.6c-0.4-0.4-0.6-0.9-0.5-1.4c0-1.1,0.8-1.9,2-1.9c0,0,0,0,0,0
						c1.1,0,1.9,0.9,1.9,1.9C56,72.8,55.2,73.7,54.1,73.7L54.1,73.7z M54.2,70.8c-0.6,0-1,0.4-1,0.9c0,0.3,0.1,0.5,0.3,0.7
						c0.2,0.2,0.4,0.3,0.7,0.3v0.5l0-0.5c0.5,0,0.9-0.4,0.9-0.9C55,71.2,54.6,70.8,54.2,70.8z"/>
				</g>
				<g>
					<path fill="#37474F" d="M65.7,71.8c0,0.8-0.7,1.4-1.4,1.4c-0.8,0-1.5-0.6-1.5-1.4c0-0.8,0.7-1.5,1.5-1.5
						C65.1,70.3,65.7,71,65.7,71.8z"/>
					<path fill="#37474F" d="M64.3,73.7c-1.1,0-2-0.9-2-1.9c0-1.1,0.9-2,2-2c1.1,0,2,0.9,2,2c0,0.5-0.2,0.9-0.5,1.3
						C65.3,73.5,64.8,73.7,64.3,73.7z M64.2,70.8c-0.5,0-0.9,0.5-0.9,1c0,0.5,0.4,0.9,1,0.9c0.3,0,0.5-0.1,0.7-0.3
						c0.2-0.2,0.3-0.4,0.2-0.6C65.2,71.2,64.8,70.8,64.2,70.8z"/>
				</g>
				<g>
					<path fill="#37474F" d="M75.9,71.8c0,0.8-0.7,1.4-1.5,1.4c-0.8,0-1.5-0.6-1.5-1.4c0-0.8,0.7-1.5,1.4-1.4
						C75.2,70.3,75.9,70.9,75.9,71.8z"/>
					<path fill="#37474F" d="M74.4,73.7c-1.1,0-2-0.9-2-1.9c0-1.1,0.9-1.9,1.9-1.9c1.2,0,2,0.9,2,1.9C76.4,72.8,75.5,73.7,74.4,73.7
						z M74.5,70.8c-0.6,0-1,0.4-1,0.9c0,0.5,0.4,0.9,1,0.9c0.5,0,1-0.4,1-0.9C75.4,71.2,75,70.8,74.5,70.8z"/>
				</g>
			</g>
			<g>
				<g>
					<path fill="#37474F" d="M85.2,71.8c0,0.8-0.6,1.4-1.4,1.4c-0.8,0-1.5-0.6-1.5-1.4c0-0.8,0.6-1.4,1.5-1.4
						C84.5,70.3,85.2,71,85.2,71.8z"/>
					<path fill="#37474F" d="M83.7,73.7c-0.5,0-1-0.2-1.4-0.6c-0.4-0.4-0.6-0.9-0.5-1.4c0-1.1,0.8-1.9,2-1.9c0,0,0,0,0,0
						c1.1,0,1.9,0.9,1.9,1.9C85.7,72.8,84.8,73.7,83.7,73.7L83.7,73.7z M83.8,70.8c-0.6,0-1,0.4-1,0.9c0,0.3,0.1,0.5,0.3,0.7
						c0.2,0.2,0.4,0.3,0.7,0.3v0.5l0-0.5c0.5,0,0.9-0.4,0.9-0.9C84.7,71.2,84.3,70.8,83.8,70.8z"/>
				</g>
				<g>
					<path fill="#37474F" d="M95.4,71.8c0,0.8-0.7,1.4-1.4,1.4c-0.8,0-1.5-0.6-1.5-1.4c0-0.8,0.7-1.5,1.5-1.5
						C94.7,70.3,95.4,71,95.4,71.8z"/>
					<path fill="#37474F" d="M93.9,73.7c-1.1,0-2-0.9-2-1.9c0-1.1,0.9-2,2-2c1.1,0,2,0.9,2,2c0,0.5-0.2,0.9-0.5,1.3
						C95,73.5,94.5,73.7,93.9,73.7z M93.9,70.8c-0.5,0-0.9,0.5-0.9,1c0,0.5,0.4,0.9,1,0.9c0.3,0,0.5-0.1,0.7-0.3
						c0.2-0.2,0.2-0.4,0.2-0.6C94.9,71.2,94.4,70.8,93.9,70.8z"/>
				</g>
				<g>
					<path fill="#37474F" d="M105.5,71.8c0,0.8-0.7,1.4-1.5,1.4c-0.8,0-1.5-0.6-1.5-1.4c0-0.8,0.7-1.5,1.5-1.4
						C104.9,70.3,105.5,70.9,105.5,71.8z"/>
					<path fill="#37474F" d="M104.1,73.7c-1.1,0-2-0.9-2-1.9c0-1.1,0.9-1.9,1.9-1.9c1.2,0,2,0.9,2,1.9
						C106,72.8,105.2,73.7,104.1,73.7z M104.1,70.8c-0.6,0-1,0.4-1,0.9c0,0.5,0.5,0.9,1,0.9c0.5,0,1-0.4,1-0.9
						C105,71.2,104.6,70.8,104.1,70.8z"/>
				</g>
			</g>
		</g>
		<g>
			<g>
				<g>
					<path fill="#37474F" d="M25.9,83c0,0.8-0.7,1.4-1.4,1.4c-0.8,0-1.5-0.6-1.5-1.4c0-0.8,0.6-1.4,1.5-1.4
						C25.2,81.6,25.9,82.2,25.9,83z"/>
					<path fill="#37474F" d="M24.4,85c-0.5,0-1-0.2-1.4-0.6c-0.4-0.4-0.6-0.9-0.5-1.4c0-1.1,0.8-1.9,2-1.9c0,0,0,0,0,0
						c1.1,0,1.9,0.9,1.9,1.9C26.4,84.1,25.6,84.9,24.4,85L24.4,85z M24.5,82.1c-0.6,0-1,0.4-1,0.9c0,0.3,0.1,0.5,0.3,0.7
						c0.2,0.2,0.4,0.3,0.7,0.3v0.5l0-0.5c0.5,0,1-0.4,1-0.9C25.4,82.5,25,82.1,24.5,82.1z"/>
				</g>
				<g>
					<path fill="#37474F" d="M36.1,83c0,0.8-0.7,1.4-1.4,1.4c-0.8,0-1.5-0.6-1.5-1.4c0-0.8,0.7-1.5,1.5-1.5
						C35.4,81.6,36.1,82.2,36.1,83z"/>
					<path fill="#37474F" d="M34.6,85c-1.1,0-2-0.9-2-1.9c0-1.1,0.9-2,2-2c1.1,0,2,0.9,2,2c0,0.5-0.2,1-0.5,1.3
						C35.7,84.8,35.2,85,34.6,85z M34.6,82.1c-0.5,0-0.9,0.4-0.9,1c0,0.5,0.4,0.9,1,0.9c0.3,0,0.5-0.1,0.7-0.3
						c0.2-0.2,0.3-0.4,0.2-0.6C35.6,82.5,35.1,82.1,34.6,82.1z"/>
				</g>
				<g>
					<path fill="#37474F" d="M46.2,83c0,0.8-0.7,1.4-1.5,1.4c-0.8,0-1.5-0.6-1.5-1.4c0-0.8,0.7-1.5,1.5-1.4
						C45.6,81.6,46.2,82.2,46.2,83z"/>
					<path fill="#37474F" d="M44.8,85c-1.1,0-2-0.9-2-1.9c0-1.1,0.9-1.9,1.9-1.9h0.1c1.1,0,1.9,0.9,1.9,1.9
						C46.7,84.1,45.9,85,44.8,85z M44.7,82.1c-0.5,0-0.9,0.4-0.9,0.9c0,0.5,0.4,0.9,1,0.9c0.5,0,1-0.4,1-0.9c0-0.5-0.4-0.9-0.9-0.9
						H44.7z"/>
				</g>
			</g>
			<g>
				<g>
					<path fill="#37474F" d="M55.5,83c0,0.8-0.7,1.4-1.4,1.4c-0.8,0-1.5-0.6-1.5-1.4c0-0.8,0.6-1.4,1.5-1.4
						C54.9,81.6,55.5,82.2,55.5,83z"/>
					<path fill="#37474F" d="M54.1,85c-0.5,0-1-0.2-1.4-0.6c-0.4-0.4-0.6-0.9-0.5-1.4c0-1.1,0.8-1.9,2-1.9c0,0,0,0,0,0
						c1.1,0,1.9,0.9,1.9,1.9S55.2,84.9,54.1,85L54.1,85z M54.2,82.1c-0.6,0-1,0.4-1,0.9c0,0.3,0.1,0.5,0.3,0.7s0.4,0.3,0.7,0.3v0.5
						l0-0.5c0.5,0,1-0.4,1-0.9C55,82.5,54.6,82.1,54.2,82.1z"/>
				</g>
				<g>
					<path fill="#37474F" d="M65.7,83c0,0.8-0.7,1.4-1.4,1.4c-0.8,0-1.5-0.6-1.5-1.4c0-0.8,0.7-1.5,1.5-1.5
						C65.1,81.6,65.7,82.2,65.7,83z"/>
					<path fill="#37474F" d="M64.3,85c-1.1,0-2-0.9-2-1.9c0-1.1,0.9-2,2-2c1.1,0,2,0.9,2,2c0,0.5-0.2,1-0.5,1.3
						C65.3,84.8,64.8,85,64.3,85z M64.2,82.1c-0.5,0-0.9,0.4-0.9,1c0,0.5,0.4,0.9,1,0.9c0.3,0,0.5-0.1,0.7-0.3
						c0.2-0.2,0.2-0.4,0.2-0.6C65.2,82.5,64.8,82.1,64.2,82.1z"/>
				</g>
				<g>
					<path fill="#37474F" d="M75.9,83c0,0.8-0.7,1.4-1.5,1.4c-0.8,0-1.5-0.6-1.5-1.4c0-0.8,0.7-1.5,1.4-1.4
						C75.2,81.6,75.9,82.2,75.9,83z"/>
					<path fill="#37474F" d="M74.4,85c-1.1,0-2-0.9-2-1.9c0-1.1,0.9-1.9,1.9-1.9h0.1c1.1,0,1.9,0.9,1.9,1.9
						C76.4,84.1,75.5,85,74.4,85z M74.4,82.1c-0.5,0-0.9,0.4-0.9,0.9c0,0.5,0.4,0.9,1,0.9c0.5,0,1-0.4,1-0.9c0-0.5-0.4-0.9-0.9-0.9
						H74.4z"/>
				</g>
			</g>
			<g>
				<g>
					<path fill="#37474F" d="M85.2,83c0,0.8-0.6,1.4-1.4,1.4c-0.8,0-1.5-0.6-1.5-1.4c0-0.8,0.6-1.4,1.5-1.4
						C84.5,81.6,85.2,82.2,85.2,83z"/>
					<path fill="#37474F" d="M83.7,85c-0.5,0-1-0.2-1.4-0.6C82,84,81.8,83.5,81.8,83c0-1.1,0.8-1.9,2-1.9c0,0,0,0,0,0
						c1.1,0,1.9,0.9,1.9,1.9S84.8,84.9,83.7,85L83.7,85z M83.8,82.1c-0.6,0-1,0.4-1,0.9c0,0.3,0.1,0.5,0.3,0.7
						c0.2,0.2,0.4,0.3,0.7,0.3v0.5l0-0.5c0.5,0,0.9-0.4,0.9-0.9C84.7,82.5,84.3,82.1,83.8,82.1z"/>
				</g>
				<g>
					<path fill="#37474F" d="M95.4,83c0,0.8-0.7,1.4-1.4,1.4c-0.8,0-1.5-0.6-1.5-1.4c0-0.8,0.7-1.5,1.5-1.5
						C94.7,81.6,95.4,82.2,95.4,83z"/>
					<path fill="#37474F" d="M93.9,85c-1.1,0-2-0.9-2-1.9c0-1.1,0.9-2,2-2c1.1,0,2,0.9,2,2c0,0.5-0.2,0.9-0.5,1.3
						C95,84.8,94.5,85,93.9,85z M93.9,82.1c-0.5,0-0.9,0.4-0.9,1c0,0.5,0.4,0.9,1,0.9c0.3,0,0.5-0.1,0.7-0.3
						c0.2-0.2,0.2-0.4,0.2-0.6C94.9,82.5,94.4,82.1,93.9,82.1z"/>
				</g>
				<g>
					<path fill="#37474F" d="M105.5,83c0,0.8-0.7,1.4-1.5,1.4c-0.8,0-1.5-0.6-1.5-1.4c0-0.8,0.7-1.5,1.5-1.4
						C104.9,81.6,105.5,82.2,105.5,83z"/>
					<path fill="#37474F" d="M104.1,85c-1.1,0-2-0.9-2-1.9c0-1.1,0.9-1.9,1.9-1.9h0.1c1.1,0,1.9,0.9,1.9,1.9
						C106,84.1,105.2,85,104.1,85z M104,82.1c-0.5,0-0.9,0.4-0.9,0.9c0,0.5,0.4,0.9,1,0.9c0.5,0,1-0.4,1-0.9c0-0.5-0.4-0.9-0.9-0.9
						H104z"/>
				</g>
			</g>
		</g>
	</g>
</g>
</svg>
