<?xml version="1.0" encoding="utf-8"?>
<!-- Generator: Adobe Illustrator 16.0.0, SVG Export Plug-In . SVG Version: 6.00 Build 0)  -->
<!DOCTYPE svg PUBLIC "-//W3C//DTD SVG 1.1//EN" "http://www.w3.org/Graphics/SVG/1.1/DTD/svg11.dtd">
<svg version="1.1" id="Layer_1" xmlns="http://www.w3.org/2000/svg" xmlns:xlink="http://www.w3.org/1999/xlink" x="0px" y="0px"
	 width="65px" height="65px" viewBox="0 0 65 65" enable-background="new 0 0 65 65" xml:space="preserve">
<g>
	<g>
		<path fill="#FFFFFF" d="M60.5,36.5v6.2c0,6.1-4.8,10.8-10.8,10.8H15.3c-6.1,0-10.8-4.8-10.8-10.8v-6.2"/>
		<path fill="#37474F" d="M49.7,54.5H15.3c-6.6,0-11.8-5.2-11.8-11.8v-6.2c0-0.6,0.4-1,1-1s1,0.4,1,1v6.2c0,5.5,4.3,9.8,9.8,9.8
			h34.3c5.5,0,9.8-4.3,9.8-9.8v-6.2c0-0.6,0.4-1,1-1s1,0.4,1,1v6.2C61.5,49.3,56.3,54.5,49.7,54.5z"/>
	</g>
	<g>
		<g>
			<line fill="#FFFFFF" x1="6" y1="58.6" x2="11.3" y2="53.4"/>
			<path fill="#37474F" d="M6,59.6c-0.3,0-0.5-0.1-0.7-0.3c-0.4-0.4-0.4-1,0-1.4l5.2-5.2c0.4-0.4,1-0.4,1.4,0s0.4,1,0,1.4l-5.2,5.2
				C6.5,59.5,6.3,59.6,6,59.6z"/>
		</g>
		<g>
			<line fill="#FFFFFF" x1="59" y1="58.6" x2="53.8" y2="53.4"/>
			<path fill="#37474F" d="M59,59.6c-0.3,0-0.5-0.1-0.7-0.3L53,54.1c-0.4-0.4-0.4-1,0-1.4s1-0.4,1.4,0l5.2,5.2c0.4,0.4,0.4,1,0,1.4
				C59.5,59.5,59.3,59.6,59,59.6z"/>
		</g>
	</g>
	<g>
		<path fill="#FFAB00" d="M63.5,33.2c0,1.8-1.5,3.2-3.2,3.2H4.8c-1.8,0-3.2-1.5-3.2-3.2v-0.5c0-1.8,1.5-3.2,3.2-3.2h55.5
			c1.8,0,3.2,1.5,3.2,3.2V33.2z"/>
		<path fill="#37474F" d="M60.2,37.5H4.8c-2.3,0-4.2-1.9-4.2-4.2v-0.5c0-2.3,1.9-4.2,4.2-4.2h55.5c2.3,0,4.2,1.9,4.2,4.2v0.5
			C64.5,35.6,62.6,37.5,60.2,37.5z M4.8,30.5c-1.2,0-2.2,1-2.2,2.2v0.5c0,1.2,1,2.2,2.2,2.2h55.5c1.2,0,2.2-1,2.2-2.2v-0.5
			c0-1.2-1-2.2-2.2-2.2H4.8z"/>
	</g>
	<g>
		<g>
			<path fill="#FFECB3" d="M6.5,24.5V11.4c0-2.8,2.5-4.9,5.3-4.9h2.3c2.8,0,4.9,2.4,4.9,5.2"/>
			<path fill="#37474F" d="M6.5,25.5c-0.6,0-1-0.4-1-1V11.4c0-3.2,2.9-5.9,6.3-5.9h2.3c3.2,0,5.9,2.8,5.9,6.2c0,0.6-0.4,1-1,1
				s-1-0.4-1-1c0-2.3-1.7-4.2-3.9-4.2h-2.3c-2.3,0-4.3,1.8-4.3,3.9v13.1C7.5,25.1,7.1,25.5,6.5,25.5z"/>
		</g>
		<g>
			<line fill="#FFECB3" x1="4.5" y1="24.5" x2="9.5" y2="24.5"/>
			<path fill="#37474F" d="M9.5,25.5h-5c-0.6,0-1-0.4-1-1s0.4-1,1-1h5c0.6,0,1,0.4,1,1S10.1,25.5,9.5,25.5z"/>
		</g>
	</g>
</g>
</svg>
