<?xml version="1.0" encoding="utf-8"?>
<!-- Generator: Adobe Illustrator 16.0.0, SVG Export Plug-In . SVG Version: 6.00 Build 0)  -->
<!DOCTYPE svg PUBLIC "-//W3C//DTD SVG 1.1//EN" "http://www.w3.org/Graphics/SVG/1.1/DTD/svg11.dtd">
<svg version="1.1" id="Layer_1" xmlns="http://www.w3.org/2000/svg" xmlns:xlink="http://www.w3.org/1999/xlink" x="0px" y="0px"
	 width="32px" height="32px" viewBox="0 0 32 32" enable-background="new 0 0 32 32" xml:space="preserve">
<g>
	<g>
		<g>
			<g>
				<polyline fill="#FFAB00" points="7.7,25.4 11.1,25.4 11.1,28.8 15.7,23.9 				"/>
				<path fill="#37474F" d="M11.1,29.3c-0.1,0-0.1,0-0.2,0c-0.2-0.1-0.3-0.3-0.3-0.5v-2.8H7.7c-0.3,0-0.5-0.2-0.5-0.5
					s0.2-0.5,0.5-0.5h3.4c0.3,0,0.5,0.2,0.5,0.5v2l3.7-3.9c0.2-0.2,0.5-0.2,0.7,0c0.2,0.2,0.2,0.5,0,0.7l-4.6,4.8
					C11.4,29.2,11.2,29.3,11.1,29.3z"/>
			</g>
			<g>
				<polyline fill="#FFECB3" points="4.6,9.8 0.8,15.6 5.2,20.2 5.2,22.5 10.6,22.5 				"/>
				<path fill="#37474F" d="M10.6,23H5.2c-0.3,0-0.5-0.2-0.5-0.5v-2.1L0.4,16c-0.2-0.2-0.2-0.4-0.1-0.6l3.8-5.8
					c0.2-0.2,0.5-0.3,0.7-0.1C5.1,9.5,5.1,9.8,5,10.1l-3.6,5.5l4.1,4.3c0.1,0.1,0.1,0.2,0.1,0.3V22h4.9c0.3,0,0.5,0.2,0.5,0.5
					S10.9,23,10.6,23z"/>
			</g>
			<g>
				<path fill="#FFFFFF" d="M6.2,9.5c0,0.6-0.5,1.1-1.1,1.1S4,10.1,4,9.5c0-0.6,0.5-1.1,1.1-1.1S6.2,8.9,6.2,9.5z"/>
				<path fill="#37474F" d="M5.1,11.1c-0.9,0-1.6-0.7-1.6-1.6c0-0.9,0.7-1.6,1.6-1.6s1.6,0.7,1.6,1.6C6.7,10.4,5.9,11.1,5.1,11.1z
					 M5.1,8.9c-0.3,0-0.6,0.3-0.6,0.6c0,0.3,0.3,0.6,0.6,0.6s0.6-0.3,0.6-0.6C5.7,9.2,5.4,8.9,5.1,8.9z"/>
			</g>
		</g>
		<g>
			<g>
				<polyline fill="#FFAB00" points="24.3,25.4 20.9,25.4 20.9,28.8 16.3,23.9 				"/>
				<path fill="#37474F" d="M20.9,29.3c-0.1,0-0.3-0.1-0.4-0.2L16,24.3c-0.2-0.2-0.2-0.5,0-0.7c0.2-0.2,0.5-0.2,0.7,0l3.7,3.9v-2
					c0-0.3,0.2-0.5,0.5-0.5h3.4c0.3,0,0.5,0.2,0.5,0.5s-0.2,0.5-0.5,0.5h-2.9v2.8c0,0.2-0.1,0.4-0.3,0.5C21,29.2,21,29.3,20.9,29.3z
					"/>
			</g>
			<g>
				<polyline fill="#FFECB3" points="27.4,9.8 31.2,15.6 26.8,20.2 26.8,22.5 21.4,22.5 				"/>
				<path fill="#37474F" d="M26.8,23h-5.4c-0.3,0-0.5-0.2-0.5-0.5s0.2-0.5,0.5-0.5h4.9v-1.8c0-0.1,0.1-0.3,0.1-0.3l4.1-4.3L27,10
					c-0.1-0.2-0.1-0.5,0.1-0.7c0.2-0.1,0.5-0.1,0.7,0.1l3.8,5.8c0.1,0.2,0.1,0.5-0.1,0.6l-4.3,4.4v2.1C27.3,22.8,27,23,26.8,23z"/>
			</g>
			<g>
				<path fill="#FFFFFF" d="M25.9,9.5c0,0.6,0.5,1.1,1.1,1.1c0.6,0,1.1-0.5,1.1-1.1c0-0.6-0.5-1.1-1.1-1.1
					C26.4,8.4,25.9,8.9,25.9,9.5z"/>
				<path fill="#37474F" d="M27,11.1c-0.9,0-1.6-0.7-1.6-1.6c0-0.9,0.7-1.6,1.6-1.6s1.6,0.7,1.6,1.6C28.5,10.4,27.8,11.1,27,11.1z
					 M27,8.9c-0.3,0-0.6,0.3-0.6,0.6c0,0.3,0.3,0.6,0.6,0.6s0.6-0.3,0.6-0.6C27.5,9.2,27.3,8.9,27,8.9z"/>
			</g>
		</g>
	</g>
	<g>
		<line fill="#FFAB00" x1="1.8" y1="15.6" x2="31.2" y2="15.6"/>
		<path fill="#37474F" d="M31.2,16.1H1.8c-0.3,0-0.5-0.2-0.5-0.5s0.2-0.5,0.5-0.5h29.4c0.3,0,0.5,0.2,0.5,0.5S31.5,16.1,31.2,16.1z"
			/>
	</g>
	<g>
		<rect x="15" y="27.4" fill="#37474F" width="2" height="3.9"/>
		<path fill="#37474F" d="M17,31.8h-2c-0.3,0-0.5-0.2-0.5-0.5v-3.9c0-0.3,0.2-0.5,0.5-0.5h2c0.3,0,0.5,0.2,0.5,0.5v3.9
			C17.5,31.6,17.3,31.8,17,31.8z M15.5,30.8h1v-2.9h-1V30.8z"/>
	</g>
	<g>
		<path fill="#FFAB00" d="M25.4,10.1c0,5.2-4.2,9.4-9.4,9.4c-5.2,0-9.4-4.2-9.4-9.4c0-5.2,4.2-9.4,9.4-9.4
			C21.2,0.7,25.4,4.9,25.4,10.1z"/>
		<path fill="#37474F" d="M16,20c-5.5,0-9.9-4.4-9.9-9.9c0-5.5,4.4-9.9,9.9-9.9c5.5,0,9.9,4.4,9.9,9.9C25.9,15.5,21.5,20,16,20z
			 M16,1.2c-4.9,0-8.9,4-8.9,8.9c0,4.9,4,8.9,8.9,8.9c4.9,0,8.9-4,8.9-8.9C24.9,5.2,20.9,1.2,16,1.2z"/>
	</g>
	<g>
		<rect x="13.1" y="24.5" fill="#78909C" width="5.9" height="2.9"/>
		<path fill="#37474F" d="M19.4,27.9h-6.9V24h6.9V27.9z M13.6,26.9h4.9V25h-4.9V26.9z"/>
	</g>
	<g>
		<g>
			<path fill="#FFFFFF" d="M21.9,20.3c0,2.1-1.7,4.1-3.8,4.1h-4.2c-2.1,0-3.8-2.1-3.8-4.1V7.6c0-2.1,1.7-3.7,3.8-3.7h4.2
				c2.1,0,3.8,1.6,3.8,3.7V20.3z"/>
			<path fill="#37474F" d="M18.1,25h-4.2c-2.2,0-4.3-2.2-4.3-4.6V7.6c0-2.3,1.9-4.2,4.3-4.2h4.2c2.3,0,4.3,1.9,4.3,4.2v12.8
				C22.4,22.8,20.4,25,18.1,25z M13.9,4.4c-1.8,0-3.3,1.4-3.3,3.2v12.8c0,1.9,1.6,3.6,3.3,3.6h4.2c1.7,0,3.3-1.7,3.3-3.6V7.6
				c0-1.8-1.4-3.2-3.3-3.2H13.9z"/>
		</g>
		<g>
			<path fill="#B0BEC5" d="M19.4,20c0,2-0.6,4-2,4h-2.8c-1.4,0-2-2-2-4V7.8c0-2,0.7-3.4,2-3.4h2.8c1.4,0,2,1.5,2,3.4V20z"/>
		</g>
		<g>
			<g>
				<g>
					<line fill="#B0BEC5" x1="12.6" y1="8.8" x2="10.6" y2="8.8"/>
					<path fill="#37474F" d="M12.6,9.3h-2c-0.3,0-0.5-0.2-0.5-0.5s0.2-0.5,0.5-0.5h2c0.3,0,0.5,0.2,0.5,0.5S12.8,9.3,12.6,9.3z"/>
				</g>
				<g>
					<line fill="#B0BEC5" x1="12.6" y1="13.7" x2="10.6" y2="13.7"/>
					<path fill="#37474F" d="M12.6,14.2h-2c-0.3,0-0.5-0.2-0.5-0.5s0.2-0.5,0.5-0.5h2c0.3,0,0.5,0.2,0.5,0.5S12.8,14.2,12.6,14.2z"
						/>
				</g>
				<g>
					<line fill="#B0BEC5" x1="12.6" y1="18.6" x2="10.6" y2="18.6"/>
					<path fill="#37474F" d="M12.6,19.1h-2c-0.3,0-0.5-0.2-0.5-0.5s0.2-0.5,0.5-0.5h2c0.3,0,0.5,0.2,0.5,0.5S12.8,19.1,12.6,19.1z"
						/>
				</g>
			</g>
			<g>
				<g>
					<line fill="#B0BEC5" x1="21.4" y1="8.8" x2="19.4" y2="8.8"/>
					<path fill="#37474F" d="M21.4,9.3h-2c-0.3,0-0.5-0.2-0.5-0.5s0.2-0.5,0.5-0.5h2c0.3,0,0.5,0.2,0.5,0.5S21.7,9.3,21.4,9.3z"/>
				</g>
				<g>
					<line fill="#B0BEC5" x1="21.4" y1="13.7" x2="19.4" y2="13.7"/>
					<path fill="#37474F" d="M21.4,14.2h-2c-0.3,0-0.5-0.2-0.5-0.5s0.2-0.5,0.5-0.5h2c0.3,0,0.5,0.2,0.5,0.5S21.7,14.2,21.4,14.2z"
						/>
				</g>
				<g>
					<line fill="#B0BEC5" x1="21.4" y1="18.6" x2="19.4" y2="18.6"/>
					<path fill="#37474F" d="M21.4,19.1h-2c-0.3,0-0.5-0.2-0.5-0.5s0.2-0.5,0.5-0.5h2c0.3,0,0.5,0.2,0.5,0.5S21.7,19.1,21.4,19.1z"
						/>
				</g>
			</g>
		</g>
		<g>
			<path fill="#FFAB00" d="M16.9,21.6c0,0.5-0.4,0.9-0.9,0.9c-0.5,0-0.9-0.4-0.9-0.9c0-0.5,0.4-0.9,0.9-0.9
				C16.5,20.7,16.9,21.1,16.9,21.6z"/>
			<path fill="#37474F" d="M16,23c-0.8,0-1.4-0.6-1.4-1.4c0-0.8,0.6-1.4,1.4-1.4c0.8,0,1.4,0.6,1.4,1.4C17.4,22.4,16.8,23,16,23z
				 M16,21.2c-0.2,0-0.4,0.2-0.4,0.4c0,0.2,0.2,0.4,0.4,0.4c0.2,0,0.4-0.2,0.4-0.4C16.4,21.4,16.2,21.2,16,21.2z"/>
		</g>
		<g>
			<g>
				<path fill="#37474F" d="M16,16.5c0.2,0,0.4,0.2,0.4,0.4c0,0.2-0.2,0.4-0.4,0.4c-0.2,0-0.4-0.2-0.4-0.4
					C15.6,16.7,15.8,16.5,16,16.5z"/>
				<path fill="#37474F" d="M16,17.9L16,17.9L16,17.9c-0.5,0-0.9-0.4-0.9-0.9c0-0.2,0.1-0.5,0.3-0.6c0.2-0.2,0.4-0.3,0.7-0.3
					c0.5,0,0.9,0.4,0.9,0.9C16.9,17.5,16.5,17.9,16,17.9z"/>
			</g>
			<g>
				<path fill="#37474F" d="M16,13.5c0.2,0,0.4,0.2,0.4,0.4c0,0.2-0.2,0.4-0.4,0.4c-0.2,0-0.4-0.2-0.4-0.4
					C15.6,13.7,15.8,13.5,16,13.5z"/>
				<path fill="#37474F" d="M16,14.9L16,14.9c-0.5,0-0.9-0.4-0.9-0.9c0-0.5,0.4-0.9,0.9-0.9c0,0,0,0,0,0c0.5,0,0.9,0.4,0.9,0.9
					C16.9,14.5,16.5,14.9,16,14.9L16,14.9z"/>
			</g>
			<g>
				<path fill="#37474F" d="M16,10.5c0.2,0,0.4,0.2,0.4,0.4c0,0.2-0.2,0.4-0.4,0.4c-0.2,0-0.4-0.2-0.4-0.4
					C15.6,10.7,15.8,10.5,16,10.5z"/>
				<path fill="#37474F" d="M16,11.9c-0.2,0-0.5-0.1-0.7-0.3c-0.2-0.2-0.3-0.4-0.3-0.7c0-0.2,0.1-0.4,0.3-0.6
					c0.2-0.2,0.4-0.3,0.7-0.3c0.5,0,0.9,0.4,0.9,0.9C16.9,11.5,16.5,11.9,16,11.9z"/>
			</g>
		</g>
	</g>
</g>
</svg>
