<?xml version="1.0" encoding="utf-8"?>
<!-- Generator: Adobe Illustrator 16.0.0, SVG Export Plug-In . SVG Version: 6.00 Build 0)  -->
<!DOCTYPE svg PUBLIC "-//W3C//DTD SVG 1.1//EN" "http://www.w3.org/Graphics/SVG/1.1/DTD/svg11.dtd">
<svg version="1.1" id="Layer_1" xmlns="http://www.w3.org/2000/svg" xmlns:xlink="http://www.w3.org/1999/xlink" x="0px" y="0px"
	 width="32px" height="32px" viewBox="0 0 32 32" enable-background="new 0 0 32 32" xml:space="preserve">
<g>
	<g>
		<polyline fill="#FFECB3" points="4.9,9.5 4.9,16 6.9,16 6.9,19.3 5.6,20.7 6.9,21.9 4.9,23.9 8.1,27 		"/>
		<path fill="#37474F" d="M8.1,27.5c-0.1,0-0.2,0-0.3-0.1l-3.2-3.1c-0.1-0.1-0.2-0.2-0.2-0.4s0.1-0.3,0.1-0.4l1.7-1.7L5.3,21
			c-0.2-0.2-0.2-0.5,0-0.7l1.1-1.2v-2.6H4.9c-0.3,0-0.5-0.2-0.5-0.5V9.5C4.4,9.2,4.6,9,4.9,9s0.5,0.2,0.5,0.5v6h1.5
			c0.3,0,0.5,0.2,0.5,0.5v3.3c0,0.1,0,0.2-0.1,0.3l-0.9,1l0.9,0.9c0.1,0.1,0.2,0.2,0.2,0.4s-0.1,0.3-0.1,0.4l-1.7,1.7l2.8,2.7
			c0.2,0.2,0.2,0.5,0,0.7C8.3,27.4,8.2,27.5,8.1,27.5z"/>
	</g>
	<g>
		<rect x="4.9" y="5" fill="#37474F" width="25" height="2"/>
		<path fill="#37474F" d="M29.9,7.5h-25C4.6,7.5,4.4,7.3,4.4,7V5c0-0.3,0.2-0.5,0.5-0.5h25c0.3,0,0.5,0.2,0.5,0.5v2
			C30.4,7.3,30.2,7.5,29.9,7.5z M5.4,6.5h24v-1h-24V6.5z"/>
	</g>
	<g>
		<path fill="#78909C" d="M18.9,15c0,0.5-0.5,1-1,1l0,0c-0.5,0-1-0.4-1-1V9c0-0.5,0.5-1,1-1l0,0c0.5,0,1,0.4,1,1V15z"/>
		<path fill="#37474F" d="M17.9,16.4c-0.8,0-1.5-0.7-1.5-1.5V9c0-0.8,0.7-1.5,1.5-1.5s1.5,0.7,1.5,1.5v6
			C19.4,15.8,18.7,16.4,17.9,16.4z M17.9,8.5c-0.3,0-0.5,0.2-0.5,0.5v6c0,0.3,0.2,0.5,0.5,0.5s0.5-0.2,0.5-0.5V9
			C18.4,8.7,18.2,8.5,17.9,8.5z"/>
	</g>
	<g>
		<path fill="#FFFFFF" d="M17.6,14c-5.8,0-10.5,5-10.5,11.3c0,0.6,0.1,1.7,0.2,1.7H28c0.1,0,0.2-1.1,0.2-1.7
			C28.1,19,23.4,14,17.6,14z"/>
		<path fill="#37474F" d="M28,27.5H7.3c-0.3,0-0.7,0-0.7-2.2c0-6.5,4.9-11.8,11-11.8s11,5.3,11,11.8C28.6,27.5,28.3,27.5,28,27.5z
			 M7.7,26.5h19.8c0-0.3,0.1-0.8,0.1-1.2c0-6-4.5-10.8-10-10.8s-10,4.9-10,10.8C7.7,25.7,7.7,26.2,7.7,26.5z"/>
	</g>
	<g>
		<path fill="#FFECB3" d="M5,5.4c-2.4,0-4.4,2.2-4.4,4.8c0,0.3,0,0.8,0.1,0.8h8.6c0,0,0.1-0.6,0.1-0.8C9.3,7.6,7.4,5.4,5,5.4z"/>
		<path fill="#37474F" d="M9.2,11.5H0.7c-0.6,0-0.6-0.6-0.6-1.3c0-2.9,2.2-5.3,4.9-5.3c2.7,0,4.9,2.4,4.9,5.3
			C9.8,10.9,9.8,11.5,9.2,11.5z M1.1,10.5h7.7c0-0.1,0-0.2,0-0.3c0-2.4-1.7-4.3-3.9-4.3c-2.1,0-3.9,1.9-3.9,4.3
			C1.1,10.3,1.1,10.4,1.1,10.5z"/>
	</g>
	<g>
		<g>
			<path fill="#FFAB00" d="M22,20.5c0,2.4-2,4.4-4.4,4.4c-2.4,0-4.4-2-4.4-4.4c0-2.4,2-4.4,4.4-4.4C20.1,16.2,22,18.1,22,20.5z"/>
			<path fill="#37474F" d="M17.6,25.4c-2.7,0-4.9-2.2-4.9-4.9c0-2.7,2.2-4.9,4.9-4.9c2.7,0,4.9,2.2,4.9,4.9
				C22.5,23.2,20.3,25.4,17.6,25.4z M17.6,16.7c-2.1,0-3.9,1.7-3.9,3.9c0,2.1,1.7,3.9,3.9,3.9c2.1,0,3.9-1.7,3.9-3.9
				C21.5,18.4,19.8,16.7,17.6,16.7z"/>
		</g>
		<g>
			<path fill="#FFECB3" d="M19.6,20.5c0,1.1-0.9,2-2,2c-1.1,0-2-0.9-2-2c0-1.1,0.9-2,2-2"/>
			<path fill="#37474F" d="M17.6,23c-1.4,0-2.5-1.1-2.5-2.5c0-1.4,1.1-2.5,2.5-2.5c0.3,0,0.5,0.2,0.5,0.5S17.9,19,17.6,19
				c-0.8,0-1.5,0.7-1.5,1.5c0,0.8,0.7,1.5,1.5,1.5c0.8,0,1.5-0.7,1.5-1.5c0-0.3,0.2-0.5,0.5-0.5s0.5,0.2,0.5,0.5
				C20.1,21.9,19,23,17.6,23z"/>
		</g>
	</g>
	<g>
		<path fill="#FFECB3" d="M28,27c0,0.5-0.4,1-0.9,1H8.2c-0.5,0-0.9-0.5-0.9-1l0,0c0-0.5,0.4-1,0.9-1h18.9C27.6,26,28,26.5,28,27
			L28,27z"/>
		<path fill="#37474F" d="M27.1,28.5H8.2c-0.8,0-1.4-0.7-1.4-1.5c0-0.8,0.6-1.5,1.4-1.5h18.9c0.8,0,1.4,0.7,1.4,1.5
			S27.9,28.5,27.1,28.5z M8.2,26.5c-0.2,0-0.4,0.2-0.4,0.5c0,0.2,0.2,0.5,0.4,0.5h18.9c0.2,0,0.4-0.3,0.4-0.5c0-0.3-0.2-0.5-0.4-0.5
			H8.2z"/>
	</g>
	<g>
		<path fill="#FFAB00" d="M23.6,6c0,1.1-1,2-2.2,2h-7.5c-1.2,0-2.2-0.9-2.2-2l0,0c0-1.1,1-2,2.2-2h7.5C22.6,4,23.6,4.9,23.6,6
			L23.6,6z"/>
		<path fill="#37474F" d="M21.4,8.5h-7.5c-1.5,0-2.7-1.1-2.7-2.5c0-1.4,1.2-2.5,2.7-2.5h7.5c1.5,0,2.7,1.1,2.7,2.5
			C24.1,7.4,22.9,8.5,21.4,8.5z M13.9,4.5c-0.9,0-1.7,0.7-1.7,1.5c0,0.8,0.8,1.5,1.7,1.5h7.5c0.9,0,1.7-0.7,1.7-1.5
			c0-0.8-0.7-1.5-1.7-1.5H13.9z"/>
	</g>
	<g>
		<rect x="27.9" y="5" fill="#78909C" width="3" height="9"/>
		<path fill="#37474F" d="M31.4,14.5h-4v-10h4V14.5z M28.4,13.5h2v-8h-2V13.5z"/>
	</g>
	<g>
		<g>
			<path fill="#37474F" d="M20.3,6.3c0-0.3,0.2-0.4,0.4-0.4c0.3,0,0.5,0.2,0.4,0.4c0,0.2-0.2,0.4-0.4,0.4
				C20.5,6.7,20.3,6.5,20.3,6.3z"/>
			<path fill="#37474F" d="M20.8,7.2c-0.5,0-0.9-0.4-0.9-0.9c0-0.5,0.4-0.9,0.9-0.9c0.3,0,0.5,0.1,0.7,0.3c0.2,0.2,0.3,0.4,0.3,0.7
				C21.7,6.8,21.3,7.2,20.8,7.2L20.8,7.2z"/>
		</g>
		<g>
			<path fill="#37474F" d="M17.2,6.3c0-0.3,0.2-0.4,0.4-0.4c0.2,0,0.4,0.2,0.5,0.4c0,0.2-0.2,0.4-0.5,0.4
				C17.4,6.7,17.2,6.5,17.2,6.3z"/>
			<path fill="#37474F" d="M17.6,7.2L17.6,7.2c-0.5,0-0.9-0.4-0.9-0.9c0-0.2,0.1-0.5,0.3-0.7c0.2-0.2,0.4-0.3,0.7-0.3
				c0.5,0,0.9,0.4,1,0.9C18.6,6.8,18.2,7.2,17.6,7.2z"/>
		</g>
		<g>
			<path fill="#37474F" d="M14.1,6.3c0-0.2,0.2-0.4,0.5-0.4C14.8,5.8,15,6,15,6.3c0,0.2-0.2,0.4-0.5,0.4C14.3,6.7,14.1,6.5,14.1,6.3
				z"/>
			<path fill="#37474F" d="M14.5,7.2L14.5,7.2C14.5,7.2,14.5,7.2,14.5,7.2c-0.5,0-1-0.4-1-0.9c0-0.5,0.4-0.9,1-0.9
				c0.5,0,0.9,0.4,0.9,0.9C15.5,6.8,15,7.2,14.5,7.2z"/>
		</g>
	</g>
	<g>
		<line fill="#FFECB3" x1="28.4" y1="12" x2="30.4" y2="12"/>
		<path fill="#37474F" d="M30.4,12.5h-2c-0.3,0-0.5-0.2-0.5-0.5s0.2-0.5,0.5-0.5h2c0.3,0,0.5,0.2,0.5,0.5S30.7,12.5,30.4,12.5z"/>
	</g>
	<g>
		<path fill="#FFECB3" d="M31.1,13.9c0-2.4-2-4.4-4.6-4.4c-0.2,0-0.6,0-0.6,0.1v8.6c0,0,0.4,0.1,0.6,0.1
			C29.1,18.3,31.1,16.3,31.1,13.9z"/>
		<path fill="#37474F" d="M26.5,18.8c-0.4,0-1.1,0-1.1-0.6V9.6C25.4,9,26.1,9,26.5,9c2.9,0,5.1,2.1,5.1,4.9
			C31.6,16.6,29.4,18.8,26.5,18.8z M26.4,17.8c0,0,0.1,0,0.1,0c2.3,0,4.1-1.7,4.1-3.9c0-2.2-1.8-3.9-4.1-3.9c0,0-0.1,0-0.1,0V17.8z"
			/>
	</g>
	<g>
		<path fill="#B0BEC5" d="M25.7,18.3c-0.6,0-1.1-2-1.1-4.4s0.5-4.4,1.1-4.4s1.1,2,1.1,4.4S26.3,18.3,25.7,18.3z"/>
		<path fill="#37474F" d="M25.7,18.8c-1.5,0-1.6-4-1.6-4.9c0-0.8,0.1-4.9,1.6-4.9c1.5,0,1.6,4,1.6,4.9
			C27.3,14.7,27.2,18.8,25.7,18.8z M25.7,10.2c-0.2,0.4-0.6,1.7-0.6,3.7s0.3,3.3,0.6,3.7c0.2-0.4,0.6-1.7,0.6-3.7S26,10.6,25.7,10.2
			z"/>
	</g>
</g>
</svg>
