<?xml version="1.0" encoding="utf-8"?>
<!-- Generator: Adobe Illustrator 16.0.0, SVG Export Plug-In . SVG Version: 6.00 Build 0)  -->
<!DOCTYPE svg PUBLIC "-//W3C//DTD SVG 1.1//EN" "http://www.w3.org/Graphics/SVG/1.1/DTD/svg11.dtd">
<svg version="1.1" id="Layer_1" xmlns="http://www.w3.org/2000/svg" xmlns:xlink="http://www.w3.org/1999/xlink" x="0px" y="0px"
	 width="32px" height="32px" viewBox="0 0 32 32" enable-background="new 0 0 32 32" xml:space="preserve">
<g>
	<g>
		<polyline fill="#FFECB3" points="18.5,11.7 18.5,9.2 29.5,9.2 29.5,12.9 26.7,16.1 		"/>
		<path fill="#37474F" d="M26.7,16.6c-0.1,0-0.2,0-0.3-0.1c-0.2-0.2-0.2-0.5,0-0.7l2.7-3.1v-3H19v2c0,0.3-0.2,0.5-0.5,0.5
			S18,12,18,11.7V9.2c0-0.3,0.2-0.5,0.5-0.5h11C29.8,8.7,30,9,30,9.2v3.7c0,0.1,0,0.2-0.1,0.3l-2.8,3.2C27,16.5,26.8,16.6,26.7,16.6
			z"/>
	</g>
	<g>
		<path fill="#37474F" d="M9.2,16.9c-0.2,0-0.4-0.1-0.5-0.4L5,2.8C4.9,2.6,5.1,2.3,5.4,2.2C5.6,2.1,5.9,2.3,6,2.6l3.7,13.7
			c0.1,0.3-0.1,0.5-0.4,0.6C9.2,16.9,9.2,16.9,9.2,16.9z"/>
	</g>
	<g>
		<path fill="#37474F" d="M8.6,16.9c0,0-0.1,0-0.1,0c-0.3-0.1-0.4-0.3-0.4-0.6l3.7-13.7c0.1-0.3,0.3-0.4,0.6-0.4
			c0.3,0.1,0.4,0.3,0.4,0.6L9.1,16.6C9,16.8,8.8,16.9,8.6,16.9z"/>
	</g>
	<g>
		<path fill="#37474F" d="M30.5,27c0,2.2-1.3,4.3-3.4,4.3H5.9c-2.2,0-4.4-2.1-4.4-4.3V16.9c0-2.2,2.2-3.6,4.4-3.6h21.2
			c2.2,0,3.4,1.5,3.4,3.6V27z"/>
		<path fill="#37474F" d="M27.1,31.7H5.9C3.4,31.7,1,29.4,1,27V16.9c0-2.5,2.5-4.1,4.9-4.1h21.2c2.4,0,3.9,1.6,3.9,4.1V27
			C31,29.3,29.6,31.7,27.1,31.7z M5.9,13.7C4,13.7,2,15,2,16.9V27c0,1.9,2,3.8,3.9,3.8h21.2c1.9,0,2.9-1.9,2.9-3.8V16.9
			c0-1.9-1.1-3.1-2.9-3.1H5.9z"/>
	</g>
	<g>
		<path fill="#FFAB00" d="M28.4,18.7c0,0,0.1-1.9,0.1-2c0-1-0.8-2-1.8-2H6.3c-1,0-1.8,1-1.8,2c0,0.1,0,2,0.1,2H28.4z"/>
	</g>
	<g>
		<g>
			<path fill="#B0BEC5" d="M14,23.7H5c-0.3,0-0.5-0.2-0.5-0.5s0.2-0.5,0.5-0.5h9c0.3,0,0.5,0.2,0.5,0.5S14.3,23.7,14,23.7z"/>
		</g>
		<g>
			<path fill="#B0BEC5" d="M14,27.7H5c-0.3,0-0.5-0.2-0.5-0.5s0.2-0.5,0.5-0.5h9c0.3,0,0.5,0.2,0.5,0.5S14.3,27.7,14,27.7z"/>
		</g>
	</g>
	<g>
		<g>
			<path fill="#37474F" d="M25.2,16.7c0-0.2,0.2-0.4,0.4-0.4c0.2,0,0.4,0.2,0.4,0.4c0,0.2-0.2,0.4-0.4,0.4
				C25.4,17.2,25.2,17,25.2,16.7z"/>
			<path fill="#37474F" d="M25.6,17.7c-0.5,0-0.9-0.4-0.9-0.9c0-0.5,0.4-0.9,0.9-0.9c0.3,0,0.5,0.1,0.7,0.3c0.2,0.2,0.3,0.4,0.3,0.7
				C26.5,17.2,26.1,17.7,25.6,17.7L25.6,17.7z"/>
		</g>
		<g>
			<path fill="#37474F" d="M22.3,16.7c0-0.2,0.2-0.4,0.4-0.4c0.2,0,0.4,0.2,0.4,0.4c0,0.2-0.2,0.4-0.4,0.4
				C22.5,17.2,22.3,17,22.3,16.7z"/>
			<path fill="#37474F" d="M22.7,17.7L22.7,17.7c-0.5,0-0.9-0.4-0.9-0.9c0-0.2,0.1-0.5,0.3-0.7c0.2-0.2,0.4-0.3,0.6-0.3
				c0.5,0,0.9,0.4,0.9,0.9C23.6,17.3,23.2,17.7,22.7,17.7z"/>
		</g>
		<g>
			<path fill="#37474F" d="M19.3,16.7c0-0.2,0.2-0.4,0.4-0.4c0.2,0,0.4,0.2,0.4,0.4c0,0.2-0.2,0.4-0.4,0.4
				C19.5,17.2,19.3,17,19.3,16.7z"/>
			<path fill="#37474F" d="M19.8,17.7L19.8,17.7C19.7,17.7,19.7,17.7,19.8,17.7c-0.5,0-0.9-0.4-0.9-0.9c0-0.5,0.4-0.9,0.9-0.9
				c0.5,0,0.9,0.4,0.9,0.9C20.7,17.2,20.3,17.7,19.8,17.7z M19.8,16.8l0,0.3L19.8,16.8C19.8,16.8,19.8,16.8,19.8,16.8
				c0.1-0.1,0.1-0.2,0-0.2v0c0,0,0,0,0,0v0C19.7,16.7,19.7,16.7,19.8,16.8C19.7,16.8,19.7,16.8,19.8,16.8z"/>
		</g>
	</g>
	<g>
		<g>
			<path fill="#FFAB00" d="M28.5,24.8c0,2.3-1.8,4.1-4.1,4.1c-2.3,0-4.1-1.8-4.1-4.1c0-2.3,1.8-4.1,4.1-4.1
				C26.7,20.7,28.5,22.5,28.5,24.8z"/>
			<path fill="#37474F" d="M24.4,29.4c-2.5,0-4.6-2.1-4.6-4.6c0-2.5,2.1-4.6,4.6-4.6c2.5,0,4.6,2.1,4.6,4.6
				C29,27.3,26.9,29.4,24.4,29.4z M24.4,21.2c-2,0-3.6,1.6-3.6,3.6c0,2,1.6,3.6,3.6,3.6c2,0,3.6-1.6,3.6-3.6
				C28,22.8,26.4,21.2,24.4,21.2z"/>
		</g>
	</g>
	<g>
		<circle fill="#FFECB3" cx="5.4" cy="2.1" r="1.4"/>
		<path fill="#37474F" d="M5.4,4c-1,0-1.9-0.8-1.9-1.9c0-1,0.8-1.9,1.9-1.9c1,0,1.9,0.8,1.9,1.9C7.3,3.2,6.5,4,5.4,4z M5.4,1.3
			c-0.5,0-0.9,0.4-0.9,0.9C4.6,2.6,4.9,3,5.4,3c0.5,0,0.9-0.4,0.9-0.9C6.3,1.7,5.9,1.3,5.4,1.3z"/>
	</g>
	<g>
		<circle fill="#FFECB3" cx="12.3" cy="2.1" r="1.4"/>
		<path fill="#37474F" d="M12.3,4c-1,0-1.9-0.8-1.9-1.9c0-1,0.8-1.9,1.9-1.9s1.9,0.8,1.9,1.9C14.2,3.2,13.3,4,12.3,4z M12.3,1.3
			c-0.5,0-0.9,0.4-0.9,0.9c0,0.5,0.4,0.9,0.9,0.9s0.9-0.4,0.9-0.9C13.2,1.7,12.8,1.3,12.3,1.3z"/>
	</g>
</g>
</svg>
