<?xml version="1.0" encoding="utf-8"?>
<!-- Generator: Adobe Illustrator 16.0.0, SVG Export Plug-In . SVG Version: 6.00 Build 0)  -->
<!DOCTYPE svg PUBLIC "-//W3C//DTD SVG 1.1//EN" "http://www.w3.org/Graphics/SVG/1.1/DTD/svg11.dtd">
<svg version="1.1" id="Layer_1" xmlns="http://www.w3.org/2000/svg" xmlns:xlink="http://www.w3.org/1999/xlink" x="0px" y="0px"
	 width="32px" height="32px" viewBox="0 0 32 32" enable-background="new 0 0 32 32" xml:space="preserve">
<g>
	<g>
		<rect x="0.9" y="21.2" fill="#FFFFFF" width="30.3" height="6.8"/>
		<path fill="#37474F" d="M31.1,28.6H0.9c-0.3,0-0.5-0.2-0.5-0.5v-6.8c0-0.3,0.2-0.5,0.5-0.5h30.3c0.3,0,0.5,0.2,0.5,0.5v6.8
			C31.6,28.3,31.4,28.6,31.1,28.6z M1.4,27.6h29.3v-5.8H1.4V27.6z"/>
	</g>
	<g>
		<g>
			<path fill="#37474F" d="M9.3,24.9c0-0.2,0.2-0.3,0.3-0.3c0.2,0,0.3,0.1,0.3,0.3c0,0.2-0.1,0.3-0.3,0.3
				C9.5,25.3,9.3,25.1,9.3,24.9z"/>
			<path fill="#37474F" d="M9.6,25.8c-0.5,0-0.8-0.4-0.8-0.8c0-0.5,0.4-0.8,0.8-0.8c0.2,0,0.4,0.1,0.6,0.3c0.2,0.2,0.2,0.4,0.2,0.6
				C10.5,25.4,10.1,25.8,9.6,25.8z M9.6,24.8c-0.1,0-0.2,0.1-0.2,0.2c0,0,0,0.1,0.1,0.1c0.1,0.1,0.3,0,0.3-0.1
				C9.8,24.8,9.7,24.8,9.6,24.8z"/>
		</g>
		<g>
			<path fill="#37474F" d="M7,24.9c0-0.2,0.1-0.3,0.3-0.3c0.2,0,0.3,0.1,0.3,0.3c0,0.2-0.2,0.3-0.3,0.3C7.1,25.3,7,25.1,7,24.9z"/>
			<path fill="#37474F" d="M7.3,25.8c-0.5,0-0.8-0.4-0.8-0.8c0-0.2,0.1-0.4,0.2-0.6c0.2-0.2,0.4-0.3,0.6-0.3c0.5,0,0.8,0.4,0.8,0.8
				C8.1,25.4,7.8,25.8,7.3,25.8z M7.3,24.8c-0.1,0-0.2,0.1-0.2,0.2c0,0.2,0.2,0.2,0.3,0.1c0,0,0.1-0.1,0.1-0.1
				C7.5,24.8,7.4,24.8,7.3,24.8z"/>
		</g>
		<g>
			<path fill="#37474F" d="M4.7,24.9c0-0.2,0.2-0.3,0.3-0.3c0.2,0,0.3,0.1,0.3,0.3S5.2,25.3,5,25.3C4.8,25.3,4.7,25.1,4.7,24.9z"/>
			<path fill="#37474F" d="M5,25.8c-0.5,0-0.8-0.4-0.8-0.8c0-0.5,0.4-0.8,0.8-0.8c0.5,0,0.8,0.4,0.8,0.8C5.8,25.4,5.5,25.8,5,25.8z
				 M5,24.8c-0.1,0-0.2,0.1-0.2,0.2c0,0.2,0.3,0.2,0.3,0C5.2,24.8,5.1,24.8,5,24.8z"/>
		</g>
	</g>
	<g>
		<path fill="#FFAB00" d="M15.7,24.9c0,1.1-0.9,2-2,2c-1.1,0-2-0.9-2-2c0-1.1,0.9-2,2-2C14.8,23,15.7,23.9,15.7,24.9z"/>
		<path fill="#37474F" d="M13.7,27.4c-1.4,0-2.5-1.1-2.5-2.5c0-1.4,1.1-2.5,2.5-2.5c1.4,0,2.5,1.1,2.5,2.5
			C16.2,26.3,15.1,27.4,13.7,27.4z M13.7,23.5c-0.8,0-1.5,0.7-1.5,1.5c0,0.8,0.7,1.5,1.5,1.5c0.8,0,1.5-0.7,1.5-1.5
			C15.2,24.1,14.5,23.5,13.7,23.5z"/>
	</g>
	<g>
		<g>
			<rect x="18.8" y="24.1" fill="#FFECB3" width="1.8" height="1.8"/>
			<path fill="#37474F" d="M20.5,26.3h-1.8c-0.3,0-0.5-0.2-0.5-0.5v-1.8c0-0.3,0.2-0.5,0.5-0.5h1.8c0.3,0,0.5,0.2,0.5,0.5v1.8
				C21,26.1,20.8,26.3,20.5,26.3z M19.3,25.3H20v-0.8h-0.8V25.3z"/>
		</g>
		<g>
			<rect x="22.7" y="24.1" fill="#FFECB3" width="1.8" height="1.8"/>
			<path fill="#37474F" d="M24.4,26.3h-1.8c-0.3,0-0.5-0.2-0.5-0.5v-1.8c0-0.3,0.2-0.5,0.5-0.5h1.8c0.3,0,0.5,0.2,0.5,0.5v1.8
				C24.9,26.1,24.7,26.3,24.4,26.3z M23.2,25.3h0.8v-0.8h-0.8V25.3z"/>
		</g>
		<g>
			<rect x="26.6" y="24.1" fill="#FFECB3" width="1.8" height="1.8"/>
			<path fill="#37474F" d="M28.3,26.3h-1.8c-0.3,0-0.5-0.2-0.5-0.5v-1.8c0-0.3,0.2-0.5,0.5-0.5h1.8c0.3,0,0.5,0.2,0.5,0.5v1.8
				C28.8,26.1,28.6,26.3,28.3,26.3z M27.1,25.3h0.8v-0.8h-0.8V25.3z"/>
		</g>
	</g>
	<g>
		<g>
			<rect x="5.7" y="19.3" fill="#B0BEC5" width="2.9" height="2"/>
			<path fill="#37474F" d="M8.7,21.7H5.7c-0.3,0-0.5-0.2-0.5-0.5v-2c0-0.3,0.2-0.5,0.5-0.5h2.9c0.3,0,0.5,0.2,0.5,0.5v2
				C9.2,21.5,9,21.7,8.7,21.7z M6.2,20.7h1.9v-1H6.2V20.7z"/>
		</g>
		<g>
			<rect x="23.3" y="19.3" fill="#B0BEC5" width="2" height="2"/>
			<path fill="#37474F" d="M25.3,21.7h-2c-0.3,0-0.5-0.2-0.5-0.5v-2c0-0.3,0.2-0.5,0.5-0.5h2c0.3,0,0.5,0.2,0.5,0.5v2
				C25.8,21.5,25.6,21.7,25.3,21.7z M23.8,20.7h1v-1h-1V20.7z"/>
		</g>
	</g>
	<g>
		<g>
			<g>
				<polyline fill="#B0BEC5" points="8.4,19.3 11.3,16.3 15,16.3 				"/>
				<path fill="#37474F" d="M8.4,19.8c-0.1,0-0.3,0-0.3-0.1c-0.2-0.2-0.2-0.5,0-0.7l2.9-3c0.1-0.1,0.2-0.2,0.4-0.2H15
					c0.3,0,0.5,0.2,0.5,0.5s-0.2,0.5-0.5,0.5h-3.5l-2.8,2.8C8.7,19.8,8.5,19.8,8.4,19.8z"/>
			</g>
			<g>
				<polyline fill="#B0BEC5" points="10.6,17.8 10.6,19.3 12.1,19.3 				"/>
				<path fill="#37474F" d="M12.1,19.8h-1.5c-0.3,0-0.5-0.2-0.5-0.5v-1.5c0-0.3,0.2-0.5,0.5-0.5s0.5,0.2,0.5,0.5v1h1
					c0.3,0,0.5,0.2,0.5,0.5S12.4,19.8,12.1,19.8z"/>
			</g>
		</g>
		<g>
			<g>
				<polyline fill="#B0BEC5" points="23.5,19.3 20.5,16.3 17,16.3 				"/>
				<path fill="#37474F" d="M23.5,19.8c-0.1,0-0.3,0-0.4-0.1l-2.8-2.8H17c-0.3,0-0.5-0.2-0.5-0.5s0.2-0.5,0.5-0.5h3.6
					c0.1,0,0.3,0.1,0.4,0.1l3,3c0.2,0.2,0.2,0.5,0,0.7C23.8,19.8,23.7,19.8,23.5,19.8z"/>
			</g>
			<g>
				<polyline fill="#B0BEC5" points="21.4,17.8 21.4,19.3 18.9,19.3 				"/>
				<path fill="#37474F" d="M21.4,19.8h-2.4c-0.3,0-0.5-0.2-0.5-0.5s0.2-0.5,0.5-0.5h1.9v-1c0-0.3,0.2-0.5,0.5-0.5s0.5,0.2,0.5,0.5
					v1.5C21.9,19.5,21.6,19.8,21.4,19.8z"/>
			</g>
		</g>
	</g>
	<g>
		<rect x="11.6" y="19.3" fill="#B0BEC5" width="7.8" height="2"/>
		<path fill="#37474F" d="M19.4,21.7h-7.8c-0.3,0-0.5-0.2-0.5-0.5v-2c0-0.3,0.2-0.5,0.5-0.5h7.8c0.3,0,0.5,0.2,0.5,0.5v2
			C19.9,21.5,19.7,21.7,19.4,21.7z M12.1,20.7h6.8v-1h-6.8V20.7z"/>
	</g>
	<g>
		<path fill="#FFAB00" d="M14.9,17.6"/>
	</g>
	<g>
		<g>
			<g>
				<polygon fill="#FFAB00" points="13.7,13.4 15.9,18.3 10.9,16.3 8.7,11.3 				"/>
				<path fill="#37474F" d="M15.9,18.8c-0.1,0-0.1,0-0.2,0l-5-2.1c-0.1,0-0.2-0.1-0.3-0.3l-2.2-4.9c-0.1-0.2,0-0.4,0.1-0.6
					c0.1-0.1,0.4-0.2,0.6-0.1l5,2.1c0.1,0,0.2,0.1,0.3,0.3l2.2,4.8c0.1,0.1,0.1,0.2,0.1,0.3C16.4,18.6,16.2,18.9,15.9,18.8
					C15.9,18.8,15.9,18.8,15.9,18.8z M11.3,15.9l3.6,1.5l-1.6-3.6l-3.6-1.5L11.3,15.9z"/>
			</g>
			<g>
				<polygon fill="#FFECB3" points="13.5,15 14.4,16.9 12.4,16.1 11.6,14.1 				"/>
			</g>
		</g>
		<g>
			<g>
				<polygon fill="#FFAB00" points="18.2,13.4 16,18.3 21,16.3 23.2,11.3 				"/>
				<path fill="#37474F" d="M16,18.8c-0.1,0-0.3-0.1-0.4-0.2c-0.1-0.1-0.2-0.4-0.1-0.6l2.2-4.9c0.1-0.1,0.1-0.2,0.3-0.3l5-2.1
					c0.2-0.1,0.4,0,0.6,0.1c0.1,0.1,0.2,0.4,0.1,0.6l-2.2,4.9c-0.1,0.1-0.1,0.2-0.3,0.3l-5,2.1C16.1,18.8,16,18.8,16,18.8z
					 M18.6,13.8l-1.6,3.6l3.6-1.5l1.6-3.6L18.6,13.8z"/>
			</g>
			<g>
				<polygon fill="#FFECB3" points="18.3,15 17.4,16.9 19.4,16.1 20.3,14.1 				"/>
			</g>
		</g>
	</g>
	<g>
		<g>
			<polygon fill="#FFAB00" points="18.8,11.1 15.9,18.3 13.1,11.1 15.9,3.9 			"/>
			<path fill="#37474F" d="M15.9,18.8c-0.2,0-0.4-0.1-0.5-0.3l-2.8-7.2c0-0.1,0-0.2,0-0.4l2.8-7.2c0.1-0.2,0.3-0.3,0.5-0.3l0,0
				c0.2,0,0.4,0.1,0.5,0.3l2.8,7.2c0,0.1,0,0.2,0,0.4l-2.8,7.2C16.3,18.7,16.1,18.8,15.9,18.8z M13.6,11.1l2.3,5.8l2.3-5.8l-2.3-5.8
				L13.6,11.1z"/>
		</g>
		<g>
			<polygon fill="#FFECB3" points="17,12.6 15.9,15.4 14.8,12.6 15.9,9.7 			"/>
		</g>
	</g>
</g>
</svg>
