<?xml version="1.0" encoding="utf-8"?>
<!-- Generator: Adobe Illustrator 16.0.0, SVG Export Plug-In . SVG Version: 6.00 Build 0)  -->
<!DOCTYPE svg PUBLIC "-//W3C//DTD SVG 1.1//EN" "http://www.w3.org/Graphics/SVG/1.1/DTD/svg11.dtd">
<svg version="1.1" id="Layer_1" xmlns="http://www.w3.org/2000/svg" xmlns:xlink="http://www.w3.org/1999/xlink" x="0px" y="0px"
	 width="64px" height="64px" viewBox="0 0 64 64" enable-background="new 0 0 64 64" xml:space="preserve">
<g>
	<g>
		<line fill="#FFFFFF" x1="50.5" y1="50.5" x2="46.4" y2="46.4"/>
		<path fill="#37474F" d="M50.5,51.5c-0.3,0-0.5-0.1-0.7-0.3l-4.1-4.1c-0.4-0.4-0.4-1,0-1.4c0.4-0.4,1-0.4,1.4,0l4.1,4.1
			c0.4,0.4,0.4,1,0,1.4C51,51.4,50.8,51.5,50.5,51.5z"/>
	</g>
	<g>
		<path fill="#FFAB00" d="M55.2,62.5l-5.4-5.4c-1-1-1-2.7,0-3.7l3.6-3.6c1-1,2.7-1,3.7,0l5.4,5.4"/>
		<path fill="#37474F" d="M55.2,63.5c-0.3,0-0.5-0.1-0.7-0.3l-5.4-5.4c-0.7-0.7-1.1-1.6-1.1-2.5s0.4-1.9,1.1-2.5l3.6-3.6
			c1.4-1.4,3.7-1.4,5.1,0l5.4,5.4c0.4,0.4,0.4,1,0,1.4c-0.4,0.4-1,0.4-1.4,0l-5.4-5.4c-0.6-0.6-1.6-0.6-2.3,0l-3.6,3.6
			c-0.3,0.3-0.5,0.7-0.5,1.1c0,0.4,0.2,0.8,0.5,1.1l5.4,5.4c0.4,0.4,0.4,1,0,1.4C55.7,63.4,55.5,63.5,55.2,63.5z"/>
	</g>
	<g>
		<g>
			<polyline fill="#FFECB3" points="15,50 15,39 27,39 27,54 			"/>
			<path fill="#37474F" d="M27,55c-0.6,0-1-0.4-1-1V40H16v10c0,0.6-0.4,1-1,1s-1-0.4-1-1V39c0-0.6,0.4-1,1-1h12c0.6,0,1,0.4,1,1v15
				C28,54.6,27.6,55,27,55z"/>
		</g>
		<g>
			<polyline fill="#FFECB3" points="1.9,30.6 27.8,8.6 53.7,30.6 			"/>
			<path fill="#37474F" d="M1.9,31.6c-0.3,0-0.6-0.1-0.8-0.4c-0.4-0.4-0.3-1.1,0.1-1.4L27.1,7.8c0.4-0.3,0.9-0.3,1.3,0l25.9,22.1
				c0.4,0.4,0.5,1,0.1,1.4c-0.4,0.4-1,0.5-1.4,0.1L27.8,9.9L2.5,31.4C2.3,31.5,2.1,31.6,1.9,31.6z"/>
		</g>
		<g>
			<line fill="#FFECB3" x1="14" y1="31" x2="42" y2="31"/>
			<path fill="#37474F" d="M42,32H14c-0.6,0-1-0.4-1-1s0.4-1,1-1h28c0.6,0,1,0.4,1,1S42.6,32,42,32z"/>
		</g>
		<g>
			<line fill="#FFECB3" x1="9" y1="46" x2="9" y2="34"/>
			<path fill="#37474F" d="M9,47c-0.6,0-1-0.4-1-1V34c0-0.6,0.4-1,1-1s1,0.4,1,1v12C10,46.6,9.6,47,9,47z"/>
		</g>
		<g>
			<line fill="#FFECB3" x1="47" y1="34" x2="47" y2="46"/>
			<path fill="#37474F" d="M47,47c-0.6,0-1-0.4-1-1V34c0-0.6,0.4-1,1-1s1,0.4,1,1v12C48,46.6,47.6,47,47,47z"/>
		</g>
		<g>
			<circle fill="#FFFFFF" cx="36.7" cy="44" r="4.8"/>
			<path fill="#37474F" d="M36.7,49.8c-3.2,0-5.8-2.6-5.8-5.8c0-3.2,2.6-5.8,5.8-5.8c3.2,0,5.8,2.6,5.8,5.8
				C42.5,47.2,39.9,49.8,36.7,49.8z M36.7,40.2c-2.1,0-3.8,1.7-3.8,3.8c0,2.1,1.7,3.8,3.8,3.8c2.1,0,3.8-1.7,3.8-3.8
				C40.5,42,38.8,40.2,36.7,40.2z"/>
		</g>
		<g>
			<line fill="#FFECB3" x1="36.7" y1="39.5" x2="36.7" y2="48.5"/>
			<path fill="#37474F" d="M36.7,49.5c-0.6,0-1-0.4-1-1v-9c0-0.6,0.4-1,1-1s1,0.4,1,1v9C37.7,49.1,37.3,49.5,36.7,49.5z"/>
		</g>
		<g>
			<line fill="#FFECB3" x1="41" y1="44" x2="32" y2="44"/>
			<path fill="#37474F" d="M41,45h-9c-0.6,0-1-0.4-1-1s0.4-1,1-1h9c0.6,0,1,0.4,1,1S41.6,45,41,45z"/>
		</g>
		<g>
			<polyline fill="#FFECB3" points="9,24 9,11 15,11 			"/>
			<path fill="#37474F" d="M9,25c-0.6,0-1-0.4-1-1V11c0-0.6,0.4-1,1-1h6c0.6,0,1,0.4,1,1s-0.4,1-1,1h-5v12C10,24.6,9.6,25,9,25z"/>
		</g>
	</g>
	<g>
		<path fill="#37474F" d="M27.8,55.1c-7.3,0-14.2-2.8-19.3-8c-5.2-5.2-8-12-8-19.3c0-7.3,2.8-14.2,8-19.3c5.2-5.2,12-8,19.3-8
			c7.3,0,14.2,2.8,19.3,8c10.6,10.6,10.6,28,0,38.6C41.9,52.2,35.1,55.1,27.8,55.1z M27.8,2.5C21,2.5,14.7,5.1,9.9,9.9
			C5.1,14.7,2.5,21,2.5,27.8c0,6.8,2.6,13.1,7.4,17.9c4.8,4.8,11.1,7.4,17.9,7.4s13.1-2.6,17.9-7.4c9.9-9.9,9.9-25.9,0-35.8
			C40.9,5.1,34.5,2.5,27.8,2.5z"/>
	</g>
</g>
</svg>
