<?xml version="1.0" encoding="utf-8"?>
<!-- Generator: Adobe Illustrator 16.0.0, SVG Export Plug-In . SVG Version: 6.00 Build 0)  -->
<!DOCTYPE svg PUBLIC "-//W3C//DTD SVG 1.1//EN" "http://www.w3.org/Graphics/SVG/1.1/DTD/svg11.dtd">
<svg version="1.1" id="Layer_1" xmlns="http://www.w3.org/2000/svg" xmlns:xlink="http://www.w3.org/1999/xlink" x="0px" y="0px"
	 width="24px" height="24px" viewBox="0 0 24 24" enable-background="new 0 0 24 24" xml:space="preserve">
<g>
	<path d="M21.3,0.2H2.7c-0.3,0-0.5,0.2-0.5,0.5v7.8v11.7v2.9c0,0.3,0.2,0.5,0.5,0.5h18.6c0.3,0,0.5-0.2,0.5-0.5v-2.9V8.6V0.8
		C21.8,0.5,21.6,0.2,21.3,0.2z M20.8,8.1h-2.9c-0.2,0-0.4,0.1-0.5,0.4c-1.4-1.3-3.2-2-5.2-2c-0.4,0-0.8,0-1.2,0.1V1.2h9.8V8.1z
		 M12.2,7.4c3.7,0,6.7,3,6.7,6.7c0,3.7-3,6.7-6.7,6.7c-3.7,0-6.7-3-6.7-6.7C5.5,10.4,8.5,7.4,12.2,7.4z M3.2,22.8v-1.9h2.9
		c0.3,0,0.5-0.2,0.5-0.5s-0.2-0.5-0.5-0.5H3.2V9.1h2.9c0.3,0,0.5-0.2,0.5-0.5S6.4,8.1,6.1,8.1H3.2V1.2H10v2.9H7.1
		c-0.3,0-0.5,0.2-0.5,0.5s0.2,0.5,0.5,0.5H10v1.6c-3.2,0.9-5.6,3.9-5.6,7.4c0,4.3,3.5,7.7,7.7,7.7c4.3,0,7.7-3.5,7.7-7.7
		c0-1.9-0.7-3.7-1.9-5.1h2.8v10.7h-2.9c-0.3,0-0.5,0.2-0.5,0.5s0.2,0.5,0.5,0.5h2.9v1.9H3.2z"/>
	<path d="M19.5,5.5L19.5,5.5c0.4,0,0.8-0.3,0.8-0.8c0-0.2-0.1-0.4-0.2-0.6c-0.1-0.1-0.3-0.2-0.6-0.2c-0.4,0-0.8,0.3-0.8,0.8
		C18.7,5.1,19,5.5,19.5,5.5z"/>
	<path d="M17.5,5.5L17.5,5.5c0.4,0,0.8-0.3,0.8-0.8c0-0.4-0.4-0.7-0.8-0.7c-0.2,0-0.4,0.1-0.5,0.2c-0.1,0.1-0.2,0.3-0.2,0.5
		C16.8,5.1,17.1,5.4,17.5,5.5z"/>
	<path d="M15.6,5.5C15.6,5.5,15.6,5.5,15.6,5.5L15.6,5.5c0.4,0,0.8-0.3,0.8-0.8c0-0.4-0.3-0.8-0.8-0.8c-0.4,0-0.8,0.3-0.8,0.8
		C14.9,5.1,15.2,5.5,15.6,5.5z M15.7,4.9L15.7,4.9L15.7,4.9L15.7,4.9z"/>
	<path d="M19.5,3.8L19.5,3.8c0.4,0,0.8-0.3,0.8-0.8c0-0.2-0.1-0.4-0.2-0.6c-0.1-0.1-0.3-0.2-0.6-0.2c-0.4,0-0.8,0.3-0.8,0.8
		C18.7,3.4,19,3.8,19.5,3.8z"/>
	<path d="M17.5,3.8L17.5,3.8c0.4,0,0.8-0.3,0.8-0.8c0-0.4-0.4-0.7-0.8-0.7c-0.2,0-0.4,0.1-0.5,0.2c-0.1,0.1-0.2,0.3-0.2,0.5
		C16.8,3.4,17.1,3.8,17.5,3.8z"/>
	<path d="M15.6,3.8L15.6,3.8L15.6,3.8c0.4,0,0.8-0.3,0.8-0.8c0-0.4-0.3-0.8-0.8-0.8c-0.4,0-0.8,0.3-0.8,0.8
		C14.9,3.4,15.2,3.8,15.6,3.8z M15.7,3.3L15.7,3.3L15.7,3.3L15.7,3.3z"/>
	<path d="M6.2,5.7c-0.6,0-1-0.5-1-1c0-0.6,0.5-1,1-1c0.3,0,0.5-0.2,0.5-0.5S6.4,2.7,6.2,2.7c-1.1,0-2,0.9-2,2c0,1.1,0.9,2,2,2
		c0.3,0,0.5-0.2,0.5-0.5S6.4,5.7,6.2,5.7z"/>
	<path d="M7.6,13.8c0.2,0,0.3-0.1,0.3-0.3c0-2.1,1.7-3.9,3.9-3.9c2.1,0,3.8,1.7,3.9,3.7l-0.2-0.2c-0.2-0.2-0.5-0.2-0.7,0
		s-0.2,0.5,0,0.7l0.8,0.8c0.1,0.1,0.2,0.1,0.3,0.1s0.2,0,0.3-0.1l0.8-0.8c0.2-0.2,0.2-0.5,0-0.7s-0.5-0.2-0.7,0l-0.2,0.2
		C16.2,11,14.2,9,11.8,9c-2.5,0-4.5,2-4.5,4.5C7.3,13.7,7.4,13.8,7.6,13.8z"/>
	<path d="M16.8,14.5c-0.2,0-0.3,0.1-0.3,0.3c0,2.1-1.7,3.9-3.9,3.9c-2.1,0-3.8-1.7-3.9-3.7l0.2,0.2c0.2,0.2,0.5,0.2,0.7,0
		c0.2-0.2,0.2-0.5,0-0.7l-0.8-0.8c-0.2-0.2-0.5-0.2-0.7,0l-0.8,0.8c-0.2,0.2-0.2,0.5,0,0.7c0.1,0.1,0.2,0.2,0.4,0.2
		c0.1,0,0.2,0,0.3-0.1l0.2-0.2c0.1,2.4,2,4.4,4.5,4.4c2.5,0,4.5-2,4.5-4.5C17.1,14.6,17,14.5,16.8,14.5z"/>
	<path d="M12.2,3.7h1.2v1.2c0,0.3,0.2,0.5,0.5,0.5s0.5-0.2,0.5-0.5V3.2c0-0.3-0.2-0.5-0.5-0.5h-1.7c-0.3,0-0.5,0.2-0.5,0.5
		S11.9,3.7,12.2,3.7z"/>
</g>
</svg>
