<?xml version="1.0" encoding="utf-8"?>
<!-- Generator: Adobe Illustrator 16.0.0, SVG Export Plug-In . SVG Version: 6.00 Build 0)  -->
<!DOCTYPE svg PUBLIC "-//W3C//DTD SVG 1.1//EN" "http://www.w3.org/Graphics/SVG/1.1/DTD/svg11.dtd">
<svg version="1.1" id="Layer_1" xmlns="http://www.w3.org/2000/svg" xmlns:xlink="http://www.w3.org/1999/xlink" x="0px" y="0px"
	 width="33px" height="33px" viewBox="0 0 33 33" enable-background="new 0 0 33 33" xml:space="preserve">
<g>
	<g>
		<polygon fill="#FFFFFF" points="24.4,1 4,1 4,32 29,32 29,5.8 		"/>
		<path fill="#37474F" d="M29,32.5H4c-0.3,0-0.5-0.2-0.5-0.5V1c0-0.3,0.2-0.5,0.5-0.5h20.4c0.1,0,0.3,0.1,0.4,0.2l4.6,4.8
			c0.1,0.1,0.1,0.2,0.1,0.3V32C29.5,32.3,29.3,32.5,29,32.5z M4.5,31.5h24V6l-4.3-4.5H4.5V31.5z"/>
	</g>
	<g>
		<polyline fill="#FFECB3" points="28.5,7 24,7 24,1.5 		"/>
		<path fill="#37474F" d="M28.5,7.5H24c-0.3,0-0.5-0.2-0.5-0.5V1.5C23.5,1.2,23.7,1,24,1s0.5,0.2,0.5,0.5v5h4C28.8,6.5,29,6.7,29,7
			S28.8,7.5,28.5,7.5z"/>
	</g>
	<g>
		<g>
			<circle fill="#FFECB3" cx="10.2" cy="7.5" r="3.2"/>
			<path fill="#37474F" d="M10.2,11.2c-2,0-3.7-1.7-3.7-3.7s1.7-3.7,3.7-3.7s3.7,1.7,3.7,3.7S12.2,11.2,10.2,11.2z M10.2,4.8
				C8.7,4.8,7.5,6,7.5,7.5s1.2,2.7,2.7,2.7s2.7-1.2,2.7-2.7S11.7,4.8,10.2,4.8z"/>
		</g>
		<g>
			<g>
				<polyline fill="#FFAB00" points="8,10.5 8,14.3 9.9,12.6 				"/>
				<path fill="#37474F" d="M8,14.8c-0.1,0-0.1,0-0.2,0c-0.2-0.1-0.3-0.3-0.3-0.5v-3.8C7.5,10.2,7.7,10,8,10s0.5,0.2,0.5,0.5v2.7
					l1.1-1c0.2-0.2,0.5-0.2,0.7,0c0.2,0.2,0.2,0.5,0,0.7l-1.9,1.7C8.2,14.8,8.1,14.8,8,14.8z"/>
			</g>
			<g>
				<polyline fill="#FFAB00" points="12,10.5 12,14.3 10.1,12.6 				"/>
				<path fill="#37474F" d="M12,14.8c-0.1,0-0.2,0-0.3-0.1L9.7,13c-0.2-0.2-0.2-0.5,0-0.7c0.2-0.2,0.5-0.2,0.7,0l1.1,1v-2.7
					c0-0.3,0.2-0.5,0.5-0.5s0.5,0.2,0.5,0.5v3.8c0,0.2-0.1,0.4-0.3,0.5C12.1,14.8,12.1,14.8,12,14.8z"/>
			</g>
		</g>
	</g>
	<g>
		<g>
			<line fill="#FFAB00" x1="7.5" y1="19" x2="25.5" y2="19"/>
			<path fill="#37474F" d="M25.5,19.5h-18C7.2,19.5,7,19.3,7,19s0.2-0.5,0.5-0.5h18c0.3,0,0.5,0.2,0.5,0.5S25.8,19.5,25.5,19.5z"/>
		</g>
		<g>
			<line fill="#FFAB00" x1="7.5" y1="23" x2="25.5" y2="23"/>
			<path fill="#37474F" d="M25.5,23.5h-18C7.2,23.5,7,23.3,7,23s0.2-0.5,0.5-0.5h18c0.3,0,0.5,0.2,0.5,0.5S25.8,23.5,25.5,23.5z"/>
		</g>
		<g>
			<line fill="#FFAB00" x1="7.5" y1="28" x2="25.5" y2="28"/>
			<path fill="#37474F" d="M25.5,28.5h-18C7.2,28.5,7,28.3,7,28s0.2-0.5,0.5-0.5h18c0.3,0,0.5,0.2,0.5,0.5S25.8,28.5,25.5,28.5z"/>
		</g>
	</g>
	<g>
		<g>
			<line fill="#FFAB00" x1="15.5" y1="10" x2="25.5" y2="10"/>
			<path fill="#37474F" d="M25.5,10.5h-10c-0.3,0-0.5-0.2-0.5-0.5s0.2-0.5,0.5-0.5h10c0.3,0,0.5,0.2,0.5,0.5S25.8,10.5,25.5,10.5z"
				/>
		</g>
		<g>
			<line fill="#FFAB00" x1="15.5" y1="14" x2="25.5" y2="14"/>
			<path fill="#37474F" d="M25.5,14.5h-10c-0.3,0-0.5-0.2-0.5-0.5s0.2-0.5,0.5-0.5h10c0.3,0,0.5,0.2,0.5,0.5S25.8,14.5,25.5,14.5z"
				/>
		</g>
	</g>
</g>
</svg>
