<?xml version="1.0" encoding="utf-8"?>
<!-- Generator: Adobe Illustrator 16.0.0, SVG Export Plug-In . SVG Version: 6.00 Build 0)  -->
<!DOCTYPE svg PUBLIC "-//W3C//DTD SVG 1.1//EN" "http://www.w3.org/Graphics/SVG/1.1/DTD/svg11.dtd">
<svg version="1.1" id="Layer_1" xmlns="http://www.w3.org/2000/svg" xmlns:xlink="http://www.w3.org/1999/xlink" x="0px" y="0px"
	 width="32px" height="32px" viewBox="0 0 32 32" enable-background="new 0 0 32 32" xml:space="preserve">
<g>
	<g>
		<g>
			<path fill="#FFECB3" d="M7.8,20.1c0,1.7-1.5,3.1-3.5,3.1s-3.5-1.4-3.5-3.1"/>
			<path fill="#37474F" d="M4.3,23.6c-2.2,0-4-1.6-4-3.6c0-0.3,0.2-0.5,0.5-0.5s0.5,0.2,0.5,0.5c0,1.4,1.3,2.6,3,2.6
				c1.6,0,3-1.2,3-2.6c0-0.3,0.2-0.5,0.5-0.5s0.5,0.2,0.5,0.5C8.3,22,6.5,23.6,4.3,23.6z"/>
		</g>
		<g>
			<path fill="#FFECB3" d="M14.7,20.1c0,1.7-1.5,3.1-3.5,3.1s-3.5-1.4-3.5-3.1"/>
			<path fill="#37474F" d="M11.2,23.6c-2.2,0-4-1.6-4-3.6c0-0.3,0.2-0.5,0.5-0.5s0.5,0.2,0.5,0.5c0,1.4,1.3,2.6,3,2.6s3-1.2,3-2.6
				c0-0.3,0.2-0.5,0.5-0.5s0.5,0.2,0.5,0.5C15.2,22,13.4,23.6,11.2,23.6z"/>
		</g>
		<g>
			<path fill="#FFECB3" d="M21.6,20.1c0,1.7-1.5,3.1-3.5,3.1c-1.9,0-3.5-1.4-3.5-3.1"/>
			<path fill="#37474F" d="M18.2,23.6c-2.2,0-4-1.6-4-3.6c0-0.3,0.2-0.5,0.5-0.5s0.5,0.2,0.5,0.5c0,1.4,1.3,2.6,3,2.6
				c1.6,0,3-1.2,3-2.6c0-0.3,0.2-0.5,0.5-0.5s0.5,0.2,0.5,0.5C22.1,22,20.3,23.6,18.2,23.6z"/>
		</g>
		<g>
			<path fill="#FFECB3" d="M28.5,20.1c0,1.7-1.5,3.1-3.5,3.1s-3.5-1.4-3.5-3.1"/>
			<path fill="#37474F" d="M25.1,23.6c-2.2,0-4-1.6-4-3.6c0-0.3,0.2-0.5,0.5-0.5s0.5,0.2,0.5,0.5c0,1.4,1.3,2.6,3,2.6s3-1.2,3-2.6
				c0-0.3,0.2-0.5,0.5-0.5s0.5,0.2,0.5,0.5C29,22,27.3,23.6,25.1,23.6z"/>
		</g>
	</g>
	<g>
		<g>
			<path fill="#FFECB3" d="M17.3,14.6c0,1.7-1.5,3.1-3.5,3.1s-3.5-1.4-3.5-3.1"/>
			<path fill="#37474F" d="M13.8,18.1c-2.2,0-4-1.6-4-3.6c0-0.3,0.2-0.5,0.5-0.5s0.5,0.2,0.5,0.5c0,1.4,1.3,2.6,3,2.6s3-1.2,3-2.6
				c0-0.3,0.2-0.5,0.5-0.5s0.5,0.2,0.5,0.5C17.8,16.5,16,18.1,13.8,18.1z"/>
		</g>
		<g>
			<path fill="#FFECB3" d="M24.2,14.6c0,1.7-1.5,3.1-3.5,3.1s-3.5-1.4-3.5-3.1"/>
			<path fill="#37474F" d="M20.8,18.1c-2.2,0-4-1.6-4-3.6c0-0.3,0.2-0.5,0.5-0.5s0.5,0.2,0.5,0.5c0,1.4,1.3,2.6,3,2.6
				c1.6,0,3-1.2,3-2.6c0-0.3,0.2-0.5,0.5-0.5s0.5,0.2,0.5,0.5C24.7,16.5,22.9,18.1,20.8,18.1z"/>
		</g>
		<g>
			<path fill="#FFECB3" d="M31.1,14.6c0,1.7-1.5,3.1-3.5,3.1s-3.5-1.4-3.5-3.1"/>
			<path fill="#37474F" d="M27.7,18.1c-2.2,0-4-1.6-4-3.6c0-0.3,0.2-0.5,0.5-0.5s0.5,0.2,0.5,0.5c0,1.4,1.3,2.6,3,2.6
				c1.6,0,3-1.2,3-2.6c0-0.3,0.2-0.5,0.5-0.5s0.5,0.2,0.5,0.5C31.6,16.5,29.8,18.1,27.7,18.1z"/>
		</g>
	</g>
	<g>
		<g>
			<path fill="#FFECB3" d="M9.9,26c0,1.7-1.5,3.1-3.5,3.1C4.5,29.1,3,27.7,3,26"/>
			<path fill="#37474F" d="M6.4,29.6c-2.2,0-4-1.6-4-3.6c0-0.3,0.2-0.5,0.5-0.5s0.5,0.2,0.5,0.5c0,1.4,1.3,2.6,3,2.6
				c1.6,0,3-1.2,3-2.6c0-0.3,0.2-0.5,0.5-0.5s0.5,0.2,0.5,0.5C10.4,27.9,8.6,29.6,6.4,29.6z"/>
		</g>
		<g>
			<path fill="#FFECB3" d="M16.8,26c0,1.7-1.5,3.1-3.5,3.1S9.9,27.7,9.9,26"/>
			<path fill="#37474F" d="M13.3,29.6c-2.2,0-4-1.6-4-3.6c0-0.3,0.2-0.5,0.5-0.5s0.5,0.2,0.5,0.5c0,1.4,1.3,2.6,3,2.6
				c1.6,0,3-1.2,3-2.6c0-0.3,0.2-0.5,0.5-0.5s0.5,0.2,0.5,0.5C17.3,27.9,15.5,29.6,13.3,29.6z"/>
		</g>
		<g>
			<path fill="#FFECB3" d="M23.7,26c0,1.7-1.5,3.1-3.5,3.1s-3.5-1.4-3.5-3.1"/>
			<path fill="#37474F" d="M20.2,29.6c-2.2,0-4-1.6-4-3.6c0-0.3,0.2-0.5,0.5-0.5s0.5,0.2,0.5,0.5c0,1.4,1.3,2.6,3,2.6s3-1.2,3-2.6
				c0-0.3,0.2-0.5,0.5-0.5s0.5,0.2,0.5,0.5C24.2,27.9,22.4,29.6,20.2,29.6z"/>
		</g>
		<g>
			<path fill="#FFECB3" d="M30.6,26c0,1.7-1.5,3.1-3.5,3.1c-1.9,0-3.5-1.4-3.5-3.1"/>
			<path fill="#37474F" d="M27.2,29.6c-2.2,0-4-1.6-4-3.6c0-0.3,0.2-0.5,0.5-0.5s0.5,0.2,0.5,0.5c0,1.4,1.3,2.6,3,2.6
				c1.6,0,3-1.2,3-2.6c0-0.3,0.2-0.5,0.5-0.5s0.5,0.2,0.5,0.5C31.1,27.9,29.3,29.6,27.2,29.6z"/>
		</g>
	</g>
	<g>
		<path fill="#FFECB3" d="M5.1,20.7V5.4c0-1.4,1.1-2.5,2.5-2.5h2"/>
		<path fill="#37474F" d="M5.1,21.2c-0.3,0-0.5-0.2-0.5-0.5V5.4c0-1.7,1.3-3,3-3h2c0.3,0,0.5,0.2,0.5,0.5S9.9,3.4,9.6,3.4h-2
			c-1.1,0-2,0.9-2,2v15.2C5.6,21,5.4,21.2,5.1,21.2z"/>
	</g>
	<g>
		<path fill="#37474F" d="M10.4,21.2c-0.3,0-0.5-0.2-0.5-0.5V5.4c0-1.7,1.3-3,3-3h2c0.3,0,0.5,0.2,0.5,0.5s-0.2,0.5-0.5,0.5h-2
			c-1.1,0-2,0.9-2,2v15.2C10.9,21,10.7,21.2,10.4,21.2z"/>
	</g>
	<g>
		<line fill="#FFECB3" x1="5.4" y1="7.2" x2="10.4" y2="7.2"/>
		<path fill="#37474F" d="M10.4,7.7h-5c-0.3,0-0.5-0.2-0.5-0.5s0.2-0.5,0.5-0.5h5c0.3,0,0.5,0.2,0.5,0.5S10.7,7.7,10.4,7.7z"/>
	</g>
	<g>
		<line fill="#FFECB3" x1="5.4" y1="11.1" x2="10.4" y2="11.1"/>
		<path fill="#37474F" d="M10.4,11.6h-5c-0.3,0-0.5-0.2-0.5-0.5s0.2-0.5,0.5-0.5h5c0.3,0,0.5,0.2,0.5,0.5S10.7,11.6,10.4,11.6z"/>
	</g>
	<g>
		<line fill="#FFECB3" x1="5.4" y1="14.9" x2="10.4" y2="14.9"/>
		<path fill="#37474F" d="M10.4,15.4h-5c-0.3,0-0.5-0.2-0.5-0.5s0.2-0.5,0.5-0.5h5c0.3,0,0.5,0.2,0.5,0.5S10.7,15.4,10.4,15.4z"/>
	</g>
	<g>
		<line fill="#FFECB3" x1="5.4" y1="18.8" x2="10.4" y2="18.8"/>
		<path fill="#37474F" d="M10.4,19.3h-5c-0.3,0-0.5-0.2-0.5-0.5s0.2-0.5,0.5-0.5h5c0.3,0,0.5,0.2,0.5,0.5S10.7,19.3,10.4,19.3z"/>
	</g>
	<g>
		<line fill="#FFECB3" x1="1" y1="6.7" x2="3.7" y2="6.7"/>
		<path fill="#37474F" d="M3.7,7.2H1c-0.3,0-0.5-0.2-0.5-0.5S0.8,6.2,1,6.2h2.7c0.3,0,0.5,0.2,0.5,0.5S4,7.2,3.7,7.2z"/>
	</g>
	<g>
		<line fill="#FFECB3" x1="12.6" y1="6.7" x2="27.8" y2="6.7"/>
		<path fill="#37474F" d="M27.8,7.2H12.6c-0.3,0-0.5-0.2-0.5-0.5s0.2-0.5,0.5-0.5h15.2c0.3,0,0.5,0.2,0.5,0.5S28.1,7.2,27.8,7.2z"/>
	</g>
</g>
</svg>
