<?xml version="1.0" encoding="utf-8"?>
<!-- Generator: Adobe Illustrator 16.0.0, SVG Export Plug-In . SVG Version: 6.00 Build 0)  -->
<!DOCTYPE svg PUBLIC "-//W3C//DTD SVG 1.1//EN" "http://www.w3.org/Graphics/SVG/1.1/DTD/svg11.dtd">
<svg version="1.1" id="Layer_1" xmlns="http://www.w3.org/2000/svg" xmlns:xlink="http://www.w3.org/1999/xlink" x="0px" y="0px"
	 width="32px" height="32px" viewBox="0 0 32 32" enable-background="new 0 0 32 32" xml:space="preserve">
<g>
	<g>
		<line fill="#FFFFFF" x1="25.2" y1="25.2" x2="23.2" y2="23.2"/>
		<path fill="#37474F" d="M25.2,25.7c-0.1,0-0.3,0-0.4-0.1l-2.1-2.1c-0.2-0.2-0.2-0.5,0-0.7s0.5-0.2,0.7,0l2.1,2.1
			c0.2,0.2,0.2,0.5,0,0.7C25.5,25.7,25.4,25.7,25.2,25.7z"/>
	</g>
	<g>
		<path fill="#FFAB00" d="M27.6,31.3l-2.7-2.7c-0.5-0.5-0.5-1.3,0-1.8l1.8-1.8c0.5-0.5,1.3-0.5,1.8,0l2.7,2.7"/>
		<path fill="#37474F" d="M27.6,31.8c-0.1,0-0.3,0-0.4-0.1l-2.7-2.7c-0.3-0.3-0.5-0.8-0.5-1.3s0.2-0.9,0.5-1.3l1.8-1.8
			c0.7-0.7,1.8-0.7,2.5,0l2.7,2.7c0.2,0.2,0.2,0.5,0,0.7s-0.5,0.2-0.7,0l-2.7-2.7c-0.3-0.3-0.8-0.3-1.1,0l-1.8,1.8
			c-0.2,0.2-0.2,0.4-0.2,0.6s0.1,0.4,0.2,0.6l2.7,2.7c0.2,0.2,0.2,0.5,0,0.7C27.9,31.7,27.7,31.8,27.6,31.8z"/>
	</g>
	<g>
		<g>
			<polyline fill="#FFECB3" points="7.6,25.5 7.6,19.6 13.4,19.6 13.4,26.8 			"/>
			<path fill="#37474F" d="M13.4,27.3c-0.3,0-0.5-0.2-0.5-0.5v-6.7H8.1v5.3c0,0.3-0.2,0.5-0.5,0.5s-0.5-0.2-0.5-0.5v-5.8
				c0-0.3,0.2-0.5,0.5-0.5h5.7c0.3,0,0.5,0.2,0.5,0.5v7.2C13.9,27.1,13.6,27.3,13.4,27.3z"/>
		</g>
		<g>
			<polyline fill="#FFECB3" points="0.9,15.3 13.9,4.3 26.8,15.3 			"/>
			<path fill="#37474F" d="M26.8,15.8c-0.1,0-0.2,0-0.3-0.1L13.9,4.9L1.3,15.7c-0.2,0.2-0.5,0.2-0.7-0.1c-0.2-0.2-0.2-0.5,0.1-0.7
				l12.9-11c0.2-0.2,0.5-0.2,0.6,0l12.9,11c0.2,0.2,0.2,0.5,0.1,0.7C27.1,15.8,27,15.8,26.8,15.8z"/>
		</g>
		<g>
			<line fill="#FFECB3" x1="6.9" y1="15.5" x2="20.9" y2="15.5"/>
			<path fill="#37474F" d="M20.9,16h-14c-0.3,0-0.5-0.2-0.5-0.5S6.6,15,6.9,15h14c0.3,0,0.5,0.2,0.5,0.5S21.2,16,20.9,16z"/>
		</g>
		<g>
			<line fill="#FFECB3" x1="4.5" y1="22.9" x2="4.5" y2="17.1"/>
			<path fill="#37474F" d="M4.5,23.4c-0.3,0-0.5-0.2-0.5-0.5v-5.8c0-0.3,0.2-0.5,0.5-0.5S5,16.8,5,17.1v5.8
				C5,23.1,4.7,23.4,4.5,23.4z"/>
		</g>
		<g>
			<line fill="#FFECB3" x1="23.3" y1="17.1" x2="23.3" y2="22.9"/>
			<path fill="#37474F" d="M23.3,23.4c-0.3,0-0.5-0.2-0.5-0.5v-5.8c0-0.3,0.2-0.5,0.5-0.5s0.5,0.2,0.5,0.5v5.8
				C23.8,23.1,23.6,23.4,23.3,23.4z"/>
		</g>
		<g>
			<circle fill="#FFFFFF" cx="18.4" cy="22" r="2.4"/>
			<path fill="#37474F" d="M18.4,24.9c-1.6,0-2.9-1.3-2.9-2.9c0-1.6,1.3-2.9,2.9-2.9c1.6,0,2.9,1.3,2.9,2.9
				C21.3,23.6,20,24.9,18.4,24.9z M18.4,20.1c-1,0-1.9,0.9-1.9,1.9c0,1,0.9,1.9,1.9,1.9s1.9-0.9,1.9-1.9
				C20.3,21,19.4,20.1,18.4,20.1z"/>
		</g>
		<g>
			<line fill="#FFECB3" x1="18.4" y1="19.6" x2="18.4" y2="24"/>
			<path fill="#37474F" d="M18.4,24.5c-0.3,0-0.5-0.2-0.5-0.5v-4.4c0-0.3,0.2-0.5,0.5-0.5s0.5,0.2,0.5,0.5V24
				C18.9,24.3,18.6,24.5,18.4,24.5z"/>
		</g>
		<g>
			<line fill="#FFECB3" x1="20.5" y1="22" x2="16.2" y2="22"/>
			<path fill="#37474F" d="M20.5,22.5h-4.4c-0.3,0-0.5-0.2-0.5-0.5s0.2-0.5,0.5-0.5h4.4c0.3,0,0.5,0.2,0.5,0.5S20.8,22.5,20.5,22.5z
				"/>
		</g>
		<g>
			<polyline fill="#FFECB3" points="4.5,11.9 4.5,5.5 7.4,5.5 			"/>
			<path fill="#37474F" d="M4.5,12.4c-0.3,0-0.5-0.2-0.5-0.5V5.5C4,5.2,4.2,5,4.5,5h2.9c0.3,0,0.5,0.2,0.5,0.5S7.7,6,7.4,6H5v5.9
				C5,12.1,4.7,12.4,4.5,12.4z"/>
		</g>
	</g>
	<g>
		<path fill="#37474F" d="M13.9,27.5c-3.6,0-7.1-1.4-9.7-4c-5.3-5.3-5.3-14,0-19.3c2.6-2.6,6-4,9.7-4c3.6,0,7.1,1.4,9.7,4
			c5.3,5.3,5.3,14,0,19.3C21,26.1,17.5,27.5,13.9,27.5z M13.9,1.2c-3.4,0-6.6,1.3-8.9,3.7C0,9.9,0,17.9,4.9,22.8
			c2.4,2.4,5.6,3.7,8.9,3.7c3.4,0,6.6-1.3,8.9-3.7c4.9-4.9,4.9-13,0-17.9C20.4,2.5,17.3,1.2,13.9,1.2z"/>
	</g>
</g>
</svg>
