<?xml version="1.0" encoding="utf-8"?>
<!-- Generator: Adobe Illustrator 16.0.0, SVG Export Plug-In . SVG Version: 6.00 Build 0)  -->
<!DOCTYPE svg PUBLIC "-//W3C//DTD SVG 1.1//EN" "http://www.w3.org/Graphics/SVG/1.1/DTD/svg11.dtd">
<svg version="1.1" id="Layer_1" xmlns="http://www.w3.org/2000/svg" xmlns:xlink="http://www.w3.org/1999/xlink" x="0px" y="0px"
	 width="25px" height="25px" viewBox="0 0 25 25" enable-background="new 0 0 25 25" xml:space="preserve">
<g>
	<path d="M24.1,21.6h-0.8V4c0-0.3-0.2-0.5-0.5-0.5S22.4,3.7,22.4,4v1.1c-0.1-0.1-0.2-0.1-0.3-0.1h-9.7c0,0,0,0,0,0c0,0,0,0,0,0H2.7
		C2.6,4.9,2.5,5,2.4,5.1V4c0-0.3-0.2-0.5-0.5-0.5S1.5,3.7,1.5,4v17.6H0.7c-0.3,0-0.5,0.2-0.5,0.5s0.2,0.5,0.5,0.5h23.4
		c0.3,0,0.5-0.2,0.5-0.5S24.4,21.6,24.1,21.6z M17.3,16h-0.1h-4.3v-2.6h9.2c0.1,0,0.2,0,0.3-0.1h0V16h-0.3H17.3z M6.9,12.3H2.6V9.7
		h4.2V12.3z M17.8,12.3V9.7h4.2v2.6H17.8z M16.7,12.3H8.1V9.7h8.7V12.3z M2.4,13.3c0.1,0.1,0.2,0.1,0.3,0.1h9.2V16H7.6H7.4H2.7H2.4
		L2.4,13.3L2.4,13.3z M2.6,17L2.6,17h4.2v2.6H2.6V17z M8.1,17h4.3h0.1h4.3v2.6H8.1V17z M17.8,17h4.2v2.6h-4.2V17z M12.9,5.9h9.2
		c0.1,0,0.2-0.1,0.3-0.1v2.9c-0.1-0.1-0.2-0.1-0.3-0.1h-9.2V5.9z M2.7,5.9h9.2v2.6H2.7c-0.1,0-0.2,0.1-0.3,0.1V5.8
		C2.5,5.9,2.6,5.9,2.7,5.9z M2.4,20.6h5c0,0,0.1,0,0.1,0c0,0,0.1,0,0.1,0h9.7c0,0,0,0,0.1,0c0,0,0,0,0.1,0h5.1v1h-20V20.6z"/>
</g>
</svg>
