<?xml version="1.0" encoding="utf-8"?>
<!-- Generator: Adobe Illustrator 16.0.0, SVG Export Plug-In . SVG Version: 6.00 Build 0)  -->
<!DOCTYPE svg PUBLIC "-//W3C//DTD SVG 1.1//EN" "http://www.w3.org/Graphics/SVG/1.1/DTD/svg11.dtd">
<svg version="1.1" id="Layer_1" xmlns="http://www.w3.org/2000/svg" xmlns:xlink="http://www.w3.org/1999/xlink" x="0px" y="0px"
	 width="24px" height="24px" viewBox="0 0 24 24" enable-background="new 0 0 24 24" xml:space="preserve">
<g>
	<path d="M21.5,0.5h-19C2.2,0.5,2,0.7,2,1v7v12v3c0,0.3,0.2,0.5,0.5,0.5h19c0.3,0,0.5-0.2,0.5-0.5v-3V8V1C22,0.7,21.8,0.5,21.5,0.5z
		 M21,1.5v6h-1c-0.1,0-0.2,0-0.2,0.1c-0.4-1.1-1.3-2.1-2.4-2.1H7c-0.2,0-0.3,0-0.5,0.1c0.1-0.1,0.1-0.2,0.1-0.3
		c0-0.3-0.2-0.5-0.5-0.5c-0.6,0-1-0.5-1-1c0-0.6,0.5-1,1-1c0.3,0,0.5-0.2,0.5-0.5S6.4,1.7,6.1,1.7c-1.1,0-2,0.9-2,2
		c0,1.1,0.8,1.9,1.9,2C5.2,6.1,4.6,6.8,4.3,7.6C4.2,7.5,4.1,7.5,4,7.5H3v-6H21z M21,19.5h-1c0,0,0,0,0,0c0-0.1,0-0.2,0-0.3V8.8
		c0-0.1,0-0.2,0-0.3c0,0,0,0,0,0h1V19.5z M7,6.5h10.4c1,0,1.7,1.2,1.7,2.3v4.7h-4.3c-0.5-2.1-2.4-3.7-4.7-3.7C7.2,9.8,5,12,5,14.7
		c0,1.5,0.7,2.9,1.9,3.8H5.5C5.2,18.5,5,18.7,5,19V8.8C5,7.8,5.9,6.5,7,6.5z M9.1,18.5C7.4,18.1,6,16.6,6,14.7
		c0-2.1,1.7-3.9,3.9-3.9c1.9,0,3.4,1.3,3.8,3.1c0,0.1,0,0.2,0,0.2l0.1,0.2c0,0.1,0,0.2,0,0.4c0,1.9-1.3,3.4-3.1,3.8H9.1z M14.4,16.7
		l0.3,1.2c0,0.1,0,0.2,0,0.3c0,0.1,0,0.1,0.1,0.2H13C13.6,18,14,17.4,14.4,16.7z M14.9,14.5h3.6l-0.8,3.4c0,0,0,0,0,0.1
		c-0.2,0.1-0.5,0.2-1,0.2s-0.8-0.1-1-0.1c0,0,0-0.1,0-0.1L14.9,14.5z M6,20.5v-1h3c0.3,0.1,0.6,0.1,0.9,0.1s0.6,0,0.9-0.1H18v1
		c0,0.2,0.2,0.4,0.4,0.5c-0.3,0.3-0.6,0.5-1,0.5H7c-0.5,0-0.9-0.2-1.2-0.6C5.9,20.8,6,20.7,6,20.5z M18.5,18.5
		c0-0.1,0.1-0.1,0.1-0.2c0-0.1,0.1-0.2,0.1-0.4l0.4-1.5V19C19,18.7,18.8,18.5,18.5,18.5z M3,8.5h1c0,0,0,0,0,0c0,0.1,0,0.2,0,0.3
		v10.4c0,0.1,0,0.2,0,0.3c0,0,0,0,0,0H3V8.5z M3,22.5v-2h1c0.1,0,0.2,0,0.3-0.1c0.5,1.1,1.5,2.1,2.7,2.1H3z M17.3,22.5
		c1.2,0,2.1-0.9,2.4-2c0.1,0,0.1,0,0.2,0h1v2H17.3z"/>
	<path d="M9.9,11.8c-1.6,0-2.9,1.3-2.9,2.9c0,1.6,1.3,2.9,2.9,2.9c1.6,0,2.9-1.3,2.9-2.9C12.8,13.1,11.5,11.8,9.9,11.8z M9.9,16.6
		c-1,0-1.9-0.8-1.9-1.9c0-1,0.8-1.9,1.9-1.9c1,0,1.9,0.8,1.9,1.9C11.8,15.7,11,16.6,9.9,16.6z"/>
	<path d="M19.5,5.2L19.5,5.2c0.4,0,0.8-0.3,0.8-0.8c0-0.2-0.1-0.4-0.2-0.6c-0.1-0.1-0.3-0.2-0.6-0.2c-0.4,0-0.8,0.3-0.8,0.8
		C18.7,4.9,19,5.2,19.5,5.2z"/>
	<path d="M17.5,5.2L17.5,5.2c0.4,0,0.8-0.3,0.8-0.8c0-0.4-0.4-0.8-0.8-0.8c-0.2,0-0.4,0.1-0.5,0.2c-0.1,0.1-0.2,0.3-0.2,0.5
		C16.8,4.9,17.1,5.2,17.5,5.2z"/>
	<path d="M15.6,5.2C15.6,5.2,15.6,5.2,15.6,5.2L15.6,5.2c0.5,0,0.8-0.3,0.8-0.8c0-0.4-0.3-0.8-0.8-0.8S14.9,4,14.9,4.4
		C14.9,4.9,15.2,5.2,15.6,5.2z M15.6,4.7L15.6,4.7L15.6,4.7L15.6,4.7z"/>
	<path d="M19.5,3.5L19.5,3.5c0.4,0,0.8-0.3,0.8-0.8c0-0.2-0.1-0.4-0.2-0.6C19.9,2,19.7,2,19.5,2c-0.4,0-0.8,0.3-0.8,0.8
		C18.7,3.2,19,3.5,19.5,3.5z"/>
	<path d="M17.5,3.5L17.5,3.5c0.4,0,0.8-0.3,0.8-0.8C18.3,2.3,18,2,17.5,2c-0.2,0-0.4,0.1-0.5,0.2c-0.1,0.1-0.2,0.3-0.2,0.5
		C16.8,3.2,17.1,3.5,17.5,3.5z"/>
	<path d="M15.6,3.5C15.6,3.5,15.6,3.5,15.6,3.5L15.6,3.5c0.5,0,0.8-0.3,0.8-0.8c0-0.4-0.3-0.8-0.8-0.8s-0.8,0.3-0.8,0.8
		C14.9,3.2,15.2,3.5,15.6,3.5z M15.6,3L15.6,3L15.6,3L15.6,3z"/>
	<path d="M7,4.5h7c0.3,0,0.5-0.2,0.5-0.5S14.3,3.5,14,3.5H7C6.7,3.5,6.5,3.7,6.5,4S6.7,4.5,7,4.5z"/>
</g>
</svg>
