<?xml version="1.0" encoding="utf-8"?>
<!-- Generator: Adobe Illustrator 16.0.0, SVG Export Plug-In . SVG Version: 6.00 Build 0)  -->
<!DOCTYPE svg PUBLIC "-//W3C//DTD SVG 1.1//EN" "http://www.w3.org/Graphics/SVG/1.1/DTD/svg11.dtd">
<svg version="1.1" id="Layer_1" xmlns="http://www.w3.org/2000/svg" xmlns:xlink="http://www.w3.org/1999/xlink" x="0px" y="0px"
	 width="64px" height="64px" viewBox="0 0 64 64" enable-background="new 0 0 64 64" xml:space="preserve">
<g>
	<g>
		<path fill="#B0BEC5" d="M61.2,48c0,3.8-3.5,8.7-7.8,8.7H10.6c-4.3,0-7.8-4.9-7.8-8.7l0,0c0-3.8,3.5-7.3,7.8-7.3h42.7
			C57.7,40.7,61.2,44.2,61.2,48L61.2,48z"/>
		<path fill="#37474F" d="M53.4,57.7H10.6c-4.9,0-8.8-5.3-8.8-9.7c0-4.5,4-8.3,8.8-8.3h42.7c4.8,0,8.8,3.8,8.8,8.3
			C62.2,52.4,58.3,57.7,53.4,57.7z M10.6,41.7c-3.6,0-6.8,2.9-6.8,6.3c0,3.4,3.2,7.7,6.8,7.7h42.7c3.6,0,6.8-4.3,6.8-7.7
			c0-3.4-3.1-6.3-6.8-6.3H10.6z"/>
	</g>
	<g>
		<g>
			<rect x="50.6" y="8.7" fill="#FFFFFF" width="3" height="26"/>
			<path fill="#37474F" d="M53.6,35.7h-3c-0.6,0-1-0.4-1-1v-26c0-0.6,0.4-1,1-1h3c0.6,0,1,0.4,1,1v26C54.6,35.3,54.1,35.7,53.6,35.7
				z M51.6,33.7h1v-24h-1V33.7z"/>
		</g>
		<g>
			<rect x="49.6" y="25.7" fill="#FFAB00" width="5" height="27"/>
			<path fill="#37474F" d="M54.6,53.7h-5c-0.6,0-1-0.4-1-1v-27c0-0.6,0.4-1,1-1h5c0.6,0,1,0.4,1,1v27C55.6,53.3,55.1,53.7,54.6,53.7
				z M50.6,51.7h3v-25h-3V51.7z"/>
		</g>
	</g>
	<g>
		<path fill="#FFFFFF" d="M61.2,51.7c0,3.8-3.5,7-7.8,7H10.6c-4.3,0-7.8-3.2-7.8-7l0,0c0-3.8,3.5-7,7.8-7h42.7
			C57.7,44.7,61.2,47.9,61.2,51.7L61.2,51.7z"/>
		<path fill="#37474F" d="M53.4,59.7H10.6c-4.9,0-8.8-3.6-8.8-8c0-4.4,4-8,8.8-8h42.7c4.9,0,8.8,3.6,8.8,8
			C62.2,56.1,58.2,59.7,53.4,59.7z M10.6,45.7c-3.8,0-6.8,2.7-6.8,6c0,3.3,3.1,6,6.8,6h42.7c3.8,0,6.8-2.7,6.8-6c0-3.3-3.1-6-6.8-6
			H10.6z"/>
	</g>
	<g>
		<polygon fill="#FFAB00" points="13.2,55.8 9.4,51.9 13.2,48 17.1,51.9 		"/>
		<path fill="#37474F" d="M13.2,56.8c-0.3,0-0.5-0.1-0.7-0.3l-3.9-3.9c-0.4-0.4-0.4-1,0-1.4l3.9-3.9c0.2-0.2,0.4-0.3,0.7-0.3
			c0,0,0,0,0,0c0.3,0,0.5,0.1,0.7,0.3l3.9,3.9c0.4,0.4,0.4,1,0,1.4L14,56.5C13.8,56.7,13.5,56.8,13.2,56.8L13.2,56.8z M10.8,51.9
			l2.5,2.5l2.5-2.5l-2.5-2.5L10.8,51.9z"/>
	</g>
	<g>
		<g>
			<g>
				<path fill="#37474F" d="M34.7,51.9c0-0.4,0.4-0.8,0.8-0.8c0.4,0,0.8,0.3,0.8,0.8c0,0.4-0.4,0.8-0.8,0.8
					C35.1,52.7,34.7,52.3,34.7,51.9z"/>
				<path fill="#37474F" d="M35.5,53.2c-0.7,0-1.3-0.6-1.3-1.3c0-0.7,0.6-1.3,1.3-1.3c0.4,0,0.7,0.1,0.9,0.4
					c0.2,0.2,0.4,0.6,0.4,0.9C36.8,52.6,36.2,53.2,35.5,53.2L35.5,53.2z M35.5,51.6c-0.2,0-0.3,0.1-0.3,0.3c0,0.2,0.1,0.3,0.3,0.3
					v0.5l0-0.5c0.2,0,0.3-0.1,0.3-0.3c0-0.1,0-0.2-0.1-0.2C35.7,51.6,35.6,51.6,35.5,51.6z"/>
			</g>
			<g>
				<path fill="#37474F" d="M29.2,51.9c0-0.4,0.4-0.8,0.8-0.8c0.4,0,0.8,0.3,0.8,0.8c0,0.4-0.4,0.8-0.8,0.8
					C29.5,52.7,29.2,52.3,29.2,51.9z"/>
				<path fill="#37474F" d="M29.9,53.2L29.9,53.2c-0.7,0-1.3-0.6-1.3-1.3c0-0.3,0.1-0.7,0.4-0.9c0.2-0.2,0.6-0.4,0.9-0.4
					c0.7,0,1.3,0.6,1.3,1.3C31.3,52.6,30.7,53.2,29.9,53.2z M30,51.6c-0.1,0-0.2,0-0.2,0.1c0,0-0.1,0.1-0.1,0.2
					c0,0.2,0.1,0.3,0.3,0.3c0.2,0,0.3-0.1,0.3-0.3C30.3,51.7,30.1,51.6,30,51.6z"/>
			</g>
			<g>
				<path fill="#37474F" d="M23.6,51.9c0-0.4,0.4-0.8,0.8-0.8c0.4,0,0.8,0.3,0.8,0.8c0,0.4-0.4,0.8-0.8,0.8
					C24,52.7,23.6,52.3,23.6,51.9z"/>
				<path fill="#37474F" d="M24.4,53.2L24.4,53.2C24.4,53.2,24.4,53.2,24.4,53.2c-0.8,0-1.3-0.6-1.3-1.3c0-0.7,0.6-1.3,1.3-1.3
					c0.7,0,1.3,0.6,1.3,1.3C25.7,52.6,25.1,53.2,24.4,53.2z M24.4,51.6c-0.2,0-0.3,0.1-0.3,0.3c0,0.2,0.1,0.3,0.3,0.3l0.1,0.5v-0.5
					c0.1,0,0.3-0.1,0.3-0.3C24.7,51.7,24.6,51.6,24.4,51.6z"/>
			</g>
		</g>
		<g>
			<g>
				<path fill="#37474F" d="M53.6,51.9c0-0.4,0.4-0.8,0.8-0.8c0.4,0,0.8,0.3,0.8,0.8c0,0.4-0.4,0.8-0.8,0.8
					C53.9,52.7,53.6,52.3,53.6,51.9z"/>
				<path fill="#37474F" d="M54.3,53.2c-0.7,0-1.3-0.6-1.3-1.3c0-0.7,0.6-1.3,1.3-1.3c0.4,0,0.7,0.1,0.9,0.4
					c0.2,0.2,0.4,0.6,0.4,0.9C55.7,52.6,55.1,53.2,54.3,53.2L54.3,53.2z M54.4,51.6c-0.2,0-0.3,0.1-0.3,0.3c0,0.2,0.1,0.3,0.3,0.3
					v0.5l0-0.5c0.2,0,0.3-0.1,0.3-0.3c0-0.1,0-0.2-0.1-0.2C54.5,51.6,54.5,51.6,54.4,51.6z"/>
			</g>
			<g>
				<path fill="#37474F" d="M48,51.9c0-0.4,0.4-0.8,0.8-0.8c0.4,0,0.8,0.3,0.8,0.8c0,0.4-0.4,0.8-0.8,0.8C48.4,52.7,48,52.3,48,51.9
					z"/>
				<path fill="#37474F" d="M48.8,53.2L48.8,53.2c-0.7,0-1.3-0.6-1.3-1.3c0-0.3,0.1-0.7,0.4-0.9c0.2-0.2,0.6-0.4,0.9-0.4
					c0.7,0,1.3,0.6,1.3,1.3C50.1,52.6,49.5,53.2,48.8,53.2z M48.8,51.6c-0.1,0-0.2,0-0.2,0.1c0,0-0.1,0.1-0.1,0.2
					c0,0.2,0.1,0.3,0.3,0.3c0.2,0,0.3-0.1,0.3-0.3C49.1,51.7,49,51.6,48.8,51.6z"/>
			</g>
			<g>
				<path fill="#37474F" d="M42.4,51.9c0-0.4,0.4-0.8,0.8-0.8c0.4,0,0.8,0.3,0.8,0.8c0,0.4-0.4,0.8-0.8,0.8
					C42.8,52.7,42.4,52.3,42.4,51.9z"/>
				<path fill="#37474F" d="M43.3,53.2L43.3,53.2C43.2,53.2,43.2,53.2,43.3,53.2c-0.8,0-1.3-0.6-1.3-1.3c0-0.7,0.6-1.3,1.3-1.3
					c0.7,0,1.3,0.6,1.3,1.3C44.5,52.6,44,53.2,43.3,53.2z M43.2,51.6c-0.2,0-0.3,0.1-0.3,0.3c0,0.2,0.1,0.3,0.3,0.3l0.1,0.5v-0.5
					c0.1,0,0.3-0.1,0.3-0.3C43.5,51.7,43.4,51.6,43.2,51.6z"/>
			</g>
		</g>
	</g>
	<g>
		<path fill="#B0BEC5" d="M55.3,8.5c0,1.8-1.5,3.3-3.3,3.3c-1.8,0-3.3-1.5-3.3-3.3c0-1.8,1.5-3.3,3.3-3.3
			C53.8,5.3,55.3,6.7,55.3,8.5z"/>
		<path fill="#37474F" d="M52.1,12.8c-2.3,0-4.3-1.9-4.3-4.3c0-2.3,1.9-4.3,4.3-4.3c2.3,0,4.3,1.9,4.3,4.3
			C56.3,10.9,54.4,12.8,52.1,12.8z M52.1,6.3c-1.2,0-2.3,1-2.3,2.3c0,1.2,1,2.3,2.3,2.3c1.2,0,2.3-1,2.3-2.3
			C54.3,7.3,53.3,6.3,52.1,6.3z"/>
	</g>
	<g>
		<g>
			<g>
				<g>
					<path fill="#FFAB00" d="M44.6,23.7C44.6,16,36,9.7,25.4,9.7C14.7,9.7,6.1,16,6.1,23.7"/>
					<path fill="#37474F" d="M44.6,24.7c-0.6,0-1-0.4-1-1c0-7.1-8.2-12.9-18.3-12.9c-10.1,0-18.3,5.8-18.3,12.9c0,0.6-0.4,1-1,1
						s-1-0.4-1-1c0-8.2,9.1-14.9,20.3-14.9c11.2,0,20.3,6.7,20.3,14.9C45.6,24.2,45.2,24.7,44.6,24.7z"/>
				</g>
			</g>
			<g>
				<g>
					<path fill="#FFECB3" d="M39.9,27c0-6.6-6.5-11.9-14.5-11.9S10.9,20.4,10.9,27"/>
					<path fill="#37474F" d="M39.9,28c-0.6,0-1-0.4-1-1c0-6-6.1-10.9-13.5-10.9S11.9,21,11.9,27c0,0.6-0.4,1-1,1s-1-0.4-1-1
						c0-7.1,7-12.9,15.5-12.9S40.9,19.9,40.9,27C40.9,27.6,40.5,28,39.9,28z"/>
				</g>
			</g>
			<g>
				<g>
					<path fill="#FFFFFF" d="M35.7,30.4c0-4.8-4.6-8.6-10.3-8.6c-5.7,0-10.3,3.9-10.3,8.6"/>
					<path fill="#37474F" d="M35.7,31.4c-0.6,0-1-0.4-1-1c0-4.2-4.2-7.6-9.3-7.6c-5.1,0-9.3,3.4-9.3,7.6c0,0.6-0.4,1-1,1s-1-0.4-1-1
						c0-5.3,5.1-9.6,11.3-9.6c6.2,0,11.3,4.3,11.3,9.6C36.7,31,36.2,31.4,35.7,31.4z"/>
				</g>
			</g>
		</g>
		<g>
			<polygon fill="#37474F" points="20.1,31.7 25.4,40.3 30.7,31.7 			"/>
		</g>
	</g>
</g>
</svg>
