<?xml version="1.0" encoding="utf-8"?>
<!-- Generator: Adobe Illustrator 16.0.0, SVG Export Plug-In . SVG Version: 6.00 Build 0)  -->
<!DOCTYPE svg PUBLIC "-//W3C//DTD SVG 1.1//EN" "http://www.w3.org/Graphics/SVG/1.1/DTD/svg11.dtd">
<svg version="1.1" id="Layer_1" xmlns="http://www.w3.org/2000/svg" xmlns:xlink="http://www.w3.org/1999/xlink" x="0px" y="0px"
	 width="64px" height="64px" viewBox="0 0 64 64" enable-background="new 0 0 64 64" xml:space="preserve">
<g>
	<g>
		<rect x="7" y="2" fill="#FFFFFF" width="50" height="60"/>
		<path fill="#37474F" d="M57,63H7c-0.6,0-1-0.4-1-1V2c0-0.6,0.4-1,1-1h50c0.6,0,1,0.4,1,1v60C58,62.6,57.6,63,57,63z M8,61h48V3H8
			V61z"/>
	</g>
	<g>
		<rect x="7" y="21" fill="#FFAB00" width="50" height="33"/>
		<path fill="#37474F" d="M57,55H7c-0.6,0-1-0.4-1-1V21c0-0.6,0.4-1,1-1h50c0.6,0,1,0.4,1,1v33C58,54.6,57.6,55,57,55z M8,53h48V22
			H8V53z"/>
	</g>
	<g>
		<rect x="7" y="26" fill="#FFECB3" width="50" height="23"/>
		<path fill="#37474F" d="M57,50H7c-0.6,0-1-0.4-1-1V26c0-0.6,0.4-1,1-1h50c0.6,0,1,0.4,1,1v23C58,49.6,57.6,50,57,50z M8,48h48V27
			H8V48z"/>
	</g>
	<g>
		<path fill="#37474F" d="M52,50.5c0,3.5-2.5,6.5-6,6.5H18.3c-3.5,0-6.3-3-6.3-6.5V22.8c0-3.5,2.8-6.8,6.3-6.8H46c3.5,0,6,3.3,6,6.8
			V50.5z"/>
		<path fill="#37474F" d="M46,58H18.3c-4.1,0-7.3-3.4-7.3-7.5V22.8c0-4.2,3.4-7.8,7.3-7.8H46c3.9,0,7,3.5,7,7.8v27.6
			C53,54.7,49.9,58,46,58z M18.3,17c-2.8,0-5.3,2.7-5.3,5.8v27.6c0,3,2.4,5.5,5.3,5.5H46c2.8,0,5-2.4,5-5.5V22.8
			c0-2.8-1.9-5.8-5-5.8H18.3z"/>
	</g>
	<g>
		<g>
			<path fill="#78909C" d="M35.8,28.1c0,5.9-4.8,10.6-10.6,10.6c-5.9,0-10.6-4.8-10.6-10.6c0-5.9,4.8-10.6,10.6-10.6
				C31,17.4,35.8,22.2,35.8,28.1z"/>
			<path fill="#37474F" d="M25.1,39.7c-6.4,0-11.6-5.2-11.6-11.6c0-6.4,5.2-11.6,11.6-11.6c6.4,0,11.6,5.2,11.6,11.6
				C36.8,34.5,31.5,39.7,25.1,39.7z M25.1,18.4c-5.3,0-9.6,4.3-9.6,9.6c0,5.3,4.3,9.6,9.6,9.6c5.3,0,9.6-4.3,9.6-9.6
				C34.8,22.7,30.4,18.4,25.1,18.4z"/>
		</g>
		<g>
			<path fill="#FFFFFF" d="M30.9,28.1c0,3.2-2.6,5.8-5.8,5.8c-3.2,0-5.8-2.6-5.8-5.8c0-3.2,2.6-5.7,5.8-5.7
				C28.3,22.3,30.9,24.9,30.9,28.1z"/>
			<path fill="#37474F" d="M25.1,34.8c-3.7,0-6.8-3-6.8-6.8c0-3.7,3-6.7,6.8-6.7c3.7,0,6.8,3,6.8,6.7C31.9,31.8,28.8,34.8,25.1,34.8
				z M25.1,23.3c-2.6,0-4.8,2.1-4.8,4.7c0,2.6,2.1,4.8,4.8,4.8c2.6,0,4.8-2.1,4.8-4.8C29.9,25.4,27.7,23.3,25.1,23.3z"/>
		</g>
	</g>
	<g>
		<g>
			<path fill="#B0BEC5" d="M35.8,32.2c0,5.9-4.8,10.6-10.6,10.6c-5.9,0-10.6-4.8-10.6-10.6c0-5.9,4.8-10.6,10.6-10.6
				C31,21.5,35.8,26.3,35.8,32.2z"/>
			<path fill="#37474F" d="M25.1,43.8c-6.4,0-11.6-5.2-11.6-11.6c0-6.4,5.2-11.6,11.6-11.6c6.4,0,11.6,5.2,11.6,11.6
				C36.8,38.6,31.5,43.8,25.1,43.8z M25.1,22.5c-5.3,0-9.6,4.3-9.6,9.6c0,5.3,4.3,9.6,9.6,9.6c5.3,0,9.6-4.3,9.6-9.6
				C34.8,26.8,30.4,22.5,25.1,22.5z"/>
		</g>
		<g>
			<path fill="#FFFFFF" d="M30.9,32.1c0,3.2-2.6,5.8-5.8,5.8c-3.2,0-5.8-2.6-5.8-5.8c0-3.2,2.6-5.8,5.8-5.8
				C28.3,26.4,30.9,29,30.9,32.1z"/>
			<path fill="#37474F" d="M25.1,38.9c-3.7,0-6.8-3-6.8-6.8c0-3.7,3-6.8,6.8-6.8c3.7,0,6.8,3,6.8,6.8C31.9,35.9,28.8,38.9,25.1,38.9
				z M25.1,27.4c-2.6,0-4.8,2.1-4.8,4.8c0,2.6,2.1,4.8,4.8,4.8c2.6,0,4.8-2.1,4.8-4.8C29.9,29.5,27.7,27.4,25.1,27.4z"/>
		</g>
	</g>
	<g>
		<g>
			<path fill="#B0BEC5" d="M35.8,36.2c0,5.9-4.8,10.6-10.6,10.6c-5.9,0-10.6-4.8-10.6-10.6c0-5.9,4.8-10.6,10.6-10.6
				C31,25.6,35.8,30.4,35.8,36.2z"/>
			<path fill="#37474F" d="M25.1,47.9c-6.4,0-11.6-5.2-11.6-11.6c0-6.4,5.2-11.6,11.6-11.6c6.4,0,11.6,5.2,11.6,11.6
				C36.8,42.7,31.5,47.9,25.1,47.9z M25.1,26.6c-5.3,0-9.6,4.3-9.6,9.6c0,5.3,4.3,9.6,9.6,9.6c5.3,0,9.6-4.3,9.6-9.6
				C34.8,30.9,30.4,26.6,25.1,26.6z"/>
		</g>
		<g>
			<path fill="#FFFFFF" d="M30.9,36.2c0,3.2-2.6,5.8-5.8,5.8c-3.2,0-5.8-2.6-5.8-5.8c0-3.2,2.6-5.7,5.8-5.7
				C28.3,30.5,30.9,33.1,30.9,36.2z"/>
			<path fill="#37474F" d="M25.1,43c-3.7,0-6.8-3-6.8-6.8c0-3.7,3-6.7,6.8-6.7c3.7,0,6.8,3,6.8,6.7C31.9,40,28.8,43,25.1,43z
				 M25.1,31.5c-2.6,0-4.8,2.1-4.8,4.7c0,2.6,2.1,4.8,4.8,4.8c2.6,0,4.8-2.1,4.8-4.8C29.9,33.6,27.7,31.5,25.1,31.5z"/>
		</g>
	</g>
	<g>
		<g>
			<path fill="#FFFFFF" d="M35.8,40.5c0,5.9-4.8,10.6-10.6,10.6c-5.9,0-10.6-4.8-10.6-10.6c0-5.9,4.8-10.6,10.6-10.6
				C31,29.9,35.8,34.6,35.8,40.5z"/>
			<path fill="#37474F" d="M25.1,52.2c-6.4,0-11.6-5.2-11.6-11.6c0-6.4,5.2-11.6,11.6-11.6c6.4,0,11.6,5.2,11.6,11.6
				C36.8,46.9,31.5,52.2,25.1,52.2z M25.1,30.9c-5.3,0-9.6,4.3-9.6,9.6c0,5.3,4.3,9.6,9.6,9.6c5.3,0,9.6-4.3,9.6-9.6
				C34.8,35.2,30.4,30.9,25.1,30.9z"/>
		</g>
		<g>
			<path fill="#FFFFFF" d="M30.9,40.5c0,3.2-2.6,5.8-5.8,5.8c-3.2,0-5.8-2.6-5.8-5.8c0-3.2,2.6-5.8,5.8-5.8
				C28.3,34.8,30.9,37.3,30.9,40.5z"/>
			<path fill="#37474F" d="M25.1,47.3c-3.7,0-6.8-3-6.8-6.8c0-3.7,3-6.8,6.8-6.8c3.7,0,6.8,3,6.8,6.8C31.9,44.2,28.8,47.3,25.1,47.3
				z M25.1,35.8c-2.6,0-4.8,2.1-4.8,4.8c0,2.6,2.1,4.8,4.8,4.8c2.6,0,4.8-2.1,4.8-4.8C29.9,37.9,27.7,35.8,25.1,35.8z"/>
		</g>
	</g>
	<g>
		<g>
			<g>
				<path fill="#37474F" d="M50.9,11.1c0-0.4,0.3-0.7,0.7-0.7c0.4,0,0.7,0.3,0.7,0.7c0,0.4-0.3,0.7-0.7,0.7
					C51.2,11.8,50.9,11.5,50.9,11.1z"/>
				<path fill="#37474F" d="M51.6,12.3c-0.7,0-1.2-0.5-1.2-1.2c0-0.7,0.6-1.2,1.2-1.2c0.3,0,0.7,0.1,0.9,0.4
					c0.2,0.2,0.4,0.5,0.3,0.9C52.9,11.8,52.3,12.3,51.6,12.3L51.6,12.3z M51.6,10.9c-0.1,0-0.2,0.1-0.2,0.2c0,0.1,0.1,0.2,0.2,0.2
					v0.5l0-0.5c0.1,0,0.3-0.1,0.3-0.2c0-0.1,0-0.1-0.1-0.2C51.8,10.9,51.7,10.9,51.6,10.9z"/>
			</g>
			<g>
				<path fill="#37474F" d="M45.8,11.1c0-0.4,0.3-0.7,0.7-0.7c0.4,0,0.7,0.3,0.7,0.7c0,0.4-0.3,0.7-0.7,0.7
					C46.1,11.8,45.8,11.5,45.8,11.1z"/>
				<path fill="#37474F" d="M46.5,12.3L46.5,12.3c-0.7,0-1.2-0.6-1.2-1.2c0-0.3,0.1-0.6,0.3-0.9c0.2-0.2,0.5-0.4,0.9-0.4
					c0.7,0,1.2,0.5,1.2,1.2C47.8,11.8,47.2,12.3,46.5,12.3z M46.5,10.9c-0.1,0-0.1,0-0.2,0.1c0,0-0.1,0.1-0.1,0.2
					c0,0.1,0.1,0.2,0.2,0.2c0.1,0,0.2-0.1,0.2-0.2C46.8,11,46.7,10.9,46.5,10.9z"/>
			</g>
			<g>
				<path fill="#37474F" d="M40.7,11.1c0-0.4,0.3-0.7,0.7-0.7c0.4,0,0.7,0.3,0.7,0.7c0,0.4-0.3,0.7-0.7,0.7
					C41,11.8,40.7,11.5,40.7,11.1z"/>
				<path fill="#37474F" d="M41.4,12.3L41.4,12.3C41.4,12.3,41.4,12.3,41.4,12.3c-0.7,0-1.3-0.6-1.3-1.2c0-0.7,0.6-1.2,1.2-1.2
					c0.7,0,1.2,0.6,1.2,1.2C42.6,11.8,42.1,12.3,41.4,12.3z M41.4,10.9c-0.1,0-0.2,0.1-0.2,0.2c0,0.1,0.1,0.2,0.2,0.2l0.1,0.5v-0.5
					c0.1,0,0.2-0.1,0.2-0.2C41.6,11,41.5,10.9,41.4,10.9z"/>
			</g>
		</g>
		<g>
			<g>
				<path fill="#37474F" d="M50.9,6.6c0-0.4,0.3-0.7,0.7-0.7c0.4,0,0.7,0.3,0.7,0.7c0,0.4-0.3,0.7-0.7,0.7C51.2,7.3,50.9,7,50.9,6.6
					z"/>
				<path fill="#37474F" d="M51.6,7.8c-0.7,0-1.2-0.5-1.2-1.2c0-0.7,0.6-1.2,1.2-1.2c0.3,0,0.7,0.1,0.9,0.4c0.2,0.2,0.4,0.5,0.3,0.9
					C52.9,7.2,52.3,7.8,51.6,7.8L51.6,7.8z M51.6,6.3c-0.1,0-0.2,0.1-0.2,0.2c0,0.1,0.1,0.2,0.2,0.2v0.5l0-0.5
					c0.2,0,0.3-0.1,0.3-0.2c0-0.1,0-0.1-0.1-0.2C51.8,6.4,51.7,6.3,51.6,6.3z"/>
			</g>
			<g>
				<path fill="#37474F" d="M45.8,6.6c0-0.4,0.3-0.7,0.7-0.7c0.4,0,0.7,0.3,0.7,0.7c0,0.4-0.3,0.7-0.7,0.7C46.1,7.3,45.8,7,45.8,6.6
					z"/>
				<path fill="#37474F" d="M46.5,7.8L46.5,7.8c-0.7,0-1.2-0.6-1.2-1.2c0-0.3,0.1-0.6,0.3-0.9c0.2-0.2,0.5-0.4,0.9-0.4
					c0.7,0,1.2,0.5,1.2,1.2C47.8,7.3,47.2,7.8,46.5,7.8z M46.5,6.3c-0.1,0-0.1,0-0.2,0.1c0,0-0.1,0.1-0.1,0.2c0,0.1,0.1,0.2,0.2,0.2
					c0.1,0,0.2-0.1,0.2-0.2C46.8,6.4,46.7,6.3,46.5,6.3z"/>
			</g>
			<g>
				<path fill="#37474F" d="M40.7,6.6c0-0.4,0.3-0.7,0.7-0.7c0.4,0,0.7,0.3,0.7,0.7c0,0.4-0.3,0.7-0.7,0.7C41,7.3,40.7,7,40.7,6.6z"
					/>
				<path fill="#37474F" d="M41.4,7.8L41.4,7.8C41.4,7.8,41.4,7.8,41.4,7.8c-0.7,0-1.2-0.5-1.2-1.2c0-0.7,0.6-1.2,1.2-1.2
					c0.7,0,1.2,0.6,1.2,1.2C42.6,7.2,42.1,7.8,41.4,7.8L41.4,7.8z M41.4,6.3c-0.1,0-0.2,0.1-0.2,0.2c0,0.1,0.1,0.2,0.2,0.2l0.1,0.5
					V6.8c0.1,0,0.2-0.1,0.2-0.2C41.6,6.4,41.5,6.3,41.4,6.3z"/>
			</g>
		</g>
	</g>
	<g>
		<g>
			<path fill="#78909C" d="M48,23H37.7l2,9H40c-0.1,0-0.2,0-0.2,0.1c0,0.2,1.4,0.4,3.1,0.4c1.7,0,3.1-0.1,3.1-0.4
				c0-0.1-0.1-0.1-0.2-0.1H46L48,23z"/>
			<path fill="#37474F" d="M42.8,33.5c-1.9,0-3-0.1-3.6-0.5h-0.4l-2.5-11h12.9l-2.5,11h-0.3C45.8,33.4,44.7,33.5,42.8,33.5z
				 M45,31.6c-0.1,0.1-0.1,0.3-0.1,0.5c0,0.6,0.5,0.9,0.8,0.9v-1.1L45,31.8L45,31.6z M40,31.9V33c0.3,0,0.8-0.3,0.8-0.9
				c0-0.2-0.1-0.4-0.1-0.5l0,0.2L40,31.9z M40.6,31.3c0.4,0.1,1.2,0.1,2.3,0.1c1.2,0,1.9-0.1,2.3-0.1l1.7-7.4h-7.9L40.6,31.3z"/>
		</g>
		<g>
			<path fill="#FFFFFF" d="M47.6,21.6c0,0.2-2.1,0.4-4.7,0.4c-2.6,0-4.7-0.2-4.7-0.4c0-0.2,2.1-0.4,4.7-0.4
				C45.4,21.2,47.6,21.4,47.6,21.6z"/>
		</g>
		<g>
			<g>
				<g>
					
						<path fill="#FFFFFF" stroke="#37474F" stroke-width="2" stroke-linecap="round" stroke-linejoin="round" stroke-miterlimit="10" d="
						M42.2,32.2"/>
				</g>
				<g>
					
						<path fill="#FFFFFF" stroke="#37474F" stroke-width="2" stroke-linecap="round" stroke-linejoin="round" stroke-miterlimit="10" d="
						M41.2,23.1"/>
				</g>
			</g>
			<g>
				<g>
					
						<path fill="#FFFFFF" stroke="#37474F" stroke-width="2" stroke-linecap="round" stroke-linejoin="round" stroke-miterlimit="10" d="
						M44.8,32.2"/>
				</g>
				<g>
					
						<path fill="#FFFFFF" stroke="#37474F" stroke-width="2" stroke-linecap="round" stroke-linejoin="round" stroke-miterlimit="10" d="
						M46.4,23.1"/>
				</g>
				<g>
					
						<path fill="#FFFFFF" stroke="#37474F" stroke-width="2" stroke-linecap="round" stroke-linejoin="round" stroke-miterlimit="10" d="
						M43.5,32.2"/>
				</g>
				<g>
					
						<path fill="#FFFFFF" stroke="#37474F" stroke-width="2" stroke-linecap="round" stroke-linejoin="round" stroke-miterlimit="10" d="
						M44.5,23.1"/>
				</g>
			</g>
		</g>
	</g>
	<g>
		<g>
			<path fill="#B0BEC5" d="M48,27H37.7l2,9H40c-0.1,0-0.2,0.1-0.2,0.2c0,0.2,1.4,0.5,3.1,0.5c1.7,0,3.1-0.2,3.1-0.5
				c0-0.1-0.1-0.2-0.2-0.2H46L48,27z"/>
			<path fill="#37474F" d="M42.8,37.7c-3.2,0-4-0.5-4.1-1.3c0-0.1,0-0.1-0.1-0.2l-2-9c-0.1-0.3,0-0.6,0.2-0.8
				c0.2-0.2,0.5-0.4,0.8-0.4H48c0.3,0,0.6,0.1,0.8,0.4c0.2,0.2,0.3,0.5,0.2,0.8l-2,9c0,0.1,0,0.1,0,0.1C46.8,37,46.3,37.7,42.8,37.7
				z M40.9,35.5c0.4,0.1,1.1,0.1,2,0.1s1.6-0.1,2-0.1c0.1-0.1,0.2-0.3,0.3-0.4l1.6-7.2h-7.9l1.6,7.2C40.7,35.3,40.8,35.4,40.9,35.5z
				"/>
		</g>
		<g>
			<path fill="#FFFFFF" d="M47.6,25.8c0,0.2-2.1,0.4-4.7,0.4c-2.6,0-4.7-0.2-4.7-0.4c0-0.2,2.1-0.4,4.7-0.4
				C45.4,25.4,47.6,25.6,47.6,25.8z"/>
		</g>
		<g>
			<g>
				<g>
					
						<path fill="#FFFFFF" stroke="#37474F" stroke-width="2" stroke-linecap="round" stroke-linejoin="round" stroke-miterlimit="10" d="
						M42.2,36.5"/>
				</g>
				<g>
					
						<path fill="#FFFFFF" stroke="#37474F" stroke-width="2" stroke-linecap="round" stroke-linejoin="round" stroke-miterlimit="10" d="
						M41.2,27.3"/>
				</g>
			</g>
			<g>
				<g>
					
						<path fill="#FFFFFF" stroke="#37474F" stroke-width="2" stroke-linecap="round" stroke-linejoin="round" stroke-miterlimit="10" d="
						M44.8,36.4"/>
				</g>
				<g>
					
						<path fill="#FFFFFF" stroke="#37474F" stroke-width="2" stroke-linecap="round" stroke-linejoin="round" stroke-miterlimit="10" d="
						M46.4,27.3"/>
				</g>
				<g>
					
						<path fill="#FFFFFF" stroke="#37474F" stroke-width="2" stroke-linecap="round" stroke-linejoin="round" stroke-miterlimit="10" d="
						M43.5,36.5"/>
				</g>
				<g>
					
						<path fill="#FFFFFF" stroke="#37474F" stroke-width="2" stroke-linecap="round" stroke-linejoin="round" stroke-miterlimit="10" d="
						M44.5,27.3"/>
				</g>
			</g>
		</g>
	</g>
	<g>
		<g>
			<path fill="#B0BEC5" d="M48,31H37.7l2,10H40c-0.1,0-0.2,0-0.2,0c0,0.2,1.4,0.4,3.1,0.4c1.7,0,3.1-0.1,3.1-0.3
				c0-0.1-0.1-0.1-0.2-0.1H46L48,31z"/>
			<path fill="#37474F" d="M42.8,42.4c-2.3,0-3.6-0.1-4-0.8c-0.1-0.1-0.1-0.2-0.2-0.4l-2-10c-0.1-0.3,0-0.6,0.2-0.8
				c0.2-0.2,0.5-0.4,0.8-0.4H48c0.3,0,0.6,0.1,0.8,0.4c0.2,0.2,0.3,0.5,0.2,0.8l-2,10c0,0.1-0.1,0.2-0.1,0.3
				C46.5,42.3,45.3,42.4,42.8,42.4z M40.7,40.3c0.4,0.1,1.2,0.1,2.2,0.1c1.1,0,1.7,0,2.1-0.1c0,0,0.1-0.1,0.1-0.1l1.7-8.2h-7.9
				l1.7,8.2C40.6,40.2,40.6,40.3,40.7,40.3z"/>
		</g>
		<g>
			<path fill="#FFFFFF" d="M47.6,30.5c0,0.2-2.1,0.4-4.7,0.4c-2.6,0-4.7-0.2-4.7-0.4c0-0.2,2.1-0.4,4.7-0.4
				C45.4,30.1,47.6,30.3,47.6,30.5z"/>
		</g>
		<g>
			<g>
				<g>
					
						<path fill="#FFFFFF" stroke="#37474F" stroke-width="2" stroke-linecap="round" stroke-linejoin="round" stroke-miterlimit="10" d="
						M42.2,41.1"/>
				</g>
				<g>
					
						<path fill="#FFFFFF" stroke="#37474F" stroke-width="2" stroke-linecap="round" stroke-linejoin="round" stroke-miterlimit="10" d="
						M41.2,32"/>
				</g>
			</g>
			<g>
				<g>
					
						<path fill="#FFFFFF" stroke="#37474F" stroke-width="2" stroke-linecap="round" stroke-linejoin="round" stroke-miterlimit="10" d="
						M44.8,41.1"/>
				</g>
				<g>
					
						<path fill="#FFFFFF" stroke="#37474F" stroke-width="2" stroke-linecap="round" stroke-linejoin="round" stroke-miterlimit="10" d="
						M46.4,32"/>
				</g>
				<g>
					
						<path fill="#FFFFFF" stroke="#37474F" stroke-width="2" stroke-linecap="round" stroke-linejoin="round" stroke-miterlimit="10" d="
						M43.5,41.1"/>
				</g>
				<g>
					
						<path fill="#FFFFFF" stroke="#37474F" stroke-width="2" stroke-linecap="round" stroke-linejoin="round" stroke-miterlimit="10" d="
						M44.5,32"/>
				</g>
			</g>
		</g>
	</g>
	<g>
		<g>
			<path fill="#FFFFFF" d="M48,37H37.7l2,9H40c-0.1,0-0.2,0-0.2,0.1c0,0.2,1.4,0.4,3.1,0.4c1.7,0,3.1-0.1,3.1-0.3
				c0-0.1-0.1-0.1-0.2-0.1H46L48,37z"/>
			<path fill="#37474F" d="M42.8,47.4c-2.3,0-3.6-0.1-4-0.9c-0.1-0.1-0.1-0.2-0.2-0.3l-2-9c-0.1-0.3,0-0.6,0.2-0.8
				c0.2-0.2,0.5-0.4,0.8-0.4H48c0.3,0,0.6,0.1,0.8,0.4c0.2,0.2,0.3,0.5,0.2,0.8l-2,9c0,0.1-0.1,0.2-0.1,0.3
				C46.6,47.3,45.3,47.4,42.8,47.4z M40.7,45.3c0.4,0.1,1.2,0.1,2.2,0.1c1,0,1.7,0,2.1-0.1c0.1-0.1,0.1-0.1,0.2-0.2l1.6-7.2h-7.9
				l1.6,7.2C40.6,45.2,40.6,45.3,40.7,45.3z"/>
		</g>
		<g>
			<path fill="#FFFFFF" d="M47.6,35.5c0,0.2-2.1,0.4-4.7,0.4c-2.6,0-4.7-0.2-4.7-0.4c0-0.2,2.1-0.4,4.7-0.4
				C45.4,35.1,47.6,35.3,47.6,35.5z"/>
		</g>
		<g>
			<g>
				<g>
					
						<path fill="#FFFFFF" stroke="#37474F" stroke-width="2" stroke-linecap="round" stroke-linejoin="round" stroke-miterlimit="10" d="
						M42.2,46.2"/>
				</g>
				<g>
					
						<path fill="#FFFFFF" stroke="#37474F" stroke-width="2" stroke-linecap="round" stroke-linejoin="round" stroke-miterlimit="10" d="
						M41.2,37"/>
				</g>
			</g>
			<g>
				<g>
					
						<path fill="#FFFFFF" stroke="#37474F" stroke-width="2" stroke-linecap="round" stroke-linejoin="round" stroke-miterlimit="10" d="
						M44.8,46.1"/>
				</g>
				<g>
					
						<path fill="#FFFFFF" stroke="#37474F" stroke-width="2" stroke-linecap="round" stroke-linejoin="round" stroke-miterlimit="10" d="
						M46.4,37"/>
				</g>
				<g>
					
						<path fill="#FFFFFF" stroke="#37474F" stroke-width="2" stroke-linecap="round" stroke-linejoin="round" stroke-miterlimit="10" d="
						M43.5,46.2"/>
				</g>
				<g>
					
						<path fill="#FFFFFF" stroke="#37474F" stroke-width="2" stroke-linecap="round" stroke-linejoin="round" stroke-miterlimit="10" d="
						M44.5,37"/>
				</g>
			</g>
		</g>
	</g>
	<g>
		<g>
			<rect x="14" y="47" fill="#B0BEC5" width="36" height="4"/>
			<path fill="#37474F" d="M50,52H14c-0.6,0-1-0.4-1-1v-4c0-0.6,0.4-1,1-1h36c0.6,0,1,0.4,1,1v4C51,51.6,50.6,52,50,52z M15,50h34
				v-2H15V50z"/>
		</g>
		<g>
			<rect x="14" y="49" fill="#78909C" width="36" height="1"/>
		</g>
	</g>
	<g>
		<path fill="#37474F" d="M36,10H19c-0.6,0-1-0.4-1-1s0.4-1,1-1h17c0.6,0,1,0.4,1,1S36.6,10,36,10z"/>
	</g>
	<g>
		<g>
			<path fill="#FFAB00" d="M20.1,9.2c0,2.2-1.8,4-4.1,4c-2.2,0-4-1.8-4-4c0-2.2,1.8-4.1,4-4.1C18.2,5.2,20.1,7,20.1,9.2z"/>
			<path fill="#37474F" d="M16,14.3c-2.8,0-5-2.3-5-5c0-2.8,2.3-5.1,5-5.1c2.8,0,5.1,2.3,5.1,5.1C21.1,12,18.8,14.3,16,14.3z
				 M16,6.2c-1.7,0-3,1.4-3,3.1c0,1.7,1.4,3,3,3c1.7,0,3.1-1.4,3.1-3C19.1,7.5,17.7,6.2,16,6.2z"/>
		</g>
		<g>
			<path fill="#FFECB3" d="M17.8,9.2c0,1-0.8,1.8-1.8,1.8c-1,0-1.8-0.8-1.8-1.8c0-1,0.8-1.8,1.8-1.8C17,7.4,17.8,8.2,17.8,9.2z"/>
			<path fill="#37474F" d="M16,12c-1.6,0-2.8-1.3-2.8-2.8c0-1.6,1.3-2.8,2.8-2.8c1.6,0,2.8,1.3,2.8,2.8C18.8,10.8,17.6,12,16,12z
				 M16,8.4c-0.5,0-0.8,0.4-0.8,0.8c0,0.5,0.4,0.8,0.8,0.8c0.5,0,0.8-0.4,0.8-0.8C16.8,8.8,16.5,8.4,16,8.4z"/>
		</g>
	</g>
</g>
</svg>
