<?xml version="1.0" encoding="utf-8"?>
<!-- Generator: Adobe Illustrator 16.0.0, SVG Export Plug-In . SVG Version: 6.00 Build 0)  -->
<!DOCTYPE svg PUBLIC "-//W3C//DTD SVG 1.1//EN" "http://www.w3.org/Graphics/SVG/1.1/DTD/svg11.dtd">
<svg version="1.1" id="Layer_1" xmlns="http://www.w3.org/2000/svg" xmlns:xlink="http://www.w3.org/1999/xlink" x="0px" y="0px"
	 width="24px" height="24px" viewBox="0 0 24 24" enable-background="new 0 0 24 24" xml:space="preserve">
<g>
	<path d="M0.8,18.5h1.7v0c-0.7,0.2-1.3,0.8-1.3,1.6H0.8c-0.3,0-0.5,0.2-0.5,0.5s0.2,0.5,0.5,0.5h5.5c0.3,0,0.5-0.2,0.5-0.5
		s-0.2-0.5-0.5-0.5H4.8c-0.1-0.8-0.6-1.4-1.3-1.6v0h17.1v0c-0.7,0.2-1.3,0.8-1.3,1.6h-1.6c-0.3,0-0.5,0.2-0.5,0.5s0.2,0.5,0.5,0.5
		h5.5c0.3,0,0.5-0.2,0.5-0.5s-0.2-0.5-0.5-0.5h-0.3c-0.1-0.8-0.6-1.4-1.3-1.6v0h1.6c0.3,0,0.5-0.2,0.5-0.5v-4.4
		c0-0.2-0.1-0.3-0.2-0.4c0-0.1,0.1-0.2,0.1-0.3v-0.3c0-0.7-0.3-1.4-0.8-1.8V6.9h0.3c0.3,0,0.5-0.2,0.5-0.5s-0.2-0.5-0.5-0.5h-0.6
		c0.2-0.1,0.3-0.2,0.3-0.4V5.2c0-1.3-1.1-2.4-2.3-2.4H3.7c-1.3,0-2.4,1.1-2.4,2.4v0.2c0,0.2,0.1,0.4,0.3,0.4H1
		c-0.3,0-0.5,0.2-0.5,0.5S0.7,6.9,1,6.9h0.3v3.9c-0.5,0.5-0.8,1.1-0.8,1.8v0.3c0,0.1,0,0.2,0.1,0.3c-0.1,0.1-0.2,0.2-0.2,0.4V18
		C0.3,18.3,0.5,18.5,0.8,18.5z M1.5,12.9v-0.3c0-0.8,0.7-1.5,1.5-1.5h17.9c0.8,0,1.5,0.7,1.5,1.5v0.3c0,0.1,0,0.1,0,0.2h-21
		C1.5,13,1.5,12.9,1.5,12.9z M19.9,10.1h-7.3V8.6c0-0.7,0.6-1.3,1.3-1.3h4.6c0.7,0,1.3,0.6,1.3,1.3V10.1z M11.3,10.1H4V8.6
		c0-0.7,0.6-1.3,1.3-1.3H10c0.7,0,1.3,0.6,1.3,1.3V10.1z M3.8,20.1H2.2c0.1-0.4,0.4-0.7,0.8-0.7S3.7,19.7,3.8,20.1z M21.9,20.1h-1.6
		c0.1-0.4,0.4-0.7,0.8-0.7S21.8,19.7,21.9,20.1z M22.6,17.5h-1.1c-0.1-0.2-0.2-0.4-0.5-0.4s-0.4,0.1-0.5,0.4H3.4
		c-0.1-0.2-0.2-0.4-0.5-0.4s-0.4,0.1-0.5,0.4H1.3V14h21.3V17.5z M2.3,6.9h0.3c0.3,0,0.5-0.2,0.5-0.5S2.8,5.9,2.6,5.9H2.1
		c0.2-0.1,0.3-0.2,0.3-0.4V5.2c0-0.7,0.6-1.4,1.4-1.4h16.5c0.7,0,1.3,0.6,1.3,1.4v0.2c0,0.2,0.1,0.4,0.3,0.4h-0.5
		c-0.3,0-0.5,0.2-0.5,0.5s0.2,0.5,0.5,0.5h0.3v3.3c-0.2-0.1-0.5-0.1-0.7-0.1h0V8.6c0-1.3-1-2.3-2.3-2.3h-4.6c-0.8,0-1.6,0.4-2,1.1
		c-0.4-0.7-1.1-1.1-2-1.1H5.3C4.1,6.2,3,7.3,3,8.6v1.5h0c-0.3,0-0.5,0-0.7,0.1V6.9z"/>
</g>
</svg>
