<?xml version="1.0" encoding="utf-8"?>
<!-- Generator: Adobe Illustrator 16.0.0, SVG Export Plug-In . SVG Version: 6.00 Build 0)  -->
<!DOCTYPE svg PUBLIC "-//W3C//DTD SVG 1.1//EN" "http://www.w3.org/Graphics/SVG/1.1/DTD/svg11.dtd">
<svg version="1.1" id="Layer_1" xmlns="http://www.w3.org/2000/svg" xmlns:xlink="http://www.w3.org/1999/xlink" x="0px" y="0px"
	 width="24px" height="24px" viewBox="0 0 24 24" enable-background="new 0 0 24 24" xml:space="preserve">
<g>
	<path d="M0.3,9c0.1,0.1,0.2,0.2,0.4,0.2c0.1,0,0.2,0,0.3-0.1l8.1-6.9l5.7,4.9C15,7.2,15.4,7.2,15.5,7c0.2-0.2,0.2-0.5-0.1-0.7
		L9.4,1.1C9.2,1,9,1,8.8,1.1L3.5,5.7V2.8h1.4c0.3,0,0.5-0.2,0.5-0.5S5.1,1.8,4.9,1.8H3C2.7,1.8,2.5,2,2.5,2.3v4.2c0,0,0,0,0,0.1
		L0.3,8.3C0.1,8.5,0.1,8.8,0.3,9z"/>
	<path d="M15.7,12.5V8.8c0-0.3-0.2-0.5-0.5-0.5s-0.5,0.2-0.5,0.5v3.8c0,0.3,0.2,0.5,0.5,0.5S15.7,12.8,15.7,12.5z"/>
	<path d="M12,11c-0.3,0-0.5,0.2-0.5,0.5v1.1h-0.9c-0.3,0-0.5,0.2-0.5,0.5s0.2,0.5,0.5,0.5h0.9v0.8c0,0.3,0.2,0.5,0.5,0.5
		s0.5-0.2,0.5-0.5v-0.8h0.9c0.3,0,0.5-0.2,0.5-0.5s-0.2-0.5-0.5-0.5h-0.9v-1.1C12.5,11.3,12.3,11,12,11z"/>
	<path d="M7.2,22.5c0.1,0.1,0.2,0.1,0.4,0.1s0.3,0,0.4-0.1l2.4-2.4l0.4,0.4c0.2,0.2,0.5,0.2,0.7,0l8.8-8.8c0.2-0.2,0.2-0.5,0-0.7
		s-0.5-0.2-0.7,0l-8.4,8.4l-1.8-1.8c0,0,0,0,0,0v-6C9.2,11.3,9,11,8.7,11H5c-0.3,0-0.5,0.2-0.5,0.5v5.9h-1V8.8
		c0-0.3-0.2-0.5-0.5-0.5S2.5,8.5,2.5,8.8v9.2c0,0.3,0.2,0.5,0.5,0.5h2h2.8L4,22.1c-0.2,0.2-0.2,0.5,0,0.7C4.1,22.9,4.3,23,4.4,23
		s0.3,0,0.4-0.1l4.2-4.2l0.7,0.7l-2.4,2.4C7,21.9,7,22.3,7.2,22.5z M5.5,12h2.7v5.4H5.5V12z"/>
	<path d="M22.8,12.2c0.1,0,0.1,0,0.2,0c0.2-0.1,0.3-0.2,0.3-0.4l0.6-3.9c0-0.2,0-0.3-0.1-0.4c-0.1-0.1-0.3-0.2-0.4-0.1l-3.9,0.6
		c-0.3,0-0.5,0.3-0.4,0.6c0,0.3,0.3,0.5,0.6,0.4l3.3-0.5l-0.3,2.3l-1.1-1.1c-0.2-0.2-0.5-0.2-0.7,0s-0.2,0.5,0,0.7l1.8,1.8
		C22.5,12.2,22.7,12.2,22.8,12.2z"/>
</g>
</svg>
