<?xml version="1.0" encoding="utf-8"?>
<!-- Generator: Adobe Illustrator 16.0.0, SVG Export Plug-In . SVG Version: 6.00 Build 0)  -->
<!DOCTYPE svg PUBLIC "-//W3C//DTD SVG 1.1//EN" "http://www.w3.org/Graphics/SVG/1.1/DTD/svg11.dtd">
<svg version="1.1" id="Layer_1" xmlns="http://www.w3.org/2000/svg" xmlns:xlink="http://www.w3.org/1999/xlink" x="0px" y="0px"
	 width="24px" height="24px" viewBox="0 0 24 24" enable-background="new 0 0 24 24" xml:space="preserve">
<g>
	<path d="M8.4,22.9c-0.3,0-0.5,0.2-0.5,0.5s0.2,0.5,0.5,0.5h7.2c0.3,0,0.5-0.2,0.5-0.5s-0.2-0.5-0.5-0.5H8.4z"/>
	<path d="M11.4,20.4v0.2c0,0.1,0,0.2,0.1,0.3v1.2c0,0.3,0.2,0.5,0.5,0.5s0.5-0.2,0.5-0.5v-1.2c0.1-0.1,0.1-0.2,0.1-0.3v-0.2
		c0.5-0.8,1.1-1.8,1.8-2.9c2.3-3.7,5.1-8.3,5.1-10.8c0-3.5-3.2-6.4-7.3-6.6l0,0c-0.1,0-0.1,0-0.2,0c0,0-0.1,0-0.1,0
		C7.7,0.3,4.6,3.2,4.6,6.7c0,2.6,2.8,7.2,5.1,10.8C10.3,18.6,11,19.6,11.4,20.4z M11.9,1.1C11.9,1.1,12,1.1,11.9,1.1
		C12,1.1,12,1.1,11.9,1.1C12,1.1,12,1.1,11.9,1.1c0.1,0,0.1,0,0.1,0c3.6,0.2,6.4,2.6,6.4,5.6c0,2.3-2.9,6.9-4.9,10.3
		c-0.5,0.9-1.1,1.7-1.5,2.5c-0.4-0.7-0.9-1.6-1.5-2.5c-2.1-3.4-4.9-8-4.9-10.3C5.6,3.7,8.4,1.2,11.9,1.1z"/>
	<path d="M15.9,7.1c0-2.1-1.7-3.9-3.9-3.9S8.1,5,8.1,7.1S9.9,11,12,11S15.9,9.3,15.9,7.1z M9.1,7.1c0-1.6,1.3-2.9,2.9-2.9
		s2.9,1.3,2.9,2.9S13.6,10,12,10S9.1,8.7,9.1,7.1z"/>
</g>
</svg>
