<?xml version="1.0" encoding="utf-8"?>
<!-- Generator: Adobe Illustrator 16.0.0, SVG Export Plug-In . SVG Version: 6.00 Build 0)  -->
<!DOCTYPE svg PUBLIC "-//W3C//DTD SVG 1.1//EN" "http://www.w3.org/Graphics/SVG/1.1/DTD/svg11.dtd">
<svg version="1.1" id="Layer_1" xmlns="http://www.w3.org/2000/svg" xmlns:xlink="http://www.w3.org/1999/xlink" x="0px" y="0px"
	 width="128px" height="128px" viewBox="0 0 128 128" enable-background="new 0 0 128 128" xml:space="preserve">
<g>
	<g>
		<g>
			<g>
				<path fill="#FFAB00" d="M49.5,118c0,2.8-2.2,5-5,5l0,0c-2.8,0-5-2.2-5-5v-1c0-2.8,2.2-5,5-5l0,0c2.8,0,5,2.2,5,5V118z"/>
				<path fill="#37474F" d="M44.5,124.5c-3.6,0-6.5-2.9-6.5-6.5v-1c0-3.6,2.9-6.5,6.5-6.5s6.5,2.9,6.5,6.5v1
					C51,121.6,48.1,124.5,44.5,124.5z M44.5,113.5c-1.9,0-3.5,1.6-3.5,3.5v1c0,1.9,1.6,3.5,3.5,3.5s3.5-1.6,3.5-3.5v-1
					C48,115.1,46.4,113.5,44.5,113.5z"/>
			</g>
			<g>
				<path fill="#FFAB00" d="M87.5,118c0,2.8-2.2,5-5,5l0,0c-2.8,0-5-2.2-5-5v-1c0-2.8,2.2-5,5-5l0,0c2.8,0,5,2.2,5,5V118z"/>
				<path fill="#37474F" d="M82.5,124.5c-3.6,0-6.5-2.9-6.5-6.5v-1c0-3.6,2.9-6.5,6.5-6.5s6.5,2.9,6.5,6.5v1
					C89,121.6,86.1,124.5,82.5,124.5z M82.5,113.5c-1.9,0-3.5,1.6-3.5,3.5v1c0,1.9,1.6,3.5,3.5,3.5s3.5-1.6,3.5-3.5v-1
					C86,115.1,84.4,113.5,82.5,113.5z"/>
			</g>
		</g>
		<g>
			<g>
				<path fill="#FFFFFF" d="M101.5,104.8c0,6.4-5,11.2-11.4,11.2H37.7c-6.4,0-11.2-4.8-11.2-11.2V16.6C26.5,10.2,31.3,5,37.7,5h52.3
					c6.4,0,11.4,5.2,11.4,11.6V104.8z"/>
				<path fill="#37474F" d="M90.1,117.5H37.7c-7.3,0-12.7-5.4-12.7-12.7V16.6c0-7.4,5.6-13.1,12.7-13.1h52.3
					c7.1,0,12.9,5.9,12.9,13.1v88.2C103,112.1,97.4,117.5,90.1,117.5z M37.7,6.5C32.3,6.5,28,11,28,16.6v88.2c0,5.6,4.1,9.7,9.7,9.7
					h52.3c5.7,0,9.9-4.2,9.9-9.7V16.6c0-5.7-4.4-10.1-9.9-10.1H37.7z"/>
			</g>
			<g>
				<path fill="#FFAB00" d="M94.5,70.6c0,2.1-1.9,3.8-4,3.8l0,0c-2.1,0-4-1.7-4-3.8v-24c0-2.1,1.9-3.8,4-3.8l0,0c2.1,0,4,1.7,4,3.8
					V70.6z"/>
				<path fill="#37474F" d="M90.5,75.9c-3,0-5.5-2.4-5.5-5.3v-24c0-2.9,2.5-5.3,5.5-5.3s5.5,2.4,5.5,5.3v24
					C96,73.5,93.5,75.9,90.5,75.9z M90.5,44.3c-1.3,0-2.5,1.1-2.5,2.3v24c0,1.3,1.1,2.3,2.5,2.3s2.5-1.1,2.5-2.3v-24
					C93,45.4,91.8,44.3,90.5,44.3z"/>
			</g>
			<g>
				<path fill="#B0BEC5" d="M26.5,95v9.8c0,6.4,4.8,11.2,11.2,11.2h52.3c6.4,0,11.4-4.8,11.4-11.2V95H26.5z"/>
				<path fill="#37474F" d="M90.1,117.5H37.7c-7.3,0-12.7-5.4-12.7-12.7V95c0-0.8,0.7-1.5,1.5-1.5h75c0.8,0,1.5,0.7,1.5,1.5v9.8
					C103,112.1,97.4,117.5,90.1,117.5z M28,96.5v8.3c0,5.6,4.1,9.7,9.7,9.7h52.3c5.7,0,9.9-4.2,9.9-9.7v-8.3H28z"/>
			</g>
		</g>
		<g>
			<g>
				<path fill="#37474F" d="M54.5,60.7c0-0.7,0.6-1.2,1.2-1.2c0.7,0,1.3,0.5,1.2,1.2c0,0.7-0.5,1.2-1.2,1.2
					C55.1,62,54.5,61.4,54.5,60.7z"/>
				<path fill="#37474F" d="M55.7,62.5c-0.9,0-1.7-0.8-1.7-1.7c0-1,0.8-1.7,1.7-1.7c0.5,0,0.9,0.2,1.3,0.5c0.3,0.3,0.5,0.8,0.5,1.2
					C57.5,61.7,56.7,62.5,55.7,62.5z M55.7,60c-0.4,0-0.7,0.3-0.7,0.7c0,0.4,0.3,0.7,0.7,0.7c0.4,0,0.7-0.3,0.7-0.7
					c0-0.2-0.1-0.4-0.2-0.5C56.1,60.1,55.9,60,55.7,60z"/>
			</g>
			<g>
				<path fill="#37474F" d="M45.9,60.7c0-0.7,0.5-1.2,1.2-1.2c0.7,0,1.2,0.5,1.3,1.2c0,0.7-0.6,1.2-1.3,1.2
					C46.4,62,45.9,61.4,45.9,60.7z"/>
				<path fill="#37474F" d="M47.1,62.5c-0.9,0-1.7-0.8-1.7-1.7c0-0.4,0.2-0.9,0.5-1.2c0.3-0.3,0.8-0.5,1.2-0.5c1,0,1.7,0.8,1.8,1.7
					C48.8,61.7,48,62.5,47.1,62.5z M47.1,60c-0.2,0-0.4,0.1-0.5,0.2c-0.1,0.1-0.2,0.3-0.2,0.5c0,0.4,0.3,0.8,0.7,0.8
					c0.4,0,0.7-0.3,0.8-0.8C47.9,60.3,47.5,60,47.1,60z"/>
			</g>
			<g>
				<path fill="#37474F" d="M37.2,60.7c0-0.7,0.6-1.2,1.2-1.2c0.7,0,1.2,0.5,1.2,1.2c0,0.7-0.5,1.2-1.2,1.2
					C37.8,62,37.2,61.4,37.2,60.7z"/>
				<path fill="#37474F" d="M38.5,62.5c-0.9,0-1.7-0.8-1.7-1.7c0-0.9,0.8-1.7,1.7-1.7c1,0,1.7,0.8,1.7,1.7
					C40.2,61.7,39.4,62.5,38.5,62.5z M38.5,60c-0.4,0-0.7,0.4-0.7,0.7c0,0.4,0.4,0.7,0.7,0.7c0.4,0,0.7-0.3,0.7-0.7
					C39.2,60.3,38.9,60,38.5,60z"/>
			</g>
		</g>
		<g>
			<g>
				<path fill="#37474F" d="M80.6,60.7c0-0.7,0.6-1.2,1.2-1.2c0.7,0,1.3,0.5,1.2,1.2c0,0.7-0.5,1.2-1.2,1.2
					C81.1,62,80.6,61.4,80.6,60.7z"/>
				<path fill="#37474F" d="M81.8,62.5c-0.9,0-1.7-0.8-1.7-1.7c0-1,0.8-1.7,1.7-1.7c0.5,0,0.9,0.2,1.3,0.5c0.3,0.3,0.5,0.8,0.5,1.2
					C83.5,61.7,82.8,62.5,81.8,62.5z M81.8,60c-0.4,0-0.7,0.3-0.7,0.7c0,0.4,0.3,0.7,0.7,0.7c0.4,0,0.7-0.3,0.7-0.7
					c0-0.2-0.1-0.4-0.2-0.5C82.2,60.1,82,60,81.8,60z"/>
			</g>
			<g>
				<path fill="#37474F" d="M72,60.7c0-0.7,0.5-1.2,1.2-1.2c0.7,0,1.2,0.5,1.3,1.2c0,0.7-0.6,1.2-1.3,1.2C72.5,62,72,61.4,72,60.7z"
					/>
				<path fill="#37474F" d="M73.2,62.5c-0.9,0-1.7-0.8-1.7-1.7c0-0.4,0.2-0.9,0.5-1.2c0.3-0.3,0.8-0.5,1.2-0.5c1,0,1.7,0.8,1.8,1.7
					C74.9,61.7,74.1,62.5,73.2,62.5z M73.2,60c-0.2,0-0.4,0.1-0.5,0.2c-0.1,0.1-0.2,0.3-0.2,0.5c0,0.4,0.3,0.8,0.7,0.8
					c0.4,0,0.7-0.3,0.8-0.8C73.9,60.3,73.6,60,73.2,60z"/>
			</g>
			<g>
				<path fill="#37474F" d="M63.3,60.7c0-0.7,0.6-1.2,1.2-1.2c0.7,0,1.2,0.5,1.2,1.2c0,0.7-0.5,1.2-1.2,1.2
					C63.9,62,63.3,61.4,63.3,60.7z"/>
				<path fill="#37474F" d="M64.5,62.5c-0.9,0-1.7-0.8-1.7-1.7c0-0.9,0.8-1.7,1.7-1.7c1,0,1.7,0.8,1.7,1.7
					C66.3,61.7,65.5,62.5,64.5,62.5z M64.5,60c-0.4,0-0.7,0.3-0.7,0.7c0,0.4,0.3,0.7,0.7,0.7c0.4,0,0.7-0.3,0.7-0.7
					C65.3,60.3,65,60,64.5,60z"/>
			</g>
		</g>
		<g>
			<g>
				<line fill="#FFAB00" x1="37.5" y1="109.5" x2="37.5" y2="100.5"/>
				<path fill="#37474F" d="M37.5,111c-0.8,0-1.5-0.7-1.5-1.5v-9c0-0.8,0.7-1.5,1.5-1.5s1.5,0.7,1.5,1.5v9
					C39,110.3,38.3,111,37.5,111z"/>
			</g>
			<g>
				<line fill="#FFAB00" x1="44.5" y1="109.5" x2="44.5" y2="100.5"/>
				<path fill="#37474F" d="M44.5,111c-0.8,0-1.5-0.7-1.5-1.5v-9c0-0.8,0.7-1.5,1.5-1.5s1.5,0.7,1.5,1.5v9
					C46,110.3,45.3,111,44.5,111z"/>
			</g>
			<g>
				<line fill="#FFAB00" x1="52.5" y1="109.5" x2="52.5" y2="100.5"/>
				<path fill="#37474F" d="M52.5,111c-0.8,0-1.5-0.7-1.5-1.5v-9c0-0.8,0.7-1.5,1.5-1.5s1.5,0.7,1.5,1.5v9
					C54,110.3,53.3,111,52.5,111z"/>
			</g>
		</g>
	</g>
	<g>
		<path fill="#78909C" d="M53.4,22.2c0,4.4-3.6,7.9-7.9,7.9c-4.4,0-7.9-3.5-7.9-7.9s3.5-7.9,7.9-7.9C49.9,14.3,53.4,17.8,53.4,22.2z
			"/>
		<path fill="#37474F" d="M45.5,31.6c-5.2,0-9.4-4.2-9.4-9.4c0-5.2,4.2-9.4,9.4-9.4c5.2,0,9.4,4.2,9.4,9.4
			C54.9,27.4,50.7,31.6,45.5,31.6z M45.5,15.8c-3.5,0-6.4,2.9-6.4,6.4c0,3.5,2.9,6.4,6.4,6.4c3.5,0,6.4-2.9,6.4-6.4
			C51.9,18.7,49,15.8,45.5,15.8z"/>
	</g>
</g>
</svg>
