<?xml version="1.0" encoding="utf-8"?>
<!-- Generator: Adobe Illustrator 16.0.0, SVG Export Plug-In . SVG Version: 6.00 Build 0)  -->
<!DOCTYPE svg PUBLIC "-//W3C//DTD SVG 1.1//EN" "http://www.w3.org/Graphics/SVG/1.1/DTD/svg11.dtd">
<svg version="1.1" id="Layer_1" xmlns="http://www.w3.org/2000/svg" xmlns:xlink="http://www.w3.org/1999/xlink" x="0px" y="0px"
	 width="25px" height="25px" viewBox="0 0 25 25" enable-background="new 0 0 25 25" xml:space="preserve">
<g>
	<path d="M24,3.8h-5.9c-0.3,0-0.5,0.2-0.5,0.5s0.2,0.5,0.5,0.5h5.4v17.9h-3.4v-4.6v-4.9c0-0.3-0.2-0.5-0.5-0.5s-0.5,0.2-0.5,0.5v4.4
		h-3.7h-0.2v-6.4h4.2c0.3,0,0.5-0.2,0.5-0.5s-0.2-0.5-0.5-0.5h-4.7h-4.1c-0.3,0-0.5,0.2-0.5,0.5s0.2,0.5,0.5,0.5h3.6v6.4h-2v-4.8
		c0-0.3-0.2-0.5-0.5-0.5H7.9c-0.3,0-0.5,0.2-0.5,0.5v4.8h-1H6.2v-6.4h1.2c0.3,0,0.5-0.2,0.5-0.5s-0.2-0.5-0.5-0.5H5.8c0,0,0,0,0,0
		c0,0,0,0,0,0c-0.3,0-0.5,0.2-0.5,0.5v6.9H4.6c0-1.7-1.3-3.1-3-3.2V4.8h4.9c0.3,0,0.5-0.2,0.5-0.5S6.7,3.8,6.4,3.8H1
		c-0.3,0-0.5,0.2-0.5,0.5v13.8c0,0.3,0.2,0.5,0.5,0.5h0.4h4.2h0.7h4.8v4.6c0,0.3,0.2,0.5,0.5,0.5h0h7.9H24c0.3,0,0.5-0.2,0.5-0.5
		V4.3C24.5,4.1,24.3,3.8,24,3.8z M1.5,15.4c1.1,0.1,2,1.1,2,2.2h-2V15.4z M8.4,13.4h2.7v4.1H8.4V13.4z M12.2,22.8v-4.1h2.4h0.7h3.7
		v4.1H12.2z"/>
	<path d="M6.7,10.1c0.1,0.1,0.2,0.1,0.4,0.1c0.1,0,0.1,0,0.2,0l5-1.7c0.2-0.1,0.3-0.2,0.3-0.4c0,0,0,0,0,0c0.1,0,0.3-0.1,0.4-0.1
		l5.7-5.7c0.2-0.2,0.2-0.5,0-0.7s-0.5-0.2-0.7,0l-5.4,5.4l-1-1l3.8-3.8c0.2-0.2,0.2-0.5,0-0.7s-0.5-0.2-0.7,0l-3.8,3.8l-1-1l1.9-1.9
		c0.2-0.2,0.2-0.5,0-0.7s-0.5-0.2-0.7,0L8.8,3.8C8.7,3.9,8.7,4.1,8.7,4.3c-0.2,0-0.3,0.1-0.4,0.3l-1.7,5C6.5,9.7,6.6,9.9,6.7,10.1z
		 M8.2,7.9l0.6,0.6L7.9,8.9L8.2,7.9z M10.5,6.2l1.3,1.3L9.9,8.2L8.5,6.9l0.7-1.9L10.5,6.2z"/>
</g>
</svg>
