<?xml version="1.0" encoding="utf-8"?>
<!-- Generator: Adobe Illustrator 16.0.0, SVG Export Plug-In . SVG Version: 6.00 Build 0)  -->
<!DOCTYPE svg PUBLIC "-//W3C//DTD SVG 1.1//EN" "http://www.w3.org/Graphics/SVG/1.1/DTD/svg11.dtd">
<svg version="1.1" id="Layer_1" xmlns="http://www.w3.org/2000/svg" xmlns:xlink="http://www.w3.org/1999/xlink" x="0px" y="0px"
	 width="24px" height="24px" viewBox="0 0 24 24" enable-background="new 0 0 24 24" xml:space="preserve">
<g>
	<path d="M12,0.3c-3.8,0-6.9,3.1-6.9,6.9c0,1.8,0.7,3.5,1.9,4.8l0.7,2.4c0,1.4,1.2,2.5,2.5,2.5h3.6c1.4,0,2.5-1.1,2.5-2.5l0.7-2.4
		c1.2-1.3,1.9-3,1.9-4.8C18.9,3.5,15.8,0.3,12,0.3z M16.2,11.5c-0.1,0.1-0.1,0.1-0.1,0.2l-0.7,2.6c0,0,0,0.1,0,0.1
		c0,0.8-0.7,1.5-1.5,1.5h-1.3v-4.7c0,0,0.1,0,0.1,0c0.6,0,1.9-0.2,3.1-1.3c1.5-1.4,1.6-3.3,1.6-3.9c0-0.1,0-0.1,0-0.2
		c0-0.1-0.1-0.3-0.2-0.3c0,0-0.1,0-0.2-0.1c0,0-0.1,0-0.1,0c-0.5,0-2.5,0-3.9,1.6c-0.4,0.4-0.6,0.8-0.8,1.2
		c-0.2-0.4-0.4-0.8-0.8-1.2C9.8,5.6,7.8,5.5,7.3,5.6c-0.1,0-0.1,0-0.2,0C7,5.6,6.8,5.7,6.8,5.8c0,0,0,0.1,0,0.1c0,0.1,0,0.1,0,0.2
		c0,0.5,0,2.5,1.6,3.9c1.2,1.1,2.5,1.3,3.1,1.3c0,0,0.1,0,0.1,0V16h-1.3c-0.8,0-1.5-0.7-1.5-1.5c0,0,0-0.1,0-0.1l-0.7-2.6
		c0-0.1-0.1-0.2-0.1-0.2c-1.1-1.1-1.7-2.6-1.7-4.2C6.1,4,8.7,1.3,12,1.3s5.9,2.7,5.9,5.9C17.9,8.9,17.3,10.4,16.2,11.5z M12.5,10.3
		c0-0.5,0.1-1.5,1-2.5c0.9-1,2.1-1.2,2.8-1.2c0,0.7-0.3,1.9-1.2,2.8C14,10.2,13,10.4,12.5,10.3z M11.5,10.3c-0.5,0-1.5-0.1-2.5-1
		C8,8.4,7.7,7.2,7.7,6.6c0.7,0,1.9,0.3,2.8,1.2C11.4,8.8,11.5,9.8,11.5,10.3z"/>
	<path d="M14.8,17.9H9.2c-0.3,0-0.5,0.2-0.5,0.5s0.2,0.5,0.5,0.5h5.7c0.3,0,0.5-0.2,0.5-0.5S15.1,17.9,14.8,17.9z"/>
	<path d="M14.8,19.7H9.2c-0.3,0-0.5,0.2-0.5,0.5s0.2,0.5,0.5,0.5h5.7c0.3,0,0.5-0.2,0.5-0.5S15.1,19.7,14.8,19.7z"/>
	<path d="M14.3,21.1c-0.3,0.1-0.4,0.3-0.4,0.6c0,0.1,0,0.1,0,0.2c0,0.4-0.3,0.7-0.7,0.7h-2.5c-0.4,0-0.7-0.3-0.7-0.7
		c0-0.1,0-0.1,0-0.2c0.1-0.3-0.1-0.5-0.4-0.6c-0.3-0.1-0.5,0.1-0.6,0.4C9,21.6,9,21.8,9,21.9c0,1,0.8,1.7,1.7,1.7h2.5
		c1,0,1.7-0.8,1.7-1.7c0-0.2,0-0.3-0.1-0.5C14.9,21.2,14.6,21,14.3,21.1z"/>
	<path d="M12,1.9c-1.2,0-2.2,1-2.2,2.2s1,2.2,2.2,2.2s2.2-1,2.2-2.2S13.2,1.9,12,1.9z M12,5.3c-0.7,0-1.2-0.5-1.2-1.2
		s0.5-1.2,1.2-1.2s1.2,0.5,1.2,1.2S12.7,5.3,12,5.3z"/>
</g>
</svg>
