<?xml version="1.0" encoding="utf-8"?>
<!-- Generator: Adobe Illustrator 16.0.0, SVG Export Plug-In . SVG Version: 6.00 Build 0)  -->
<!DOCTYPE svg PUBLIC "-//W3C//DTD SVG 1.1//EN" "http://www.w3.org/Graphics/SVG/1.1/DTD/svg11.dtd">
<svg version="1.1" id="Layer_1" xmlns="http://www.w3.org/2000/svg" xmlns:xlink="http://www.w3.org/1999/xlink" x="0px" y="0px"
	 width="25px" height="25px" viewBox="0 0 25 25" enable-background="new 0 0 25 25" xml:space="preserve">
<g>
	<path d="M12,6.4v17.9c0,0.3,0.2,0.5,0.5,0.5s0.5-0.2,0.5-0.5v-0.8h1.5c0.3,0,0.5-0.2,0.5-0.5s-0.2-0.5-0.5-0.5H13v-2h1v0.7
		c0,0.3,0.2,0.5,0.5,0.5s0.5-0.2,0.5-0.5v-1.2c0-0.3-0.2-0.5-0.5-0.5H13V6.4c1.7-0.2,3-1.5,3-3c0-1.7-1.6-3.1-3.5-3.1S9,1.6,9,3.3
		C9,4.9,10.3,6.1,12,6.4z M12.5,1.2c1.4,0,2.5,0.9,2.5,2.1c0,1.1-1.1,2.1-2.5,2.1S10,4.5,10,3.3C10,2.2,11.1,1.2,12.5,1.2z"/>
	<path d="M7.9,22c0.1,0,0.1,0,0.2,0c0.2,0,0.4-0.1,0.5-0.3c0.1-0.2,0-0.5-0.2-0.7c-3.3-1.6-5.4-5-5.4-8.6s2.1-7,5.4-8.6
		c0.2-0.1,0.4-0.4,0.2-0.7C8.5,3,8.2,2.9,7.9,3c-3.6,1.8-6,5.5-6,9.5S4.3,20.2,7.9,22z"/>
	<path d="M16.7,21.1c-0.2,0.1-0.4,0.4-0.2,0.7c0.1,0.2,0.3,0.3,0.5,0.3c0.1,0,0.1,0,0.2,0c3.6-1.8,6-5.5,6-9.5c0-4-2.3-7.7-6-9.5
		c-0.2-0.1-0.5,0-0.7,0.2c-0.1,0.2,0,0.5,0.2,0.7c3.3,1.6,5.4,5,5.4,8.6C22,16.1,19.9,19.5,16.7,21.1z"/>
</g>
</svg>
