<?xml version="1.0" encoding="utf-8"?>
<!-- Generator: Adobe Illustrator 16.0.0, SVG Export Plug-In . SVG Version: 6.00 Build 0)  -->
<!DOCTYPE svg PUBLIC "-//W3C//DTD SVG 1.1//EN" "http://www.w3.org/Graphics/SVG/1.1/DTD/svg11.dtd">
<svg version="1.1" id="Layer_1" xmlns="http://www.w3.org/2000/svg" xmlns:xlink="http://www.w3.org/1999/xlink" x="0px" y="0px"
	 width="129px" height="129px" viewBox="0 0 129 129" enable-background="new 0 0 129 129" xml:space="preserve">
<g>
	<g>
		<circle fill="#78909C" cx="69.9" cy="56.8" r="19.6"/>
		<path fill="#37474F" d="M69.9,78.4c-11.9,0-21.6-9.7-21.6-21.6c0-11.9,9.7-21.6,21.6-21.6c11.9,0,21.6,9.7,21.6,21.6
			C91.5,68.7,81.8,78.4,69.9,78.4z M69.9,39.3c-9.7,0-17.6,7.9-17.6,17.6s7.9,17.6,17.6,17.6c9.7,0,17.6-7.9,17.6-17.6
			S79.6,39.3,69.9,39.3z"/>
	</g>
	<g>
		<path fill="#B0BEC5" d="M109.5,47.5H87.1c1.7,2,2.4,5.9,2.4,9.5s-1,6.5-2.6,9.5h22.6"/>
		<path fill="#37474F" d="M109.5,68.5H86.9c-0.7,0-1.4-0.4-1.7-1c-0.4-0.6-0.4-1.4,0-2c1.7-3,2.4-5.6,2.4-8.5c0-3.6-0.7-6.8-1.9-8.2
			c-0.5-0.6-0.6-1.4-0.3-2.1s1-1.2,1.8-1.2h22.4c1.1,0,2,0.9,2,2s-0.9,2-2,2H90.4c1,2.8,1.1,5.9,1.1,7.5c0,2.6-0.5,5-1.5,7.5h19.4
			c1.1,0,2,0.9,2,2S110.6,68.5,109.5,68.5z"/>
	</g>
	<g>
		<path fill="#FFAB00" d="M93.5,16c0,3.6-2.9,6.5-6.5,6.5h-34c-3.6,0-6.5-2.9-6.5-6.5l0,0c0-3.6,2.9-6.5,6.5-6.5h34
			C90.6,9.5,93.5,12.4,93.5,16L93.5,16z"/>
		<path fill="#37474F" d="M87,24.5h-34c-4.7,0-8.5-3.8-8.5-8.5s3.8-8.5,8.5-8.5h34c4.7,0,8.5,3.8,8.5,8.5S91.7,24.5,87,24.5z
			 M52.9,11.5c-2.5,0-4.5,2-4.5,4.5s2,4.5,4.5,4.5h34c2.5,0,4.5-2,4.5-4.5s-2-4.5-4.5-4.5H52.9z"/>
	</g>
	<g>
		<g>
			<path fill="#FFECB3" d="M34,12.7L34,12.7C34,7,38.6,2.4,44.2,2.4"/>
			<path fill="#37474F" d="M34,14.7c-1.1,0-2-0.9-2-2c0-6.8,5.5-12.3,12.3-12.3c1.1,0,2,0.9,2,2s-0.9,2-2,2c-4.6,0-8.3,3.7-8.3,8.3
				C36,13.8,35.1,14.7,34,14.7z"/>
		</g>
		<g>
			<path fill="#FFECB3" d="M105.9,18.8L105.9,18.8c0,5.7-4.6,10.3-10.3,10.3"/>
			<path fill="#37474F" d="M95.6,31c-1.1,0-2-0.9-2-2s0.9-2,2-2c4.6,0,8.3-3.7,8.3-8.3c0-1.1,0.9-2,2-2s2,0.9,2,2
				C107.9,25.5,102.4,31,95.6,31z"/>
		</g>
	</g>
	<g>
		<line fill="#FFECB3" x1="69.5" y1="23.5" x2="69.5" y2="36.5"/>
		<path fill="#37474F" d="M69.5,38.5c-1.1,0-2-0.9-2-2v-13c0-1.1,0.9-2,2-2s2,0.9,2,2v13C71.5,37.6,70.6,38.5,69.5,38.5z"/>
	</g>
	<g>
		<path fill="#B0BEC5" d="M45.5,65.5h17.7c0.3,0,0.3,0.2,1.3,0.2v-7.9c0-5.4-4.8-9.3-10.2-9.3H31.4c-5.4,0-9.9,3.9-9.9,9.3v7.7"/>
		<path fill="#37474F" d="M64.5,67.7C64.5,67.7,64.4,67.7,64.5,67.7c-0.8,0-1.2-0.1-1.5-0.2H45.5c-1.1,0-2-0.9-2-2s0.9-2,2-2h17
			v-5.7c0-4-3.7-7.3-8.2-7.3H31.4c-4.5,0-7.9,3.2-7.9,7.3v7.7c0,1.1-0.9,2-2,2s-2-0.9-2-2v-7.7c0-6.4,5.2-11.3,11.9-11.3h22.8
			c6.7,0,12.2,5.1,12.2,11.3v7.9c0,0.5-0.2,1.1-0.6,1.4C65.5,67.5,65,67.7,64.5,67.7z"/>
	</g>
	<g>
		<path fill="#FFECB3" d="M47.5,71c0,2.5-2,4.5-4.5,4.5H23c-2.5,0-4.5-2-4.5-4.5l0,0c0-2.5,2-4.5,4.5-4.5h20
			C45.5,66.5,47.5,68.5,47.5,71L47.5,71z"/>
		<path fill="#37474F" d="M43,77.5H23c-3.6,0-6.5-2.9-6.5-6.5s2.9-6.5,6.5-6.5h20c3.6,0,6.5,2.9,6.5,6.5S46.6,77.5,43,77.5z
			 M23,68.5c-1.4,0-2.5,1.1-2.5,2.5s1.1,2.5,2.5,2.5h20c1.4,0,2.5-1.1,2.5-2.5s-1.1-2.5-2.5-2.5H23z"/>
	</g>
	<g>
		<path fill="#FFECB3" d="M95.9,48c5.2,5.2,5.2,13.1,0,18.3"/>
		<path fill="#37474F" d="M95.9,68.3c-0.5,0-1-0.2-1.4-0.6c-0.8-0.8-0.8-2,0-2.8c2.1-2.1,3.3-4.9,3.3-7.7s-1.2-5.6-3.3-7.7
			c-0.8-0.8-0.8-2,0-2.8s2-0.8,2.8,0c2.9,2.9,4.5,6.6,4.5,10.6c0,3.9-1.6,7.7-4.5,10.6C97,68.1,96.5,68.3,95.9,68.3z"/>
	</g>
	<g>
		<path fill="#FFECB3" d="M107,48c5.2,5.2,5.2,13.1,0,18.3"/>
		<path fill="#37474F" d="M107,68.3c-0.5,0-1-0.2-1.4-0.6c-0.8-0.8-0.8-2,0-2.8c4.4-4.4,4.4-11.1,0-15.5c-0.8-0.8-0.8-2,0-2.8
			c0.8-0.8,2-0.8,2.8,0c6,6,6,15.1,0,21.1C108,68.1,107.5,68.3,107,68.3z"/>
	</g>
	<g>
		<path fill="#FFAB00" d="M44.2,108.9L44.2,108.9L32.8,82l-11.4,26.9l0,0c-0.7,1.6-1.1,3.3-1.1,5.1c0,6.9,5.6,12.5,12.5,12.5
			c6.9,0,12.5-5.6,12.5-12.5C45.3,112.3,44.9,110.5,44.2,108.9z"/>
		<path fill="#37474F" d="M32.8,128.6c-8,0-14.5-6.5-14.5-14.5c0-1.9,0.4-3.8,1.1-5.5c0-0.1,0.1-0.3,0.1-0.4L31,81.2
			c0.3-0.7,1-1.2,1.8-1.2l0,0c0.8,0,1.5,0.5,1.8,1.2l11.4,26.9c0.1,0.1,0.1,0.3,0.1,0.4c0.7,1.8,1.1,3.6,1.1,5.5
			C47.3,122.1,40.8,128.6,32.8,128.6z M23.4,109.3c0,0.2-0.1,0.3-0.1,0.5c-0.6,1.4-0.9,2.8-0.9,4.3c0,5.8,4.7,10.5,10.5,10.5
			s10.5-4.7,10.5-10.5c0-1.5-0.3-3-0.9-4.3c-0.1-0.2-0.1-0.3-0.2-0.5l-9.4-22.1L23.4,109.3z"/>
	</g>
</g>
</svg>
