<?xml version="1.0" encoding="utf-8"?>
<!-- Generator: Adobe Illustrator 16.0.0, SVG Export Plug-In . SVG Version: 6.00 Build 0)  -->
<!DOCTYPE svg PUBLIC "-//W3C//DTD SVG 1.1//EN" "http://www.w3.org/Graphics/SVG/1.1/DTD/svg11.dtd">
<svg version="1.1" id="Layer_1" xmlns="http://www.w3.org/2000/svg" xmlns:xlink="http://www.w3.org/1999/xlink" x="0px" y="0px"
	 width="24px" height="24px" viewBox="0 0 24 24" enable-background="new 0 0 24 24" xml:space="preserve">
<g>
	<path d="M16.5,17.9h0.8c-0.1,0.1-0.1,0.1-0.2,0.2c-0.2,0.2-0.2,0.5,0,0.7c0.1,0.1,0.2,0.2,0.4,0.2c0.1,0,0.2,0,0.3-0.1
		c1.8-1.6,2.9-4,2.9-6.4c0-3.6-2.3-6.9-5.6-8.1c-0.3-0.1-0.5,0-0.6,0.3c-0.1,0.3,0,0.5,0.3,0.6c2.8,1,4.7,3.7,4.9,6.6
		c-0.1-0.1-0.3-0.2-0.5-0.2c-0.4,0-0.8,0.4-0.8,0.8c0,0.4,0.4,0.8,0.8,0.8h0c0.2,0,0.4-0.1,0.6-0.2c-0.1,1.7-0.8,3.3-1.9,4.5v-1.5
		c0-0.3-0.2-0.5-0.5-0.5s-0.5,0.2-0.5,0.5v1H6.9v-1c0-0.3-0.2-0.5-0.5-0.5s-0.5,0.2-0.5,0.5V17c-0.9-1.2-1.5-2.6-1.6-4.1
		c0.1,0.1,0.3,0.2,0.5,0.2c0,0,0,0,0,0h0c0.4,0,0.8-0.4,0.8-0.8c0-0.4-0.4-0.8-0.8-0.8c-0.2,0-0.4,0.1-0.5,0.2
		c0.2-3,2.2-5.7,5.1-6.7C9.7,5,9.9,4.7,9.8,4.5C9.7,4.2,9.4,4.1,9.2,4.2c-3.5,1.2-5.8,4.5-5.8,8.2c0,2.5,1.1,4.8,2.9,6.5
		C6.4,18.9,6.5,19,6.6,19c0.1,0,0.3-0.1,0.4-0.2c0.2-0.2,0.2-0.5,0-0.7C6.8,18,6.8,18,6.7,17.9h0.8L6,23.1c0,0.2,0,0.3,0.1,0.4
		c0.1,0.1,0.2,0.2,0.4,0.2h11.1c0.2,0,0.3-0.1,0.4-0.2c0.1-0.1,0.1-0.3,0.1-0.4L16.5,17.9z M4.9,12.6C4.9,12.6,4.9,12.6,4.9,12.6
		L4.9,12.6L4.9,12.6z M7.1,22.8l1.4-4.9h0.7l-1,4c-0.1,0.3,0.1,0.5,0.4,0.6c0,0,0.1,0,0.1,0c0.2,0,0.4-0.2,0.5-0.4l1-4.1
		c0,0,0-0.1,0-0.1h1.3c0,0,0,0.1,0,0.1v3.9c0,0.3,0.2,0.5,0.5,0.5s0.5-0.2,0.5-0.5V18c0,0,0-0.1,0-0.1h1.4c0,0,0,0.1,0,0.1l1,4.1
		c0.1,0.2,0.3,0.4,0.5,0.4c0,0,0.1,0,0.1,0c0.3-0.1,0.4-0.3,0.4-0.6l-1-4h0.6l1.4,4.9H7.1z"/>
	<path d="M8.9,14.9v-1c0-0.3-0.2-0.5-0.5-0.5S7.9,13.7,7.9,14v1.5c0,0.3,0.2,0.5,0.5,0.5h6.9c0.3,0,0.5-0.2,0.5-0.5V14
		c0-0.3-0.2-0.5-0.5-0.5s-0.5,0.2-0.5,0.5v1h-1.3V0.7c0-0.3-0.2-0.5-0.5-0.5h-2c-0.3,0-0.5,0.2-0.5,0.5v14.2H8.9z M11.5,1.2h1v13.7
		h-1V1.2z"/>
	<path d="M9,11.6c-0.4,0-0.8,0.4-0.8,0.8c0,0.4,0.4,0.8,0.8,0.8h0c0.4,0,0.8-0.4,0.8-0.8c0-0.2-0.1-0.4-0.2-0.6
		C9.5,11.6,9.3,11.6,9,11.6z"/>
	<path d="M6.4,11.8c-0.1,0.2-0.2,0.4-0.2,0.6c0,0.4,0.3,0.8,0.8,0.8h0c0.4,0,0.8-0.4,0.8-0.8c0-0.4-0.4-0.8-0.8-0.8
		C6.8,11.6,6.6,11.6,6.4,11.8z"/>
	<path d="M17,13.2c0.4,0,0.8-0.4,0.8-0.8c0-0.4-0.4-0.8-0.8-0.8c-0.2,0-0.4,0.1-0.6,0.2c-0.2,0.2-0.2,0.4-0.2,0.6
		C16.2,12.8,16.6,13.1,17,13.2L17,13.2z"/>
	<path d="M14.9,13.2L14.9,13.2c0.5,0,0.8-0.4,0.8-0.8c0-0.4-0.4-0.8-0.8-0.8c-0.4,0-0.8,0.4-0.8,0.8C14.2,12.8,14.5,13.2,14.9,13.2
		C14.9,13.2,14.9,13.2,14.9,13.2z M15,12.6C15,12.6,15,12.6,15,12.6L15,12.6L15,12.6z"/>
</g>
</svg>
