<?xml version="1.0" encoding="utf-8"?>
<!-- Generator: Adobe Illustrator 16.0.0, SVG Export Plug-In . SVG Version: 6.00 Build 0)  -->
<!DOCTYPE svg PUBLIC "-//W3C//DTD SVG 1.1//EN" "http://www.w3.org/Graphics/SVG/1.1/DTD/svg11.dtd">
<svg version="1.1" id="Layer_1" xmlns="http://www.w3.org/2000/svg" xmlns:xlink="http://www.w3.org/1999/xlink" x="0px" y="0px"
	 width="25px" height="25px" viewBox="0 0 25 25" enable-background="new 0 0 25 25" xml:space="preserve">
<g>
	<path d="M22.8,10.7H2.2c-0.9,0-1.7,0.8-1.7,1.7c0,0.7,0.4,1.3,1,1.6v2.3c0,1.7,1,3.2,2.4,4l-1.6,1.6c-0.2,0.2-0.2,0.5,0,0.7
		c0.1,0.1,0.2,0.1,0.4,0.1s0.3,0,0.4-0.1l1.9-1.9c0.4,0.1,0.8,0.2,1.2,0.2h12.9c0.4,0,0.8-0.1,1.2-0.2l1.9,1.9
		c0.1,0.1,0.2,0.1,0.4,0.1s0.3,0,0.4-0.1c0.2-0.2,0.2-0.5,0-0.7l-1.6-1.6c1.4-0.8,2.4-2.3,2.4-4V14c0.6-0.3,1-0.9,1-1.6
		C24.6,11.5,23.8,10.7,22.8,10.7z M18.9,19.9H6.1c-2,0-3.6-1.6-3.6-3.6v-2.2h20.1v2.2C22.5,18.3,20.9,19.9,18.9,19.9z M22.8,13.1
		H2.2c-0.4,0-0.7-0.3-0.7-0.7s0.3-0.7,0.7-0.7h20.7c0.4,0,0.7,0.3,0.7,0.7S23.2,13.1,22.8,13.1z"/>
	<path d="M1.9,10.2h1.9c0.3,0,0.5-0.2,0.5-0.5S4.1,9.2,3.9,9.2H3.4V4.6c0-0.8,0.6-1.4,1.4-1.4h0.9C6.4,3.2,7,3.8,7,4.6
		c0,0.3,0.2,0.5,0.5,0.5S8,4.9,8,4.6c0-1.3-1.1-2.4-2.4-2.4H4.7c-1.3,0-2.4,1.1-2.4,2.4v4.6H1.9c-0.3,0-0.5,0.2-0.5,0.5
		S1.6,10.2,1.9,10.2z"/>
</g>
</svg>
