<?xml version="1.0" encoding="utf-8"?>
<!-- Generator: Adobe Illustrator 16.0.0, SVG Export Plug-In . SVG Version: 6.00 Build 0)  -->
<!DOCTYPE svg PUBLIC "-//W3C//DTD SVG 1.1//EN" "http://www.w3.org/Graphics/SVG/1.1/DTD/svg11.dtd">
<svg version="1.1" id="Layer_1" xmlns="http://www.w3.org/2000/svg" xmlns:xlink="http://www.w3.org/1999/xlink" x="0px" y="0px"
	 width="32px" height="32px" viewBox="0 0 32 32" enable-background="new 0 0 32 32" xml:space="preserve">
<g>
	<g>
		<g>
			<g>
				<path fill="#FFECB3" d="M30.5,26.4c0.8,0.8,1,1.8,0.5,2.3l-1.6,1.6c-0.5,0.5-1.5,0.2-2.3-0.5L12,13.7c-0.8-0.8-1-1.8-0.5-2.3
					l0.8-0.8c0.5-0.5,1.5-0.2,2.3,0.5L30.5,26.4z"/>
				<path fill="#37474F" d="M28.8,30.9c-0.6,0-1.4-0.3-2-0.9L11.7,14c-0.6-0.6-0.9-1.3-0.9-1.9c0-0.4,0.1-0.8,0.4-1l0.8-0.8
					c0.7-0.7,2-0.4,3,0.5l16,15.1c1,1,1.2,2.3,0.5,3l-1.6,1.6C29.5,30.8,29.2,30.9,28.8,30.9z M12.9,10.9c-0.1,0-0.2,0-0.3,0.1
					l-0.8,0.8c-0.1,0.1-0.1,0.2-0.1,0.3c0,0.4,0.2,0.9,0.6,1.2l15.1,16c0.5,0.5,0.9,0.6,1.2,0.6c0.1,0,0.2,0,0.3-0.1l1.6-1.6
					c0.2-0.2,0.1-0.9-0.5-1.5l-16-15.1C13.8,11.2,13.3,10.9,12.9,10.9z"/>
			</g>
			<g>
				<polygon fill="#FFAB00" points="15.4,3.3 4.8,13.8 1.9,11 10.4,2.5 				"/>
				<path fill="#37474F" d="M4.8,14.3c-0.1,0-0.3-0.1-0.4-0.1l-2.9-2.9c-0.1-0.1-0.1-0.2-0.1-0.4s0.1-0.3,0.1-0.4L10,2.2
					C10.2,2.1,10.3,2,10.5,2l4.9,0.8c0.2,0,0.3,0.2,0.4,0.3s0,0.4-0.1,0.5L5.2,14.2C5.1,14.3,5,14.3,4.8,14.3z M2.7,11l2.2,2.2
					l9.5-9.5l-3.7-0.6L2.7,11z"/>
			</g>
			<g>
				<line fill="#FFAB00" x1="9.8" y1="11" x2="11.8" y2="9"/>
				<path fill="#37474F" d="M9.8,11.5c-0.1,0-0.3,0-0.4-0.1c-0.2-0.2-0.2-0.5,0-0.7l2-2c0.2-0.2,0.5-0.2,0.7,0s0.2,0.5,0,0.7l-2,2
					C10.1,11.4,9.9,11.5,9.8,11.5z"/>
			</g>
		</g>
		<g>
			<line fill="#FFAB00" x1="24" y1="30.5" x2="30" y2="30.5"/>
			<path fill="#37474F" d="M30,31h-6c-0.3,0-0.5-0.2-0.5-0.5S23.7,30,24,30h6c0.3,0,0.5,0.2,0.5,0.5S30.3,31,30,31z"/>
		</g>
		<g>
			<g>
				<path fill="#FFAB00" d="M8.5,24.3c0,0.4-1.7,0.7-3.9,0.7s-3.9-0.3-3.9-0.7"/>
				<path fill="#37474F" d="M4.6,25.5c-2,0-4.4-0.2-4.4-1.2c0-0.3,0.2-0.5,0.5-0.5c0.2,0,0.4,0.1,0.5,0.3c0.3,0.2,1.5,0.4,3.4,0.4
					c1.9,0,3.1-0.2,3.4-0.4c0.1-0.2,0.3-0.3,0.5-0.3c0.3,0,0.5,0.2,0.5,0.5C9,25.3,6.6,25.5,4.6,25.5z"/>
			</g>
			<g>
				<line fill="#FFAB00" x1="3" y1="26.5" x2="6" y2="26.5"/>
				<path fill="#37474F" d="M6,27H3c-0.3,0-0.5-0.2-0.5-0.5S2.7,26,3,26h3c0.3,0,0.5,0.2,0.5,0.5S6.3,27,6,27z"/>
			</g>
			<g>
				<line fill="#FFAB00" x1="3" y1="28.5" x2="6" y2="28.5"/>
				<path fill="#37474F" d="M6,29H3c-0.3,0-0.5-0.2-0.5-0.5S2.7,28,3,28h3c0.3,0,0.5,0.2,0.5,0.5S6.3,29,6,29z"/>
			</g>
			<g>
				<line fill="#FFAB00" x1="3" y1="30.5" x2="6" y2="30.5"/>
				<path fill="#37474F" d="M6,31H3c-0.3,0-0.5-0.2-0.5-0.5S2.7,30,3,30h3c0.3,0,0.5,0.2,0.5,0.5S6.3,31,6,31z"/>
			</g>
		</g>
	</g>
	<g>
		<line fill="#FFAB00" x1="7.5" y1="14" x2="7.5" y2="20"/>
		<path fill="#37474F" d="M7.5,20.5C7.2,20.5,7,20.3,7,20v-6c0-0.3,0.2-0.5,0.5-0.5S8,13.7,8,14v6C8,20.3,7.8,20.5,7.5,20.5z"/>
	</g>
	<g>
		<line fill="#FFAB00" x1="1.5" y1="2" x2="1.5" y2="8"/>
		<path fill="#37474F" d="M1.5,8.5C1.2,8.5,1,8.3,1,8V2c0-0.3,0.2-0.5,0.5-0.5S2,1.7,2,2v6C2,8.3,1.8,8.5,1.5,8.5z"/>
	</g>
	<g>
		<line fill="#FFAB00" x1="3.5" y1="3" x2="3.5" y2="6"/>
		<path fill="#37474F" d="M3.5,6.5C3.2,6.5,3,6.3,3,6V3c0-0.3,0.2-0.5,0.5-0.5S4,2.7,4,3v3C4,6.3,3.8,6.5,3.5,6.5z"/>
	</g>
</g>
</svg>
