<?xml version="1.0" encoding="utf-8"?>
<!-- Generator: Adobe Illustrator 16.0.0, SVG Export Plug-In . SVG Version: 6.00 Build 0)  -->
<!DOCTYPE svg PUBLIC "-//W3C//DTD SVG 1.1//EN" "http://www.w3.org/Graphics/SVG/1.1/DTD/svg11.dtd">
<svg version="1.1" id="Layer_1" xmlns="http://www.w3.org/2000/svg" xmlns:xlink="http://www.w3.org/1999/xlink" x="0px" y="0px"
	 width="64px" height="64px" viewBox="0 0 64 64" enable-background="new 0 0 64 64" xml:space="preserve">
<g>
	<g>
		<g>
			<path fill="#FFECB3" d="M49.2,19.4c0-9.5-7.7-17.2-17.2-17.2S14.8,9.9,14.8,19.4c0,4.7,1.9,9,5,12.1l1.9,7c0,3,2.4,5.4,5.4,5.4
				h9.7c3,0,5.4-2.4,5.4-5.4l1.9-7C47.2,28.4,49.2,24.1,49.2,19.4z"/>
			<path fill="#37474F" d="M36.9,45h-9.7c-3.5,0-6.3-2.8-6.4-6.3L19,32.1c-3.3-3.4-5.1-7.9-5.1-12.6C13.8,9.4,22,1.3,32,1.3
				s18.2,8.1,18.2,18.2c0,4.8-1.8,9.2-5.1,12.6l-1.8,6.6C43.2,42.2,40.3,45,36.9,45z M32,3.3c-8.9,0-16.2,7.2-16.2,16.2
				c0,4.3,1.7,8.4,4.7,11.4c0.1,0.1,0.2,0.3,0.3,0.5l1.9,7c0,0.1,0,0.2,0,0.3c0,2.4,2,4.4,4.4,4.4h9.7c2.4,0,4.4-2,4.4-4.4
				c0-0.1,0-0.2,0-0.3l1.9-7c0-0.2,0.1-0.3,0.3-0.5c3-3,4.7-7.1,4.7-11.4C48.2,10.5,40.9,3.3,32,3.3z"/>
		</g>
		<g>
			<g>
				<line fill="#FFECB3" x1="24" y1="49" x2="40" y2="49"/>
				<path fill="#37474F" d="M40,50H24c-0.6,0-1-0.4-1-1s0.4-1,1-1h16c0.6,0,1,0.4,1,1S40.6,50,40,50z"/>
			</g>
			<g>
				<line fill="#FFECB3" x1="24" y1="54" x2="40" y2="54"/>
				<path fill="#37474F" d="M40,55H24c-0.6,0-1-0.4-1-1s0.4-1,1-1h16c0.6,0,1,0.4,1,1S40.6,55,40,55z"/>
			</g>
		</g>
		<g>
			<path fill="#FFAB00" d="M24.4,57.5c-0.1,0.3-0.1,0.7-0.1,1c0,1.8,1.5,3.4,3.3,3.4h8.8c1.8,0,3.3-1.6,3.3-3.4c0-0.3,0-0.7-0.1-1"
				/>
			<path fill="#37474F" d="M36.4,63h-8.8c-2.3,0-4.3-2-4.3-4.4c0-0.3,0-0.9,0.2-1.3c0.1-0.5,0.7-0.8,1.2-0.7
				c0.5,0.1,0.8,0.7,0.7,1.2c-0.1,0.2-0.1,0.5-0.1,0.8c0,1.3,1.1,2.4,2.3,2.4h8.8c1.2,0,2.3-1.1,2.3-2.4c0-0.2,0-0.5-0.1-0.7
				c-0.1-0.5,0.2-1.1,0.7-1.2c0.5-0.2,1.1,0.2,1.2,0.7c0.1,0.4,0.2,0.8,0.2,1.2C40.7,61,38.7,63,36.4,63z"/>
		</g>
	</g>
	<g>
		<g>
			<g>
				<g>
					<path fill="#FFECB3" d="M28.9,19.9c-3.7-4.1-9.2-3.8-9.6-3.8l0,0c0,0,0,0,0,0c0,0,0,0,0,0l0,0c0,0.5-0.3,5.9,3.8,9.6
						c4.1,3.7,8.4,3,8.8,2.9l0,0c0,0,0,0,0,0l0,0l0,0C31.9,28.3,32.6,24,28.9,19.9z"/>
					<path fill="#37474F" d="M30.4,29.9c-1.7,0-5-0.4-8.1-3.3c-4.1-3.7-4.2-8.9-4.1-10.3c0-0.1,0-0.3,0-0.4c0-0.1,0-0.1,0.1-0.2
						c0.1-0.3,0.3-0.5,0.6-0.6c0.2-0.1,0.3-0.1,0.5,0c0.1,0,0.2,0,0.4,0c1.8,0,6.5,0.4,9.8,4.1c3.7,4.1,3.3,8.4,3.2,9.5
						c0,0.1,0,0.2,0,0.3c-0.1,0.3-0.3,0.6-0.6,0.7c-0.1,0.1-0.3,0.1-0.5,0.1C31.2,29.8,30.8,29.9,30.4,29.9z M20.2,17.2
						c0.1,1.8,0.5,5.3,3.4,8c2.7,2.4,5.4,2.7,6.8,2.7c0.1,0,0.3,0,0.5,0c0.1-1.3-0.1-4.3-2.7-7.2C25.6,17.7,22,17.2,20.2,17.2z"/>
				</g>
				<g>
					
						<path fill="#FFECB3" stroke="#37474F" stroke-width="2" stroke-linecap="round" stroke-linejoin="round" stroke-miterlimit="10" d="
						M29,30.5"/>
				</g>
				<g>
					
						<path fill="#FFECB3" stroke="#37474F" stroke-width="2" stroke-linecap="round" stroke-linejoin="round" stroke-miterlimit="10" d="
						M21.6,23.2"/>
				</g>
				<g>
					
						<path fill="#FFECB3" stroke="#37474F" stroke-width="2" stroke-linecap="round" stroke-linejoin="round" stroke-miterlimit="10" d="
						M25.2,26.3"/>
				</g>
				<g>
					
						<path fill="#FFECB3" stroke="#37474F" stroke-width="2" stroke-linecap="round" stroke-linejoin="round" stroke-miterlimit="10" d="
						M26.2,22"/>
				</g>
			</g>
			<g>
				<g>
					<path fill="#FFECB3" d="M35.1,19.9c3.7-4.1,9.2-3.8,9.6-3.8l0,0c0,0,0,0,0,0c0,0,0,0,0,0l0,0c0,0.5,0.3,5.9-3.8,9.6
						c-4.1,3.7-8.4,3-8.8,2.9l0,0c0,0,0,0,0,0l0,0l0,0C32.1,28.3,31.4,24,35.1,19.9z"/>
					<path fill="#37474F" d="M33.6,29.9c-0.3,0-0.8,0-1.3-0.1c-0.1,0-0.2,0-0.4-0.1c-0.3-0.1-0.5-0.3-0.6-0.5
						c-0.1-0.1-0.1-0.3-0.1-0.5c-0.2-1.2-0.5-5.4,3.2-9.4c3.3-3.7,8-4.1,9.8-4.1c0.2,0,0.4,0,0.5,0c0.1,0,0.3,0,0.4,0
						c0.1,0,0.1,0,0.2,0.1c0.3,0.1,0.5,0.4,0.6,0.7c0,0.2,0,0.3,0,0.5c0,1.5-0.1,6.6-4.1,10.2C38.5,29.4,35.2,29.9,33.6,29.9z
						 M33.1,27.9c0.2,0,0.3,0,0.5,0c1.4,0,4.1-0.4,6.8-2.7c2.9-2.6,3.4-6.2,3.4-8c-1.8,0.1-5.4,0.6-8,3.5
						C33.2,23.5,33,26.5,33.1,27.9z"/>
				</g>
				<g>
					
						<path fill="#FFECB3" stroke="#37474F" stroke-width="2" stroke-linecap="round" stroke-linejoin="round" stroke-miterlimit="10" d="
						M35,30.5"/>
				</g>
				<g>
					
						<path fill="#FFECB3" stroke="#37474F" stroke-width="2" stroke-linecap="round" stroke-linejoin="round" stroke-miterlimit="10" d="
						M42.4,23.2"/>
				</g>
				<g>
					
						<path fill="#FFECB3" stroke="#37474F" stroke-width="2" stroke-linecap="round" stroke-linejoin="round" stroke-miterlimit="10" d="
						M38.8,26.3"/>
				</g>
				<g>
					
						<path fill="#FFECB3" stroke="#37474F" stroke-width="2" stroke-linecap="round" stroke-linejoin="round" stroke-miterlimit="10" d="
						M37.8,22"/>
				</g>
			</g>
		</g>
		<g>
			<line fill="#FFECB3" x1="32" y1="29" x2="32" y2="43"/>
			<path fill="#37474F" d="M32,44c-0.6,0-1-0.4-1-1V29c0-0.6,0.4-1,1-1s1,0.4,1,1v14C33,43.6,32.6,44,32,44z"/>
		</g>
	</g>
	<g>
		<circle fill="#FFAB00" cx="32" cy="11" r="4.6"/>
		<path fill="#37474F" d="M32,16.5c-3.1,0-5.6-2.5-5.6-5.6s2.5-5.6,5.6-5.6s5.6,2.5,5.6,5.6S35.1,16.5,32,16.5z M32,7.4
			c-2,0-3.6,1.6-3.6,3.6s1.6,3.6,3.6,3.6s3.6-1.6,3.6-3.6S34,7.4,32,7.4z"/>
	</g>
</g>
</svg>
