<?xml version="1.0" encoding="utf-8"?>
<!-- Generator: Adobe Illustrator 16.0.0, SVG Export Plug-In . SVG Version: 6.00 Build 0)  -->
<!DOCTYPE svg PUBLIC "-//W3C//DTD SVG 1.1//EN" "http://www.w3.org/Graphics/SVG/1.1/DTD/svg11.dtd">
<svg version="1.1" id="Layer_1" xmlns="http://www.w3.org/2000/svg" xmlns:xlink="http://www.w3.org/1999/xlink" x="0px" y="0px"
	 width="33px" height="33px" viewBox="0 0 33 33" enable-background="new 0 0 33 33" xml:space="preserve">
<g>
	<g>
		<path fill="#FFECB3" d="M14.7,18.5l5-5c1.2-1.2,3.2-1.2,4.4,0l1.2,1.2c1.2,1.2,1.2,3.2,0,4.4"/>
		<path fill="#37474F" d="M25.3,19.7c-0.1,0-0.3,0-0.4-0.1c-0.2-0.2-0.2-0.5,0-0.7c0.5-0.5,0.8-1.2,0.8-1.9s-0.3-1.4-0.8-1.9
			l-1.2-1.2c-1-1-2.7-1-3.7,0l-5,5c-0.2,0.2-0.5,0.2-0.7,0s-0.2-0.5,0-0.7l5-5c1.4-1.4,3.7-1.4,5.1,0l1.2,1.2
			c0.7,0.7,1.1,1.6,1.1,2.6c0,1-0.4,1.9-1.1,2.6C25.5,19.6,25.4,19.7,25.3,19.7z"/>
	</g>
	<g>
		<path fill="#FFECB3" d="M17.8,15.4l-5,5c-1.2,1.2-3.2,1.2-4.4,0l-1.2-1.2c-1.2-1.2-1.2-3.2,0-4.4"/>
		<path fill="#37474F" d="M10.7,21.8c-1,0-1.9-0.4-2.6-1.1l-1.2-1.2c-1.4-1.4-1.4-3.7,0-5.1c0.2-0.2,0.5-0.2,0.7,0s0.2,0.5,0,0.7
			c-1,1-1,2.7,0,3.7L8.8,20c1,1,2.7,1,3.7,0l5-5c0.2-0.2,0.5-0.2,0.7,0s0.2,0.5,0,0.7l-5,5C12.6,21.4,11.6,21.8,10.7,21.8z"/>
	</g>
	<g>
		
			<rect x="13.4" y="21.2" transform="matrix(0.7071 -0.7071 0.7071 0.7071 -11.889 21.1509)" fill="#FFAB00" width="12.5" height="7.4"/>
		<path fill="#37474F" d="M17.8,32.5c-0.1,0-0.3,0-0.4-0.1l-5.3-5.3c-0.2-0.2-0.2-0.5,0-0.7l8.8-8.8c0.2-0.2,0.5-0.2,0.7,0l5.3,5.3
			c0.2,0.2,0.2,0.5,0,0.7l-8.8,8.8C18.1,32.4,17.9,32.5,17.8,32.5z M13.3,26.7l4.6,4.6l8.1-8.1l-4.6-4.6L13.3,26.7z"/>
	</g>
	<g>
		<circle fill="#FFECB3" cx="11.3" cy="11.3" r="4.8"/>
		<path fill="#37474F" d="M11.3,16.6c-2.9,0-5.3-2.4-5.3-5.3c0-2.9,2.4-5.3,5.3-5.3s5.3,2.4,5.3,5.3C16.7,14.2,14.3,16.6,11.3,16.6z
			 M11.3,6.9C9,6.9,7,8.9,7,11.3c0,2.4,1.9,4.3,4.3,4.3s4.3-1.9,4.3-4.3C15.7,8.9,13.7,6.9,11.3,6.9z"/>
	</g>
	<g>
		<circle fill="#FFFFFF" cx="10.5" cy="12.1" r="1.4"/>
		<path fill="#37474F" d="M10.5,14c-1,0-1.9-0.9-1.9-1.9s0.9-1.9,1.9-1.9c1,0,1.9,0.9,1.9,1.9S11.5,14,10.5,14z M10.5,11.2
			c-0.5,0-0.9,0.4-0.9,0.9S10,13,10.5,13c0.5,0,0.9-0.4,0.9-0.9S11,11.2,10.5,11.2z"/>
	</g>
	<g>
		<polyline fill="#FFECB3" points="11.7,6.8 17,1.4 21.6,1 21.1,5.5 15.8,10.9 		"/>
		<path fill="#37474F" d="M15.8,11.4c-0.1,0-0.3,0-0.4-0.1c-0.2-0.2-0.2-0.5,0-0.7l5.2-5.2L21,1.6l-3.7,0.3L12,7.2
			c-0.2,0.2-0.5,0.2-0.7,0s-0.2-0.5,0-0.7l5.4-5.4C16.8,1,16.9,1,17,1l4.5-0.4c0.1,0,0.3,0,0.4,0.1c0.1,0.1,0.2,0.3,0.1,0.4
			l-0.4,4.5c0,0.1-0.1,0.2-0.1,0.3l-5.4,5.4C16,11.4,15.9,11.4,15.8,11.4z"/>
	</g>
	<g>
		<line fill="#FFECB3" x1="14.3" y1="8.7" x2="18.1" y2="5"/>
		<path fill="#37474F" d="M14.3,9.2c-0.1,0-0.3,0-0.4-0.1c-0.2-0.2-0.2-0.5,0-0.7l3.7-3.7c0.2-0.2,0.5-0.2,0.7,0s0.2,0.5,0,0.7
			l-3.7,3.7C14.6,9.1,14.4,9.2,14.3,9.2z"/>
	</g>
	<g>
		<line fill="#FFECB3" x1="17.7" y1="3.9" x2="19" y2="5.3"/>
		<path fill="#37474F" d="M19,5.8c-0.1,0-0.3,0-0.4-0.1l-1.4-1.4c-0.2-0.2-0.2-0.5,0-0.7s0.5-0.2,0.7,0l1.4,1.4
			c0.2,0.2,0.2,0.5,0,0.7C19.3,5.7,19.1,5.8,19,5.8z"/>
	</g>
	<g>
		<line fill="#FFECB3" x1="16.6" y1="29.9" x2="24.8" y2="21.7"/>
		<path fill="#37474F" d="M16.6,30.4c-0.1,0-0.3,0-0.4-0.1c-0.2-0.2-0.2-0.5,0-0.7l8.3-8.3c0.2-0.2,0.5-0.2,0.7,0s0.2,0.5,0,0.7
			l-8.3,8.3C16.8,30.4,16.7,30.4,16.6,30.4z"/>
	</g>
</g>
</svg>
