<?xml version="1.0" encoding="utf-8"?>
<!-- Generator: Adobe Illustrator 16.0.0, SVG Export Plug-In . SVG Version: 6.00 Build 0)  -->
<!DOCTYPE svg PUBLIC "-//W3C//DTD SVG 1.1//EN" "http://www.w3.org/Graphics/SVG/1.1/DTD/svg11.dtd">
<svg version="1.1" id="Layer_1" xmlns="http://www.w3.org/2000/svg" xmlns:xlink="http://www.w3.org/1999/xlink" x="0px" y="0px"
	 width="65px" height="65px" viewBox="0 0 65 65" enable-background="new 0 0 65 65" xml:space="preserve">
<g>
	<g>
		<path fill="#37474F" d="M63.5,62.5h-33c-0.6,0-1-0.4-1-1v-12h-28c-0.6,0-1-0.4-1-1v-37c0-0.6,0.4-1,1-1h15c0.6,0,1,0.4,1,1
			s-0.4,1-1,1h-14v35h28c0.6,0,1,0.4,1,1v12h31v-48h-15c-0.6,0-1-0.4-1-1s0.4-1,1-1h16c0.6,0,1,0.4,1,1v50
			C64.5,62.1,64.1,62.5,63.5,62.5z"/>
	</g>
	<g>
		<path fill="#37474F" d="M51.5,62.5h-21c-0.6,0-1-0.4-1-1v-13c0-0.6,0.4-1,1-1h21c0.6,0,1,0.4,1,1v13
			C52.5,62.1,52.1,62.5,51.5,62.5z M31.5,60.5h19v-11h-19V60.5z"/>
	</g>
	<g>
		<g>
			<line fill="#FFECB3" x1="46.5" y1="48.5" x2="46.5" y2="61.5"/>
			<path fill="#37474F" d="M46.5,62.5c-0.6,0-1-0.4-1-1v-13c0-0.6,0.4-1,1-1s1,0.4,1,1v13C47.5,62.1,47.1,62.5,46.5,62.5z"/>
		</g>
		<g>
			<line fill="#FFECB3" x1="40.5" y1="48.5" x2="40.5" y2="61.5"/>
			<path fill="#37474F" d="M40.5,62.5c-0.6,0-1-0.4-1-1v-13c0-0.6,0.4-1,1-1s1,0.4,1,1v13C41.5,62.1,41.1,62.5,40.5,62.5z"/>
		</g>
		<g>
			<line fill="#FFECB3" x1="34.5" y1="48.5" x2="34.5" y2="61.5"/>
			<path fill="#37474F" d="M34.5,62.5c-0.6,0-1-0.4-1-1v-13c0-0.6,0.4-1,1-1s1,0.4,1,1v13C35.5,62.1,35.1,62.5,34.5,62.5z"/>
		</g>
	</g>
	<g>
		<polyline fill="#FFFFFF" points="16.5,48.5 38.5,48.5 38.5,28.5 27.5,28.5 		"/>
		<path fill="#37474F" d="M38.5,49.5h-22c-0.6,0-1-0.4-1-1s0.4-1,1-1h21v-18h-10c-0.6,0-1-0.4-1-1s0.4-1,1-1h11c0.6,0,1,0.4,1,1v20
			C39.5,49.1,39.1,49.5,38.5,49.5z"/>
	</g>
	<g>
		<polyline fill="#FFFFFF" points="3.5,48.5 14.5,48.5 14.5,28.5 9.5,28.5 		"/>
		<path fill="#37474F" d="M14.5,49.5h-11c-0.6,0-1-0.4-1-1s0.4-1,1-1h10v-18h-4c-0.6,0-1-0.4-1-1s0.4-1,1-1h5c0.6,0,1,0.4,1,1v20
			C15.5,49.1,15.1,49.5,14.5,49.5z"/>
	</g>
	<g>
		<polyline fill="#FFFFFF" points="40.5,48.5 51.5,48.5 51.5,35.5 		"/>
		<path fill="#37474F" d="M51.5,49.5h-11c-0.6,0-1-0.4-1-1s0.4-1,1-1h10v-12c0-0.6,0.4-1,1-1s1,0.4,1,1v13
			C52.5,49.1,52.1,49.5,51.5,49.5z"/>
	</g>
	<g>
		<polyline fill="#FFFFFF" points="50.8,28.5 50.8,28.5 38.5,28.5 		"/>
		<path fill="#37474F" d="M50.8,29.5H38.5c-0.6,0-1-0.4-1-1s0.4-1,1-1h12.3c0.6,0,1,0.4,1,1S51.3,29.5,50.8,29.5z"/>
	</g>
	<g>
		<polyline fill="#FFFFFF" points="18.4,28.5 18.4,28.5 14.5,28.5 		"/>
		<path fill="#37474F" d="M18.4,29.5h-3.9c-0.6,0-1-0.4-1-1s0.4-1,1-1h3.9c0.6,0,1,0.4,1,1S19,29.5,18.4,29.5z"/>
	</g>
	<g>
		<polyline fill="#FFFFFF" points="31.3,21 18.1,25.6 22.6,12.3 		"/>
		<path fill="#37474F" d="M18.1,26.6c-0.3,0-0.5-0.1-0.7-0.3c-0.3-0.3-0.4-0.7-0.2-1L21.7,12c0.2-0.5,0.8-0.8,1.3-0.6
			c0.5,0.2,0.8,0.7,0.6,1.3L19.7,24L31,20.1c0.5-0.2,1.1,0.1,1.3,0.6c0.2,0.5-0.1,1.1-0.6,1.3l-13.2,4.5
			C18.3,26.5,18.2,26.6,18.1,26.6z"/>
	</g>
	<g>
		<polyline fill="#FFECB3" points="29.8,4.8 23.7,10.9 32.7,19.8 48,4.5 		"/>
		<path fill="#37474F" d="M32.7,20.8c-0.3,0-0.5-0.1-0.7-0.3l-9-9c-0.4-0.4-0.4-1,0-1.4l6.1-6.1c0.4-0.4,1-0.4,1.4,0s0.4,1,0,1.4
			l-5.4,5.4l7.6,7.6L47.3,3.8c0.4-0.4,1-0.4,1.4,0s0.4,1,0,1.4L33.4,20.6C33.2,20.8,32.9,20.8,32.7,20.8z"/>
	</g>
	<g>
		<polyline fill="#FFAB00" points="29.8,4.8 23.7,10.9 28.2,15.4 39.3,4.3 		"/>
		<path fill="#37474F" d="M28.2,16.4c-0.3,0-0.5-0.1-0.7-0.3L23,11.6c-0.4-0.4-0.4-1,0-1.4l6.1-6.1c0.4-0.4,1-0.4,1.4,0s0.4,1,0,1.4
			l-5.4,5.4l3.1,3.1L38.6,3.6c0.4-0.4,1-0.4,1.4,0s0.4,1,0,1.4L29,16.1C28.8,16.3,28.5,16.4,28.2,16.4z"/>
	</g>
	<g>
		<line fill="#FFFFFF" x1="20.6" y1="18.5" x2="25" y2="22.9"/>
		<path fill="#37474F" d="M25,23.9c-0.3,0-0.5-0.1-0.7-0.3l-4.4-4.4c-0.4-0.4-0.4-1,0-1.4s1-0.4,1.4,0l4.4,4.4c0.4,0.4,0.4,1,0,1.4
			C25.5,23.8,25.3,23.9,25,23.9z"/>
	</g>
	<g>
		<path fill="#37474F" d="M30.5,48.5h-10c-0.6,0-1-0.4-1-1v-13c0-0.6,0.4-1,1-1h10c0.6,0,1,0.4,1,1v13
			C31.5,48.1,31.1,48.5,30.5,48.5z M21.5,46.5h8v-11h-8V46.5z"/>
	</g>
	<g>
		<path fill="#37474F" d="M10.1,47.8c-0.6,0-1-0.4-1-1c0-3.5-2.9-6.4-6.4-6.4c-0.6,0-1-0.4-1-1s0.4-1,1-1c4.6,0,8.4,3.8,8.4,8.4
			C11.1,47.4,10.6,47.8,10.1,47.8z"/>
	</g>
</g>
</svg>
