<?xml version="1.0" encoding="utf-8"?>
<!-- Generator: Adobe Illustrator 16.0.0, SVG Export Plug-In . SVG Version: 6.00 Build 0)  -->
<!DOCTYPE svg PUBLIC "-//W3C//DTD SVG 1.1//EN" "http://www.w3.org/Graphics/SVG/1.1/DTD/svg11.dtd">
<svg version="1.1" id="Layer_1" xmlns="http://www.w3.org/2000/svg" xmlns:xlink="http://www.w3.org/1999/xlink" x="0px" y="0px"
	 width="64px" height="64px" viewBox="0 0 64 64" enable-background="new 0 0 64 64" xml:space="preserve">
<g>
	<g>
		<polygon fill="#FFFFFF" points="47.8,1.5 7,1.5 7,62.5 57,62.5 57,10.7 		"/>
		<path fill="#37474F" d="M57,63.5H7c-0.6,0-1-0.4-1-1V1.5c0-0.6,0.4-1,1-1h40.8c0.3,0,0.5,0.1,0.7,0.3l9.2,9.2
			c0.2,0.2,0.3,0.4,0.3,0.7v51.9C58,63.1,57.6,63.5,57,63.5z M8,61.5h48V11.1l-8.6-8.6H8V61.5z"/>
	</g>
	<g>
		<polyline fill="#FFECB3" points="56.4,12.5 46.7,12.5 46.7,2.8 		"/>
		<path fill="#37474F" d="M56.4,13.5h-9.7c-0.6,0-1-0.4-1-1V2.8c0-0.6,0.4-1,1-1s1,0.4,1,1v8.7h8.7c0.6,0,1,0.4,1,1
			S56.9,13.5,56.4,13.5z"/>
	</g>
	<g>
		<g>
			<circle fill="#FFECB3" cx="19.4" cy="14" r="6.4"/>
			<path fill="#37474F" d="M19.4,21.3C15.3,21.3,12,18,12,14s3.3-7.4,7.4-7.4s7.4,3.3,7.4,7.4S23.5,21.3,19.4,21.3z M19.4,8.6
				c-3,0-5.4,2.4-5.4,5.4s2.4,5.4,5.4,5.4s5.4-2.4,5.4-5.4S22.4,8.6,19.4,8.6z"/>
		</g>
		<g>
			<g>
				<polyline fill="#FFAB00" points="15.6,19.2 15.6,27.7 19.4,23.8 				"/>
				<path fill="#37474F" d="M15.6,28.7c-0.1,0-0.3,0-0.4-0.1c-0.4-0.2-0.6-0.5-0.6-0.9v-8.5c0-0.6,0.4-1,1-1s1,0.4,1,1v6l2.1-2.1
					c0.4-0.4,1-0.4,1.4,0s0.4,1,0,1.4l-3.8,3.8C16.1,28.6,15.8,28.7,15.6,28.7z"/>
			</g>
			<g>
				<polyline fill="#FFAB00" points="23.2,19.2 23.2,27.7 19.4,23.8 				"/>
				<path fill="#37474F" d="M23.2,28.7c-0.3,0-0.5-0.1-0.7-0.3l-3.8-3.8c-0.4-0.4-0.4-1,0-1.4s1-0.4,1.4,0l2.1,2.1v-6
					c0-0.6,0.4-1,1-1s1,0.4,1,1v8.5c0,0.4-0.2,0.8-0.6,0.9C23.5,28.6,23.4,28.7,23.2,28.7z"/>
			</g>
		</g>
	</g>
	<g>
		<g>
			<line fill="#FFAB00" x1="14.5" y1="36.7" x2="49.5" y2="36.7"/>
			<path fill="#37474F" d="M49.5,37.7h-35c-0.6,0-1-0.4-1-1s0.4-1,1-1h35c0.6,0,1,0.4,1,1S50.1,37.7,49.5,37.7z"/>
		</g>
		<g>
			<line fill="#FFAB00" x1="14.5" y1="45.5" x2="49.5" y2="45.5"/>
			<path fill="#37474F" d="M49.5,46.5h-35c-0.6,0-1-0.4-1-1s0.4-1,1-1h35c0.6,0,1,0.4,1,1S50.1,46.5,49.5,46.5z"/>
		</g>
		<g>
			<line fill="#FFAB00" x1="14.5" y1="54.3" x2="49.5" y2="54.3"/>
			<path fill="#37474F" d="M49.5,55.3h-35c-0.6,0-1-0.4-1-1s0.4-1,1-1h35c0.6,0,1,0.4,1,1S50.1,55.3,49.5,55.3z"/>
		</g>
	</g>
	<g>
		<g>
			<line fill="#FFAB00" x1="30" y1="18.5" x2="49.7" y2="18.5"/>
			<path fill="#37474F" d="M49.7,19.5H30c-0.6,0-1-0.4-1-1s0.4-1,1-1h19.7c0.6,0,1,0.4,1,1S50.2,19.5,49.7,19.5z"/>
		</g>
		<g>
			<line fill="#FFAB00" x1="30" y1="27.3" x2="49.7" y2="27.3"/>
			<path fill="#37474F" d="M49.7,28.3H30c-0.6,0-1-0.4-1-1s0.4-1,1-1h19.7c0.6,0,1,0.4,1,1S50.2,28.3,49.7,28.3z"/>
		</g>
	</g>
</g>
</svg>
