<?xml version="1.0" encoding="utf-8"?>
<!-- Generator: Adobe Illustrator 16.0.0, SVG Export Plug-In . SVG Version: 6.00 Build 0)  -->
<!DOCTYPE svg PUBLIC "-//W3C//DTD SVG 1.1//EN" "http://www.w3.org/Graphics/SVG/1.1/DTD/svg11.dtd">
<svg version="1.1" id="Layer_1" xmlns="http://www.w3.org/2000/svg" xmlns:xlink="http://www.w3.org/1999/xlink" x="0px" y="0px"
	 width="64px" height="64px" viewBox="0 0 64 64" enable-background="new 0 0 64 64" xml:space="preserve">
<g>
	<g>
		<line fill="#FFECB3" x1="32" y1="13" x2="32" y2="61"/>
		<path fill="#37474F" d="M32,62c-0.6,0-1-0.4-1-1V13c0-0.6,0.4-1,1-1s1,0.4,1,1v48C33,61.6,32.6,62,32,62z"/>
	</g>
	<g>
		<line fill="#FFECB3" x1="20" y1="62" x2="44" y2="62"/>
		<path fill="#37474F" d="M44,63H20c-0.6,0-1-0.4-1-1s0.4-1,1-1h24c0.6,0,1,0.4,1,1S44.6,63,44,63z"/>
	</g>
	<g>
		<circle fill="#FFECB3" cx="32" cy="5.2" r="3.1"/>
		<path fill="#37474F" d="M32,9.3c-2.3,0-4.1-1.8-4.1-4.1s1.8-4.1,4.1-4.1s4.1,1.8,4.1,4.1S34.3,9.3,32,9.3z M32,3.1
			c-1.1,0-2.1,0.9-2.1,2.1s0.9,2.1,2.1,2.1s2.1-0.9,2.1-2.1S33.1,3.1,32,3.1z"/>
	</g>
	<g>
		<polyline fill="#FFECB3" points="36,13 49.9,13 55.2,17.5 49.9,22 36,22 		"/>
		<path fill="#37474F" d="M49.9,23H36c-0.6,0-1-0.4-1-1s0.4-1,1-1h13.5l4.1-3.5L49.5,14H36c-0.6,0-1-0.4-1-1s0.4-1,1-1h13.9
			c0.2,0,0.5,0.1,0.6,0.2l5.3,4.5c0.2,0.2,0.4,0.5,0.4,0.8c0,0.3-0.1,0.6-0.4,0.8l-5.3,4.5C50.4,22.9,50.1,23,49.9,23z"/>
	</g>
	<g>
		<polyline fill="#FFECB3" points="36,27 49.9,27 55.2,31.5 49.9,36 36,36 		"/>
		<path fill="#37474F" d="M49.9,37H36c-0.6,0-1-0.4-1-1s0.4-1,1-1h13.5l4.1-3.5L49.5,28H36c-0.6,0-1-0.4-1-1s0.4-1,1-1h13.9
			c0.2,0,0.5,0.1,0.6,0.2l5.3,4.5c0.2,0.2,0.4,0.5,0.4,0.8s-0.1,0.6-0.4,0.8l-5.3,4.5C50.4,36.9,50.1,37,49.9,37z"/>
	</g>
	<g>
		<polyline fill="#FFAB00" points="28,22 14.1,22 8.8,17.5 14.1,13 28,13 		"/>
		<path fill="#37474F" d="M28,23H14.1c-0.2,0-0.5-0.1-0.6-0.2l-5.3-4.5c-0.2-0.2-0.4-0.5-0.4-0.8s0.1-0.6,0.4-0.8l5.3-4.5
			c0.2-0.2,0.4-0.2,0.6-0.2H28c0.6,0,1,0.4,1,1s-0.4,1-1,1H14.5l-4.1,3.5l4.1,3.5H28c0.6,0,1,0.4,1,1S28.6,23,28,23z"/>
	</g>
</g>
</svg>
