<?xml version="1.0" encoding="utf-8"?>
<!-- Generator: Adobe Illustrator 16.0.0, SVG Export Plug-In . SVG Version: 6.00 Build 0)  -->
<!DOCTYPE svg PUBLIC "-//W3C//DTD SVG 1.1//EN" "http://www.w3.org/Graphics/SVG/1.1/DTD/svg11.dtd">
<svg version="1.1" id="Layer_1" xmlns="http://www.w3.org/2000/svg" xmlns:xlink="http://www.w3.org/1999/xlink" x="0px" y="0px"
	 width="64px" height="64px" viewBox="0 0 64 64" enable-background="new 0 0 64 64" xml:space="preserve">
<g>
	<g>
		<line fill="#FFECB3" x1="4" y1="56" x2="60" y2="56"/>
		<path fill="#37474F" d="M60,57H4c-0.6,0-1-0.4-1-1s0.4-1,1-1h56c0.6,0,1,0.4,1,1S60.6,57,60,57z"/>
	</g>
	<g>
		<g>
			<g>
				<polyline fill="#FFAB00" points="5.1,27.2 31.8,8.8 58.6,27.2 				"/>
				<path fill="#37474F" d="M58.6,28.2c-0.2,0-0.4-0.1-0.6-0.2L31.8,10L5.7,28c-0.5,0.3-1.1,0.2-1.4-0.3c-0.3-0.5-0.2-1.1,0.3-1.4
					L31.3,8c0.3-0.2,0.8-0.2,1.1,0l26.7,18.4c0.5,0.3,0.6,0.9,0.3,1.4C59.2,28,58.9,28.2,58.6,28.2z"/>
			</g>
			<g>
				<polyline fill="#FFECB3" points="51,27 51,56 12,56 12,27 				"/>
				<path fill="#37474F" d="M51,57H12c-0.6,0-1-0.4-1-1V27c0-0.6,0.4-1,1-1s1,0.4,1,1v28h37V27c0-0.6,0.4-1,1-1s1,0.4,1,1v29
					C52,56.6,51.6,57,51,57z"/>
			</g>
			<g>
				<rect x="20" y="32" fill="#FFECB3" width="24" height="24"/>
				<path fill="#37474F" d="M44,57H20c-0.6,0-1-0.4-1-1V32c0-0.6,0.4-1,1-1h24c0.6,0,1,0.4,1,1v24C45,56.6,44.6,57,44,57z M21,55h22
					V33H21V55z"/>
			</g>
		</g>
		<g>
			<g>
				<line fill="#FFECB3" x1="20" y1="39" x2="43" y2="39"/>
				<path fill="#37474F" d="M43,40H20c-0.6,0-1-0.4-1-1s0.4-1,1-1h23c0.6,0,1,0.4,1,1S43.6,40,43,40z"/>
			</g>
			<g>
				<line fill="#FFECB3" x1="20" y1="45" x2="43" y2="45"/>
				<path fill="#37474F" d="M43,46H20c-0.6,0-1-0.4-1-1s0.4-1,1-1h23c0.6,0,1,0.4,1,1S43.6,46,43,46z"/>
			</g>
			<g>
				<line fill="#FFECB3" x1="20" y1="51" x2="43" y2="51"/>
				<path fill="#37474F" d="M43,52H20c-0.6,0-1-0.4-1-1s0.4-1,1-1h23c0.6,0,1,0.4,1,1S43.6,52,43,52z"/>
			</g>
		</g>
	</g>
</g>
</svg>
