<?xml version="1.0" encoding="utf-8"?>
<!-- Generator: Adobe Illustrator 16.0.0, SVG Export Plug-In . SVG Version: 6.00 Build 0)  -->
<!DOCTYPE svg PUBLIC "-//W3C//DTD SVG 1.1//EN" "http://www.w3.org/Graphics/SVG/1.1/DTD/svg11.dtd">
<svg version="1.1" id="Layer_1" xmlns="http://www.w3.org/2000/svg" xmlns:xlink="http://www.w3.org/1999/xlink" x="0px" y="0px"
	 width="64px" height="65.4px" viewBox="0 0 64 65.4" enable-background="new 0 0 64 65.4" xml:space="preserve">
<g>
	<g>
		<g>
			<line fill="#FFECB3" x1="5" y1="52" x2="60" y2="52"/>
			<path fill="#37474F" d="M60,53H5c-0.6,0-1-0.4-1-1s0.4-1,1-1h55c0.6,0,1,0.4,1,1S60.6,53,60,53z"/>
		</g>
		<g>
			<path fill="#FFECB3" d="M60,51V33.7c0-5.4-4.7-9.7-10.1-9.7h-0.1h-0.5H17"/>
			<path fill="#37474F" d="M60,52c-0.6,0-1-0.4-1-1V33.7c0-4.7-4.1-8.7-9.1-8.7H17c-0.6,0-1-0.4-1-1s0.4-1,1-1h32.9
				c6,0,11.1,4.9,11.1,10.7V51C61,51.6,60.6,52,60,52z"/>
		</g>
		<g>
			<path fill="#FFFFFF" d="M6,51V33.7c0-5.4,4.8-9.7,10.2-9.7h0.6c5.4,0,10.2,4.3,10.2,9.7V51"/>
			<path fill="#37474F" d="M27,52c-0.6,0-1-0.4-1-1V33.7c0-4.7-4.2-8.7-9.2-8.7h-0.6c-5,0-9.2,4-9.2,8.7V51c0,0.6-0.4,1-1,1
				s-1-0.4-1-1V33.7C5,27.9,10.1,23,16.2,23h0.6C22.9,23,28,27.9,28,33.7V51C28,51.6,27.6,52,27,52z"/>
		</g>
		<g>
			<rect x="11" y="31" fill="#FFECB3" width="11" height="4"/>
			<path fill="#37474F" d="M22,36H11c-0.6,0-1-0.4-1-1v-4c0-0.6,0.4-1,1-1h11c0.6,0,1,0.4,1,1v4C23,35.6,22.6,36,22,36z M12,34h9v-2
				h-9V34z"/>
		</g>
		<g>
			<g>
				<g>
					<line fill="#FFAB00" x1="50" y1="39" x2="38" y2="39"/>
					<path fill="#37474F" d="M50,40H38c-0.6,0-1-0.4-1-1s0.4-1,1-1h12c0.6,0,1,0.4,1,1S50.6,40,50,40z"/>
				</g>
				<g>
					<polyline fill="#FFAB00" points="38,34 55,34 55,39 					"/>
					<path fill="#37474F" d="M55,40c-0.6,0-1-0.4-1-1v-4H38c-0.6,0-1-0.4-1-1s0.4-1,1-1h17c0.6,0,1,0.4,1,1v5C56,39.6,55.6,40,55,40
						z"/>
				</g>
				<g>
					<polyline fill="#FFAB00" points="55,36 55,43 50,43 50,37 					"/>
					<path fill="#37474F" d="M55,44h-5c-0.6,0-1-0.4-1-1v-6c0-0.6,0.4-1,1-1s1,0.4,1,1v5h3v-6c0-0.6,0.4-1,1-1s1,0.4,1,1v7
						C56,43.6,55.6,44,55,44z"/>
				</g>
			</g>
			<g>
				<circle fill="#FFECB3" cx="34.7" cy="36.5" r="3.7"/>
				<path fill="#37474F" d="M34.7,41.2c-2.6,0-4.7-2.1-4.7-4.7c0-2.6,2.1-4.7,4.7-4.7c2.6,0,4.7,2.1,4.7,4.7
					C39.4,39.1,37.3,41.2,34.7,41.2z M34.7,33.8c-1.5,0-2.7,1.2-2.7,2.7c0,1.5,1.2,2.7,2.7,2.7c1.5,0,2.7-1.2,2.7-2.7
					C37.4,35,36.2,33.8,34.7,33.8z"/>
			</g>
		</g>
	</g>
	<g>
		<g>
			<line fill="#FFAB00" x1="28" y1="56" x2="42" y2="56"/>
			<path fill="#37474F" d="M42,57H28c-0.6,0-1-0.4-1-1s0.4-1,1-1h14c0.6,0,1,0.4,1,1S42.6,57,42,57z"/>
		</g>
		<g>
			<line fill="#FFAB00" x1="35" y1="64" x2="35" y2="56"/>
			<path fill="#37474F" d="M35,65c-0.6,0-1-0.4-1-1v-8c0-0.6,0.4-1,1-1s1,0.4,1,1v8C36,64.6,35.6,65,35,65z"/>
		</g>
	</g>
	<g>
		<g>
			<polyline fill="#FFECB3" points="24.2,9.7 18.8,7.2 24.2,4.8 			"/>
			<path fill="#37474F" d="M24.2,10.7c-0.1,0-0.3,0-0.4-0.1l-5.4-2.5C18,8,17.8,7.6,17.8,7.2s0.2-0.7,0.6-0.9l5.4-2.5
				c0.5-0.2,1.1,0,1.3,0.5c0.2,0.5,0,1.1-0.5,1.3l-3.4,1.5l3.4,1.5c0.5,0.2,0.7,0.8,0.5,1.3C25,10.5,24.6,10.7,24.2,10.7z"/>
		</g>
		<g>
			<path fill="#FFAB00" d="M35.7,8C35.9,7.5,36,7.1,36,6.6c0-2.9-2.8-5.3-6.2-5.3c-3.4,0-6.2,2.4-6.2,5.3c0,1.9,1.2,3.5,2.9,4.5
				c-1.1,1.3-1.7,2.8-1.7,4.5c0,4.3,4.1,7.7,9.1,7.7c5,0,9-3.5,9-7.7C42.9,11.8,39.8,8.7,35.7,8z"/>
			<path fill="#37474F" d="M33.8,24.2c-5.5,0-10.1-3.9-10.1-8.7c0-1.5,0.4-2.9,1.2-4.2c-1.6-1.2-2.5-2.9-2.5-4.7
				c0-3.5,3.2-6.3,7.2-6.3S37,3.1,37,6.6c0,0.2,0,0.4,0,0.6c4.1,1.2,6.9,4.5,6.9,8.3C43.9,20.3,39.4,24.2,33.8,24.2z M29.8,2.3
				c-2.9,0-5.2,1.9-5.2,4.3c0,1.4,0.9,2.8,2.4,3.6c0.3,0.1,0.4,0.4,0.5,0.7c0.1,0.3,0,0.6-0.2,0.8c-0.9,1.1-1.4,2.5-1.4,3.8
				c0,3.7,3.6,6.7,8.1,6.7c4.4,0,8-3,8-6.7c0-3.1-2.6-5.9-6.3-6.6c-0.3-0.1-0.5-0.2-0.7-0.5c-0.1-0.2-0.2-0.5-0.1-0.8
				C34.9,7.3,35,6.9,35,6.6C35,4.2,32.6,2.3,29.8,2.3z"/>
		</g>
		<g>
			<line fill="#FFAB00" x1="42.9" y1="17.2" x2="47.6" y2="12.4"/>
			<path fill="#37474F" d="M42.9,18.2c-0.3,0-0.5-0.1-0.7-0.3c-0.4-0.4-0.4-1,0-1.4l4.7-4.7c0.4-0.4,1-0.4,1.4,0s0.4,1,0,1.4
				l-4.7,4.7C43.4,18.1,43.2,18.2,42.9,18.2z"/>
		</g>
		<g>
			<line fill="#FFAB00" x1="42.4" y1="12" x2="46.2" y2="8.1"/>
			<path fill="#37474F" d="M42.4,13c-0.3,0-0.5-0.1-0.7-0.3c-0.4-0.4-0.4-1,0-1.4l3.8-3.8c0.4-0.4,1-0.4,1.4,0s0.4,1,0,1.4l-3.8,3.8
				C42.9,12.9,42.6,13,42.4,13z"/>
		</g>
	</g>
</g>
</svg>
