<?xml version="1.0" encoding="utf-8"?>
<!-- Generator: Adobe Illustrator 16.0.0, SVG Export Plug-In . SVG Version: 6.00 Build 0)  -->
<!DOCTYPE svg PUBLIC "-//W3C//DTD SVG 1.1//EN" "http://www.w3.org/Graphics/SVG/1.1/DTD/svg11.dtd">
<svg version="1.1" id="Layer_1" xmlns="http://www.w3.org/2000/svg" xmlns:xlink="http://www.w3.org/1999/xlink" x="0px" y="0px"
	 width="64px" height="64px" viewBox="0 0 64 64" enable-background="new 0 0 64 64" xml:space="preserve">
<g>
	<g>
		<polygon fill="#FFECB3" points="47.3,10.4 8.8,60.8 20.2,60.8 58.7,10.4 		"/>
		<path fill="#37474F" d="M20.2,61.8H8.8c-0.4,0-0.7-0.2-0.9-0.6c-0.2-0.3-0.1-0.7,0.1-1L46.5,9.8c0.2-0.2,0.5-0.4,0.8-0.4h11.4
			c0.4,0,0.7,0.2,0.9,0.6c0.2,0.3,0.1,0.7-0.1,1L21,61.4C20.8,61.7,20.5,61.8,20.2,61.8z M10.9,59.8h8.9l36.9-48.4h-8.9L10.9,59.8z"
			/>
	</g>
	<g>
		<g>
			<polyline fill="#FFAB00" points="1.5,17.7 18.5,3.2 35.5,17.7 			"/>
			<path fill="#37474F" d="M1.5,18.7c-0.3,0-0.6-0.1-0.8-0.4c-0.4-0.4-0.3-1.1,0.1-1.4l17-14.5c0.4-0.3,0.9-0.3,1.3,0l17,14.5
				c0.4,0.4,0.5,1,0.1,1.4c-0.4,0.4-1,0.5-1.4,0.1L18.5,4.5L2.1,18.5C2,18.6,1.7,18.7,1.5,18.7z"/>
		</g>
		<g>
			<polyline fill="#FFECB3" points="18.6,36.2 6.1,36.2 6.1,17.8 			"/>
			<path fill="#37474F" d="M18.6,37.2H6.1c-0.6,0-1-0.4-1-1V17.8c0-0.6,0.4-1,1-1s1,0.4,1,1v17.5h11.5c0.6,0,1,0.4,1,1
				S19.2,37.2,18.6,37.2z"/>
		</g>
		<g>
			<line fill="#FFECB3" x1="30.9" y1="17.8" x2="30.9" y2="23.2"/>
			<path fill="#37474F" d="M30.9,24.2c-0.6,0-1-0.4-1-1v-5.5c0-0.6,0.4-1,1-1s1,0.4,1,1v5.5C31.9,23.8,31.5,24.2,30.9,24.2z"/>
		</g>
		<g>
			<rect x="10.3" y="23.4" fill="#FFECB3" width="7.6" height="12.9"/>
			<path fill="#37474F" d="M17.8,37.2h-7.6c-0.6,0-1-0.4-1-1V23.4c0-0.6,0.4-1,1-1h7.6c0.6,0,1,0.4,1,1v12.9
				C18.8,36.8,18.4,37.2,17.8,37.2z M11.3,35.2h5.6V24.4h-5.6V35.2z"/>
		</g>
		<g>
			<line fill="#FFECB3" x1="24.4" y1="23.4" x2="24.4" y2="29.1"/>
			<path fill="#37474F" d="M24.4,30.1c-0.6,0-1-0.4-1-1v-5.7c0-0.6,0.4-1,1-1s1,0.4,1,1v5.7C25.4,29.7,25,30.1,24.4,30.1z"/>
		</g>
		<g>
			<line fill="#FFECB3" x1="27.3" y1="26.5" x2="21.5" y2="26.5"/>
			<path fill="#37474F" d="M27.3,27.5h-5.7c-0.6,0-1-0.4-1-1s0.4-1,1-1h5.7c0.6,0,1,0.4,1,1S27.8,27.5,27.3,27.5z"/>
		</g>
		<g>
			<polyline fill="#FFECB3" points="6.1,13.2 6.1,4.8 10,4.8 			"/>
			<path fill="#37474F" d="M6.1,14.2c-0.6,0-1-0.4-1-1V4.8c0-0.6,0.4-1,1-1H10c0.6,0,1,0.4,1,1s-0.4,1-1,1H7.1v7.4
				C7.1,13.7,6.7,14.2,6.1,14.2z"/>
		</g>
	</g>
	<g>
		<path fill="#FFECB3" d="M62.5,54.2c0,3.7-3,6.6-6.6,6.6h-4c-3.7,0-6.6-3-6.6-6.6V38.9c0-3.7,3-6.6,6.6-6.6h4c3.7,0,6.6,3,6.6,6.6
			V54.2z"/>
		<path fill="#37474F" d="M55.9,61.8h-4c-4.2,0-7.6-3.4-7.6-7.6V38.9c0-4.2,3.4-7.6,7.6-7.6h4c4.2,0,7.6,3.4,7.6,7.6v15.3
			C63.5,58.4,60.1,61.8,55.9,61.8z M51.9,33.3c-3.1,0-5.6,2.5-5.6,5.6v15.3c0,3.1,2.5,5.6,5.6,5.6h4c3.1,0,5.6-2.5,5.6-5.6V38.9
			c0-3.1-2.5-5.6-5.6-5.6H51.9z"/>
	</g>
	<g>
		<path fill="#FFFFFF" d="M57.7,51.4c0,2.3-1.3,4.2-2.9,4.2H53c-1.6,0-2.9-1.9-2.9-4.2v-9.6c0-2.3,1.3-4.2,2.9-4.2h1.8
			c1.6,0,2.9,1.9,2.9,4.2V51.4z"/>
		<path fill="#37474F" d="M54.7,56.5H53c-2.2,0-3.9-2.3-3.9-5.2v-9.6c0-2.9,1.7-5.2,3.9-5.2h1.8c2.2,0,3.9,2.3,3.9,5.2v9.6
			C58.7,54.3,56.9,56.5,54.7,56.5z M53,38.5c-1,0-1.9,1.5-1.9,3.2v9.6c0,1.7,0.9,3.2,1.9,3.2h1.8c0.9,0,1.9-1.3,1.9-3.2v-9.6
			c0-1.9-1-3.2-1.9-3.2H53z"/>
	</g>
</g>
</svg>
