<?xml version="1.0" encoding="utf-8"?>
<!-- Generator: Adobe Illustrator 16.0.0, SVG Export Plug-In . SVG Version: 6.00 Build 0)  -->
<!DOCTYPE svg PUBLIC "-//W3C//DTD SVG 1.1//EN" "http://www.w3.org/Graphics/SVG/1.1/DTD/svg11.dtd">
<svg version="1.1" id="Layer_1" xmlns="http://www.w3.org/2000/svg" xmlns:xlink="http://www.w3.org/1999/xlink" x="0px" y="0px"
	 width="64px" height="64px" viewBox="0 0 64 64" enable-background="new 0 0 64 64" xml:space="preserve">
<g>
	<g>
		<g>
			<path fill="#FFECB3" d="M15.6,40.1c0,3.4-3.1,6.2-6.9,6.2c-3.8,0-6.9-2.8-6.9-6.2"/>
			<path fill="#37474F" d="M8.7,47.3c-4.4,0-7.9-3.2-7.9-7.2c0-0.6,0.4-1,1-1s1,0.4,1,1c0,2.8,2.7,5.2,5.9,5.2
				c3.3,0,5.9-2.3,5.9-5.2c0-0.6,0.4-1,1-1s1,0.4,1,1C16.6,44.1,13,47.3,8.7,47.3z"/>
		</g>
		<g>
			<path fill="#FFECB3" d="M29.4,40.1c0,3.4-3.1,6.2-6.9,6.2s-6.9-2.8-6.9-6.2"/>
			<path fill="#37474F" d="M22.5,47.3c-4.4,0-7.9-3.2-7.9-7.2c0-0.6,0.4-1,1-1s1,0.4,1,1c0,2.8,2.7,5.2,5.9,5.2s5.9-2.3,5.9-5.2
				c0-0.6,0.4-1,1-1s1,0.4,1,1C30.4,44.1,26.9,47.3,22.5,47.3z"/>
		</g>
		<g>
			<path fill="#FFECB3" d="M43.2,40.1c0,3.4-3.1,6.2-6.9,6.2s-6.9-2.8-6.9-6.2"/>
			<path fill="#37474F" d="M36.3,47.3c-4.4,0-7.9-3.2-7.9-7.2c0-0.6,0.4-1,1-1s1,0.4,1,1c0,2.8,2.7,5.2,5.9,5.2
				c3.3,0,5.9-2.3,5.9-5.2c0-0.6,0.4-1,1-1s1,0.4,1,1C44.2,44.1,40.7,47.3,36.3,47.3z"/>
		</g>
		<g>
			<path fill="#FFECB3" d="M57.1,40.1c0,3.4-3.1,6.2-6.9,6.2c-3.8,0-6.9-2.8-6.9-6.2"/>
			<path fill="#37474F" d="M50.2,47.3c-4.4,0-7.9-3.2-7.9-7.2c0-0.6,0.4-1,1-1s1,0.4,1,1c0,2.8,2.7,5.2,5.9,5.2
				c3.3,0,5.9-2.3,5.9-5.2c0-0.6,0.4-1,1-1s1,0.4,1,1C58.1,44.1,54.5,47.3,50.2,47.3z"/>
		</g>
	</g>
	<g>
		<g>
			<path fill="#FFECB3" d="M34.6,29.1c0,3.4-3.1,6.2-6.9,6.2c-3.8,0-6.7-2.8-6.7-6.2"/>
			<path fill="#37474F" d="M27.7,36.3c-4.3,0-7.7-3.1-7.7-7.2c0-0.6,0.4-1,1-1s1,0.4,1,1c0,2.9,2.5,5.2,5.7,5.2
				c3.3,0,5.9-2.3,5.9-5.2c0-0.6,0.4-1,1-1s1,0.4,1,1C35.6,33.1,32,36.3,27.7,36.3z"/>
		</g>
		<g>
			<path fill="#FFECB3" d="M48.4,29.1c0,3.4-3.1,6.2-6.9,6.2c-3.8,0-6.9-2.8-6.9-6.2"/>
			<path fill="#37474F" d="M41.5,36.3c-4.4,0-7.9-3.2-7.9-7.2c0-0.6,0.4-1,1-1s1,0.4,1,1c0,2.8,2.7,5.2,5.9,5.2
				c3.3,0,5.9-2.3,5.9-5.2c0-0.6,0.4-1,1-1s1,0.4,1,1C49.4,33.1,45.9,36.3,41.5,36.3z"/>
		</g>
		<g>
			<path fill="#FFECB3" d="M62.2,29.1c0,3.4-3.1,6.2-6.9,6.2s-6.9-2.8-6.9-6.2"/>
			<path fill="#37474F" d="M55.3,36.3c-4.4,0-7.9-3.2-7.9-7.2c0-0.6,0.4-1,1-1s1,0.4,1,1c0,2.8,2.7,5.2,5.9,5.2s5.9-2.3,5.9-5.2
				c0-0.6,0.4-1,1-1s1,0.4,1,1C63.2,33.1,59.7,36.3,55.3,36.3z"/>
		</g>
	</g>
	<g>
		<g>
			<path fill="#FFECB3" d="M19.8,51.9c0,3.4-3.1,6.2-6.9,6.2c-3.8,0-6.9-2.8-6.9-6.2"/>
			<path fill="#37474F" d="M12.8,59.1c-4.4,0-7.9-3.2-7.9-7.2c0-0.6,0.4-1,1-1s1,0.4,1,1c0,2.8,2.7,5.2,5.9,5.2
				c3.3,0,5.9-2.3,5.9-5.2c0-0.6,0.4-1,1-1s1,0.4,1,1C20.8,55.9,17.2,59.1,12.8,59.1z"/>
		</g>
		<g>
			<path fill="#FFECB3" d="M33.6,51.9c0,3.4-3.1,6.2-6.9,6.2c-3.8,0-6.9-2.8-6.9-6.2"/>
			<path fill="#37474F" d="M26.7,59.1c-4.4,0-7.9-3.2-7.9-7.2c0-0.6,0.4-1,1-1s1,0.4,1,1c0,2.8,2.7,5.2,5.9,5.2
				c3.3,0,5.9-2.3,5.9-5.2c0-0.6,0.4-1,1-1s1,0.4,1,1C34.6,55.9,31,59.1,26.7,59.1z"/>
		</g>
		<g>
			<path fill="#FFECB3" d="M47.4,51.9c0,3.4-3.1,6.2-6.9,6.2s-6.9-2.8-6.9-6.2"/>
			<path fill="#37474F" d="M40.5,59.1c-4.4,0-7.9-3.2-7.9-7.2c0-0.6,0.4-1,1-1s1,0.4,1,1c0,2.8,2.7,5.2,5.9,5.2s5.9-2.3,5.9-5.2
				c0-0.6,0.4-1,1-1s1,0.4,1,1C48.4,55.9,44.9,59.1,40.5,59.1z"/>
		</g>
		<g>
			<path fill="#FFECB3" d="M61.2,51.9c0,3.4-3.1,6.2-6.9,6.2s-6.9-2.8-6.9-6.2"/>
			<path fill="#37474F" d="M54.3,59.1c-4.4,0-7.9-3.2-7.9-7.2c0-0.6,0.4-1,1-1s1,0.4,1,1c0,2.8,2.7,5.2,5.9,5.2
				c3.3,0,5.9-2.3,5.9-5.2c0-0.6,0.4-1,1-1s1,0.4,1,1C62.2,55.9,58.7,59.1,54.3,59.1z"/>
		</g>
	</g>
	<g>
		<path fill="#FFECB3" d="M10,41V10.9C10,8.1,12.5,6,15.2,6H19"/>
		<path fill="#37474F" d="M10,42c-0.6,0-1-0.4-1-1V10.9C9,7.7,11.9,5,15.2,5H19c0.6,0,1,0.4,1,1s-0.4,1-1,1h-3.8
			C12.9,7,11,8.8,11,10.9V41C11,41.6,10.6,42,10,42z"/>
	</g>
	<g>
		<path fill="#37474F" d="M21,42c-0.6,0-1-0.4-1-1V10.9C20,7.5,22.5,5,25.8,5H30c0.6,0,1,0.4,1,1s-0.4,1-1,1h-4.2
			C23.6,7,22,8.6,22,10.9V41C22,41.6,21.6,42,21,42z"/>
	</g>
	<g>
		<line fill="#FFECB3" x1="11" y1="14" x2="21" y2="14"/>
		<path fill="#37474F" d="M21,15H11c-0.6,0-1-0.4-1-1s0.4-1,1-1h10c0.6,0,1,0.4,1,1S21.6,15,21,15z"/>
	</g>
	<g>
		<line fill="#FFECB3" x1="11" y1="22" x2="21" y2="22"/>
		<path fill="#37474F" d="M21,23H11c-0.6,0-1-0.4-1-1s0.4-1,1-1h10c0.6,0,1,0.4,1,1S21.6,23,21,23z"/>
	</g>
	<g>
		<line fill="#FFECB3" x1="11" y1="30" x2="21" y2="30"/>
		<path fill="#37474F" d="M21,31H11c-0.6,0-1-0.4-1-1s0.4-1,1-1h10c0.6,0,1,0.4,1,1S21.6,31,21,31z"/>
	</g>
	<g>
		<line fill="#FFECB3" x1="11" y1="38" x2="21" y2="38"/>
		<path fill="#37474F" d="M21,39H11c-0.6,0-1-0.4-1-1s0.4-1,1-1h10c0.6,0,1,0.4,1,1S21.6,39,21,39z"/>
	</g>
	<g>
		<line fill="#FFECB3" x1="2" y1="13" x2="7" y2="13"/>
		<path fill="#37474F" d="M7,14H2c-0.6,0-1-0.4-1-1s0.4-1,1-1h5c0.6,0,1,0.4,1,1S7.6,14,7,14z"/>
	</g>
	<g>
		<line fill="#FFECB3" x1="25" y1="13" x2="56" y2="13"/>
		<path fill="#37474F" d="M56,14H25c-0.6,0-1-0.4-1-1s0.4-1,1-1h31c0.6,0,1,0.4,1,1S56.6,14,56,14z"/>
	</g>
</g>
</svg>
