<?xml version="1.0" encoding="utf-8"?>
<!-- Generator: Adobe Illustrator 16.0.0, SVG Export Plug-In . SVG Version: 6.00 Build 0)  -->
<!DOCTYPE svg PUBLIC "-//W3C//DTD SVG 1.1//EN" "http://www.w3.org/Graphics/SVG/1.1/DTD/svg11.dtd">
<svg version="1.1" id="Layer_1" xmlns="http://www.w3.org/2000/svg" xmlns:xlink="http://www.w3.org/1999/xlink" x="0px" y="0px"
	 width="64px" height="64px" viewBox="0 0 64 64" enable-background="new 0 0 64 64" xml:space="preserve">
<g>
	<g>
		<g>
			<polyline fill="#FFAB00" points="2.4,29 23.8,10.8 45.2,29 			"/>
			<path fill="#37474F" d="M45.2,30c-0.2,0-0.5-0.1-0.6-0.2L23.8,12.1L3.1,29.8c-0.4,0.4-1.1,0.3-1.4-0.1s-0.3-1.1,0.1-1.4L23.2,10
				c0.4-0.3,0.9-0.3,1.3,0l21.4,18.2c0.4,0.4,0.5,1,0.1,1.4C45.8,29.9,45.5,30,45.2,30z"/>
		</g>
		<g>
			<polyline fill="#FFECB3" points="39,29 39,52 8,52 8,29 			"/>
			<path fill="#37474F" d="M39,53H8c-0.6,0-1-0.4-1-1V29c0-0.6,0.4-1,1-1s1,0.4,1,1v22h29V29c0-0.6,0.4-1,1-1s1,0.4,1,1v23
				C40,52.6,39.6,53,39,53z"/>
		</g>
		<g>
			<rect x="13" y="36" fill="#FFECB3" width="10" height="16"/>
			<path fill="#37474F" d="M23,53H13c-0.6,0-1-0.4-1-1V36c0-0.6,0.4-1,1-1h10c0.6,0,1,0.4,1,1v16C24,52.6,23.6,53,23,53z M14,51h8
				V37h-8V51z"/>
		</g>
		<g>
			<circle fill="#FFFFFF" cx="31.2" cy="40.1" r="4"/>
			<path fill="#37474F" d="M31.2,45c-2.7,0-5-2.2-5-5s2.2-5,5-5s5,2.2,5,5S33.9,45,31.2,45z M31.2,37.1c-1.6,0-3,1.3-3,3s1.3,3,3,3
				c1.6,0,3-1.3,3-3S32.8,37.1,31.2,37.1z"/>
		</g>
		<g>
			<line fill="#FFECB3" x1="31.2" y1="36.6" x2="31.2" y2="43.6"/>
			<path fill="#37474F" d="M31.2,44.6c-0.6,0-1-0.4-1-1v-7c0-0.6,0.4-1,1-1s1,0.4,1,1v7C32.2,44.2,31.8,44.6,31.2,44.6z"/>
		</g>
		<g>
			<line fill="#FFECB3" x1="35" y1="40" x2="28" y2="40"/>
			<path fill="#37474F" d="M35,41h-7c-0.6,0-1-0.4-1-1s0.4-1,1-1h7c0.6,0,1,0.4,1,1S35.6,41,35,41z"/>
		</g>
		<g>
			<polyline fill="#FFECB3" points="8,23 8,13 13,13 			"/>
			<path fill="#37474F" d="M8,24c-0.6,0-1-0.4-1-1V13c0-0.6,0.4-1,1-1h5c0.6,0,1,0.4,1,1s-0.4,1-1,1H9v9C9,23.6,8.6,24,8,24z"/>
		</g>
	</g>
	<g>
		<line fill="#FFFFFF" x1="3" y1="52" x2="62" y2="52"/>
		<path fill="#37474F" d="M62,53H3c-0.6,0-1-0.4-1-1s0.4-1,1-1h59c0.6,0,1,0.4,1,1S62.6,53,62,53z"/>
	</g>
	<g>
		<polyline fill="#FFFFFF" points="40,36 46,36 46,44 51,44 51,48 54,48 54,27 59,27 59,46 62,46 62,48 		"/>
		<path fill="#37474F" d="M62,49c-0.6,0-1-0.4-1-1v-1h-2c-0.6,0-1-0.4-1-1V28h-3v20c0,0.6-0.4,1-1,1h-3c-0.6,0-1-0.4-1-1v-3h-4
			c-0.6,0-1-0.4-1-1v-7h-5c-0.6,0-1-0.4-1-1s0.4-1,1-1h6c0.6,0,1,0.4,1,1v7h4c0.6,0,1,0.4,1,1v3h1V27c0-0.6,0.4-1,1-1h5
			c0.6,0,1,0.4,1,1v18h2c0.6,0,1,0.4,1,1v2C63,48.6,62.6,49,62,49z"/>
	</g>
	<g>
		<polyline fill="#FFFFFF" points="3,45 4,45 4,41 7,41 		"/>
		<path fill="#37474F" d="M4,46H3c-0.6,0-1-0.4-1-1s0.4-1,1-1v-3c0-0.6,0.4-1,1-1h3c0.6,0,1,0.4,1,1s-0.4,1-1,1H5v3
			C5,45.6,4.6,46,4,46z"/>
	</g>
</g>
</svg>
