<?xml version="1.0" encoding="utf-8"?>
<!-- Generator: Adobe Illustrator 16.0.0, SVG Export Plug-In . SVG Version: 6.00 Build 0)  -->
<!DOCTYPE svg PUBLIC "-//W3C//DTD SVG 1.1//EN" "http://www.w3.org/Graphics/SVG/1.1/DTD/svg11.dtd">
<svg version="1.1" id="Layer_1" xmlns="http://www.w3.org/2000/svg" xmlns:xlink="http://www.w3.org/1999/xlink" x="0px" y="0px"
	 width="24px" height="24px" viewBox="0 0 24 24" enable-background="new 0 0 24 24" xml:space="preserve">
<g>
	<path d="M23.2,1.8H0.8C0.5,1.8,0.3,2,0.3,2.3v2.9c0,0.3,0.2,0.5,0.5,0.5h3.4v1h2.9v1c0,0.3,0.2,0.5,0.5,0.5s0.5-0.2,0.5-0.5v-1H11
		v-1h4.8v8.2v4.9v0.5h-3.8c0.2-0.1,0.4-0.2,0.4-0.5c0-0.1,0-0.2-0.1-0.2l-1.1-4.6l1.2-4.7c0-0.1,0-0.3-0.1-0.4s-0.2-0.2-0.4-0.2H3.5
		c-0.2,0-0.3,0.1-0.4,0.2S3,9.1,3.1,9.2l0.6,2.3H1.8c-0.3,0-0.5,0.2-0.5,0.5v4.4c0,0.3,0.2,0.5,0.5,0.5s0.5-0.2,0.5-0.5v-3.9h1.6
		l0.4,1.4l-1.2,4.7c0,0.1,0,0.3,0.1,0.4c0.1,0.1,0.2,0.1,0.3,0.2H0.8c-0.3,0-0.5,0.2-0.5,0.5v1.9c0,0.3,0.2,0.5,0.5,0.5h22.4
		c0.3,0,0.5-0.2,0.5-0.5v-2.9v-4.9V2.3C23.7,2,23.5,1.8,23.2,1.8z M11.3,9.6l-0.9,3.9H5.1L4.2,9.6H11.3z M11,4.7H4.2H1.3V2.8h21.4
		v10.7h-5.8V6.7h3.9c0,0.3,0.2,0.5,0.5,0.5c0.3,0,0.5-0.2,0.5-0.5V6.2c0-0.3-0.2-0.5-0.5-0.5h-4.4V5.2c0-0.3-0.2-0.5-0.5-0.5H11z
		 M22.7,18.3h-5.8v-3.9h5.8V18.3z M7.2,20.3h1.9v0.9H7.2V20.3z M10.1,20.3H12v0.9h-1.9V20.3z M1.3,20.3h4.8v0.9H1.3V20.3z M13,21.2
		v-0.9h3.4c0.3,0,0.5-0.2,0.5-0.5v-0.5h5.8v1.9H13z"/>
	<path d="M5.9,12.4L5.9,12.4c0.4,0,0.8-0.4,0.8-0.8c0-0.4-0.3-0.8-0.8-0.8c-0.4,0-0.8,0.3-0.8,0.7c0,0.2,0.1,0.4,0.2,0.5
		C5.5,12.3,5.7,12.4,5.9,12.4z"/>
	<path d="M7.7,12.4c0.2,0,0.4-0.1,0.5-0.2c0.1-0.1,0.2-0.3,0.2-0.5c0-0.4-0.3-0.8-0.8-0.8c-0.4,0-0.8,0.3-0.8,0.8
		C7,12,7.3,12.4,7.7,12.4z"/>
	<path d="M9.5,12.4c0.4,0,0.8-0.3,0.8-0.8c0-0.4-0.3-0.8-0.8-0.8c-0.4,0-0.8,0.3-0.8,0.8C8.8,12,9.1,12.4,9.5,12.4z"/>
	<path d="M20,8.3h-1.2c-0.3,0-0.5,0.2-0.5,0.5s0.2,0.5,0.5,0.5h0.5l0.2,0.2V10c0,0.3,0.2,0.5,0.5,0.5s0.5-0.2,0.5-0.5V8.8
		C20.5,8.5,20.3,8.3,20,8.3z"/>
	<path d="M20,11h-1.2c-0.3,0-0.5,0.2-0.5,0.5s0.2,0.5,0.5,0.5h0.5l0.2,0.2v0.5c0,0.3,0.2,0.5,0.5,0.5s0.5-0.2,0.5-0.5v-1.2
		C20.5,11.2,20.3,11,20,11z"/>
	<path d="M18.3,17.8c0.3,0,0.5-0.2,0.5-0.5v-1.9c0-0.3-0.2-0.5-0.5-0.5s-0.5,0.2-0.5,0.5v1.9C17.8,17.6,18,17.8,18.3,17.8z"/>
	<path d="M20.3,17.8c0.3,0,0.5-0.2,0.5-0.5v-1.9c0-0.3-0.2-0.5-0.5-0.5s-0.5,0.2-0.5,0.5v1.9C19.8,17.6,20,17.8,20.3,17.8z"/>
</g>
</svg>
