<?xml version="1.0" encoding="utf-8"?>
<!-- Generator: Adobe Illustrator 16.0.0, SVG Export Plug-In . SVG Version: 6.00 Build 0)  -->
<!DOCTYPE svg PUBLIC "-//W3C//DTD SVG 1.1//EN" "http://www.w3.org/Graphics/SVG/1.1/DTD/svg11.dtd">
<svg version="1.1" id="Layer_1" xmlns="http://www.w3.org/2000/svg" xmlns:xlink="http://www.w3.org/1999/xlink" x="0px" y="0px"
	 width="64px" height="64px" viewBox="0 0 64 64" enable-background="new 0 0 64 64" xml:space="preserve">
<g>
	<g>
		<g>
			<path fill="#FFAB00" d="M50.7,8.6c0-2.7-2.8-4.9-6.4-4.9c-2,0-3.7,0.7-4.9,1.7c-1.2-1-2.9-1.7-4.9-1.7c-3.6,0-6.3,2.2-6.3,4.9
				c0,1.2,0.7,2.3,1.7,3.1v14h19v-14C50,10.9,50.7,9.8,50.7,8.6z"/>
			<path fill="#37474F" d="M49,26.7H30c-0.6,0-1-0.4-1-1V12.2c-1.1-1.1-1.7-2.3-1.7-3.6c0-3.3,3.2-5.9,7.3-5.9
				c1.8,0,3.5,0.5,4.9,1.4c1.3-0.9,3-1.4,4.9-1.4c4.1,0,7.4,2.6,7.4,5.9c0,1.3-0.6,2.5-1.7,3.6v13.5C50,26.2,49.6,26.7,49,26.7z
				 M31,24.7h17v-13c0-0.3,0.1-0.6,0.4-0.8c0.6-0.5,1.3-1.4,1.3-2.4c0-2.1-2.4-3.9-5.4-3.9c-1.6,0-3.1,0.5-4.2,1.5
				c-0.4,0.3-0.9,0.3-1.3,0c-1.1-0.9-2.6-1.5-4.2-1.5c-3,0-5.3,1.7-5.3,3.9c0,1,0.7,1.8,1.4,2.4c0.2,0.2,0.4,0.5,0.4,0.8V24.7z"/>
		</g>
	</g>
	<g>
		<g>
			<rect x="11" y="56.7" fill="#B0BEC5" width="5" height="5"/>
			<path fill="#37474F" d="M16,62.7h-5c-0.6,0-1-0.4-1-1v-5c0-0.6,0.4-1,1-1h5c0.6,0,1,0.4,1,1v5C17,62.2,16.6,62.7,16,62.7z
				 M12,60.7h3v-3h-3V60.7z"/>
		</g>
		<g>
			<rect x="46" y="56.7" fill="#B0BEC5" width="5" height="5"/>
			<path fill="#37474F" d="M51,62.7h-5c-0.6,0-1-0.4-1-1v-5c0-0.6,0.4-1,1-1h5c0.6,0,1,0.4,1,1v5C52,62.2,51.6,62.7,51,62.7z
				 M47,60.7h3v-3h-3V60.7z"/>
		</g>
	</g>
	<g>
		<polygon fill="#FFFFFF" points="58.7,57.7 3.6,57.7 11.5,24.7 50.9,24.7 		"/>
		<path fill="#37474F" d="M58.7,58.7C58.7,58.7,58.7,58.7,58.7,58.7H3.6c-0.3,0-0.6-0.1-0.8-0.4c-0.2-0.2-0.3-0.6-0.2-0.9l7.8-33
			c0.1-0.5,0.5-0.8,1-0.8h39.4c0.5,0,0.9,0.3,1,0.8l7.8,32.8c0.1,0.1,0.1,0.3,0.1,0.4C59.7,58.2,59.3,58.7,58.7,58.7z M4.9,56.7
			h52.6l-7.4-31H12.3L4.9,56.7z"/>
	</g>
	<g>
		<g>
			<path fill="#FFECB3" d="M44.1,8.5c0-3.4-3.6-6.2-8.2-6.2c-2.5,0-4.7,0.9-6.2,2.2c-1.5-1.3-3.7-2.2-6.2-2.2
				c-4.5,0-8.4,2.8-8.4,6.2c0,1.5,0.8,2.9,1.8,4v17.2h25V12.5C44,11.4,44.1,10,44.1,8.5z"/>
			<path fill="#37474F" d="M42,30.7H17c-0.6,0-1-0.4-1-1V12.9c-1.2-1.4-1.8-2.9-1.8-4.4c0-4,4.2-7.2,9.4-7.2c2.3,0,4.5,0.7,6.2,1.9
				C31.5,2,33.7,1.3,36,1.3c5.1,0,9.2,3.2,9.2,7.2c0,1.6-0.2,3.3-2.1,4.6v16.6C43,30.2,42.6,30.7,42,30.7z M18,28.7h23V12.5
				c0-0.4,0.2-0.7,0.5-0.9c1.5-0.8,1.6-1.7,1.6-3.1c0-2.9-3.2-5.2-7.2-5.2c-2.2,0-4.1,0.7-5.6,1.9c-0.4,0.3-0.9,0.3-1.3,0
				c-1.4-1.2-3.4-1.9-5.6-1.9c-4,0-7.4,2.4-7.4,5.2c0,1.1,0.5,2.2,1.6,3.3c0.2,0.2,0.3,0.4,0.3,0.7V28.7z"/>
		</g>
	</g>
	<g>
		<polyline fill="#FFAB00" points="15,29.7 47,29.7 47,33.7 		"/>
		<path fill="#37474F" d="M47,34.7c-0.6,0-1-0.4-1-1v-3H15c-0.6,0-1-0.4-1-1s0.4-1,1-1h32c0.6,0,1,0.4,1,1v4
			C48,34.2,47.6,34.7,47,34.7z"/>
	</g>
	<g>
		<rect x="3" y="55.7" fill="#78909C" width="56" height="3"/>
		<path fill="#37474F" d="M60,59.7H2v-5h58V59.7z M4,57.7h54v-1H4V57.7z"/>
	</g>
	<g>
		<g>
			<path fill="#37474F" d="M35.3,41.7c0-0.4,0.3-0.7,0.7-0.7c0.4,0,0.7,0.3,0.7,0.7c0,0.4-0.3,0.7-0.7,0.7
				C35.6,42.4,35.3,42.1,35.3,41.7z"/>
			<path fill="#37474F" d="M36,42.9c-0.6,0-1.2-0.5-1.2-1.2c0-0.7,0.5-1.2,1.2-1.2c0.3,0,0.6,0.1,0.9,0.4c0.2,0.2,0.3,0.5,0.3,0.8
				C37.2,42.4,36.7,42.9,36,42.9z M36,41.5c-0.1,0-0.2,0.1-0.2,0.2c0,0.1,0.1,0.2,0.2,0.2c0.1,0,0.2-0.1,0.2-0.2c0-0.1,0-0.1,0-0.1
				C36.1,41.5,36.1,41.5,36,41.5z"/>
		</g>
		<g>
			<path fill="#37474F" d="M30.5,41.7c0-0.4,0.3-0.7,0.7-0.7c0.4,0,0.7,0.3,0.7,0.7c0,0.4-0.3,0.7-0.7,0.7
				C30.8,42.4,30.5,42.1,30.5,41.7z"/>
			<path fill="#37474F" d="M31.2,42.9c-0.7,0-1.2-0.5-1.2-1.2c0-0.3,0.1-0.6,0.3-0.8c0.2-0.2,0.5-0.4,0.9-0.4c0.7,0,1.2,0.5,1.2,1.2
				C32.4,42.4,31.8,42.9,31.2,42.9z M31.2,41.5c-0.1,0-0.1,0-0.1,0.1c0,0,0,0.1,0,0.1c0,0.1,0.1,0.2,0.2,0.2c0.1,0,0.2-0.1,0.2-0.2
				C31.4,41.6,31.3,41.5,31.2,41.5z"/>
		</g>
		<g>
			<path fill="#37474F" d="M25.6,41.7c0-0.4,0.3-0.7,0.7-0.7c0.4,0,0.7,0.3,0.7,0.7c0,0.4-0.3,0.7-0.7,0.7
				C26,42.4,25.6,42.1,25.6,41.7z"/>
			<path fill="#37474F" d="M26.3,42.9c-0.6,0-1.2-0.5-1.2-1.2c0-0.7,0.5-1.2,1.2-1.2c0.7,0,1.2,0.5,1.2,1.2
				C27.5,42.4,27,42.9,26.3,42.9z M26.3,41.5c-0.1,0-0.2,0.1-0.2,0.2c0,0.1,0.1,0.2,0.2,0.2c0.1,0,0.2-0.1,0.2-0.2
				C26.5,41.6,26.5,41.5,26.3,41.5z"/>
		</g>
	</g>
	<g>
		<path fill="#FFAB00" d="M21.7,41.4c0,2.3-1.8,4.1-4.1,4.1s-4.1-1.8-4.1-4.1c0-2.3,1.8-4.1,4.1-4.1S21.7,39.2,21.7,41.4z"/>
		<path fill="#37474F" d="M17.6,46.5c-2.8,0-5.1-2.3-5.1-5.1c0-2.8,2.3-5.1,5.1-5.1c2.8,0,5.1,2.3,5.1,5.1
			C22.7,44.2,20.5,46.5,17.6,46.5z M17.6,38.3c-1.7,0-3.1,1.4-3.1,3.1c0,1.7,1.4,3.1,3.1,3.1c1.7,0,3.1-1.4,3.1-3.1
			C20.7,39.7,19.4,38.3,17.6,38.3z"/>
	</g>
	<g>
		<line fill="#FFECB3" x1="54" y1="37.7" x2="58" y2="37.7"/>
		<path fill="#37474F" d="M58,38.7h-4c-0.6,0-1-0.4-1-1s0.4-1,1-1h4c0.6,0,1,0.4,1,1S58.6,38.7,58,38.7z"/>
	</g>
	<g>
		<rect x="58" y="33.7" fill="#FFECB3" width="3" height="8"/>
		<path fill="#37474F" d="M61,42.7h-3c-0.6,0-1-0.4-1-1v-8c0-0.6,0.4-1,1-1h3c0.6,0,1,0.4,1,1v8C62,42.2,61.6,42.7,61,42.7z
			 M59,40.7h1v-6h-1V40.7z"/>
	</g>
</g>
</svg>
