<?xml version="1.0" encoding="iso-8859-1"?>
<!-- Generator: Adobe Illustrator 17.1.0, SVG Export Plug-In . SVG Version: 6.00 Build 0)  -->
<!DOCTYPE svg PUBLIC "-//W3C//DTD SVG 1.1//EN" "http://www.w3.org/Graphics/SVG/1.1/DTD/svg11.dtd">
<svg version="1.1" xmlns="http://www.w3.org/2000/svg" xmlns:xlink="http://www.w3.org/1999/xlink" x="0px" y="0px"
	 viewBox="0 0 1009.994 1009.976" style="enable-background:new 0 0 1009.994 1009.976;" xml:space="preserve">
<g id="screen">
	<path id="label_28_" style="fill:#EFEFEF;" d="M504.988,1009.976c278.901,0,505.006-226.105,505.006-504.988
		C1009.994,226.092,783.89,0,504.988,0C226.093,0,0,226.092,0,504.988C0,783.871,226.093,1009.976,504.988,1009.976z"/>
	<g id="icon_30_">
		<g>
			<path style="fill:#434A54;" d="M427.787,704.367l-7.263,15.567c0,0,0.747,4.544,3.772,4.544c3.013,0,171.409,0,174.423,0
				c3.062,0,3.062-4.544,3.062-4.544l-7.276-15.567H427.787z"/>
			<rect x="427.309" y="671.308" style="fill:#434A54;" width="166.854" height="29.249"/>
			<path style="fill:#434A54;" d="M762.847,285.497H247.172c-8.365,0-15.188,6.822-15.188,15.176v346.433
				c0,9.358,6.822,17.05,15.188,17.05h515.675c8.354,0,15.163-7.692,15.163-17.05V300.673
				C778.01,292.319,771.2,285.497,762.847,285.497z M746.287,596.422H262.471V323.234h483.816V596.422z"/>
		</g>
		<g>
			<path style="fill:#1CABEA;" d="M515.117,508.895c5.751,5.707,5.751,14.992,0,20.687c-5.707,5.769-15.004,5.769-20.736,0
				c-5.683-5.696-5.683-14.98,0.073-20.687C500.113,503.138,509.41,503.138,515.117,508.895z"/>
			<path style="fill:#1CABEA;" d="M531.034,497.467c-14.386-14.417-37.719-14.417-52.123,0l0,0c-4.115,4.115-10.791,4.115-14.906,0
				l0,0c-4.152-4.116-4.152-10.791,0-14.906l0,0c22.623-22.61,59.337-22.61,81.948,0l0,0c4.14,4.103,4.14,10.803,0,14.906l0,0
				C541.861,501.582,535.149,501.582,531.034,497.467L531.034,497.467z"/>
			<path style="fill:#1CABEA;" d="M558.396,470.165c-29.567-29.445-77.244-29.445-106.811,0l0,0c-4.103,4.066-10.79,4.066-14.857,0
				l0,0c-4.164-4.14-4.164-10.803,0-14.943l0,0c37.688-37.725,98.79-37.725,136.564,0l0,0c4.091,4.14,4.091,10.803,0,14.943l0,0
				C569.176,474.232,562.488,474.232,558.396,470.165L558.396,470.165z"/>
			<path style="fill:#1CABEA;" d="M585.711,442.827c-44.658-44.51-116.794-44.51-161.439,0l0,0c-4.103,4.091-10.803,4.091-14.906,0
				l0,0c-4.104-4.115-4.104-10.766-0.024-14.931l0,0c52.852-52.803,138.474-52.803,191.239,0l0,0c4.165,4.164,4.165,10.815,0,14.931
				l0,0C596.465,446.918,589.826,446.918,585.711,442.827L585.711,442.827z"/>
		</g>
	</g>
</g>
<g id="Layer_1">
</g>
</svg>
