<?xml version="1.0" encoding="iso-8859-1"?>
<!-- Generator: Adobe Illustrator 17.1.0, SVG Export Plug-In . SVG Version: 6.00 Build 0)  -->
<!DOCTYPE svg PUBLIC "-//W3C//DTD SVG 1.1//EN" "http://www.w3.org/Graphics/SVG/1.1/DTD/svg11.dtd">
<svg version="1.1" xmlns="http://www.w3.org/2000/svg" xmlns:xlink="http://www.w3.org/1999/xlink" x="0px" y="0px"
	 viewBox="0 0 1009.976 1009.963" style="enable-background:new 0 0 1009.976 1009.963;" xml:space="preserve">
<g id="tablet-touch-screen">
	<path id="label_8_" style="fill:#EFEFEF;" d="M504.988,0C226.092,0,0,226.092,0,504.987c0,278.883,226.092,504.975,504.988,504.975
		s504.988-226.093,504.988-504.975C1009.976,226.092,783.883,0,504.988,0z"/>
	<g id="icon_10_">
		<g>
			<path style="fill:#1CABEA;" d="M181.594,477.637c0.943-41.706,18.079-80.557,48.246-109.378
				c4.299-4.115,4.446-10.925,0.355-15.212c-0.515-0.539-1.065-1.004-1.653-1.396c-4.128-2.842-9.787-2.523-13.535,1.066
				c-34.32,32.789-53.795,77.005-54.885,124.431c-1.078,47.475,16.376,92.487,49.178,126.807c4.115,4.324,10.876,4.458,15.188,0.355
				c4.263-4.091,4.434-10.889,0.343-15.188C195.986,558.966,180.639,519.367,181.594,477.637z"/>
			<path style="fill:#1CABEA;" d="M292.099,417.852c-0.527-0.526-1.078-1.029-1.666-1.433c-4.091-2.829-9.762-2.511-13.522,1.066
				c-35.116,33.573-36.377,89.438-2.816,124.553c4.091,4.312,10.889,4.471,15.188,0.356c4.275-4.091,4.434-10.889,0.343-15.176
				c-25.391-26.554-24.423-68.812,2.132-94.19C296.043,428.937,296.178,422.152,292.099,417.852z"/>
			<path style="fill:#1CABEA;" d="M225.051,478.629c0.674-30.119,13.032-58.168,34.822-78.978
				c4.274-4.079,4.458-10.876,0.355-15.175c-0.515-0.551-1.09-1.017-1.666-1.433c-4.104-2.842-9.774-2.487-13.522,1.078
				c-25.942,24.79-40.652,58.155-41.473,94.018c-0.809,35.863,12.383,69.877,37.149,95.807c4.103,4.299,10.889,4.446,15.187,0.343
				c4.275-4.091,4.446-10.901,0.343-15.188C235.438,537.311,224.353,508.76,225.051,478.629z"/>
			<path style="fill:#1CABEA;" d="M764.947,384.133c-3.735-3.577-9.406-3.932-13.51-1.09c-0.6,0.417-1.151,0.894-1.69,1.433
				c-4.091,4.299-3.919,11.097,0.356,15.175c21.79,20.81,34.161,48.859,34.847,78.978c0.686,30.131-10.398,58.682-31.209,80.459
				c-4.091,4.299-3.932,11.109,0.343,15.2c4.287,4.091,11.073,3.957,15.189-0.343c24.778-25.93,37.97-59.943,37.148-95.807
				C805.612,442.276,790.876,408.911,764.947,384.133z"/>
			<path style="fill:#1CABEA;" d="M794.98,352.716c-3.736-3.589-9.406-3.907-13.534-1.066c-0.588,0.392-1.151,0.858-1.653,1.396
				c-4.079,4.287-3.932,11.097,0.343,15.212c30.192,28.821,47.303,67.672,48.259,109.378c0.967,41.73-14.404,81.317-43.237,111.473
				c-4.102,4.312-3.919,11.109,0.356,15.2c4.286,4.091,11.085,3.968,15.176-0.355c32.801-34.32,50.267-79.333,49.165-126.807
				C848.775,429.721,829.312,385.505,794.98,352.716z"/>
			<path style="fill:#1CABEA;" d="M733.077,417.485c-3.748-3.577-9.431-3.895-13.534-1.066c-0.576,0.404-1.127,0.907-1.653,1.433
				c-4.091,4.299-3.944,11.085,0.33,15.176c26.579,25.378,27.523,67.636,2.144,94.19c-4.078,4.287-3.932,11.085,0.355,15.176
				c4.287,4.115,11.085,3.956,15.188-0.356C769.466,506.923,768.193,451.058,733.077,417.485z"/>
		</g>
		<path style="fill:#434A54;" d="M604.739,626.981v14.637H369.19V368.357h235.549v110.468c2.939-1.935,5.401-3.111,6.54-3.577
			c6.431-4.998,12.09-6.872,17.014-7.006V344.803c0-12.652-10.362-23.039-23.052-23.039H368.664
			c-12.677,0-23.027,10.387-23.027,23.039v320.356c0,12.653,10.35,23.027,23.027,23.027h236.577
			c12.69,0,23.052-10.374,23.052-23.027V625.83c-3.553,0.82-7.215,1.335-10.926,1.151H604.739z M486.444,329.285
			c3.368,0,6.112,2.707,6.112,6.087c0,3.381-2.744,6.125-6.112,6.125c-3.381,0-6.112-2.744-6.112-6.125
			C480.332,331.992,483.063,329.285,486.444,329.285z M504.767,668.209c0,1.862-1.494,3.344-3.344,3.344h-26.811
			c-1.837,0-3.356-1.482-3.356-3.344v-1.678c0-1.85,1.519-3.344,3.356-3.344h26.811c1.85,0,3.344,1.494,3.344,3.344V668.209z"/>
		<path style="fill:#434A54;" d="M638.985,481.152c-2.634-2.609-6.038-5.01-10.692-4.814c-2.413,0.123-5.193,0.919-8.415,2.842
			l6.626,6.651c0.771,0.771,0.771,2.033-0.024,2.817c-0.796,0.796-2.033,0.809-2.829,0.013l-7.153-7.153
			c-0.196,0.171-0.416,0.318-0.637,0.477l-0.551,0.429l-0.649,0.245c-0.037,0.012-4.789,1.886-9.921,6.492
			c-0.478,0.453-0.931,0.747-1.396,1.237c-1.2,1.188-2.278,2.462-3.319,3.834l4.716,4.716l2.302,2.302
			c0.797,0.784,0.809,2.046,0.013,2.83c-0.637,0.637-1.556,0.637-2.314,0.233c-0.159-0.098-0.404-0.086-0.539-0.208l-6.614-6.639
			l-0.981,0.368c-3.833,1.544-7.998,4.458-11.954,8.439c-1.69,1.69-3.013,3.246-3.932,4.348l6.283,6.284
			c0.784,0.759,0.796,2.07,0,2.853c-0.759,0.772-2.069,0.772-2.816,0l-6.161-6.161l-0.711,0.196
			c-0.024,0.049-5.585,1.874-11.329,7.594c-1.923,1.923-3.699,4.103-5.23,6.442l-2.743,4.226l-47.512-47.523
			c-4.495-4.495-11.746-4.495-16.241-0.025l-3.16,3.172c-4.471,4.471-4.483,11.746,0,16.241l84.819,84.93h-44.828
			c-3.087-0.024-5.965,1.2-8.158,3.356c-2.155,2.168-3.356,5.046-3.331,8.121l-0.024,7.067c0,6.32,5.169,11.477,11.488,11.477
			h73.675h12.799c3.724,0.172,7.312-0.429,10.755-1.433c5.143-1.506,9.933-4.103,13.742-7.937l39.918-39.893
			c12.542-12.543,12.518-32.948-0.013-45.49L638.985,481.152z"/>
		<path style="fill:#434A54;" d="M484.533,474.771c9.823-9.823,25.844-9.823,35.691,0.037l10.461,10.423
			c-0.735-8.733-4.41-17.331-11.109-23.995c-14.955-14.979-39.256-14.979-54.248,0c-14.943,14.967-14.931,39.244,0.037,54.211
			c7.961,7.961,18.52,11.636,28.955,11.134l-12.947-12.959c-9.823-9.811-9.835-25.832,0-35.68L484.533,474.771z"/>
		<path style="fill:#434A54;" d="M556.688,511.259c3.136-3.062,6.21-5.328,8.929-6.933c5.206-24.093-1.506-50.28-20.173-68.958
			c-29.2-29.188-76.736-29.188-105.948,0c-29.163,29.176-29.163,76.712,0.024,105.924c22.807,22.794,56.772,27.779,84.465,14.992
			l-13.632-13.657c-19.867,6.491-42.576,1.923-58.327-13.829c-22.316-22.316-22.316-58.608-0.012-80.913
			c22.316-22.304,58.621-22.304,80.913-0.012c14.796,14.784,19.695,35.655,14.943,54.579L556.688,511.259z"/>
	</g>
</g>
<g id="Layer_1">
</g>
</svg>
