<?xml version="1.0" encoding="iso-8859-1"?>
<!-- Generator: Adobe Illustrator 17.1.0, SVG Export Plug-In . SVG Version: 6.00 Build 0)  -->
<!DOCTYPE svg PUBLIC "-//W3C//DTD SVG 1.1//EN" "http://www.w3.org/Graphics/SVG/1.1/DTD/svg11.dtd">
<svg version="1.1" xmlns="http://www.w3.org/2000/svg" xmlns:xlink="http://www.w3.org/1999/xlink" x="0px" y="0px"
	 viewBox="0 0 1009.994 1009.988" style="enable-background:new 0 0 1009.994 1009.988;" xml:space="preserve">
<g id="usb-stick">
	<path id="label_21_" style="fill:#EFEFEF;" d="M504.988,0C226.105,0,0,226.093,0,505c0,278.883,226.105,504.988,504.988,504.988
		c278.901,0,505.006-226.105,505.006-504.988C1009.994,226.093,783.89,0,504.988,0z"/>
	<g id="icon_23_">
		<g>
			<path style="fill:#434A54;" d="M423.818,778.745c0,4.647,3.809,8.445,8.451,8.445h160.104c4.654,0,8.451-3.798,8.451-8.445
				v-91.998H423.818V778.745z M533.925,727.975c0-5.414,4.409-9.78,9.799-9.78h12.616c5.438,0,9.798,4.366,9.798,9.78v21.888
				c0,5.432-4.36,9.83-9.798,9.83h-12.616c-5.39,0-9.799-4.398-9.799-9.83V727.975z M458.517,727.975c0-5.414,4.373-9.78,9.775-9.78
				h12.604c5.426,0,9.835,4.366,9.835,9.78v21.888c0,5.432-4.41,9.83-9.835,9.83h-12.604c-5.401,0-9.775-4.398-9.775-9.83V727.975z"
				/>
			<path style="fill:#434A54;" d="M637.056,659.195v-313.65c0-6.54-5.34-11.905-11.905-11.905H399.493
				c-6.529,0-11.881,5.365-11.881,11.905v313.65c0,6.547,5.353,11.899,11.881,11.899H625.15
				C631.716,671.094,637.056,665.742,637.056,659.195z M590.929,530.985c0,1.544-0.858,3.215-2.132,4.128
				c-1.298,0.949-2.719,1.262-4.14,1.262c-0.049,0-0.073,0-0.122,0l-14.208-0.037l-0.073,21.968
				c-0.074,26.364-21.484,47.646-47.794,47.646c0,0-0.073,0-0.22,0l-26.524-0.08c-26.371-0.067-47.67-21.453-47.67-47.799
				c0,0,0-0.061,0-0.159l0.098-40.579l-8.06-0.037c-3.503-0.024-6.345-2.829-6.345-6.369l0,0c0-0.037,0-0.098,0-0.135l0.123-36.794
				c0-3.142,2.266-5.763,5.267-6.283l0.171-0.098h0.87c0.061,0,0.122,0,0.171,0l36.807,0.123c3.576,0,6.369,2.915,6.394,6.4
				l-0.135,36.922c0,3.528-2.878,6.394-6.393,6.351l-7.288-0.018l-0.134,40.677c0,7.245,2.89,13.731,7.606,18.502
				c4.802,4.789,11.293,7.747,18.581,7.747l4.471,0.018l0.404-131.945c-9.774-4.226-16.634-13.951-16.634-25.262
				c0,0,0-0.043,0-0.067c0,0,0,0,0-0.024c0-0.018,0-0.018,0-0.037l0,0c0.061-15.096,12.285-27.289,27.339-27.381l0,0h0.159
				c0.073,0,0.073,0,0.073,0l0,0c15.084,0.049,27.234,12.169,27.43,27.179v0.019v0.392c-0.049,11.336-6.957,21.073-16.779,25.238
				l-0.441,131.97h0.612h0.024c7.275,0,13.719-2.884,18.52-7.637c4.777-4.771,7.717-11.256,7.766-18.568l0.049-21.968l-14.894-0.018
				c-1.396,0-2.842-0.312-4.14-1.274c-1.323-0.913-2.181-2.664-2.132-4.263c0-1.519,0.563-2.841,1.348-3.956l24.815-35.728
				c1.225-1.831,3.307-3.135,5.609-3.135c2.327,0,4.385,1.365,5.634,3.178l24.57,35.888c0.76,1.133,1.348,2.413,1.348,3.926
				C590.929,530.905,590.929,530.942,590.929,530.985z"/>
		</g>
		<path style="fill:#1CABEA;" d="M675.834,354.719c-0.514,0.165-1.053,0.306-1.592,0.386c-4.41,0.582-8.477-2.492-9.064-6.853
			c-3.601-27.044-28.759-46.14-56.048-42.533c-4.385,0.564-8.452-2.474-9.04-6.871c-0.588-4.36,2.499-8.36,6.934-8.941
			c36.059-4.746,69.325,20.504,74.151,56.245C681.664,349.985,679.361,353.525,675.834,354.719z M715.445,341.668
			c-3.552-26.408-17.246-49.857-38.582-66.068c-21.361-16.168-47.768-23.162-74.396-19.652c-4.41,0.569-7.521,4.599-6.957,8.935
			c0.612,4.342,4.654,7.459,9.063,6.859c22.365-2.921,44.535,2.921,62.491,16.536c17.956,13.608,29.47,33.297,32.409,55.473
			c0.588,4.36,4.63,7.46,9.064,6.859c0.515-0.08,1.078-0.22,1.593-0.374C713.657,349.023,715.935,345.465,715.445,341.668z
			 M747.732,337.4c-4.703-34.914-22.855-65.97-51.076-87.404c-28.269-21.429-63.25-30.676-98.501-26.04
			c-4.435,0.582-7.496,4.575-6.908,8.954c0.588,4.366,4.63,7.422,9.039,6.853c31.013-4.091,61.731,4.079,86.571,22.911
			c24.84,18.826,40.763,46.128,44.902,76.834c0.588,4.354,4.631,7.435,9.04,6.853c0.563-0.061,1.102-0.171,1.592-0.374
			C745.92,344.767,748.223,341.215,747.732,337.4z"/>
	</g>
</g>
<g id="Layer_1">
</g>
</svg>
