<?xml version="1.0" encoding="iso-8859-1"?>
<!-- Generator: Adobe Illustrator 17.1.0, SVG Export Plug-In . SVG Version: 6.00 Build 0)  -->
<!DOCTYPE svg PUBLIC "-//W3C//DTD SVG 1.1//EN" "http://www.w3.org/Graphics/SVG/1.1/DTD/svg11.dtd">
<svg version="1.1" xmlns="http://www.w3.org/2000/svg" xmlns:xlink="http://www.w3.org/1999/xlink" x="0px" y="0px"
	 viewBox="0 0 1009.976 1009.976" style="enable-background:new 0 0 1009.976 1009.976;" xml:space="preserve">
<g id="wifi-signal-2">
	<circle id="label" style="fill:#EFEFEF;" cx="504.988" cy="504.988" r="504.988"/>
	<g id="icon_1_">
		<g>
			<path style="fill:#1CABEA;" d="M430.187,699.063c-0.11-65.884-53.427-119.177-119.274-119.274l0,0
				c-14.024,0-25.403-11.391-25.415-25.428l0,0c0.012-14.024,11.391-25.391,25.403-25.391l0,0
				c93.97,0,170.081,76.136,170.118,170.093l0,0c0,14.013-11.392,25.378-25.44,25.378l0,0
				C441.566,724.441,430.187,713.063,430.187,699.063L430.187,699.063z"/>
		</g>
		<g>
			<path style="fill:#1CABEA;" d="M551.923,699.063c0-66.656-26.946-126.746-70.587-170.424l0,0
				c-43.727-43.69-103.78-70.624-170.436-70.624l0,0c-14.012,0.012-25.391-11.354-25.391-25.378l0,0
				c0-14.061,11.379-25.415,25.415-25.415l0,0c161.164,0.012,291.817,130.653,291.817,291.842l0,0
				c-0.012,14-11.366,25.392-25.428,25.378l0,0C563.29,724.441,551.936,713.076,551.923,699.063L551.923,699.063z"/>
		</g>
		<g>
			<path style="fill:#1CABEA;" d="M673.672,699.063c0-100.265-40.566-190.78-106.255-256.518l0,0
				c-65.725-65.7-156.276-106.23-256.518-106.254l0,0c-14.012,0-25.403-11.391-25.391-25.44l0,0c0-14,11.379-25.378,25.415-25.366
				l0,0c228.432-0.012,413.553,185.146,413.553,413.578l0,0c0,14.013-11.342,25.392-25.402,25.403l0,0
				C685.076,724.466,673.672,713.063,673.672,699.063L673.672,699.063z"/>
		</g>
		<path style="fill:#1CABEA;" d="M372.044,681.462c0,23.774-19.242,43.016-42.992,43.016c-23.75,0.013-43.004-19.254-43.016-43.016
			c0.012-23.725,19.267-43.004,43.016-43.004C352.802,638.458,372.044,657.75,372.044,681.462z"/>
	</g>
</g>
<g id="Layer_1">
</g>
</svg>
