<?xml version="1.0" encoding="utf-8"?>
<!-- Generator: Adobe Illustrator 16.0.0, SVG Export Plug-In . SVG Version: 6.00 Build 0)  -->
<!DOCTYPE svg PUBLIC "-//W3C//DTD SVG 1.1//EN" "http://www.w3.org/Graphics/SVG/1.1/DTD/svg11.dtd">
<svg version="1.1" id="Layer_1" xmlns="http://www.w3.org/2000/svg" xmlns:xlink="http://www.w3.org/1999/xlink" x="0px" y="0px"
	 width="32px" height="32px" viewBox="0 0 32 32" enable-background="new 0 0 32 32" xml:space="preserve">
<g>
	<g>
		<g>
			<g>
				<g>
					<polygon fill="#FFECB3" points="7.4,9 7.3,9 7.3,8.8 7.3,8.8 4.6,3.4 1.9,8.8 1.8,8.8 1.8,9 1.8,9 1.8,9 1.8,29.7 7.3,29.7 
						7.3,9 					"/>
					<path fill="#37474F" d="M7.3,30.2H1.8c-0.3,0-0.5-0.2-0.5-0.5V9.1c0-0.1,0-0.1,0-0.2V8.8c0-0.2,0.1-0.3,0.2-0.4l2.6-5.2
						c0.2-0.3,0.7-0.3,0.9,0l2.6,5.3c0.1,0.1,0.2,0.2,0.2,0.4v0.1c0,0,0,0.1,0,0.1v20.6C7.8,30,7.6,30.2,7.3,30.2z M2.3,29.2h4.5
						V9.1c0,0,0,0,0-0.1L4.6,4.5L2.4,9c0,0,0,0,0,0.1V29.2z"/>
				</g>
			</g>
			<g>
				<path fill="#FFECB3" d="M5.4,13.1c-0.4,0.4-1.1,0.4-1.5,0c-0.4-0.4-0.4-1.1,0-1.5"/>
				<path fill="#37474F" d="M4.6,13.9c-0.4,0-0.8-0.2-1.1-0.5C3.2,13.1,3,12.7,3,12.3c0-0.4,0.2-0.8,0.5-1.1C3.7,11,4,11,4.2,11.2
					s0.2,0.5,0,0.7C4.1,12,4,12.2,4,12.3s0.1,0.3,0.2,0.4c0.2,0.2,0.6,0.2,0.8,0c0.2-0.2,0.5-0.2,0.7,0c0.2,0.2,0.2,0.5,0,0.7
					C5.4,13.7,5,13.9,4.6,13.9z"/>
			</g>
			<g>
				<path fill="#FFECB3" d="M5.4,24.2c-0.4,0.4-1.1,0.4-1.5,0c-0.4-0.4-0.4-1.1,0-1.5"/>
				<path fill="#37474F" d="M4.6,25c-0.4,0-0.8-0.2-1.1-0.5C3.2,24.2,3,23.8,3,23.4c0-0.4,0.2-0.8,0.5-1.1c0.2-0.2,0.5-0.2,0.7,0
					c0.2,0.2,0.2,0.5,0,0.7C4.1,23.1,4,23.2,4,23.4c0,0.2,0.1,0.3,0.2,0.4C4.4,24,4.8,24,5,23.8c0.2-0.2,0.5-0.2,0.7,0
					c0.2,0.2,0.2,0.5,0,0.7C5.4,24.8,5,25,4.6,25z"/>
			</g>
		</g>
		<g>
			<g>
				<g>
					<polygon fill="#FFAB00" points="18.8,9 18.8,9 18.8,8.8 18.7,8.8 16,3.4 13.3,8.8 13.3,8.8 13.3,9 13.3,9 13.3,9 13.3,29.7 
						18.8,29.7 18.8,9 					"/>
					<path fill="#37474F" d="M18.8,30.2h-5.5c-0.3,0-0.5-0.2-0.5-0.5V9.1c0-0.1,0-0.1,0-0.2V8.8c0-0.2,0.1-0.3,0.2-0.4l2.6-5.2
						c0.2-0.3,0.7-0.3,0.9,0l2.6,5.3c0.1,0.1,0.2,0.2,0.2,0.4v0.1c0,0,0,0.1,0,0.1v20.6C19.3,30,19,30.2,18.8,30.2z M13.8,29.2h4.5
						V9.1c0,0,0,0,0-0.1L16,4.5L13.8,9c0,0,0,0,0,0.1V29.2z"/>
				</g>
			</g>
			<g>
				<path fill="#FFECB3" d="M16.8,13.1c-0.4,0.4-1.1,0.4-1.5,0c-0.4-0.4-0.4-1.1,0-1.5"/>
				<path fill="#37474F" d="M16,13.9c-0.4,0-0.8-0.2-1.1-0.5c-0.6-0.6-0.6-1.6,0-2.2c0.2-0.2,0.5-0.2,0.7,0c0.2,0.2,0.2,0.5,0,0.7
					c-0.2,0.2-0.2,0.6,0,0.8c0.2,0.2,0.6,0.2,0.8,0c0.2-0.2,0.5-0.2,0.7,0s0.2,0.5,0,0.7C16.8,13.7,16.4,13.9,16,13.9z"/>
			</g>
			<g>
				<path fill="#FFECB3" d="M16.8,24.2c-0.4,0.4-1.1,0.4-1.5,0c-0.4-0.4-0.4-1.1,0-1.5"/>
				<path fill="#37474F" d="M16,25c-0.4,0-0.8-0.2-1.1-0.5c-0.6-0.6-0.6-1.6,0-2.2c0.2-0.2,0.5-0.2,0.7,0c0.2,0.2,0.2,0.5,0,0.7
					c-0.2,0.2-0.2,0.6,0,0.8c0.2,0.2,0.6,0.2,0.8,0c0.2-0.2,0.5-0.2,0.7,0s0.2,0.5,0,0.7C16.8,24.8,16.4,25,16,25z"/>
			</g>
		</g>
		<g>
			<g>
				<g>
					<polygon fill="#FFECB3" points="30.2,9 30.2,9 30.2,8.8 30.1,8.8 27.4,3.4 24.8,8.8 24.7,8.8 24.7,9 24.7,9 24.7,9 24.7,29.7 
						30.2,29.7 30.2,9 					"/>
					<path fill="#37474F" d="M30.2,30.2h-5.5c-0.3,0-0.5-0.2-0.5-0.5V9.1c0-0.1,0-0.1,0-0.2V8.8c0-0.2,0.1-0.3,0.2-0.4L27,3.2
						c0.2-0.3,0.7-0.3,0.9,0l2.6,5.3c0.1,0.1,0.2,0.2,0.2,0.4v0.1c0,0,0,0.1,0,0.1v20.6C30.7,30,30.5,30.2,30.2,30.2z M25.2,29.2
						h4.5V9.1c0,0,0,0,0-0.1l-2.2-4.5L25.2,9c0,0,0,0,0,0.1V29.2z"/>
				</g>
			</g>
			<g>
				<path fill="#FFECB3" d="M28.2,13.1c-0.4,0.4-1.1,0.4-1.5,0c-0.4-0.4-0.4-1.1,0-1.5"/>
				<path fill="#37474F" d="M27.4,13.9c-0.4,0-0.8-0.2-1.1-0.5c-0.3-0.3-0.5-0.7-0.5-1.1s0.2-0.8,0.5-1.1c0.2-0.2,0.5-0.2,0.7,0
					c0.2,0.2,0.2,0.5,0,0.7c-0.1,0.1-0.2,0.3-0.2,0.4c0,0.2,0.1,0.3,0.2,0.4c0.2,0.2,0.6,0.2,0.8,0c0.2-0.2,0.5-0.2,0.7,0
					s0.2,0.5,0,0.7C28.2,13.7,27.9,13.9,27.4,13.9z"/>
			</g>
			<g>
				<path fill="#FFECB3" d="M28.2,24.2c-0.4,0.4-1.1,0.4-1.5,0c-0.4-0.4-0.4-1.1,0-1.5"/>
				<path fill="#37474F" d="M27.4,25c-0.4,0-0.8-0.2-1.1-0.5c-0.3-0.3-0.5-0.7-0.5-1.1s0.2-0.8,0.5-1.1c0.2-0.2,0.5-0.2,0.7,0
					c0.2,0.2,0.2,0.5,0,0.7c-0.1,0.1-0.2,0.2-0.2,0.4c0,0.2,0.1,0.3,0.2,0.4c0.2,0.2,0.6,0.2,0.8,0c0.2-0.2,0.5-0.2,0.7,0
					s0.2,0.5,0,0.7C28.2,24.8,27.8,25,27.4,25z"/>
			</g>
		</g>
	</g>
	<g>
		<g>
			<g>
				<rect x="7.5" y="11.5" fill="#FFECB3" width="5.7" height="3.9"/>
				<path fill="#37474F" d="M13.2,15.9H7.5c-0.3,0-0.5-0.2-0.5-0.5v-3.9C7,11.2,7.2,11,7.5,11h5.7c0.3,0,0.5,0.2,0.5,0.5v3.9
					C13.7,15.7,13.4,15.9,13.2,15.9z M8,14.9h4.7V12H8V14.9z"/>
			</g>
			<g>
				<rect x="7.5" y="21.3" fill="#FFECB3" width="5.7" height="3.9"/>
				<path fill="#37474F" d="M13.2,25.7H7.5c-0.3,0-0.5-0.2-0.5-0.5v-3.9c0-0.3,0.2-0.5,0.5-0.5h5.7c0.3,0,0.5,0.2,0.5,0.5v3.9
					C13.7,25.5,13.4,25.7,13.2,25.7z M8,24.7h4.7v-2.9H8V24.7z"/>
			</g>
		</g>
		<g>
			<g>
				<rect x="18.9" y="11.5" fill="#FFECB3" width="5.7" height="3.9"/>
				<path fill="#37474F" d="M24.5,15.9h-5.7c-0.3,0-0.5-0.2-0.5-0.5v-3.9c0-0.3,0.2-0.5,0.5-0.5h5.7c0.3,0,0.5,0.2,0.5,0.5v3.9
					C25,15.7,24.8,15.9,24.5,15.9z M19.4,14.9H24V12h-4.7V14.9z"/>
			</g>
			<g>
				<rect x="18.9" y="21.3" fill="#FFECB3" width="5.7" height="3.9"/>
				<path fill="#37474F" d="M24.5,25.7h-5.7c-0.3,0-0.5-0.2-0.5-0.5v-3.9c0-0.3,0.2-0.5,0.5-0.5h5.7c0.3,0,0.5,0.2,0.5,0.5v3.9
					C25,25.5,24.8,25.7,24.5,25.7z M19.4,24.7H24v-2.9h-4.7V24.7z"/>
			</g>
		</g>
	</g>
	<g>
		<line fill="#FFAB00" x1="0.8" y1="29.7" x2="31.2" y2="29.7"/>
		<path fill="#37474F" d="M31.2,30.2H0.8c-0.3,0-0.5-0.2-0.5-0.5s0.2-0.5,0.5-0.5h30.4c0.3,0,0.5,0.2,0.5,0.5S31.5,30.2,31.2,30.2z"
			/>
	</g>
</g>
</svg>
