<?xml version="1.0" encoding="utf-8"?>
<!-- Generator: Adobe Illustrator 16.0.0, SVG Export Plug-In . SVG Version: 6.00 Build 0)  -->
<!DOCTYPE svg PUBLIC "-//W3C//DTD SVG 1.1//EN" "http://www.w3.org/Graphics/SVG/1.1/DTD/svg11.dtd">
<svg version="1.1" id="Layer_1" xmlns="http://www.w3.org/2000/svg" xmlns:xlink="http://www.w3.org/1999/xlink" x="0px" y="0px"
	 width="24px" height="24px" viewBox="0 0 24 24" enable-background="new 0 0 24 24" xml:space="preserve">
<g>
	<path d="M19.6,8.5c-0.1-0.2-0.4-0.3-0.6-0.2V6.5C19,6.2,18.8,6,18.5,6h-2.4V4.2c0-1.5-0.8-2.6-2.1-2.9c-0.2,0-0.3-0.1-0.5-0.1h-1.1
		c0.2-0.1,0.3-0.3,0.3-0.5c0-0.3-0.2-0.5-0.5-0.5h-1c-0.3,0-0.5,0.2-0.5,0.5c0,0.2,0.1,0.4,0.3,0.5h-0.6c-0.2,0-0.4,0-0.5,0.1
		C8.6,1.5,7.5,2.8,7.5,4.2v6.6c0,0,0,0.1,0,0.1c0,0,0,0.1,0,0.1c0,0,0.8,3.3,1.6,5.2c-0.1,0.1-0.1,0.3-0.1,0.4l-1.2,4.8
		c0,0,0,0.1,0,0.1c0,0.1,0,0.7,0.8,0.8c0,0,0,0,0,0v1c0,0.3,0.2,0.5,0.5,0.5s0.5-0.2,0.5-0.5v-0.9h5.7v0.9c0,0.3,0.2,0.5,0.5,0.5
		s0.5-0.2,0.5-0.5v-1c0-0.1,0-0.2-0.1-0.2c0.3-0.2,0.3-0.5,0.3-0.6c0,0,0-0.1,0-0.1l-1.2-4.8c0-0.2-0.1-0.3-0.2-0.5
		c0.6-1.6,1-4.2,1.2-5.2c0,0,0,0,0,0c0,0,0,0,0,0V7H18v3.7l-0.8,0.8c-0.2,0.2-0.2,0.5,0,0.7c0.1,0.1,0.2,0.2,0.4,0.2
		c0.1,0,0.3,0,0.4-0.1l0.9-0.9c0.1-0.1,0.1-0.2,0.1-0.4V9.6c0.3,0.9,0.5,1.8,0.5,2.7c0,2.4-1.2,4.7-3.1,6.1
		c-0.2,0.2-0.3,0.5-0.1,0.7c0.1,0.1,0.3,0.2,0.4,0.2c0.1,0,0.2,0,0.3-0.1c2.2-1.6,3.5-4.2,3.5-6.9C20.5,11,20.2,9.7,19.6,8.5z
		 M13.5,2.2c0.7,0,1.1,0.5,1.3,0.9H8.9c0.3-0.5,0.9-0.9,1.5-0.9H13.5z M8.5,10.9C8.5,10.9,8.5,10.8,8.5,10.9l0-6.7c0,0,0,0,0,0h6.6
		c0,0,0,0,0,0v6.6C15,11.4,14.4,14,14,15.6c0,0,0,0,0,0H10c0,0-0.1,0-0.1,0C9.4,14,8.5,11.4,8.5,10.9C8.5,10.9,8.5,10.9,8.5,10.9z
		 M15.3,21.3C15.3,21.3,15.2,21.3,15.3,21.3l-6.5,0c0,0-0.1,0-0.1,0l1-3.9c0.1,0.1,0.2,0.2,0.3,0.2h1.6c-0.1,0.1-0.1,0.2-0.1,0.3
		c0,0.3,0.2,0.5,0.5,0.5c0.5,0,0.8,0.4,0.8,0.8c0,0.5-0.4,0.8-0.8,0.8c-0.5,0-0.8-0.4-0.8-0.8c0-0.3-0.2-0.5-0.5-0.5
		s-0.5,0.2-0.5,0.5c0,1,0.8,1.8,1.8,1.8c1,0,1.8-0.8,1.8-1.8c0-0.8-0.5-1.4-1.1-1.7H14c0.1,0,0.2-0.1,0.3-0.2L15.3,21.3z"/>
	<path d="M7.6,18.4c-1.9-1.4-3.1-3.7-3.1-6.1c0-2.2,0.9-4.2,2.6-5.6c0.2-0.2,0.2-0.5,0-0.7c-0.2-0.2-0.5-0.2-0.7,0
		c-1.8,1.6-2.9,3.9-2.9,6.4c0,2.7,1.3,5.3,3.5,6.9c0.1,0.1,0.2,0.1,0.3,0.1c0.2,0,0.3-0.1,0.4-0.2C7.9,18.8,7.8,18.5,7.6,18.4z"/>
	<path d="M10.2,8.2c0.2,0,0.4-0.1,0.5-0.2C10.9,7.8,11,7.6,11,7.4c0-0.2-0.1-0.4-0.2-0.5c-0.3-0.3-0.8-0.3-1.1,0
		C9.5,7,9.5,7.2,9.5,7.4C9.5,7.8,9.8,8.2,10.2,8.2z"/>
	<path d="M10.2,8.5c-0.2,0-0.4,0.1-0.5,0.2C9.5,8.8,9.5,9,9.5,9.2c0,0.2,0.1,0.4,0.2,0.5C9.8,9.9,10,10,10.2,10h0
		c0.4,0,0.8-0.3,0.8-0.8C11,8.8,10.6,8.5,10.2,8.5z"/>
	<path d="M10.2,11.8c0.2,0,0.4-0.1,0.5-0.2c0.1-0.1,0.2-0.3,0.2-0.5c0-0.2-0.1-0.4-0.2-0.5c-0.1-0.1-0.3-0.2-0.5-0.2
		c-0.4,0-0.8,0.3-0.8,0.8C9.5,11.5,9.8,11.8,10.2,11.8z"/>
	<path d="M13.8,8.2c0.2,0,0.4-0.1,0.5-0.2c0.1-0.1,0.2-0.3,0.2-0.5c0-0.2-0.1-0.4-0.2-0.5c-0.3-0.3-0.8-0.3-1.1,0
		C13.1,7,13,7.2,13,7.4C13,7.8,13.4,8.2,13.8,8.2z"/>
	<path d="M13.8,8.5c-0.2,0-0.4,0.1-0.5,0.2C13.1,8.8,13,9,13,9.2c0,0.2,0.1,0.4,0.2,0.5c0.1,0.1,0.3,0.2,0.5,0.2h0
		c0.4,0,0.8-0.3,0.8-0.8C14.5,8.8,14.2,8.5,13.8,8.5z"/>
	<path d="M13.8,11.8c0.2,0,0.4-0.1,0.5-0.2s0.2-0.3,0.2-0.5c0-0.2-0.1-0.4-0.2-0.5c-0.1-0.1-0.3-0.2-0.5-0.2c-0.4,0-0.8,0.3-0.8,0.8
		C13,11.5,13.4,11.8,13.8,11.8z"/>
</g>
</svg>
