<?xml version="1.0" encoding="iso-8859-1"?>
<!-- Generator: Adobe Illustrator 17.1.0, SVG Export Plug-In . SVG Version: 6.00 Build 0)  -->
<!DOCTYPE svg PUBLIC "-//W3C//DTD SVG 1.1//EN" "http://www.w3.org/Graphics/SVG/1.1/DTD/svg11.dtd">
<svg version="1.1" xmlns="http://www.w3.org/2000/svg" xmlns:xlink="http://www.w3.org/1999/xlink" x="0px" y="0px"
	 viewBox="0 0 1009.976 1010" style="enable-background:new 0 0 1009.976 1010;" xml:space="preserve">
<g id="camera">
	<path id="label_13_" style="fill:#EFEFEF;" d="M504.988,0C226.092,0,0,226.117,0,505.012C0,783.92,226.092,1010,504.988,1010
		s504.988-226.08,504.988-504.988C1009.976,230.098,830.868,0,504.988,0z"/>
	<g id="icon_15_">
		<path style="fill:#434A54;" d="M507.792,512.239c-41.203,0.073-74.543,33.401-74.604,74.617
			c0.061,41.179,33.401,74.506,74.604,74.58c41.203-0.074,74.507-33.401,74.617-74.58
			C582.299,545.64,548.996,512.312,507.792,512.239z M566.474,599.3c-3.441,0-6.259-2.805-6.259-6.259
			c0-3.466,2.817-6.271,6.259-6.271c3.467,0,6.284,2.805,6.284,6.271C572.758,596.495,569.941,599.3,566.474,599.3z
			 M567.258,580.621c-0.416,0.098-0.833,0.123-1.273,0.123c-2.891,0-5.512-2.009-6.124-4.948
			c-4.422-20.92-21.202-37.37-42.294-41.265c-3.393-0.65-5.647-3.895-5.01-7.3c0.612-3.417,3.883-5.671,7.288-5.034
			c26.138,4.874,46.789,25.097,52.251,50.99C572.819,576.592,570.664,579.898,567.258,580.621z M581.638,442.105H321.704
			c-38.987,0-70.882,31.895-70.882,70.906v140.599c0,38.986,31.895,70.881,70.882,70.881h259.935
			c38.986,0,70.905-31.895,70.905-70.881V513.01C652.544,474,620.625,442.105,581.638,442.105z M315.64,655.961
			c0,5.855-1.776,10.644-3.932,10.644h-15.102c-2.156,0-3.932-4.789-3.932-10.644V517.738c0-5.855,1.776-10.656,3.932-10.656h15.102
			c2.156,0,3.932,4.801,3.932,10.656V655.961z M507.792,696.148c-60.36,0-109.292-48.933-109.316-109.292
			c0.024-60.385,48.956-109.293,109.316-109.305c60.348,0.012,109.292,48.92,109.292,109.305
			C617.084,647.216,568.14,696.148,507.792,696.148z M585.312,437.242h-90.368c0.76-12.775,3.417-26.383,24.313-26.383h41.754
			C581.32,410.859,584.553,424.467,585.312,437.242z"/>
		<g>
			<path style="fill:#1CABEA;" d="M649.984,408.507c0.012,7.52-6.075,13.632-13.571,13.632c-7.545,0.037-13.645-6.075-13.632-13.62
				c-0.013-7.508,6.087-13.608,13.619-13.596C643.921,394.899,650.045,400.999,649.984,408.507z"/>
			<path style="fill:#1CABEA;" d="M633.436,376.943c-5.401,0-9.823-4.41-9.798-9.811l0,0c-0.025-5.389,4.396-9.799,9.798-9.762l0,0
				c29.728-0.025,53.844,24.105,53.857,53.844l0,0c0.012,5.426-4.373,9.798-9.774,9.798l0,0c-5.426-0.024-9.811-4.397-9.811-9.811
				l0,0C667.708,392.266,652.373,376.943,633.436,376.943L633.436,376.943z"/>
			<path style="fill:#1CABEA;" d="M633.412,341.044c-5.377-0.037-9.762-4.422-9.799-9.787l0,0c0.037-5.438,4.422-9.811,9.823-9.823
				l0,0c49.594,0.012,89.78,40.175,89.769,89.756l0,0c0.012,5.426-4.373,9.811-9.823,9.823l0,0c-5.364-0.024-9.75-4.421-9.799-9.811
				l0,0C703.509,372.436,672.165,341.092,633.412,341.044L633.412,341.044z"/>
			<path style="fill:#1CABEA;" d="M633.412,305.106c-5.377-0.024-9.75-4.397-9.773-9.774l0,0c-0.025-5.439,4.348-9.823,9.822-9.823
				l0,0c69.375-0.024,125.669,56.269,125.693,125.693l0,0c-0.049,5.426-4.434,9.798-9.836,9.811l0,0
				c-5.377-0.024-9.786-4.421-9.799-9.811l0,0C739.421,352.618,692.02,305.217,633.412,305.106L633.412,305.106z"/>
		</g>
	</g>
</g>
<g id="Layer_1">
</g>
</svg>
