<?xml version="1.0" encoding="iso-8859-1"?>
<!-- Generator: Adobe Illustrator 17.1.0, SVG Export Plug-In . SVG Version: 6.00 Build 0)  -->
<!DOCTYPE svg PUBLIC "-//W3C//DTD SVG 1.1//EN" "http://www.w3.org/Graphics/SVG/1.1/DTD/svg11.dtd">
<svg version="1.1" xmlns="http://www.w3.org/2000/svg" xmlns:xlink="http://www.w3.org/1999/xlink" x="0px" y="0px"
	 viewBox="0 0 1009.976 1009.988" style="enable-background:new 0 0 1009.976 1009.988;" xml:space="preserve">
<g id="laptop">
	<path id="label_6_" style="fill:#EFEFEF;" d="M504.988,1009.988c278.896,0,504.988-226.093,504.988-505
		C1009.976,226.105,783.883,0,504.988,0S0,226.105,0,504.988C0,783.895,226.092,1009.988,504.988,1009.988z"/>
	<g id="icon_8_">
		<path style="fill:#434A54;" d="M281.32,723.033c-0.723-1.764-1.139-3.687-1.139-5.72V451.377c0-8.439,6.871-15.31,15.298-15.31
			h419.016c8.415,0,15.311,6.871,15.311,15.31v265.936c0,2.033-0.429,3.956-1.151,5.72H281.32z M304.372,460.257v240.509h401.22
			V460.257H304.372z M728.655,733.836H281.32h-58.535c0,0,0,19.144,19.132,19.144c19.144,0,507.009,0,526.129,0
			c19.143,0,19.143-19.144,19.143-19.144H728.655z"/>
		<g>
			<path style="fill:#1CABEA;" d="M515.521,382.002c5.916,5.928,5.916,15.544,0,21.46c-5.952,5.965-15.58,5.965-21.508,0
				c-5.916-5.916-5.916-15.531,0.037-21.46C499.941,376.049,509.569,376.049,515.521,382.002z"/>
			<path style="fill:#1CABEA;" d="M532.02,370.17c-14.955-14.943-39.109-14.943-54.064,0l0,0c-4.263,4.262-11.17,4.262-15.457,0l0,0
				c-4.275-4.263-4.275-11.183,0-15.445l0,0c23.468-23.443,61.523-23.443,84.954,0l0,0c4.287,4.238,4.287,11.195,0,15.445l0,0
				C543.214,374.433,536.27,374.433,532.02,370.17L532.02,370.17z"/>
			<path style="fill:#1CABEA;" d="M560.35,341.864c-30.62-30.511-80.055-30.511-110.713,0l0,0c-4.25,4.238-11.183,4.238-15.42,0l0,0
				c-4.299-4.299-4.299-11.207,0-15.47l0,0c39.06-39.097,102.445-39.097,141.566,0l0,0c4.251,4.263,4.251,11.17,0,15.47l0,0
				C571.508,346.102,564.588,346.102,560.35,341.864L560.35,341.864z"/>
			<path style="fill:#1CABEA;" d="M588.681,313.546c-46.324-46.14-121.075-46.14-167.35,0l0,0c-4.263,4.225-11.195,4.225-15.458,0
				l0,0c-4.262-4.287-4.262-11.183-0.024-15.482l0,0c54.762-54.738,143.526-54.738,198.24,0l0,0c4.299,4.299,4.299,11.195,0,15.482
				l0,0C599.815,317.771,592.919,317.771,588.681,313.546L588.681,313.546z"/>
		</g>
	</g>
</g>
<g id="Layer_1">
</g>
</svg>
