<?xml version="1.0" encoding="iso-8859-1"?>
<!-- Generator: Adobe Illustrator 17.1.0, SVG Export Plug-In . SVG Version: 6.00 Build 0)  -->
<!DOCTYPE svg PUBLIC "-//W3C//DTD SVG 1.1//EN" "http://www.w3.org/Graphics/SVG/1.1/DTD/svg11.dtd">
<svg version="1.1" xmlns="http://www.w3.org/2000/svg" xmlns:xlink="http://www.w3.org/1999/xlink" x="0px" y="0px"
	 viewBox="0 0 1009.994 1009.988" style="enable-background:new 0 0 1009.994 1009.988;" xml:space="preserve">
<g id="man">
	<path id="label_15_" style="fill:#EFEFEF;" d="M504.988,0C226.093,0,0,226.117,0,505.012
		c0,278.908,226.093,504.976,504.988,504.976c278.901,0,505.006-226.068,505.006-504.976C1009.994,226.117,783.89,0,504.988,0z"/>
	<g id="icon_17_">
		<g>
			<path style="fill:#434A54;" d="M545.463,390.723c0,23.431-19.01,42.446-42.472,42.446c-23.443,0-42.44-19.015-42.44-42.446
				c0-23.443,18.997-42.447,42.44-42.447C526.453,348.276,545.463,367.28,545.463,390.723z"/>
			<path style="fill:#434A54;" d="M653.102,362.319l-10.583-7.263c-1.665-1.151-3.944-0.876-5.291,0.667
				c-3.772,4.336-8.771,9.083-12.69,13.302c-17.638,19.071-36.108,37.388-54.407,55.822c-4.948,5.022-7.521,7.705-13.302,11.74
				c-15.163,10.552-37.333,6.933-54.597,6.645c-13.118-0.196-29.396,3.65-41.571-2.995c-10.999-5.989-21.018-15.567-29.715-24.331
				c-10.411-10.515-20.822-21.024-31.098-31.674c-4.838-5.034-9.689-10.081-14.417-15.207c-3.883-4.219-8.893-8.966-12.665-13.302
				c-1.347-1.543-3.625-1.819-5.291-0.667l-10.582,7.263c-1.776,1.225-2.266,3.613-1.139,5.463c0,0,59.099,85.971,59.637,86.773
				c2.009,2.891,5.487,8.078,7.472,10.956c0.918,1.274,14.625,21.698,22.671,33.989c-0.465,8.035-0.331,16.101-0.146,24.154
				l0.11,4.458l0.514,22.225c0.012,1.672,0.037,3.448,0.049,5.071c0.196,14.374,0.527,26.475,0.943,37.988
				c0.527,13.375,1.151,25.942,1.69,40.242c1.017,26.683,2.033,53.378,3.062,80.049c0.869,22.807,1.727,45.607,2.597,68.414
				c0.416,10.429,0.808,20.858,1.212,31.324c0,0.398,0.024,0.821,0.024,1.237c0.098,2.181,1.898,3.883,4.14,3.883l22.23-0.343
				c2.095-0.031,3.81-1.672,3.956-3.773l12.494-178.269h10.534l12.463,178.269c0.147,2.101,1.886,3.741,3.968,3.773l22.243,0.343
				c2.229,0,4.042-1.702,4.091-3.883c0-0.416,0.049-0.839,0.049-1.237c0.441-10.466,0.809-20.896,1.201-31.324
				c0.882-22.807,1.739-45.607,2.621-68.414c1.028-26.67,2.009-53.366,3.062-80.049c0.05-1.751,0.147-3.405,0.196-5.114
				l2.449-104.448c0.392-6.277,0.735-13.406,0.662-20.737c7.227-11.158,24.178-36.414,25.158-37.829
				c2.009-2.878,5.487-8.065,7.496-10.956c0.539-0.802,59.625-86.773,59.625-86.773
				C655.355,365.932,654.865,363.544,653.102,362.319z"/>
		</g>
		<g>
			<path style="fill:#1CABEA;" d="M571.797,336.793c0.612-0.563,1.127-1.176,1.567-1.843c3.111-4.538,2.744-10.748-1.2-14.864
				c-36.916-38.674-98.446-40.076-137.139-3.129c-4.716,4.526-4.887,11.991-0.392,16.719c4.52,4.728,12.016,4.893,16.731,0.392
				c29.237-27.926,75.774-26.867,103.725,2.345C559.572,341.142,567.045,341.301,571.797,336.793z"/>
			<path style="fill:#1CABEA;" d="M504.853,262.96c33.186,0.759,64.053,14.367,86.957,38.355c4.531,4.704,12.004,4.893,16.732,0.355
				c0.588-0.539,1.127-1.151,1.567-1.819c3.111-4.508,2.744-10.754-1.176-14.888c-27.313-28.539-64.083-44.755-103.517-45.643
				c-39.489-0.9-76.933,13.614-105.495,40.891c-4.74,4.55-4.875,12.003-0.355,16.731c4.483,4.716,11.991,4.893,16.694,0.38
				C440.255,274.4,471.697,262.188,504.853,262.96z"/>
			<path style="fill:#1CABEA;" d="M505.968,215.124c45.913,1.041,88.685,19.922,120.433,53.127c4.531,4.74,12.003,4.899,16.73,0.404
				c0.588-0.594,1.103-1.206,1.568-1.855c3.135-4.501,2.768-10.742-1.201-14.876c-36.107-37.798-84.783-59.245-137.004-60.439
				c-52.264-1.194-101.857,18.023-139.631,54.15c-4.752,4.545-4.887,11.991-0.367,16.726c4.507,4.709,11.991,4.887,16.707,0.367
				C416.433,230.998,460.024,214.083,505.968,215.124z"/>
		</g>
	</g>
</g>
<g id="Layer_1">
</g>
</svg>
