<?xml version="1.0" encoding="iso-8859-1"?>
<!-- Generator: Adobe Illustrator 17.1.0, SVG Export Plug-In . SVG Version: 6.00 Build 0)  -->
<!DOCTYPE svg PUBLIC "-//W3C//DTD SVG 1.1//EN" "http://www.w3.org/Graphics/SVG/1.1/DTD/svg11.dtd">
<svg version="1.1" xmlns="http://www.w3.org/2000/svg" xmlns:xlink="http://www.w3.org/1999/xlink" x="0px" y="0px"
	 viewBox="0 0 1009.976 1009.976" style="enable-background:new 0 0 1009.976 1009.976;" xml:space="preserve">
<g id="smartphone">
	<circle id="label_7_" style="fill:#EFEFEF;" cx="504.988" cy="504.988" r="504.988"/>
	<g id="icon_9_">
		<g>
			<path style="fill:#1CABEA;" d="M443.219,480.932c-6.847,6.859-6.847,17.944,0,24.778c6.835,6.847,17.932,6.847,24.778,0
				c6.847-6.859,6.835-17.932,0-24.778C461.151,474.097,450.066,474.097,443.219,480.932z"/>
			<path style="fill:#1CABEA;" d="M504.853,467.275c4.924-4.887,4.936-12.897,0-17.809c-27.057-27.057-70.893-27.057-97.975,0
				c-4.924,4.936-4.924,12.898,0,17.809c4.936,4.936,12.898,4.936,17.821,0c17.246-17.16,45.099-17.16,62.344,0
				C491.956,472.211,499.954,472.211,504.853,467.275z"/>
			<path style="fill:#1CABEA;" d="M537.507,416.811c-45.099-45.086-118.172-45.086-163.283,0c-4.899,4.949-4.887,12.898,0,17.822
				c4.948,4.924,12.91,4.924,17.834,0c35.3-35.19,92.328-35.19,127.652,0.012c4.911,4.912,12.897,4.912,17.797,0
				C542.443,429.709,542.443,421.76,537.507,416.811z"/>
			<path style="fill:#1CABEA;" d="M570.198,401.979c4.924-4.924,4.924-12.91,0-17.833c-63.14-63.103-165.487-63.103-228.615,0
				c-4.924,4.924-4.924,12.898,0,17.833c4.911,4.912,12.885,4.912,17.809,0c53.379-53.183,139.583-53.183,192.974,0
				C557.289,406.891,565.262,406.891,570.198,401.979z"/>
		</g>
		<path style="fill:#434A54;" d="M494.674,545.75c0.062,0.085,0.196,0.404,0.221,0.441c0.013,0.037,0.037,0.061,0.037,0.061
			s0.343,0.539,0.759,1.274c0.417,0.686,4.275,4.752,7.239,7.668l9.039,9.051l20.687-20.688l-8.953-8.929
			c-2.964-2.903-5.77-5.622-6.272-6.075c-0.515-0.404-1.911-1.323-1.911-1.323c0.025-0.025-31.049-16.584-31.049-16.584
			c-3.662-1.96-5.291-0.429-3.638,3.38C480.834,514.027,494.663,545.616,494.674,545.75z"/>
		<path style="fill:#434A54;" d="M723.156,734.02l-8.525-8.501c0.099-0.086,0.196-0.146,0.295-0.232c2.633-2.646,2.633-6.92,0-9.566
			l-24.95-24.937c-2.622-2.646-6.908-2.646-9.554,0c-0.086,0.085-0.148,0.196-0.233,0.269l-142.852-142.84l-20.712,20.7
			l185.832,185.82c1.739,1.764,4.63,1.764,6.369,0l14.331-14.33C724.919,738.662,724.919,735.784,723.156,734.02z"/>
		<path style="fill:#434A54;" d="M576.739,674.272H335.03c-7.3-0.012-13.486-6.198-13.51-13.522V307.973
			c0.025-7.3,6.21-13.485,13.51-13.534h241.709c7.3,0.049,13.485,6.234,13.497,13.534v274.033l36.035,36.047V303.49
			c-0.062-27.399-22.17-49.471-49.532-49.569H335.03c-27.363,0.098-49.447,22.169-49.533,49.569v397.827
			c0.085,27.339,22.169,49.472,49.533,49.521h241.709c27.362-0.049,49.471-22.182,49.532-49.521v-3.663l-36.108-36.107
			C589.734,668.491,583.782,674.26,576.739,674.272z M432.612,267.443h46.556c2.878,0,5.242,2.352,5.242,5.267
			c0,2.878-2.364,5.242-5.242,5.242h-46.556c-2.903,0-5.254-2.364-5.254-5.242C427.358,269.794,429.71,267.443,432.612,267.443z
			 M455.872,734.338c-12.432,0-22.512-10.093-22.512-22.524c0-12.433,10.08-22.538,22.512-22.538
			c12.444,0,22.525,10.105,22.525,22.538C478.396,724.246,468.316,734.338,455.872,734.338z"/>
	</g>
</g>
<g id="Layer_1">
</g>
</svg>
