<?xml version="1.0" encoding="iso-8859-1"?>
<!-- Generator: Adobe Illustrator 17.1.0, SVG Export Plug-In . SVG Version: 6.00 Build 0)  -->
<!DOCTYPE svg PUBLIC "-//W3C//DTD SVG 1.1//EN" "http://www.w3.org/Graphics/SVG/1.1/DTD/svg11.dtd">
<svg version="1.1" xmlns="http://www.w3.org/2000/svg" xmlns:xlink="http://www.w3.org/1999/xlink" x="0px" y="0px"
	 viewBox="0 0 1009.976 1009.988" style="enable-background:new 0 0 1009.976 1009.988;" xml:space="preserve">
<g id="webcam">
	<path id="label_16_" style="fill:#EFEFEF;" d="M505,0C226.105,0,0,226.093,0,504.988c0,278.908,226.105,505,505,505
		s504.976-226.093,504.976-505C1009.976,226.093,783.895,0,505,0z"/>
	<g id="icon_18_">
		<g>
			<path style="fill:#434A54;" d="M631.758,537.942c0-94.527-76.613-171.128-171.147-171.146
				c-94.569,0.018-171.158,76.62-171.158,171.146c0,77.312,51.271,142.614,121.626,163.84
				c-23.002,15.041-38.742,40.218-40.922,69.227c-0.735,1.514,3.785,16.187,9.995,16.187h160.882
				c6.21,0,10.742-14.673,10.007-16.187c-2.192-29.01-17.932-54.143-40.946-69.203C580.487,680.556,631.758,615.254,631.758,537.942
				z M460.612,680.862c-39.513,0-75.143-15.96-101.049-41.847c-25.881-25.924-41.84-61.566-41.852-101.073
				c0.012-39.495,15.972-75.144,41.852-101.018c25.905-25.924,61.536-41.835,101.049-41.859
				c39.501,0.024,75.132,15.935,101.037,41.859c25.881,25.875,41.84,61.523,41.853,101.018
				c-0.013,39.507-15.972,75.15-41.853,101.073C535.744,664.902,500.113,680.862,460.612,680.862z"/>
			<path style="fill:#434A54;" d="M460.563,430.542c-59.319,0-107.394,48.105-107.394,107.4
				c0,59.343,48.075,107.424,107.394,107.424c59.356,0,107.479-48.081,107.479-107.424
				C568.042,478.648,519.919,430.542,460.563,430.542z M531.763,583.182c-1.458,3.178-3.16,6.295-5.084,9.352
				c-2.756,4.532-8.745,5.965-13.435,3.282c-0.331-0.184-0.625-0.373-0.968-0.563c-3.944-2.909-5.108-8.243-2.523-12.377
				c1.543-2.517,2.891-5.053,4.14-7.631c2.278-4.746,8.108-6.835,13.057-4.648C531.934,572.862,534.115,578.386,531.763,583.182z
				 M529.717,561.061c-1.862-0.202-3.601-0.894-4.851-1.886c-2.719-1.954-4.348-5.15-3.956-8.574
				c3.061-27.155-8.268-54.965-32.532-72.615c-4.299-3.166-5.181-9.107-1.874-13.295c3.307-4.152,9.431-4.991,13.792-1.764
				c29.947,21.851,44.119,56.318,40.261,89.744C540.018,557.932,535.082,561.642,529.717,561.061z"/>
		</g>
		<path style="fill:#1CABEA;" d="M626.7,394.795c-0.649,0.251-1.384,0.417-2.082,0.515c-5.757,0.772-11.036-3.252-11.783-8.929
			c-4.74-35.238-37.541-60.146-73.122-55.46c-5.732,0.728-11.024-3.252-11.759-8.947c-0.784-5.689,3.233-10.901,9.015-11.673
			c47.021-6.167,90.392,26.732,96.676,73.349C634.294,388.628,631.292,393.258,626.7,394.795z M678.327,377.783
			c-4.63-34.412-22.464-64.984-50.304-86.112c-27.828-21.104-62.272-30.198-96.995-25.654c-5.768,0.747-9.811,5.983-9.039,11.673
			c0.796,5.677,6.05,9.701,11.795,8.929c29.163-3.815,58.094,3.828,81.464,21.563c23.406,17.736,38.411,43.433,42.281,72.327
			c0.747,5.689,6.039,9.719,11.795,8.947c0.698-0.098,1.385-0.263,2.059-0.496C676,387.361,678.988,382.755,678.327,377.783z
			 M720.412,372.24c-6.111-45.527-29.764-86.026-66.582-113.971C617,230.355,571.386,218.26,525.43,224.317
			c-5.781,0.759-9.799,5.971-9.015,11.691c0.747,5.671,6.026,9.658,11.771,8.911c40.42-5.304,80.496,5.31,112.881,29.886
			c32.372,24.546,53.171,60.133,58.548,100.179c0.771,5.69,6.038,9.676,11.782,8.947c0.723-0.11,1.409-0.251,2.083-0.49
			C718.073,381.849,721.074,377.219,720.412,372.24z"/>
	</g>
</g>
<g id="Layer_1">
</g>
</svg>
