<?xml version="1.0" encoding="iso-8859-1"?>
<!-- Generator: Adobe Illustrator 17.1.0, SVG Export Plug-In . SVG Version: 6.00 Build 0)  -->
<!DOCTYPE svg PUBLIC "-//W3C//DTD SVG 1.1//EN" "http://www.w3.org/Graphics/SVG/1.1/DTD/svg11.dtd">
<svg version="1.1" xmlns="http://www.w3.org/2000/svg" xmlns:xlink="http://www.w3.org/1999/xlink" x="0px" y="0px"
	 viewBox="0 0 1009.976 1010" style="enable-background:new 0 0 1009.976 1010;" xml:space="preserve">
<g id="wifi-tower">
	<path id="label_31_" style="fill:#EFEFEF;" d="M504.988,0C226.105,0,0,226.105,0,504.976C0,783.895,226.105,1010,504.988,1010
		c278.907,0,504.988-226.105,504.988-505.024C1009.976,226.105,783.895,0,504.988,0z"/>
	<g id="icon_33_">
		<path style="fill:#434A54;" d="M514.407,424.761v-26.04c22.599-4.066,39.782-23.786,39.782-47.56
			c0-26.738-21.68-48.43-48.43-48.43c-26.714,0-48.405,21.692-48.405,48.43c0,23.933,17.38,43.665,40.186,47.609v24.986
			l-122.471,320.65c-1.654,4.348,0.514,9.223,4.85,10.864c4.373,1.69,9.224-0.502,10.877-4.874l114.534-299.804
			c0.208,0.024,0.392,0.135,0.637,0.135c0.086,0,0.185-0.049,0.282-0.049l114.473,299.718c1.311,3.367,4.483,5.449,7.876,5.449
			c1.017,0,2.009-0.184,3.013-0.575c4.349-1.642,6.529-6.517,4.875-10.864L514.407,424.761z"/>
		<path style="fill:#434A54;" d="M583.402,701.121c-1.25-3.258-4.385-5.402-7.9-5.402H436.017c-3.491,0-6.626,2.145-7.863,5.402
			l-14.098,36.916c-1.666,4.348,0.514,9.223,4.85,10.889c4.397,1.678,9.21-0.526,10.876-4.887l12.053-31.479H569.72l12.028,31.479
			c1.286,3.381,4.495,5.463,7.876,5.463c0.979,0,2.033-0.184,3.013-0.576c4.323-1.666,6.516-6.541,4.875-10.889L583.402,701.121z"/>
		<polygon style="fill:#434A54;" points="446.539,673.06 564.993,673.06 505.759,517.996 		"/>
		<g>
			<path style="fill:#1CABEA;" d="M426.721,403.069c2.927,2.83,7.374,3.075,10.595,0.87c0.465-0.318,0.906-0.71,1.311-1.114
				c3.209-3.393,3.099-8.721-0.258-11.918c-20.847-19.915-21.606-53.084-1.702-73.931c3.209-3.332,3.099-8.684-0.257-11.905
				c-3.393-3.233-8.684-3.099-11.918,0.282C398.169,332.898,399.162,376.748,426.721,403.069z"/>
			<path style="fill:#1CABEA;" d="M401.697,429.281c2.94,2.805,7.398,3.074,10.631,0.845c0.429-0.331,0.882-0.698,1.274-1.127
				c3.233-3.356,3.123-8.696-0.282-11.942c-17.061-16.29-26.763-38.337-27.326-61.94c-0.526-23.639,8.182-46.042,24.497-63.14
				c3.221-3.381,3.086-8.709-0.27-11.93c-3.368-3.209-8.684-3.099-11.905,0.294c-19.439,20.308-29.8,47.046-29.151,75.156
				C369.815,383.631,381.353,409.83,401.697,429.281z"/>
			<path style="fill:#1CABEA;" d="M388.726,454.782c0.49-0.343,0.906-0.686,1.335-1.115c3.21-3.393,3.075-8.708-0.281-11.93
				c-23.664-22.623-37.112-53.097-37.86-85.849c-0.747-32.74,11.305-63.789,33.928-87.465c3.209-3.38,3.099-8.721-0.27-11.93
				c-3.356-3.221-8.709-3.111-11.93,0.27c-25.71,26.922-39.428,62.271-38.583,99.53c0.833,37.223,16.144,71.898,43.078,97.632
				C381.083,456.741,385.505,456.986,388.726,454.782z"/>
			<path style="fill:#1CABEA;" d="M571.337,402.824c0.404,0.404,0.869,0.796,1.311,1.114c3.233,2.205,7.655,1.96,10.607-0.87
				c27.559-26.321,28.551-70.171,2.229-97.717c-3.233-3.38-8.537-3.515-11.93-0.282c-3.356,3.221-3.454,8.574-0.258,11.905
				c19.916,20.847,19.145,54.016-1.69,73.931C568.238,394.103,568.14,399.431,571.337,402.824z"/>
			<path style="fill:#1CABEA;" d="M623.968,355.117c-0.563,23.602-10.264,45.65-27.338,61.94c-3.357,3.246-3.504,8.586-0.27,11.942
				c0.404,0.429,0.857,0.796,1.273,1.127c3.233,2.229,7.704,1.96,10.632-0.845c20.332-19.451,31.895-45.65,32.531-73.784
				c0.638-28.11-9.713-54.848-29.151-75.156c-3.221-3.392-8.524-3.503-11.917-0.294c-3.356,3.221-3.467,8.549-0.245,11.93
				C615.798,309.075,624.483,331.478,623.968,355.117z"/>
			<path style="fill:#1CABEA;" d="M658.044,355.888c-0.735,32.752-14.196,63.226-37.872,85.849
				c-3.332,3.221-3.467,8.537-0.258,11.93c0.404,0.429,0.846,0.772,1.311,1.115c3.234,2.205,7.668,1.96,10.607-0.857
				c26.947-25.734,42.232-60.409,43.09-97.632c0.82-37.259-12.885-72.608-38.595-99.53c-3.245-3.38-8.573-3.491-11.942-0.27
				c-3.355,3.209-3.478,8.55-0.269,11.93C646.726,292.099,658.779,323.148,658.044,355.888z"/>
		</g>
	</g>
</g>
<g id="Layer_1">
</g>
</svg>
