<?xml version="1.0" encoding="utf-8"?>
<!-- Generator: Adobe Illustrator 16.0.0, SVG Export Plug-In . SVG Version: 6.00 Build 0)  -->
<!DOCTYPE svg PUBLIC "-//W3C//DTD SVG 1.1//EN" "http://www.w3.org/Graphics/SVG/1.1/DTD/svg11.dtd">
<svg version="1.1" id="Layer_1" xmlns="http://www.w3.org/2000/svg" xmlns:xlink="http://www.w3.org/1999/xlink" x="0px" y="0px"
	 width="24px" height="24px" viewBox="0 0 24 24" enable-background="new 0 0 24 24" xml:space="preserve">
<g>
	<rect x="11" y="16.1" width="2" height="4.9"/>
	<path d="M8.4,16.8c0.4,0,0.7-0.3,0.7-0.7c0-0.2-0.1-0.4-0.2-0.5c-0.1-0.1-0.3-0.2-0.5-0.2c-0.4,0-0.7,0.3-0.7,0.7
		C7.7,16.5,8,16.8,8.4,16.8z"/>
	<path d="M6.8,16.8c0.4,0,0.7-0.3,0.7-0.8c0-0.4-0.3-0.7-0.7-0.7c-0.2,0-0.4,0.1-0.5,0.2c-0.1,0.1-0.2,0.3-0.2,0.5
		C6.1,16.5,6.4,16.8,6.8,16.8z"/>
	<circle cx="5.2" cy="16.1" r="0.7"/>
	<path d="M18.8,16.8c0.4,0,0.7-0.3,0.7-0.7c0-0.2-0.1-0.4-0.2-0.5c-0.1-0.1-0.3-0.2-0.5-0.2c-0.4,0-0.7,0.3-0.7,0.7
		C18.1,16.5,18.4,16.8,18.8,16.8z"/>
	<path d="M17.2,16.8c0.4,0,0.7-0.3,0.7-0.7c0-0.4-0.3-0.7-0.7-0.7c-0.2,0-0.4,0.1-0.5,0.2c-0.1,0.1-0.2,0.3-0.2,0.5
		C16.5,16.5,16.8,16.8,17.2,16.8z"/>
	<circle cx="15.6" cy="16.1" r="0.7"/>
	<path d="M11.1,12.2H13c0.3,0,0.5-0.2,0.5-0.5s-0.2-0.5-0.5-0.5h-1.9c-0.3,0-0.5,0.2-0.5,0.5S10.8,12.2,11.1,12.2z"/>
	<path d="M22.5,9.3c-0.3,0-0.5,0.2-0.5,0.5c0,0.2,0.1,0.3,0.3,0.4h-1.5V9.7c0-3.5-3-6.3-6.6-6.3h-1.3c0.3-0.3,0.5-0.6,0.5-1
		c0-0.8-0.6-1.4-1.4-1.4s-1.4,0.6-1.4,1.4c0,0.4,0.2,0.8,0.5,1H9.8c-3.6,0-6.5,2.8-6.5,6.3v0.6H1.7C1.9,10.2,2,10,2,9.8
		c0-0.3-0.2-0.5-0.5-0.5c-0.8,0-1.4,0.6-1.4,1.4c0,0.8,0.6,1.4,1.4,1.4c0.3,0,0.5-0.2,0.5-0.5c0-0.1-0.1-0.2-0.1-0.3h1.4v2.9v2.2
		c0,1.8,0.8,3.4,1.9,4.7v1c0,0.3,0.2,0.5,0.5,0.5s0.5-0.2,0.5-0.5v-0.1c1,0.6,2.1,1,3.3,1.1c0,0,0,0,0.1,0h0.2h4.4h0.2
		c0,0,0,0,0.1,0c1.2-0.1,2.4-0.5,3.3-1.2V22c0,0.3,0.2,0.5,0.5,0.5s0.5-0.2,0.5-0.5v-1c0,0,0,0,0,0c1.2-1.2,2-2.8,2-4.6v-2.2v-2.9
		h1.4c-0.1,0.1-0.1,0.2-0.1,0.3c0,0.3,0.2,0.5,0.5,0.5c0.8,0,1.4-0.6,1.4-1.4C23.9,10,23.3,9.3,22.5,9.3z M12,2.1
		c0.2,0,0.4,0.2,0.4,0.4c0,0.2-0.2,0.4-0.4,0.4c-0.2,0-0.4-0.2-0.4-0.4C11.6,2.2,11.8,2.1,12,2.1z M9.8,4.4h4.4c2,0,3.8,1.4,4.7,2.9
		H5.1C6,5.8,7.8,4.4,9.8,4.4z M4.5,8.3h15.2c0.1,0.3,0.1,0.6,0.2,0.9H4.3C4.3,9,4.4,8.6,4.5,8.3z M14.4,21.9c-0.1,0-0.1,0-0.2,0H9.8
		c-0.1,0-0.1,0-0.2,0c0,0,0-0.1-0.1-0.1l1-6.6c0,0,0,0,0,0l3,0c0,0,0,0,0,0l1,6.5C14.4,21.8,14.4,21.9,14.4,21.9z M19.8,10.8v3.4
		v2.2c0,2.6-1.9,4.9-4.4,5.5c0,0,0-0.1,0-0.1l-1-6.5c0-0.6-0.4-1-1-1h-3c-0.6,0-1,0.4-1,0.9l-1,6.7c0,0,0,0,0,0.1
		c-2.4-0.6-4.3-2.9-4.3-5.5v-2.2v-3.4v-0.5h15.6V10.8z"/>
</g>
</svg>
