<?xml version="1.0" encoding="utf-8"?>
<!-- Generator: Adobe Illustrator 16.0.0, SVG Export Plug-In . SVG Version: 6.00 Build 0)  -->
<!DOCTYPE svg PUBLIC "-//W3C//DTD SVG 1.1//EN" "http://www.w3.org/Graphics/SVG/1.1/DTD/svg11.dtd">
<svg version="1.1" id="Layer_1" xmlns="http://www.w3.org/2000/svg" xmlns:xlink="http://www.w3.org/1999/xlink" x="0px" y="0px"
	 width="24px" height="24px" viewBox="0 0 24 24" enable-background="new 0 0 24 24" xml:space="preserve">
<g>
	<path d="M18.2,13.5c-0.2-0.2-0.5-0.2-0.7,0l-4.4,4.4c-0.2,0.2-0.2,0.5,0,0.7c0.1,0.1,0.2,0.1,0.4,0.1s0.3,0,0.4-0.1l4.4-4.4
		C18.4,14,18.4,13.7,18.2,13.5z"/>
	<path d="M17.6,16l-2.3,2.3c-0.2,0.2-0.2,0.5,0,0.7c0.1,0.1,0.2,0.1,0.4,0.1s0.3,0,0.4-0.1l2.3-2.3c0.2-0.2,0.2-0.5,0-0.7
		S17.8,15.8,17.6,16z"/>
	<path d="M23.2,20.3h-2.6v-8.9c0.8-0.2,1.4-0.7,1.4-1.4V6.6c0,0,0,0,0,0c0,0,0,0,0,0c0-0.2-0.1-0.3-0.2-0.4l-2.5-3.2
		c-0.1-0.1-0.2-0.2-0.4-0.2H4.7c-0.2,0-0.3,0.1-0.4,0.2L1.7,6.3c0,0,0,0.1,0,0.1C1.6,6.4,1.6,6.5,1.6,6.6v3.5c0,0.7,0.7,1.3,1.7,1.4
		v8.8H0.8c-0.3,0-0.5,0.2-0.5,0.5s0.2,0.5,0.5,0.5h3.1h4.6h11.7h3.1c0.3,0,0.5-0.2,0.5-0.5S23.5,20.3,23.2,20.3z M5.5,10.3
		c0-0.1,0-0.1,0-0.2v-3h1.6v3c0,0.1,0,0.1,0,0.2c-0.2,0.1-0.4,0.2-0.8,0.2C6,10.5,5.7,10.4,5.5,10.3z M8.3,10.3c0-0.1,0-0.1,0-0.2
		v-3h1.6v3c0,0.1,0,0.1,0,0.2c-0.2,0.1-0.4,0.2-0.8,0.2S8.5,10.4,8.3,10.3z M11,10.3c0-0.1,0-0.1,0-0.2v-3h1.6v3c0,0.1,0,0.1,0,0.2
		c-0.2,0.1-0.4,0.2-0.8,0.2S11.2,10.4,11,10.3z M13.8,10.3c0-0.1,0-0.1,0-0.2v-3h1.6v3c0,0.1,0,0.1,0,0.2c-0.2,0.1-0.4,0.2-0.8,0.2
		S14,10.4,13.8,10.3z M16.6,10.3c0-0.1,0-0.1,0-0.2v-3h1.6v3c0,0.1,0,0.1,0,0.2c-0.2,0.1-0.4,0.2-0.8,0.2
		C17,10.5,16.7,10.4,16.6,10.3z M21.1,10.1c0,0.1-0.4,0.4-1,0.4c-0.4,0-0.6-0.1-0.8-0.2c0-0.1,0-0.1,0-0.2v-3h1.8V10.1z M4.9,3.7
		h13.8l1.8,2.3H3.1L4.9,3.7z M2.6,10.1v-3h1.8v3c0,0.1,0,0.1,0,0.2c-0.2,0.1-0.4,0.2-0.8,0.2C3,10.5,2.6,10.2,2.6,10.1z M4.3,20.3
		v-8.8h3.6v5.1c-0.1-0.1-0.2-0.2-0.4-0.2H6.6c-0.3,0-0.5,0.2-0.5,0.5s0.2,0.5,0.5,0.5h0.9c0.2,0,0.3-0.1,0.4-0.2v3.2H4.3z M8.9,20.3
		v-8.8h10.7v8.8H8.9z"/>
</g>
</svg>
