<?xml version="1.0" encoding="utf-8"?>
<!-- Generator: Adobe Illustrator 16.0.0, SVG Export Plug-In . SVG Version: 6.00 Build 0)  -->
<!DOCTYPE svg PUBLIC "-//W3C//DTD SVG 1.1//EN" "http://www.w3.org/Graphics/SVG/1.1/DTD/svg11.dtd">
<svg version="1.1" id="Layer_1" xmlns="http://www.w3.org/2000/svg" xmlns:xlink="http://www.w3.org/1999/xlink" x="0px" y="0px"
	 width="32px" height="32px" viewBox="0 0 32 32" enable-background="new 0 0 32 32" xml:space="preserve">
<g>
	<g>
		<circle fill="#FFAB00" cx="16" cy="16" r="14.7"/>
		<path fill="#37474F" d="M16,31.2C7.6,31.2,0.8,24.4,0.8,16C0.8,7.6,7.6,0.8,16,0.8c8.4,0,15.2,6.8,15.2,15.2
			C31.2,24.4,24.4,31.2,16,31.2z M16,1.8C8.2,1.8,1.8,8.2,1.8,16c0,7.8,6.4,14.2,14.2,14.2c7.8,0,14.2-6.4,14.2-14.2
			C30.2,8.2,23.8,1.8,16,1.8z"/>
	</g>
	<g>
		<g>
			<line fill="#FFECB3" x1="16" y1="1.9" x2="16" y2="29.9"/>
			<path fill="#37474F" d="M16,30.4c-0.3,0-0.5-0.2-0.5-0.5v-28c0-0.3,0.2-0.5,0.5-0.5s0.5,0.2,0.5,0.5v28
				C16.5,30.2,16.3,30.4,16,30.4z"/>
		</g>
		<g>
			<line fill="#FFECB3" x1="30.5" y1="16.4" x2="1.5" y2="16.4"/>
			<path fill="#37474F" d="M30.5,16.9h-29c-0.3,0-0.5-0.2-0.5-0.5s0.2-0.5,0.5-0.5h29c0.3,0,0.5,0.2,0.5,0.5S30.8,16.9,30.5,16.9z"
				/>
		</g>
	</g>
	<g>
		<path fill="#FFECB3" d="M27.8,16c0,6.5-5.3,11.8-11.8,11.8S4.2,22.5,4.2,16C4.2,9.5,9.5,4.2,16,4.2c4,0,7.5,2,9.7,5.1
			C27,11.2,27.8,13.5,27.8,16z"/>
		<path fill="#37474F" d="M16,28.3C9.2,28.3,3.7,22.8,3.7,16C3.7,9.2,9.2,3.7,16,3.7c4,0,7.8,2,10.1,5.3c1.4,2.1,2.2,4.5,2.2,7
			C28.3,22.8,22.8,28.3,16,28.3z M16,4.7C9.8,4.7,4.7,9.8,4.7,16c0,6.2,5,11.3,11.3,11.3s11.3-5,11.3-11.3c0-2.3-0.7-4.5-2-6.4
			C23.1,6.6,19.7,4.7,16,4.7z"/>
	</g>
	<g>
		<g>
			<polygon fill="#37474F" points="13,22.3 23.2,16 13,9.7 			"/>
			<path fill="#37474F" d="M13,22.8c-0.1,0-0.2,0-0.2-0.1c-0.2-0.1-0.3-0.3-0.3-0.4V9.7c0-0.2,0.1-0.3,0.3-0.4
				c0.2-0.1,0.4-0.1,0.5,0l10.2,6.3c0.1,0.1,0.2,0.3,0.2,0.4s-0.1,0.3-0.2,0.4l-10.2,6.3C13.2,22.8,13.1,22.8,13,22.8z M13.5,10.6
				v10.8l8.8-5.4L13.5,10.6z"/>
		</g>
		<g>
			<g>
				<path fill="#37474F" d="M10,18.9c0.3,0,0.5,0.2,0.5,0.5c0,0.3-0.2,0.5-0.5,0.5c-0.3,0-0.5-0.2-0.5-0.5
					C9.5,19.2,9.7,18.9,10,18.9z"/>
				<path fill="#37474F" d="M10,20.4c-0.5,0-1-0.4-1-1c0-0.2,0.1-0.5,0.3-0.7s0.4-0.3,0.7-0.3c0.5,0,1,0.4,1,1
					C11,20,10.6,20.4,10,20.4z"/>
			</g>
			<g>
				<path fill="#37474F" d="M10,15.5c0.3,0,0.5,0.2,0.5,0.5c0,0.3-0.2,0.5-0.5,0.5c-0.3,0-0.5-0.2-0.5-0.5
					C9.5,15.7,9.7,15.5,10,15.5z"/>
				<path fill="#37474F" d="M10,17L10,17c-0.6,0-1-0.5-1-1c0-0.6,0.5-1,1-1c0.5,0,1,0.4,1,1C11,16.5,10.6,17,10,17L10,17z"/>
			</g>
			<g>
				<path fill="#37474F" d="M10,12.1c0.3,0,0.5,0.2,0.5,0.5c0,0.3-0.2,0.5-0.5,0.5c-0.3,0-0.5-0.2-0.5-0.5
					C9.5,12.3,9.7,12.1,10,12.1z"/>
				<path fill="#37474F" d="M10,13.6c-0.3,0-0.5-0.1-0.7-0.3C9.1,13.1,9,12.8,9,12.6c0-0.2,0.1-0.5,0.3-0.7s0.4-0.3,0.7-0.3
					c0.5,0,1,0.4,1,1S10.6,13.6,10,13.6z"/>
			</g>
		</g>
	</g>
</g>
</svg>
