<?xml version="1.0" encoding="utf-8"?>
<!-- Generator: Adobe Illustrator 16.0.0, SVG Export Plug-In . SVG Version: 6.00 Build 0)  -->
<!DOCTYPE svg PUBLIC "-//W3C//DTD SVG 1.1//EN" "http://www.w3.org/Graphics/SVG/1.1/DTD/svg11.dtd">
<svg version="1.1" id="Layer_1" xmlns="http://www.w3.org/2000/svg" xmlns:xlink="http://www.w3.org/1999/xlink" x="0px" y="0px"
	 width="24px" height="24px" viewBox="0 0 24 24" enable-background="new 0 0 24 24" xml:space="preserve">
<g>
	<path d="M23.3,10.4c-0.3,0-0.5,0.2-0.5,0.5c0,1-0.9,1.8-2.1,1.8s-2.1-0.8-2.1-1.8c0-0.3-0.2-0.5-0.5-0.5s-0.5,0.2-0.5,0.5
		c0,1-0.9,1.8-2.1,1.8s-2.1-0.8-2.1-1.8c0-0.3-0.2-0.5-0.5-0.5s-0.5,0.2-0.5,0.5c0,1-0.9,1.8-2.1,1.8s-2.1-0.8-2.1-1.8V4.1
		c0-0.8,0.6-1.4,1.4-1.4h1.5c0.3,0,0.5-0.2,0.5-0.5s-0.2-0.5-0.5-0.5H9.7c-1.3,0-2.4,1.1-2.4,2.4v0.8H4.3V4.1c0-0.8,0.6-1.4,1.4-1.4
		h1.5c0.3,0,0.5-0.2,0.5-0.5S7.5,1.7,7.2,1.7H5.7c-1.3,0-2.4,1.1-2.4,2.4v11.4c0,0.3,0.2,0.5,0.5,0.5s0.5-0.2,0.5-0.5v-0.9h1.2
		c-0.1,0.1-0.2,0.2-0.2,0.4c0,1-0.9,1.8-2.1,1.8S1.2,16,1.2,15c0-0.3-0.2-0.5-0.5-0.5S0.2,14.8,0.2,15c0,1.6,1.4,2.8,3.1,2.8
		c1.1,0,2-0.5,2.6-1.3c0.6,0.8,1.5,1.3,2.6,1.3s2-0.5,2.6-1.3c0.6,0.8,1.5,1.3,2.6,1.3s2-0.5,2.6-1.3c0.6,0.8,1.5,1.3,2.6,1.3
		c1.7,0,3.1-1.3,3.1-2.8c0-0.3-0.2-0.5-0.5-0.5s-0.5,0.2-0.5,0.5c0,1-0.9,1.8-2.1,1.8S16.7,16,16.7,15c0-0.3-0.2-0.5-0.5-0.5
		s-0.5,0.2-0.5,0.5c0,1-0.9,1.8-2.1,1.8S11.5,16,11.5,15c0-0.3-0.2-0.5-0.5-0.5s-0.5,0.2-0.5,0.5c0,1-0.9,1.8-2.1,1.8S6.3,16,6.3,15
		c0-0.2-0.1-0.3-0.2-0.4h1.2v0.9c0,0.3,0.2,0.5,0.5,0.5s0.5-0.2,0.5-0.5V13c0.6,0.5,1.3,0.8,2.1,0.8c1.1,0,2-0.5,2.6-1.3
		c0.6,0.8,1.5,1.3,2.6,1.3s2-0.5,2.6-1.3c0.6,0.8,1.5,1.3,2.6,1.3c1.7,0,3.1-1.3,3.1-2.8C23.8,10.6,23.6,10.4,23.3,10.4z M4.3,8.8
		h2.9v1.9H4.3V8.8z M7.3,5.9v1.9H4.3V5.9H7.3z M4.3,13.6v-1.9h2.9v1.9H4.3z"/>
	<path d="M23,19c-0.3,0-0.5,0.2-0.5,0.5c0,1-0.9,1.8-2.1,1.8s-2.1-0.8-2.1-1.8c0-0.3-0.2-0.5-0.5-0.5s-0.5,0.2-0.5,0.5
		c0,1-0.9,1.8-2.1,1.8s-2.1-0.8-2.1-1.8c0-0.3-0.2-0.5-0.5-0.5s-0.5,0.2-0.5,0.5c0,1-0.9,1.8-2.1,1.8s-2.1-0.8-2.1-1.8
		c0-0.3-0.2-0.5-0.5-0.5s-0.5,0.2-0.5,0.5c0,1-0.9,1.8-2.1,1.8s-2.1-0.8-2.1-1.8c0-0.3-0.2-0.5-0.5-0.5s-0.5,0.2-0.5,0.5
		c0,1.6,1.4,2.8,3.1,2.8c1.1,0,2-0.5,2.6-1.3c0.6,0.8,1.5,1.3,2.6,1.3s2-0.5,2.6-1.3c0.6,0.8,1.5,1.3,2.6,1.3s2-0.5,2.6-1.3
		c0.6,0.8,1.5,1.3,2.6,1.3c1.7,0,3.1-1.3,3.1-2.8C23.5,19.2,23.2,19,23,19z"/>
	<path d="M0.8,4.5C0.5,4.5,0.3,4.7,0.3,5s0.2,0.5,0.5,0.5h2c0.3,0,0.5-0.2,0.5-0.5S3.1,4.5,2.8,4.5H0.8z"/>
	<path d="M9,5c0,0.3,0.2,0.5,0.5,0.5h11.4c0.3,0,0.5-0.2,0.5-0.5s-0.2-0.5-0.5-0.5H9.5C9.2,4.5,9,4.7,9,5z"/>
</g>
</svg>
