<?xml version="1.0" encoding="utf-8"?>
<!-- Generator: Adobe Illustrator 16.0.0, SVG Export Plug-In . SVG Version: 6.00 Build 0)  -->
<!DOCTYPE svg PUBLIC "-//W3C//DTD SVG 1.1//EN" "http://www.w3.org/Graphics/SVG/1.1/DTD/svg11.dtd">
<svg version="1.1" id="Layer_1" xmlns="http://www.w3.org/2000/svg" xmlns:xlink="http://www.w3.org/1999/xlink" x="0px" y="0px"
	 width="128px" height="128px" viewBox="0 0 128 128" enable-background="new 0 0 128 128" xml:space="preserve">
<g>
	<g>
		<polyline fill="#FFECB3" points="72,45.8 72,37.3 118,37.3 118,52.2 105.8,64.1 		"/>
		<path fill="#37474F" d="M105.8,65.6c-0.4,0-0.8-0.2-1.1-0.5c-0.6-0.6-0.6-1.5,0-2.1l11.8-11.5V38.8h-43v7c0,0.8-0.7,1.5-1.5,1.5
			s-1.5-0.7-1.5-1.5v-8.5c0-0.8,0.7-1.5,1.5-1.5h46c0.8,0,1.5,0.7,1.5,1.5v14.9c0,0.4-0.2,0.8-0.5,1.1l-12.2,11.9
			C106.5,65.5,106.1,65.6,105.8,65.6z"/>
	</g>
	<g>
		<path fill="#37474F" d="M34.7,67.9c-0.7,0-1.3-0.4-1.4-1.1L18.6,11.8c-0.2-0.8,0.3-1.6,1.1-1.8c0.8-0.2,1.6,0.3,1.8,1.1L36.2,66
			c0.2,0.8-0.3,1.6-1.1,1.8C35,67.8,34.8,67.9,34.7,67.9z"/>
	</g>
	<g>
		<path fill="#37474F" d="M32.4,67.9c-0.1,0-0.3,0-0.4-0.1c-0.8-0.2-1.3-1-1.1-1.8l14.6-54.9c0.2-0.8,1-1.3,1.8-1.1
			c0.8,0.2,1.3,1,1.1,1.8L33.9,66.7C33.7,67.4,33.1,67.9,32.4,67.9z"/>
	</g>
	<g>
		<path fill="#37474F" d="M122,108.5c0,8.6-7,15.8-15.7,15.8H21.7C13,124.3,6,117.1,6,108.5V68.1c0-8.6,7-15.8,15.7-15.8h84.6
			c8.6,0,15.7,7.2,15.7,15.8V108.5z"/>
		<path fill="#37474F" d="M106.3,125.8H21.7c-9.5,0-17.2-7.8-17.2-17.3V68.1c0-9.5,7.7-17.3,17.2-17.3h84.6
			c9.5,0,17.2,7.8,17.2,17.3v40.4C123.5,118,115.8,125.8,106.3,125.8z M21.7,53.8c-7.8,0-14.2,6.4-14.2,14.3v40.4
			c0,7.9,6.4,14.3,14.2,14.3h84.6c7.8,0,14.2-6.4,14.2-14.3V68.1c0-7.9-6.4-14.3-14.2-14.3H21.7z"/>
	</g>
	<g>
		<path fill="#FFAB00" d="M111.8,74.8c0.1,0,0.3-6.5,0.3-6.9c0-4-3.2-7.1-7.2-7.1H23.2c-4,0-7.2,3.1-7.2,7.1c0,0.5,0.2,6.9,0.3,6.9
			H111.8z"/>
	</g>
	<g>
		<g>
			<path fill="#B0BEC5" d="M55.5,87.8h-36c-0.8,0-1.5-0.7-1.5-1.5s0.7-1.5,1.5-1.5h36c0.8,0,1.5,0.7,1.5,1.5S56.3,87.8,55.5,87.8z"
				/>
		</g>
		<g>
			<path fill="#B0BEC5" d="M55.5,95.8h-36c-0.8,0-1.5-0.7-1.5-1.5s0.7-1.5,1.5-1.5h36c0.8,0,1.5,0.7,1.5,1.5S56.3,95.8,55.5,95.8z"
				/>
		</g>
		<g>
			<path fill="#B0BEC5" d="M55.5,104.8h-36c-0.8,0-1.5-0.7-1.5-1.5s0.7-1.5,1.5-1.5h36c0.8,0,1.5,0.7,1.5,1.5S56.3,104.8,55.5,104.8
				z"/>
		</g>
		<g>
			<path fill="#B0BEC5" d="M55.5,113.8h-36c-0.8,0-1.5-0.7-1.5-1.5s0.7-1.5,1.5-1.5h36c0.8,0,1.5,0.7,1.5,1.5S56.3,113.8,55.5,113.8
				z"/>
		</g>
	</g>
	<g>
		<g>
			<path fill="#37474F" d="M98.9,67.6c0-1,0.8-1.7,1.7-1.7c0.9,0,1.7,0.7,1.7,1.7c0,0.9-0.8,1.7-1.7,1.7
				C99.7,69.3,98.9,68.5,98.9,67.6z"/>
			<path fill="#37474F" d="M100.5,69.7c-1.2,0-2.1-1-2.1-2.2c0-1.2,1-2.2,2.2-2.2c0.6,0,1.2,0.2,1.6,0.7c0.4,0.4,0.6,1,0.6,1.6
				C102.8,68.8,101.8,69.7,100.5,69.7L100.5,69.7z M100.6,66.4c-0.7,0-1.2,0.5-1.2,1.2c0,0.6,0.5,1.2,1.1,1.2v0.5l0-0.5
				c0.7,0,1.2-0.5,1.2-1.2c0-0.3-0.1-0.6-0.3-0.8C101.2,66.5,100.9,66.4,100.6,66.4z"/>
		</g>
		<g>
			<path fill="#37474F" d="M87.2,67.6c0-1,0.7-1.7,1.7-1.7c0.9,0,1.7,0.7,1.7,1.7c0,0.9-0.8,1.7-1.7,1.7
				C87.9,69.2,87.2,68.5,87.2,67.6z"/>
			<path fill="#37474F" d="M88.8,69.8L88.8,69.8c-1.2,0-2.1-1-2.1-2.2c0-0.6,0.2-1.1,0.6-1.6c0.4-0.4,1-0.6,1.5-0.6
				c1.2,0,2.2,1,2.2,2.2C91,68.8,90,69.8,88.8,69.8z M88.8,66.4c-0.3,0-0.6,0.1-0.8,0.3c-0.2,0.2-0.3,0.5-0.3,0.8
				c0,0.6,0.5,1.2,1.2,1.2c0.7,0,1.2-0.5,1.2-1.2C90,66.9,89.5,66.4,88.8,66.4z"/>
		</g>
		<g>
			<path fill="#37474F" d="M75.4,67.6c0-0.9,0.8-1.7,1.7-1.7c0.9,0,1.7,0.7,1.7,1.7c0,0.9-0.8,1.7-1.7,1.7
				C76.2,69.3,75.4,68.5,75.4,67.6z"/>
			<path fill="#37474F" d="M77.2,69.7L77.2,69.7C77.1,69.7,77.1,69.7,77.2,69.7c-1.3,0-2.2-1-2.2-2.2c0-1.2,1-2.2,2.2-2.2
				c1.2,0,2.2,1,2.2,2.2C79.3,68.8,78.3,69.7,77.2,69.7z M77.1,66.4c-0.6,0-1.2,0.5-1.2,1.2c0,0.6,0.5,1.2,1.1,1.2l0.1,0.5v-0.5
				c0.6,0,1.1-0.5,1.1-1.2C78.3,66.9,77.8,66.4,77.1,66.4z"/>
		</g>
	</g>
	<g>
		<g>
			<path fill="#FFAB00" d="M112,99.8c0,9-7.3,16.4-16.4,16.4c-9.1,0-16.4-7.3-16.4-16.4c0-9.1,7.3-16.4,16.4-16.4
				C104.7,83.4,112,90.7,112,99.8z"/>
			<path fill="#37474F" d="M95.7,117.6c-9.9,0-17.9-8-17.9-17.9c0-9.9,8-17.9,17.9-17.9c9.9,0,17.9,8,17.9,17.9
				C113.5,109.6,105.5,117.6,95.7,117.6z M95.7,84.9c-8.2,0-14.9,6.7-14.9,14.9c0,8.2,6.7,14.9,14.9,14.9c8.2,0,14.9-6.7,14.9-14.9
				C110.5,91.5,103.9,84.9,95.7,84.9z"/>
		</g>
		<g>
			<path fill="#FFECB3" d="M103.1,99.8c0,4.1-3.3,7.4-7.4,7.4s-7.4-3.3-7.4-7.4c0-4.1,3.3-7.4,7.4-7.4S103.1,95.6,103.1,99.8z"/>
			<path fill="#37474F" d="M95.7,108.7c-4.9,0-8.9-4-8.9-8.9c0-4.9,4-8.9,8.9-8.9c4.9,0,8.9,4,8.9,8.9
				C104.6,104.7,100.6,108.7,95.7,108.7z M95.7,93.8c-3.3,0-5.9,2.7-5.9,5.9c0,3.3,2.7,5.9,5.9,5.9c3.3,0,5.9-2.6,5.9-5.9
				C101.6,96.5,98.9,93.8,95.7,93.8z"/>
		</g>
	</g>
	<g>
		<path fill="#FFECB3" d="M25.3,9.2c0,3-2.5,5.5-5.5,5.5c-3,0-5.5-2.5-5.5-5.5c0-3,2.5-5.5,5.5-5.5C22.8,3.7,25.3,6.2,25.3,9.2z"/>
		<path fill="#37474F" d="M19.8,16.2c-3.9,0-7-3.1-7-7c0-3.9,3.1-7,7-7s7,3.1,7,7C26.8,13,23.6,16.2,19.8,16.2z M19.8,5.2
			c-2.2,0-4,1.8-4,4c0,2.2,1.8,4,4,4s4-1.8,4-4C23.8,7,22,5.2,19.8,5.2z"/>
	</g>
	<g>
		<path fill="#FFECB3" d="M52.7,9.2c0,3-2.5,5.5-5.5,5.5c-3,0-5.5-2.5-5.5-5.5c0-3,2.5-5.5,5.5-5.5C50.2,3.7,52.7,6.2,52.7,9.2z"/>
		<path fill="#37474F" d="M47.2,16.2c-3.9,0-7-3.1-7-7c0-3.9,3.1-7,7-7s7,3.1,7,7C54.2,13,51.1,16.2,47.2,16.2z M47.2,5.2
			c-2.2,0-4,1.8-4,4c0,2.2,1.8,4,4,4s4-1.8,4-4C51.2,7,49.4,5.2,47.2,5.2z"/>
	</g>
</g>
</svg>
