<?xml version="1.0" encoding="utf-8"?>
<!-- Generator: Adobe Illustrator 16.0.0, SVG Export Plug-In . SVG Version: 6.00 Build 0)  -->
<!DOCTYPE svg PUBLIC "-//W3C//DTD SVG 1.1//EN" "http://www.w3.org/Graphics/SVG/1.1/DTD/svg11.dtd">
<svg version="1.1" id="Layer_1" xmlns="http://www.w3.org/2000/svg" xmlns:xlink="http://www.w3.org/1999/xlink" x="0px" y="0px"
	 width="32px" height="32px" viewBox="0 0 32 32" enable-background="new 0 0 32 32" xml:space="preserve">
<g>
	<g>
		<rect x="23.1" y="13" transform="matrix(0.9549 0.2971 -0.2971 0.9549 6.8019 -6.8293)" fill="#37474F" width="5.6" height="12"/>
		<path fill="#37474F" d="M26.8,26c0,0-0.1,0-0.1,0l-5.3-1.6C21,24.2,20.9,24,21,23.7l3.5-11.4c0.1-0.3,0.4-0.4,0.6-0.3l5.3,1.6
			c0.1,0,0.2,0.1,0.3,0.2s0.1,0.3,0,0.4l-3.5,11.4c0,0.1-0.1,0.2-0.2,0.3C26.9,26,26.8,26,26.8,26z M22.1,23.5l4.3,1.4l3.2-10.5
			l-4.3-1.3L22.1,23.5z"/>
	</g>
	<g>
		<g>
			<g>
				<ellipse fill="#FFFFFF" cx="7.3" cy="12.7" rx="2.3" ry="3.9"/>
				<path fill="#37474F" d="M7.3,17c-1.6,0-2.8-1.9-2.8-4.4c0-2.4,1.2-4.4,2.8-4.4c1.6,0,2.8,1.9,2.8,4.4C10.1,15.1,8.9,17,7.3,17z
					 M7.3,9.3c-0.9,0-1.8,1.4-1.8,3.4c0,2,0.9,3.4,1.8,3.4c0.9,0,1.8-1.4,1.8-3.4C9.1,10.6,8.2,9.3,7.3,9.3z"/>
			</g>
			<g>
				<polygon fill="#FFAB00" points="21.2,18.5 10.2,15.5 10.2,9.8 21.2,6.9 				"/>
				<path fill="#37474F" d="M21.2,19c0,0-0.1,0-0.1,0l-11-2.9c-0.2-0.1-0.4-0.3-0.4-0.5V9.8c0-0.2,0.2-0.4,0.4-0.5l11-2.9
					c0.2,0,0.3,0,0.4,0.1c0.1,0.1,0.2,0.2,0.2,0.4v11.6c0,0.2-0.1,0.3-0.2,0.4C21.4,18.9,21.3,19,21.2,19z M10.7,15.1l10,2.7V7.5
					l-10,2.7V15.1z"/>
			</g>
			<g>
				<path fill="#FFAB00" d="M31.3,12.7c0,3.7-3,6.6-6.6,6.6s-6.6-3-6.6-6.6C18,9,21,6,24.7,6S31.3,9,31.3,12.7z"/>
				<path fill="#37474F" d="M24.7,19.8c-3.9,0-7.1-3.2-7.1-7.1c0-3.9,3.2-7.1,7.1-7.1c3.9,0,7.1,3.2,7.1,7.1
					C31.8,16.6,28.6,19.8,24.7,19.8z M24.7,6.5c-3.4,0-6.1,2.7-6.1,6.1c0,3.4,2.7,6.1,6.1,6.1c3.4,0,6.1-2.8,6.1-6.1
					C30.8,9.3,28,6.5,24.7,6.5z"/>
			</g>
			<g>
				<polygon fill="#FFECB3" points="24.7,19.1 18.2,12.7 24.7,6.2 31.1,12.7 				"/>
				<path fill="#37474F" d="M24.7,19.6c-0.1,0-0.3-0.1-0.4-0.1L17.9,13c-0.2-0.2-0.2-0.5,0-0.7l6.4-6.4c0.2-0.2,0.5-0.2,0.7,0
					l6.4,6.4c0.2,0.2,0.2,0.5,0,0.7L25,19.4C24.9,19.5,24.8,19.6,24.7,19.6z M19,12.7l5.7,5.7l5.7-5.7l-5.7-5.7L19,12.7z"/>
			</g>
			<g>
				<polygon fill="#37474F" points="24.7,14.7 22.6,12.7 24.7,10.6 26.7,12.7 				"/>
				<path fill="#37474F" d="M24.7,15.2L24.7,15.2c-0.1,0-0.3-0.1-0.4-0.1L22.3,13c-0.1-0.1-0.1-0.2-0.1-0.4s0.1-0.3,0.1-0.4l2.1-2.1
					c0.2-0.2,0.5-0.2,0.7,0l2.1,2.1c0.1,0.1,0.1,0.2,0.1,0.4s-0.1,0.3-0.1,0.4L25,15.1C24.9,15.2,24.8,15.2,24.7,15.2z M23.3,12.7
					l1.4,1.4l1.4-1.4l-1.4-1.4L23.3,12.7z"/>
			</g>
			<g>
				<g>
					<path fill="#FFECB3" d="M10.2,16.1c0,0.5,0,0.9-0.5,0.9l0,0c-0.5,0-0.5-0.4-0.5-0.9V9.2c0-0.5,0-0.9,0.5-0.9l0,0
						c0.5,0,0.5,0.4,0.5,0.9V16.1z"/>
					<path fill="#37474F" d="M9.7,17.5c-1,0-1-1-1-1.4V9.2c0-0.4,0-1.4,1-1.4s1,1,1,1.4v6.9C10.7,16.5,10.7,17.5,9.7,17.5z M9.7,8.8
						c0,0.1,0,0.3,0,0.4C9.7,9.1,9.7,8.8,9.7,8.8z"/>
				</g>
				<g>
					<rect x="6.2" y="7.7" fill="#FFAB00" width="3" height="10"/>
					<path fill="#37474F" d="M9.2,18.2h-3c-0.3,0-0.5-0.2-0.5-0.5v-10c0-0.3,0.2-0.5,0.5-0.5h3c0.3,0,0.5,0.2,0.5,0.5v10
						C9.7,18,9.5,18.2,9.2,18.2z M6.7,17.2h2v-9h-2V17.2z"/>
				</g>
			</g>
			<g>
				<g>
					<g>
						<line fill="#FFECB3" x1="2" y1="4.3" x2="6.4" y2="7.8"/>
						<path fill="#37474F" d="M6.4,8.3c-0.1,0-0.2,0-0.3-0.1L1.7,4.7C1.5,4.5,1.4,4.2,1.6,4c0.2-0.2,0.5-0.3,0.7-0.1l4.4,3.4
							C7,7.5,7,7.8,6.8,8.1C6.7,8.2,6.6,8.3,6.4,8.3z"/>
					</g>
					<g>
						<line fill="#FFECB3" x1="2" y1="21" x2="6.4" y2="17.6"/>
						<path fill="#37474F" d="M2,21.5c-0.1,0-0.3-0.1-0.4-0.2c-0.2-0.2-0.1-0.5,0.1-0.7l4.4-3.4C6.3,17,6.7,17,6.8,17.3
							C7,17.5,7,17.8,6.7,18l-4.4,3.4C2.2,21.5,2.1,21.5,2,21.5z"/>
					</g>
				</g>
				<g>
					<line fill="#FFECB3" x1="0.7" y1="12.7" x2="5.7" y2="12.7"/>
					<path fill="#37474F" d="M5.7,13.2h-5c-0.3,0-0.5-0.2-0.5-0.5s0.2-0.5,0.5-0.5h5c0.3,0,0.5,0.2,0.5,0.5S6,13.2,5.7,13.2z"/>
				</g>
			</g>
		</g>
		<g>
			<g>
				<g>
					<path fill="#37474F" d="M16.6,11.4c0-0.2,0.2-0.3,0.3-0.3c0.2,0,0.3,0.2,0.3,0.3c0,0.2-0.2,0.3-0.3,0.3
						C16.8,11.7,16.6,11.5,16.6,11.4z"/>
					<path fill="#37474F" d="M17,12.2c-0.5,0-0.8-0.4-0.8-0.8c0-0.5,0.4-0.8,0.8-0.8c0.2,0,0.4,0.1,0.6,0.3c0.2,0.2,0.2,0.4,0.2,0.6
						C17.8,11.8,17.4,12.2,17,12.2L17,12.2z"/>
				</g>
				<g>
					<path fill="#37474F" d="M14.3,11.4c0-0.2,0.1-0.3,0.3-0.3c0.2,0,0.3,0.2,0.3,0.3c0,0.2-0.2,0.3-0.3,0.3
						C14.4,11.7,14.3,11.5,14.3,11.4z"/>
					<path fill="#37474F" d="M14.6,12.2L14.6,12.2c-0.5,0-0.8-0.4-0.8-0.8c0-0.2,0.1-0.4,0.2-0.6c0.2-0.2,0.4-0.2,0.6-0.2
						c0.5,0,0.8,0.4,0.8,0.8C15.4,11.8,15.1,12.2,14.6,12.2z"/>
				</g>
				<g>
					<path fill="#37474F" d="M11.9,11.4c0-0.2,0.2-0.3,0.3-0.3s0.3,0.2,0.3,0.3c0,0.2-0.2,0.3-0.3,0.3
						C12.1,11.7,11.9,11.5,11.9,11.4z"/>
					<path fill="#37474F" d="M12.2,12.2L12.2,12.2c-0.5,0-0.8-0.4-0.8-0.8c0-0.5,0.4-0.8,0.8-0.8s0.8,0.4,0.8,0.8
						C13.1,11.8,12.7,12.2,12.2,12.2z M12.2,11.5l0,0.2L12.2,11.5c0.1,0,0.2-0.1,0.2-0.2c0-0.1-0.1-0.2-0.2-0.2v0c0,0,0,0,0,0v0
						c-0.1,0-0.2,0.1-0.2,0.2C12.1,11.4,12.2,11.5,12.2,11.5z"/>
				</g>
			</g>
			<g>
				<g>
					<path fill="#37474F" d="M16.6,14c0-0.2,0.2-0.3,0.3-0.3c0.2,0,0.3,0.2,0.3,0.3c0,0.2-0.2,0.3-0.3,0.3
						C16.8,14.3,16.6,14.1,16.6,14z"/>
					<path fill="#37474F" d="M17,14.8c-0.5,0-0.8-0.4-0.8-0.8c0-0.5,0.4-0.8,0.8-0.8c0.2,0,0.4,0.1,0.6,0.3c0.2,0.2,0.2,0.4,0.2,0.6
						C17.8,14.4,17.4,14.8,17,14.8L17,14.8z"/>
				</g>
				<g>
					<path fill="#37474F" d="M14.3,14c0-0.2,0.1-0.3,0.3-0.3c0.2,0,0.3,0.2,0.3,0.3c0,0.2-0.2,0.3-0.3,0.3
						C14.4,14.3,14.3,14.1,14.3,14z"/>
					<path fill="#37474F" d="M14.6,14.8L14.6,14.8c-0.5,0-0.8-0.4-0.8-0.8c0-0.2,0.1-0.4,0.2-0.6c0.2-0.2,0.4-0.2,0.6-0.2
						c0.5,0,0.8,0.4,0.8,0.8C15.4,14.4,15.1,14.8,14.6,14.8z"/>
				</g>
				<g>
					<path fill="#37474F" d="M11.9,14c0-0.2,0.2-0.3,0.3-0.3s0.3,0.2,0.3,0.3c0,0.2-0.2,0.3-0.3,0.3C12.1,14.3,11.9,14.1,11.9,14z"
						/>
					<path fill="#37474F" d="M12.2,14.8L12.2,14.8L12.2,14.8c-0.5,0-0.8-0.4-0.8-0.8c0-0.5,0.4-0.8,0.8-0.8s0.8,0.4,0.8,0.8
						C13.1,14.4,12.7,14.8,12.2,14.8z M12.2,14.1l0,0.2L12.2,14.1c0.1,0,0.2-0.1,0.2-0.2c0-0.1-0.1-0.2-0.2-0.2v0c0,0,0,0,0,0v0
						c-0.1,0-0.1,0.1-0.1,0.2C12.1,14,12.2,14.1,12.2,14.1z"/>
				</g>
			</g>
		</g>
	</g>
	<g>
		<rect x="20.2" y="23.7" fill="#FFAB00" width="8" height="4"/>
		<path fill="#37474F" d="M28.2,28.2h-8c-0.3,0-0.5-0.2-0.5-0.5v-4c0-0.3,0.2-0.5,0.5-0.5h8c0.3,0,0.5,0.2,0.5,0.5v4
			C28.7,28,28.5,28.2,28.2,28.2z M20.7,27.2h7v-3h-7V27.2z"/>
	</g>
</g>
</svg>
