<?xml version="1.0" encoding="utf-8"?>
<!-- Generator: Adobe Illustrator 16.0.0, SVG Export Plug-In . SVG Version: 6.00 Build 0)  -->
<!DOCTYPE svg PUBLIC "-//W3C//DTD SVG 1.1//EN" "http://www.w3.org/Graphics/SVG/1.1/DTD/svg11.dtd">
<svg version="1.1" id="Layer_1" xmlns="http://www.w3.org/2000/svg" xmlns:xlink="http://www.w3.org/1999/xlink" x="0px" y="0px"
	 width="128px" height="128px" viewBox="0 0 128 128" enable-background="new 0 0 128 128" xml:space="preserve">
<g>
	<g>
		<rect x="37" y="57.5" fill="#B0BEC5" width="60" height="8"/>
		<path fill="#37474F" d="M97,67H37c-0.8,0-1.5-0.7-1.5-1.5v-8c0-0.8,0.7-1.5,1.5-1.5h60c0.8,0,1.5,0.7,1.5,1.5v8
			C98.5,66.3,97.8,67,97,67z M38.5,64h57v-5h-57V64z"/>
	</g>
	<g>
		<rect x="37" y="42.5" fill="#78909C" width="60" height="15"/>
		<path fill="#37474F" d="M98.5,59h-63V41h63V59z M38.5,56h57V44h-57V56z"/>
	</g>
	<g>
		<rect x="34" y="35.5" fill="#FFAB00" width="60" height="8"/>
		<path fill="#37474F" d="M94,45H34c-0.8,0-1.5-0.7-1.5-1.5v-8c0-0.8,0.7-1.5,1.5-1.5h60c0.8,0,1.5,0.7,1.5,1.5v8
			C95.5,44.3,94.8,45,94,45z M35.5,42h57v-5h-57V42z"/>
	</g>
	<g>
		<rect x="37" y="65.5" fill="#78909C" width="60" height="27"/>
		<path fill="#37474F" d="M98.5,94h-63V64h63V94z M38.5,91h57V67h-57V91z"/>
	</g>
	<g>
		<g>
			<g>
				<path fill="#37474F" d="M43,87c0,2.8-2.3,5.5-5.1,5.5H6.8C3.9,92.5,2,89.8,2,87V47.5c0-2.8,1.9-5,4.8-5h31.2
					c2.8,0,5.1,2.2,5.1,5V87z"/>
				<path fill="#37474F" d="M37.9,94H6.8c-3.4,0-6.3-3.1-6.3-7V47.5c0-3.7,2.7-6.5,6.3-6.5h31.2c3.6,0,6.6,2.9,6.6,6.5V87
					C44.5,90.8,41.5,94,37.9,94z M6.8,44c-1.9,0-3.3,1.5-3.3,3.5V87c0,1.9,1.2,4,3.3,4h31.2c1.9,0,3.6-1.9,3.6-4V47.5
					c0-2-1.6-3.5-3.6-3.5H6.8z"/>
			</g>
			<g>
				<g>
					<path fill="#FFAB00" d="M37.3,71.1c0,8.2-6.7,15-15,15c-8.3,0-15-6.7-15-15c0-8.3,6.7-15,15-15C30.6,56.1,37.3,62.8,37.3,71.1z
						"/>
					<path fill="#37474F" d="M22.3,87.5c-9.1,0-16.5-7.4-16.5-16.5c0-9.1,7.4-16.5,16.5-16.5c9.1,0,16.5,7.4,16.5,16.5
						C38.8,80.1,31.4,87.5,22.3,87.5z M22.3,57.6c-7.4,0-13.5,6.1-13.5,13.5c0,7.4,6,13.5,13.5,13.5c7.4,0,13.5-6,13.5-13.5
						C35.8,63.6,29.8,57.6,22.3,57.6z"/>
				</g>
				<g>
					<path fill="#FFECB3" d="M29.1,71.1c0,3.7-3.1,6.8-6.8,6.8c-3.7,0-6.8-3-6.8-6.8c0-3.8,3-6.8,6.8-6.8
						C26.1,64.2,29.1,67.3,29.1,71.1z"/>
					<path fill="#37474F" d="M22.3,79.3c-4.6,0-8.3-3.7-8.3-8.3c0-4.6,3.7-8.3,8.3-8.3c4.6,0,8.3,3.7,8.3,8.3
						C30.6,75.6,26.9,79.3,22.3,79.3z M22.3,65.7c-2.9,0-5.3,2.4-5.3,5.3c0,2.9,2.4,5.3,5.3,5.3c2.9,0,5.3-2.4,5.3-5.3
						C27.6,68.1,25.2,65.7,22.3,65.7z"/>
				</g>
			</g>
			<g>
				<g>
					<path fill="#FFFFFF" d="M15.3,51.1c0,0.7-0.5,1.2-1.2,1.2c-0.7,0-1.2-0.5-1.2-1.2c0-0.6,0.5-1.2,1.2-1.2
						C14.8,49.9,15.3,50.5,15.3,51.1z"/>
					<path fill="#FFFFFF" d="M14.2,52.8L14.2,52.8c-0.5,0-0.9-0.2-1.2-0.5c-0.3-0.3-0.5-0.7-0.5-1.2c0-0.9,0.8-1.7,1.7-1.7h0
						c0.9,0,1.7,0.7,1.7,1.7C15.8,52,15.1,52.8,14.2,52.8L14.2,52.8z M14.2,50.4c-0.4,0-0.7,0.3-0.7,0.7c0,0.2,0.1,0.4,0.2,0.5
						c0.1,0.1,0.3,0.2,0.5,0.2c0.4,0,0.7-0.3,0.7-0.7C14.8,50.7,14.5,50.4,14.2,50.4z"/>
				</g>
				<g>
					<path fill="#FFFFFF" d="M23.5,51.1c0,0.7-0.5,1.2-1.2,1.2c-0.6,0-1.1-0.5-1.2-1.2c0-0.6,0.5-1.2,1.2-1.2
						C23,49.9,23.5,50.5,23.5,51.1z"/>
					<path fill="#FFFFFF" d="M22.3,52.8L22.3,52.8c-0.9,0-1.6-0.7-1.7-1.7c0-1,0.8-1.7,1.7-1.7c0.9,0,1.6,0.8,1.6,1.7
						c0,0.4-0.2,0.9-0.5,1.2C23.2,52.6,22.8,52.8,22.3,52.8z M22.3,50.4c-0.4,0-0.7,0.3-0.7,0.7c0,0.4,0.3,0.7,0.7,0.7h0
						c0.2,0,0.3-0.1,0.5-0.2c0.1-0.1,0.2-0.3,0.2-0.5C23,50.7,22.7,50.4,22.3,50.4z"/>
				</g>
				<g>
					<path fill="#FFFFFF" d="M31.7,51.1c0,0.6-0.5,1.2-1.2,1.2c-0.6,0-1.2-0.5-1.2-1.2c0-0.6,0.5-1.2,1.2-1.2
						C31.2,49.9,31.7,50.5,31.7,51.1z"/>
					<path fill="#FFFFFF" d="M30.5,52.8L30.5,52.8c-0.9,0-1.7-0.8-1.7-1.7c0-0.9,0.8-1.7,1.6-1.7c1,0,1.7,0.7,1.7,1.7
						C32.2,52,31.4,52.8,30.5,52.8L30.5,52.8z M30.5,50.4c-0.4,0-0.7,0.3-0.7,0.7c0,0.4,0.3,0.7,0.7,0.7c0.4,0,0.7-0.3,0.7-0.7
						C31.2,50.7,30.9,50.4,30.5,50.4z"/>
				</g>
			</g>
		</g>
		<g>
			<g>
				<path fill="#37474F" d="M126,87c0,2.8-2,5.5-4.8,5.5H90c-2.8,0-5-2.7-5-5.5V47.5c0-2.8,2.2-5,5-5h31.2c2.8,0,4.8,2.2,4.8,5V87z"
					/>
				<path fill="#37474F" d="M121.2,94H90c-3.5,0-6.5-3.2-6.5-7V47.5c0-3.7,2.9-6.5,6.5-6.5h31.2c3.6,0,6.3,2.8,6.3,6.5V87
					C127.5,90.9,124.7,94,121.2,94z M90,44c-2,0-3.5,1.5-3.5,3.5V87c0,2.1,1.6,4,3.5,4h31.2c2,0,3.3-2.1,3.3-4V47.5
					c0-2.1-1.4-3.5-3.3-3.5H90z"/>
			</g>
			<g>
				<g>
					<path fill="#FFAB00" d="M120.6,71.1c0,8.2-6.7,15-15,15c-8.3,0-15-6.7-15-15c0-8.3,6.7-15,15-15
						C113.8,56.1,120.6,62.8,120.6,71.1z"/>
					<path fill="#37474F" d="M105.6,87.5c-9.1,0-16.5-7.4-16.5-16.5c0-9.1,7.4-16.5,16.5-16.5c9.1,0,16.5,7.4,16.5,16.5
						C122.1,80.1,114.7,87.5,105.6,87.5z M105.6,57.6c-7.4,0-13.5,6.1-13.5,13.5c0,7.4,6,13.5,13.5,13.5c7.4,0,13.5-6,13.5-13.5
						C119.1,63.6,113,57.6,105.6,57.6z"/>
				</g>
				<g>
					<path fill="#FFECB3" d="M112.4,71.1c0,3.7-3,6.8-6.8,6.8c-3.7,0-6.8-3-6.8-6.8c0-3.8,3.1-6.8,6.8-6.8
						C109.3,64.2,112.4,67.3,112.4,71.1z"/>
					<path fill="#37474F" d="M105.6,79.3c-4.6,0-8.3-3.7-8.3-8.3c0-4.6,3.7-8.3,8.3-8.3c4.6,0,8.3,3.7,8.3,8.3
						C113.9,75.6,110.1,79.3,105.6,79.3z M105.6,65.7c-2.9,0-5.3,2.4-5.3,5.3c0,2.9,2.4,5.3,5.3,5.3c2.9,0,5.3-2.4,5.3-5.3
						C110.9,68.1,108.5,65.7,105.6,65.7z"/>
				</g>
			</g>
			<g>
				<g>
					<path fill="#FFFFFF" d="M98.5,51.1c0,0.7-0.5,1.2-1.2,1.2c-0.7,0-1.2-0.5-1.2-1.2c0-0.6,0.5-1.2,1.2-1.2
						C98,49.9,98.5,50.5,98.5,51.1z"/>
					<path fill="#FFFFFF" d="M97.4,52.8L97.4,52.8c-0.5,0-0.9-0.2-1.2-0.5c-0.3-0.3-0.5-0.7-0.5-1.2c0-0.9,0.8-1.7,1.7-1.7h0
						c0.9,0,1.7,0.7,1.7,1.7C99,52,98.3,52.8,97.4,52.8L97.4,52.8z M97.4,50.4c-0.4,0-0.7,0.3-0.7,0.7c0,0.2,0.1,0.4,0.2,0.5
						c0.1,0.1,0.3,0.2,0.5,0.2c0.4,0,0.7-0.3,0.7-0.7C98,50.7,97.8,50.4,97.4,50.4z"/>
				</g>
				<g>
					<path fill="#FFFFFF" d="M106.7,51.1c0,0.7-0.5,1.2-1.2,1.2c-0.7,0-1.1-0.5-1.2-1.2c0-0.6,0.5-1.2,1.2-1.2
						C106.2,49.9,106.7,50.5,106.7,51.1z"/>
					<path fill="#FFFFFF" d="M105.6,52.8L105.6,52.8c-0.9,0-1.6-0.7-1.7-1.7c0-1,0.8-1.7,1.7-1.7c0.9,0,1.6,0.8,1.6,1.7
						c0,0.4-0.2,0.9-0.5,1.2C106.4,52.6,106,52.8,105.6,52.8z M105.6,50.4c-0.4,0-0.7,0.3-0.7,0.7c0,0.4,0.3,0.7,0.7,0.7h0
						c0.2,0,0.3-0.1,0.5-0.2c0.1-0.1,0.2-0.3,0.2-0.5C106.2,50.7,105.9,50.4,105.6,50.4z"/>
				</g>
				<g>
					<path fill="#FFFFFF" d="M114.9,51.1c0,0.6-0.5,1.2-1.2,1.2c-0.6,0-1.2-0.5-1.2-1.2c0-0.6,0.5-1.2,1.2-1.2
						C114.4,49.9,114.9,50.5,114.9,51.1z"/>
					<path fill="#FFFFFF" d="M113.8,52.8L113.8,52.8c-0.9,0-1.7-0.8-1.7-1.7c0-0.9,0.7-1.7,1.7-1.7c0.9,0,1.7,0.7,1.7,1.7
						C115.4,52,114.7,52.8,113.8,52.8L113.8,52.8z M113.8,50.4c-0.4,0-0.7,0.3-0.7,0.7c0,0.4,0.3,0.7,0.7,0.7c0.4,0,0.7-0.3,0.7-0.7
						C114.4,50.7,114.1,50.4,113.8,50.4z"/>
				</g>
			</g>
		</g>
	</g>
	<g>
		<path fill="#FFFFFF" d="M61.1,79c0,2.9-2.3,5.2-5.2,5.2c-2.9,0-5.2-2.4-5.2-5.2c0-2.9,2.3-5.2,5.2-5.2
			C58.8,73.7,61.1,76.1,61.1,79z"/>
		<path fill="#37474F" d="M55.9,85.7c-3.7,0-6.7-3-6.7-6.7c0-3.7,3-6.7,6.7-6.7c3.7,0,6.7,3,6.7,6.7C62.6,82.7,59.6,85.7,55.9,85.7z
			 M55.9,75.2c-2.1,0-3.7,1.7-3.7,3.7c0,2.1,1.7,3.7,3.7,3.7c2.1,0,3.7-1.7,3.7-3.7C59.6,76.9,57.9,75.2,55.9,75.2z"/>
	</g>
	<g>
		<rect x="49.5" y="49" fill="#B0BEC5" width="3" height="3"/>
	</g>
	<g>
		<rect x="54.5" y="49" fill="#B0BEC5" width="3" height="3"/>
	</g>
	<g>
		<rect x="59.5" y="49" fill="#B0BEC5" width="3" height="3"/>
	</g>
	<g>
		<line fill="#FFFFFF" x1="62.5" y1="79.5" x2="87.5" y2="79.5"/>
		<path fill="#37474F" d="M87.5,81h-25c-0.8,0-1.5-0.7-1.5-1.5s0.7-1.5,1.5-1.5h25c0.8,0,1.5,0.7,1.5,1.5S88.3,81,87.5,81z"/>
	</g>
</g>
</svg>
