<?xml version="1.0" encoding="utf-8"?>
<!-- Generator: Adobe Illustrator 16.0.0, SVG Export Plug-In . SVG Version: 6.00 Build 0)  -->
<!DOCTYPE svg PUBLIC "-//W3C//DTD SVG 1.1//EN" "http://www.w3.org/Graphics/SVG/1.1/DTD/svg11.dtd">
<svg version="1.1" id="Layer_1" xmlns="http://www.w3.org/2000/svg" xmlns:xlink="http://www.w3.org/1999/xlink" x="0px" y="0px"
	 width="24px" height="24px" viewBox="0 0 24 24" enable-background="new 0 0 24 24" xml:space="preserve">
<g>
	<path d="M15.8,1.5H9.5C9.8,1.5,10,1.3,10,1S9.8,0.5,9.5,0.5h-2C7.2,0.5,7,0.7,7,1s0.2,0.5,0.5,0.5h0.7c-1.8,0-3.7,1.2-3.7,3.1v1.9
		v12.3v1.6c0,1.9,2,3.2,3.7,3.2h7.5c1.8,0,3.7-1.3,3.7-3.2v-1.6V6.5V4.6C19.5,2.7,17.6,1.5,15.8,1.5z M5.5,4.6
		c0-1.2,1.4-2.1,2.7-2.1h7.5c1.3,0,2.7,0.8,2.7,2.1v1.9v12.3c0,1.3-1.4,2.7-2.7,2.7H8.2c-1.3,0-2.7-1.5-2.7-2.7V6.5V4.6z M17.7,21.8
		c-0.3,0.3-0.8,0.5-1.2,0.6C16.9,22.3,17.3,22.1,17.7,21.8z M7.5,22.4c-0.4-0.1-0.8-0.3-1.2-0.6C6.7,22.1,7.1,22.3,7.5,22.4z
		 M7.6,22.4c0.2,0.1,0.4,0.1,0.6,0.1C8,22.5,7.8,22.5,7.6,22.4z M16.5,22.4c-0.2,0-0.4,0.1-0.7,0.1C16,22.5,16.2,22.5,16.5,22.4z"/>
	<path d="M14.2,5.3L14.2,5.3C14.7,5.3,15,5,15,4.5C15,4.3,15,4.1,14.8,4c-0.2-0.2-0.4-0.2-0.6-0.2c-0.4,0-0.8,0.4-0.8,0.8
		C13.4,5,13.8,5.3,14.2,5.3z"/>
	<path d="M12,5.4L12,5.4c0.5,0,0.8-0.4,0.8-0.8c0-0.4-0.4-0.8-0.8-0.8c-0.4,0-0.8,0.4-0.8,0.8C11.2,5,11.6,5.3,12,5.4z"/>
	<path d="M9.8,5.3C9.8,5.3,9.8,5.3,9.8,5.3L9.8,5.3c0.5,0,0.8-0.4,0.8-0.8c0-0.5-0.4-0.8-0.8-0.8C9.4,3.7,9,4.1,9,4.5
		C9,5,9.4,5.3,9.8,5.3z M9.8,4.8L9.8,4.8L9.8,4.8L9.8,4.8z"/>
	<polygon points="15.6,18.3 16.2,17.7 15.6,17 15.4,17.2 15.8,17.7 15.4,18.1 	"/>
	<polygon points="14.2,17.2 14.7,17.7 14.2,18.1 14.5,18.3 15.1,17.7 14.5,17 	"/>
	<polygon points="8.7,18.1 8.2,17.7 8.7,17.2 8.5,17 7.8,17.7 8.5,18.3 	"/>
	<polygon points="9.8,18.1 9.3,17.7 9.8,17.2 9.6,17 8.9,17.7 9.6,18.3 	"/>
</g>
<g>
	<g>
		<g>
			<path d="M10.4,11.6c-1.2,0-1.9-1.1-1.9-2.9c0-1.9,0.7-3,1.9-3c0.7,0,1.9,0.4,1.9,2.9C12.3,10.8,11.3,11.6,10.4,11.6z M10.4,6.7
				c-0.9,0-0.9,1.6-0.9,2c0,0.5,0.1,1.9,0.9,1.9c0.6,0,0.9-0.8,0.9-2C11.3,7.9,11.2,6.7,10.4,6.7z"/>
		</g>
	</g>
	<g>
		<g>
			<path d="M14.5,11.6h-0.9c-0.3,0-0.5-0.2-0.5-0.5v-0.6H12c-0.3,0-0.5-0.2-0.5-0.5V9.3c0-0.1,0-0.2,0.1-0.2l1.6-3
				c0.1-0.2,0.3-0.3,0.4-0.3h0.9C14.8,5.8,15,6,15,6.3v2.4c0.3,0,0.5,0.2,0.5,0.5v0.8c0,0.3-0.2,0.5-0.5,0.5v0.6
				C15,11.3,14.8,11.6,14.5,11.6z M12.5,9.4h1.1c0.2,0,0.3,0.1,0.4,0.2c0,0,0.1-0.1,0.1-0.1C14.1,9.5,14,9.3,14,9.2V6.8h-0.1
				L12.5,9.4z"/>
		</g>
	</g>
	<g>
		<g>
			<path d="M9.3,15.7v-0.3l0.4-0.4c0.9-0.9,1.3-1.3,1.3-1.9c0-0.4-0.2-0.7-0.7-0.7c-0.3,0-0.6,0.2-0.8,0.3l-0.2-0.3
				c0.2-0.2,0.6-0.4,1-0.4c0.8,0,1.1,0.5,1.1,1c0,0.7-0.5,1.2-1.2,1.9L10,15.3v0h1.6v0.4H9.3z"/>
		</g>
	</g>
	<g>
		<g>
			<path d="M14.6,13.9c0,1.2-0.5,1.9-1.2,1.9c-0.7,0-1.2-0.7-1.2-1.9c0-1.2,0.5-1.9,1.3-1.9C14.2,12.1,14.6,12.7,14.6,13.9z
				 M12.7,13.9c0,0.9,0.3,1.5,0.7,1.5c0.5,0,0.7-0.6,0.7-1.5c0-0.9-0.2-1.5-0.7-1.5C13,12.4,12.7,13,12.7,13.9z"/>
		</g>
	</g>
</g>
<g>
	<g>
		<g>
			<g>
				<path d="M11.4,20c0-0.1,0-0.1,0-0.1h0.1L11.4,20L11.4,20c0.1-0.1,0.2-0.2,0.2-0.2c0.1,0,0.2,0.1,0.2,0.2c0,0.2-0.1,0.2-0.2,0.2
					c-0.1,0-0.1,0-0.1-0.1h0v0.2h-0.1V20z M11.5,20.1C11.5,20.1,11.5,20.1,11.5,20.1c0,0.1,0.1,0.1,0.1,0.1c0.1,0,0.1-0.1,0.1-0.2
					c0-0.1,0-0.2-0.1-0.2c-0.1,0-0.1,0-0.1,0.1C11.5,20,11.5,20,11.5,20.1L11.5,20.1z"/>
			</g>
		</g>
		<g>
			<g>
				<path d="M11.9,19.9c0,0,0-0.1,0-0.1H12L11.9,19.9L11.9,19.9c0.1-0.1,0.1-0.1,0.2-0.1c0.1,0,0.1,0,0.1,0.1l0,0c0,0,0,0,0.1-0.1
					c0,0,0.1,0,0.1,0c0.1,0,0.2,0,0.2,0.2v0.3h-0.1V20c0-0.1,0-0.1-0.1-0.1c0,0-0.1,0-0.1,0.1c0,0,0,0,0,0v0.3h-0.1V20
					c0-0.1,0-0.1-0.1-0.1C12.1,19.9,12,19.9,11.9,19.9C12,20,12,20,11.9,19.9l0.1,0.3h-0.1V19.9z"/>
			</g>
		</g>
	</g>
</g>
</svg>
