<?xml version="1.0" encoding="utf-8"?>
<!-- Generator: Adobe Illustrator 16.0.0, SVG Export Plug-In . SVG Version: 6.00 Build 0)  -->
<!DOCTYPE svg PUBLIC "-//W3C//DTD SVG 1.1//EN" "http://www.w3.org/Graphics/SVG/1.1/DTD/svg11.dtd">
<svg version="1.1" id="Layer_1" xmlns="http://www.w3.org/2000/svg" xmlns:xlink="http://www.w3.org/1999/xlink" x="0px" y="0px"
	 width="24px" height="24px" viewBox="0 0 24 24" enable-background="new 0 0 24 24" xml:space="preserve">
<g>
	<path d="M22.8,20.3l-4.2-4.2c-0.4-0.4-0.8-0.5-1.3-0.5L16,14.2c1.1-1.5,1.7-3.2,1.7-5.1c0-2.3-0.9-4.4-2.5-6
		c-1.6-1.6-3.7-2.5-6-2.5s-4.4,0.9-6,2.5c-3.3,3.3-3.3,8.7,0,12c1.6,1.6,3.7,2.5,6,2.5c1.9,0,3.6-0.6,5.1-1.7l1.4,1.4c0,0,0,0,0,0.1
		c0,0.5,0.2,0.9,0.5,1.3l4.2,4.2c0.3,0.3,0.8,0.5,1.3,0.5c0.5,0,0.9-0.2,1.3-0.5C23.5,22.1,23.5,21,22.8,20.3z M9.1,16.6
		c-2,0-3.9-0.8-5.3-2.2c-2.9-2.9-2.9-7.7,0-10.6c1.4-1.4,3.3-2.2,5.3-2.2s3.9,0.8,5.3,2.2c1.4,1.4,2.2,3.3,2.2,5.3
		c0,2-0.8,3.9-2.2,5.3S11.1,16.6,9.1,16.6z M16,16.3l-0.9-0.9l0.3-0.3l0.8,0.8L16,16.3z M22.1,22.1c-0.3,0.3-0.8,0.3-1.1,0L16.8,18
		c-0.1-0.1-0.2-0.3-0.2-0.6c0-0.1,0-0.1,0-0.2l0.2-0.3c0,0,0,0,0,0c0.1-0.1,0.3-0.2,0.6-0.2c0.2,0,0.4,0.1,0.6,0.2l4.2,4.2
		C22.4,21.3,22.4,21.8,22.1,22.1z"/>
	<path d="M19,18.2c0-0.2-0.1-0.4-0.2-0.5c-0.3-0.3-0.8-0.3-1.1,0c-0.1,0.1-0.2,0.3-0.2,0.5c0,0.2,0.1,0.4,0.2,0.5
		c0.1,0.1,0.3,0.2,0.5,0.2c0.2,0,0.4-0.1,0.5-0.2C18.9,18.6,19,18.4,19,18.2z M18,18.3L18,18.3C18,18.3,18,18.3,18,18.3
		C18,18.3,18,18.3,18,18.3z M18.1,18.5C18.1,18.5,18.1,18.4,18.1,18.5c0,0,0.1,0,0.1,0C18.2,18.5,18.1,18.5,18.1,18.5z M18.1,18.1
		C18.1,18.1,18.1,18.1,18.1,18.1c0-0.1,0.1-0.1,0.2-0.1c0.1,0,0.1,0,0.2,0.1c0,0,0,0,0,0.1c0,0,0,0,0,0C18.3,18,18.2,18,18.1,18.1z
		 M18.4,18.4c0,0-0.1,0.1-0.1,0.1C18.3,18.5,18.4,18.5,18.4,18.4c0,0,0.1-0.1,0.1-0.1C18.5,18.3,18.5,18.4,18.4,18.4z"/>
	<path d="M20,19c-0.3-0.3-0.8-0.3-1.1,0c-0.3,0.3-0.3,0.8,0,1c0.1,0.2,0.3,0.2,0.5,0.2c0.2,0,0.4-0.1,0.5-0.2
		C20.3,19.7,20.3,19.3,20,19z M19.3,19.7c-0.1-0.1-0.1-0.3,0-0.3c0,0,0,0,0,0C19.2,19.4,19.2,19.6,19.3,19.7
		C19.3,19.7,19.3,19.7,19.3,19.7z M19.5,19.2c0.1,0,0.1,0,0.2,0.1c0,0,0,0,0,0C19.6,19.3,19.6,19.2,19.5,19.2z M19.7,19.7
		C19.7,19.7,19.7,19.7,19.7,19.7c0.1-0.1,0.1-0.2,0-0.3C19.8,19.4,19.8,19.6,19.7,19.7z"/>
	<path d="M20.2,20.2c-0.3,0.3-0.3,0.8,0,1.1c0.1,0.1,0.3,0.2,0.5,0.2c0.2,0,0.4-0.1,0.5-0.2c0.1-0.1,0.2-0.3,0.2-0.5
		c0-0.2-0.1-0.4-0.2-0.5C21,19.9,20.5,19.9,20.2,20.2z M20.5,20.7C20.5,20.7,20.5,20.7,20.5,20.7C20.5,20.8,20.5,20.8,20.5,20.7
		C20.5,20.8,20.5,20.8,20.5,20.7z M20.6,20.9C20.5,20.9,20.6,20.9,20.6,20.9c0,0,0.1,0.1,0.2,0.1C20.6,21,20.6,20.9,20.6,20.9z
		 M20.9,20.9C20.9,20.9,20.8,20.9,20.9,20.9C20.8,20.9,20.9,20.9,20.9,20.9C20.9,20.9,20.9,20.9,20.9,20.9z M20.9,20.5
		c-0.1-0.1-0.3-0.1-0.4,0c0,0,0,0.1,0,0.1c0,0,0-0.1,0-0.1c0,0,0.1-0.1,0.2-0.1C20.8,20.5,20.8,20.5,20.9,20.5c0,0,0,0.1,0.1,0.1
		C20.9,20.6,20.9,20.6,20.9,20.5z"/>
	<path d="M14.2,6.5c-0.8-1.5-2.2-2.6-3.8-3c-1.6-0.4-3.4,0-4.7,1c-1.7,0.2-3.1,1.4-3.5,3C1.9,9.2,2.6,10.9,4,11.8
		c0.8,1.5,2.2,2.6,3.8,3c0.4,0.1,0.9,0.1,1.3,0.1c1.2,0,2.4-0.4,3.4-1.1c1.7-0.1,3.1-1.4,3.5-3C16.4,9.1,15.7,7.4,14.2,6.5z
		 M15.1,10.5c-0.3,1.3-1.4,2.2-2.7,2.3c-0.1,0-0.2,0-0.3,0.1c-1.1,0.9-2.6,1.2-4,0.9c-1.4-0.3-2.5-1.3-3.2-2.6
		c0-0.1-0.1-0.2-0.2-0.2c-1.1-0.6-1.7-2-1.4-3.2c0.3-1.3,1.4-2.2,2.7-2.3c0.1,0,0.2,0,0.3-0.1c0.8-0.7,1.9-1,2.9-1
		c0.4,0,0.7,0,1.1,0.1c1.4,0.3,2.5,1.3,3.2,2.6c0,0.1,0.1,0.2,0.2,0.2C14.8,7.9,15.3,9.3,15.1,10.5z"/>
	<path d="M9.8,6.4C8.3,6.1,6.8,7,6.4,8.5c-0.2,0.7,0,1.5,0.3,2.1c0.4,0.6,1,1.1,1.7,1.2c0.2,0,0.4,0.1,0.6,0.1
		c1.3,0,2.4-0.9,2.7-2.1c0.2-0.7,0-1.5-0.3-2.1C11.1,7,10.5,6.6,9.8,6.4z M10.9,9.5c-0.2,0.9-1.2,1.6-2.1,1.3
		c-0.5-0.1-0.9-0.4-1.1-0.8C7.4,9.7,7.3,9.2,7.4,8.7c0-0.1,0.1-0.2,0.1-0.2C7.4,9,7.7,9.5,8.2,9.6c0.5,0.1,1.1-0.2,1.2-0.7
		c0.1-0.5-0.2-1.1-0.7-1.2C8.4,7.7,8.2,7.7,8,7.8c0.3-0.3,0.7-0.5,1.2-0.5c0.1,0,0.3,0,0.4,0c0.5,0.1,0.9,0.4,1.1,0.8
		C10.9,8.6,11,9.1,10.9,9.5z"/>
	<path d="M10.1,9.6c-0.2,0-0.4,0.1-0.4,0.3c0,0.2,0.1,0.4,0.3,0.5c0.2,0,0.4-0.1,0.4-0.3C10.5,9.8,10.3,9.6,10.1,9.6z"/>
</g>
</svg>
