<?xml version="1.0" encoding="utf-8"?>
<!-- Generator: Adobe Illustrator 16.0.0, SVG Export Plug-In . SVG Version: 6.00 Build 0)  -->
<!DOCTYPE svg PUBLIC "-//W3C//DTD SVG 1.1//EN" "http://www.w3.org/Graphics/SVG/1.1/DTD/svg11.dtd">
<svg version="1.1" id="Layer_1" xmlns="http://www.w3.org/2000/svg" xmlns:xlink="http://www.w3.org/1999/xlink" x="0px" y="0px"
	 width="24px" height="24px" viewBox="0 0 24 24" enable-background="new 0 0 24 24" xml:space="preserve">
<g>
	<path d="M21.6,17.2h-1.9c-0.2,0-0.4,0.2-0.5,0.4c-0.1-0.2-0.2-0.4-0.5-0.4h-1.9c-0.3,0-0.5,0.2-0.5,0.5s0.2,0.5,0.5,0.5h1.9
		c0.2,0,0.4-0.2,0.5-0.4c0.1,0.2,0.2,0.4,0.5,0.4h1.9c0.3,0,0.5-0.2,0.5-0.5S21.8,17.2,21.6,17.2z"/>
	<path d="M20.4,2.9H3.1c-1.6,0-2.6,1.6-2.6,3.2v0.1v10.9c0,1.7,1.1,3,2.6,3h0.1c-0.2,0.1-0.3,0.3-0.3,0.5c0,0.3,0.2,0.5,0.5,0.5h1.9
		c0.3,0,0.5-0.2,0.5-0.5c0-0.2-0.1-0.4-0.3-0.5h12c-0.2,0.1-0.3,0.3-0.3,0.5c0,0.3,0.2,0.5,0.5,0.5h1.9c0.3,0,0.5-0.2,0.5-0.5
		c0-0.2-0.1-0.4-0.3-0.5h0.6c1.6,0,3.1-1.4,3.1-3V6.3V6.1C23.5,4.5,22,2.9,20.4,2.9z M16.3,7.2c-0.3,0-0.5,0.2-0.5,0.5v8
		c0,0.7-0.8,1.6-1.4,1.6H3.8c-0.5,0-1.3-0.9-1.3-1.6V7.6c0-0.7,0.8-0.8,1.3-0.8h11.1c0.2,0,0.4-0.2,0.5-0.4c0.1,0.2,0.2,0.4,0.5,0.4
		h6.7v5c-0.1-0.2-0.3-0.3-0.5-0.3h-5.2V7.7C16.8,7.4,16.6,7.2,16.3,7.2z M1.5,6.8h0.2C1.6,6.9,1.6,7.1,1.5,7.2V6.8z M20.4,3.9
		c0.1,0,0.2,0,0.4,0c0,0,0.1,0,0.1,0C21,4,21.1,4,21.1,4.1c0,0,0.1,0,0.1,0.1c0.1,0,0.1,0.1,0.2,0.1c0,0,0.1,0.1,0.1,0.1
		c0.1,0.1,0.1,0.1,0.2,0.2c0,0,0.1,0.1,0.1,0.1C21.9,4.7,22,4.8,22,4.9c0,0,0.1,0.1,0.1,0.1c0,0.1,0.1,0.1,0.1,0.2
		c0,0,0.1,0.1,0.1,0.1c0,0.1,0.1,0.2,0.1,0.2c0,0,0,0.1,0,0.1c0,0,0,0,0,0h-6.6c-0.2,0-0.4,0.2-0.5,0.4c-0.1-0.2-0.2-0.4-0.5-0.4
		H3.8c-0.3,0-0.7,0.1-1,0.2C2.7,5.8,2.6,5.8,2.4,5.8H1.5c0,0,0,0,0,0c0,0,0-0.1,0-0.1c0-0.1,0-0.2,0.1-0.2c0,0,0-0.1,0-0.1
		c0-0.1,0-0.1,0.1-0.2c0,0,0-0.1,0.1-0.1c0-0.1,0.1-0.1,0.1-0.2c0,0,0.1-0.1,0.1-0.1c0-0.1,0.1-0.1,0.1-0.2c0,0,0.1-0.1,0.1-0.1
		c0.1,0,0.1-0.1,0.2-0.1c0,0,0.1-0.1,0.1-0.1C2.5,4,2.6,4,2.7,4c0,0,0.1,0,0.1,0c0.1,0,0.2,0,0.3,0H20.4z M20.4,19.1H3.1
		c-1,0-1.6-1-1.6-2v-1.1c0.2,1.1,1.3,2.2,2.3,2.2h10.7c1.1,0,2.4-1.4,2.4-2.6v-0.3h1.9c0.2,0,0.4-0.2,0.5-0.4
		c0.1,0.2,0.2,0.4,0.5,0.4h1.9c0.3,0,0.5-0.2,0.5-0.5s-0.2-0.5-0.5-0.5h-1.9c-0.2,0-0.4,0.2-0.5,0.4c-0.1-0.2-0.2-0.4-0.5-0.4h-1.9
		v-1.9h4.7v0.9c0,0.3,0.2,0.5,0.5,0.5c0.2,0,0.4-0.1,0.5-0.3v3.5C22.5,18.2,21.5,19.1,20.4,19.1z"/>
	<path d="M11.4,10.5c0.5,0,0.8-0.4,0.8-0.8c0-0.2-0.1-0.4-0.2-0.6c-0.2-0.2-0.4-0.3-0.6-0.3c-0.5,0-0.8,0.4-0.8,0.8
		C10.6,10.1,10.9,10.5,11.4,10.5z"/>
	<path d="M9.1,8.9c-0.2,0-0.4,0.1-0.6,0.3S8.3,9.5,8.3,9.7c0,0.5,0.4,0.8,0.8,0.8c0.5,0,0.8-0.4,0.8-0.8C9.9,9.2,9.6,8.9,9.1,8.9z"
		/>
	<path d="M6.8,8.9C6.3,8.9,6,9.2,6,9.7c0,0.5,0.4,0.8,0.8,0.8c0.5,0,0.8-0.4,0.8-0.8C7.6,9.2,7.3,8.9,6.8,8.9z"/>
	<path d="M11.4,10.8c-0.5,0-0.8,0.4-0.8,0.8c0,0.5,0.4,0.8,0.8,0.8c0.5,0,0.8-0.4,0.8-0.8c0-0.2-0.1-0.4-0.2-0.6
		C11.9,10.9,11.6,10.8,11.4,10.8z"/>
	<path d="M9.1,10.8c-0.2,0-0.4,0.1-0.6,0.2c-0.2,0.2-0.2,0.4-0.2,0.6c0,0.5,0.4,0.8,0.8,0.8c0.4,0,0.8-0.4,0.8-0.9
		C9.9,11.2,9.6,10.8,9.1,10.8z"/>
	<path d="M6.8,10.8c-0.5,0-0.8,0.4-0.8,0.8c0,0.5,0.4,0.8,0.8,0.8c0.5,0,0.8-0.4,0.8-0.8C7.6,11.2,7.3,10.8,6.8,10.8z"/>
	<path d="M11.4,12.8c-0.5,0-0.8,0.4-0.8,0.8c0,0.5,0.4,0.8,0.8,0.8s0.8-0.4,0.8-0.8c0-0.2-0.1-0.4-0.2-0.6
		C11.9,12.8,11.6,12.8,11.4,12.8z"/>
	<path d="M9.1,12.8c-0.2,0-0.4,0.1-0.6,0.3c-0.2,0.2-0.2,0.4-0.2,0.6c0,0.5,0.4,0.8,0.8,0.8c0.5,0,0.8-0.4,0.8-0.8
		C9.9,13.1,9.6,12.8,9.1,12.8z"/>
	<circle cx="6.8" cy="13.6" r="0.8"/>
	<path d="M19.4,11.1c1,0,1.8-0.8,1.8-1.8c0-1-0.8-1.8-1.8-1.8c-0.3,0-0.5,0.2-0.5,0.5s0.2,0.5,0.5,0.5c0.5,0,0.8,0.4,0.8,0.8
		c0,0.5-0.4,0.8-0.8,0.8c-0.5,0-0.8-0.4-0.8-0.8c0-0.3-0.2-0.5-0.5-0.5S17.6,9,17.6,9.3C17.6,10.3,18.4,11.1,19.4,11.1z"/>
</g>
</svg>
