<?xml version="1.0" encoding="utf-8"?>
<!-- Generator: Adobe Illustrator 16.0.0, SVG Export Plug-In . SVG Version: 6.00 Build 0)  -->
<!DOCTYPE svg PUBLIC "-//W3C//DTD SVG 1.1//EN" "http://www.w3.org/Graphics/SVG/1.1/DTD/svg11.dtd">
<svg version="1.1" id="Layer_1" xmlns="http://www.w3.org/2000/svg" xmlns:xlink="http://www.w3.org/1999/xlink" x="0px" y="0px"
	 width="24px" height="24px" viewBox="0 0 24 24" enable-background="new 0 0 24 24" xml:space="preserve">
<g>
	<path d="M8.1,19H5.7c-0.3,0-0.5,0.2-0.5,0.5S5.4,20,5.7,20h1.9v1.9c0,0.3,0.2,0.5,0.5,0.5s0.5-0.2,0.5-0.5v-2.4
		C8.6,19.2,8.4,19,8.1,19z"/>
	<path d="M18.3,19h-2.4c-0.3,0-0.5,0.2-0.5,0.5v2.4c0,0.3,0.2,0.5,0.5,0.5s0.5-0.2,0.5-0.5V20h1.9c0.3,0,0.5-0.2,0.5-0.5
		S18.6,19,18.3,19z"/>
	<path d="M23.6,11.7C23.6,11.7,23.6,11.7,23.6,11.7C23.6,11.7,23.6,11.7,23.6,11.7c0-0.1,0-0.1,0-0.2c0,0,0-0.1,0-0.1c0,0,0,0,0-0.1
		l-2.5-3.3c0.2-0.2,0.4-0.6,0.4-0.9c0-0.7-0.6-1.3-1.3-1.3c-0.3,0-0.6,0.1-0.8,0.3c-0.7-3.4-3.7-6-7.3-6c-3.6,0-6.6,2.6-7.3,6
		C4.5,6,4.2,5.9,3.9,5.9c-0.7,0-1.3,0.6-1.3,1.3c0,0.3,0.1,0.7,0.4,0.9l-2.5,3.3c0,0,0,0,0,0.1c0,0,0,0,0,0.1c0,0,0,0.1,0,0.1
		c0,0,0,0,0,0.1c0,0,0,0,0,0c0,0,0,0.1,0,0.1c0,0,0,0,0,0c0,0.1,0.1,0.1,0.1,0.2l3.2,3.3v2.2C3.8,17.8,4,18,4.3,18h4.4
		c0.2,0,0.4-0.1,0.4-0.3c0.2,0.1,0.3,0.1,0.5,0.2v3h1v2.4c0,0.3,0.2,0.5,0.5,0.5H13c0.3,0,0.5-0.2,0.5-0.5v-2.4h1v-3
		c0.2,0,0.4-0.1,0.5-0.2c0.1,0.2,0.2,0.3,0.4,0.3h4.4c0.3,0,0.5-0.2,0.5-0.5v-2.2l3.2-3.3c0,0,0.1-0.1,0.1-0.2c0,0,0,0,0,0
		C23.6,11.8,23.6,11.8,23.6,11.7z M20.1,6.9c0.2,0,0.3,0.1,0.3,0.3c0,0.2-0.1,0.3-0.3,0.3s-0.3-0.1-0.3-0.3
		C19.8,7,19.9,6.9,20.1,6.9z M3.9,6.9c0.2,0,0.3,0.1,0.3,0.3c0,0.2-0.1,0.3-0.3,0.3S3.6,7.4,3.6,7.2C3.6,7,3.7,6.9,3.9,6.9z
		 M15.4,6.4h-1c-0.3,0-0.5,0.2-0.5,0.5s0.2,0.5,0.5,0.5h1v2.9h-1c-0.3,0-0.5,0.2-0.5,0.5s0.2,0.5,0.5,0.5h1v1.9h-1
		c-0.3,0-0.5,0.2-0.5,0.5s0.2,0.5,0.5,0.5h1v1.1c0,1.3-0.5,1.8-1.8,1.8h-3.1c-1.3,0-1.8-0.6-1.8-1.8v-1.1h1c0.3,0,0.5-0.2,0.5-0.5
		s-0.2-0.5-0.5-0.5h-1v-1.9h1c0.3,0,0.5-0.2,0.5-0.5s-0.2-0.5-0.5-0.5h-1V7.4h1c0.3,0,0.5-0.2,0.5-0.5S9.9,6.4,9.6,6.4h-1V5.8
		c0-1.1,0.5-2.3,1.8-2.3h3.1c1.7,0,1.8,1.7,1.8,2.3V6.4z M13.4,19.9H13H11h-0.5V18h2.9V19.9z M12.5,22.8h-0.9v-1.9h0.9V22.8z
		 M19.4,14.8c-0.1,0.1-0.1,0.2-0.1,0.4V17h-3.4c0.3-0.5,0.5-1,0.5-1.8V5.8c0-2-1.1-3.3-2.8-3.3h-3.1c-1.7,0-2.8,1.3-2.8,3.3v9.5
		c0,0.7,0.2,1.3,0.5,1.8H4.8v-1.9c0-0.1-0.1-0.3-0.1-0.4l-2.5-2.5h4.6c0.3,0,0.5-0.2,0.5-0.5S7,11.2,6.7,11.2H1.9l2-2.7c0,0,0,0,0,0
		c0.4,0,0.7-0.2,0.9-0.4c0.1,0,0.1,0,0.2,0c0.3,0,0.5-0.2,0.5-0.5c0-3.6,2.9-6.5,6.5-6.5c3.6,0,6.5,2.9,6.5,6.5
		c0,0.3,0.2,0.5,0.5,0.5c0.1,0,0.1,0,0.2,0c0.2,0.2,0.6,0.4,0.9,0.4l2,2.7h-3.8c-0.3,0-0.5,0.2-0.5,0.5s0.2,0.5,0.5,0.5h3.6
		L19.4,14.8z"/>
	<path d="M12,15c-0.7,0-1.2,0.5-1.2,1.2c0,0.3,0.2,0.5,0.5,0.5s0.5-0.2,0.5-0.5c0-0.2,0.4-0.2,0.4,0c0,0.3,0.2,0.5,0.5,0.5
		s0.5-0.2,0.5-0.5C13.2,15.5,12.7,15,12,15z"/>
	<path d="M12,11.9c-0.2,0-0.4,0.1-0.6,0.2c-0.2,0.2-0.2,0.4-0.2,0.6c0,0.5,0.4,0.8,0.8,0.8h0c0.4,0,0.8-0.4,0.8-0.8
		C12.8,12.3,12.5,11.9,12,11.9z"/>
	<path d="M12,11.3L12,11.3L12,11.3c0.5,0,0.8-0.4,0.8-0.8c0-0.4-0.4-0.8-0.8-0.8c0,0,0,0,0,0c-0.4,0-0.8,0.4-0.8,0.8
		C11.2,11,11.6,11.3,12,11.3z"/>
	<path d="M12,9.1c0.5,0,0.8-0.4,0.8-0.8c0-0.5-0.4-0.8-0.8-0.8c-0.2,0-0.4,0.1-0.6,0.2s-0.2,0.4-0.2,0.5c0,0.2,0.1,0.4,0.2,0.6
		C11.6,9,11.8,9.1,12,9.1z"/>
</g>
</svg>
