<?xml version="1.0" encoding="utf-8"?>
<!-- Generator: Adobe Illustrator 16.0.0, SVG Export Plug-In . SVG Version: 6.00 Build 0)  -->
<!DOCTYPE svg PUBLIC "-//W3C//DTD SVG 1.1//EN" "http://www.w3.org/Graphics/SVG/1.1/DTD/svg11.dtd">
<svg version="1.1" id="Layer_1" xmlns="http://www.w3.org/2000/svg" xmlns:xlink="http://www.w3.org/1999/xlink" x="0px" y="0px"
	 width="24px" height="24px" viewBox="0 0 24 24" enable-background="new 0 0 24 24" xml:space="preserve">
<g>
	<path d="M23.4,17.7c0-1.3-0.8-2.3-2-2.8c0.1-0.1,0.1-0.2,0.1-0.3v-4.5c0-0.3-0.2-0.5-0.5-0.5h-0.5V4.8c0.7-0.2,1.2-0.9,1.2-1.6
		c0-0.9-0.8-1.7-1.7-1.7c-0.9,0-1.7,0.8-1.7,1.7c0,0.8,0.5,1.4,1.2,1.6v4.8h-1c-0.3,0-0.5,0.2-0.5,0.5s0.2,0.5,0.5,0.5h2v4
		c0,0,0,0,0,0.1c-0.2,0-0.4-0.1-0.6-0.1H9.7l1.8-3h-4l1.8,3H4c-1.9,0-3.4,1.5-3.4,3.2c0,0.2,0.2,0.4,0.4,0.5
		c-0.2,0.4-0.4,0.8-0.4,1.3c0,1.7,1.5,3,3.4,3h16c1.9,0,3.4-1.3,3.4-3c0-0.5-0.1-1-0.4-1.4C23.3,18.2,23.4,18,23.4,17.7z M19.3,3.1
		c0-0.4,0.3-0.7,0.7-0.7c0.4,0,0.7,0.3,0.7,0.7s-0.3,0.7-0.7,0.7C19.7,3.9,19.3,3.5,19.3,3.1z M4,15.6h16c1.2,0,2.2,0.8,2.4,1.8
		c-0.6-0.5-1.5-0.8-2.4-0.8H4c-0.9,0-1.8,0.3-2.4,0.8C1.8,16.4,2.8,15.6,4,15.6z M20,21.6H4c-1.4,0-2.4-0.9-2.4-2c0-1.1,1.1-2,2.4-2
		h16c1.4,0,2.4,0.9,2.4,2C22.4,20.7,21.4,21.6,20,21.6z"/>
	<path d="M5.3,18.4c-0.1-0.1-0.2-0.1-0.4-0.1h0c-0.1,0-0.3,0.1-0.4,0.1l-1.5,1.5c-0.2,0.2-0.2,0.5,0,0.7c0.1,0.1,0.2,0.1,0.4,0.1
		s0.3,0,0.4-0.1L5,19.5l1.1,1.1c0.2,0.2,0.5,0.2,0.7,0s0.2-0.5,0-0.7L5.3,18.4z"/>
	<path d="M13.3,18.6c-0.4,0-0.8,0.4-0.8,0.8c0,0.4,0.4,0.8,0.8,0.8l0,0c0.4,0,0.8-0.4,0.8-0.8c0-0.2-0.1-0.4-0.2-0.6
		C13.7,18.7,13.5,18.6,13.3,18.6z"/>
	<path d="M11.2,18.6c-0.2,0-0.4,0.1-0.6,0.2c-0.1,0.2-0.2,0.4-0.2,0.6c0,0.4,0.3,0.8,0.8,0.8l0,0c0.4,0,0.8-0.4,0.8-0.8
		C12,18.9,11.7,18.6,11.2,18.6z"/>
	<path d="M9.2,18.6c-0.4,0-0.8,0.4-0.8,0.8c0,0.4,0.4,0.8,0.8,0.8c0,0,0,0,0,0l0,0c0.4,0,0.8-0.4,0.8-0.8C9.9,19,9.6,18.6,9.2,18.6z
		 M9.2,19.7L9.2,19.7L9.2,19.7L9.2,19.7z"/>
	<path d="M18.3,18.6c-0.2,0-0.4,0.1-0.6,0.2c-0.1,0.2-0.2,0.4-0.2,0.6c0,0.4,0.3,0.8,0.8,0.8l0,0c0.4,0,0.8-0.4,0.8-0.8
		C19.1,18.9,18.7,18.6,18.3,18.6z"/>
	<path d="M16.2,18.6c-0.4,0-0.8,0.4-0.8,0.8c0,0.4,0.4,0.8,0.8,0.8c0,0,0,0,0,0l0,0c0.4,0,0.8-0.4,0.8-0.8
		C17,19,16.7,18.6,16.2,18.6z M16.2,19.7L16.2,19.7L16.2,19.7L16.2,19.7z"/>
	<path d="M2.3,9.3c0.3,0,0.5-0.2,0.5-0.5c0-2.6,3-4.7,6.7-4.7c3.7,0,6.7,2.1,6.7,4.7c0,0.3,0.2,0.5,0.5,0.5s0.5-0.2,0.5-0.5
		c0-3.2-3.5-5.7-7.7-5.7c-4.3,0-7.7,2.6-7.7,5.7C1.8,9.1,2,9.3,2.3,9.3z"/>
	<path d="M15,10.6c0.3,0,0.5-0.2,0.5-0.5c0-2.7-2.7-5-5.9-5c-3.3,0-5.9,2.2-5.9,5c0,0.3,0.2,0.5,0.5,0.5s0.5-0.2,0.5-0.5
		c0-2.2,2.2-4,4.9-4c2.7,0,4.9,1.8,4.9,4C14.5,10.3,14.7,10.6,15,10.6z"/>
	<path d="M9.5,7.6c-2.4,0-4.4,1.7-4.4,3.7c0,0.3,0.2,0.5,0.5,0.5s0.5-0.2,0.5-0.5c0-1.5,1.5-2.7,3.4-2.7c1.9,0,3.4,1.2,3.4,2.7
		c0,0.3,0.2,0.5,0.5,0.5s0.5-0.2,0.5-0.5C13.9,9.3,11.9,7.6,9.5,7.6z"/>
</g>
</svg>
