<?xml version="1.0" encoding="utf-8"?>
<!-- Generator: Adobe Illustrator 16.0.0, SVG Export Plug-In . SVG Version: 6.00 Build 0)  -->
<!DOCTYPE svg PUBLIC "-//W3C//DTD SVG 1.1//EN" "http://www.w3.org/Graphics/SVG/1.1/DTD/svg11.dtd">
<svg version="1.1" id="Layer_1" xmlns="http://www.w3.org/2000/svg" xmlns:xlink="http://www.w3.org/1999/xlink" x="0px" y="0px"
	 width="24px" height="24px" viewBox="0 0 24 24" enable-background="new 0 0 24 24" xml:space="preserve">
<g>
	<path d="M4.6,12.2c-0.3,0-0.5,0.2-0.5,0.5s0.2,0.5,0.5,0.5c0.4,0,0.7,0.3,0.7,0.7c0,0.4-0.3,0.7-0.7,0.7c-0.4,0-0.7-0.3-0.7-0.7
		c0-0.3-0.2-0.5-0.5-0.5S3,13.6,3,13.9c0,0.9,0.8,1.7,1.7,1.7c0.9,0,1.7-0.8,1.7-1.7C6.3,13,5.6,12.2,4.6,12.2z"/>
	<circle stroke="#37474F" stroke-miterlimit="10" cx="3.2" cy="10.4" r="0.2"/>
	<path stroke="#37474F" stroke-miterlimit="10" d="M6.1,10.2c-0.1,0-0.2,0.1-0.2,0.2c0,0.1,0.1,0.2,0.2,0.2c0.1,0,0.2-0.1,0.2-0.2
		C6.3,10.3,6.2,10.2,6.1,10.2z"/>
	<path d="M22,8.2h-3.9V6.9c0-0.3-0.2-0.5-0.5-0.5H6.4c-0.3,0-0.5,0.2-0.5,0.5v1.4h-4C1.1,8.2,0.3,9,0.3,9.8v6.9
		c0,0.3,0.1,0.5,0.3,0.6c0.3,0.3,0.7,0.3,1.1,0.3c0.1,0,0.1,0,0.2,0l6,0h7.4l6.9,0c0.1,0,0.1,0,0.2,0c0.4,0,0.9,0,1.2-0.3
		c0.2-0.2,0.2-0.4,0.2-0.6V9.8C23.7,9,22.7,8.2,22,8.2z M7.8,14v2.6H6.1C7.1,16.1,7.7,15.1,7.8,14z M4.6,16c-1.2,0-2.1-1-2.1-2.1
		c0-1.2,1-2.1,2.1-2.1s2.1,1,2.1,2.1C6.8,15.1,5.8,16,4.6,16z M10.7,15.3c0-0.2,0.2-0.4,0.4-0.4c0.2,0,0.4,0.2,0.4,0.4
		c0,0.2-0.2,0.4-0.4,0.4C10.9,15.7,10.7,15.5,10.7,15.3z M11.5,16.6c0.4-0.1,0.8-0.5,0.9-0.9c0,0,0,0,0,0h1.8c0,0,0,0,0,0v0.9H11.5z
		 M22.7,16.6c-0.1,0-0.4,0-0.6,0h-1.4c1-0.5,1.7-1.5,1.7-2.7c0-1.7-1.4-3.1-3.1-3.1s-3.1,1.4-3.1,3.1c0,1.2,0.7,2.2,1.7,2.7l-2.5,0
		v-3.7c0-0.3-0.2-0.5-0.5-0.5s-0.5,0.2-0.5,0.5v1.8c0,0,0,0,0,0h-1.8c0,0,0,0,0,0c-0.2-0.5-0.7-0.9-1.3-0.9c-0.8,0-1.4,0.6-1.4,1.4
		c0,0.6,0.4,1.2,1,1.4H8.8v-3.7c0-0.3-0.2-0.5-0.5-0.5s-0.5,0.2-0.5,0.5v0.9c-0.1-1.7-1.4-3-3.1-3c-1.7,0-3.1,1.4-3.1,3.1
		c0,1.2,0.7,2.2,1.7,2.7H1.8c-0.1,0-0.4,0-0.5,0V9.8c0-0.2,0.4-0.6,0.6-0.6h5.5C7.7,9.2,8,9.4,8,9.5C8,9.8,8.2,10,8.5,10
		S9,9.8,9,9.5c0-0.8-0.8-1.2-1.6-1.2H6.9V7.4h10.2v0.9h-0.6c-0.7,0-1.5,0.4-1.5,1.2c0,0.3,0.2,0.5,0.5,0.5S16,9.8,16,9.5
		c0-0.1,0.3-0.2,0.5-0.2H22c0.3,0,0.7,0.4,0.7,0.6V16.6z M19.2,16c-1.2,0-2.1-1-2.1-2.1c0-1.2,1-2.1,2.1-2.1c1.2,0,2.1,1,2.1,2.1
		C21.4,15.1,20.4,16,19.2,16z"/>
	<path d="M19.2,12.2c-0.3,0-0.5,0.2-0.5,0.5s0.2,0.5,0.5,0.5c0.4,0,0.7,0.3,0.7,0.7c0,0.4-0.3,0.7-0.7,0.7c-0.4,0-0.7-0.3-0.7-0.7
		c0-0.3-0.2-0.5-0.5-0.5s-0.5,0.2-0.5,0.5c0,0.9,0.8,1.7,1.7,1.7c0.9,0,1.7-0.8,1.7-1.7C20.9,13,20.2,12.2,19.2,12.2z"/>
	<path stroke="#37474F" stroke-miterlimit="10" d="M17.8,10.2c-0.1,0-0.2,0.1-0.2,0.2c0,0.1,0.1,0.2,0.2,0.2c0.1,0,0.2-0.1,0.2-0.2
		C18,10.3,17.9,10.2,17.8,10.2z"/>
	<circle stroke="#37474F" stroke-miterlimit="10" cx="20.7" cy="10.4" r="0.2"/>
	<path d="M13.4,11h-2.8c-0.3,0-0.5,0.2-0.5,0.5s0.2,0.5,0.5,0.5h2.8c0.3,0,0.5-0.2,0.5-0.5S13.7,11,13.4,11z"/>
</g>
</svg>
