<?xml version="1.0" encoding="utf-8"?>
<!-- Generator: Adobe Illustrator 16.0.0, SVG Export Plug-In . SVG Version: 6.00 Build 0)  -->
<!DOCTYPE svg PUBLIC "-//W3C//DTD SVG 1.1//EN" "http://www.w3.org/Graphics/SVG/1.1/DTD/svg11.dtd">
<svg version="1.1" id="Layer_1" xmlns="http://www.w3.org/2000/svg" xmlns:xlink="http://www.w3.org/1999/xlink" x="0px" y="0px"
	 width="24px" height="24px" viewBox="0 0 24 24" enable-background="new 0 0 24 24" xml:space="preserve">
<g>
	<path d="M0.3,11v3.8c0,0.8,0.7,1.5,1.5,1.5v-1c-0.3,0-0.5-0.2-0.5-0.5V11c0-0.3,0.2-0.5,0.5-0.5v-1C0.9,9.5,0.3,10.1,0.3,11z"/>
	<path d="M22,9.5v1c0.3,0,0.8,0.3,0.8,0.5v3.8c0,0.3-0.3,0.5-0.6,0.5v1c0.9,0,1.6-0.7,1.6-1.5V11C23.7,10.1,22.8,9.5,22,9.5z"/>
	<path d="M22.3,8.1c0.3,0,0.5-0.2,0.5-0.5v-2c0-0.3-0.2-0.5-0.5-0.5H1.7c-0.3,0-0.5,0.2-0.5,0.5v2c0,0.3,0.2,0.5,0.5,0.5h0.5v10.3
		c0,2,1.2,3.4,2.8,3.4h13.5c1.6,0,3.3-1.4,3.3-3.4V8.1H22.3z M2.2,6.1h19.5v1H2.2V6.1z M20.8,18.4c0,1.4-1.2,2.4-2.3,2.4H5
		c-1,0-1.8-1-1.8-2.4V8.1h17.6V18.4z"/>
	<path d="M9.1,3.2H14c0.3,0,0.5-0.2,0.5-0.5S14.2,2.2,14,2.2H9.1c-0.3,0-0.5,0.2-0.5,0.5S8.8,3.2,9.1,3.2z"/>
	<path d="M5.4,12.2L5.4,12.2c0.4,0,0.8-0.4,0.8-0.8c0-0.4-0.3-0.8-0.8-0.8c-0.4,0-0.8,0.3-0.8,0.7c0,0.2,0.1,0.4,0.2,0.6
		C5,12.1,5.2,12.2,5.4,12.2z"/>
	<path d="M8.2,12.2c0.4,0,0.8-0.3,0.8-0.8c0-0.4-0.3-0.8-0.8-0.8c-0.4,0-0.8,0.3-0.8,0.8C7.4,11.8,7.8,12.2,8.2,12.2z"/>
	<path d="M11.8,12.2c0.2,0,0.4-0.1,0.5-0.2c0.1-0.1,0.2-0.3,0.2-0.5c0-0.4-0.3-0.8-0.8-0.8c-0.4,0-0.8,0.3-0.8,0.8
		C11,11.8,11.3,12.2,11.8,12.2z"/>
	<path d="M15.3,12.2L15.3,12.2c0.4,0,0.8-0.4,0.8-0.8c0-0.4-0.3-0.8-0.8-0.8c-0.4,0-0.8,0.3-0.8,0.8c0,0.2,0.1,0.4,0.2,0.5
		C14.9,12.1,15.1,12.2,15.3,12.2z"/>
	<path d="M18.1,12.2c0.4,0,0.8-0.3,0.8-0.8c0-0.4-0.3-0.8-0.8-0.8c-0.4,0-0.8,0.3-0.8,0.8C17.3,11.8,17.7,12.2,18.1,12.2z"/>
	<path d="M5.4,14.3L5.4,14.3c0.4,0,0.8-0.4,0.8-0.8c0-0.4-0.3-0.8-0.8-0.8c-0.4,0-0.8,0.3-0.8,0.7c0,0.2,0.1,0.4,0.2,0.6
		C5,14.2,5.2,14.3,5.4,14.3z"/>
	<path d="M8.2,14.3c0.4,0,0.8-0.3,0.8-0.8c0-0.4-0.3-0.8-0.8-0.8c-0.4,0-0.8,0.3-0.8,0.8C7.4,13.9,7.8,14.3,8.2,14.3z"/>
	<path d="M11.8,14.3c0.2,0,0.4-0.1,0.5-0.2c0.1-0.1,0.2-0.3,0.2-0.5c0-0.4-0.3-0.8-0.8-0.8c-0.4,0-0.8,0.4-0.8,0.8
		C11,13.9,11.3,14.3,11.8,14.3z"/>
	<path d="M15.3,14.3L15.3,14.3c0.4,0,0.8-0.4,0.8-0.8c0-0.4-0.3-0.8-0.8-0.8c-0.4,0-0.8,0.3-0.8,0.8c0,0.2,0.1,0.4,0.2,0.5
		C14.9,14.2,15.1,14.3,15.3,14.3z"/>
	<path d="M18.1,14.3c0.4,0,0.8-0.3,0.8-0.8c0-0.4-0.3-0.8-0.8-0.8c-0.4,0-0.8,0.3-0.8,0.8C17.3,13.9,17.7,14.3,18.1,14.3z"/>
	<path d="M5.4,16.3L5.4,16.3c0.4,0,0.8-0.4,0.8-0.8c0-0.4-0.3-0.8-0.8-0.8c-0.4,0-0.8,0.3-0.8,0.7c0,0.2,0.1,0.4,0.2,0.6
		C5,16.2,5.2,16.3,5.4,16.3z"/>
	<path d="M8.2,16.3C8.6,16.3,9,16,9,15.6c0-0.4-0.3-0.8-0.8-0.8c-0.4,0-0.8,0.3-0.8,0.8C7.4,16,7.8,16.3,8.2,16.3z"/>
	<path d="M11.8,16.3c0.2,0,0.4-0.1,0.5-0.2c0.1-0.1,0.2-0.3,0.2-0.5c0-0.4-0.3-0.8-0.8-0.8c-0.4,0-0.8,0.3-0.8,0.8
		C11,16,11.3,16.3,11.8,16.3z"/>
	<path d="M15.3,16.3L15.3,16.3c0.4,0,0.8-0.3,0.8-0.8c0-0.4-0.3-0.8-0.8-0.8c-0.4,0-0.8,0.3-0.8,0.7c0,0.2,0.1,0.4,0.2,0.5
		C14.9,16.2,15.1,16.3,15.3,16.3z"/>
	<path d="M18.1,16.3c0.4,0,0.8-0.3,0.8-0.8c0-0.4-0.3-0.8-0.8-0.8c-0.4,0-0.8,0.3-0.8,0.8C17.3,16,17.7,16.3,18.1,16.3z"/>
</g>
</svg>
