<?xml version="1.0" encoding="utf-8"?>
<!-- Generator: Adobe Illustrator 16.0.0, SVG Export Plug-In . SVG Version: 6.00 Build 0)  -->
<!DOCTYPE svg PUBLIC "-//W3C//DTD SVG 1.1//EN" "http://www.w3.org/Graphics/SVG/1.1/DTD/svg11.dtd">
<svg version="1.1" id="Layer_1" xmlns="http://www.w3.org/2000/svg" xmlns:xlink="http://www.w3.org/1999/xlink" x="0px" y="0px"
	 width="128px" height="128px" viewBox="0 0 128 128" enable-background="new 0 0 128 128" xml:space="preserve">
<g>
	<g>
		<path fill="#FFAB00" d="M50,16c0,6.9-2,12-4.5,12h-4.7c-2.5,0-4.6-5.2-4.6-12l0,0c0-6.8,2-12,4.6-12h4.7C48,4,50,9.2,50,16L50,16z
			"/>
		<path fill="#37474F" d="M45.5,29.5h-4.7c-4.2,0-6.1-7-6.1-13.5c0-6.5,1.9-13.5,6.1-13.5h4.7c4.2,0,6,7,6,13.5
			C51.5,22.5,49.6,29.5,45.5,29.5z M40.8,5.5c-1,0-3.1,3.7-3.1,10.5c0,6.8,2,10.5,3.1,10.5h4.7c1,0,3-3.7,3-10.5
			c0-6.8-2-10.5-3-10.5H40.8z"/>
	</g>
	<g>
		<path fill="#FFAB00" d="M99,109.1c0,8.3-6.6,14.9-14.9,14.9H43.9c-8.3,0-14.9-6.6-14.9-14.9V33.3C29,25,35.6,18,43.9,18h40.2
			C92.4,18,99,25,99,33.3V109.1z"/>
		<path fill="#37474F" d="M84.1,125.5H43.9c-9.1,0-16.4-7.4-16.4-16.4V33.3c0-9.3,7.4-16.8,16.4-16.8h40.2c9,0,16.4,7.5,16.4,16.8
			v75.8C100.5,118.1,93.2,125.5,84.1,125.5z M43.9,19.5c-7.4,0-13.4,6.2-13.4,13.8v75.8c0,7.4,6,13.4,13.4,13.4h40.2
			c7.5,0,13.4-5.9,13.4-13.4V33.3c0-7.6-6-13.8-13.4-13.8H43.9z"/>
	</g>
	<g>
		<path fill="#37474F" d="M99,100.7c0,8.3-6.6,15.3-14.9,15.3H43.9c-8.3,0-14.9-7.1-14.9-15.3V24.9C29,16.6,35.6,10,43.9,10h40.2
			C92.4,10,99,16.6,99,24.9V100.7z"/>
		<path fill="#37474F" d="M84.1,117.5H43.9c-9.1,0-16.4-7.6-16.4-16.8V24.9c0-9,7.4-16.4,16.4-16.4h40.2c9.2,0,16.4,7.2,16.4,16.4
			v75.8C100.5,109.9,93.2,117.5,84.1,117.5z M43.9,11.5c-7.5,0-13.4,5.9-13.4,13.4v75.8c0,7.5,6.1,13.8,13.4,13.8h40.2
			c7.4,0,13.4-6.2,13.4-13.8V24.9c0-7.5-5.9-13.4-13.4-13.4H43.9z"/>
	</g>
	<g>
		<g>
			<path fill="#B0BEC5" d="M74.1,24.8c0-0.9,0.7-1.7,1.7-1.7c0.9,0,1.7,0.7,1.7,1.7c0,0.9-0.8,1.6-1.7,1.6
				C74.8,26.4,74.1,25.7,74.1,24.8z"/>
			<path fill="#B0BEC5" d="M75.7,26.9c-1.2,0-2.1-1-2.1-2.1c0-1.2,0.9-2.2,2.2-2.2c0.6,0,1.2,0.2,1.6,0.7c0.4,0.4,0.6,1,0.6,1.5
				C77.9,25.9,77,26.9,75.7,26.9L75.7,26.9z M75.8,23.6c-0.7,0-1.2,0.5-1.2,1.2c0,0.6,0.5,1.1,1.1,1.1v0.5l0-0.5
				c0.7,0,1.2-0.5,1.2-1.1c0-0.3-0.1-0.6-0.3-0.8C76.4,23.7,76.1,23.6,75.8,23.6z"/>
		</g>
		<g>
			<path fill="#B0BEC5" d="M62.4,24.8c0-0.9,0.7-1.7,1.7-1.7c0.9,0,1.7,0.7,1.7,1.7c0,0.9-0.8,1.7-1.7,1.7
				C63.1,26.4,62.4,25.7,62.4,24.8z"/>
			<path fill="#B0BEC5" d="M64,26.9L64,26.9c-1.2-0.1-2.2-1-2.2-2.2c0-1.2,0.9-2.2,2.2-2.2c1.2,0,2.2,1,2.2,2.2
				C66.2,26,65.2,26.9,64,26.9z M64,23.6c-0.6,0-1.2,0.5-1.2,1.2c0,0.6,0.5,1.2,1.2,1.2c0.6,0,1.2-0.5,1.2-1.2
				C65.2,24.1,64.7,23.6,64,23.6z"/>
		</g>
		<g>
			<path fill="#B0BEC5" d="M50.6,24.8c0-0.9,0.7-1.7,1.7-1.7c0.9,0,1.7,0.7,1.7,1.7c0,0.9-0.8,1.7-1.7,1.6
				C51.4,26.4,50.6,25.7,50.6,24.8z"/>
			<path fill="#B0BEC5" d="M52.4,26.9L52.4,26.9C52.3,26.9,52.3,26.9,52.4,26.9c-1.3,0-2.2-1-2.2-2.1c0-1.2,1-2.2,2.2-2.2
				c1.2,0,2.2,1,2.2,2.2C54.5,25.9,53.5,26.9,52.4,26.9z M52.3,23.6c-0.7,0-1.2,0.5-1.2,1.2c0,0.6,0.5,1.1,1.1,1.1l0.1,0.5v-0.5
				c0.6,0,1.1-0.5,1.1-1.1C53.5,24.1,52.9,23.6,52.3,23.6z"/>
		</g>
	</g>
	<g>
		<g>
			<path fill="#FFAB00" d="M71.5,107.4c0,1.2-1.4,2.1-2.5,2.1h-9.9c-1.2,0-2.6-0.9-2.6-2.1v-2.7c0-1.2,1.4-2.2,2.6-2.2H69
				c1.2,0,2.5,1,2.5,2.2V107.4z"/>
		</g>
	</g>
	<g>
		<g>
			<g>
				<polygon fill="#B0BEC5" points="82.9,91.2 81.8,92.4 84.2,94.8 81.8,97.2 82.9,98.3 86.5,94.8 				"/>
			</g>
			<g>
				<polygon fill="#B0BEC5" points="77,91.2 75.9,92.4 78.3,94.8 75.9,97.2 77,98.3 80.6,94.8 				"/>
			</g>
		</g>
		<g>
			<g>
				<polygon fill="#B0BEC5" points="45.1,98.3 46.3,97.2 43.9,94.8 46.3,92.4 45.1,91.2 41.6,94.8 				"/>
			</g>
			<g>
				<polygon fill="#B0BEC5" points="51,98.3 52.2,97.2 49.8,94.8 52.2,92.4 51,91.2 47.5,94.8 				"/>
			</g>
		</g>
	</g>
</g>
<g>
	<g>
		<path fill="#FFFFFF" d="M62.5,45.1c0,9.1-3.3,13.2-7.5,13.2c-5.6,0-7.5-6.4-7.5-13c0-7.3,2.3-13.2,7.7-13.2
			C61.1,32.1,62.5,39,62.5,45.1z M52.7,45.2c-0.1,6,0.7,8.7,2.4,8.7c1.6,0,2.1-2.8,2.1-8.7c0-5.5-0.5-8.7-2.1-8.7
			C53.5,36.5,52.7,39.3,52.7,45.2z"/>
	</g>
	<g>
		<path fill="#FFFFFF" d="M72.6,58v-6.1h-8.7v-3.5l8.4-15.9h4.9v15.3h2.6v4.1h-2.6V58H72.6z M72.6,47.8v-5.2c0-1.4,0.1-2.9,0.3-4.2
			h-0.2c-0.6,1.4-1.1,2.5-1.8,4l-2.7,5.4v0.1H72.6z"/>
	</g>
	<g>
		<path fill="#FFAB00" d="M49.4,82.8v-1.6l2-2c4.9-4.7,7.1-7.2,7.1-10c0-2-1-3.8-3.8-3.8c-1.7,0-3.2,0.9-4.1,1.6l-0.8-1.8
			c1.3-1.1,3.2-2,5.4-2c4.1,0,5.9,2.8,5.9,5.6c0,3.6-2.6,6.4-6.6,10.3L53,80.6v0.1h8.6v2.2H49.4z"/>
	</g>
	<g>
		<path fill="#FFAB00" d="M77.7,73c0,6.5-2.4,10.1-6.7,10.1c-3.8,0-6.3-3.5-6.3-9.9c0-6.4,2.8-10,6.7-10
			C75.4,63.3,77.7,66.9,77.7,73z M67.2,73.3c0,5,1.5,7.8,3.9,7.8c2.7,0,3.9-3.1,3.9-8c0-4.7-1.2-7.8-3.9-7.8
			C68.9,65.3,67.2,68.1,67.2,73.3z"/>
	</g>
</g>
<g>
	<g>
		<path fill="#37474F" d="M60.4,105.5c0-0.3,0-0.5,0-0.8h0.4l0,0.4h0c0.2-0.3,0.5-0.5,0.9-0.5c0.6,0,1,0.5,1,1.2
			c0,0.9-0.5,1.3-1.1,1.3c-0.3,0-0.6-0.1-0.8-0.4h0v1.3h-0.5V105.5z M60.8,106.1c0,0.1,0,0.1,0,0.2c0.1,0.3,0.3,0.5,0.7,0.5
			c0.5,0,0.7-0.4,0.7-0.9c0-0.5-0.3-0.9-0.7-0.9c-0.3,0-0.6,0.2-0.7,0.6c0,0,0,0.1,0,0.2V106.1z"/>
	</g>
	<g>
		<path fill="#37474F" d="M63.3,105.3c0-0.3,0-0.5,0-0.7h0.4l0,0.4h0c0.1-0.2,0.4-0.5,0.8-0.5c0.3,0,0.6,0.2,0.7,0.5l0,0
			c0.1-0.1,0.2-0.2,0.3-0.3c0.2-0.1,0.3-0.2,0.5-0.2c0.3,0,0.8,0.2,0.8,1.1v1.5h-0.4v-1.4c0-0.5-0.2-0.8-0.5-0.8
			c-0.2,0-0.4,0.2-0.5,0.4c0,0.1-0.1,0.1-0.1,0.2v1.5h-0.4v-1.5c0-0.4-0.2-0.7-0.5-0.7c-0.3,0-0.5,0.3-0.6,0.5c0,0,0,0.1,0,0.2v1.5
			h-0.4V105.3z"/>
	</g>
</g>
</svg>
