<?xml version="1.0" encoding="utf-8"?>
<!-- Generator: Adobe Illustrator 16.0.0, SVG Export Plug-In . SVG Version: 6.00 Build 0)  -->
<!DOCTYPE svg PUBLIC "-//W3C//DTD SVG 1.1//EN" "http://www.w3.org/Graphics/SVG/1.1/DTD/svg11.dtd">
<svg version="1.1" id="Layer_1" xmlns="http://www.w3.org/2000/svg" xmlns:xlink="http://www.w3.org/1999/xlink" x="0px" y="0px"
	 width="128px" height="128px" viewBox="0 0 128 128" enable-background="new 0 0 128 128" xml:space="preserve">
<g>
	<g>
		<rect x="20" y="59" fill="#B0BEC5" width="88" height="52"/>
		<path fill="#37474F" d="M108,113H20c-1.1,0-2-0.9-2-2V59c0-1.1,0.9-2,2-2h88c1.1,0,2,0.9,2,2v52C110,112.1,109.1,113,108,113z
			 M22,109h84V61H22V109z"/>
	</g>
	<g>
		<rect x="20" y="59" fill="#FFFFFF" width="25" height="52"/>
		<path fill="#37474F" d="M45,113H20c-1.1,0-2-0.9-2-2V59c0-1.1,0.9-2,2-2h25c1.1,0,2,0.9,2,2v52C47,112.1,46.1,113,45,113z M22,109
			h21V61H22V109z"/>
	</g>
	<g>
		<line fill="#FFFFFF" x1="35" y1="90" x2="40" y2="90"/>
		<path fill="#37474F" d="M40,92h-5c-1.1,0-2-0.9-2-2s0.9-2,2-2h5c1.1,0,2,0.9,2,2S41.1,92,40,92z"/>
	</g>
	<g>
		<line fill="#FFFFFF" x1="71.6" y1="97.2" x2="95" y2="73.8"/>
		<path fill="#37474F" d="M71.6,99.2c-0.5,0-1-0.2-1.4-0.6c-0.8-0.8-0.8-2,0-2.8l23.4-23.4c0.8-0.8,2-0.8,2.8,0s0.8,2,0,2.8L73,98.6
			C72.6,99,72.1,99.2,71.6,99.2z"/>
	</g>
	<g>
		<line fill="#FFFFFF" x1="83.1" y1="99.9" x2="95.6" y2="87.4"/>
		<path fill="#37474F" d="M83.1,101.9c-0.5,0-1-0.2-1.4-0.6c-0.8-0.8-0.8-2,0-2.8L94.2,86c0.8-0.8,2-0.8,2.8,0s0.8,2,0,2.8
			l-12.5,12.5C84.1,101.7,83.6,101.9,83.1,101.9z"/>
	</g>
	<g>
		<line fill="#FFFFFF" x1="4" y1="111" x2="124" y2="111"/>
		<path fill="#37474F" d="M124,113H4c-1.1,0-2-0.9-2-2s0.9-2,2-2h120c1.1,0,2,0.9,2,2S125.1,113,124,113z"/>
	</g>
	<g>
		<g>
			<path fill="#FFFFFF" d="M11,35v18.6c0,2.7,3.6,4.9,8,4.9s8-2.2,8-4.9V35H11z"/>
			<path fill="#37474F" d="M19,60.6c-5.6,0-10-3-10-6.9V35c0-1.1,0.9-2,2-2h16c1.1,0,2,0.9,2,2v18.6C29,57.5,24.6,60.6,19,60.6z
				 M13,37v16.6c0,1.2,2.3,2.9,6,2.9s6-1.7,6-2.9V37H13z"/>
		</g>
		<g>
			<path fill="#FFAB00" d="M26,35v18.6c0,2.7,3.6,4.9,8,4.9s8-2.2,8-4.9V35H26z"/>
			<path fill="#37474F" d="M34,60.6c-5.6,0-10-3-10-6.9V35c0-1.1,0.9-2,2-2h16c1.1,0,2,0.9,2,2v18.6C44,57.5,39.6,60.6,34,60.6z
				 M28,37v16.6c0,1.2,2.3,2.9,6,2.9s6-1.7,6-2.9V37H28z"/>
		</g>
		<g>
			<path fill="#FFFFFF" d="M41,35v18.6c0,2.7,3.1,4.9,7.5,4.9c4.4,0,7.5-2.2,7.5-4.9V35H41z"/>
			<path fill="#37474F" d="M48.5,60.6c-5.4,0-9.5-3-9.5-6.9V35c0-1.1,0.9-2,2-2h15c1.1,0,2,0.9,2,2v18.6
				C58,57.6,53.9,60.6,48.5,60.6z M43,37v16.6c0,1.4,2.2,2.9,5.5,2.9c3.3,0,5.5-1.5,5.5-2.9V37H43z"/>
		</g>
		<g>
			<path fill="#FFAB00" d="M55,35v18.6c0,2.7,3.6,4.9,8,4.9s8-2.2,8-4.9V35H55z"/>
			<path fill="#37474F" d="M63,60.6c-5.6,0-10-3-10-6.9V35c0-1.1,0.9-2,2-2h16c1.1,0,2,0.9,2,2v18.6C73,57.5,68.6,60.6,63,60.6z
				 M57,37v16.6c0,1.2,2.3,2.9,6,2.9s6-1.7,6-2.9V37H57z"/>
		</g>
		<g>
			<path fill="#FFFFFF" d="M70,35v18.6c0,2.7,3.6,4.9,8,4.9c4.4,0,8-2.2,8-4.9V35H70z"/>
			<path fill="#37474F" d="M78,60.6c-5.6,0-10-3-10-6.9V35c0-1.1,0.9-2,2-2h16c1.1,0,2,0.9,2,2v18.6C88,57.5,83.6,60.6,78,60.6z
				 M72,37v16.6c0,1.2,2.3,2.9,6,2.9s6-1.7,6-2.9V37H72z"/>
		</g>
		<g>
			<path fill="#FFAB00" d="M85,35v18.6c0,2.7,3.1,4.9,7.5,4.9s7.5-2.2,7.5-4.9V35H85z"/>
			<path fill="#37474F" d="M92.5,60.6c-5.4,0-9.5-3-9.5-6.9V35c0-1.1,0.9-2,2-2h15c1.1,0,2,0.9,2,2v18.6
				C102,57.6,97.9,60.6,92.5,60.6z M87,37v16.6c0,1.4,2.2,2.9,5.5,2.9S98,55,98,53.6V37H87z"/>
		</g>
		<g>
			<path fill="#FFFFFF" d="M99,35v18.6c0,2.7,3.6,4.9,8,4.9s8-2.2,8-4.9V35H99z"/>
			<path fill="#37474F" d="M107,60.6c-5.6,0-10-3-10-6.9V35c0-1.1,0.9-2,2-2h16c1.1,0,2,0.9,2,2v18.6C117,57.5,112.6,60.6,107,60.6z
				 M101,37v16.6c0,1.2,2.3,2.9,6,2.9s6-1.7,6-2.9V37H101z"/>
		</g>
	</g>
	<g>
		<polygon fill="#78909C" points="115.1,35 11.3,35 25.1,17 101.3,17 		"/>
		<path fill="#37474F" d="M115.1,37C115.1,37,115.1,37,115.1,37H11.3c-0.8,0-1.5-0.4-1.8-1.1s-0.3-1.5,0.2-2.1l13.8-18
			c0.4-0.5,1-0.8,1.6-0.8h76.2c0.6,0,1.2,0.3,1.6,0.8l13.6,17.8c0.4,0.4,0.6,0.9,0.6,1.4C117.1,36.1,116.2,37,115.1,37z M15.3,33
			H111l-10.7-14H26.1L15.3,33z"/>
	</g>
</g>
</svg>
