<?xml version="1.0" encoding="iso-8859-1"?>
<!-- Generator: Adobe Illustrator 17.1.0, SVG Export Plug-In . SVG Version: 6.00 Build 0)  -->
<!DOCTYPE svg PUBLIC "-//W3C//DTD SVG 1.1//EN" "http://www.w3.org/Graphics/SVG/1.1/DTD/svg11.dtd">
<svg version="1.1" xmlns="http://www.w3.org/2000/svg" xmlns:xlink="http://www.w3.org/1999/xlink" x="0px" y="0px"
	 viewBox="0 0 1009.994 1009.976" style="enable-background:new 0 0 1009.994 1009.976;" xml:space="preserve">
<g id="cloud-wifi">
	<path id="label_2_" style="fill:#EFEFEF;" d="M504.988,1009.976c278.901,0,505.006-226.094,505.006-504.988
		C1009.994,226.092,783.89,0,504.988,0C226.093,0,0,226.092,0,504.988C0,783.882,226.093,1009.976,504.988,1009.976z"/>
	<g id="icon_4_">
		<g>
			<path style="fill:#1CABEA;" d="M276.482,376.772c34.7-26.297,77.618-37.651,120.904-31.968
				c6.149,0.784,11.795-3.491,12.616-9.578c0.833-6.087-3.478-11.685-9.651-12.518c-49.214-6.442-98.073,6.467-137.525,36.365
				c-39.427,29.947-64.757,73.294-71.286,122.08c-0.735,5.316,2.486,10.276,7.41,11.991c0.711,0.245,1.458,0.417,2.217,0.515
				c6.161,0.796,11.808-3.491,12.641-9.591C219.564,441.186,241.832,403.094,276.482,376.772z"/>
			<path style="fill:#1CABEA;" d="M304.14,412.525c25.06-18.997,56.036-27.155,87.257-23.076c6.161,0.833,11.796-3.503,12.641-9.566
				c0.82-6.1-3.516-11.697-9.689-12.505c-37.186-4.875-74.078,4.887-103.878,27.461c-29.8,22.647-48.908,55.387-53.869,92.23
				c-0.723,5.316,2.487,10.276,7.423,11.967c0.723,0.245,1.482,0.441,2.217,0.539c6.173,0.821,11.82-3.491,12.641-9.578
				C263.021,459.044,279.079,431.546,304.14,412.525z"/>
			<path style="fill:#1CABEA;" d="M385.04,436.911c6.148,0.772,11.795-3.503,12.615-9.59c0.821-6.124-3.49-11.685-9.651-12.505
				c-50.39-6.602-96.836,28.624-103.548,78.524c-0.71,5.34,2.499,10.301,7.447,11.979c0.686,0.245,1.47,0.417,2.217,0.539
				c6.161,0.808,11.82-3.491,12.628-9.59C311.819,458.53,346.947,431.877,385.04,436.911z"/>
		</g>
		<path style="fill:#434A54;" d="M724.215,502.881c-4.237,0-8.354,0.38-12.469,0.919c-3.576-65.137-58.253-116.85-125.178-116.85
			c-54.677,0-96.254,39.219-113.463,87.27c-9.137-2.352-23.627-8.402-33.512-8.402c-62.491,0-113.077,49.949-113.077,111.546
			c0,61.609,50.586,111.521,113.077,111.521c59.748,0,245.867,0,284.621,0c52.129,0,94.338-41.632,94.338-93.002
			C818.553,544.525,776.344,502.881,724.215,502.881z M505.441,631.134h-16.67l-15.874-55.865
			c-0.686-2.438-1.531-5.953-2.572-10.546c-1.017-4.593-1.629-7.778-1.862-9.579c-0.417,2.744-1.115,6.284-2.082,10.632
			c-0.967,4.36-1.751,7.606-2.388,9.75l-15.506,55.608h-16.658l-12.102-46.912l-12.31-46.752h15.641l13.375,54.579
			c2.095,8.757,3.602,16.486,4.495,23.186c0.466-3.626,1.176-7.68,2.119-12.163c0.931-4.495,1.788-8.121,2.548-10.901l15.262-54.701
			h15.163l15.629,54.958c1.507,5.083,3.087,12.689,4.752,22.807c0.662-6.1,2.192-13.878,4.618-23.309l13.326-54.457h15.488
			L505.441,631.134z M559.72,631.134h-15.311V537.47h15.311V631.134z M610.967,602.362h-32.948V589.55h32.948V602.362z
			 M682.154,550.393h-37.676v29.298h35.3v13.008h-35.3v38.436h-15.188V537.47h52.863V550.393z M715.764,631.134h-15.285V537.47
			h15.285V631.134z"/>
	</g>
</g>
<g id="Layer_1">
</g>
</svg>
