<?xml version="1.0" encoding="iso-8859-1"?>
<!-- Generator: Adobe Illustrator 17.1.0, SVG Export Plug-In . SVG Version: 6.00 Build 0)  -->
<!DOCTYPE svg PUBLIC "-//W3C//DTD SVG 1.1//EN" "http://www.w3.org/Graphics/SVG/1.1/DTD/svg11.dtd">
<svg version="1.1" xmlns="http://www.w3.org/2000/svg" xmlns:xlink="http://www.w3.org/1999/xlink" x="0px" y="0px"
	 viewBox="0 0 1009.976 1009.976" style="enable-background:new 0 0 1009.976 1009.976;" xml:space="preserve">
<g id="desktop-pc">
	<path id="label_26_" style="fill:#EFEFEF;" d="M504.988,1009.976c278.907,0,504.988-226.105,504.988-504.988
		C1009.976,226.068,783.895,0,504.988,0C226.105,0,0,226.068,0,504.988C0,783.871,226.105,1009.976,504.988,1009.976z"/>
	<g id="icon_28_">
		<path style="fill:#434A54;" d="M698.267,383.637h-51.578c-20.994,0-38.19,17.19-38.19,38.208v253.933
			c0,21.049,17.196,38.185,38.19,38.185h51.578c20.981,0,38.166-17.136,38.166-38.185V421.846
			C736.433,400.828,719.248,383.637,698.267,383.637z M672.472,573.627c-5.916,0-10.681-4.771-10.681-10.693
			c0-5.903,4.765-10.662,10.681-10.662c5.891,0,10.68,4.759,10.68,10.662C683.152,568.857,678.363,573.627,672.472,573.627z
			 M667.867,536.209c0-2.542,2.07-4.6,4.605-4.6c2.523,0,4.58,2.058,4.58,4.6c0,2.547-2.057,4.581-4.58,4.581
			C669.937,540.79,667.867,538.756,667.867,536.209z M710.185,463.827h-75.414c-2.106,0-3.846-1.684-3.846-3.797
			c0-2.113,1.739-3.815,3.846-3.815h75.414c2.106,0,3.809,1.703,3.809,3.815C713.994,462.143,712.292,463.827,710.185,463.827z
			 M710.185,444.756h-75.414c-2.106,0-3.846-1.727-3.846-3.84c0-2.088,1.739-3.797,3.846-3.797h75.414
			c2.106,0,3.809,1.708,3.809,3.797C713.994,443.029,712.292,444.756,710.185,444.756z M710.185,425.667h-75.414
			c-2.106,0-3.846-1.739-3.846-3.822c0-2.113,1.739-3.833,3.846-3.833h75.414c2.106,0,3.809,1.721,3.809,3.833
			C713.994,423.928,712.292,425.667,710.185,425.667z M538.5,376.092H240.117c-26.848,0.042-48.626,21.826-48.687,48.681v178.183
			c0.061,26.867,21.839,48.645,48.687,48.693H351.21v25.905c0,2.793-1.09,7.196-2.413,9.817l-36.622,13.492
			c-3.295,1.507-9.186,2.774-13.094,2.774h-7.337c-3.932,0-7.141,2.266-7.141,5.04v0.245c0,2.779,3.209,5.04,7.141,5.04H486.86
			c3.944,0,7.19-2.261,7.19-5.04v-0.245c0-2.774-1.544-5.04-3.332-5.04c-1.861,0-6.528-0.356-10.423-0.791L433.09,685.32
			c-3.307-1.476-6.026-4.973-6.026-7.766v-25.905H538.5c26.873-0.049,48.638-21.826,48.699-48.693V424.773
			C587.137,397.918,565.373,376.135,538.5,376.092z M490.976,641.759h-39.219c-2.768,0-4.997-2.193-4.997-4.967
			c0-2.744,2.229-4.948,4.997-4.948h39.219c2.756,0,4.973,2.205,4.973,4.948C495.949,639.566,493.732,641.759,490.976,641.759z
			 M507.609,641.924c-2.842,0-5.12-2.303-5.12-5.132c0-2.817,2.278-5.126,5.12-5.126c2.829,0,5.096,2.309,5.096,5.126
			C512.705,639.622,510.438,641.924,507.609,641.924z M559.089,602.956c-0.037,11.238-9.383,20.602-20.59,20.602H240.117
			c-11.219,0-20.54-9.364-20.577-20.602V424.773c0.037-11.189,9.358-20.54,20.577-20.559H538.5
			c11.207,0.018,20.553,9.37,20.59,20.559V602.956z"/>
		<path style="fill:#1CABEA;" d="M761.346,400.907c-0.404,0.153-0.846,0.245-1.274,0.312c-3.503,0.478-6.724-1.972-7.178-5.457
			c-2.891-21.496-22.892-36.66-44.584-33.793c-3.502,0.435-6.724-1.984-7.177-5.457c-0.466-3.497,1.983-6.663,5.499-7.116
			c28.686-3.767,55.118,16.302,58.964,44.719C765.976,397.153,764.151,399.958,761.346,400.907z M792.836,390.539
			c-2.817-20.994-13.706-39.617-30.67-52.527c-16.964-12.848-37.981-18.421-59.172-15.622c-3.503,0.459-5.965,3.632-5.512,7.104
			c0.49,3.454,3.712,5.947,7.214,5.456c17.761-2.333,35.41,2.339,49.668,13.143c14.281,10.815,23.418,26.462,25.795,44.112
			c0.453,3.466,3.687,5.928,7.178,5.439c0.428-0.067,0.845-0.153,1.273-0.288C791.404,396.375,793.216,393.558,792.836,390.539z
			 M818.497,387.165c-3.724-27.792-18.14-52.46-40.615-69.534c-22.451-16.995-50.255-24.375-78.292-20.694
			c-3.527,0.472-5.965,3.662-5.486,7.135c0.441,3.479,3.674,5.897,7.177,5.438c24.643-3.227,49.092,3.246,68.849,18.226
			c19.732,14.968,32.397,36.678,35.68,61.077c0.489,3.503,3.686,5.928,7.177,5.463c0.441-0.024,0.882-0.153,1.262-0.282
			C817.076,393.013,818.901,390.202,818.497,387.165z"/>
	</g>
</g>
<g id="Layer_1">
</g>
</svg>
