<?xml version="1.0" encoding="iso-8859-1"?>
<!-- Generator: Adobe Illustrator 17.1.0, SVG Export Plug-In . SVG Version: 6.00 Build 0)  -->
<!DOCTYPE svg PUBLIC "-//W3C//DTD SVG 1.1//EN" "http://www.w3.org/Graphics/SVG/1.1/DTD/svg11.dtd">
<svg version="1.1" xmlns="http://www.w3.org/2000/svg" xmlns:xlink="http://www.w3.org/1999/xlink" x="0px" y="0px"
	 viewBox="0 0 1009.976 1009.976" style="enable-background:new 0 0 1009.976 1009.976;" xml:space="preserve">
<g id="gps">
	<path id="label_24_" style="fill:#EFEFEF;" d="M504.988,0C226.092,0,0,226.105,0,504.976c0,278.919,226.092,505,504.988,505
		s504.988-226.081,504.988-505C1009.976,226.105,783.883,0,504.988,0z"/>
	<g id="icon_26_">
		<path style="fill:#434A54;" d="M507.854,630.668c-40.677,0-40.677,63.054,0,63.054
			C548.519,693.722,548.519,630.668,507.854,630.668z"/>
		<path style="fill:#434A54;" d="M383.141,497.357c-22.194,0-22.194,34.394,0,34.394
			C405.311,531.75,405.311,497.357,383.141,497.357z"/>
		<path style="fill:#434A54;" d="M647.02,473.405h-9.407c-1.09,0-1.959,0.864-1.972,1.96v9.407c0.013,1.09,0.882,1.966,1.972,1.978
			h9.407c1.09-0.012,1.96-0.888,1.972-1.978v-9.407C648.98,474.269,648.11,473.405,647.02,473.405z M647.387,484.772
			c0,0.202-0.171,0.361-0.367,0.361h-9.407c-0.184,0-0.367-0.159-0.367-0.361v-9.407c0-0.19,0.184-0.373,0.367-0.373h9.407
			c0.196,0,0.367,0.184,0.367,0.373V484.772z M700.312,254.147h-114.24c-19.769,0-35.777,15.996-35.789,35.784v182.641
			c0.012,19.775,16.02,35.796,35.789,35.796h114.24c19.757,0,35.777-16.021,35.79-35.796V289.931
			C736.089,270.144,720.069,254.147,700.312,254.147z M626.7,276.917h31.233c1.923,0,3.478,1.549,3.478,3.46
			c0,1.935-1.556,3.479-3.478,3.479H626.7c-1.911,0-3.466-1.543-3.466-3.479C623.234,278.466,624.789,276.917,626.7,276.917z
			 M642.316,492.758c-6.908,0-12.518-5.616-12.518-12.518c0-6.921,5.609-12.518,12.518-12.518c6.921,0,12.519,5.597,12.519,12.518
			C654.834,487.142,649.237,492.758,642.316,492.758z M709.597,448.957c-0.025,2.027-1.69,3.699-3.725,3.699H578.772
			c-2.033,0-3.712-1.672-3.712-3.699V305.321c0-2.033,1.666-3.711,3.712-3.711h127.101c2.034,0,3.699,1.678,3.725,3.711V448.957z"/>
		<path style="fill:#434A54;" d="M538.818,382.051c-1.58-0.472-3.283-0.79-5.182-0.79c-22.193,0-22.193,34.387,0,34.387
			c1.898,0,3.602-0.324,5.182-0.796V382.051z"/>
		<path style="fill:#434A54;" d="M668.234,519.845v175.887c0,19.469-15.923,35.403-35.398,35.403h-298.86
			c-19.463,0-35.41-15.935-35.41-35.403V396.877c0-19.462,15.947-35.404,35.41-35.404h204.842v-24.699H314.023
			c-22.083,0-40.138,18.072-40.138,40.125v338.796c0,22.071,18.054,40.143,40.138,40.143h338.79
			c22.071,0,40.126-18.072,40.126-40.143V519.845H668.234z"/>
		<path style="fill:#434A54;" d="M532.865,556.841c13.057-13.044,26.102-26.089,39.146-39.127
			c-9.003-2.811-16.781-8.323-22.574-15.476l-0.526,0.521c-0.612,0.613-1.421,0.919-2.229,0.919c-0.82,0-1.617-0.306-2.241-0.919
			c-1.237-1.237-1.237-3.239,0-4.483l1.311-1.316c-4.323-7.147-6.933-15.427-6.933-24.387v-1.831l-46.029,46.011l-75.291-75.297
			c22.807-22.812,45.625-45.631,68.444-68.45h-48.639c-14.723,14.698-29.433,29.433-44.118,44.137l-44.144-44.137h-5.732
			c-11.611,0-21.851,6.026-27.791,15.133l53.329,53.317l-58.731,58.731v19.089l6.32-6.338c1.237-1.225,3.246-1.225,4.483,0
			c1.225,1.243,1.225,3.252,0,4.489l-10.803,10.797v20.614l83.069-83.063l75.278,75.297
			C416.335,593.2,364.193,645.354,312.051,697.49c4.605,12.842,16.878,22.113,31.258,22.113h26.8
			c46.152-46.151,92.304-92.285,138.443-138.443l133.029,133.036c4.104-2.689,7.533-6.265,10.117-10.442l-1.861-1.873
			c-1.237-1.23-1.237-3.234,0-4.477c1.225-1.237,3.221-1.237,4.471,0l0.33,0.336c1.323-3.527,2.07-7.336,2.07-11.329v-5.739
			L532.865,556.841z M438.247,391.145l13.534-13.547c1.25-1.231,3.246-1.231,4.495,0c1.225,1.237,1.225,3.233,0,4.471
			l-13.559,13.534c-0.601,0.631-1.421,0.937-2.229,0.937s-1.617-0.306-2.241-0.937C437.009,394.373,437.009,392.376,438.247,391.145
			z M342.991,390.576c-0.612,0.637-1.421,0.943-2.229,0.943c-0.808,0-1.617-0.306-2.242-0.943l-6.712-6.7
			c-1.237-1.237-1.237-3.24,0-4.483c1.237-1.237,3.246-1.237,4.471,0l6.712,6.712C344.24,387.342,344.24,389.351,342.991,390.576z
			 M517.371,525.338l13.535-13.528c1.236-1.237,3.233-1.237,4.471,0c1.236,1.231,1.236,3.233,0,4.471l-13.535,13.528
			c-0.612,0.631-1.421,0.931-2.229,0.931c-0.809,0-1.617-0.3-2.242-0.931C516.134,528.584,516.134,526.588,517.371,525.338z
			 M411.19,418.208l13.522-13.54c1.237-1.231,3.246-1.231,4.483,0c1.237,1.237,1.237,3.246,0,4.471l-13.534,13.534
			c-0.612,0.619-1.421,0.937-2.242,0.937c-0.796,0-1.617-0.318-2.229-0.937C409.953,421.441,409.953,419.445,411.19,418.208z
			 M367.831,418.581c-0.796,0-1.604-0.3-2.241-0.925l-13.535-13.534c-1.237-1.243-1.237-3.246,0-4.483
			c1.237-1.237,3.246-1.237,4.483,0l13.534,13.546c1.225,1.225,1.225,3.228,0,4.471C369.46,418.282,368.651,418.581,367.831,418.581
			z M347.976,490.357l-13.522,13.535c-0.612,0.606-1.433,0.931-2.253,0.931c-0.784,0-1.605-0.325-2.229-0.931
			c-1.225-1.237-1.225-3.24,0-4.471l13.534-13.553c1.249-1.219,3.258-1.219,4.471,0C349.225,487.105,349.225,489.12,347.976,490.357
			z M375.045,463.276l-13.535,13.54c-0.612,0.619-1.396,0.919-2.229,0.919c-0.808,0-1.605-0.3-2.242-0.919
			c-1.237-1.225-1.237-3.233,0-4.464l13.535-13.547c1.25-1.237,3.246-1.237,4.471,0
			C376.306,460.042,376.306,462.045,375.045,463.276z M402.114,436.207l-4.593,4.618c0.772,1.212,0.698,2.823-0.379,3.907
			c-0.625,0.612-1.434,0.919-2.242,0.919c-0.6,0-1.164-0.22-1.654-0.551l-4.654,4.643c-0.612,0.618-1.421,0.937-2.241,0.937
			c-0.809,0-1.604-0.319-2.254-0.937c-1.212-1.231-1.212-3.234,0-4.465l4.557-4.55l-9.529-9.535c-1.237-1.231-1.237-3.24,0-4.477
			c1.262-1.249,3.258-1.249,4.471,0l9.542,9.523l4.52-4.507c1.237-1.231,3.234-1.231,4.458,0
			C403.375,432.974,403.375,434.982,402.114,436.207z M424.21,471.794c-0.612,0.625-1.433,0.943-2.241,0.943
			c-0.796,0-1.617-0.318-2.229-0.943l-13.535-13.528c-1.225-1.243-1.225-3.246,0-4.477c1.237-1.243,3.246-1.243,4.471,0
			l13.534,13.535C425.435,468.561,425.435,470.57,424.21,471.794z M451.279,498.857c-0.612,0.612-1.433,0.925-2.241,0.925
			c-0.796,0-1.617-0.312-2.229-0.925l-13.534-13.535c-1.237-1.231-1.237-3.233,0-4.464c1.237-1.25,3.233-1.25,4.47,0l13.535,13.528
			C452.516,495.618,452.516,497.62,451.279,498.857z M460.331,512.392c-1.225-1.231-1.225-3.24,0-4.471
			c1.261-1.243,3.245-1.243,4.482,0l13.535,13.534c1.237,1.243,1.237,3.246,0,4.465c-0.613,0.637-1.421,0.943-2.229,0.943
			c-0.809,0-1.617-0.306-2.242-0.943L460.331,512.392z M345.906,705.769l-6.724,6.719c-0.625,0.618-1.42,0.924-2.242,0.924
			c-0.808,0-1.604-0.306-2.229-0.924c-1.237-1.226-1.237-3.229,0-4.49l6.712-6.688c1.225-1.242,3.233-1.242,4.482,0
			C347.131,702.536,347.131,704.539,345.906,705.769z M372.975,678.706l-13.547,13.528c-0.625,0.613-1.421,0.943-2.229,0.943
			c-0.82,0-1.629-0.33-2.241-0.943c-1.249-1.231-1.249-3.233,0-4.458l13.523-13.547c1.249-1.231,3.246-1.231,4.495,0
			C374.2,675.454,374.2,677.463,372.975,678.706z M400.043,651.625l-13.546,13.54c-0.625,0.613-1.421,0.937-2.229,0.937
			c-0.821,0-1.617-0.324-2.242-0.937c-1.237-1.237-1.237-3.24,0-4.489l13.535-13.535c1.237-1.231,3.246-1.231,4.482,0
			C401.269,648.392,401.269,650.394,400.043,651.625z M427.1,624.556l-13.534,13.541c-0.612,0.612-1.433,0.937-2.241,0.937
			c-0.809,0-1.617-0.325-2.23-0.937c-1.237-1.237-1.237-3.233,0-4.477l13.535-13.528c1.237-1.25,3.233-1.25,4.47,0
			C428.337,621.323,428.337,623.331,427.1,624.556z M454.182,597.487l-13.547,13.559c-0.625,0.606-1.42,0.913-2.229,0.913
			c-0.821,0-1.629-0.307-2.241-0.913c-1.225-1.25-1.225-3.252,0-4.495l13.546-13.535c1.225-1.237,3.221-1.237,4.471,0
			C455.407,594.26,455.407,596.263,454.182,597.487z M481.25,570.425l-13.559,13.528c-0.612,0.612-1.409,0.937-2.217,0.937
			c-0.833,0-1.617-0.325-2.242-0.937c-1.249-1.231-1.249-3.24,0-4.465l13.547-13.541c1.213-1.237,3.222-1.237,4.471,0
			C482.488,567.185,482.488,569.188,481.25,570.425z M508.307,543.343l-4.03,4.036l1.151,1.151c1.225,1.231,1.225,3.233,0,4.471
			c-0.613,0.618-1.433,0.931-2.253,0.931c-0.796,0-1.604-0.312-2.242-0.931l-1.127-1.139l-5.034,5.016
			c-0.613,0.631-1.434,0.937-2.217,0.937c-0.821,0-1.641-0.306-2.253-0.937c-1.237-1.225-1.237-3.227,0-4.464l5.034-5.034
			l-7.924-7.9c-1.225-1.243-1.225-3.252,0-4.489c1.237-1.237,3.221-1.237,4.471,0l7.924,7.924l4.03-4.036
			c1.225-1.243,3.233-1.243,4.471,0C509.544,540.104,509.544,542.107,508.307,543.343z M532.498,580.07
			c-0.625,0.637-1.434,0.943-2.254,0.943c-0.796,0-1.616-0.306-2.229-0.943l-13.535-13.535c-1.236-1.225-1.236-3.228,0-4.464
			c1.237-1.243,3.234-1.243,4.471,0l13.547,13.54C533.722,576.836,533.722,578.845,532.498,580.07z M559.554,607.139
			c-0.612,0.606-1.421,0.931-2.229,0.931c-0.82,0-1.616-0.325-2.241-0.931l-13.534-13.535c-1.237-1.231-1.237-3.228,0-4.471
			c1.225-1.237,3.233-1.237,4.482,0l13.523,13.54C560.779,603.893,560.779,605.896,559.554,607.139z M586.635,634.202
			c-0.624,0.637-1.445,0.943-2.241,0.943c-0.809,0-1.629-0.306-2.242-0.943l-13.534-13.528c-1.225-1.231-1.225-3.233,0-4.471
			c1.237-1.231,3.246-1.231,4.495,0l13.523,13.541C587.86,630.975,587.86,632.977,586.635,634.202z M613.705,661.283
			c-0.625,0.625-1.434,0.931-2.242,0.931s-1.629-0.306-2.229-0.931l-13.547-13.534c-1.237-1.243-1.237-3.246,0-4.489
			c1.249-1.225,3.246-1.225,4.482,0l13.535,13.553C614.941,658.037,614.941,660.04,613.705,661.283z M640.761,688.358
			c-0.613,0.606-1.421,0.906-2.229,0.906c-0.808,0-1.617-0.3-2.241-0.906l-13.535-13.547c-1.236-1.225-1.236-3.227,0-4.464
			c1.25-1.243,3.259-1.243,4.483,0l13.522,13.535C642.01,685.112,642.01,687.121,640.761,688.358z"/>
		<path style="fill:#1CABEA;" d="M590.958,346.873l9.873,15.494c25.183-16.07,58.4-17.154,85.236,0l9.884-15.494
			C662.919,325.751,621.972,327.068,590.958,346.873z"/>
		<path style="fill:#1CABEA;" d="M621.151,394.128c13.18-8.409,30.548-8.972,44.597,0l9.799-15.317
			c-20.197-12.903-45.233-12.107-64.193,0L621.151,394.128z"/>
		<path style="fill:#1CABEA;" d="M654.516,411.961c0,6.1-4.948,11.072-11.073,11.072c-6.111,0-11.072-4.973-11.072-11.072
			c0-6.118,4.961-11.073,11.072-11.073C649.568,400.889,654.516,405.843,654.516,411.961z"/>
	</g>
</g>
<g id="Layer_1">
</g>
</svg>
