<?xml version="1.0" encoding="iso-8859-1"?>
<!-- Generator: Adobe Illustrator 17.1.0, SVG Export Plug-In . SVG Version: 6.00 Build 0)  -->
<!DOCTYPE svg PUBLIC "-//W3C//DTD SVG 1.1//EN" "http://www.w3.org/Graphics/SVG/1.1/DTD/svg11.dtd">
<svg version="1.1" xmlns="http://www.w3.org/2000/svg" xmlns:xlink="http://www.w3.org/1999/xlink" x="0px" y="0px"
	 viewBox="0 0 1009.994 1009.976" style="enable-background:new 0 0 1009.994 1009.976;" xml:space="preserve">
<g id="mp3-player">
	<path id="label_27_" style="fill:#EFEFEF;" d="M504.988,0C226.093,0,0,226.105,0,505s226.093,504.976,504.988,504.976
		c278.901,0,505.006-226.081,505.006-504.976S783.89,0,504.988,0z"/>
	<g id="icon_29_">
		<path style="fill:#1CABEA;" d="M629.56,354.149c-0.49,0.184-1.054,0.319-1.593,0.392c-4.385,0.576-8.427-2.511-9.015-6.822
			c-3.602-26.922-28.661-45.931-55.828-42.343c-4.36,0.539-8.402-2.486-8.99-6.847c-0.588-4.36,2.498-8.341,6.883-8.917
			c35.938-4.715,69.032,20.431,73.834,56.012C635.341,349.409,633.062,352.949,629.56,354.149z M668.975,341.154
			c-3.502-26.285-17.148-49.618-38.41-65.762c-21.238-16.119-47.549-23.076-74.078-19.573c-4.385,0.551-7.496,4.556-6.884,8.892
			c0.588,4.324,4.606,7.423,9.015,6.822c22.268-2.915,44.34,2.915,62.197,16.45c17.883,13.559,29.348,33.168,32.287,55.24
			c0.563,4.36,4.605,7.422,8.99,6.822c0.539-0.073,1.102-0.196,1.592-0.367C667.188,348.466,669.489,344.926,668.975,341.154z
			 M701.115,336.903c-4.68-34.749-22.733-65.688-50.855-87.037c-28.098-21.312-62.932-30.523-98.036-25.93
			c-4.409,0.6-7.496,4.581-6.884,8.941c0.588,4.336,4.606,7.386,8.99,6.822c30.866-4.054,61.463,4.042,86.204,22.782
			c24.718,18.777,40.591,45.956,44.683,76.516c0.612,4.36,4.63,7.41,9.039,6.822c0.515-0.049,1.053-0.184,1.567-0.368
			C699.326,344.252,701.629,340.7,701.115,336.903z"/>
		<path style="fill:#434A54;" d="M579.391,341.717H323.737c-8.243,0-14.956,6.688-14.956,14.955V772.21
			c0,8.292,6.712,14.979,14.956,14.979h255.654c8.231,0,14.918-6.688,14.918-14.979V356.672
			C594.309,348.405,587.621,341.717,579.391,341.717z M450.434,752.16c-58.498,0-105.911-47.389-105.911-105.899
			c0-58.498,47.413-105.924,105.911-105.924c58.486,0,105.906,47.426,105.906,105.924C556.34,704.771,508.92,752.16,450.434,752.16z
			 M573.928,495.189c0,7.814-6.491,14.11-14.477,14.11H343.665c-7.999,0-14.49-6.296-14.49-14.11V376.576
			c0-7.79,6.492-14.134,14.49-14.134H559.45c7.986,0,14.477,6.345,14.477,14.134V495.189z M493.817,648.159
			c0,23.333-18.924,42.257-42.269,42.257c-23.333,0-42.245-18.923-42.245-42.257c0-23.345,18.912-42.269,42.245-42.269
			C474.893,605.89,493.817,624.813,493.817,648.159z M466.504,572.391l-29.911,17.294v-34.541L466.504,572.391z M436.936,709.401
			h29.237v29.261h-29.237V709.401z M528.78,635.004l19.132,11.024v-11.024h2.205v22.268h-2.205v-11.109l-19.132,11.109v-11.036
			l-19.052,11.036v-22.268l19.052,10.95V635.004z M376.613,645.954l19.022-10.95v22.268l-19.022-11.011v11.011l-19.144-11.097
			v11.097h-2.192v-22.268h2.192v11.024l19.144-11.024V645.954z M335.691,490.216h13.363v6.688h-13.363V490.216z M352.398,490.216
			h13.363v6.688h-13.363V490.216z M369.092,490.216h13.388v6.688h-13.388V490.216z M385.799,490.216h13.375v6.688h-13.375V490.216z
			 M402.518,490.216h13.351v6.688h-13.351V490.216z M419.225,490.216h13.351v6.688h-13.351V490.216z M435.919,490.216h13.375v6.688
			h-13.375V490.216z M452.614,490.216h13.387v6.688h-13.387V490.216z M469.333,490.216h13.363v6.688h-13.363V490.216z
			 M486.04,490.216h13.363v6.688H486.04V490.216z M502.759,490.216h13.339v6.688h-13.339V490.216z M519.447,490.216h13.375v6.688
			h-13.375V490.216z M536.154,490.216h13.351v6.688h-13.351V490.216z M552.86,490.216h13.351v6.688H552.86V490.216z
			 M335.691,480.222h13.363v6.663h-13.363V480.222z M352.398,480.222h13.363v6.663h-13.363V480.222z M369.092,480.222h13.388v6.663
			h-13.388V480.222z M385.799,480.222h13.375v6.663h-13.375V480.222z M402.518,480.222h13.351v6.663h-13.351V480.222z
			 M419.225,480.222h13.351v6.663h-13.351V480.222z M435.919,480.222h13.375v6.663h-13.375V480.222z M452.614,480.222h13.387v6.663
			h-13.387V480.222z M469.333,480.222h13.363v6.663h-13.363V480.222z M486.04,480.222h13.363v6.663H486.04V480.222z
			 M502.759,480.222h13.339v6.663h-13.339V480.222z M519.447,480.222h13.375v6.663h-13.375V480.222z M536.154,480.222h13.351v6.663
			h-13.351V480.222z M552.86,480.222h13.351v6.663H552.86V480.222z M335.691,470.19h13.363v6.663h-13.363V470.19z M352.398,470.19
			h13.363v6.663h-13.363V470.19z M369.092,470.19h13.388v6.663h-13.388V470.19z M385.799,470.19h13.375v6.663h-13.375V470.19z
			 M402.518,470.19h13.351v6.663h-13.351V470.19z M419.225,470.19h13.351v6.663h-13.351V470.19z M435.919,470.19h13.375v6.663
			h-13.375V470.19z M452.614,470.19h13.387v6.663h-13.387V470.19z M486.04,470.19h13.363v6.663H486.04V470.19z M502.759,470.19
			h13.339v6.663h-13.339V470.19z M519.447,470.19h13.375v6.663h-13.375V470.19z M536.154,470.19h13.351v6.663h-13.351V470.19z
			 M552.86,470.19h13.351v6.663H552.86V470.19z M335.691,460.159h13.363v6.688h-13.363V460.159z M369.092,460.159h13.388v6.688
			h-13.388V460.159z M385.799,460.159h13.375v6.688h-13.375V460.159z M402.518,460.159h13.351v6.688h-13.351V460.159z
			 M419.225,460.159h13.351v6.688h-13.351V460.159z M435.919,460.159h13.375v6.688h-13.375V460.159z M486.04,460.159h13.363v6.688
			H486.04V460.159z M519.447,460.159h13.375v6.688h-13.375V460.159z M536.154,460.159h13.351v6.688h-13.351V460.159z
			 M552.86,460.159h13.351v6.688H552.86V460.159z M335.691,450.115h13.363v6.7h-13.363V450.115z M369.092,450.115h13.388v6.7
			h-13.388V450.115z M385.799,450.115h13.375v6.7h-13.375V450.115z M419.225,450.115h13.351v6.7h-13.351V450.115z M486.04,450.115
			h13.363v6.7H486.04V450.115z M519.447,450.115h13.375v6.7h-13.375V450.115z M552.86,450.115h13.351v6.7H552.86V450.115z
			 M335.691,440.096h13.363v6.7h-13.363V440.096z M369.092,440.096h13.388v6.7h-13.388V440.096z M385.799,440.096h13.375v6.7
			h-13.375V440.096z M419.225,440.096h13.351v6.7h-13.351V440.096z M486.04,440.096h13.363v6.7H486.04V440.096z M519.447,440.096
			h13.375v6.7h-13.375V440.096z M552.86,440.096h13.351v6.7H552.86V440.096z M385.799,430.077h13.375v6.7h-13.375V430.077z
			 M419.225,430.077h13.351v6.7h-13.351V430.077z M519.447,430.077h13.375v6.7h-13.375V430.077z M385.799,420.082h13.375v6.663
			h-13.375V420.082z M519.447,420.082h13.375v6.663h-13.375V420.082z"/>
	</g>
</g>
<g id="Layer_1">
</g>
</svg>
