<?xml version="1.0" encoding="iso-8859-1"?>
<!-- Generator: Adobe Illustrator 17.1.0, SVG Export Plug-In . SVG Version: 6.00 Build 0)  -->
<!DOCTYPE svg PUBLIC "-//W3C//DTD SVG 1.1//EN" "http://www.w3.org/Graphics/SVG/1.1/DTD/svg11.dtd">
<svg version="1.1" xmlns="http://www.w3.org/2000/svg" xmlns:xlink="http://www.w3.org/1999/xlink" x="0px" y="0px"
	 viewBox="0 0 1009.976 1009.976" style="enable-background:new 0 0 1009.976 1009.976;" xml:space="preserve">
<g id="remote-control">
	<path id="label_33_" style="fill:#EFEFEF;" d="M504.988,0C226.105,0,0,226.092,0,504.988
		c0,278.895,226.105,504.988,504.988,504.988c278.907,0,504.988-226.094,504.988-504.988C1009.976,226.092,783.895,0,504.988,0z"/>
	<g id="icon_35_">
		<path style="fill-rule:evenodd;clip-rule:evenodd;fill:#434A54;" d="M442.3,622.474c10.117,10.08,10.117,26.407-0.024,36.476
			c-10.08,10.056-26.432,10.019-36.5-0.049c-10.068-10.068-10.068-26.347,0.024-36.427
			C415.893,612.406,432.232,612.406,442.3,622.474 M298.921,729.158c35.508,35.545,93.528,35.545,128.975,0.098l152.59-152.309
			c33.806-33.671,35.446-87.906,4.96-123.647c-1.506-1.789-3.16-3.503-4.887-5.193l-18.238-18.275
			c-1.947-2.008-3.943-3.797-6.001-5.487c-35.704-29.898-89.475-28.049-122.986,5.34L280.793,582.03
			c-35.495,35.41-35.532,93.406-0.085,128.852L298.921,729.158z M470.251,562.788c-6.345,6.32-16.694,6.247-23.027-0.061
			c-6.271-6.32-6.32-16.621,0.074-22.978l21.851-21.888l-21.974-21.913c-6.295-6.369-6.271-16.658,0.049-23.051
			c6.333-6.283,16.72-6.247,22.979,0l21.998,21.998l21.398-21.374c6.357-6.357,16.72-6.357,23.015,0
			c6.369,6.332,6.309,16.719,0,22.99l-21.459,21.386l22.365,22.378c6.296,6.332,6.296,16.682,0,22.953
			c-6.357,6.333-16.682,6.394-23.015,0l-22.304-22.341L470.251,562.788z M351.099,604.224c10.093,10.092,26.383,10.092,36.5,0
			c10.068-10.032,10.093-26.359,0-36.451c-10.068-10.032-26.383-10.032-36.476,0C340.982,577.853,341.031,594.192,351.099,604.224
			 M332.898,622.474c10.044,10.08,10.044,26.285-0.061,36.427c-10.129,10.031-26.432,10.031-36.537,0.024
			c-9.995-10.167-10.044-26.457,0.086-36.537C306.478,612.345,322.806,612.394,332.898,622.474 M387.55,677.126
			c-10.068-10.068-26.456-10.019-36.488,0c-10.081,10.081-10.081,26.372,0,36.439c10.007,10.104,26.395,10.081,36.488,0.013
			C397.57,703.558,397.643,687.219,387.55,677.126"/>
		<path style="fill-rule:evenodd;clip-rule:evenodd;fill:#434A54;" d="M580.56,448.106l-18.238-18.275
			c-1.947-2.008-3.98-3.797-6.001-5.487c7.974-2.462,17.037-0.588,23.382,5.732c6.309,6.271,8.194,15.335,5.744,23.223
			C583.917,451.523,582.287,449.796,580.56,448.106"/>
		<g>
			<path style="fill-rule:evenodd;clip-rule:evenodd;fill:#1CABEA;" d="M736.947,430.787
				c-7.006-83.497-73.269-150.141-156.619-157.808l5.059-18.814c89.951,9.897,161.262,81.525,170.448,171.575L736.947,430.787z"/>
			<path style="fill-rule:evenodd;clip-rule:evenodd;fill:#1CABEA;" d="M622.033,445.559c0-31.858-25.831-57.8-57.775-57.727
				c-5.291-0.073-10.423,0.649-15.322,1.96l5.549-20.663c3.196-0.404,6.454-0.551,9.737-0.551c42.562,0,77.091,34.541,77.018,76.981
				c0,3.724-0.221,7.447-0.747,10.999l-20.908,5.586C621.151,456.913,621.959,451.364,622.033,445.559"/>
			<path style="fill-rule:evenodd;clip-rule:evenodd;fill:#1CABEA;" d="M679.821,445.559c0-63.508-51.32-115.061-114.779-115.563
				l5.156-19.071c70.135,3.111,126.403,59.674,128.829,129.992l-19.206,5.157V445.559z"/>
		</g>
	</g>
</g>
<g id="Layer_1">
</g>
</svg>
