<?xml version="1.0" encoding="iso-8859-1"?>
<!-- Generator: Adobe Illustrator 17.1.0, SVG Export Plug-In . SVG Version: 6.00 Build 0)  -->
<!DOCTYPE svg PUBLIC "-//W3C//DTD SVG 1.1//EN" "http://www.w3.org/Graphics/SVG/1.1/DTD/svg11.dtd">
<svg version="1.1" xmlns="http://www.w3.org/2000/svg" xmlns:xlink="http://www.w3.org/1999/xlink" x="0px" y="0px"
	 viewBox="0 0 1009.976 1010" style="enable-background:new 0 0 1009.976 1010;" xml:space="preserve">
<g id="satellite">
	<path id="label_12_" style="fill:#EFEFEF;" d="M504.988,1010c278.907,0,504.988-226.129,504.988-505
		c0-278.908-226.081-505-504.988-505C226.092,0,0,226.092,0,505C0,783.871,226.092,1010,504.988,1010z"/>
	<g id="icon_14_">
		<path style="fill:#434A54;" d="M341.19,399.872c-3.613-3.601-2.903-10.129,1.543-14.587l44.351-44.352
			c4.471-4.446,10.999-5.145,14.6-1.568l30.731,30.756l-60.482,60.495L341.19,399.872z M437.009,374.702l-60.495,60.507
			l93.002,93.92L530,468.635L437.009,374.702z M592.699,279.128l-21.545-21.545c-4.704-4.691-12.298-4.691-17.014,0l-110.7,110.713
			l30.058,30.033L592.699,279.128z M515.497,440.316l110.689-110.688c4.68-4.691,4.691-12.297-0.012-17.001l-24.913-24.901
			L482.059,406.915L515.497,440.316z M368.332,443.354L257.657,554.067c-4.691,4.691-4.691,12.297,0,16.988l21.569,21.557
			l119.177-119.189L368.332,443.354z M287.788,601.174l24.932,24.926c4.673,4.691,12.297,4.691,16.994,0l110.688-110.676
			l-33.413-33.426L287.788,601.174z M568.398,565.176L548.2,534.31l35.998-35.998c2.731-2.731,1.507-6.626-2.743-8.623
			l-45.332-14.759l-61.144,61.119l14.771,45.344c1.997,4.25,5.892,5.487,8.636,2.744l35.973-35.986l30.915,20.185
			C570.248,571.606,571.656,570.173,568.398,565.176z"/>
		<path style="fill:#1CABEA;" d="M607.911,548.09c-0.062,33.12-26.823,59.919-59.931,59.943c-7.068,0-12.775,5.732-12.775,12.763
			c0,7.08,5.707,12.787,12.775,12.787c47.217-0.012,85.469-38.276,85.493-85.493c0-7.055-5.708-12.763-12.787-12.763
			C613.656,535.327,607.911,541.035,607.911,548.09z"/>
		<path style="fill:#1CABEA;" d="M535.205,681.989c0,7.055,5.707,12.775,12.775,12.775c80.998,0,146.649-65.664,146.685-146.674
			c0-7.055-5.756-12.763-12.787-12.763c-7.043,0-12.775,5.708-12.775,12.763c0,33.511-13.521,63.716-35.459,85.677
			c-21.961,21.912-52.165,35.459-85.664,35.459C540.912,669.226,535.205,674.946,535.205,681.989z"/>
		<path style="fill:#1CABEA;" d="M743.072,535.327c-7.056,0-12.764,5.708-12.764,12.763c-0.036,50.39-20.405,95.892-53.402,128.926
			c-33.034,32.985-78.561,53.378-128.926,53.403c-7.068,0-12.775,5.708-12.775,12.751c0,7.066,5.707,12.762,12.775,12.762
			c114.804,0,207.854-93.026,207.854-207.842C755.834,541.035,750.126,535.327,743.072,535.327z"/>
	</g>
</g>
<g id="Layer_1">
</g>
</svg>
