<?xml version="1.0" encoding="iso-8859-1"?>
<!-- Generator: Adobe Illustrator 17.1.0, SVG Export Plug-In . SVG Version: 6.00 Build 0)  -->
<!DOCTYPE svg PUBLIC "-//W3C//DTD SVG 1.1//EN" "http://www.w3.org/Graphics/SVG/1.1/DTD/svg11.dtd">
<svg version="1.1" xmlns="http://www.w3.org/2000/svg" xmlns:xlink="http://www.w3.org/1999/xlink" x="0px" y="0px"
	 viewBox="0 0 1009.994 1009.963" style="enable-background:new 0 0 1009.994 1009.963;" xml:space="preserve">
<g id="server-rack">
	<path id="label_10_" style="fill:#EFEFEF;" d="M504.988,0C226.093,0,0,226.08,0,504.975s226.093,504.988,504.988,504.988
		c278.901,0,505.006-226.093,505.006-504.988S783.89,0,504.988,0z"/>
	<g id="icon_12_">
		<g>
			<g>
				<g>
					<path style="fill:#434A54;" d="M593.158,412.941H302.939c-26.971,0-48.797,21.839-48.797,48.798
						c0,26.946,21.826,48.797,48.797,48.797h290.219c26.946,0,48.797-21.851,48.797-48.797
						C641.955,434.78,620.104,412.941,593.158,412.941z M586.764,478.421c-9.234,0-16.706-7.472-16.706-16.682
						c0-9.211,7.472-16.695,16.706-16.695c9.211,0,16.683,7.484,16.683,16.695C603.446,470.949,595.975,478.421,586.764,478.421z"/>
					<path style="fill:#434A54;" d="M593.158,521.449H302.939c-26.971,0-48.797,21.839-48.797,48.822
						c0,26.934,21.826,48.773,48.797,48.773h290.219c26.946,0,48.797-21.839,48.797-48.773
						C641.955,543.288,620.104,521.449,593.158,521.449z M586.764,586.954c-9.234,0-16.706-7.472-16.706-16.682
						c0-9.235,7.472-16.719,16.706-16.719c9.211,0,16.683,7.484,16.683,16.719C603.446,579.482,595.975,586.954,586.764,586.954z"/>
					<path style="fill:#434A54;" d="M593.158,629.97H302.939c-26.971,0-48.797,21.863-48.797,48.81
						c0,26.959,21.826,48.798,48.797,48.798h290.219c26.946,0,48.797-21.839,48.797-48.798
						C641.955,651.833,620.104,629.97,593.158,629.97z M586.764,695.462c-9.234,0-16.706-7.472-16.706-16.683
						c0-9.223,7.472-16.694,16.706-16.694c9.211,0,16.683,7.472,16.683,16.694C603.446,687.99,595.975,695.462,586.764,695.462z"/>
				</g>
			</g>
		</g>
		<path style="fill:#1CABEA;" d="M677.451,426.157c-0.539,0.184-1.151,0.33-1.739,0.416c-4.826,0.637-9.235-2.719-9.872-7.471
			c-3.944-29.47-31.355-50.268-61.095-46.348c-4.802,0.612-9.211-2.707-9.849-7.472c-0.637-4.765,2.72-9.101,7.546-9.774
			c39.292-5.144,75.548,22.366,80.79,61.303C683.771,420.988,681.297,424.847,677.451,426.157z M720.59,411.912
			c-3.871-28.734-18.789-54.285-42.036-71.959c-23.273-17.638-52.031-25.244-81.085-21.435c-4.801,0.624-8.182,5.009-7.545,9.749
			c0.662,4.74,5.071,8.121,9.873,7.472c24.374-3.197,48.527,3.172,68.076,18.005c19.572,14.821,32.091,36.304,35.324,60.446
			c0.661,4.765,5.07,8.121,9.872,7.472c0.588-0.062,1.176-0.208,1.739-0.417C718.63,419.935,721.153,416.077,720.59,411.912z
			 M755.768,407.282c-5.096-38.056-24.865-71.898-55.633-95.243c-30.792-23.345-68.909-33.426-107.345-28.392
			c-4.801,0.649-8.182,5.009-7.521,9.774c0.637,4.765,5.047,8.096,9.848,7.46c33.781-4.434,67.269,4.434,94.337,24.962
			c27.045,20.528,44.438,50.255,48.921,83.73c0.661,4.765,5.046,8.084,9.871,7.484c0.588-0.074,1.176-0.208,1.715-0.404
			C753.808,415.317,756.306,411.459,755.768,407.282z"/>
	</g>
</g>
<g id="Layer_1">
</g>
</svg>
