<?xml version="1.0" encoding="iso-8859-1"?>
<!-- Generator: Adobe Illustrator 17.1.0, SVG Export Plug-In . SVG Version: 6.00 Build 0)  -->
<!DOCTYPE svg PUBLIC "-//W3C//DTD SVG 1.1//EN" "http://www.w3.org/Graphics/SVG/1.1/DTD/svg11.dtd">
<svg version="1.1" xmlns="http://www.w3.org/2000/svg" xmlns:xlink="http://www.w3.org/1999/xlink" x="0px" y="0px"
	 viewBox="0 0 1009.994 1010" style="enable-background:new 0 0 1009.994 1010;" xml:space="preserve">
<g id="wireless-modem-2">
	<path id="label_29_" style="fill:#EFEFEF;" d="M505,0C226.105,0,0,226.117,0,504.988C0,783.895,226.105,1010,505,1010
		c278.89,0,504.994-226.105,504.994-505.012C1009.994,226.117,783.89,0,505,0z"/>
	<g id="icon_31_">
		<path style="fill:#434A54;" d="M750.329,661.265c0,34.92-28.27,63.226-63.202,63.226H319.964
			c-34.92,0-63.226-28.306-63.226-63.226c0-34.92,28.306-63.202,63.226-63.202h367.163
			C722.06,598.063,750.329,626.344,750.329,661.265z M334.601,662.354c0-12.113-9.799-21.888-21.876-21.888
			c-12.114,0-21.9,9.774-21.9,21.888c0,12.077,9.787,21.888,21.9,21.888C324.802,684.243,334.601,674.432,334.601,662.354z
			 M396.015,662.354c0-12.113-9.787-21.888-21.876-21.888c-12.089,0-21.888,9.774-21.888,21.888
			c0,12.077,9.799,21.888,21.888,21.888C386.228,684.243,396.015,674.432,396.015,662.354z M457.44,662.354
			c0-12.113-9.799-21.888-21.888-21.888c-12.089,0-21.875,9.774-21.875,21.888c0,12.077,9.786,21.888,21.875,21.888
			C447.641,684.243,457.44,674.432,457.44,662.354z"/>
		<path style="fill:#434A54;" d="M649.966,564.16h-5.561v-8.635c0-6.124-4.948-11.073-11.073-11.073h-14.746l-3.136-146.539
			c10.043-3.907,17.196-13.657,17.196-25.122c0-14.894-12.102-26.995-27.019-26.995c-14.919,0-26.996,12.101-26.996,26.995
			c0,11.464,7.129,21.214,17.197,25.122l-3.136,146.539h-14.771c-6.124,0-11.072,4.949-11.072,11.073v8.635h-5.561
			c-6.124,0-11.072,4.973-11.072,11.097v9.517h110.823v-9.517C661.038,569.132,656.09,564.16,649.966,564.16z"/>
		<g>
			<path style="fill:#1CABEA;" d="M482.757,285.509c-34.835,54.505-32.667,122.08,0,173.204l25.538-16.315
				c-26.481-41.497-28.257-96.284,0-140.538L482.757,285.509z"/>
			<path style="fill:#1CABEA;" d="M535.443,319.205c-21.294,33.291-19.946,74.604,0,105.838l25.256-16.131
				c-13.865-21.704-14.796-50.39,0-73.564L535.443,319.205z"/>
			<path style="fill:#1CABEA;" d="M727.963,285.509l-25.55,16.352c28.27,44.254,26.506,99.04,0,140.538l25.55,16.315
				C760.617,407.589,762.798,340.015,727.963,285.509z"/>
			<path style="fill:#1CABEA;" d="M650.015,335.348c14.796,23.174,13.865,51.86,0,73.564l25.256,16.131
				c19.965-31.233,21.288-72.547,0-105.838L650.015,335.348z"/>
		</g>
	</g>
</g>
<g id="Layer_1">
</g>
</svg>
