<?xml version="1.0" encoding="utf-8"?>
<!-- Generator: Adobe Illustrator 16.0.0, SVG Export Plug-In . SVG Version: 6.00 Build 0)  -->
<!DOCTYPE svg PUBLIC "-//W3C//DTD SVG 1.1//EN" "http://www.w3.org/Graphics/SVG/1.1/DTD/svg11.dtd">
<svg version="1.1" id="Layer_1" xmlns="http://www.w3.org/2000/svg" xmlns:xlink="http://www.w3.org/1999/xlink" x="0px" y="0px"
	 width="64px" height="64px" viewBox="0 0 64 64" enable-background="new 0 0 64 64" xml:space="preserve">
<g>
	<g>
		<line fill="#FFFFFF" x1="10" y1="62" x2="10" y2="2"/>
		<path fill="#37474F" d="M10,63c-0.6,0-1-0.4-1-1V2c0-0.6,0.4-1,1-1s1,0.4,1,1v60C11,62.6,10.6,63,10,63z"/>
	</g>
	<g>
		<line fill="#FFFFFF" x1="62" y1="6" x2="2" y2="6"/>
		<path fill="#37474F" d="M62,7H2C1.4,7,1,6.6,1,6s0.4-1,1-1h60c0.6,0,1,0.4,1,1S62.6,7,62,7z"/>
	</g>
	<g>
		<polyline fill="#FFECB3" points="55,17 62,17 62,41 16,41 16,17 22,17 		"/>
		<path fill="#37474F" d="M62,42H16c-0.6,0-1-0.4-1-1V17c0-0.6,0.4-1,1-1h6c0.6,0,1,0.4,1,1s-0.4,1-1,1h-5v22h44V18h-6
			c-0.6,0-1-0.4-1-1s0.4-1,1-1h7c0.6,0,1,0.4,1,1v24C63,41.6,62.6,42,62,42z"/>
	</g>
	<g>
		<line fill="#FFECB3" x1="31" y1="17" x2="47" y2="17"/>
		<path fill="#37474F" d="M47,18H31c-0.6,0-1-0.4-1-1s0.4-1,1-1h16c0.6,0,1,0.4,1,1S47.6,18,47,18z"/>
	</g>
	<g>
		<g>
			<circle fill="#FFECB3" cx="26.5" cy="18" r="2.9"/>
			<path fill="#37474F" d="M26.5,21.9c-2.1,0-3.9-1.7-3.9-3.9c0-2.1,1.7-3.9,3.9-3.9c2.1,0,3.9,1.7,3.9,3.9
				C30.4,20.1,28.7,21.9,26.5,21.9z M26.5,16.1c-1,0-1.9,0.8-1.9,1.9c0,1,0.8,1.9,1.9,1.9s1.9-0.8,1.9-1.9
				C28.4,16.9,27.6,16.1,26.5,16.1z"/>
		</g>
		<g>
			<circle fill="#FFECB3" cx="50.8" cy="18" r="2.9"/>
			<path fill="#37474F" d="M50.8,21.9c-2.1,0-3.9-1.7-3.9-3.9c0-2.1,1.7-3.9,3.9-3.9c2.1,0,3.9,1.7,3.9,3.9
				C54.7,20.1,53,21.9,50.8,21.9z M50.8,16.1c-1,0-1.9,0.8-1.9,1.9c0,1,0.8,1.9,1.9,1.9c1,0,1.9-0.8,1.9-1.9
				C52.7,16.9,51.9,16.1,50.8,16.1z"/>
		</g>
	</g>
	<g>
		<line fill="#FFECB3" x1="26.5" y1="9.1" x2="26.5" y2="15.1"/>
		<path fill="#37474F" d="M26.5,16.1c-0.6,0-1-0.4-1-1v-6c0-0.6,0.4-1,1-1s1,0.4,1,1v6C27.5,15.7,27.1,16.1,26.5,16.1z"/>
	</g>
	<g>
		<line fill="#FFECB3" x1="51" y1="9" x2="51" y2="15"/>
		<path fill="#37474F" d="M51,16c-0.6,0-1-0.4-1-1V9c0-0.6,0.4-1,1-1s1,0.4,1,1v6C52,15.6,51.6,16,51,16z"/>
	</g>
	<g>
		<g>
			<path fill="#37474F" d="M20.6,32.2c0.6,0.3,1.4,0.6,2.3,0.6c1.3,0,2-0.7,2-1.7c0-0.9-0.5-1.4-1.8-1.9c-1.6-0.6-2.6-1.4-2.6-2.8
				c0-1.5,1.3-2.6,3.2-2.6c1,0,1.7,0.2,2.2,0.5l-0.3,1c-0.3-0.2-1-0.5-1.9-0.5c-1.3,0-1.8,0.8-1.8,1.5c0,0.9,0.6,1.4,1.9,1.9
				c1.6,0.6,2.5,1.4,2.5,2.9c0,1.5-1.1,2.8-3.4,2.8c-0.9,0-2-0.3-2.5-0.6L20.6,32.2z"/>
			<path fill="#37474F" d="M22.7,34.9c-1.1,0-2.3-0.3-3-0.8l-0.6-0.4l0.9-3l1.1,0.7c0.5,0.3,1.1,0.5,1.7,0.5c0.5,0,1-0.1,1-0.7
				c0-0.3,0-0.5-1.2-1c-2.1-0.8-3.2-2-3.2-3.7c0-2.1,1.7-3.6,4.2-3.6c1,0,2,0.2,2.6,0.6l0.7,0.4l-1,2.9l-1-0.6
				c-0.2-0.1-0.7-0.3-1.4-0.3c-0.5,0-0.8,0.2-0.8,0.5c0,0.2,0,0.4,1.3,0.9c1.5,0.6,3.1,1.5,3.1,3.8C27.1,33,25.8,34.9,22.7,34.9z"/>
		</g>
		<g>
			<path fill="#37474F" d="M37.7,28.8c0,3.4-2,5.1-4.5,5.1c-2.6,0-4.4-2-4.4-4.9c0-3.1,1.9-5.1,4.5-5.1C36,23.8,37.7,25.9,37.7,28.8
				z M30.1,28.9c0,2.1,1.1,3.9,3.1,3.9c2,0,3.1-1.8,3.1-4c0-1.9-1-4-3.1-4C31.2,24.8,30.1,26.8,30.1,28.9z"/>
			<path fill="#37474F" d="M33.2,34.9c-3.2,0-5.4-2.4-5.4-5.9c0-3.5,2.3-6.1,5.5-6.1c3.2,0,5.4,2.4,5.4,5.9
				C38.7,33,35.9,34.9,33.2,34.9z M33.2,25.8c-1.6,0-2.1,1.7-2.1,3.1c0,1.4,0.7,2.9,2.1,2.9c1.5,0,2.1-1.5,2.1-3
				C35.4,27.8,34.9,25.8,33.2,25.8z"/>
		</g>
		<g>
			<path fill="#37474F" d="M40.8,24h1.3v8.7h4.2v1.1h-5.4V24z"/>
			<polygon fill="#37474F" points="47.2,34.7 39.8,34.7 39.8,23 43.1,23 43.1,31.7 47.2,31.7 			"/>
		</g>
		<g>
			<path fill="#37474F" d="M49.1,24.1c0.8-0.1,1.7-0.2,2.7-0.2c1.8,0,3.1,0.4,3.9,1.2c0.9,0.8,1.4,1.9,1.4,3.5
				c0,1.6-0.5,2.9-1.4,3.8c-0.9,0.9-2.4,1.4-4.3,1.4c-0.9,0-1.6,0-2.3-0.1V24.1z M50.4,32.7c0.3,0.1,0.8,0.1,1.3,0.1
				c2.7,0,4.2-1.5,4.2-4.1c0-2.3-1.3-3.8-3.9-3.8c-0.7,0-1.1,0.1-1.5,0.1V32.7z"/>
			<path fill="#37474F" d="M51.4,34.8c-0.9,0-1.7,0-2.4-0.1l-0.9-0.1V23.2l0.9-0.1c0.9-0.1,1.9-0.2,2.8-0.2c2,0,3.6,0.5,4.6,1.5
				c1.1,1,1.7,2.5,1.7,4.2c0,1.9-0.6,3.4-1.7,4.5C55.3,34.2,53.6,34.8,51.4,34.8z M51.4,31.8c0.1,0,0.2,0,0.3,0c2.1,0,3.2-1,3.2-3.1
				c0-0.9-0.2-1.6-0.7-2c-0.5-0.5-1.3-0.7-2.3-0.7c-0.2,0-0.3,0-0.5,0V31.8z"/>
		</g>
	</g>
</g>
</svg>
