<?xml version="1.0" encoding="utf-8"?>
<!-- Generator: Adobe Illustrator 16.0.0, SVG Export Plug-In . SVG Version: 6.00 Build 0)  -->
<!DOCTYPE svg PUBLIC "-//W3C//DTD SVG 1.1//EN" "http://www.w3.org/Graphics/SVG/1.1/DTD/svg11.dtd">
<svg version="1.1" id="Layer_1" xmlns="http://www.w3.org/2000/svg" xmlns:xlink="http://www.w3.org/1999/xlink" x="0px" y="0px"
	 width="32px" height="32px" viewBox="0 0 32 32" enable-background="new 0 0 32 32" xml:space="preserve">
<g>
	<g>
		<g>
			<polyline fill="#FFAB00" points="0.9,11.6 12.1,2 23.4,11.6 			"/>
			<path fill="#37474F" d="M23.4,12.1c-0.1,0-0.2,0-0.3-0.1L12.1,2.7L1.2,12c-0.2,0.2-0.5,0.2-0.7-0.1c-0.2-0.2-0.2-0.5,0.1-0.7
				l11.3-9.6c0.2-0.2,0.5-0.2,0.6,0l11.3,9.6c0.2,0.2,0.2,0.5,0.1,0.7C23.7,12.1,23.5,12.1,23.4,12.1z"/>
		</g>
		<g>
			<polyline fill="#FFECB3" points="11.6,23.9 3.9,23.9 3.9,11.7 			"/>
			<path fill="#37474F" d="M11.6,24.4H3.9c-0.3,0-0.5-0.2-0.5-0.5V11.7c0-0.3,0.2-0.5,0.5-0.5s0.5,0.2,0.5,0.5v11.7h7.2
				c0.3,0,0.5,0.2,0.5,0.5S11.9,24.4,11.6,24.4z"/>
		</g>
		<g>
			<line fill="#FFECB3" x1="20.3" y1="11.7" x2="20.3" y2="16.7"/>
			<path fill="#37474F" d="M20.3,17.2c-0.3,0-0.5-0.2-0.5-0.5v-5c0-0.3,0.2-0.5,0.5-0.5s0.5,0.2,0.5,0.5v5
				C20.8,17,20.6,17.2,20.3,17.2z"/>
		</g>
		<g>
			<rect x="6.7" y="15.4" fill="#FFECB3" width="5" height="8.5"/>
			<path fill="#37474F" d="M11.7,24.4h-5c-0.3,0-0.5-0.2-0.5-0.5v-8.5c0-0.3,0.2-0.5,0.5-0.5h5c0.3,0,0.5,0.2,0.5,0.5v8.5
				C12.2,24.2,11.9,24.4,11.7,24.4z M7.2,23.4h4v-7.5h-4V23.4z"/>
		</g>
		<g>
			<line fill="#FFECB3" x1="16" y1="15.4" x2="16" y2="19.2"/>
			<path fill="#37474F" d="M16,19.7c-0.3,0-0.5-0.2-0.5-0.5v-3.8c0-0.3,0.2-0.5,0.5-0.5s0.5,0.2,0.5,0.5v3.8
				C16.5,19.4,16.3,19.7,16,19.7z"/>
		</g>
		<g>
			<line fill="#FFECB3" x1="17.9" y1="17.5" x2="14.1" y2="17.5"/>
			<path fill="#37474F" d="M17.9,18h-3.8c-0.3,0-0.5-0.2-0.5-0.5s0.2-0.5,0.5-0.5h3.8c0.3,0,0.5,0.2,0.5,0.5S18.2,18,17.9,18z"/>
		</g>
		<g>
			<polyline fill="#FFECB3" points="3.9,8.6 3.9,3.1 6.5,3.1 			"/>
			<path fill="#37474F" d="M3.9,9.1c-0.3,0-0.5-0.2-0.5-0.5V3.1c0-0.3,0.2-0.5,0.5-0.5h2.5C6.8,2.6,7,2.8,7,3.1S6.8,3.6,6.5,3.6h-2
				v5.1C4.4,8.9,4.2,9.1,3.9,9.1z"/>
		</g>
		<g>
			<polyline fill="#FFECB3" points="5.9,30 11.9,23.9 14.7,26.7 26.4,15 			"/>
			<path fill="#37474F" d="M5.9,30.5c-0.1,0-0.3,0-0.4-0.1c-0.2-0.2-0.2-0.5,0-0.7l6-6c0.2-0.2,0.5-0.2,0.7,0l2.5,2.5l11.4-11.4
				c0.2-0.2,0.5-0.2,0.7,0s0.2,0.5,0,0.7L15.1,27.1c-0.2,0.2-0.5,0.2-0.7,0l-2.5-2.5l-5.7,5.7C6.1,30.4,6,30.5,5.9,30.5z"/>
		</g>
		<g>
			<line fill="#FFECB3" x1="19.9" y1="25.2" x2="28.2" y2="16.9"/>
			<path fill="#37474F" d="M19.9,25.7c-0.1,0-0.3,0-0.4-0.1c-0.2-0.2-0.2-0.5,0-0.7l8.3-8.3c0.2-0.2,0.5-0.2,0.7,0s0.2,0.5,0,0.7
				l-8.3,8.3C20.2,25.7,20,25.7,19.9,25.7z"/>
		</g>
		<g>
			<line fill="#FFECB3" x1="10" y1="29.5" x2="13.7" y2="25.8"/>
			<path fill="#37474F" d="M10,30c-0.1,0-0.3,0-0.4-0.1c-0.2-0.2-0.2-0.5,0-0.7l3.6-3.6c0.2-0.2,0.5-0.2,0.7,0s0.2,0.5,0,0.7
				l-3.6,3.6C10.3,29.9,10.2,30,10,30z"/>
		</g>
	</g>
	<g>
		<polyline fill="#FFECB3" points="25.9,11.2 31.1,10.4 30.4,15.6 27.9,13.2 		"/>
		<path fill="#37474F" d="M30.4,16.1c-0.1,0-0.3-0.1-0.4-0.1l-2.5-2.5c-0.2-0.2-0.2-0.5,0-0.7s0.5-0.2,0.7,0l1.7,1.7l0.5-3.6
			L26,11.7c-0.3,0-0.5-0.2-0.6-0.4c0-0.3,0.2-0.5,0.4-0.6l5.2-0.7c0.2,0,0.3,0,0.4,0.1c0.1,0.1,0.2,0.3,0.1,0.4l-0.7,5.2
			c0,0.2-0.2,0.3-0.3,0.4C30.5,16.1,30.4,16.1,30.4,16.1z"/>
	</g>
</g>
</svg>
