<?xml version="1.0" encoding="utf-8"?>
<!-- Generator: Adobe Illustrator 16.0.0, SVG Export Plug-In . SVG Version: 6.00 Build 0)  -->
<!DOCTYPE svg PUBLIC "-//W3C//DTD SVG 1.1//EN" "http://www.w3.org/Graphics/SVG/1.1/DTD/svg11.dtd">
<svg version="1.1" id="Layer_1" xmlns="http://www.w3.org/2000/svg" xmlns:xlink="http://www.w3.org/1999/xlink" x="0px" y="0px"
	 width="32px" height="32px" viewBox="0 0 32 32" enable-background="new 0 0 32 32" xml:space="preserve">
<g>
	<g>
		<g>
			<path fill="#FFECB3" d="M24.6,9.7c0-4.7-3.8-8.6-8.6-8.6S7.4,5,7.4,9.7c0,2.4,1,4.5,2.5,6.1l0.9,3.5c0,1.5,1.2,2.7,2.7,2.7h4.9
				c1.5,0,2.7-1.2,2.7-2.7l0.9-3.5C23.6,14.2,24.6,12.1,24.6,9.7z"/>
			<path fill="#37474F" d="M18.4,22.5h-4.9c-1.7,0-3.2-1.4-3.2-3.1L9.5,16c-1.7-1.7-2.6-3.9-2.6-6.3c0-5,4.1-9.1,9.1-9.1
				s9.1,4.1,9.1,9.1c0,2.4-0.9,4.6-2.6,6.3l-0.9,3.3C21.6,21.1,20.2,22.5,18.4,22.5z M16,1.6c-4.5,0-8.1,3.6-8.1,8.1
				c0,2.2,0.8,4.2,2.4,5.7c0.1,0.1,0.1,0.1,0.1,0.2l0.9,3.5c0,0,0,0.1,0,0.1c0,1.2,1,2.2,2.2,2.2h4.9c1.2,0,2.2-1,2.2-2.2
				c0,0,0-0.1,0-0.1l0.9-3.5c0-0.1,0.1-0.2,0.1-0.2c1.5-1.5,2.4-3.6,2.4-5.7C24.1,5.3,20.5,1.6,16,1.6z"/>
		</g>
		<g>
			<g>
				<line fill="#FFECB3" x1="12.2" y1="24.5" x2="19.8" y2="24.5"/>
				<path fill="#37474F" d="M19.8,25h-7.6c-0.3,0-0.5-0.2-0.5-0.5s0.2-0.5,0.5-0.5h7.6c0.3,0,0.5,0.2,0.5,0.5S20.1,25,19.8,25z"/>
			</g>
			<g>
				<line fill="#FFECB3" x1="12.2" y1="27" x2="19.8" y2="27"/>
				<path fill="#37474F" d="M19.8,27.5h-7.6c-0.3,0-0.5-0.2-0.5-0.5s0.2-0.5,0.5-0.5h7.6c0.3,0,0.5,0.2,0.5,0.5S20.1,27.5,19.8,27.5
					z"/>
			</g>
		</g>
		<g>
			<path fill="#FFAB00" d="M12.7,28.8c0,0.1-0.1,0.3-0.1,0.5c0,0.9,0.7,1.7,1.7,1.7h3.4c0.9,0,1.7-0.7,1.7-1.7c0-0.2,0-0.3-0.1-0.5"
				/>
			<path fill="#37474F" d="M17.7,31.4h-3.4c-1.2,0-2.2-1-2.2-2.2c0-0.2,0-0.4,0.1-0.6c0.1-0.3,0.4-0.4,0.6-0.3
				c0.3,0.1,0.4,0.3,0.3,0.6c0,0.1,0,0.2,0,0.3c0,0.6,0.5,1.2,1.2,1.2h3.4c0.6,0,1.2-0.5,1.2-1.2c0-0.1,0-0.2,0-0.3
				c-0.1-0.3,0.1-0.5,0.3-0.6c0.3-0.1,0.5,0.1,0.6,0.3c0.1,0.2,0.1,0.4,0.1,0.6C19.8,30.4,18.9,31.4,17.7,31.4z"/>
		</g>
	</g>
	<g>
		<g>
			<g>
				<g>
					<path fill="#FFECB3" d="M14.5,10c-1.8-2.1-4.6-1.9-4.8-1.9l0,0c0,0,0,0,0,0c0,0,0,0,0,0l0,0c0,0.2-0.2,3,1.9,4.8
						c2.1,1.8,4.2,1.5,4.4,1.4l0,0c0,0,0,0,0,0l0,0l0,0C15.9,14.2,16.3,12,14.5,10z"/>
					<path fill="#37474F" d="M15.2,14.9c-0.8,0-2.5-0.2-4.1-1.6c-2-1.8-2.1-4.4-2.1-5.1c0-0.1,0-0.1,0-0.2c0,0,0-0.1,0-0.1
						c0.1-0.1,0.2-0.2,0.3-0.3c0.1,0,0.2,0,0.2,0c0.7,0,3.3,0,5.1,2.1c1.9,2.1,1.6,4.3,1.6,4.7c0,0.1,0,0.1,0,0.2
						c-0.1,0.1-0.2,0.3-0.4,0.3l0,0c0,0,0,0,0,0l0,0C15.9,14.9,15.6,14.9,15.2,14.9z M10.1,8.6c0,0.9,0.3,2.7,1.7,4
						c1.5,1.3,3,1.4,3.6,1.4c0-0.7-0.1-2.2-1.4-3.6C12.8,8.9,11,8.6,10.1,8.6z"/>
				</g>
				<g>
					<path fill="#FFECB3" stroke="#37474F" stroke-linecap="round" stroke-linejoin="round" stroke-miterlimit="10" d="M14.5,15.3"
						/>
				</g>
				<g>
					<path fill="#FFECB3" stroke="#37474F" stroke-linecap="round" stroke-linejoin="round" stroke-miterlimit="10" d="M10.8,11.6"
						/>
				</g>
				<g>
					<path fill="#FFECB3" stroke="#37474F" stroke-linecap="round" stroke-linejoin="round" stroke-miterlimit="10" d="M12.6,13.2"
						/>
				</g>
				<g>
					<path fill="#FFECB3" stroke="#37474F" stroke-linecap="round" stroke-linejoin="round" stroke-miterlimit="10" d="M13.1,11"/>
				</g>
			</g>
			<g>
				<g>
					<path fill="#FFECB3" d="M17.5,10c1.8-2.1,4.6-1.9,4.8-1.9l0,0c0,0,0,0,0,0c0,0,0,0,0,0l0,0c0,0.2,0.2,3-1.9,4.8
						c-2.1,1.8-4.2,1.5-4.4,1.4l0,0c0,0,0,0,0,0l0,0l0,0C16.1,14.2,15.7,12,17.5,10z"/>
					<path fill="#37474F" d="M16.8,14.9c-0.3,0-0.6,0-0.7,0c-0.1,0-0.1,0-0.2,0c-0.1,0-0.2-0.1-0.3-0.2c0,0,0,0,0,0
						c0-0.1-0.1-0.2-0.1-0.2c-0.1-0.5-0.3-2.7,1.6-4.7c1.7-1.9,4-2.1,4.9-2.1c0.1,0,0.2,0,0.2,0c0.1,0,0.1,0,0.2,0c0,0,0.1,0,0.1,0
						c0.1,0.1,0.2,0.2,0.3,0.3c0,0.1,0,0.2,0,0.3c0,0.8-0.1,3.3-2.1,5.1C19.3,14.7,17.6,14.9,16.8,14.9z M16.6,13.9
						c0.6,0,2.1,0,3.6-1.4c1.5-1.3,1.7-3.1,1.7-4c-0.9,0-2.7,0.3-4,1.7C16.6,11.8,16.5,13.3,16.6,13.9z"/>
				</g>
				<g>
					<path fill="#FFECB3" stroke="#37474F" stroke-linecap="round" stroke-linejoin="round" stroke-miterlimit="10" d="M17.5,15.3"
						/>
				</g>
				<g>
					<path fill="#FFECB3" stroke="#37474F" stroke-linecap="round" stroke-linejoin="round" stroke-miterlimit="10" d="M21.2,11.6"
						/>
				</g>
				<g>
					<path fill="#FFECB3" stroke="#37474F" stroke-linecap="round" stroke-linejoin="round" stroke-miterlimit="10" d="M19.4,13.2"
						/>
				</g>
				<g>
					<path fill="#FFECB3" stroke="#37474F" stroke-linecap="round" stroke-linejoin="round" stroke-miterlimit="10" d="M18.9,11"/>
				</g>
			</g>
		</g>
		<g>
			<line fill="#FFECB3" x1="16" y1="14.7" x2="16" y2="21.4"/>
			<path fill="#37474F" d="M16,21.9c-0.3,0-0.5-0.2-0.5-0.5v-6.7c0-0.3,0.2-0.5,0.5-0.5s0.5,0.2,0.5,0.5v6.7
				C16.5,21.6,16.3,21.9,16,21.9z"/>
		</g>
	</g>
	<g>
		<circle fill="#FFAB00" cx="16" cy="5.5" r="2.3"/>
		<path fill="#37474F" d="M16,8.3c-1.5,0-2.8-1.3-2.8-2.8s1.3-2.8,2.8-2.8s2.8,1.3,2.8,2.8S17.5,8.3,16,8.3z M16,3.7
			c-1,0-1.8,0.8-1.8,1.8c0,1,0.8,1.8,1.8,1.8s1.8-0.8,1.8-1.8C17.8,4.5,17,3.7,16,3.7z"/>
	</g>
</g>
</svg>
