<?xml version="1.0" encoding="utf-8"?>
<!-- Generator: Adobe Illustrator 16.0.0, SVG Export Plug-In . SVG Version: 6.00 Build 0)  -->
<!DOCTYPE svg PUBLIC "-//W3C//DTD SVG 1.1//EN" "http://www.w3.org/Graphics/SVG/1.1/DTD/svg11.dtd">
<svg version="1.1" id="Layer_1" xmlns="http://www.w3.org/2000/svg" xmlns:xlink="http://www.w3.org/1999/xlink" x="0px" y="0px"
	 width="32px" height="32px" viewBox="0 0 32 32" enable-background="new 0 0 32 32" xml:space="preserve">
<g>
	<g>
		<g>
			<g>
				<path fill="#FFECB3" d="M20.7,8.3c0,4.2-2.1,7.5-4.7,7.5c0.1,0,2.9-3-3.4-7.5C9.2,5.9,13.4,0.8,16,0.8
					C18.6,0.8,20.7,4.2,20.7,8.3z"/>
				<path fill="#37474F" d="M16,16.3c-0.3,0-0.5-0.2-0.5-0.5c0-0.2,0.1-0.3,0.2-0.4c0.1-0.1,0.5-0.7,0.5-1.7
					c-0.1-1.1-0.8-2.8-3.9-5.1c-1.3-1-1.8-2.4-1.2-4.1c0.7-2.2,3.1-4.4,5-4.4c2.9,0,5.2,3.6,5.2,8S18.9,16.3,16,16.3z M16,1.3
					c-1.3,0-3.4,1.7-4,3.7c-0.3,0.9-0.3,2.1,0.9,2.9c4.6,3.3,4.6,5.9,4.2,7.2c0,0,0,0,0,0.1c1.8-0.8,3.2-3.5,3.2-6.8
					C20.2,4.4,18.3,1.3,16,1.3z"/>
			</g>
			<g>
				<path fill="#FFECB3" d="M15.7,3.3c1.6,0,3,2.1,3,4.8"/>
				<path fill="#37474F" d="M18.7,8.6c-0.3,0-0.5-0.2-0.5-0.5c0-2.3-1.1-4.3-2.5-4.3c-0.3,0-0.5-0.2-0.5-0.5s0.2-0.5,0.5-0.5
					c2,0,3.5,2.3,3.5,5.3C19.2,8.4,18.9,8.6,18.7,8.6z"/>
			</g>
		</g>
		<g>
			<g>
				<path fill="#FFECB3" d="M11.3,23.7c0-4.2,2.1-7.5,4.7-7.5c-0.1,0-2.9,3,3.4,7.5c3.4,2.4-0.8,7.5-3.4,7.5S11.3,27.8,11.3,23.7z"
					/>
				<path fill="#37474F" d="M16,31.7c-2.9,0-5.2-3.5-5.2-8c0-4.4,2.3-8,5.2-8c0.3,0,0.5,0.2,0.5,0.5c0,0.2-0.1,0.3-0.2,0.4
					c-0.1,0.1-0.5,0.7-0.5,1.7c0.1,1.1,0.8,2.8,3.9,5.1c1.3,1,1.8,2.4,1.2,4.1C20.2,29.6,17.8,31.7,16,31.7z M15,16.9
					c-1.8,0.8-3.2,3.5-3.2,6.8c0,3.9,1.9,7,4.2,7c1.3,0,3.4-1.7,4-3.7c0.3-0.9,0.3-2.1-0.9-2.9C14.6,20.8,14.6,18.2,15,16.9
					C15,16.9,15,16.9,15,16.9z"/>
			</g>
			<g>
				<path fill="#FFECB3" d="M16.3,28.7c-1.6,0-3-2.1-3-4.8"/>
				<path fill="#37474F" d="M16.3,29.2c-2,0-3.5-2.3-3.5-5.3c0-0.3,0.2-0.5,0.5-0.5s0.5,0.2,0.5,0.5c0,2.3,1.1,4.3,2.5,4.3
					c0.3,0,0.5,0.2,0.5,0.5S16.6,29.2,16.3,29.2z"/>
			</g>
		</g>
	</g>
	<g>
		<g>
			<g>
				<path fill="#FFECB3" d="M23.7,20.7c-4.2,0-7.5-2.1-7.5-4.7c0,0.1,3,2.9,7.5-3.4c2.4-3.4,7.5,0.8,7.5,3.4
					C31.2,18.6,27.8,20.7,23.7,20.7z"/>
				<path fill="#37474F" d="M23.7,21.2c-4.4,0-8-2.3-8-5.2c0-0.3,0.2-0.5,0.5-0.5c0.2,0,0.3,0.1,0.4,0.2c0.1,0.1,0.7,0.5,1.5,0.5
					c1.1,0,2.9-0.7,5.3-3.9c0.7-1,1.6-1.5,2.8-1.5c2.7,0,5.7,3,5.7,5.2C31.7,18.9,28.1,21.2,23.7,21.2z M16.9,17
					c0.7,1.8,3.5,3.2,6.8,3.2c3.9,0,7-1.9,7-4.2c0-1.6-2.6-4.2-4.7-4.2c-0.8,0-1.4,0.4-1.9,1c-2.6,3.6-4.7,4.3-6.1,4.3
					C17.6,17.2,17.2,17.1,16.9,17z"/>
			</g>
			<g>
				<path fill="#FFECB3" d="M28.7,15.7c0,1.6-2.1,3-4.8,3"/>
				<path fill="#37474F" d="M23.9,19.2c-0.3,0-0.5-0.2-0.5-0.5s0.2-0.5,0.5-0.5c2.3,0,4.3-1.1,4.3-2.5c0-0.3,0.2-0.5,0.5-0.5
					s0.5,0.2,0.5,0.5C29.2,17.6,26.9,19.2,23.9,19.2z"/>
			</g>
		</g>
		<g>
			<g>
				<path fill="#FFECB3" d="M8.3,11.3c4.2,0,7.5,2.1,7.5,4.7c0-0.1-3-2.9-7.5,3.4c-2.4,3.4-7.5-0.8-7.5-3.4S4.2,11.3,8.3,11.3z"/>
				<path fill="#37474F" d="M6,21.2c-2.7,0-5.7-3-5.7-5.2c0-2.9,3.5-5.2,8-5.2c4.4,0,8,2.3,8,5.2c0,0.3-0.2,0.5-0.5,0.5
					c-0.2,0-0.3-0.1-0.4-0.2c-0.1-0.1-0.7-0.5-1.5-0.5c-1.1,0-2.9,0.7-5.3,3.9C8,20.7,7.1,21.2,6,21.2z M8.3,11.8
					c-3.9,0-7,1.9-7,4.2c0,1.6,2.6,4.2,4.7,4.2c0.8,0,1.4-0.4,1.9-1c2.6-3.6,4.7-4.3,6.1-4.3c0.4,0,0.8,0.1,1.2,0.2
					C14.4,13.2,11.6,11.8,8.3,11.8z"/>
			</g>
			<g>
				<path fill="#FFECB3" d="M3.3,16.3c0-1.6,2.1-3,4.8-3"/>
				<path fill="#37474F" d="M3.3,16.8c-0.3,0-0.5-0.2-0.5-0.5c0-2,2.3-3.5,5.3-3.5c0.3,0,0.5,0.2,0.5,0.5s-0.2,0.5-0.5,0.5
					c-2.3,0-4.3,1.1-4.3,2.5C3.8,16.6,3.6,16.8,3.3,16.8z"/>
			</g>
		</g>
	</g>
</g>
</svg>
