<?xml version="1.0" encoding="utf-8"?>
<!-- Generator: Adobe Illustrator 16.0.0, SVG Export Plug-In . SVG Version: 6.00 Build 0)  -->
<!DOCTYPE svg PUBLIC "-//W3C//DTD SVG 1.1//EN" "http://www.w3.org/Graphics/SVG/1.1/DTD/svg11.dtd">
<svg version="1.1" id="Layer_1" xmlns="http://www.w3.org/2000/svg" xmlns:xlink="http://www.w3.org/1999/xlink" x="0px" y="0px"
	 width="32px" height="32px" viewBox="0 0 32 32" enable-background="new 0 0 32 32" xml:space="preserve">
<g>
	<g>
		<g>
			<g>
				<ellipse fill="#FFECB3" cx="16" cy="4.8" rx="4" ry="3.4"/>
				<path fill="#37474F" d="M16,8.7c-2.5,0-4.5-1.8-4.5-3.9s2-3.9,4.5-3.9s4.5,1.8,4.5,3.9S18.5,8.7,16,8.7z M16,1.8
					c-1.9,0-3.5,1.3-3.5,2.9s1.6,2.9,3.5,2.9s3.5-1.3,3.5-2.9S17.9,1.8,16,1.8z"/>
			</g>
			<g>
				<path fill="#37474F" d="M15.5,31.5c-0.3,0-0.5-0.2-0.5-0.5V8.2c0-0.3,0.2-0.5,0.5-0.5S16,7.9,16,8.2V31
					C16,31.3,15.8,31.5,15.5,31.5z"/>
			</g>
		</g>
		<g>
			<path fill="#37474F" d="M18.5,26.5c-0.3,0-0.5-0.2-0.5-0.5v-1h-2c-0.3,0-0.5-0.2-0.5-0.5S15.7,24,16,24h2.5
				c0.3,0,0.5,0.2,0.5,0.5V26C19,26.3,18.8,26.5,18.5,26.5z"/>
		</g>
		<g>
			<path fill="#37474F" d="M19,29h-3c-0.3,0-0.5-0.2-0.5-0.5S15.7,28,16,28h3c0.3,0,0.5,0.2,0.5,0.5S19.3,29,19,29z"/>
		</g>
	</g>
	<g>
		<g>
			<path fill="#FFECB3" d="M10.2,3.9C5.7,6.1,2.6,10.7,2.6,16s3.1,9.9,7.6,12.1"/>
			<path fill="#37474F" d="M10.2,28.6c-0.1,0-0.1,0-0.2,0C5.2,26.2,2.1,21.3,2.1,16S5.2,5.8,10,3.5c0.2-0.1,0.5,0,0.7,0.2
				c0.1,0.2,0,0.5-0.2,0.7C6,6.5,3.1,11.1,3.1,16s2.9,9.5,7.3,11.6c0.2,0.1,0.4,0.4,0.2,0.7C10.5,28.5,10.4,28.6,10.2,28.6z"/>
		</g>
		<g>
			<path fill="#FFECB3" d="M21.8,28.1c4.5-2.2,7.6-6.8,7.6-12.1s-3.1-9.9-7.6-12.1"/>
			<path fill="#37474F" d="M21.8,28.6c-0.2,0-0.4-0.1-0.5-0.3c-0.1-0.2,0-0.5,0.2-0.7c4.4-2.1,7.3-6.7,7.3-11.6
				c0-4.9-2.9-9.5-7.3-11.6c-0.2-0.1-0.4-0.4-0.2-0.7c0.1-0.2,0.4-0.4,0.7-0.2c4.8,2.3,7.8,7.2,7.8,12.5c0,5.3-3.1,10.2-7.8,12.5
				C22,28.5,21.9,28.6,21.8,28.6z"/>
		</g>
	</g>
</g>
</svg>
