<?xml version="1.0" encoding="utf-8"?>
<!-- Generator: Adobe Illustrator 16.0.0, SVG Export Plug-In . SVG Version: 6.00 Build 0)  -->
<!DOCTYPE svg PUBLIC "-//W3C//DTD SVG 1.1//EN" "http://www.w3.org/Graphics/SVG/1.1/DTD/svg11.dtd">
<svg version="1.1" id="Layer_1" xmlns="http://www.w3.org/2000/svg" xmlns:xlink="http://www.w3.org/1999/xlink" x="0px" y="0px"
	 width="32px" height="32px" viewBox="0 0 32 32" enable-background="new 0 0 32 32" xml:space="preserve">
<g>
	<g>
		<g>
			<g>
				<polyline fill="#FFAB00" points="9,11.5 2.5,11.5 2.5,14 				"/>
				<path fill="#37474F" d="M2.5,14.5C2.2,14.5,2,14.3,2,14v-2.5C2,11.2,2.2,11,2.5,11H9c0.3,0,0.5,0.2,0.5,0.5S9.3,12,9,12H3v2
					C3,14.3,2.8,14.5,2.5,14.5z"/>
			</g>
			<g>
				<polyline fill="#FFAB00" points="9,16.5 2.5,16.5 2.5,19 				"/>
				<path fill="#37474F" d="M2.5,19.5C2.2,19.5,2,19.3,2,19v-2.5C2,16.2,2.2,16,2.5,16H9c0.3,0,0.5,0.2,0.5,0.5S9.3,17,9,17H3v2
					C3,19.3,2.8,19.5,2.5,19.5z"/>
			</g>
			<g>
				<polyline fill="#FFAB00" points="9,21.5 2.5,21.5 2.5,24 				"/>
				<path fill="#37474F" d="M2.5,24.5C2.2,24.5,2,24.3,2,24v-2.5C2,21.2,2.2,21,2.5,21H9c0.3,0,0.5,0.2,0.5,0.5S9.3,22,9,22H3v2
					C3,24.3,2.8,24.5,2.5,24.5z"/>
			</g>
		</g>
		<g>
			<g>
				<polyline fill="#FFAB00" points="29,11.5 22.5,11.5 22.5,14 				"/>
				<path fill="#37474F" d="M22.5,14.5c-0.3,0-0.5-0.2-0.5-0.5v-2.5c0-0.3,0.2-0.5,0.5-0.5H29c0.3,0,0.5,0.2,0.5,0.5S29.3,12,29,12
					h-6v2C23,14.3,22.8,14.5,22.5,14.5z"/>
			</g>
			<g>
				<polyline fill="#FFAB00" points="29,16.5 22.5,16.5 22.5,19 				"/>
				<path fill="#37474F" d="M22.5,19.5c-0.3,0-0.5-0.2-0.5-0.5v-2.5c0-0.3,0.2-0.5,0.5-0.5H29c0.3,0,0.5,0.2,0.5,0.5S29.3,17,29,17
					h-6v2C23,19.3,22.8,19.5,22.5,19.5z"/>
			</g>
			<g>
				<polyline fill="#FFAB00" points="29,21.5 22.5,21.5 22.5,24 				"/>
				<path fill="#37474F" d="M22.5,24.5c-0.3,0-0.5-0.2-0.5-0.5v-2.5c0-0.3,0.2-0.5,0.5-0.5H29c0.3,0,0.5,0.2,0.5,0.5S29.3,22,29,22
					h-6v2C23,24.3,22.8,24.5,22.5,24.5z"/>
			</g>
		</g>
	</g>
	<g>
		<line fill="#FFAB00" x1="1" y1="26.5" x2="31" y2="26.5"/>
		<path fill="#37474F" d="M31,27H1c-0.3,0-0.5-0.2-0.5-0.5S0.7,26,1,26h30c0.3,0,0.5,0.2,0.5,0.5S31.3,27,31,27z"/>
	</g>
	<g>
		<rect x="1.5" y="5.5" fill="#FFECB3" width="29" height="3"/>
		<path fill="#37474F" d="M30.5,9h-29C1.2,9,1,8.8,1,8.5v-3C1,5.2,1.2,5,1.5,5h29C30.8,5,31,5.2,31,5.5v3C31,8.8,30.8,9,30.5,9z
			 M2,8h28V6H2V8z"/>
	</g>
	<g>
		<g>
			<path fill="#FFECB3" d="M20.2,19.3c0.3-3.8-3.7-6.3-3.7-6.5v0c0,0-0.5,0-0.5,0c0,0-0.5,0-0.5,0v0c0,0.2-3.9,2.7-3.7,6.5
				c0.3,3.8,3.7,5.5,4,5.6l0.1,0c0,0,0.1,0,0.1,0l0,0l0.1,0C16.5,24.7,19.9,23,20.2,19.3z"/>
			<path fill="#37474F" d="M15.9,25.4c-0.1,0-0.1,0-0.2,0l-0.1,0c-1-0.5-4-2.3-4.3-6c-0.2-3.3,2.5-5.7,3.5-6.6
				c0.1-0.1,0.2-0.2,0.2-0.2c0,0,0.1-0.1,0.1-0.1c0.1-0.1,0.2-0.2,0.4-0.2c0.3,0,0.4,0,0.5,0c0.1,0,0.3,0,0.5,0c0.1,0,0.3,0,0.4,0.1
				c0,0,0.1,0.1,0.1,0.2c0.1,0,0.1,0.1,0.2,0.2c1,0.9,3.7,3.2,3.5,6.5c-0.3,3.8-3.6,5.7-4.3,6c0,0-0.1,0-0.1,0l-0.1,0
				C16.1,25.4,16,25.4,15.9,25.4C16,25.4,15.9,25.4,15.9,25.4z M15.8,13.2c-0.1,0.1-0.2,0.1-0.3,0.2c-0.9,0.8-3.4,2.9-3.1,5.7
				c0.2,3.1,2.8,4.7,3.7,5.2c0.7-0.4,3.4-2,3.7-5.2c0.2-2.8-2.2-4.9-3.1-5.7c-0.1-0.1-0.2-0.2-0.3-0.2c-0.1,0-0.1,0-0.2,0
				c0,0-0.1,0-0.1,0C15.9,13.3,15.8,13.3,15.8,13.2z"/>
		</g>
		<g>
			<path fill="#FFECB3" stroke="#37474F" stroke-linecap="round" stroke-linejoin="round" stroke-miterlimit="10" d="M12.9,24.4"/>
		</g>
		<g>
			<path fill="#FFECB3" stroke="#37474F" stroke-linecap="round" stroke-linejoin="round" stroke-miterlimit="10" d="M12.9,17.3"/>
		</g>
		<g>
			<path fill="#FFECB3" stroke="#37474F" stroke-linecap="round" stroke-linejoin="round" stroke-miterlimit="10" d="M13.3,20.5"/>
		</g>
		<g>
			<path fill="#FFECB3" stroke="#37474F" stroke-linecap="round" stroke-linejoin="round" stroke-miterlimit="10" d="M16.8,19"/>
		</g>
	</g>
	<g>
		<g>
			<path fill="#FFECB3" d="M18.6,21.5c0.2-2.3-2.1-3.8-2.1-3.9v0c0,0-0.5,0-0.5,0c0,0-0.5,0-0.5,0v0c0,0.1-2.3,1.6-2.1,3.9
				c0.2,2.3,2.3,3.3,2.5,3.4l0.1,0c0,0,0,0,0,0l0,0l0.1,0C16.3,24.8,18.5,23.8,18.6,21.5z"/>
			<path fill="#37474F" d="M15.9,25.4c0,0-0.1,0-0.1,0l-0.1,0c0,0-0.1,0-0.1,0C15,25,13,23.8,12.9,21.5c-0.2-2.1,1.5-3.6,2.1-4.2
				c0,0,0.1-0.1,0.1-0.1c0,0,0-0.1,0.1-0.1c0.1-0.1,0.2-0.1,0.4-0.2c0.2,0,0.4,0,0.5,0c0.1,0,0.3,0,0.5,0c0.1,0,0.3,0,0.4,0.1
				c0,0,0.1,0.1,0.1,0.1c0,0,0.1,0.1,0.1,0.1c0.6,0.6,2.3,2,2.1,4.1C19,23.9,17,25,16.4,25.3c-0.1,0-0.1,0-0.2,0.1l-0.1,0
				C16,25.4,16,25.4,15.9,25.4C16,25.4,15.9,25.4,15.9,25.4z M15.7,18c0,0-0.1,0.1-0.1,0.1c-0.5,0.5-1.9,1.7-1.8,3.3
				c0.1,1.7,1.6,2.7,2.1,3c0.6-0.3,2-1.2,2.1-3c0.1-1.6-1.3-2.9-1.8-3.3c0,0-0.1-0.1-0.1-0.1c-0.1,0-0.2,0-0.2,0c0,0-0.1,0-0.1,0
				C15.9,18,15.8,18,15.7,18z"/>
		</g>
		<g>
			<path fill="#FFECB3" stroke="#37474F" stroke-linecap="round" stroke-linejoin="round" stroke-miterlimit="10" d="M14.1,24.6"/>
		</g>
		<g>
			<path fill="#FFECB3" stroke="#37474F" stroke-linecap="round" stroke-linejoin="round" stroke-miterlimit="10" d="M14.1,20.3"/>
		</g>
		<g>
			<path fill="#FFECB3" stroke="#37474F" stroke-linecap="round" stroke-linejoin="round" stroke-miterlimit="10" d="M14.3,22.2"/>
		</g>
		<g>
			<path fill="#FFECB3" stroke="#37474F" stroke-linecap="round" stroke-linejoin="round" stroke-miterlimit="10" d="M16.5,21.3"/>
		</g>
	</g>
</g>
</svg>
