<?xml version="1.0" encoding="utf-8"?>
<!-- Generator: Adobe Illustrator 16.0.0, SVG Export Plug-In . SVG Version: 6.00 Build 0)  -->
<!DOCTYPE svg PUBLIC "-//W3C//DTD SVG 1.1//EN" "http://www.w3.org/Graphics/SVG/1.1/DTD/svg11.dtd">
<svg version="1.1" id="Layer_1" xmlns="http://www.w3.org/2000/svg" xmlns:xlink="http://www.w3.org/1999/xlink" x="0px" y="0px"
	 width="33px" height="33px" viewBox="0 0 33 33" enable-background="new 0 0 33 33" xml:space="preserve">
<g>
	<g>
		<g>
			<polygon fill="#FFECB3" points="11.7,24.2 9.2,25.7 6.6,24.2 6.6,21.2 9.2,19.8 11.7,21.2 			"/>
			<path fill="#37474F" d="M9.2,26.2c-0.1,0-0.2,0-0.2-0.1l-2.6-1.5c-0.2-0.1-0.2-0.3-0.2-0.4v-3c0-0.2,0.1-0.3,0.2-0.4l2.6-1.5
				c0.2-0.1,0.3-0.1,0.5,0l2.6,1.5c0.2,0.1,0.2,0.3,0.2,0.4v3c0,0.2-0.1,0.3-0.2,0.4l-2.6,1.5C9.4,26.1,9.3,26.2,9.2,26.2z
				 M7.1,23.9l2.1,1.2l2.1-1.2v-2.4l-2.1-1.2l-2.1,1.2V23.9z"/>
		</g>
		<g>
			<g>
				<g>
					<polyline fill="#FFECB3" points="10.7,16.2 9.2,17.4 7.6,16.2 					"/>
					<path fill="#37474F" d="M9.2,17.9c-0.1,0-0.2,0-0.3-0.1l-1.6-1.3c-0.2-0.2-0.2-0.5-0.1-0.7c0.2-0.2,0.5-0.2,0.7-0.1l1.2,1
						l1.2-1c0.2-0.2,0.5-0.1,0.7,0.1c0.2,0.2,0.1,0.5-0.1,0.7l-1.6,1.3C9.4,17.9,9.3,17.9,9.2,17.9z"/>
				</g>
				<g>
					<line fill="#FFECB3" x1="9.2" y1="15.2" x2="9.2" y2="21.8"/>
					<path fill="#37474F" d="M9.2,22.3c-0.3,0-0.5-0.2-0.5-0.5v-6.6c0-0.3,0.2-0.5,0.5-0.5s0.5,0.2,0.5,0.5v6.6
						C9.7,22.1,9.5,22.3,9.2,22.3z"/>
				</g>
			</g>
			<g>
				<g>
					<polyline fill="#FFECB3" points="7.6,29.3 9.2,28 10.7,29.3 					"/>
					<path fill="#37474F" d="M10.7,29.8c-0.1,0-0.2,0-0.3-0.1l-1.2-1l-1.2,1c-0.2,0.2-0.5,0.1-0.7-0.1c-0.2-0.2-0.1-0.5,0.1-0.7
						l1.6-1.3c0.2-0.2,0.5-0.2,0.6,0l1.6,1.3c0.2,0.2,0.2,0.5,0.1,0.7C11,29.7,10.9,29.8,10.7,29.8z"/>
				</g>
				<g>
					<line fill="#FFECB3" x1="9.2" y1="30.2" x2="9.2" y2="23.6"/>
					<path fill="#37474F" d="M9.2,30.7c-0.3,0-0.5-0.2-0.5-0.5v-6.6c0-0.3,0.2-0.5,0.5-0.5s0.5,0.2,0.5,0.5v6.6
						C9.7,30.5,9.5,30.7,9.2,30.7z"/>
				</g>
			</g>
		</g>
		<g>
			<g>
				<g>
					<polyline fill="#FFECB3" points="15.6,20.7 13.7,20 14,18 					"/>
					<path fill="#37474F" d="M15.6,21.2c-0.1,0-0.1,0-0.2,0l-1.9-0.7c-0.2-0.1-0.4-0.3-0.3-0.5l0.3-2c0-0.3,0.3-0.5,0.6-0.4
						c0.3,0,0.5,0.3,0.4,0.6l-0.3,1.6l1.5,0.5c0.3,0.1,0.4,0.4,0.3,0.6C16,21.1,15.8,21.2,15.6,21.2z"/>
				</g>
				<g>
					<line fill="#FFECB3" x1="15.6" y1="18.9" x2="10" y2="22.2"/>
					<path fill="#37474F" d="M10,22.7c-0.2,0-0.3-0.1-0.4-0.2c-0.1-0.2-0.1-0.5,0.2-0.7l5.7-3.4c0.2-0.1,0.5-0.1,0.7,0.2
						s0.1,0.5-0.2,0.7l-5.7,3.4C10.1,22.7,10,22.7,10,22.7z"/>
				</g>
			</g>
			<g>
				<g>
					<polyline fill="#FFECB3" points="2.8,24.7 4.7,25.4 4.4,27.4 					"/>
					<path fill="#37474F" d="M4.4,27.9C4.3,27.9,4.3,27.9,4.4,27.9c-0.4,0-0.5-0.3-0.5-0.6l0.3-1.6l-1.5-0.5
						c-0.3-0.1-0.4-0.4-0.3-0.6c0.1-0.3,0.4-0.4,0.6-0.3l1.9,0.7c0.2,0.1,0.4,0.3,0.3,0.5l-0.3,2C4.8,27.7,4.6,27.9,4.4,27.9z"/>
				</g>
				<g>
					<line fill="#FFECB3" x1="2.8" y1="26.5" x2="8.4" y2="23.2"/>
					<path fill="#37474F" d="M2.8,27c-0.2,0-0.3-0.1-0.4-0.2c-0.1-0.2-0.1-0.5,0.2-0.7l5.7-3.4c0.2-0.1,0.5-0.1,0.7,0.2
						c0.1,0.2,0.1,0.5-0.2,0.7L3,27C2.9,27,2.9,27,2.8,27z"/>
				</g>
			</g>
		</g>
		<g>
			<g>
				<g>
					<polyline fill="#FFECB3" points="14.2,27.2 13.8,25.3 15.7,24.5 					"/>
					<path fill="#37474F" d="M14.2,27.7c-0.2,0-0.4-0.2-0.5-0.4l-0.4-2c0-0.2,0.1-0.5,0.3-0.6l1.9-0.7c0.3-0.1,0.5,0,0.6,0.3
						s0,0.5-0.3,0.6l-1.5,0.6l0.3,1.6C14.7,27.4,14.5,27.7,14.2,27.7C14.2,27.7,14.2,27.7,14.2,27.7z"/>
				</g>
				<g>
					<line fill="#FFECB3" x1="15.7" y1="26.3" x2="10" y2="23.1"/>
					<path fill="#37474F" d="M15.7,26.8c-0.1,0-0.2,0-0.2-0.1l-5.8-3.2c-0.2-0.1-0.3-0.4-0.2-0.7c0.1-0.2,0.4-0.3,0.7-0.2l5.8,3.2
						c0.2,0.1,0.3,0.4,0.2,0.7C16.1,26.7,15.9,26.8,15.7,26.8z"/>
				</g>
			</g>
			<g>
				<g>
					<polyline fill="#FFECB3" points="4.2,18.2 4.6,20.2 2.7,20.9 					"/>
					<path fill="#37474F" d="M2.7,21.4c-0.2,0-0.4-0.1-0.5-0.3c-0.1-0.3,0-0.5,0.3-0.6L4,19.8l-0.3-1.6c-0.1-0.3,0.1-0.5,0.4-0.6
						c0.3-0.1,0.5,0.1,0.6,0.4l0.4,2c0,0.2-0.1,0.5-0.3,0.6l-1.9,0.7C2.8,21.4,2.8,21.4,2.7,21.4z"/>
				</g>
				<g>
					<line fill="#FFECB3" x1="2.7" y1="19.1" x2="8.4" y2="22.3"/>
					<path fill="#37474F" d="M8.4,22.8c-0.1,0-0.2,0-0.2-0.1l-5.8-3.2c-0.2-0.1-0.3-0.4-0.2-0.7c0.1-0.2,0.4-0.3,0.7-0.2l5.8,3.2
						C8.9,22,9,22.3,8.8,22.5C8.8,22.7,8.6,22.8,8.4,22.8z"/>
				</g>
			</g>
		</g>
	</g>
	<g>
		<path fill="#FFFFFF" d="M28,21.3v-19C28,1.6,27.3,1,26.4,1h-4.1c-0.9,0-1.6,0.6-1.6,1.4v19c-1.4,1.1-2.3,2.8-2.3,4.7
			c0,3.3,2.7,6,6,6c3.3,0,6-2.7,6-6C30.3,24.1,29.4,22.4,28,21.3z"/>
		<path fill="#37474F" d="M24.4,32.5c-3.6,0-6.5-2.9-6.5-6.5c0-1.9,0.8-3.7,2.3-5V2.3c0-1,1-1.9,2.1-1.9h4.1c1.2,0,2.1,0.8,2.1,1.9
			v18.8c1.5,1.2,2.3,3,2.3,5C30.8,29.6,27.9,32.5,24.4,32.5z M22.3,1.5c-0.6,0-1.1,0.4-1.1,0.9v19c0,0.2-0.1,0.3-0.2,0.4
			c-1.3,1-2.1,2.6-2.1,4.3c0,3,2.5,5.5,5.5,5.5s5.5-2.5,5.5-5.5c0-1.7-0.8-3.3-2.1-4.3c-0.1-0.1-0.2-0.2-0.2-0.4v-19
			c0-0.5-0.5-0.9-1.1-0.9H22.3z"/>
	</g>
	<g>
		<circle fill="#FFAB00" cx="24.4" cy="26.3" r="2.2"/>
		<path fill="#37474F" d="M24.4,29c-1.5,0-2.7-1.2-2.7-2.7s1.2-2.7,2.7-2.7s2.7,1.2,2.7,2.7S25.9,29,24.4,29z M24.4,24.6
			c-1,0-1.7,0.8-1.7,1.7c0,1,0.8,1.7,1.7,1.7s1.7-0.8,1.7-1.7C26.1,25.4,25.3,24.6,24.4,24.6z"/>
	</g>
	<g>
		<line fill="#FFAB00" x1="24.4" y1="13.6" x2="24.4" y2="23.7"/>
		<path fill="#37474F" d="M24.4,24.2c-0.3,0-0.5-0.2-0.5-0.5V13.6c0-0.3,0.2-0.5,0.5-0.5s0.5,0.2,0.5,0.5v10.1
			C24.9,23.9,24.6,24.2,24.4,24.2z"/>
	</g>
	<g>
		<g>
			<line fill="#FFAB00" x1="23.9" y1="11.4" x2="26.5" y2="11.4"/>
			<path fill="#37474F" d="M26.5,11.9h-2.6c-0.3,0-0.5-0.2-0.5-0.5s0.2-0.5,0.5-0.5h2.6c0.3,0,0.5,0.2,0.5,0.5S26.7,11.9,26.5,11.9z
				"/>
		</g>
		<g>
			<line fill="#FFAB00" x1="23.9" y1="9.2" x2="25.1" y2="9.2"/>
			<path fill="#37474F" d="M25.1,9.7h-1.2c-0.3,0-0.5-0.2-0.5-0.5s0.2-0.5,0.5-0.5h1.2c0.3,0,0.5,0.2,0.5,0.5S25.3,9.7,25.1,9.7z"/>
		</g>
	</g>
	<g>
		<g>
			<line fill="#FFAB00" x1="23.9" y1="7" x2="26.5" y2="7"/>
			<path fill="#37474F" d="M26.5,7.5h-2.6c-0.3,0-0.5-0.2-0.5-0.5s0.2-0.5,0.5-0.5h2.6C26.7,6.5,27,6.7,27,7S26.7,7.5,26.5,7.5z"/>
		</g>
		<g>
			<line fill="#FFAB00" x1="23.9" y1="4.8" x2="25.1" y2="4.8"/>
			<path fill="#37474F" d="M25.1,5.3h-1.2c-0.3,0-0.5-0.2-0.5-0.5s0.2-0.5,0.5-0.5h1.2c0.3,0,0.5,0.2,0.5,0.5S25.3,5.3,25.1,5.3z"/>
		</g>
	</g>
	<g>
		<g>
			<polyline fill="#FFECB3" points="9.7,7.7 13.1,3.3 16.6,7.7 			"/>
			<path fill="#37474F" d="M16.6,8.2c-0.1,0-0.3-0.1-0.4-0.2l-3.1-3.9L10.1,8C9.9,8.2,9.6,8.3,9.4,8.1C9.1,8,9.1,7.6,9.3,7.4L12.7,3
				c0.2-0.2,0.6-0.2,0.8,0L17,7.4c0.2,0.2,0.1,0.5-0.1,0.7C16.8,8.2,16.7,8.2,16.6,8.2z"/>
		</g>
		<g>
			<polyline fill="#FFECB3" points="9.7,12.6 13.1,8.1 16.6,12.6 			"/>
			<path fill="#37474F" d="M16.6,13.1c-0.1,0-0.3-0.1-0.4-0.2l-3.1-3.9l-3.1,3.9c-0.2,0.2-0.5,0.3-0.7,0.1c-0.2-0.2-0.3-0.5-0.1-0.7
				l3.4-4.4c0.2-0.2,0.6-0.2,0.8,0l3.4,4.4c0.2,0.2,0.1,0.5-0.1,0.7C16.8,13,16.7,13.1,16.6,13.1z"/>
		</g>
	</g>
</g>
</svg>
