<?xml version="1.0" encoding="utf-8"?>
<!-- Generator: Adobe Illustrator 16.0.0, SVG Export Plug-In . SVG Version: 6.00 Build 0)  -->
<!DOCTYPE svg PUBLIC "-//W3C//DTD SVG 1.1//EN" "http://www.w3.org/Graphics/SVG/1.1/DTD/svg11.dtd">
<svg version="1.1" id="Layer_1" xmlns="http://www.w3.org/2000/svg" xmlns:xlink="http://www.w3.org/1999/xlink" x="0px" y="0px"
	 width="24px" height="24px" viewBox="0 0 24 24" enable-background="new 0 0 24 24" xml:space="preserve">
<g>
	<path d="M1,20.9c0,0.3,0.2,0.5,0.5,0.5h3.2h2.7h9.2h2.7h3.2c0.3,0,0.5-0.2,0.5-0.5s-0.2-0.5-0.5-0.5h-2.7V10c0-0.3-0.2-0.5-0.5-0.5
		s-0.5,0.2-0.5,0.5v10.4h-1.7v-8.6c0-0.3-0.2-0.5-0.5-0.5H7.4c-0.3,0-0.5,0.2-0.5,0.5v8.6H5.2V10c0-0.3-0.2-0.5-0.5-0.5
		S4.2,9.8,4.2,10v10.4H1.5C1.3,20.4,1,20.6,1,20.9z M16.1,16.1H7.9v-1.2h8.2V16.1z M7.9,17.1h8.2v1.2H7.9V17.1z M16.1,12.3v1.5H7.9
		v-1.5H16.1z M7.9,19.4h8.2v1.1H7.9V19.4z"/>
	<path d="M1.6,10.3c0.2,0.2,0.5,0.3,0.7,0.1L12,3.7l9.7,6.7c0.1,0.1,0.2,0.1,0.3,0.1c0.2,0,0.3-0.1,0.4-0.2c0.2-0.2,0.1-0.5-0.1-0.7
		l-10-6.9c-0.2-0.1-0.4-0.1-0.6,0l-10,6.9C1.5,9.7,1.4,10,1.6,10.3z"/>
</g>
</svg>
