<?xml version="1.0" encoding="utf-8"?>
<!-- Generator: Adobe Illustrator 16.0.0, SVG Export Plug-In . SVG Version: 6.00 Build 0)  -->
<!DOCTYPE svg PUBLIC "-//W3C//DTD SVG 1.1//EN" "http://www.w3.org/Graphics/SVG/1.1/DTD/svg11.dtd">
<svg version="1.1" id="Layer_1" xmlns="http://www.w3.org/2000/svg" xmlns:xlink="http://www.w3.org/1999/xlink" x="0px" y="0px"
	 width="25px" height="25px" viewBox="0 0 25 25" enable-background="new 0 0 25 25" xml:space="preserve">
<g>
	<path d="M18,15.1c0.3-0.6,0.7-1.2,1.2-2c1.6-2.7,3.7-6,3.7-7.8c0-2.6-2.4-4.7-5.4-4.9l0,0c-0.1,0-0.2,0-0.3,0
		c-3,0.2-5.3,2.3-5.3,4.9c0,0,0,0.1,0,0.2c-0.1,0-0.1,0-0.2,0c-5.3,0-9.6,4.3-9.6,9.6c0,5.3,4.3,9.6,9.6,9.6c0,0,0,0,0,0
		c0,0,0,0,0,0c0,0,0,0,0,0c5.3,0,9.6-4.3,9.6-9.6c0-0.3-0.2-0.5-0.5-0.5s-0.5,0.2-0.5,0.5c0,3.4-2,6.3-4.9,7.7
		c0.3-0.3,0.5-0.7,0.8-1C17.3,19.9,17.9,17.6,18,15.1z M11.7,6.4C11.7,6.4,11.7,6.4,11.7,6.4c0.5,0.1,1.5,3.2,1.5,8.6
		c0,5.3-1,8.4-1.5,8.6c-0.5-0.2-1.5-3.2-1.5-8.6C10.2,9.6,11.2,6.6,11.7,6.4z M10.4,6.7c-0.9,2-1.1,5.7-1.1,8.3s0.3,6.3,1.1,8.3
		c-2.2-1-3.9-4.3-3.9-8.3S8.1,7.7,10.4,6.7z M14.3,15c0-1.3-0.1-2.9-0.3-4.5c0.5,0.9,1.1,1.8,1.6,2.6c0.5,0.8,0.9,1.5,1.2,2.1v0.1
		c0,0.1,0,0.2,0.1,0.2v0.8c0,0,0,0.1,0,0.1c-0.2,1.8-0.7,3.4-1.5,4.7c-0.6,1-1.4,1.7-2.3,2.1C14,21.3,14.3,17.5,14.3,15z M17.3,1.4
		C17.3,1.4,17.4,1.4,17.3,1.4C17.4,1.4,17.4,1.4,17.3,1.4c2.6,0.1,4.5,1.8,4.5,3.9c0,1.6-2,4.9-3.5,7.3c-0.3,0.6-0.7,1.1-1,1.6
		c-0.3-0.5-0.6-1-0.9-1.6c-1.5-2.4-3.5-5.7-3.5-7.3C12.9,3.2,14.8,1.5,17.3,1.4z M3.2,15c0-3.4,2-6.4,4.9-7.7C6.5,9,5.5,11.8,5.5,15
		c0,3.2,1,6,2.6,7.7C5.2,21.4,3.2,18.4,3.2,15z"/>
	<path d="M20.3,5.6c0-1.6-1.3-2.9-2.9-2.9c-1.6,0-2.9,1.3-2.9,2.9c0,1.6,1.3,2.9,2.9,2.9C19,8.6,20.3,7.2,20.3,5.6z M15.4,5.6
		c0-1.1,0.9-1.9,1.9-1.9c1.1,0,1.9,0.9,1.9,1.9s-0.9,1.9-1.9,1.9C16.3,7.6,15.4,6.7,15.4,5.6z"/>
</g>
</svg>
