<?xml version="1.0" encoding="utf-8"?>
<!-- Generator: Adobe Illustrator 16.0.0, SVG Export Plug-In . SVG Version: 6.00 Build 0)  -->
<!DOCTYPE svg PUBLIC "-//W3C//DTD SVG 1.1//EN" "http://www.w3.org/Graphics/SVG/1.1/DTD/svg11.dtd">
<svg version="1.1" id="Layer_1" xmlns="http://www.w3.org/2000/svg" xmlns:xlink="http://www.w3.org/1999/xlink" x="0px" y="0px"
	 width="24px" height="24px" viewBox="0 0 24 24" enable-background="new 0 0 24 24" xml:space="preserve">
<g>
	<path d="M2.6,23.9h18.8c0.3,0,0.5-0.2,0.5-0.5V4c0-0.1-0.1-0.3-0.1-0.4l-3.4-3.4c-0.1-0.1-0.2-0.1-0.4-0.1H2.6
		c-0.3,0-0.5,0.2-0.5,0.5v22.9C2.1,23.7,2.3,23.9,2.6,23.9z M20.9,4.2H18V1.3L20.9,4.2z M3.1,1.1H17c0,0,0,0,0,0v3.6
		c0,0.3,0.2,0.5,0.5,0.5h3.4v17.8H3.1V1.1z"/>
	<path d="M5.3,7.4v3c0,0.2,0.1,0.4,0.3,0.5c0.1,0,0.1,0,0.2,0c0.1,0,0.3-0.1,0.4-0.1l1.1-1.1l1.1,1.1c0.1,0.1,0.2,0.1,0.4,0.1
		c0.1,0,0.1,0,0.2,0c0.2-0.1,0.3-0.3,0.3-0.5v-3c0.6-0.5,1-1.3,1-2.1c0-1.6-1.3-2.9-2.9-2.9S4.4,3.6,4.4,5.2
		C4.4,6.1,4.8,6.8,5.3,7.4z M8.2,9.2L7.6,8.6c0,0,0,0,0,0C7.5,8.5,7.4,8.4,7.3,8.4S7,8.5,6.9,8.6c0,0,0,0,0,0L6.3,9.2V8
		c0.3,0.1,0.6,0.2,0.9,0.2c0.3,0,0.6-0.1,0.9-0.2V9.2z M7.3,3.3c1,0,1.9,0.8,1.9,1.9S8.3,7.1,7.3,7.1S5.4,6.3,5.4,5.2
		S6.2,3.3,7.3,3.3z"/>
	<path d="M18.6,13.3H5.4c-0.3,0-0.5,0.2-0.5,0.5s0.2,0.5,0.5,0.5h13.1c0.3,0,0.5-0.2,0.5-0.5S18.8,13.3,18.6,13.3z"/>
	<path d="M18.6,16.6H5.4c-0.3,0-0.5,0.2-0.5,0.5s0.2,0.5,0.5,0.5h13.1c0.3,0,0.5-0.2,0.5-0.5S18.8,16.6,18.6,16.6z"/>
	<path d="M18.6,19.9H5.4c-0.3,0-0.5,0.2-0.5,0.5s0.2,0.5,0.5,0.5h13.1c0.3,0,0.5-0.2,0.5-0.5S18.8,19.9,18.6,19.9z"/>
	<path d="M18.6,6.4h-7.4c-0.3,0-0.5,0.2-0.5,0.5s0.2,0.5,0.5,0.5h7.4c0.3,0,0.5-0.2,0.5-0.5S18.9,6.4,18.6,6.4z"/>
	<path d="M18.6,9.8h-7.4c-0.3,0-0.5,0.2-0.5,0.5s0.2,0.5,0.5,0.5h7.4c0.3,0,0.5-0.2,0.5-0.5S18.9,9.8,18.6,9.8z"/>
</g>
</svg>
