<?xml version="1.0" encoding="utf-8"?>
<!-- Generator: Adobe Illustrator 16.0.0, SVG Export Plug-In . SVG Version: 6.00 Build 0)  -->
<!DOCTYPE svg PUBLIC "-//W3C//DTD SVG 1.1//EN" "http://www.w3.org/Graphics/SVG/1.1/DTD/svg11.dtd">
<svg version="1.1" id="Layer_1" xmlns="http://www.w3.org/2000/svg" xmlns:xlink="http://www.w3.org/1999/xlink" x="0px" y="0px"
	 width="128px" height="128px" viewBox="0 0 128 128" enable-background="new 0 0 128 128" xml:space="preserve">
<g>
	<g>
		<g>
			<rect x="49.3" y="11.8" fill="#FFECB3" width="35" height="13"/>
			<path fill="#37474F" d="M84.3,26.3h-35c-0.8,0-1.5-0.7-1.5-1.5v-13c0-0.8,0.7-1.5,1.5-1.5h35c0.8,0,1.5,0.7,1.5,1.5v13
				C85.8,25.6,85.1,26.3,84.3,26.3z M50.8,23.3h32v-10h-32V23.3z"/>
		</g>
		<g>
			<path fill="#B0BEC5" d="M98.8,48.8h21.7c-0.6-24-16-43.6-35.2-43.6c-1.7,0-4,0.4-5,0.7v23.3c0.5,0.1,0.5,0.1,0.9,0.1
				C90.6,29.3,98.2,37.8,98.8,48.8z"/>
			<path fill="#37474F" d="M120.5,50.3H98.8c-0.8,0-1.5-0.6-1.5-1.4c-0.5-10.3-7.5-18.1-16.1-18.1c-0.5,0-0.5,0-1.1-0.1
				c-0.7-0.1-1.2-0.8-1.2-1.5V5.9c0-0.7,0.4-1.3,1.1-1.4c1.2-0.3,3.6-0.7,5.4-0.7c20,0,36.1,19.8,36.7,45c0,0.4-0.1,0.8-0.4,1.1
				S120.9,50.3,120.5,50.3z M100.1,47.3h18.8c-1.2-22.5-16-40.6-33.7-40.6c-1.1,0-2.5,0.2-3.5,0.4v20.7
				C91.3,28.1,99,36.3,100.1,47.3z"/>
		</g>
		<g>
			<path fill="#78909C" d="M101.9,35.8h16.3c-0.4-17-11.9-30.5-26.3-30.5c-1.3,0-2.6,0.2-3.6,0.4v16.4c0,0,0,0,0,0
				C95.4,22.1,101.4,27.8,101.9,35.8z"/>
			<path fill="#37474F" d="M119.7,37.3h-19.2l-0.1-1.4c-0.4-7-5.6-12.3-12.1-12.3h-1.5V4.5L88,4.2c1.2-0.3,2.6-0.4,3.9-0.4
				c15.1,0,27.3,14,27.8,31.9L119.7,37.3z M103.2,34.3h13.3c-1-15.5-11.6-27.5-24.7-27.5c-0.7,0-1.4,0-2.1,0.1v13.7
				C96.7,21.4,102.2,26.9,103.2,34.3z"/>
		</g>
		<g>
			<path fill="#B0BEC5" d="M120.3,45.6c-6-1.4-38.6-2.4-45.2-2.4c-35.5,0-64.5,22.6-68.8,51.6h114V45.6z"/>
			<path fill="#37474F" d="M120.3,96.3H6.3c-0.4,0-0.9-0.2-1.1-0.5c-0.3-0.3-0.4-0.8-0.3-1.2c4.5-30.1,34.7-52.8,70.3-52.8
				c6.8,0,39.3,1,45.5,2.5c0.7,0.2,1.2,0.8,1.2,1.5v49.1C121.8,95.6,121.1,96.3,120.3,96.3z M8.1,93.3h110.7V46.9
				c-7.9-1.3-36.8-2.2-43.7-2.2C41.7,44.7,13.2,65.5,8.1,93.3z"/>
		</g>
		<g>
			<path fill="#FFFFFF" d="M11.6,78.8h108.7V45.6c-6-1.4-38.6-2.6-45.2-2.6C46.4,43.1,22.2,57.8,11.6,78.8z"/>
			<path fill="#37474F" d="M120.3,80.3H11.6c-0.5,0-1-0.3-1.3-0.7c-0.3-0.4-0.3-1-0.1-1.5c11.2-22.2,36.7-36.5,64.8-36.5
				c5.8,0,39.2,1.1,45.5,2.6c0.7,0.2,1.2,0.8,1.2,1.5v33.1C121.8,79.6,121.1,80.3,120.3,80.3z M14.1,77.3h104.7V46.9
				c-8-1.3-37.3-2.3-43.7-2.3C49,44.6,25.3,57.3,14.1,77.3z"/>
		</g>
		<g>
			<g>
				<path fill="#37474F" d="M61,67.7c0-1,0.8-1.7,1.7-1.7c1,0,1.8,0.8,1.7,1.7c0,0.9-0.8,1.7-1.7,1.7C61.8,69.5,61,68.7,61,67.7z"/>
				<path fill="#37474F" d="M62.7,69.9c-1.2,0-2.2-1-2.2-2.2c0-1.2,1-2.2,2.2-2.2c0.6,0,1.2,0.2,1.6,0.7c0.4,0.4,0.6,1,0.6,1.6
					C65,69,64,69.9,62.7,69.9L62.7,69.9z M62.8,66.5c-0.7,0-1.2,0.5-1.2,1.2c0,0.7,0.5,1.2,1.2,1.2v0.5l0-0.5c0.7,0,1.3-0.5,1.3-1.2
					c0-0.3-0.1-0.6-0.3-0.9C63.4,66.6,63.1,66.5,62.8,66.5z"/>
			</g>
			<g>
				<path fill="#37474F" d="M48.9,67.7c0-1,0.8-1.7,1.7-1.7c1,0,1.7,0.8,1.8,1.7c0,0.9-0.8,1.7-1.8,1.7
					C49.7,69.4,48.9,68.7,48.9,67.7z"/>
				<path fill="#37474F" d="M50.6,70L50.6,70c-1.2,0-2.2-1-2.2-2.2c0-0.6,0.2-1.2,0.6-1.6c0.4-0.4,1-0.7,1.6-0.7
					c1.2,0,2.2,1,2.3,2.2C52.9,69,51.9,70,50.6,70z M50.7,66.5c-0.3,0-0.6,0.1-0.9,0.4c-0.2,0.2-0.4,0.5-0.3,0.9
					c0,0.7,0.5,1.2,1.2,1.2c0.7,0,1.2-0.6,1.3-1.2C51.9,67.1,51.3,66.5,50.7,66.5z"/>
			</g>
			<g>
				<path fill="#37474F" d="M36.8,67.7c0-0.9,0.8-1.7,1.7-1.7c0.9,0,1.7,0.8,1.7,1.7c0,0.9-0.8,1.7-1.7,1.7
					C37.6,69.5,36.8,68.7,36.8,67.7z"/>
				<path fill="#37474F" d="M38.6,69.9L38.6,69.9C38.5,69.9,38.5,69.9,38.6,69.9c-1.3,0-2.3-1-2.3-2.2c0-1.2,1-2.2,2.2-2.2
					c1.2,0,2.2,1,2.2,2.2C40.8,69,39.8,69.9,38.6,69.9z M38.6,66.5c-0.7,0-1.2,0.6-1.2,1.2c0,0.7,0.5,1.2,1.2,1.2l0.1,0.5v-0.5
					c0.6,0,1.2-0.6,1.2-1.2C39.8,67,39.3,66.5,38.6,66.5z"/>
			</g>
		</g>
		<g>
			<g>
				<path fill="#37474F" d="M103.2,67.7c0-1,0.8-1.7,1.7-1.7c1,0,1.8,0.8,1.7,1.7c0,0.9-0.8,1.7-1.7,1.7
					C104,69.5,103.2,68.7,103.2,67.7z"/>
				<path fill="#37474F" d="M104.8,69.9c-1.2,0-2.2-1-2.2-2.2c0-1.2,1-2.2,2.2-2.2c0.6,0,1.2,0.2,1.6,0.7c0.4,0.4,0.6,1,0.6,1.6
					C107.1,69,106.1,69.9,104.8,69.9L104.8,69.9z M104.9,66.5c-0.7,0-1.2,0.6-1.2,1.2c0,0.7,0.5,1.2,1.2,1.2v0.5l0-0.5
					c0.7,0,1.3-0.5,1.3-1.2c0-0.3-0.1-0.6-0.3-0.9C105.6,66.6,105.2,66.5,104.9,66.5z"/>
			</g>
			<g>
				<path fill="#37474F" d="M91.1,67.7c0-1,0.8-1.7,1.7-1.7c1,0,1.7,0.8,1.7,1.7c0,0.9-0.8,1.7-1.8,1.7
					C91.9,69.4,91.1,68.7,91.1,67.7z"/>
				<path fill="#37474F" d="M92.8,70L92.8,70c-1.2,0-2.2-1-2.2-2.2c0-0.6,0.2-1.2,0.6-1.6c0.4-0.4,1-0.7,1.6-0.7
					c1.2,0,2.2,1,2.2,2.2C95,69,94,70,92.8,70z M92.8,66.5c-0.3,0-0.6,0.1-0.9,0.4c-0.2,0.2-0.4,0.5-0.3,0.9c0,0.7,0.5,1.2,1.2,1.2
					c0.7,0,1.2-0.6,1.2-1.2C94,67,93.5,66.5,92.8,66.5z"/>
			</g>
			<g>
				<path fill="#37474F" d="M79,67.7c0-0.9,0.8-1.7,1.7-1.7c1,0,1.7,0.8,1.7,1.7c0,0.9-0.8,1.7-1.7,1.7C79.8,69.5,79,68.7,79,67.7z"
					/>
				<path fill="#37474F" d="M80.8,69.9L80.8,69.9C80.7,69.9,80.7,69.9,80.8,69.9c-1.3,0-2.3-1-2.3-2.2c0-1.2,1-2.2,2.2-2.2
					c1.2,0,2.2,1,2.2,2.2C82.9,69,82,69.9,80.8,69.9z M80.7,66.5c-0.7,0-1.2,0.6-1.2,1.2c0,0.7,0.5,1.2,1.2,1.2l0.1,0.5v-0.5
					c0.6,0,1.2-0.6,1.2-1.2C81.9,67,81.4,66.5,80.7,66.5z"/>
			</g>
		</g>
		<g>
			<g>
				<path fill="#FFAB00" d="M121.7,44.7c0,6.3-5.1,11.5-11.5,11.5c-6.3,0-11.5-5.1-11.5-11.5c0-6.3,5.1-11.5,11.5-11.5
					C116.6,33.2,121.7,38.4,121.7,44.7z"/>
				<path fill="#37474F" d="M110.3,57.7c-7.1,0-13-5.8-13-13c0-7.2,5.8-13,13-13c7.1,0,13,5.8,13,13
					C123.2,51.9,117.4,57.7,110.3,57.7z M110.3,34.7c-5.5,0-10,4.5-10,10c0,5.5,4.5,10,10,10c5.5,0,10-4.5,10-10
					C120.2,39.2,115.7,34.7,110.3,34.7z"/>
			</g>
			<g>
				<path fill="#FFECB3" d="M115.4,44.7c0,2.9-2.3,5.2-5.2,5.2c-2.9,0-5.2-2.3-5.2-5.2c0-2.9,2.3-5.2,5.2-5.2
					C113.1,39.5,115.4,41.8,115.4,44.7z"/>
				<path fill="#37474F" d="M110.3,51.4c-3.7,0-6.7-3-6.7-6.7c0-3.7,3-6.7,6.7-6.7c3.7,0,6.7,3,6.7,6.7
					C116.9,48.4,113.9,51.4,110.3,51.4z M110.3,41c-2,0-3.7,1.7-3.7,3.7c0,2,1.7,3.7,3.7,3.7c2,0,3.7-1.6,3.7-3.7
					C113.9,42.7,112.3,41,110.3,41z"/>
			</g>
		</g>
		<g>
			<rect x="49.3" y="4.8" fill="#FFAB00" width="35" height="14"/>
			<path fill="#37474F" d="M84.3,20.3h-35c-0.8,0-1.5-0.7-1.5-1.5v-14c0-0.8,0.7-1.5,1.5-1.5h35c0.8,0,1.5,0.7,1.5,1.5v14
				C85.8,19.6,85.1,20.3,84.3,20.3z M50.8,17.3h32v-11h-32V17.3z"/>
		</g>
	</g>
	<g>
		<g>
			<g>
				<line fill="#78909C" x1="30.2" y1="101.5" x2="30.2" y2="120.5"/>
				<path fill="#37474F" d="M30.2,122c-0.8,0-1.5-0.7-1.5-1.5v-19c0-0.8,0.7-1.5,1.5-1.5s1.5,0.7,1.5,1.5v19
					C31.7,121.3,31,122,30.2,122z"/>
			</g>
			<g>
				<polygon fill="#37474F" points="25.2,118.3 30.2,123.2 35.2,118.3 				"/>
			</g>
		</g>
	</g>
	<g>
		<g>
			<g>
				<line fill="#78909C" x1="53.7" y1="101.3" x2="53.7" y2="120.3"/>
				<path fill="#37474F" d="M53.7,121.8c-0.8,0-1.5-0.7-1.5-1.5v-19c0-0.8,0.7-1.5,1.5-1.5s1.5,0.7,1.5,1.5v19
					C55.2,121.1,54.6,121.8,53.7,121.8z"/>
			</g>
			<g>
				<polygon fill="#37474F" points="48.7,118.3 53.7,123.2 58.8,118.3 				"/>
			</g>
		</g>
	</g>
	<g>
		<g>
			<g>
				<line fill="#78909C" x1="77.3" y1="101.3" x2="77.3" y2="120.3"/>
				<path fill="#37474F" d="M77.3,121.8c-0.8,0-1.5-0.7-1.5-1.5v-19c0-0.8,0.7-1.5,1.5-1.5s1.5,0.7,1.5,1.5v19
					C78.8,121.1,78.1,121.8,77.3,121.8z"/>
			</g>
			<g>
				<polygon fill="#37474F" points="72.3,118.3 77.3,123.2 82.3,118.3 				"/>
			</g>
		</g>
	</g>
	<g>
		<g>
			<g>
				<line fill="#78909C" x1="100.9" y1="101.3" x2="100.9" y2="120.3"/>
				<path fill="#37474F" d="M100.9,121.8c-0.8,0-1.5-0.7-1.5-1.5v-19c0-0.8,0.7-1.5,1.5-1.5s1.5,0.7,1.5,1.5v19
					C102.4,121.1,101.7,121.8,100.9,121.8z"/>
			</g>
			<g>
				<polygon fill="#37474F" points="95.9,118.3 100.9,123.2 105.9,118.3 				"/>
			</g>
		</g>
	</g>
</g>
</svg>
