<?xml version="1.0" encoding="utf-8"?>
<!-- Generator: Adobe Illustrator 16.0.0, SVG Export Plug-In . SVG Version: 6.00 Build 0)  -->
<!DOCTYPE svg PUBLIC "-//W3C//DTD SVG 1.1//EN" "http://www.w3.org/Graphics/SVG/1.1/DTD/svg11.dtd">
<svg version="1.1" id="Layer_1" xmlns="http://www.w3.org/2000/svg" xmlns:xlink="http://www.w3.org/1999/xlink" x="0px" y="0px"
	 width="128px" height="128px" viewBox="0 0 128 128" enable-background="new 0 0 128 128" xml:space="preserve">
<g>
	<g>
		<polygon fill="#FFAB00" points="58.5,16.7 58.5,7 68.7,7 71.1,9 77.5,9 77.5,15.4 		"/>
		<path fill="#37474F" d="M58.5,18.2c-0.4,0-0.7-0.1-1-0.4c-0.3-0.3-0.5-0.7-0.5-1.1V7c0-0.8,0.7-1.5,1.5-1.5h10.2
			c0.4,0,0.7,0.1,1,0.4l2,1.6h5.9C78.3,7.5,79,8.2,79,9v6.4c0,0.8-0.6,1.4-1.4,1.5l-19,1.4C58.6,18.2,58.5,18.2,58.5,18.2z M60,8.5
			v6.6L76,14v-3.5h-4.9c-0.4,0-0.7-0.1-1-0.4l-2-1.6H60z"/>
	</g>
	<g>
		<path fill="#FFFFFF" d="M109,14H18.9c-8,0-14.4,6.7-14.4,14.7V33H75c8,0,14.5,4.8,14.5,10.5v53.9c0,5.7-6.4,10.6-14.5,10.6H4.8
			c1.1,6,6.8,12,14,12H109c8,0,14.5-6.7,14.5-14.7V28.7C123.5,20.7,117,14,109,14z"/>
		<path fill="#37474F" d="M109,121.5H18.9c-8.2,0-14.3-6.7-15.5-13.2c-0.1-0.4,0-0.9,0.3-1.2c0.3-0.3,0.7-0.5,1.2-0.5H75
			c7,0,13-4.2,13-9.1V43.5c0-4.9-5.9-9-13-9H4.5C3.7,34.5,3,33.8,3,33v-4.3c0-9,7.1-16.2,15.9-16.2H109c8.8,0,16,7.3,16,16.2v76.6
			C125,114.2,117.8,121.5,109,121.5z M6.8,109.5c1.7,4.6,6.3,9,12.1,9H109c7.2,0,13-5.9,13-13.2V28.7c0-7.3-5.8-13.2-13-13.2H18.9
			C11.8,15.5,6,21.4,6,28.7v2.8h69c8.8,0,16,5.4,16,12v53.9c0,6.6-7.3,12.1-16,12.1H6.8z"/>
	</g>
	<g>
		<path fill="#FFAB00" d="M7.6,72c0.2,18,15.6,33.4,34.7,33.4C61.4,105.4,76.9,90,77,72H7.6z"/>
		<path fill="#37474F" d="M42.3,106.9c-19.8,0-36-15.7-36.2-34.9c0-0.4,0.2-0.8,0.4-1.1c0.3-0.3,0.7-0.4,1.1-0.4H77
			c0.4,0,0.8,0.2,1.1,0.4c0.3,0.3,0.4,0.7,0.4,1.1C78.3,91.3,62.1,106.9,42.3,106.9z M9.1,73.5c1,16.6,15.8,30.4,33.2,30.4
			c17.3,0,32.2-13.8,33.2-30.4H9.1z"/>
	</g>
	<g>
		<rect x="27.5" y="34" fill="#B0BEC5" width="30" height="11"/>
		<path fill="#37474F" d="M57.5,46.5h-30c-0.8,0-1.5-0.7-1.5-1.5V34c0-0.8,0.7-1.5,1.5-1.5h30c0.8,0,1.5,0.7,1.5,1.5v11
			C59,45.8,58.3,46.5,57.5,46.5z M29,43.5h27v-8H29V43.5z"/>
	</g>
	<g>
		<g>
			<line fill="#FFAB00" x1="101" y1="38" x2="113" y2="38"/>
			<path fill="#37474F" d="M113,39.5h-12c-0.8,0-1.5-0.7-1.5-1.5s0.7-1.5,1.5-1.5h12c0.8,0,1.5,0.7,1.5,1.5S113.8,39.5,113,39.5z"/>
		</g>
		<g>
			<line fill="#FFAB00" x1="101" y1="46" x2="113" y2="46"/>
			<path fill="#37474F" d="M113,47.5h-12c-0.8,0-1.5-0.7-1.5-1.5s0.7-1.5,1.5-1.5h12c0.8,0,1.5,0.7,1.5,1.5S113.8,47.5,113,47.5z"/>
		</g>
		<g>
			<line fill="#FFAB00" x1="101" y1="54" x2="113" y2="54"/>
			<path fill="#37474F" d="M113,55.5h-12c-0.8,0-1.5-0.7-1.5-1.5s0.7-1.5,1.5-1.5h12c0.8,0,1.5,0.7,1.5,1.5S113.8,55.5,113,55.5z"/>
		</g>
	</g>
	<g>
		<polygon fill="#FFFFFF" points="110.9,89.4 107.1,93.3 103.2,89.4 107.1,85.6 		"/>
		<path fill="#37474F" d="M107.1,94.8c-0.4,0-0.8-0.2-1.1-0.4l-3.8-3.9c-0.6-0.6-0.6-1.5,0-2.1l3.8-3.9c0.3-0.3,0.7-0.4,1.1-0.4l0,0
			c0.4,0,0.8,0.2,1.1,0.4l3.8,3.9c0.6,0.6,0.6,1.5,0,2.1l-3.8,3.9C107.8,94.6,107.5,94.8,107.1,94.8L107.1,94.8z M105.3,89.4
			l1.7,1.7l1.7-1.7l-1.7-1.7L105.3,89.4z"/>
	</g>
	<g>
		<g>
			<path fill="#37474F" d="M114.5,71.4c0-0.8,0.6-1.4,1.4-1.4c0.8,0,1.4,0.6,1.4,1.4c0,0.8-0.6,1.4-1.4,1.4
				C115.1,72.8,114.5,72.2,114.5,71.4z"/>
			<path fill="#37474F" d="M115.9,73.3c-1,0-1.9-0.9-1.9-1.9c0-1.1,0.9-1.9,1.9-1.9c0.5,0,1,0.2,1.4,0.6c0.3,0.4,0.5,0.8,0.5,1.4
				C117.8,72.5,117,73.3,115.9,73.3z M115.9,70.5c-0.5,0-0.9,0.4-0.9,0.9c0,0.5,0.4,0.9,0.9,0.9c0.5,0,0.9-0.4,0.9-0.9
				c0-0.3-0.1-0.5-0.2-0.6C116.4,70.6,116.2,70.5,115.9,70.5z"/>
		</g>
		<g>
			<path fill="#37474F" d="M104.6,71.4c0-0.8,0.6-1.4,1.4-1.4c0.8,0,1.4,0.6,1.4,1.4c0,0.8-0.7,1.4-1.4,1.4
				C105.3,72.8,104.6,72.2,104.6,71.4z"/>
			<path fill="#37474F" d="M106,73.3c-1,0-1.9-0.9-1.9-1.9c0-0.5,0.2-1,0.5-1.3c0.4-0.4,0.9-0.6,1.4-0.6c1.1,0,1.9,0.8,1.9,1.9
				C107.9,72.5,107.1,73.3,106,73.3z M106,70.5c-0.2,0-0.5,0.1-0.6,0.3c-0.2,0.2-0.2,0.4-0.2,0.6c0,0.5,0.4,0.9,0.9,0.9
				c0.5,0,0.9-0.4,0.9-0.9C107,70.9,106.6,70.5,106,70.5z"/>
		</g>
		<g>
			<path fill="#37474F" d="M94.7,71.4c0-0.8,0.7-1.4,1.4-1.4c0.8,0,1.4,0.6,1.4,1.4c0,0.8-0.6,1.4-1.4,1.4
				C95.4,72.8,94.7,72.2,94.7,71.4z"/>
			<path fill="#37474F" d="M96.2,73.3c-1,0-1.9-0.9-1.9-1.9c0-1,0.9-1.9,1.9-1.9c1.1,0,1.9,0.8,1.9,1.9
				C98.1,72.5,97.2,73.3,96.2,73.3z M96.2,70.5c-0.5,0-0.9,0.4-0.9,0.9c0,0.5,0.4,0.9,0.9,0.9c0.5,0,0.9-0.4,0.9-0.9
				C97.1,70.9,96.7,70.5,96.2,70.5z"/>
		</g>
	</g>
	<g>
		<line fill="#B0BEC5" x1="42.5" y1="59.5" x2="42.5" y2="45.5"/>
		<path fill="#37474F" d="M42.5,61c-0.8,0-1.5-0.7-1.5-1.5v-14c0-0.8,0.7-1.5,1.5-1.5s1.5,0.7,1.5,1.5v14C44,60.3,43.3,61,42.5,61z"
			/>
	</g>
	<g>
		<path fill="#B0BEC5" d="M52.2,61.5c0,1.6-1.3,2.5-2.9,2.5H35.2c-1.6,0-2.9-0.9-2.9-2.5l0,0c0-1.6,1.3-2.5,2.9-2.5h14.2
			C51,59,52.2,59.9,52.2,61.5L52.2,61.5z"/>
		<path fill="#37474F" d="M49.4,65.5H35.2c-2.5,0-4.4-1.7-4.4-4c0-2.3,1.8-4,4.4-4h14.2c2.5,0,4.4,1.7,4.4,4
			C53.8,63.8,51.9,65.5,49.4,65.5z M35.2,60.5c-0.3,0-1.4,0.1-1.4,1c0,0.9,1.1,1,1.4,1h14.2c0.4,0,1.4-0.1,1.4-1c0-0.9-0.9-1-1.4-1
			H35.2z"/>
	</g>
	<g>
		<path fill="#B0BEC5" d="M52.2,67c0,1.6-1.3,3-2.9,3H35.2c-1.6,0-2.9-1.4-2.9-3l0,0c0-1.6,1.3-3,2.9-3h14.2
			C51,64,52.2,65.4,52.2,67L52.2,67z"/>
		<path fill="#37474F" d="M49.4,71.5H35.2c-2.4,0-4.4-2.1-4.4-4.5c0-2.4,2-4.5,4.4-4.5h14.2c2.4,0,4.4,2.1,4.4,4.5
			C53.8,69.4,51.8,71.5,49.4,71.5z M35.2,65.5c-0.7,0-1.4,0.7-1.4,1.5c0,0.8,0.7,1.5,1.4,1.5h14.2c0.7,0,1.4-0.7,1.4-1.5
			c0-0.8-0.6-1.5-1.4-1.5H35.2z"/>
	</g>
	<g>
		<rect x="4.5" y="114" fill="#78909C" width="119" height="7"/>
		<path fill="#37474F" d="M123.5,122.5H4.5c-0.8,0-1.5-0.7-1.5-1.5v-7c0-0.8,0.7-1.5,1.5-1.5h119c0.8,0,1.5,0.7,1.5,1.5v7
			C125,121.8,124.3,122.5,123.5,122.5z M6,119.5h116v-4H6V119.5z"/>
	</g>
	<g>
		<polyline fill="#FFFFFF" points="13.5,87.5 30,87.5 30,94.1 45.2,78.6 53,86.5 58.6,86.5 63.2,91.5 68,91.5 		"/>
	</g>
	<g>
		<rect x="32.5" y="44" fill="#FFFFFF" width="20" height="5"/>
		<path fill="#37474F" d="M52.5,50.5h-20c-0.8,0-1.5-0.7-1.5-1.5v-5c0-0.8,0.7-1.5,1.5-1.5h20c0.8,0,1.5,0.7,1.5,1.5v5
			C54,49.8,53.3,50.5,52.5,50.5z M34,47.5h17v-2H34V47.5z"/>
	</g>
</g>
</svg>
