<?xml version="1.0" encoding="utf-8"?>
<!-- Generator: Adobe Illustrator 16.0.0, SVG Export Plug-In . SVG Version: 6.00 Build 0)  -->
<!DOCTYPE svg PUBLIC "-//W3C//DTD SVG 1.1//EN" "http://www.w3.org/Graphics/SVG/1.1/DTD/svg11.dtd">
<svg version="1.1" id="Layer_1" xmlns="http://www.w3.org/2000/svg" xmlns:xlink="http://www.w3.org/1999/xlink" x="0px" y="0px"
	 width="64px" height="64px" viewBox="0 0 64 64" enable-background="new 0 0 64 64" xml:space="preserve">
<g>
	<g>
		<g>
			<path fill="#B0BEC5" d="M29.3,5H14.2c-2.5,0-4,2.5-4,4.9V27l-1.7-1.5c-1.3-1.3-3.6-1.3-4.9,0l-1.4,1.4c-1.3,1.3-1.4,3.5,0,4.8
				l8.5,8.6c0.1,0.1,0.2,0.2,0.3,0.3c0.8,0.8,1.9,1.4,3.2,1.4h15.1c2.5,0,4.9-2.2,4.9-4.7V9.9C34.2,7.5,31.8,5,29.3,5z"/>
			<path fill="#37474F" d="M29.3,43H14.2c-1.4,0-2.8-0.6-3.9-1.7c-0.1-0.1-0.2-0.1-0.2-0.2L10,41l-8.6-8.6c-0.8-0.8-1.3-1.9-1.3-3.1
				c0-1.2,0.5-2.3,1.3-3.1l1.4-1.4C3.7,24,4.8,23.6,6,23.6c1.2,0,2.3,0.4,3.1,1.2V9.9c0-2.9,1.9-5.9,5-5.9h15.1c3,0,5.9,2.9,5.9,5.9
				v27.4C35.2,40.3,32.4,43,29.3,43z M6,25.6c-0.7,0-1.3,0.3-1.7,0.7l-1.4,1.4c-0.4,0.4-0.7,1.1-0.7,1.7c0,0.6,0.2,1.2,0.7,1.7
				l8.7,8.7c0,0,0.1,0.1,0.1,0.1l0.1,0.1c0.7,0.7,1.6,1.1,2.5,1.1h15.1c2,0,3.9-1.8,3.9-3.7V9.9c0-1.9-2-3.9-3.9-3.9H14.2
				c-1.9,0-3,2-3,3.9v19.3l-3.3-2.9C7.3,25.8,6.7,25.6,6,25.6z"/>
		</g>
		<g>
			<path fill="#FFAB00" d="M33.8,44.5c0,1.3-1,2.5-2.4,2.5H13.1c-1.3,0-2.4-1.2-2.4-2.5l0,0c0-1.3,1.1-2.5,2.4-2.5h18.3
				C32.7,42,33.8,43.2,33.8,44.5L33.8,44.5z"/>
			<path fill="#37474F" d="M31.4,48H13.1c-1.8,0-3.4-1.6-3.4-3.5c0-1.9,1.5-3.5,3.4-3.5h18.3c1.8,0,3.4,1.6,3.4,3.5
				C34.8,46.4,33.2,48,31.4,48z M13.1,43c-0.7,0-1.4,0.7-1.4,1.5c0,0.8,0.7,1.5,1.4,1.5h18.3c0.7,0,1.4-0.7,1.4-1.5
				c0-0.8-0.6-1.5-1.4-1.5H13.1z"/>
		</g>
		<g>
			<g>
				<g>
					<path fill="#37474F" d="M18.3,27.3c0,0.4-0.3,0.7-0.7,0.7c-0.4,0-0.7-0.3-0.7-0.7c0-0.4,0.3-0.6,0.7-0.6
						C18,26.6,18.3,26.9,18.3,27.3z"/>
					<path fill="#37474F" d="M17.6,28.4c-0.3,0-0.6-0.1-0.8-0.4c-0.2-0.2-0.3-0.5-0.3-0.8c0-0.6,0.5-1.1,1.2-1.1h0
						c0.6,0,1.1,0.5,1.1,1.1C18.8,27.9,18.3,28.4,17.6,28.4L17.6,28.4z M17.6,27.1c-0.1,0-0.2,0.1-0.2,0.1c0,0.1,0,0.1,0,0.1
						c0,0,0.1,0,0.1,0v0.5l0-0.5c0.1,0,0.2-0.1,0.2-0.2C17.8,27.2,17.7,27.1,17.6,27.1z"/>
				</g>
				<g>
					<path fill="#37474F" d="M22.9,27.3c0,0.3-0.3,0.7-0.6,0.7c-0.4,0-0.7-0.3-0.7-0.7c0-0.3,0.3-0.7,0.7-0.7
						C22.6,26.6,22.9,26.9,22.9,27.3z"/>
					<path fill="#37474F" d="M22.3,28.4c-0.7,0-1.2-0.5-1.2-1.2c0-0.6,0.5-1.2,1.2-1.2c0.7,0,1.2,0.5,1.2,1.2c0,0.3-0.1,0.6-0.3,0.8
						C22.9,28.3,22.6,28.4,22.3,28.4z M22.2,27.1c-0.1,0-0.1,0.1-0.1,0.2c0,0.1,0.2,0.2,0.3,0.1l0-0.1
						C22.4,27.2,22.3,27.1,22.2,27.1z"/>
				</g>
				<g>
					<path fill="#37474F" d="M27.6,27.3c0,0.4-0.3,0.7-0.7,0.7c-0.4,0-0.7-0.3-0.7-0.7c0-0.4,0.3-0.7,0.7-0.6
						C27.3,26.6,27.6,26.9,27.6,27.3z"/>
					<path fill="#37474F" d="M26.9,28.4c-0.6,0-1.2-0.5-1.2-1.2c0-0.6,0.5-1.1,1.1-1.1c0.7,0,1.2,0.5,1.2,1.1
						C28.1,27.9,27.5,28.4,26.9,28.4z M26.9,27.1c-0.1,0-0.2,0.1-0.2,0.1c0,0.2,0.4,0.2,0.4,0C27.1,27.2,27,27.1,26.9,27.1z"/>
				</g>
			</g>
			<g>
				<g>
					<path fill="#37474F" d="M18.3,32.8c0,0.4-0.3,0.7-0.7,0.7c-0.4,0-0.7-0.3-0.7-0.7c0-0.4,0.3-0.7,0.7-0.7
						C18,32.1,18.3,32.4,18.3,32.8z"/>
					<path fill="#37474F" d="M17.6,33.9c-0.3,0-0.6-0.1-0.8-0.3c-0.2-0.2-0.3-0.5-0.3-0.8c0-0.6,0.5-1.1,1.2-1.1c0,0,0,0,0,0
						c0.6,0,1.1,0.5,1.1,1.2C18.8,33.4,18.3,33.9,17.6,33.9L17.6,33.9z M17.6,32.6c-0.1,0-0.2,0.1-0.2,0.2c0,0.1,0,0.1,0,0.1
						c0,0,0,0,0.1,0v0.5l0-0.5c0,0,0.2,0,0.2-0.2C17.8,32.7,17.7,32.6,17.6,32.6z"/>
				</g>
				<g>
					<path fill="#37474F" d="M22.9,32.8c0,0.4-0.3,0.6-0.6,0.6c-0.4,0-0.7-0.3-0.7-0.7c0-0.3,0.3-0.7,0.7-0.7
						C22.6,32.1,22.9,32.4,22.9,32.8z"/>
					<path fill="#37474F" d="M22.3,33.9c-0.7,0-1.2-0.5-1.2-1.2c0-0.6,0.5-1.2,1.2-1.2c0.6,0,1.2,0.5,1.2,1.2c0,0.3-0.1,0.6-0.3,0.8
						C22.9,33.8,22.6,33.9,22.3,33.9z M22.2,32.6c-0.1,0-0.2,0.1-0.2,0.2c0,0.2,0.2,0.2,0.3,0.1l0,0l0-0.1
						C22.4,32.7,22.3,32.6,22.2,32.6z"/>
				</g>
				<g>
					<path fill="#37474F" d="M27.6,32.8c0,0.4-0.3,0.7-0.7,0.7c-0.4,0-0.7-0.3-0.7-0.7c0-0.4,0.3-0.7,0.7-0.7
						C27.3,32.1,27.6,32.4,27.6,32.8z"/>
					<path fill="#37474F" d="M26.9,33.9c-0.7,0-1.2-0.5-1.2-1.2c0-0.6,0.5-1.2,1.2-1.2c0.7,0,1.2,0.5,1.2,1.2
						C28.1,33.4,27.6,33.9,26.9,33.9z M26.9,32.6c-0.1,0-0.2,0.1-0.2,0.2c0,0.2,0.4,0.2,0.4,0C27.1,32.7,27,32.6,26.9,32.6z"/>
				</g>
			</g>
		</g>
		<g>
			<line fill="#FFAB00" x1="9.7" y1="27" x2="12.9" y2="30.1"/>
			<path fill="#37474F" d="M12.9,31.1c-0.3,0-0.5-0.1-0.7-0.3L9,27.7c-0.4-0.4-0.4-1,0-1.4s1-0.4,1.4,0l3.1,3.1c0.4,0.4,0.4,1,0,1.4
				C13.4,31,13.1,31.1,12.9,31.1z"/>
		</g>
	</g>
	<g>
		<g>
			<path fill="#FFFFFF" d="M34.7,18h15.1c2.5,0,4.4,1.6,4.4,4.1v17.1l1.5-1.5c1.3-1.3,3.5-1.3,4.8,0l1.4,1.4c1.3,1.3,1.3,3.5,0,4.8
				l-8.6,8.6c-0.1,0.1-0.2,0.1-0.3,0.2C52.1,53.5,51,54,49.8,54H34.7c-2.5,0-4.5-2-4.5-4.5V22.1C30.2,19.6,32.2,18,34.7,18z"/>
			<path fill="#37474F" d="M49.8,55H34.7c-3,0-5.5-2.5-5.5-5.5V22.1c0-2.9,2.4-5.1,5.5-5.1h15.1c3.1,0,5.4,2.1,5.4,5.1v14.7
				c0.8-0.7,1.8-1.1,2.9-1.1c1.2,0,2.3,0.5,3.1,1.3l1.4,1.4c0.8,0.8,1.3,1.9,1.3,3.1c0,1.2-0.5,2.3-1.3,3.1L54,53.1
				c-0.2,0.2-0.3,0.2-0.4,0.3C52.6,54.4,51.2,55,49.8,55z M34.7,19c-2.1,0-3.5,1.3-3.5,3.1v27.4c0,1.9,1.6,3.5,3.5,3.5h15.1
				c0.9,0,1.8-0.4,2.5-1c0,0,0.1-0.1,0.1-0.1c0.1-0.1,0.2-0.1,0.3-0.2l8.5-8.5c0.4-0.4,0.7-1,0.7-1.7c0-0.6-0.2-1.2-0.7-1.7
				l-1.4-1.4c-0.9-0.9-2.5-0.9-3.4,0l-1.5,1.5c-0.3,0.3-0.7,0.4-1.1,0.2c-0.4-0.2-0.6-0.5-0.6-0.9V22.1c0-1.8-1.4-3.1-3.4-3.1H34.7z
				"/>
		</g>
		<g>
			<path fill="#FFAB00" d="M30.2,56.5c0,1.3,1.1,2.5,2.4,2.5h18.3c1.3,0,2.4-1.2,2.4-2.5l0,0c0-1.3-1.1-2.5-2.4-2.5H32.5
				C31.2,54,30.2,55.2,30.2,56.5L30.2,56.5z"/>
			<path fill="#37474F" d="M50.9,60H32.5c-1.8,0-3.4-1.6-3.4-3.5c0-1.9,1.5-3.5,3.4-3.5h18.3c1.8,0,3.4,1.6,3.4,3.5
				C54.2,58.4,52.7,60,50.9,60z M32.5,55c-0.7,0-1.4,0.7-1.4,1.5c0,0.8,0.6,1.5,1.4,1.5h18.3c0.7,0,1.4-0.7,1.4-1.5
				c0-0.8-0.7-1.5-1.4-1.5H32.5z"/>
		</g>
		<g>
			<g>
				<g>
					<path fill="#37474F" d="M45.7,39.5c0,0.4,0.3,0.7,0.7,0.7c0.4,0,0.7-0.3,0.7-0.7c0-0.4-0.3-0.7-0.7-0.7
						C46,38.8,45.7,39.1,45.7,39.5z"/>
					<path fill="#37474F" d="M46.4,40.6L46.4,40.6L46.4,40.6c-0.7,0-1.2-0.5-1.2-1.2c0-0.6,0.5-1.2,1.1-1.2c0.7,0,1.2,0.5,1.2,1.2
						c0,0.3-0.1,0.6-0.3,0.8C47,40.5,46.7,40.6,46.4,40.6z M46.4,39.3c-0.1,0-0.2,0.1-0.2,0.2c0,0.1,0.1,0.2,0.2,0.2l0,0.5v-0.5
						c0.1,0,0.1,0,0.1,0c0,0,0-0.1,0-0.1C46.5,39.4,46.5,39.3,46.4,39.3L46.4,39.3z"/>
				</g>
				<g>
					<path fill="#37474F" d="M41.1,39.5c0,0.4,0.3,0.7,0.7,0.7c0.4,0,0.7-0.3,0.7-0.7c0-0.4-0.3-0.7-0.7-0.7
						C41.4,38.8,41.1,39.1,41.1,39.5z"/>
					<path fill="#37474F" d="M41.7,40.6c-0.3,0-0.6-0.1-0.8-0.4c-0.2-0.2-0.3-0.5-0.3-0.8c0-0.6,0.5-1.1,1.1-1.2l0,0
						c0.7,0,1.2,0.5,1.2,1.2C42.9,40.1,42.4,40.6,41.7,40.6z M41.7,39.3c-0.1,0-0.2,0.1-0.2,0.2l0,0.1c0.1,0.1,0.3,0,0.3-0.1
						C41.9,39.4,41.8,39.3,41.7,39.3z"/>
				</g>
				<g>
					<path fill="#37474F" d="M36.4,39.5c0,0.4,0.3,0.7,0.7,0.7s0.7-0.3,0.7-0.7c0-0.4-0.3-0.7-0.7-0.7
						C36.7,38.8,36.4,39.1,36.4,39.5z"/>
					<path fill="#37474F" d="M37.1,40.6c-0.6,0-1.2-0.5-1.2-1.2c0-0.6,0.5-1.2,1.2-1.2c0.7,0,1.2,0.5,1.2,1.2
						C38.2,40.1,37.7,40.6,37.1,40.6z M37.1,39.3c-0.1,0-0.2,0.1-0.2,0.2c0,0.2,0.4,0.2,0.4,0C37.2,39.4,37.2,39.3,37.1,39.3z"/>
				</g>
			</g>
			<g>
				<g>
					<path fill="#37474F" d="M45.7,44.9c0,0.4,0.3,0.6,0.7,0.7c0.4,0,0.7-0.3,0.7-0.7c0-0.4-0.3-0.7-0.7-0.7
						C46,44.3,45.7,44.6,45.7,44.9z"/>
					<path fill="#37474F" d="M46.4,46.1L46.4,46.1L46.4,46.1c-0.7,0-1.2-0.5-1.2-1.2c0-0.6,0.5-1.2,1.1-1.2c0.7,0,1.2,0.5,1.2,1.2
						c0,0.3-0.1,0.6-0.3,0.8C47,46,46.7,46.1,46.4,46.1z M46.4,44.8c-0.1,0-0.2,0.1-0.2,0.2c0,0.1,0.1,0.2,0.2,0.2l0,0.5v-0.5l0,0
						c0.1,0,0.1,0,0.1,0c0,0,0-0.1,0-0.1C46.5,44.8,46.4,44.8,46.4,44.8L46.4,44.8z"/>
				</g>
				<g>
					<path fill="#37474F" d="M41.1,44.9c0,0.4,0.3,0.7,0.7,0.7c0.4,0,0.7-0.3,0.7-0.7c0-0.4-0.3-0.7-0.7-0.7
						C41.4,44.3,41.1,44.6,41.1,44.9z"/>
					<path fill="#37474F" d="M41.7,46.1c-0.3,0-0.6-0.1-0.8-0.4c-0.2-0.2-0.3-0.5-0.3-0.8c0-0.6,0.5-1.1,1.1-1.2c0,0,0,0,0,0
						c0.7,0,1.2,0.5,1.2,1.2C42.9,45.6,42.4,46.1,41.7,46.1z M41.7,44.8c-0.1,0-0.2,0.1-0.2,0.2l0,0.1c0.1,0.1,0.3,0,0.3-0.1
						C41.9,44.9,41.8,44.8,41.7,44.8z"/>
				</g>
				<g>
					<path fill="#37474F" d="M36.4,44.9c0,0.4,0.3,0.7,0.7,0.7s0.7-0.3,0.7-0.7s-0.3-0.7-0.7-0.7C36.7,44.3,36.4,44.6,36.4,44.9z"/>
					<path fill="#37474F" d="M37.1,46.1c-0.6,0-1.2-0.5-1.2-1.2c0-0.6,0.5-1.2,1.2-1.2c0.7,0,1.2,0.5,1.2,1.2
						C38.2,45.6,37.7,46.1,37.1,46.1z M37.1,44.8c-0.1,0-0.2,0.1-0.2,0.2c0,0.2,0.4,0.2,0.4,0C37.2,44.8,37.2,44.8,37.1,44.8z"/>
				</g>
			</g>
		</g>
		<g>
			<line fill="#FFAB00" x1="54.2" y1="39.2" x2="51.1" y2="42.3"/>
			<path fill="#37474F" d="M51.1,43.3c-0.3,0-0.5-0.1-0.7-0.3c-0.4-0.4-0.4-1,0-1.4l3.1-3.1c0.4-0.4,1-0.4,1.4,0
				c0.4,0.4,0.4,1,0,1.4L51.8,43C51.6,43.2,51.4,43.3,51.1,43.3z"/>
		</g>
	</g>
</g>
</svg>
