<?xml version="1.0" encoding="utf-8"?>
<!-- Generator: Adobe Illustrator 16.0.0, SVG Export Plug-In . SVG Version: 6.00 Build 0)  -->
<!DOCTYPE svg PUBLIC "-//W3C//DTD SVG 1.1//EN" "http://www.w3.org/Graphics/SVG/1.1/DTD/svg11.dtd">
<svg version="1.1" id="Layer_1" xmlns="http://www.w3.org/2000/svg" xmlns:xlink="http://www.w3.org/1999/xlink" x="0px" y="0px"
	 width="128px" height="128px" viewBox="0 0 128 128" enable-background="new 0 0 128 128" xml:space="preserve">
<g>
	<g>
		<polygon fill="#B0BEC5" points="94.6,21 17.7,122 40.5,122 117.4,21 		"/>
		<path fill="#37474F" d="M40.5,124H17.7c-0.8,0-1.5-0.4-1.8-1.1c-0.3-0.7-0.3-1.5,0.2-2.1L93,19.8c0.4-0.5,1-0.8,1.6-0.8h22.8
			c0.8,0,1.5,0.4,1.8,1.1c0.3,0.7,0.3,1.5-0.2,2.1l-76.9,101C41.7,123.7,41.1,124,40.5,124z M21.7,120h17.8l73.9-97H95.6L21.7,120z"
			/>
	</g>
	<g>
		<g>
			<polyline fill="#78909C" points="3,35.4 37,6.4 71.1,35.4 			"/>
			<path fill="#37474F" d="M71.1,37.4c-0.5,0-0.9-0.2-1.3-0.5L37,9L4.3,36.9c-0.8,0.7-2.1,0.6-2.8-0.2c-0.7-0.8-0.6-2.1,0.2-2.8
				l34-29c0.7-0.6,1.8-0.6,2.6,0l34,29c0.8,0.7,0.9,2,0.2,2.8C72.2,37.2,71.6,37.4,71.1,37.4z"/>
		</g>
		<g>
			<polyline fill="#FFECB3" points="37,72 12,72 12,36 			"/>
			<path fill="#37474F" d="M37,74H12c-1.1,0-2-0.9-2-2V36c0-1.1,0.9-2,2-2s2,0.9,2,2v34h23c1.1,0,2,0.9,2,2S38.1,74,37,74z"/>
		</g>
		<g>
			<line fill="#FFECB3" x1="62" y1="36" x2="62" y2="46"/>
			<path fill="#37474F" d="M62,48c-1.1,0-2-0.9-2-2V36c0-1.1,0.9-2,2-2s2,0.9,2,2v10C64,47.1,63.1,48,62,48z"/>
		</g>
		<g>
			<rect x="21" y="47" fill="#FFECB3" width="15" height="25"/>
			<path fill="#37474F" d="M36,74H21c-1.1,0-2-0.9-2-2V47c0-1.1,0.9-2,2-2h15c1.1,0,2,0.9,2,2v25C38,73.1,37.1,74,36,74z M23,70h11
				V49H23V70z"/>
		</g>
		<g>
			<line fill="#FFECB3" x1="49" y1="47" x2="49" y2="59"/>
			<path fill="#37474F" d="M49,61c-1.1,0-2-0.9-2-2V47c0-1.1,0.9-2,2-2s2,0.9,2,2v12C51,60.1,50.1,61,49,61z"/>
		</g>
		<g>
			<line fill="#FFECB3" x1="55" y1="53" x2="43" y2="53"/>
			<path fill="#37474F" d="M55,55H43c-1.1,0-2-0.9-2-2s0.9-2,2-2h12c1.1,0,2,0.9,2,2S56.1,55,55,55z"/>
		</g>
		<g>
			<polyline fill="#FFECB3" points="12,26 12,10 20,10 			"/>
			<path fill="#37474F" d="M12,28c-1.1,0-2-0.9-2-2V10c0-1.1,0.9-2,2-2h8c1.1,0,2,0.9,2,2s-0.9,2-2,2h-6v14C14,27.1,13.1,28,12,28z"
				/>
		</g>
	</g>
	<g>
		<path fill="#FFAB00" d="M125,108.3c0,7.3-5.9,13.7-13.3,13.7h-8c-7.3,0-13.8-6.3-13.8-13.7V77.8c0-7.3,6.4-12.8,13.8-12.8h8
			c7.3,0,13.3,5.5,13.3,12.8V108.3z"/>
		<path fill="#37474F" d="M111.7,124h-8c-8.4,0-15.8-7.3-15.8-15.7V77.8c0-8.2,7.1-14.8,15.8-14.8h8c8.6,0,15.3,6.5,15.3,14.8v30.5
			C127,116.8,120,124,111.7,124z M103.8,67C97.3,67,92,71.8,92,77.8v30.5c0,6.2,5.5,11.7,11.8,11.7h8c6.1,0,11.3-5.3,11.3-11.7V77.8
			c0-6-5-10.8-11.3-10.8H103.8z"/>
	</g>
	<g>
		<path fill="#FFFFFF" d="M115,102.7c0,4.6-2.3,8.3-5.5,8.3H106c-3.2,0-6-3.7-6-8.3V83.4c0-4.6,2.8-8.4,6-8.4h3.5
			c3.2,0,5.5,3.8,5.5,8.4V102.7z"/>
		<path fill="#37474F" d="M109.5,113H106c-4.4,0-8-4.6-8-10.3V83.4c0-5.7,3.6-10.4,8-10.4h3.5c4.3,0,7.5,4.5,7.5,10.4v19.3
			C117,108.6,113.8,113,109.5,113z M106,77c-1.9,0-4,2.7-4,6.4v19.3c0,3.7,2.1,6.3,4,6.3h3.5c1.9,0,3.5-2.8,3.5-6.3V83.4
			c0-3.5-1.6-6.4-3.5-6.4H106z"/>
	</g>
</g>
</svg>
