<?xml version="1.0" encoding="utf-8"?>
<!-- Generator: Adobe Illustrator 16.0.0, SVG Export Plug-In . SVG Version: 6.00 Build 0)  -->
<!DOCTYPE svg PUBLIC "-//W3C//DTD SVG 1.1//EN" "http://www.w3.org/Graphics/SVG/1.1/DTD/svg11.dtd">
<svg version="1.1" id="Layer_1" xmlns="http://www.w3.org/2000/svg" xmlns:xlink="http://www.w3.org/1999/xlink" x="0px" y="0px"
	 width="128px" height="128px" viewBox="0 0 128 128" enable-background="new 0 0 128 128" xml:space="preserve">
<g>
	<g>
		<g>
			<rect x="28" y="107.7" fill="#B0BEC5" width="9.9" height="8.9"/>
			<path fill="#37474F" d="M37.9,118.1H28c-0.8,0-1.5-0.7-1.5-1.5v-8.9c0-0.8,0.7-1.5,1.5-1.5h9.9c0.8,0,1.5,0.7,1.5,1.5v8.9
				C39.4,117.4,38.7,118.1,37.9,118.1z M29.5,115.1h6.9v-5.9h-6.9V115.1z"/>
		</g>
		<g>
			<rect x="90.1" y="107.7" fill="#B0BEC5" width="9.9" height="8.9"/>
			<path fill="#37474F" d="M100,118.1h-9.9c-0.8,0-1.5-0.7-1.5-1.5v-8.9c0-0.8,0.7-1.5,1.5-1.5h9.9c0.8,0,1.5,0.7,1.5,1.5v8.9
				C101.5,117.4,100.8,118.1,100,118.1z M91.6,115.1h6.9v-5.9h-6.9V115.1z"/>
		</g>
	</g>
	<g>
		<path fill="#FFFFFF" d="M107.9,85.7c0,17.6-14.4,31.9-32,31.9H52.1c-17.6,0-31.9-14.2-31.9-31.9V49.9C20.1,32.3,34.5,18,52.1,18
			h23.9c17.6,0,32,14.4,32,31.9V85.7z"/>
		<path fill="#37474F" d="M75.9,119.1H52.1c-18.4,0-33.4-15-33.4-33.4V49.9c0-18.4,15-33.4,33.4-33.4h23.9c18.5,0,33.5,15,33.5,33.4
			v35.8C109.4,104.1,94.4,119.1,75.9,119.1z M52.1,19.5c-16.8,0-30.4,13.7-30.4,30.4v35.8c0,16.7,13.6,30.4,30.4,30.4h23.9
			c16.8,0,30.5-13.6,30.5-30.4V49.9c0-16.8-13.7-30.4-30.5-30.4H52.1z"/>
	</g>
	<g>
		<g>
			<polyline fill="#FFAB00" points="4.9,55.4 18.2,55.4 18.2,71.2 19.6,71.2 			"/>
			<path fill="#37474F" d="M19.6,72.7h-1.5c-0.8,0-1.5-0.7-1.5-1.5V56.9H4.9c-0.8,0-1.5-0.7-1.5-1.5s0.7-1.5,1.5-1.5h13.3
				c0.8,0,1.5,0.7,1.5,1.5v14.3c0.8,0,1.5,0.7,1.5,1.5C21.1,72,20.5,72.7,19.6,72.7z"/>
		</g>
		<g>
			<polyline fill="#FFAB00" points="123.2,55.4 108.9,55.4 108.9,71.2 108.4,71.2 			"/>
			<path fill="#37474F" d="M108.9,72.7h-0.5c-0.8,0-1.5-0.7-1.5-1.5c0-0.4,0.2-0.8,0.5-1.1V55.4c0-0.8,0.7-1.5,1.5-1.5h14.3
				c0.8,0,1.5,0.7,1.5,1.5s-0.7,1.5-1.5,1.5h-12.8v14.3C110.4,72,109.7,72.7,108.9,72.7z"/>
		</g>
	</g>
	<g>
		<path fill="#FFAB00" d="M79.9,114.8c0,2-1.2,3.8-2.6,3.8H50.7c-1.4,0-2.6-1.7-2.6-3.8l5.2-36.8c0-2.1,1.2-3.8,2.6-3.8h16.1
			c1.5,0,2.6,1.7,2.6,3.8L79.9,114.8z"/>
		<path fill="#37474F" d="M77.3,120.1H50.7c-2.3,0-4.1-2.3-4.1-5.3c0-0.1,0-0.1,0-0.2l5.2-36.7c0-2.9,1.8-5.1,4.1-5.1h16.1
			c2.3,0,4.1,2.2,4.1,5.1l5.2,36.7c0,0.1,0,0.1,0,0.2C81.4,117.7,79.6,120.1,77.3,120.1z M49.6,114.9c0,1.3,0.7,2.2,1.1,2.2h26.6
			c0.4,0,1.1-0.8,1.1-2.2l-5.2-36.7c0-0.1,0-0.1,0-0.2c0-1.4-0.7-2.3-1.1-2.3H55.9c-0.4,0-1.1,0.9-1.1,2.3c0,0.1,0,0.1,0,0.2
			L49.6,114.9z"/>
	</g>
	<g>
		<rect x="59.6" y="83.1" fill="#78909C" width="8.9" height="15.8"/>
		<path fill="#37474F" d="M70,100.3H58.1V81.6H70V100.3z M61.1,97.3H67V84.6h-5.9V97.3z"/>
	</g>
	<g>
		<g>
			<g>
				<path fill="#37474F" d="M43.3,84.3c0-0.7,0.6-1.2,1.2-1.2c0.7,0,1.3,0.5,1.2,1.2c0,0.7-0.5,1.2-1.2,1.2
					C43.8,85.6,43.3,85,43.3,84.3z"/>
				<path fill="#37474F" d="M44.5,86.1c-0.9,0-1.7-0.8-1.7-1.7c0-1,0.8-1.7,1.7-1.7c0.5,0,0.9,0.2,1.3,0.5c0.3,0.3,0.5,0.8,0.5,1.2
					C46.2,85.3,45.5,86.1,44.5,86.1z M44.5,83.6c-0.4,0-0.7,0.3-0.7,0.7c0,0.4,0.4,0.7,0.7,0.7c0.4,0,0.8-0.3,0.8-0.7
					c0-0.3-0.1-0.4-0.2-0.5C44.9,83.7,44.7,83.6,44.5,83.6z"/>
			</g>
			<g>
				<path fill="#37474F" d="M34.7,84.3c0-0.7,0.6-1.2,1.2-1.2c0.7,0,1.2,0.5,1.3,1.2c0,0.7-0.6,1.2-1.3,1.2
					C35.2,85.6,34.7,85,34.7,84.3z"/>
				<path fill="#37474F" d="M35.9,86.1c-0.9,0-1.7-0.8-1.7-1.7c0-0.5,0.2-0.9,0.5-1.2c0.3-0.3,0.8-0.5,1.2-0.5c1,0,1.7,0.7,1.8,1.7
					C37.6,85.3,36.8,86.1,35.9,86.1z M35.9,83.6c-0.2,0-0.4,0.1-0.5,0.2c-0.1,0.1-0.2,0.3-0.2,0.5c0,0.4,0.3,0.7,0.7,0.7
					c0.4,0,0.7-0.3,0.8-0.8C36.6,83.9,36.3,83.6,35.9,83.6z"/>
			</g>
			<g>
				<path fill="#37474F" d="M26,84.3c0-0.7,0.6-1.2,1.2-1.2c0.7,0,1.2,0.5,1.2,1.2c0,0.7-0.5,1.2-1.2,1.2C26.6,85.6,26,85,26,84.3z"
					/>
				<path fill="#37474F" d="M27.2,86.1c-0.9,0-1.7-0.8-1.7-1.7c0-0.9,0.8-1.7,1.7-1.7c1,0,1.7,0.8,1.7,1.7
					C29,85.3,28.2,86.1,27.2,86.1z M27.2,83.6c-0.4,0-0.7,0.3-0.7,0.7c0,0.4,0.3,0.7,0.7,0.7c0.4,0,0.7-0.3,0.7-0.7
					C28,83.9,27.7,83.6,27.2,83.6z"/>
			</g>
		</g>
		<g>
			<g>
				<path fill="#37474F" d="M99.5,84.3c0-0.7,0.6-1.2,1.2-1.2c0.7,0,1.3,0.5,1.2,1.2c0,0.7-0.5,1.2-1.2,1.2
					C100.1,85.6,99.5,85,99.5,84.3z"/>
				<path fill="#37474F" d="M100.8,86.1c-0.9,0-1.7-0.8-1.7-1.7c0-1,0.8-1.7,1.7-1.7c0.5,0,0.9,0.2,1.3,0.5c0.3,0.3,0.5,0.8,0.5,1.2
					C102.5,85.3,101.7,86.1,100.8,86.1z M100.8,83.6c-0.4,0-0.7,0.3-0.7,0.7c0,0.4,0.3,0.7,0.7,0.7c0.4,0,0.7-0.3,0.7-0.7
					c0-0.3-0.1-0.4-0.2-0.5C101.2,83.7,101,83.6,100.8,83.6z"/>
			</g>
			<g>
				<path fill="#37474F" d="M90.9,84.3c0-0.7,0.5-1.2,1.2-1.2c0.7,0,1.2,0.5,1.3,1.2c0,0.7-0.6,1.2-1.3,1.2
					C91.5,85.6,90.9,85,90.9,84.3z"/>
				<path fill="#37474F" d="M92.1,86.1c-0.9,0-1.7-0.8-1.7-1.7c0-0.4,0.1-0.9,0.5-1.2c0.3-0.3,0.8-0.5,1.2-0.5c1,0,1.7,0.8,1.8,1.7
					C93.9,85.3,93.1,86.1,92.1,86.1z M92.1,83.6c-0.2,0-0.4,0.1-0.5,0.2c-0.1,0.1-0.2,0.3-0.2,0.5c0,0.4,0.3,0.8,0.7,0.8
					c0.4,0,0.7-0.3,0.8-0.7C92.9,83.9,92.5,83.6,92.1,83.6z"/>
			</g>
			<g>
				<path fill="#37474F" d="M82.3,84.3c0-0.7,0.6-1.2,1.2-1.2c0.7,0,1.2,0.5,1.2,1.2c0,0.7-0.5,1.2-1.2,1.2
					C82.8,85.6,82.3,85,82.3,84.3z"/>
				<path fill="#37474F" d="M83.5,86.1c-1,0-1.7-0.8-1.7-1.7c0-1,0.8-1.7,1.7-1.7c1,0,1.7,0.8,1.7,1.7
					C85.2,85.3,84.5,86.1,83.5,86.1z M83.5,83.6c-0.4,0-0.7,0.3-0.7,0.7c0,0.4,0.3,0.7,0.7,0.7c0.4,0,0.7-0.3,0.7-0.7
					C84.2,83.9,83.9,83.6,83.5,83.6z"/>
			</g>
		</g>
	</g>
	<g>
		<line fill="#B0BEC5" x1="20.6" y1="49.5" x2="107.4" y2="49.5"/>
		<path fill="#37474F" d="M107.4,51H20.6c-0.8,0-1.5-0.7-1.5-1.5s0.7-1.5,1.5-1.5h86.8c0.8,0,1.5,0.7,1.5,1.5S108.2,51,107.4,51z"/>
	</g>
	<g>
		<path fill="#37474F" d="M105.7,38.7C101.2,26.8,89.6,18,75.9,18H52.1c-13.7,0-25.2,8.9-29.7,20.7H105.7z"/>
		<path fill="#37474F" d="M105.7,40.2H22.3c-0.5,0-1-0.2-1.2-0.6s-0.3-0.9-0.2-1.4c4.9-13,17.5-21.7,31.1-21.7h23.9
			c13.7,0,26.2,8.7,31.1,21.7c0.2,0.5,0.1,1-0.2,1.4C106.6,39.9,106.2,40.2,105.7,40.2z M24.6,37.2h78.8
			c-5-10.7-15.8-17.7-27.5-17.7H52.1C40.3,19.5,29.6,26.5,24.6,37.2z"/>
	</g>
	<g>
		<path fill="#78909C" d="M98.3,27.8C92.5,21.9,84.7,18,75.9,18H52.1c-8.8,0-16.6,3.9-22.3,9.9H98.3z"/>
		<path fill="#37474F" d="M101.8,29.3H26.2l2.5-2.5c6.4-6.7,14.7-10.3,23.4-10.3h23.9c8.7,0,17,3.7,23.4,10.3L101.8,29.3z
			 M33.6,26.3h60.9c-5.4-4.4-11.9-6.9-18.5-6.9H52.1C45.4,19.5,38.9,21.9,33.6,26.3z"/>
	</g>
	<g>
		<g>
			<line fill="#FFAB00" x1="59.1" y1="54.5" x2="68.9" y2="54.5"/>
			<path fill="#37474F" d="M68.9,56h-9.9c-0.8,0-1.5-0.7-1.5-1.5s0.7-1.5,1.5-1.5h9.9c0.8,0,1.5,0.7,1.5,1.5S69.8,56,68.9,56z"/>
		</g>
		<g>
			<line fill="#FFAB00" x1="59.1" y1="61.4" x2="68.9" y2="61.4"/>
			<path fill="#37474F" d="M68.9,62.9h-9.9c-0.8,0-1.5-0.7-1.5-1.5s0.7-1.5,1.5-1.5h9.9c0.8,0,1.5,0.7,1.5,1.5S69.8,62.9,68.9,62.9z
				"/>
		</g>
		<g>
			<line fill="#FFAB00" x1="59.1" y1="68.3" x2="68.9" y2="68.3"/>
			<path fill="#37474F" d="M68.9,69.8h-9.9c-0.8,0-1.5-0.7-1.5-1.5s0.7-1.5,1.5-1.5h9.9c0.8,0,1.5,0.7,1.5,1.5S69.8,69.8,68.9,69.8z
				"/>
		</g>
	</g>
	<g>
		<g>
			<path fill="#FFECB3" d="M11.8,55.3c0,2.6-2.1,4.8-4.7,4.8c-2.6,0-4.7-2.1-4.7-4.8c0-2.6,2.1-4.7,4.7-4.7
				C9.7,50.6,11.8,52.7,11.8,55.3z"/>
			<path fill="#37474F" d="M7,61.6c-3.4,0-6.2-2.8-6.2-6.3c0-3.4,2.8-6.2,6.2-6.2c3.4,0,6.2,2.8,6.2,6.2C13.3,58.8,10.5,61.6,7,61.6
				z M7,52.1c-1.8,0-3.2,1.5-3.2,3.2c0,1.8,1.5,3.3,3.2,3.3c1.8,0,3.2-1.5,3.2-3.3C10.3,53.5,8.8,52.1,7,52.1z"/>
		</g>
		<g>
			<path fill="#FFECB3" d="M125.7,55.3c0,2.6-2.1,4.8-4.7,4.8c-2.6,0-4.7-2.1-4.7-4.8c0-2.6,2.1-4.7,4.7-4.7
				C123.6,50.6,125.7,52.7,125.7,55.3z"/>
			<path fill="#37474F" d="M120.9,61.6c-3.4,0-6.2-2.8-6.2-6.3c0-3.4,2.8-6.2,6.2-6.2c3.4,0,6.2,2.8,6.2,6.2
				C127.2,58.8,124.4,61.6,120.9,61.6z M120.9,52.1c-1.8,0-3.2,1.5-3.2,3.2c0,1.8,1.5,3.3,3.2,3.3c1.8,0,3.2-1.5,3.2-3.3
				C124.2,53.5,122.7,52.1,120.9,52.1z"/>
		</g>
	</g>
	<g>
		<path fill="#FFECB3" d="M68.7,14.2c0,2.6-2.1,4.8-4.7,4.8c-2.6,0-4.7-2.1-4.7-4.8c0-2.6,2.1-4.7,4.7-4.7
			C66.6,9.4,68.7,11.6,68.7,14.2z"/>
		<path fill="#37474F" d="M64,20.4c-3.4,0-6.2-2.8-6.2-6.3c0-3.4,2.8-6.2,6.2-6.2c3.4,0,6.2,2.8,6.2,6.2
			C70.2,17.6,67.4,20.4,64,20.4z M64,10.9c-1.8,0-3.2,1.5-3.2,3.2c0,1.8,1.5,3.3,3.2,3.3c1.8,0,3.2-1.5,3.2-3.3
			C67.2,12.4,65.8,10.9,64,10.9z"/>
	</g>
</g>
</svg>
