<?xml version="1.0" encoding="utf-8"?>
<!-- Generator: Adobe Illustrator 16.0.0, SVG Export Plug-In . SVG Version: 6.00 Build 0)  -->
<!DOCTYPE svg PUBLIC "-//W3C//DTD SVG 1.1//EN" "http://www.w3.org/Graphics/SVG/1.1/DTD/svg11.dtd">
<svg version="1.1" id="Layer_1" xmlns="http://www.w3.org/2000/svg" xmlns:xlink="http://www.w3.org/1999/xlink" x="0px" y="0px"
	 width="64px" height="64px" viewBox="0 0 64 64" enable-background="new 0 0 64 64" xml:space="preserve">
<g>
	<g>
		<g>
			<g>
				<path fill="#FFECB3" d="M61.3,53.2c1.5,1.5,2,3.6,1.1,4.5l-3.2,3.2c-0.9,0.9-3,0.5-4.5-1.1L24.4,27.9c-1.5-1.5-2-3.6-1.1-4.5
					l1.5-1.5c0.9-0.9,3-0.5,4.5,1.1L61.3,53.2z"/>
				<path fill="#37474F" d="M57.9,62.4c-1.3,0-2.7-0.7-3.9-1.9L23.7,28.6c-1.9-1.9-2.4-4.5-1.1-5.9l1.5-1.5c0.5-0.5,1.2-0.8,2-0.8
					c1.3,0,2.7,0.7,3.9,1.9L62,52.5c0.9,0.9,1.5,1.9,1.8,3c0.3,1.2,0,2.3-0.7,3l-3.2,3.2C59.4,62.1,58.7,62.4,57.9,62.4z M26.2,22.4
					c-0.2,0-0.4,0-0.6,0.2L24,24.1c-0.4,0.4-0.2,1.8,1.1,3.1l30.3,31.9c0.8,0.8,1.7,1.2,2.5,1.2c0.2,0,0.4,0,0.6-0.2l3.2-3.2
					c0.2-0.2,0.2-0.6,0.1-1.1c-0.2-0.7-0.6-1.4-1.2-2L28.7,23.7C27.9,22.9,26.9,22.4,26.2,22.4z"/>
			</g>
			<g>
				<polygon fill="#FFAB00" points="31,7.2 10,28.2 4.2,22.5 21.1,5.6 				"/>
				<path fill="#37474F" d="M10,29.2c-0.3,0-0.5-0.1-0.7-0.3l-5.7-5.7c-0.4-0.4-0.4-1,0-1.4L20.4,4.9c0.2-0.2,0.6-0.3,0.9-0.3
					l9.9,1.6c0.4,0.1,0.7,0.3,0.8,0.7c0.1,0.4,0,0.7-0.2,1L10.7,28.9C10.5,29.1,10.2,29.2,10,29.2z M5.6,22.5l4.3,4.3l19-19
					l-7.5-1.2L5.6,22.5z"/>
			</g>
			<g>
				<line fill="#FFAB00" x1="19.9" y1="22.5" x2="23.9" y2="18.5"/>
				<path fill="#37474F" d="M19.9,23.5c-0.3,0-0.5-0.1-0.7-0.3c-0.4-0.4-0.4-1,0-1.4l4-4c0.4-0.4,1-0.4,1.4,0s0.4,1,0,1.4l-4,4
					C20.5,23.4,20.2,23.5,19.9,23.5z"/>
			</g>
		</g>
		<g>
			<line fill="#FFAB00" x1="48" y1="62" x2="61" y2="62"/>
			<path fill="#37474F" d="M61,63H48c-0.6,0-1-0.4-1-1s0.4-1,1-1h13c0.6,0,1,0.4,1,1S61.6,63,61,63z"/>
		</g>
		<g>
			<g>
				<path fill="#FFAB00" d="M17.3,49.2c0,0.8-3.5,1.4-7.7,1.4S1.8,50,1.8,49.2"/>
				<path fill="#37474F" d="M9.6,51.6c-5.8,0-8.7-0.8-8.7-2.4c0-0.6,0.4-1,1-1c0.4,0,0.7,0.2,0.9,0.6c0.6,0.3,3,0.8,6.8,0.8
					s6.2-0.5,6.8-0.8c0.2-0.3,0.5-0.6,0.9-0.6c0.6,0,1,0.4,1,1C18.3,50.8,15.3,51.6,9.6,51.6z"/>
			</g>
			<g>
				<line fill="#FFAB00" x1="7" y1="55" x2="12" y2="55"/>
				<path fill="#37474F" d="M12,56H7c-0.6,0-1-0.4-1-1s0.4-1,1-1h5c0.6,0,1,0.4,1,1S12.6,56,12,56z"/>
			</g>
			<g>
				<line fill="#FFAB00" x1="7" y1="58" x2="12" y2="58"/>
				<path fill="#37474F" d="M12,59H7c-0.6,0-1-0.4-1-1s0.4-1,1-1h5c0.6,0,1,0.4,1,1S12.6,59,12,59z"/>
			</g>
			<g>
				<line fill="#FFAB00" x1="7" y1="61" x2="12" y2="61"/>
				<path fill="#37474F" d="M12,62H7c-0.6,0-1-0.4-1-1s0.4-1,1-1h5c0.6,0,1,0.4,1,1S12.6,62,12,62z"/>
			</g>
		</g>
	</g>
	<g>
		<line fill="#FFAB00" x1="16" y1="28" x2="16" y2="41"/>
		<path fill="#37474F" d="M16,42c-0.6,0-1-0.4-1-1V28c0-0.6,0.4-1,1-1s1,0.4,1,1v13C17,41.6,16.6,42,16,42z"/>
	</g>
	<g>
		<line fill="#FFAB00" x1="4" y1="4" x2="4" y2="16"/>
		<path fill="#37474F" d="M4,17c-0.6,0-1-0.4-1-1V4c0-0.6,0.4-1,1-1s1,0.4,1,1v12C5,16.6,4.6,17,4,17z"/>
	</g>
	<g>
		<line fill="#FFAB00" x1="8" y1="6" x2="8" y2="13"/>
		<path fill="#37474F" d="M8,14c-0.6,0-1-0.4-1-1V6c0-0.6,0.4-1,1-1s1,0.4,1,1v7C9,13.6,8.6,14,8,14z"/>
	</g>
</g>
</svg>
