<?xml version="1.0" encoding="utf-8"?>
<!-- Generator: Adobe Illustrator 16.0.0, SVG Export Plug-In . SVG Version: 6.00 Build 0)  -->
<!DOCTYPE svg PUBLIC "-//W3C//DTD SVG 1.1//EN" "http://www.w3.org/Graphics/SVG/1.1/DTD/svg11.dtd">
<svg version="1.1" id="Layer_1" xmlns="http://www.w3.org/2000/svg" xmlns:xlink="http://www.w3.org/1999/xlink" x="0px" y="0px"
	 width="64px" height="64px" viewBox="0 0 64 64" enable-background="new 0 0 64 64" xml:space="preserve">
<g>
	<g>
		<g>
			<g>
				<path fill="#FFECB3" d="M41.4,16.6c0,8.3-4.2,15-9.4,15c0.2,0,5.7-6-6.9-15c-6.7-4.8,1.7-15,6.9-15C37.2,1.6,41.4,8.3,41.4,16.6
					z"/>
				<path fill="#37474F" d="M32,32.7c-0.6,0-1-0.4-1-1c0-0.3,0.2-0.6,0.4-0.8c0.2-0.2,1.1-1.3,0.9-3.3c-0.1-2.2-1.6-5.7-7.8-10.1
					c-2.7-1.9-3.6-4.8-2.5-8.1c1.4-4.5,6.3-8.7,9.9-8.7c5.7,0,10.4,7.2,10.4,16S37.7,32.7,32,32.7z M32,2.6c-2.5,0-6.8,3.4-8,7.3
					c-0.6,1.7-0.7,4.1,1.8,5.9c9.1,6.5,9.1,11.8,8.3,14.3c0,0,0,0.1,0,0.1c3.7-1.5,6.4-7,6.4-13.6C40.4,8.9,36.6,2.6,32,2.6z"/>
			</g>
			<g>
				<path fill="#FFECB3" d="M31.4,6.6c3.3,0,6,4.3,6,9.6"/>
				<path fill="#37474F" d="M37.3,17.2c-0.6,0-1-0.4-1-1c0-4.7-2.3-8.6-5-8.6c-0.6,0-1-0.4-1-1s0.4-1,1-1c3.9,0,7,4.7,7,10.6
					C38.3,16.7,37.9,17.2,37.3,17.2z"/>
			</g>
		</g>
		<g>
			<g>
				<path fill="#FFECB3" d="M22.6,47.4c0-8.3,4.2-15,9.4-15c-0.2,0-5.7,6,6.9,15c6.7,4.8-1.7,15-6.9,15S22.6,55.7,22.6,47.4z"/>
				<path fill="#37474F" d="M32,63.4c-5.7,0-10.4-7.2-10.4-16s4.6-16,10.4-16c0.6,0,1,0.4,1,1c0,0.3-0.2,0.6-0.4,0.8
					c-0.2,0.2-1.1,1.3-0.9,3.3c0.1,2.2,1.6,5.7,7.8,10.1c2.7,1.9,3.6,4.8,2.5,8.1C40.5,59.2,35.7,63.4,32,63.4z M30,33.7
					c-3.7,1.5-6.4,7-6.4,13.6c0,7.7,3.8,14,8.4,14c2.5,0,6.8-3.4,8-7.3c0.6-1.7,0.7-4.1-1.8-5.9c-9.1-6.5-9.1-11.8-8.3-14.3
					C30,33.9,30,33.8,30,33.7z"/>
			</g>
			<g>
				<path fill="#FFECB3" d="M32.6,57.4c-3.3,0-6-4.3-6-9.6"/>
				<path fill="#37474F" d="M32.6,58.4c-3.9,0-7-4.7-7-10.6c0-0.6,0.4-1,1-1s1,0.4,1,1c0,4.7,2.3,8.6,5,8.6c0.6,0,1,0.4,1,1
					S33.2,58.4,32.6,58.4z"/>
			</g>
		</g>
	</g>
	<g>
		<g>
			<g>
				<path fill="#FFECB3" d="M47.4,41.4c-8.3,0-15-4.2-15-9.4c0,0.2,6,5.7,15-6.9c4.8-6.7,15,1.7,15,6.9
					C62.4,37.2,55.7,41.4,47.4,41.4z"/>
				<path fill="#37474F" d="M47.4,42.4c-8.8,0-16-4.6-16-10.4c0-0.6,0.4-1,1-1c0.3,0,0.6,0.2,0.8,0.4c0.3,0.2,1.3,0.9,2.9,0.9
					c2.2,0,5.9-1.4,10.5-7.8c1.4-1.9,3.3-2.9,5.5-2.9c5.5,0,11.4,6.1,11.4,10.4C63.4,37.7,56.2,42.4,47.4,42.4z M33.7,34
					c1.5,3.7,7,6.4,13.6,6.4c7.7,0,14-3.8,14-8.4c0-3.2-5.1-8.4-9.4-8.4c-1.6,0-2.9,0.7-3.9,2.1c-5.1,7.1-9.4,8.6-12.1,8.6
					C35.2,34.4,34.4,34.2,33.7,34z"/>
			</g>
			<g>
				<path fill="#FFECB3" d="M57.4,31.4c0,3.3-4.3,6-9.6,6"/>
				<path fill="#37474F" d="M47.8,38.3c-0.6,0-1-0.4-1-1s0.4-1,1-1c4.7,0,8.6-2.3,8.6-5c0-0.6,0.4-1,1-1s1,0.4,1,1
					C58.4,35.3,53.8,38.3,47.8,38.3z"/>
			</g>
		</g>
		<g>
			<g>
				<path fill="#FFECB3" d="M16.6,22.6c8.3,0,15,4.2,15,9.4c0-0.2-6-5.7-15,6.9c-4.8,6.7-15-1.7-15-6.9S8.3,22.6,16.6,22.6z"/>
				<path fill="#37474F" d="M11.9,42.4C6.5,42.4,0.6,36.3,0.6,32c0-5.7,7.2-10.4,16-10.4s16,4.6,16,10.4c0,0.6-0.4,1-1,1
					c-0.3,0-0.6-0.2-0.8-0.4c-0.3-0.2-1.3-0.9-2.9-0.9c-2.2,0-5.9,1.4-10.5,7.8C16.1,41.3,14.2,42.4,11.9,42.4z M16.6,23.6
					c-7.7,0-14,3.8-14,8.4c0,3.2,5.1,8.4,9.4,8.4c1.6,0,2.9-0.7,3.9-2.1c5.1-7.1,9.4-8.6,12.1-8.6c0.8,0,1.6,0.2,2.3,0.4
					C28.8,26.4,23.2,23.6,16.6,23.6z"/>
			</g>
			<g>
				<path fill="#FFECB3" d="M6.6,32.6c0-3.3,4.3-6,9.6-6"/>
				<path fill="#37474F" d="M6.6,33.6c-0.6,0-1-0.4-1-1c0-3.9,4.7-7,10.6-7c0.6,0,1,0.4,1,1s-0.4,1-1,1c-4.7,0-8.6,2.3-8.6,5
					C7.6,33.2,7.1,33.6,6.6,33.6z"/>
			</g>
		</g>
	</g>
</g>
</svg>
