<?xml version="1.0" encoding="utf-8"?>
<!-- Generator: Adobe Illustrator 16.0.0, SVG Export Plug-In . SVG Version: 6.00 Build 0)  -->
<!DOCTYPE svg PUBLIC "-//W3C//DTD SVG 1.1//EN" "http://www.w3.org/Graphics/SVG/1.1/DTD/svg11.dtd">
<svg version="1.1" id="Layer_1" xmlns="http://www.w3.org/2000/svg" xmlns:xlink="http://www.w3.org/1999/xlink" x="0px" y="0px"
	 width="128px" height="128px" viewBox="0 0 128 128" enable-background="new 0 0 128 128" xml:space="preserve">
<g>
	<g>
		<path fill="#37474F" d="M125,124H60c-1.1,0-2-0.9-2-2V97H3c-1.1,0-2-0.9-2-2V21c0-1.1,0.9-2,2-2h29c1.1,0,2,0.9,2,2s-0.9,2-2,2H5
			v70h55c1.1,0,2,0.9,2,2v25h61V23H94c-1.1,0-2-0.9-2-2s0.9-2,2-2h31c1.1,0,2,0.9,2,2v101C127,123.1,126.1,124,125,124z"/>
	</g>
	<g>
		<path fill="#37474F" d="M102,124H60c-1.1,0-2-0.9-2-2V95c0-1.1,0.9-2,2-2h42c1.1,0,2,0.9,2,2v27C104,123.1,103.1,124,102,124z
			 M62,120h38V97H62V120z"/>
	</g>
	<g>
		<g>
			<line fill="#FFECB3" x1="93" y1="96" x2="93" y2="121"/>
			<path fill="#37474F" d="M93,123c-1.1,0-2-0.9-2-2V96c0-1.1,0.9-2,2-2s2,0.9,2,2v25C95,122.1,94.1,123,93,123z"/>
		</g>
		<g>
			<line fill="#FFECB3" x1="81" y1="96" x2="81" y2="121"/>
			<path fill="#37474F" d="M81,123c-1.1,0-2-0.9-2-2V96c0-1.1,0.9-2,2-2s2,0.9,2,2v25C83,122.1,82.1,123,81,123z"/>
		</g>
		<g>
			<line fill="#FFECB3" x1="69" y1="96" x2="69" y2="121"/>
			<path fill="#37474F" d="M69,123c-1.1,0-2-0.9-2-2V96c0-1.1,0.9-2,2-2s2,0.9,2,2v25C71,122.1,70.1,123,69,123z"/>
		</g>
	</g>
	<g>
		<polyline fill="#FFFFFF" points="32,95 76,95 76,56 54,56 		"/>
		<path fill="#37474F" d="M76,97H32c-1.1,0-2-0.9-2-2s0.9-2,2-2h42V58H54c-1.1,0-2-0.9-2-2s0.9-2,2-2h22c1.1,0,2,0.9,2,2v39
			C78,96.1,77.1,97,76,97z"/>
	</g>
	<g>
		<polyline fill="#FFFFFF" points="5,95 28,95 28,56 17,56 		"/>
		<path fill="#37474F" d="M28,97H5c-1.1,0-2-0.9-2-2s0.9-2,2-2h21V58h-9c-1.1,0-2-0.9-2-2s0.9-2,2-2h11c1.1,0,2,0.9,2,2v39
			C30,96.1,29.1,97,28,97z"/>
	</g>
	<g>
		<polyline fill="#FFFFFF" points="79,95 102,95 102,69 		"/>
		<path fill="#37474F" d="M102,97H79c-1.1,0-2-0.9-2-2s0.9-2,2-2h21V69c0-1.1,0.9-2,2-2s2,0.9,2,2v26C104,96.1,103.1,97,102,97z"/>
	</g>
	<g>
		<polyline fill="#FFFFFF" points="100.6,56 100.6,56 76,56 		"/>
		<path fill="#37474F" d="M100.6,58H76c-1.1,0-2-0.9-2-2s0.9-2,2-2h24.6c1.1,0,2,0.9,2,2S101.7,58,100.6,58z"/>
	</g>
	<g>
		<polyline fill="#FFFFFF" points="35.9,56 35.9,56 27,56 		"/>
		<path fill="#37474F" d="M35.9,58H27c-1.1,0-2-0.9-2-2s0.9-2,2-2h8.9c1.1,0,2,0.9,2,2S37,58,35.9,58z"/>
	</g>
	<g>
		<polyline fill="#FFFFFF" points="61.6,40.5 35.2,49.6 44.2,23.1 		"/>
		<path fill="#37474F" d="M35.2,51.6c-0.5,0-1-0.2-1.4-0.6c-0.5-0.5-0.7-1.3-0.5-2.1l9-26.4c0.4-1,1.5-1.6,2.5-1.2
			c1,0.4,1.6,1.5,1.2,2.5l-7.7,22.6L61,38.6c1-0.4,2.2,0.2,2.5,1.2s-0.2,2.2-1.2,2.5l-26.4,9C35.6,51.6,35.4,51.6,35.2,51.6z"/>
	</g>
	<g>
		<polyline fill="#FFECB3" points="58.7,8 46.4,20.2 64.4,38.2 95,7.5 		"/>
		<path fill="#37474F" d="M64.4,40.2c-0.5,0-1-0.2-1.4-0.6L45,21.6c-0.8-0.8-0.8-2,0-2.8L57.3,6.6c0.8-0.8,2-0.8,2.8,0
			c0.8,0.8,0.8,2,0,2.8L49.3,20.2l15.1,15.1L93.6,6.1c0.8-0.8,2-0.8,2.8,0c0.8,0.8,0.8,2,0,2.8L65.8,39.6
			C65.4,40,64.9,40.2,64.4,40.2z"/>
	</g>
	<g>
		<polyline fill="#FFAB00" points="58.7,8 46.4,20.2 55.5,29.3 77.7,7.1 		"/>
		<path fill="#37474F" d="M55.5,31.3c-0.5,0-1-0.2-1.4-0.6L45,21.6c-0.8-0.8-0.8-2,0-2.8L57.3,6.6c0.8-0.8,2-0.8,2.8,0
			c0.8,0.8,0.8,2,0,2.8L49.3,20.2l6.2,6.2L76.3,5.7c0.8-0.8,2-0.8,2.8,0c0.8,0.8,0.8,2,0,2.8L56.9,30.7C56.6,31.1,56,31.3,55.5,31.3
			z"/>
	</g>
	<g>
		<line fill="#FFFFFF" x1="40.2" y1="35.5" x2="49" y2="44.3"/>
		<path fill="#37474F" d="M49,46.3c-0.5,0-1-0.2-1.4-0.6l-8.8-8.8c-0.8-0.8-0.8-2,0-2.8c0.8-0.8,2-0.8,2.8,0l8.8,8.8
			c0.8,0.8,0.8,2,0,2.8C50,46.1,49.5,46.3,49,46.3z"/>
	</g>
	<g>
		<path fill="#37474F" d="M60,96H40c-1.1,0-2-0.9-2-2V67c0-1.1,0.9-2,2-2h20c1.1,0,2,0.9,2,2v27C62,95.1,61.1,96,60,96z M42,92h16
			V69H42V92z"/>
	</g>
	<g>
		<path fill="#37474F" d="M19.2,94.2c-1.1,0-2-0.9-2-2c0-7-5.7-12.7-12.7-12.7c-1.1,0-2-0.9-2-2s0.9-2,2-2c9.2,0,16.7,7.5,16.7,16.7
			C21.2,93.3,20.3,94.2,19.2,94.2z"/>
	</g>
</g>
</svg>
