<?xml version="1.0" encoding="utf-8"?>
<!-- Generator: Adobe Illustrator 16.0.0, SVG Export Plug-In . SVG Version: 6.00 Build 0)  -->
<!DOCTYPE svg PUBLIC "-//W3C//DTD SVG 1.1//EN" "http://www.w3.org/Graphics/SVG/1.1/DTD/svg11.dtd">
<svg version="1.1" id="Layer_1" xmlns="http://www.w3.org/2000/svg" xmlns:xlink="http://www.w3.org/1999/xlink" x="0px" y="0px"
	 width="128px" height="128px" viewBox="0 0 128 128" enable-background="new 0 0 128 128" xml:space="preserve">
<g>
	<g>
		<polygon fill="#FFFFFF" points="95.6,3 14,3 14,125 114,125 114,21.3 		"/>
		<path fill="#37474F" d="M114,127H14c-1.1,0-2-0.9-2-2V3c0-1.1,0.9-2,2-2h81.6c0.5,0,1,0.2,1.4,0.6l18.4,18.3
			c0.4,0.4,0.6,0.9,0.6,1.4V125C116,126.1,115.1,127,114,127z M16,123h96V22.2L94.8,5H16V123z"/>
	</g>
	<g>
		<polyline fill="#FFECB3" points="113,25 93,25 93,5 		"/>
		<path fill="#37474F" d="M113,27H93c-1.1,0-2-0.9-2-2V5c0-1.1,0.9-2,2-2s2,0.9,2,2v18h18c1.1,0,2,0.9,2,2S114.1,27,113,27z"/>
	</g>
	<g>
		<g>
			<circle fill="#FFAB00" cx="38.8" cy="27.9" r="12.8"/>
			<path fill="#37474F" d="M38.8,42.7c-8.1,0-14.8-6.6-14.8-14.8s6.6-14.8,14.8-14.8s14.8,6.6,14.8,14.8S46.9,42.7,38.8,42.7z
				 M38.8,17.2C32.9,17.2,28,22,28,27.9s4.8,10.8,10.8,10.8s10.8-4.8,10.8-10.8S44.7,17.2,38.8,17.2z"/>
		</g>
		<g>
			<g>
				<polyline fill="#FFAB00" points="31,38 31,55.3 38.7,47.5 				"/>
				<path fill="#37474F" d="M31,57.3c-0.3,0-0.5,0-0.8-0.1c-0.8-0.3-1.2-1-1.2-1.9V38c0-1.1,0.9-2,2-2s2,0.9,2,2v12.4l4.2-4.4
					c0.8-0.8,2-0.8,2.8,0c0.8,0.8,0.8,2,0,2.8l-7.7,7.9C32,57.1,31.5,57.3,31,57.3z"/>
			</g>
			<g>
				<polyline fill="#FFAB00" points="46,39 46,55.3 38.3,47.5 				"/>
				<path fill="#37474F" d="M46,57.3c-0.5,0-1-0.2-1.4-0.6l-7.7-7.9c-0.8-0.8-0.8-2.1,0-2.8c0.8-0.8,2.1-0.8,2.8,0l4.2,4.4V39
					c0-1.1,0.9-2,2-2s2,0.9,2,2v16.3c0,0.8-0.5,1.5-1.2,1.9C46.5,57.3,46.3,57.3,46,57.3z"/>
			</g>
		</g>
	</g>
	<g>
		<g>
			<line fill="#FFAB00" x1="29" y1="73" x2="99" y2="73"/>
			<path fill="#37474F" d="M99,75H29c-1.1,0-2-0.9-2-2s0.9-2,2-2h70c1.1,0,2,0.9,2,2S100.1,75,99,75z"/>
		</g>
		<g>
			<line fill="#FFAB00" x1="29" y1="91" x2="99" y2="91"/>
			<path fill="#37474F" d="M99,93H29c-1.1,0-2-0.9-2-2s0.9-2,2-2h70c1.1,0,2,0.9,2,2S100.1,93,99,93z"/>
		</g>
		<g>
			<line fill="#FFAB00" x1="29" y1="109" x2="99" y2="109"/>
			<path fill="#37474F" d="M99,111H29c-1.1,0-2-0.9-2-2s0.9-2,2-2h70c1.1,0,2,0.9,2,2S100.1,111,99,111z"/>
		</g>
	</g>
	<g>
		<g>
			<line fill="#FFAB00" x1="60" y1="37" x2="99" y2="37"/>
			<path fill="#37474F" d="M99,39H60c-1.1,0-2-0.9-2-2s0.9-2,2-2h39c1.1,0,2,0.9,2,2S100.1,39,99,39z"/>
		</g>
		<g>
			<line fill="#FFAB00" x1="60" y1="55" x2="99" y2="55"/>
			<path fill="#37474F" d="M99,57H60c-1.1,0-2-0.9-2-2s0.9-2,2-2h39c1.1,0,2,0.9,2,2S100.1,57,99,57z"/>
		</g>
	</g>
</g>
</svg>
