<?xml version="1.0" encoding="utf-8"?>
<!-- Generator: Adobe Illustrator 16.0.0, SVG Export Plug-In . SVG Version: 6.00 Build 0)  -->
<!DOCTYPE svg PUBLIC "-//W3C//DTD SVG 1.1//EN" "http://www.w3.org/Graphics/SVG/1.1/DTD/svg11.dtd">
<svg version="1.1" id="Layer_1" xmlns="http://www.w3.org/2000/svg" xmlns:xlink="http://www.w3.org/1999/xlink" x="0px" y="0px"
	 width="32px" height="32px" viewBox="0 0 32 32" enable-background="new 0 0 32 32" xml:space="preserve">
<g>
	<g>
		<g>
			<path fill="#FFFFFF" d="M29.5,28.1c0,1.5-1.2,2.4-2.6,2.4H5.1c-1.4,0-2.6-0.9-2.6-2.4V3.9c0-1.5,1.2-2.4,2.6-2.4h21.8
				c1.4,0,2.6,0.9,2.6,2.4V28.1z"/>
			<path fill="#37474F" d="M26.9,31H5.1C3.3,31,2,29.7,2,28.1V3.9C2,2.3,3.3,1,5.1,1h21.8C28.7,1,30,2.3,30,3.9v24.1
				C30,29.7,28.7,31,26.9,31z M5.1,2C4.1,2,3,2.7,3,3.9v24.1C3,29.3,4.1,30,5.1,30h21.8c1.1,0,2.1-0.7,2.1-1.9V3.9
				C29,2.7,27.9,2,26.9,2H5.1z"/>
		</g>
		<g>
			<circle fill="#FFFFFF" cx="16" cy="19.9" r="8.9"/>
			<path fill="#37474F" d="M16,29.2c-5.2,0-9.4-4.2-9.4-9.4s4.2-9.4,9.4-9.4s9.4,4.2,9.4,9.4S21.2,29.2,16,29.2z M16,11.5
				c-4.6,0-8.4,3.8-8.4,8.4s3.8,8.4,8.4,8.4s8.4-3.8,8.4-8.4S20.6,11.5,16,11.5z"/>
		</g>
		<g>
			<g>
				<g>
					<path fill="#FFAB00" d="M10.1,19.9c0-3.2,2.6-5.9,5.9-5.9"/>
					<path fill="#37474F" d="M10.1,20.4c-0.3,0-0.5-0.2-0.5-0.5c0-3.5,2.9-6.4,6.4-6.4c0.3,0,0.5,0.2,0.5,0.5s-0.2,0.5-0.5,0.5
						c-3,0-5.4,2.4-5.4,5.4C10.6,20.2,10.4,20.4,10.1,20.4z"/>
				</g>
				<g>
					<path fill="#FFAB00" d="M21.9,19.9c0,3.2-2.6,5.9-5.9,5.9"/>
					<path fill="#37474F" d="M16,26.2c-0.3,0-0.5-0.2-0.5-0.5s0.2-0.5,0.5-0.5c3,0,5.4-2.4,5.4-5.4c0-0.3,0.2-0.5,0.5-0.5
						s0.5,0.2,0.5,0.5C22.4,23.4,19.5,26.2,16,26.2z"/>
				</g>
			</g>
			<g>
				<g>
					<polyline fill="#FFAB00" points="16.2,12.7 17.5,14 16.2,15.3 					"/>
					<path fill="#37474F" d="M16.2,15.8c-0.1,0-0.3,0-0.4-0.1c-0.2-0.2-0.2-0.5,0-0.7l0.9-0.9l-0.9-0.9c-0.2-0.2-0.2-0.5,0-0.7
						s0.5-0.2,0.7,0l1.3,1.3c0.2,0.2,0.2,0.5,0,0.7l-1.3,1.3C16.5,15.7,16.3,15.8,16.2,15.8z"/>
				</g>
				<g>
					<polyline fill="#FFAB00" points="15.8,27 14.5,25.8 15.8,24.5 					"/>
					<path fill="#37474F" d="M15.8,27.5c-0.1,0-0.3,0-0.4-0.1l-1.3-1.3C14.1,26,14,25.9,14,25.8s0.1-0.3,0.1-0.4l1.3-1.3
						c0.2-0.2,0.5-0.2,0.7,0s0.2,0.5,0,0.7l-0.9,0.9l0.9,0.9c0.2,0.2,0.2,0.5,0,0.7C16,27.5,15.9,27.5,15.8,27.5z"/>
				</g>
			</g>
		</g>
		<g>
			<line fill="#FFFFFF" x1="5" y1="7.5" x2="23" y2="7.5"/>
			<path fill="#37474F" d="M23,8H5C4.7,8,4.5,7.8,4.5,7.5S4.7,7,5,7h18c0.3,0,0.5,0.2,0.5,0.5S23.3,8,23,8z"/>
		</g>
		<g>
			<path fill="#FFFFFF" d="M25.4,5.6c1.1,0,2,0.9,2,2s-0.9,2-2,2"/>
			<path fill="#37474F" d="M25.4,10.1c-0.3,0-0.5-0.2-0.5-0.5s0.2-0.5,0.5-0.5c0.8,0,1.5-0.7,1.5-1.5s-0.7-1.5-1.5-1.5
				c-0.3,0-0.5-0.2-0.5-0.5s0.2-0.5,0.5-0.5c1.4,0,2.5,1.1,2.5,2.5S26.8,10.1,25.4,10.1z"/>
		</g>
		<g>
			<path fill="#37474F" d="M5.5,6.5C5.2,6.5,5,6.3,5,6V4c0-0.3,0.2-0.5,0.5-0.5S6,3.7,6,4v2C6,6.3,5.8,6.5,5.5,6.5z"/>
		</g>
		<g>
			<path fill="#37474F" d="M7.5,6.5C7.2,6.5,7,6.3,7,6V4c0-0.3,0.2-0.5,0.5-0.5S8,3.7,8,4v2C8,6.3,7.8,6.5,7.5,6.5z"/>
		</g>
		<g>
			<path fill="#37474F" d="M9.5,6.5C9.2,6.5,9,6.3,9,6V4c0-0.3,0.2-0.5,0.5-0.5S10,3.7,10,4v2C10,6.3,9.8,6.5,9.5,6.5z"/>
		</g>
		<g>
			<circle fill="#FFECB3" cx="15.2" cy="4.5" r="1.5"/>
			<path fill="#37474F" d="M15.2,6.5c-1.1,0-2-0.9-2-2s0.9-2,2-2s2,0.9,2,2S16.3,6.5,15.2,6.5z M15.2,3.6c-0.5,0-1,0.4-1,1
				s0.4,1,1,1s1-0.4,1-1S15.8,3.6,15.2,3.6z"/>
		</g>
		<g>
			<circle fill="#FFECB3" cx="20.1" cy="4.5" r="1.5"/>
			<path fill="#37474F" d="M20.1,6.5c-1.1,0-2-0.9-2-2s0.9-2,2-2s2,0.9,2,2S21.2,6.5,20.1,6.5z M20.1,3.6c-0.5,0-1,0.4-1,1
				s0.4,1,1,1s1-0.4,1-1S20.7,3.6,20.1,3.6z"/>
		</g>
	</g>
	<g>
		<line fill="#FFECB3" x1="1" y1="30.5" x2="31" y2="30.5"/>
		<path fill="#37474F" d="M31,31H1c-0.3,0-0.5-0.2-0.5-0.5S0.7,30,1,30h30c0.3,0,0.5,0.2,0.5,0.5S31.3,31,31,31z"/>
	</g>
</g>
</svg>
