<?xml version="1.0" encoding="utf-8"?>
<!-- Generator: Adobe Illustrator 16.0.0, SVG Export Plug-In . SVG Version: 6.00 Build 0)  -->
<!DOCTYPE svg PUBLIC "-//W3C//DTD SVG 1.1//EN" "http://www.w3.org/Graphics/SVG/1.1/DTD/svg11.dtd">
<svg version="1.1" id="Layer_1" xmlns="http://www.w3.org/2000/svg" xmlns:xlink="http://www.w3.org/1999/xlink" x="0px" y="0px"
	 width="32px" height="32px" viewBox="0 0 32 32" enable-background="new 0 0 32 32" xml:space="preserve">
<g>
	<g>
		<path fill="#FFAB00" d="M12.5,4c0,1.7-0.5,3-1.1,3h-1.2C9.6,7,9.1,5.7,9.1,4l0,0c0-1.7,0.5-3,1.1-3h1.2C12,1,12.5,2.3,12.5,4
			L12.5,4z"/>
		<path fill="#37474F" d="M11.4,7.5h-1.2C9.1,7.5,8.6,5.7,8.6,4c0-1.7,0.5-3.5,1.6-3.5h1.2C12.5,0.5,13,2.3,13,4
			C13,5.7,12.5,7.5,11.4,7.5z M11.4,1.5l-1.2,0C10,1.6,9.6,2.4,9.6,4c0,1.6,0.5,2.4,0.6,2.5l1.2,0C11.6,6.4,12,5.6,12,4
			C12,2.4,11.6,1.6,11.4,1.5z"/>
	</g>
	<g>
		<path fill="#FFAB00" d="M25,27.2c0,2.1-1.9,3.8-4,3.8H11c-2.1,0-4-1.8-4-3.8V8.2C7,6.2,8.9,4,11,4H21c2.1,0,4,2.2,4,4.2V27.2z"/>
		<path fill="#37474F" d="M21,31.5H11c-2.4,0-4.5-2-4.5-4.3V8.2c0-2.4,2.2-4.7,4.5-4.7H21c2.3,0,4.5,2.3,4.5,4.7v18.9
			C25.5,29.5,23.4,31.5,21,31.5z M11,4.5c-1.7,0-3.5,1.9-3.5,3.7v18.9c0,1.7,1.7,3.3,3.5,3.3H21c1.8,0,3.5-1.6,3.5-3.3V8.2
			c0-1.9-1.7-3.7-3.5-3.7H11z"/>
	</g>
	<g>
		<path fill="#37474F" d="M25,25.1c0,2.1-1.9,3.9-4,3.9H11c-2.1,0-4-1.9-4-3.9V6.1C7,4,8.9,2,11,2H21c2.1,0,4,2,4,4.1V25.1z"/>
		<path fill="#37474F" d="M21,29.5H11c-2.4,0-4.5-2.1-4.5-4.4V6.1c0-2.4,2.2-4.6,4.5-4.6H21c2.3,0,4.5,2.2,4.5,4.6v18.9
			C25.5,27.4,23.4,29.5,21,29.5z M11,2.5c-1.8,0-3.5,1.8-3.5,3.6v18.9c0,1.8,1.7,3.4,3.5,3.4H21c1.8,0,3.5-1.6,3.5-3.4V6.1
			c0-1.8-1.7-3.6-3.5-3.6H11z"/>
	</g>
	<g>
		<g>
			<path fill="#B0BEC5" d="M18.5,6.1c0-0.2,0.2-0.4,0.4-0.4c0.2,0,0.4,0.2,0.4,0.4c0,0.2-0.2,0.4-0.4,0.4
				C18.7,6.5,18.5,6.3,18.5,6.1z"/>
			<path fill="#B0BEC5" d="M18.9,7C18.4,7,18,6.6,18,6.1c0-0.5,0.4-0.9,0.9-0.9c0.3,0,0.5,0.1,0.7,0.3c0.2,0.2,0.3,0.4,0.3,0.7
				C19.9,6.6,19.5,7,18.9,7L18.9,7z"/>
		</g>
		<g>
			<path fill="#B0BEC5" d="M15.6,6.1c0-0.2,0.2-0.4,0.4-0.4c0.2,0,0.4,0.2,0.4,0.4c0,0.2-0.2,0.4-0.4,0.4
				C15.8,6.5,15.6,6.3,15.6,6.1z"/>
			<path fill="#B0BEC5" d="M16,7L16,7c-0.5,0-0.9-0.4-0.9-0.9c0-0.5,0.4-0.9,0.9-0.9c0.5,0,0.9,0.4,0.9,0.9C16.9,6.6,16.5,7,16,7z"
				/>
		</g>
		<g>
			<path fill="#B0BEC5" d="M12.7,6.1c0-0.2,0.2-0.4,0.4-0.4c0.2,0,0.4,0.2,0.4,0.4c0,0.2-0.2,0.4-0.4,0.4
				C12.9,6.5,12.7,6.3,12.7,6.1z"/>
			<path fill="#B0BEC5" d="M13.1,7L13.1,7C13.1,7,13.1,7,13.1,7c-0.5,0-0.9-0.4-0.9-0.9c0-0.5,0.4-0.9,0.9-0.9
				c0.5,0,0.9,0.4,0.9,0.9C14,6.6,13.6,7,13.1,7L13.1,7z M13.1,6.2l0,0.3L13.1,6.2C13.1,6.2,13.2,6.1,13.1,6.2C13.2,6,13.1,6,13.1,6
				v0c0,0,0,0,0,0v0C13,6,13,6,13.1,6.2C13,6.1,13,6.2,13.1,6.2z"/>
		</g>
	</g>
	<g>
		<g>
			<path fill="#FFAB00" d="M17.5,26.7c0,0.3,0,0.8-0.2,0.8h-2.5c-0.3,0-0.3-0.5-0.3-0.8v-0.7c0-0.3,0-0.6,0.3-0.6h2.5
				c0.3,0,0.2,0.3,0.2,0.6V26.7z"/>
		</g>
	</g>
	<g>
		<g>
			<g>
				<polygon fill="#B0BEC5" points="20.7,22.7 20.5,23 21.1,23.6 20.5,24.2 20.7,24.5 21.6,23.6 				"/>
			</g>
			<g>
				<polygon fill="#B0BEC5" points="19.3,22.7 19,23 19.6,23.6 19,24.2 19.3,24.5 20.2,23.6 				"/>
			</g>
		</g>
		<g>
			<g>
				<polygon fill="#B0BEC5" points="11.3,24.5 11.6,24.2 11,23.6 11.6,23 11.3,22.7 10.4,23.6 				"/>
			</g>
			<g>
				<polygon fill="#B0BEC5" points="12.8,24.5 13.1,24.2 12.4,23.6 13.1,23 12.8,22.7 11.9,23.6 				"/>
			</g>
		</g>
	</g>
</g>
<g>
	<g>
		<path fill="#FFFFFF" d="M15.8,11.2c0,2.3-0.8,3.3-1.9,3.3c-1.4,0-1.9-1.6-1.9-3.2C12.1,9.5,12.6,8,14,8C15.4,8,15.8,9.7,15.8,11.2
			z M13.4,11.3c0,1.5,0.2,2.2,0.6,2.2c0.4,0,0.5-0.7,0.5-2.2c0-1.4-0.1-2.2-0.5-2.2S13.3,9.8,13.4,11.3z"/>
	</g>
	<g>
		<path fill="#FFFFFF" d="M18.3,14.5v-1.5h-2.2v-0.9l2.1-4h1.2v3.8h0.6v1h-0.6v1.5H18.3z M18.3,11.9v-1.3c0-0.3,0-0.7,0.1-1h0
			c-0.1,0.4-0.3,0.6-0.4,1l-0.7,1.3v0H18.3z"/>
	</g>
	<g>
		<path fill="#FFAB00" d="M12.5,20.7v-0.4l0.5-0.5c1.2-1.2,1.8-1.8,1.8-2.5c0-0.5-0.2-0.9-1-0.9c-0.4,0-0.8,0.2-1,0.4l-0.2-0.5
			c0.3-0.3,0.8-0.5,1.4-0.5c1,0,1.5,0.7,1.5,1.4c0,0.9-0.6,1.6-1.7,2.6l-0.4,0.4v0h2.2v0.5H12.5z"/>
	</g>
	<g>
		<path fill="#FFAB00" d="M19.6,18.2c0,1.6-0.6,2.5-1.7,2.5c-0.9,0-1.6-0.9-1.6-2.5c0-1.6,0.7-2.5,1.7-2.5
			C19,15.8,19.6,16.7,19.6,18.2z M17,18.3c0,1.2,0.4,2,1,2c0.7,0,1-0.8,1-2c0-1.2-0.3-2-1-2C17.4,16.3,17,17,17,18.3z"/>
	</g>
</g>
<g>
	<g>
		<path fill="#37474F" d="M15.3,26.3c0-0.1,0-0.1,0-0.2h0.1l0,0.1h0c0-0.1,0.1-0.1,0.2-0.1c0.1,0,0.3,0.1,0.3,0.3
			c0,0.2-0.1,0.3-0.3,0.3c-0.1,0-0.2,0-0.2-0.1h0V27h-0.1V26.3z M15.4,26.5C15.4,26.5,15.4,26.5,15.4,26.5c0,0.1,0.1,0.2,0.2,0.2
			c0.1,0,0.2-0.1,0.2-0.2c0-0.1-0.1-0.2-0.2-0.2c-0.1,0-0.1,0.1-0.2,0.1c0,0,0,0,0,0V26.5z"/>
	</g>
	<g>
		<path fill="#37474F" d="M16,26.3c0-0.1,0-0.1,0-0.2h0.1l0,0.1h0c0-0.1,0.1-0.1,0.2-0.1c0.1,0,0.1,0,0.2,0.1l0,0c0,0,0-0.1,0.1-0.1
			c0,0,0.1,0,0.1,0c0.1,0,0.2,0.1,0.2,0.3v0.4h-0.1v-0.4c0-0.1,0-0.2-0.1-0.2c-0.1,0-0.1,0.1-0.1,0.1c0,0,0,0,0,0.1v0.4h-0.1v-0.4
			c0-0.1,0-0.2-0.1-0.2c-0.1,0-0.1,0.1-0.1,0.1c0,0,0,0,0,0.1v0.4H16V26.3z"/>
	</g>
</g>
</svg>
