<?xml version="1.0" encoding="utf-8"?>
<!-- Generator: Adobe Illustrator 16.0.0, SVG Export Plug-In . SVG Version: 6.00 Build 0)  -->
<!DOCTYPE svg PUBLIC "-//W3C//DTD SVG 1.1//EN" "http://www.w3.org/Graphics/SVG/1.1/DTD/svg11.dtd">
<svg version="1.1" id="Layer_1" xmlns="http://www.w3.org/2000/svg" xmlns:xlink="http://www.w3.org/1999/xlink" x="0px" y="0px"
	 width="128px" height="128px" viewBox="0 0 128 128" enable-background="new 0 0 128 128" xml:space="preserve">
<g>
	<g>
		<path fill="#FFFFFF" d="M123,64c0,32.6-26.4,59-59,59C31.4,123,5,96.6,5,64C5,31.4,31.4,5,64,5C96.6,5,123,31.4,123,64z"/>
		<path fill="#37474F" d="M64,124.5C30.7,124.5,3.5,97.3,3.5,64C3.5,30.7,30.7,3.5,64,3.5c33.3,0,60.5,27.1,60.5,60.5
			C124.5,97.3,97.3,124.5,64,124.5z M64,6.5C32.3,6.5,6.5,32.3,6.5,64c0,31.7,25.8,57.5,57.5,57.5c31.7,0,57.5-25.8,57.5-57.5
			C121.5,32.3,95.7,6.5,64,6.5z"/>
	</g>
	<g>
		<g>
			<g>
				<path fill="#FFFFFF" d="M41.4,19.8c-0.7,3-1.2,17.9-1.2,21.5c0,19.5,10.7,35.2,23.8,35.2c13.2,0,23.8-15.7,23.8-35.2
					c0-3.6-0.5-18.6-1.2-21.6H41.4z"/>
				<path fill="#37474F" d="M64,78.1c-14,0-25.3-16.5-25.3-36.7c0-3.3,0.5-18.6,1.2-21.9c0.2-0.7,0.8-1.2,1.5-1.2h45.3
					c0.7,0,1.3,0.5,1.5,1.2c0.7,3.2,1.2,18.5,1.2,21.9C89.3,61.7,78,78.1,64,78.1z M42.6,21.3c-0.5,4.4-0.9,16.4-0.9,20
					c0,18.6,10,33.7,22.3,33.7c12.3,0,22.3-15.1,22.3-33.7c0-3.5-0.4-15.6-0.9-20.1H42.6z"/>
			</g>
		</g>
		<g>
			<g>
				<line fill="#FFFFFF" x1="63.6" y1="106.3" x2="63.6" y2="76.3"/>
				<path fill="#37474F" d="M63.6,107.8c-0.8,0-1.5-0.7-1.5-1.5v-30c0-0.8,0.7-1.5,1.5-1.5s1.5,0.7,1.5,1.5v30
					C65.1,107.2,64.4,107.8,63.6,107.8z"/>
			</g>
			<g>
				<line fill="#FFFFFF" x1="79.1" y1="106.8" x2="49.1" y2="106.8"/>
				<path fill="#37474F" d="M79.1,108.3h-30c-0.8,0-1.5-0.7-1.5-1.5s0.7-1.5,1.5-1.5h30c0.8,0,1.5,0.7,1.5,1.5
					S79.9,108.3,79.1,108.3z"/>
			</g>
		</g>
		<g>
			<path fill="#FFAB00" d="M40.3,42.8c0.5,19,10.9,34,23.7,34c12.8,0,23.2-15,23.7-34H40.3z"/>
			<path fill="#37474F" d="M64,78.4c-13.6,0-24.7-15.6-25.2-35.5c0-0.4,0.1-0.8,0.4-1.1c0.3-0.3,0.7-0.5,1.1-0.5h47.5
				c0.4,0,0.8,0.2,1.1,0.5c0.3,0.3,0.4,0.7,0.4,1.1C88.7,62.8,77.6,78.4,64,78.4z M41.8,44.3c1,17.5,10.5,31,22.2,31
				c11.7,0,21.2-13.5,22.2-31H41.8z"/>
		</g>
	</g>
	<g>
		<g>
			<g>
				<path fill="#FFFFFF" d="M86.6,63.8v32.9c0,5.8,4.9,10.1,10.7,10.1h13.1c5.8,0,10.2-4.3,10.2-10.1V63.8H86.6z"/>
				<path fill="#37474F" d="M110.4,108.3H97.3c-6.8,0-12.2-5.1-12.2-11.6V63.8c0-0.8,0.7-1.5,1.5-1.5h34c0.8,0,1.5,0.7,1.5,1.5v32.9
					C122.1,103.3,117.1,108.3,110.4,108.3z M88.1,65.3v31.4c0,4.8,4,8.6,9.2,8.6h13.1c4.9,0,8.7-3.7,8.7-8.6V65.3H88.1z"/>
			</g>
			<g>
				<path fill="#FFECB3" d="M86.6,77.8v18.9c0,5.8,4.9,10.1,10.7,10.1h13.1c5.8,0,10.2-4.3,10.2-10.1V77.8H86.6z"/>
				<path fill="#37474F" d="M110.4,108.3H97.3c-6.8,0-12.2-5.1-12.2-11.6V77.8c0-0.8,0.7-1.5,1.5-1.5h34c0.8,0,1.5,0.7,1.5,1.5v18.9
					C122.1,103.3,117.1,108.3,110.4,108.3z M88.1,79.3v17.4c0,4.8,4,8.6,9.2,8.6h13.1c4.9,0,8.7-3.7,8.7-8.6V79.3H88.1z"/>
			</g>
		</g>
		<g>
			<g>
				<path fill="#FFFFFF" d="M6.6,63.8v32.9c0,5.8,5.2,10.1,11,10.1h13.1c5.8,0,10.9-4.3,10.9-10.1V63.8H6.6z"/>
				<path fill="#37474F" d="M30.7,108.3H17.6c-6.9,0-12.5-5.2-12.5-11.6V63.8c0-0.8,0.7-1.5,1.5-1.5h35c0.8,0,1.5,0.7,1.5,1.5v32.9
					C43.1,103.1,37.5,108.3,30.7,108.3z M8.1,65.3v31.4c0,4.8,4.2,8.6,9.5,8.6h13.1c5.2,0,9.4-3.9,9.4-8.6V65.3H8.1z"/>
			</g>
			<g>
				<path fill="#FFECB3" d="M6.6,77.8v18.9c0,5.8,5.2,10.1,11,10.1h13.1c5.8,0,10.9-4.3,10.9-10.1V77.8H6.6z"/>
				<path fill="#37474F" d="M30.7,108.3H17.6c-6.9,0-12.5-5.2-12.5-11.6V77.8c0-0.8,0.7-1.5,1.5-1.5h35c0.8,0,1.5,0.7,1.5,1.5v18.9
					C43.1,103.1,37.5,108.3,30.7,108.3z M8.1,79.3v17.4c0,4.8,4.2,8.6,9.5,8.6h13.1c5.2,0,9.4-3.9,9.4-8.6V79.3H8.1z"/>
			</g>
		</g>
		<g>
			<g>
				<path fill="#37474F" d="M32.7,89.8c0-0.8,0.7-1.4,1.4-1.4c0.8,0,1.5,0.6,1.4,1.4c0,0.8-0.6,1.4-1.4,1.4
					C33.3,91.2,32.7,90.6,32.7,89.8z"/>
				<path fill="#37474F" d="M34.1,91.7c-1,0-1.9-0.9-1.9-1.9c0-1.1,0.9-1.9,1.9-1.9c0.5,0,1,0.2,1.4,0.6c0.4,0.4,0.5,0.9,0.5,1.4
					C36,90.9,35.2,91.7,34.1,91.7L34.1,91.7z M34.1,88.9c-0.5,0-0.9,0.4-0.9,0.9c0,0.5,0.4,0.9,0.9,0.9v0.5l0-0.5
					c0.5,0,0.9-0.4,0.9-0.9c0-0.3-0.1-0.5-0.2-0.7C34.6,89,34.4,88.9,34.1,88.9z"/>
			</g>
			<g>
				<path fill="#37474F" d="M22.7,89.8c0-0.8,0.6-1.4,1.4-1.4c0.8,0,1.4,0.6,1.5,1.4c0,0.8-0.7,1.4-1.5,1.4
					C23.4,91.2,22.7,90.6,22.7,89.8z"/>
				<path fill="#37474F" d="M24.1,91.7L24.1,91.7c-1.1,0-1.9-0.9-1.9-1.9c0-0.5,0.2-1,0.5-1.4c0.4-0.4,0.9-0.6,1.4-0.6
					c1.1,0,1.9,0.8,2,1.9C26.1,90.9,25.2,91.7,24.1,91.7z M24.1,88.9c-0.2,0-0.5,0.1-0.6,0.3c-0.2,0.2-0.3,0.4-0.3,0.7
					c0,0.5,0.4,0.9,0.9,1c0.5,0,0.9-0.4,1-1C25.1,89.3,24.7,88.9,24.1,88.9z"/>
			</g>
			<g>
				<path fill="#37474F" d="M12.7,89.8c0-0.8,0.7-1.4,1.4-1.4c0.8,0,1.4,0.6,1.4,1.4c0,0.8-0.6,1.4-1.4,1.4
					C13.4,91.2,12.7,90.6,12.7,89.8z"/>
				<path fill="#37474F" d="M14.2,91.7L14.2,91.7C14.2,91.7,14.2,91.7,14.2,91.7c-1.1,0-2-0.9-2-1.9c0-1.1,0.9-1.9,1.9-1.9
					c1.1,0,1.9,0.9,1.9,1.9C16.1,90.9,15.2,91.7,14.2,91.7z M14.2,88.9c-0.5,0-0.9,0.4-0.9,0.9c0,0.5,0.4,0.9,0.9,0.9l0.1,0.5v-0.5
					c0.5,0,0.9-0.4,0.9-0.9C15.1,89.3,14.7,88.9,14.2,88.9z"/>
			</g>
		</g>
		<g>
			<g>
				<path fill="#37474F" d="M112.4,89.8c0-0.8,0.7-1.4,1.4-1.4c0.8,0,1.5,0.6,1.4,1.4c0,0.8-0.6,1.4-1.4,1.4
					C113.1,91.2,112.4,90.6,112.4,89.8z"/>
				<path fill="#37474F" d="M113.8,91.7c-1,0-1.9-0.9-1.9-1.9c0-1.1,0.9-1.9,1.9-1.9c0.5,0,1,0.2,1.4,0.6c0.4,0.4,0.5,0.9,0.5,1.4
					C115.8,90.9,114.9,91.7,113.8,91.7L113.8,91.7z M113.8,88.9c-0.5,0-0.9,0.4-0.9,0.9c0,0.5,0.4,0.9,0.9,0.9v0.5l0-0.5
					c0.5,0,0.9-0.4,0.9-0.9c0-0.3-0.1-0.5-0.2-0.7C114.3,89,114.1,88.9,113.8,88.9z"/>
			</g>
			<g>
				<path fill="#37474F" d="M102.5,89.8c0-0.8,0.6-1.4,1.4-1.4c0.8,0,1.4,0.6,1.4,1.4c0,0.8-0.7,1.4-1.4,1.4
					C103.1,91.2,102.5,90.6,102.5,89.8z"/>
				<path fill="#37474F" d="M103.9,91.7L103.9,91.7c-1.1,0-1.9-0.9-1.9-1.9c0-0.5,0.2-1,0.5-1.4s0.9-0.6,1.4-0.6
					c1.1,0,1.9,0.8,1.9,1.9C105.8,90.9,104.9,91.7,103.9,91.7z M103.9,88.9c-0.2,0-0.5,0.1-0.7,0.3c-0.2,0.2-0.3,0.4-0.2,0.6
					c0,0.5,0.4,0.9,0.9,1c0.5,0,0.9-0.4,0.9-1C104.8,89.3,104.4,88.9,103.9,88.9z"/>
			</g>
			<g>
				<path fill="#37474F" d="M92.5,89.8c0-0.8,0.7-1.4,1.4-1.4c0.8,0,1.4,0.6,1.4,1.4c0,0.8-0.6,1.4-1.4,1.4
					C93.1,91.2,92.5,90.6,92.5,89.8z"/>
				<path fill="#37474F" d="M93.9,91.7L93.9,91.7C93.9,91.7,93.9,91.7,93.9,91.7c-1.1,0-2-0.9-2-1.9c0-1.1,0.9-1.9,1.9-1.9
					c1.1,0,1.9,0.9,1.9,1.9C95.8,90.9,95,91.7,93.9,91.7z M93.9,88.9c-0.5,0-0.9,0.4-0.9,0.9c0,0.5,0.4,0.9,0.9,0.9l0.1,0.5v-0.5
					c0.5,0,0.9-0.4,0.9-0.9C94.8,89.3,94.4,88.9,93.9,88.9z"/>
			</g>
		</g>
	</g>
	<g>
		<g>
			<path fill="#37474F" d="M72.5,51.1c0-0.8,0.7-1.4,1.4-1.4c0.8,0,1.5,0.6,1.4,1.4c0,0.8-0.6,1.4-1.4,1.4
				C73.2,52.6,72.5,51.9,72.5,51.1z"/>
			<path fill="#37474F" d="M73.9,53.1c-1,0-1.9-0.9-1.9-1.9c0-1.1,0.9-1.9,1.9-1.9c0.5,0,1,0.2,1.4,0.6c0.4,0.4,0.6,0.9,0.5,1.4
				C75.9,52.2,75,53.1,73.9,53.1L73.9,53.1z M74,50.2c-0.5,0-0.9,0.4-0.9,0.9c0,0.5,0.4,0.9,0.9,0.9v0.5l0-0.5
				c0.5,0,0.9-0.4,0.9-0.9c0-0.3-0.1-0.5-0.3-0.7C74.5,50.3,74.2,50.2,74,50.2z"/>
		</g>
		<g>
			<path fill="#37474F" d="M62.6,51.1c0-0.8,0.6-1.4,1.4-1.4c0.8,0,1.4,0.6,1.5,1.4c0,0.8-0.7,1.4-1.5,1.4
				C63.2,52.6,62.6,51.9,62.6,51.1z"/>
			<path fill="#37474F" d="M64,53.1L64,53.1c-1.1,0-1.9-0.9-1.9-1.9c0-0.5,0.2-1,0.5-1.4c0.4-0.4,0.9-0.6,1.4-0.6
				c1.1,0,1.9,0.8,2,1.9C65.9,52.2,65,53.1,64,53.1z M64,50.2c-0.2,0-0.5,0.1-0.6,0.3c-0.2,0.2-0.3,0.4-0.2,0.6
				c0,0.5,0.4,0.9,0.9,0.9c0.5,0,0.9-0.4,1-1C64.9,50.6,64.5,50.2,64,50.2z"/>
		</g>
		<g>
			<path fill="#37474F" d="M52.6,51.1c0-0.8,0.7-1.4,1.4-1.4c0.8,0,1.4,0.6,1.4,1.4c0,0.8-0.6,1.4-1.4,1.4
				C53.3,52.6,52.6,51.9,52.6,51.1z"/>
			<path fill="#37474F" d="M54.1,53.1L54.1,53.1C54,53.1,54,53.1,54.1,53.1c-1.1,0-2-0.9-2-1.9c0-1.1,0.9-1.9,1.9-1.9
				c1.1,0,1.9,0.9,1.9,1.9C56,52.2,55.1,53.1,54.1,53.1z M54,50.2c-0.5,0-0.9,0.4-0.9,0.9c0,0.5,0.4,0.9,0.9,0.9l0.1,0.5v-0.5
				c0.5,0,0.9-0.4,0.9-0.9C55,50.6,54.6,50.2,54,50.2z"/>
		</g>
	</g>
</g>
</svg>
