<?xml version="1.0" encoding="utf-8"?>
<!-- Generator: Adobe Illustrator 16.0.0, SVG Export Plug-In . SVG Version: 6.00 Build 0)  -->
<!DOCTYPE svg PUBLIC "-//W3C//DTD SVG 1.1//EN" "http://www.w3.org/Graphics/SVG/1.1/DTD/svg11.dtd">
<svg version="1.1" id="Layer_1" xmlns="http://www.w3.org/2000/svg" xmlns:xlink="http://www.w3.org/1999/xlink" x="0px" y="0px"
	 width="32px" height="32px" viewBox="0 0 32 32" enable-background="new 0 0 32 32" xml:space="preserve">
<g>
	<g>
		<rect x="2" y="0.8" fill="#FFAB00" width="25" height="28"/>
		<path fill="#37474F" d="M27,29.2H2c-0.3,0-0.5-0.2-0.5-0.5v-28c0-0.3,0.2-0.5,0.5-0.5h25c0.3,0,0.5,0.2,0.5,0.5v28
			C27.5,29,27.3,29.2,27,29.2z M2.5,28.2h24v-27h-24V28.2z"/>
	</g>
	<g>
		<polygon fill="#37474F" points="2.5,28.8 14,15.1 2.5,1.4 		"/>
	</g>
	<g>
		<g>
			<rect x="20.5" y="17.2" fill="#37474F" width="2" height="13"/>
		</g>
		<g>
			<g>
				<path fill="#FFFFFF" d="M30,16.1c0,0.4-0.2,0.6-0.4,0.6H22c-0.2,0,0-0.3,0-0.6V13c0-0.4,0-0.3,0.2-0.3l7.4,0
					c0.2,0,0.4-0.1,0.4,0.3V16.1z"/>
				<path fill="#37474F" d="M29.6,17.2H22c-0.2,0-0.4-0.1-0.5-0.2c-0.2-0.2-0.1-0.5-0.1-0.6c0-0.1,0-0.2,0-0.3V13
					c0-0.5,0.2-0.8,0.6-0.8c0,0,0.1,0,0.1,0l7.4,0c0.1,0,0.2,0,0.2,0c0.3,0,0.7,0.2,0.7,0.8v3.1C30.5,16.8,30.1,17.2,29.6,17.2z
					 M22.5,16.2h7c0,0,0-0.1,0-0.1v-2.9l-7,0v2.9C22.5,16.2,22.5,16.2,22.5,16.2z"/>
			</g>
			<g>
				<path fill="#78909C" d="M21,15.3c0,0.2,0.3,0.5,0.1,0.5h-8.2c-0.2,0-0.8-0.3-0.8-0.5v-1.7c0-0.2,0.6-0.8,0.8-0.8l8.1,0
					c0.2,0,0.1,0.6,0.1,0.8V15.3z"/>
				<path fill="#37474F" d="M21.1,16.2h-8.2c-0.3,0-1.3-0.3-1.3-1v-1.7c0-0.5,0.9-1.3,1.3-1.3l8.3,0l0.2,0.2c0.2,0.3,0.2,0.6,0.1,1
					c0,0.1,0,0.1,0,0.2v1.7c0,0,0,0,0,0c0.1,0.1,0.2,0.4,0,0.7l-0.1,0.2L21.1,16.2z M12.5,15.1c0.1,0.1,0.3,0.1,0.4,0.1l7.6,0v-1.7
					c0-0.1,0-0.2,0-0.3c0,0,0,0,0,0l-7.6,0c-0.1,0.1-0.3,0.3-0.4,0.4V15.1z"/>
			</g>
			<g>
				<path fill="#FFECB3" d="M12.5,12.8c-1,0.3-1.2,1-1.2,2c0,0.9,0.2,1.7,1.2,2V12.8z"/>
			</g>
			<g>
				<path fill="#B0BEC5" d="M13.6,11.8c0.3,0.2,0.4,0.7,0.4,0.8v4.5c0,0.1-0.3,0.6-0.4,0.6h-1.1c-0.1,0-0.5-0.5-0.5-0.6v-4.5
					c0-0.1,0-0.6,0.5-0.8H13.6z"/>
				<path fill="#37474F" d="M13.6,18.2h-1.1c-0.5,0-1-0.8-1-1.1v-4.5c0-0.6,0.3-1.1,0.8-1.3c0.1,0,0.1,0,0.2,0h1.1
					c0.1,0,0.2,0,0.3,0.1c0.5,0.3,0.7,1,0.7,1.2v4.5C14.5,17.4,14.1,18.2,13.6,18.2z M12.6,17.2h0.7c0.1-0.1,0.1-0.2,0.1-0.2l0-4.4
					c0-0.1-0.1-0.2-0.1-0.3h-0.8c-0.1,0-0.1,0.1-0.1,0.3V17C12.5,17.1,12.6,17.2,12.6,17.2z"/>
			</g>
			<g>
				<path fill="#FFFFFF" d="M30,18.5c0,0.4-0.4,0.2-0.7,0.2H14.4c-0.4,0-0.4,0.2-0.4-0.2v-3.1c0-0.4,0-0.7,0.4-0.7h14.9
					c0.4,0,0.7,0.3,0.7,0.7V18.5z"/>
				<path fill="#37474F" d="M29.8,19.3c-0.1,0-0.2,0-0.3,0c-0.1,0-0.1,0-0.2,0H14.4c-0.1,0-0.1,0-0.2,0c0,0-0.1,0-0.2,0
					c-0.3,0-0.5-0.2-0.5-0.5c0-0.1,0-0.1,0-0.3v-3.1c0-0.2,0-0.5,0.1-0.7c0.1-0.3,0.4-0.5,0.8-0.5h14.9c0.7,0,1.2,0.5,1.2,1.2v3.1
					C30.5,19,30.2,19.3,29.8,19.3z M29.8,18.3v0.5V18.3C29.8,18.3,29.8,18.3,29.8,18.3z M14.5,18.2h14.8c0.1,0,0.2,0,0.2,0v-2.8
					c0-0.1-0.1-0.2-0.2-0.2H14.5c0,0.1,0,0.1,0,0.2V18.2z"/>
			</g>
			<g>
				<g>
					<path fill="#37474F" d="M26.7,17c0-0.2,0.2-0.4,0.4-0.4c0.2,0,0.4,0.2,0.4,0.4c0,0.2-0.2,0.4-0.4,0.4
						C26.8,17.4,26.7,17.2,26.7,17z"/>
					<path fill="#37474F" d="M27.1,17.9c-0.5,0-0.9-0.4-0.9-0.9c0-0.5,0.4-0.9,0.9-0.9c0.2,0,0.5,0.1,0.7,0.3
						c0.2,0.2,0.3,0.4,0.3,0.6C28,17.5,27.6,17.9,27.1,17.9L27.1,17.9z"/>
				</g>
				<g>
					<path fill="#37474F" d="M23.8,17c0-0.2,0.2-0.4,0.4-0.4c0.2,0,0.4,0.2,0.4,0.4c0,0.2-0.2,0.4-0.4,0.4
						C24,17.4,23.8,17.2,23.8,17z"/>
					<path fill="#37474F" d="M24.2,17.9L24.2,17.9c-0.5,0-0.9-0.4-0.9-0.9c0-0.2,0.1-0.5,0.3-0.6c0.2-0.2,0.4-0.3,0.6-0.3
						c0.5,0,0.9,0.4,0.9,0.9C25.1,17.5,24.7,17.9,24.2,17.9z"/>
				</g>
				<g>
					<path fill="#37474F" d="M21,17c0-0.2,0.2-0.4,0.4-0.4c0.2,0,0.4,0.2,0.4,0.4c0,0.2-0.2,0.4-0.4,0.4C21.2,17.4,21,17.2,21,17z"
						/>
					<path fill="#37474F" d="M21.4,17.9L21.4,17.9c-0.5,0-0.9-0.4-0.9-0.9c0-0.5,0.4-0.9,0.9-0.9c0.5,0,0.9,0.4,0.9,0.9
						C22.3,17.5,21.9,17.9,21.4,17.9z M21.4,17.1l0,0.3L21.4,17.1c0.1,0,0.1,0,0.1-0.1c0-0.1,0-0.1-0.1-0.1v0c0,0,0,0,0,0v0
						C21.4,16.9,21.3,16.9,21.4,17.1C21.3,17,21.4,17.1,21.4,17.1z"/>
				</g>
			</g>
			<g>
				<line fill="#FFECB3" x1="16" y1="16.2" x2="16" y2="18.2"/>
				<path fill="#37474F" d="M16,18.8c-0.3,0-0.5-0.2-0.5-0.5v-2c0-0.3,0.2-0.5,0.5-0.5s0.5,0.2,0.5,0.5v2
					C16.5,18.5,16.3,18.8,16,18.8z"/>
			</g>
			<g>
				<line fill="#FFECB3" x1="18" y1="16.2" x2="18" y2="18.2"/>
				<path fill="#37474F" d="M18,18.8c-0.3,0-0.5-0.2-0.5-0.5v-2c0-0.3,0.2-0.5,0.5-0.5s0.5,0.2,0.5,0.5v2
					C18.5,18.5,18.3,18.8,18,18.8z"/>
			</g>
		</g>
		<g>
			<path fill="#37474F" d="M25.2,30.8c0,0.5-0.4,0.5-0.9,0.5h-5.7c-0.5,0-0.9,0-0.9-0.5l0,0c0-0.5,0.4-0.5,0.9-0.5h5.7
				C24.9,30.2,25.2,30.3,25.2,30.8L25.2,30.8z"/>
		</g>
		<g>
			<path fill="#37474F" d="M25.2,20.3c0,0.5-0.4,1-0.9,1h-5.7c-0.5,0-0.9-0.5-0.9-1l0,0c0-0.5,0.4-1,0.9-1h5.7
				C24.9,19.2,25.2,19.8,25.2,20.3L25.2,20.3z"/>
		</g>
		<g>
			<path fill="#37474F" d="M24.1,29.7c0,0.3-0.3,0.5-0.6,0.5h-3.9c-0.3,0-0.6-0.2-0.6-0.5l0,0c0-0.3,0.3-0.5,0.6-0.5h3.9
				C23.8,29.2,24.1,29.4,24.1,29.7L24.1,29.7z"/>
		</g>
	</g>
</g>
</svg>
