<?xml version="1.0" encoding="utf-8"?>
<!-- Generator: Adobe Illustrator 16.0.0, SVG Export Plug-In . SVG Version: 6.00 Build 0)  -->
<!DOCTYPE svg PUBLIC "-//W3C//DTD SVG 1.1//EN" "http://www.w3.org/Graphics/SVG/1.1/DTD/svg11.dtd">
<svg version="1.1" id="Layer_1" xmlns="http://www.w3.org/2000/svg" xmlns:xlink="http://www.w3.org/1999/xlink" x="0px" y="0px"
	 width="64px" height="64px" viewBox="0 0 64 64" enable-background="new 0 0 64 64" xml:space="preserve">
<g>
	<g>
		<path fill="#FFAB00" d="M34.1,26.4c0.2,1.8,0.9,3,2.9,3.8v1c0,1.8,1,3.4,3,4v8.1c0,2.4,1.6,4.3,4,4.3c2.4,0,4-1.9,4-4.3v-4.7
			c1,0.2,1.5,0.4,2.2,0.4c3.1,0,5.8-2.5,5.8-5.5V25"/>
		<path fill="#37474F" d="M44,48.5c-2.9,0-5-2.3-5-5.3v-7.4c-1.9-0.8-3-2.6-3-4.7v-0.3c-2.2-1-2.7-2.8-2.9-4.3
			C33,26,33.4,25.5,34,25.4c0.5-0.1,1.1,0.3,1.1,0.9c0.2,1.7,0.8,2.4,2.2,3c0.4,0.1,0.7,0.5,0.7,0.9v1c0,1.5,0.8,2.6,2.3,3.1
			c0.4,0.1,0.7,0.5,0.7,1v8.1c0,1.9,1.3,3.3,3,3.3c1.7,0,3-1.4,3-3.3v-4.7c0-0.3,0.1-0.6,0.4-0.8c0.2-0.2,0.6-0.3,0.9-0.2l0.2,0
			c0.9,0.2,1.3,0.3,1.9,0.3c2.6,0,4.8-2.1,4.8-4.5V25c0-0.6,0.4-1,1-1s1,0.4,1,1v8.4c0,3.5-3.1,6.5-6.8,6.5c-0.4,0-0.8,0-1.2-0.1
			v3.4C49,46.2,46.9,48.5,44,48.5z"/>
	</g>
	<g>
		<path fill="#37474F" d="M58,18.9c-0.4,0-0.7-0.2-0.9-0.6c-0.2-0.5,0-1.1,0.5-1.3c2-0.9,3.4-2.5,3.4-3.9V7.7C61,5.2,57.9,3,54.6,3
			H9.4C6.1,3,3,5.2,3,7.7V13c0,0.6-0.4,1-1,1s-1-0.4-1-1V7.7C1,4.1,4.9,1,9.4,1h45.1C59.1,1,63,4.1,63,7.7V13c0,2.8-2.4,4.8-4.6,5.8
			C58.3,18.9,58.2,18.9,58,18.9z"/>
	</g>
	<g>
		<path fill="#37474F" d="M32,48c-0.6,0-1-0.4-1-1V36L7.1,36c-1.9,0-3.8,0-5-1.2C1.4,34.1,1,33,1,31.5V9c0-0.6,0.4-1,1-1s1,0.4,1,1
			v22.5c0,0.9,0.2,1.6,0.5,1.9C4.2,34,5.6,34,7.1,34c0.3,0,0.6,0,0.8,0h24c0.6,0,1,0.4,1,1v12C33,47.6,32.6,48,32,48z"/>
	</g>
	<g>
		<path fill="#FFECB3" d="M33,26H16.6c-3.1,0-5.6-2.3-5.6-5.4v-5.3c0-3.1,2.6-5.4,5.6-5.4h35.2c3.1,0,5.2,2.3,5.2,5.4v5.3
			c0,3.1-2.2,5.5-5.3,5.5"/>
		<path fill="#37474F" d="M51.7,27.1c-0.6,0-1-0.4-1-1s0.4-1,1-1c2.5,0,4.3-1.9,4.3-4.5v-5.3c0-2.6-1.7-4.4-4.2-4.4H16.6
			C14,11,12,12.9,12,15.4v5.3c0,2.5,2,4.4,4.6,4.4H33c0.6,0,1,0.4,1,1s-0.4,1-1,1H16.6c-3.7,0-6.6-2.8-6.6-6.4v-5.3
			c0-3.6,2.9-6.4,6.6-6.4h35.2c3.6,0,6.2,2.7,6.2,6.4v5.3C58,24.3,55.3,27.1,51.7,27.1z"/>
	</g>
	<g>
		<path fill="#FFECB3" d="M27,62v-8.8c0-2.6,1.3-4.2,3.3-4.2h3.3c2,0,3.3,1.6,3.3,4.2V62"/>
		<path fill="#37474F" d="M37,63c-0.6,0-1-0.4-1-1v-8.8c0-1-0.2-3.2-2.3-3.2h-3.3c-2.1,0-2.3,2.2-2.3,3.2V62c0,0.6-0.4,1-1,1
			s-1-0.4-1-1v-8.8c0-3.1,1.7-5.2,4.3-5.2h3.3c2.6,0,4.3,2,4.3,5.2V62C38,62.6,37.6,63,37,63z"/>
	</g>
	<g>
		<path fill="#FFECB3" d="M10.4,21.6c-2,0-3.6-1.6-3.6-3.6s1.6-3.6,3.6-3.6"/>
		<path fill="#37474F" d="M10.4,22.6c-2.5,0-4.6-2.1-4.6-4.6s2.1-4.6,4.6-4.6c0.6,0,1,0.4,1,1s-0.4,1-1,1c-1.4,0-2.6,1.2-2.6,2.6
			s1.2,2.6,2.6,2.6c0.6,0,1,0.4,1,1S11,22.6,10.4,22.6z"/>
	</g>
	<g>
		<g>
			<path fill="#37474F" d="M33,56h-2c-0.6,0-1-0.4-1-1s0.4-1,1-1h2c0.6,0,1,0.4,1,1S33.6,56,33,56z"/>
		</g>
		<g>
			<path fill="#37474F" d="M33,61h-2c-0.6,0-1-0.4-1-1s0.4-1,1-1h2c0.6,0,1,0.4,1,1S33.6,61,33,61z"/>
		</g>
	</g>
	<g>
		<g>
			<path fill="#FFAB00" d="M51.6,26.2c3.1,0,5.4-2.5,5.4-5.5v-5.3c0-3.1-2.1-5.4-5.2-5.4H33.7l-0.1,16.3"/>
			<path fill="#37474F" d="M33.7,27.3C33.7,27.3,33.7,27.3,33.7,27.3c-0.6,0-1-0.5-1-1L32.7,10c0-0.6,0.4-1,1-1h18.1
				c3.6,0,6.2,2.7,6.2,6.4v5.3c0,3.7-2.8,6.5-6.4,6.5c-0.6,0-1-0.4-1-1s0.4-1,1-1c2.4,0,4.4-2,4.4-4.5v-5.3c0-2.6-1.7-4.4-4.2-4.4
				H34.7l0,15.3C34.7,26.8,34.2,27.3,33.7,27.3z"/>
		</g>
	</g>
</g>
</svg>
