<?xml version="1.0" encoding="utf-8"?>
<!-- Generator: Adobe Illustrator 16.0.0, SVG Export Plug-In . SVG Version: 6.00 Build 0)  -->
<!DOCTYPE svg PUBLIC "-//W3C//DTD SVG 1.1//EN" "http://www.w3.org/Graphics/SVG/1.1/DTD/svg11.dtd">
<svg version="1.1" id="Layer_1" xmlns="http://www.w3.org/2000/svg" xmlns:xlink="http://www.w3.org/1999/xlink" x="0px" y="0px"
	 width="64px" height="64px" viewBox="0 0 64 64" enable-background="new 0 0 64 64" xml:space="preserve">
<g>
	<g>
		<g>
			<path fill="#FFFFFF" d="M9,28v-5.1c0-2.7,2.5-4.9,5.2-4.9h12.4c2.7,0,5.4,2.2,5.4,4.9V28"/>
			<path fill="#37474F" d="M32,29c-0.6,0-1-0.4-1-1v-5.1c0-2-2.1-3.9-4.4-3.9H14.2C12,19,10,20.8,10,22.9V28c0,0.6-0.4,1-1,1
				s-1-0.4-1-1v-5.1c0-3.2,2.9-5.9,6.2-5.9h12.4c3.4,0,6.4,2.8,6.4,5.9V28C33,28.6,32.6,29,32,29z"/>
		</g>
		<g>
			<path fill="#FFFFFF" d="M32,28v-5.1c0-2.7,2.5-4.9,5.2-4.9h12.4c2.7,0,4.5,2.2,4.5,4.9V28"/>
			<path fill="#37474F" d="M54,29c-0.6,0-1-0.4-1-1v-5.1c0-2.3-1.4-3.9-3.5-3.9H37.2c-2.2,0-4.2,1.8-4.2,3.9V28c0,0.6-0.4,1-1,1
				s-1-0.4-1-1v-5.1c0-3.2,2.8-5.9,6.2-5.9h12.4c3.2,0,5.5,2.5,5.5,5.9V28C55,28.6,54.6,29,54,29z"/>
		</g>
	</g>
	<g>
		<path fill="#FFECB3" d="M3,34v-0.4c0-3,2-5.6,5-5.6h47.8c3,0,5.2,2.7,5.2,5.6V34"/>
		<path fill="#37474F" d="M61,35c-0.6,0-1-0.4-1-1v-0.4c0-2.6-1.9-4.6-4.2-4.6H8c-2.5,0-4,2.4-4,4.6V34c0,0.6-0.4,1-1,1s-1-0.4-1-1
			v-0.4C2,29.9,4.6,27,8,27h47.8c3.4,0,6.2,3,6.2,6.6V34C62,34.6,61.6,35,61,35z"/>
	</g>
	<g>
		<path fill="#37474F" d="M59,16c-0.6,0-1-0.4-1-1v-1.1c0-2.1-1.9-3.9-4.1-3.9H9.9C7.8,10,6,11.8,6,13.9V15c0,0.6-0.4,1-1,1
			s-1-0.4-1-1v-1.1C4,10.7,6.7,8,9.9,8h43.9c3.3,0,6.1,2.7,6.1,5.9V15C60,15.6,59.6,16,59,16z"/>
	</g>
	<g>
		<rect x="2" y="36" fill="#FFECB3" width="60" height="12"/>
		<path fill="#37474F" d="M62,49H2c-0.6,0-1-0.4-1-1V36c0-0.6,0.4-1,1-1h60c0.6,0,1,0.4,1,1v12C63,48.6,62.6,49,62,49z M3,47h58V37
			H3V47z"/>
	</g>
	<g>
		<g>
			<g>
				<line fill="#FFECB3" x1="8" y1="50" x2="8" y2="46"/>
				<path fill="#37474F" d="M8,51c-0.6,0-1-0.4-1-1v-4c0-0.6,0.4-1,1-1s1,0.4,1,1v4C9,50.6,8.6,51,8,51z"/>
			</g>
			<g>
				<path fill="#FFECB3" d="M4.3,54.1c0-2,1.6-3.6,3.6-3.6c2,0,3.6,1.6,3.6,3.6"/>
				<path fill="#37474F" d="M11.5,55.1c-0.6,0-1-0.4-1-1c0-1.4-1.2-2.6-2.6-2.6c-1.4,0-2.6,1.2-2.6,2.6c0,0.6-0.4,1-1,1s-1-0.4-1-1
					c0-2.5,2.1-4.6,4.6-4.6c2.5,0,4.6,2.1,4.6,4.6C12.5,54.6,12,55.1,11.5,55.1z"/>
			</g>
			<g>
				<line fill="#FFECB3" x1="17" y1="55" x2="2" y2="55"/>
				<path fill="#37474F" d="M17,56H2c-0.6,0-1-0.4-1-1s0.4-1,1-1h15c0.6,0,1,0.4,1,1S17.6,56,17,56z"/>
			</g>
		</g>
		<g>
			<g>
				<line fill="#FFECB3" x1="56" y1="50" x2="56" y2="46"/>
				<path fill="#37474F" d="M56,51c-0.6,0-1-0.4-1-1v-4c0-0.6,0.4-1,1-1s1,0.4,1,1v4C57,50.6,56.6,51,56,51z"/>
			</g>
			<g>
				<path fill="#FFECB3" d="M59.7,54.1c0-2-1.6-3.6-3.6-3.6s-3.6,1.6-3.6,3.6"/>
				<path fill="#37474F" d="M59.7,55.1c-0.6,0-1-0.4-1-1c0-1.4-1.2-2.6-2.6-2.6c-1.4,0-2.6,1.2-2.6,2.6c0,0.6-0.4,1-1,1s-1-0.4-1-1
					c0-2.5,2.1-4.6,4.6-4.6c2.5,0,4.6,2.1,4.6,4.6C60.7,54.6,60.3,55.1,59.7,55.1z"/>
			</g>
			<g>
				<line fill="#FFECB3" x1="47" y1="55" x2="62" y2="55"/>
				<path fill="#37474F" d="M62,56H47c-0.6,0-1-0.4-1-1s0.4-1,1-1h15c0.6,0,1,0.4,1,1S62.6,56,62,56z"/>
			</g>
		</g>
	</g>
	<g>
		<g>
			<g>
				<path fill="#37474F" d="M5,30c-0.6,0-1-0.4-1-1V18c0-0.6,0.4-1,1-1s1,0.4,1,1v11C6,29.6,5.6,30,5,30z"/>
			</g>
			<g>
				<path fill="#37474F" d="M7,18H3c-0.6,0-1-0.4-1-1s0.4-1,1-1h4c0.6,0,1,0.4,1,1S7.6,18,7,18z"/>
			</g>
		</g>
		<g>
			<g>
				<path fill="#37474F" d="M59,30c-0.6,0-1-0.4-1-1V18c0-0.6,0.4-1,1-1s1,0.4,1,1v11C60,29.6,59.6,30,59,30z"/>
			</g>
			<g>
				<path fill="#37474F" d="M61,18h-4c-0.6,0-1-0.4-1-1s0.4-1,1-1h4c0.6,0,1,0.4,1,1S61.6,18,61,18z"/>
			</g>
		</g>
	</g>
</g>
</svg>
