<?xml version="1.0" encoding="utf-8"?>
<!-- Generator: Adobe Illustrator 16.0.0, SVG Export Plug-In . SVG Version: 6.00 Build 0)  -->
<!DOCTYPE svg PUBLIC "-//W3C//DTD SVG 1.1//EN" "http://www.w3.org/Graphics/SVG/1.1/DTD/svg11.dtd">
<svg version="1.1" id="Layer_1" xmlns="http://www.w3.org/2000/svg" xmlns:xlink="http://www.w3.org/1999/xlink" x="0px" y="0px"
	 width="64px" height="64px" viewBox="0 0 64 64" enable-background="new 0 0 64 64" xml:space="preserve">
<g>
	<g>
		<rect x="1.6" y="16.5" fill="#FFAB00" width="60.8" height="6.5"/>
		<path fill="#37474F" d="M62.4,24H1.6c-0.6,0-1-0.4-1-1v-6.5c0-0.6,0.4-1,1-1h60.8c0.6,0,1,0.4,1,1V23C63.4,23.6,63,24,62.4,24z
			 M2.6,22h58.8v-4.5H2.6V22z"/>
	</g>
	<g>
		<polyline fill="#FFECB3" points="41.7,62.4 47.1,1.6 53.6,1.6 59,62.4 		"/>
		<path fill="#37474F" d="M59,63.4c-0.5,0-0.9-0.4-1-0.9L52.7,2.6H48l-5.3,59.9c0,0.5-0.5,1-1.1,0.9c-0.5,0-1-0.5-0.9-1.1l5.4-60.8
			c0-0.5,0.5-0.9,1-0.9h6.5c0.5,0,1,0.4,1,0.9L60,62.3C60,62.9,59.6,63.4,59,63.4C59.1,63.4,59,63.4,59,63.4z"/>
	</g>
	<g>
		<line fill="#FFFFFF" x1="7.6" y1="23.2" x2="7.6" y2="29.1"/>
		<path fill="#37474F" d="M7.6,30.1c-0.6,0-1-0.4-1-1v-5.9c0-0.6,0.4-1,1-1s1,0.4,1,1v5.9C8.6,29.7,8.2,30.1,7.6,30.1z"/>
	</g>
	<g>
		<line fill="#FFFFFF" x1="4.7" y1="32.4" x2="10.5" y2="32.4"/>
		<path fill="#37474F" d="M10.5,33.4H4.7c-0.6,0-1-0.4-1-1s0.4-1,1-1h5.8c0.6,0,1,0.4,1,1S11.1,33.4,10.5,33.4z"/>
	</g>
	<g>
		<path fill="#FFECB3" d="M1.7,40.5L1.7,40.5c0-2.8,2.2-5,5-5h1.9c2.8,0,5,2.2,5,5l0,0"/>
		<path fill="#37474F" d="M13.6,41.5c-0.6,0-1-0.4-1-1c0-2.2-1.8-4-4-4H6.7c-2.2,0-4,1.8-4,4c0,0.6-0.4,1-1,1s-1-0.4-1-1
			c0-3.3,2.7-6,6-6h1.9c3.3,0,6,2.7,6,6C14.6,41,14.1,41.5,13.6,41.5z"/>
	</g>
	<g>
		<line fill="#FFECB3" x1="33.2" y1="15.5" x2="47.1" y2="1.6"/>
		<path fill="#37474F" d="M33.2,16.5c-0.3,0-0.5-0.1-0.7-0.3c-0.4-0.4-0.4-1,0-1.4L46.4,0.9c0.4-0.4,1-0.4,1.4,0s0.4,1,0,1.4
			L33.9,16.2C33.7,16.4,33.4,16.5,33.2,16.5z"/>
	</g>
	<g>
		<path fill="#FFECB3" d="M7.5,43l0.2,6.3c-1.6,0-2.8,1.3-2.8,2.8c0,1.6,1.3,2.8,2.8,2.8c1.6,0,2.8-1.3,2.8-2.8"/>
		<path fill="#37474F" d="M7.6,56c-2.1,0-3.8-1.7-3.8-3.8c0-1.7,1.2-3.2,2.8-3.7L6.5,43c0-0.6,0.4-1,1-1c0,0,0,0,0,0
			c0.5,0,1,0.4,1,1l0.2,6.3c0,0.3-0.1,0.5-0.3,0.7s-0.4,0.3-0.7,0.3c-1,0-1.8,0.8-1.8,1.8S6.6,54,7.6,54s1.8-0.8,1.8-1.8
			c0-0.6,0.4-1,1-1s1,0.4,1,1C11.4,54.3,9.7,56,7.6,56z"/>
	</g>
	<g>
		<path fill="#37474F" d="M43.2,62.4c-0.3,0-0.5-0.1-0.7-0.3c-0.4-0.4-0.4-1,0-1.4l13.4-13.4L43.8,34.5c-0.4-0.4-0.4-1,0-1.4l10-10
			l-7.7-7.7c-0.4-0.4-0.4-1,0-1.4L53,7.1c0.4-0.4,1-0.4,1.4,0s0.4,1,0,1.4l-6.2,6.2l7.7,7.7c0.4,0.4,0.4,1,0,1.4l-10,10L58,46.7
			c0.4,0.4,0.4,1,0,1.4l-14,14C43.8,62.3,43.5,62.4,43.2,62.4z"/>
	</g>
</g>
</svg>
