<?xml version="1.0" encoding="utf-8"?>
<!-- Generator: Adobe Illustrator 16.0.0, SVG Export Plug-In . SVG Version: 6.00 Build 0)  -->
<!DOCTYPE svg PUBLIC "-//W3C//DTD SVG 1.1//EN" "http://www.w3.org/Graphics/SVG/1.1/DTD/svg11.dtd">
<svg version="1.1" id="Layer_1" xmlns="http://www.w3.org/2000/svg" xmlns:xlink="http://www.w3.org/1999/xlink" x="0px" y="0px"
	 width="64px" height="64px" viewBox="0 0 64 64" enable-background="new 0 0 64 64" xml:space="preserve">
<g>
	<g>
		<g>
			<g>
				<ellipse fill="#FFECB3" cx="32" cy="8.5" rx="8" ry="6.9"/>
				<path fill="#37474F" d="M32,16.4c-5,0-9-3.5-9-7.9s4-7.9,9-7.9s9,3.5,9,7.9S37,16.4,32,16.4z M32,2.6c-3.9,0-7,2.6-7,5.9
					s3.1,5.9,7,5.9s7-2.6,7-5.9S35.9,2.6,32,2.6z"/>
			</g>
			<g>
				<path fill="#37474F" d="M32,63c-0.6,0-1-0.4-1-1V16c0-0.6,0.4-1,1-1s1,0.4,1,1v46C33,62.6,32.6,63,32,63z"/>
			</g>
		</g>
		<g>
			<path fill="#37474F" d="M37,55c-0.6,0-1-0.4-1-1v-2h-4c-0.6,0-1-0.4-1-1s0.4-1,1-1h5c0.6,0,1,0.4,1,1v3C38,54.6,37.6,55,37,55z"
				/>
		</g>
		<g>
			<path fill="#37474F" d="M37,60h-5c-0.6,0-1-0.4-1-1s0.4-1,1-1h5c0.6,0,1,0.4,1,1S37.6,60,37,60z"/>
		</g>
	</g>
	<g>
		<g>
			<path fill="#FFECB3" d="M20.3,7.9C11.4,12.2,5.2,21.4,5.2,32c0,10.6,6.2,19.8,15.1,24.1"/>
			<path fill="#37474F" d="M20.3,57.1c-0.1,0-0.3,0-0.4-0.1C10.4,52.4,4.2,42.6,4.2,32s6.2-20.4,15.7-25c0.5-0.2,1.1,0,1.3,0.5
				c0.2,0.5,0,1.1-0.5,1.3C11.9,13.1,6.2,22.2,6.2,32s5.7,18.9,14.6,23.2c0.5,0.2,0.7,0.8,0.5,1.3C21.1,56.9,20.7,57.1,20.3,57.1z"
				/>
		</g>
		<g>
			<path fill="#FFECB3" d="M43.7,56.1c9-4.3,15.1-13.5,15.1-24.1c0-10.6-6.2-19.8-15.1-24.1"/>
			<path fill="#37474F" d="M43.7,57.1c-0.4,0-0.7-0.2-0.9-0.6c-0.2-0.5,0-1.1,0.5-1.3c8.8-4.3,14.6-13.4,14.6-23.2
				c0-9.8-5.7-18.9-14.6-23.2c-0.5-0.2-0.7-0.8-0.5-1.3C43,6.9,43.6,6.7,44.1,7c9.5,4.6,15.7,14.4,15.7,25c0,10.6-6.2,20.4-15.7,25
				C44,57.1,43.8,57.1,43.7,57.1z"/>
		</g>
	</g>
</g>
</svg>
