<?xml version="1.0" encoding="utf-8"?>
<!-- Generator: Adobe Illustrator 16.0.0, SVG Export Plug-In . SVG Version: 6.00 Build 0)  -->
<!DOCTYPE svg PUBLIC "-//W3C//DTD SVG 1.1//EN" "http://www.w3.org/Graphics/SVG/1.1/DTD/svg11.dtd">
<svg version="1.1" id="Layer_1" xmlns="http://www.w3.org/2000/svg" xmlns:xlink="http://www.w3.org/1999/xlink" x="0px" y="0px"
	 width="65px" height="65px" viewBox="0 0 65 65" enable-background="new 0 0 65 65" xml:space="preserve">
<g>
	<g>
		<polyline fill="#FFECB3" points="60.6,4.5 60.6,61.5 4.7,61.5 4.7,4.5 		"/>
		<path fill="#37474F" d="M60.6,62.5H4.7c-0.6,0-1-0.4-1-1v-57c0-0.6,0.4-1,1-1s1,0.4,1,1v56h53.9v-56c0-0.6,0.4-1,1-1s1,0.4,1,1v57
			C61.6,62.1,61.1,62.5,60.6,62.5z"/>
	</g>
	<g>
		<line fill="#FFECB3" x1="1.4" y1="61.5" x2="62.9" y2="61.5"/>
		<path fill="#37474F" d="M62.9,62.5H1.4c-0.6,0-1-0.4-1-1s0.4-1,1-1h61.5c0.6,0,1,0.4,1,1S63.4,62.5,62.9,62.5z"/>
	</g>
	<g>
		<g>
			<polyline fill="#FFECB3" points="6.8,37 32.6,37 32.6,46.6 6.8,46.6 			"/>
			<path fill="#37474F" d="M32.6,47.6H6.8c-0.6,0-1-0.4-1-1s0.4-1,1-1h24.8V38H6.8c-0.6,0-1-0.4-1-1s0.4-1,1-1h25.8c0.6,0,1,0.4,1,1
				v9.6C33.6,47.2,33.1,47.6,32.6,47.6z"/>
		</g>
		<g>
			<polyline fill="#FFECB3" points="58.5,46.6 32.7,46.6 32.7,37 58.5,37 			"/>
			<path fill="#37474F" d="M58.5,47.6H32.7c-0.6,0-1-0.4-1-1V37c0-0.6,0.4-1,1-1h25.8c0.6,0,1,0.4,1,1s-0.4,1-1,1H33.7v7.6h24.8
				c0.6,0,1,0.4,1,1S59,47.6,58.5,47.6z"/>
		</g>
	</g>
	<g>
		<g>
			<polyline fill="#FFECB3" points="6.8,17.1 32.6,17.1 32.6,26.7 6.8,26.7 			"/>
			<path fill="#37474F" d="M32.6,27.7H6.8c-0.6,0-1-0.4-1-1s0.4-1,1-1h24.8v-7.6H6.8c-0.6,0-1-0.4-1-1s0.4-1,1-1h25.8
				c0.6,0,1,0.4,1,1v9.6C33.6,27.3,33.1,27.7,32.6,27.7z"/>
		</g>
		<g>
			<polyline fill="#FFECB3" points="58.5,26.7 32.7,26.7 32.7,17.1 58.5,17.1 			"/>
			<path fill="#37474F" d="M58.5,27.7H32.7c-0.6,0-1-0.4-1-1v-9.6c0-0.6,0.4-1,1-1h25.8c0.6,0,1,0.4,1,1s-0.4,1-1,1H33.7v7.6h24.8
				c0.6,0,1,0.4,1,1S59,27.7,58.5,27.7z"/>
		</g>
	</g>
	<g>
		<g>
			<rect x="19.7" y="27.1" fill="#FFECB3" width="25.8" height="9.6"/>
			<path fill="#37474F" d="M45.5,37.7H19.7c-0.6,0-1-0.4-1-1v-9.6c0-0.6,0.4-1,1-1h25.8c0.6,0,1,0.4,1,1v9.6
				C46.5,37.3,46.1,37.7,45.5,37.7z M20.7,35.7h23.8v-7.6H20.7V35.7z"/>
		</g>
		<g>
			<rect x="5.2" y="27.1" fill="#FFECB3" width="14" height="9.6"/>
			<path fill="#37474F" d="M19.2,37.7h-14c-0.6,0-1-0.4-1-1v-9.6c0-0.6,0.4-1,1-1h14c0.6,0,1,0.4,1,1v9.6
				C20.2,37.3,19.8,37.7,19.2,37.7z M6.2,35.7h12v-7.6h-12V35.7z"/>
		</g>
		<g>
			<rect x="45.8" y="27.1" fill="#FFECB3" width="14" height="9.6"/>
			<path fill="#37474F" d="M59.8,37.7h-14c-0.6,0-1-0.4-1-1v-9.6c0-0.6,0.4-1,1-1h14c0.6,0,1,0.4,1,1v9.6
				C60.8,37.3,60.3,37.7,59.8,37.7z M46.8,35.7h12v-7.6h-12V35.7z"/>
		</g>
	</g>
	<g>
		<g>
			<rect x="19.7" y="46.6" fill="#FFECB3" width="25.8" height="9.6"/>
			<path fill="#37474F" d="M45.5,57.2H19.7c-0.6,0-1-0.4-1-1v-9.6c0-0.6,0.4-1,1-1h25.8c0.6,0,1,0.4,1,1v9.6
				C46.5,56.8,46.1,57.2,45.5,57.2z M20.7,55.2h23.8v-7.6H20.7V55.2z"/>
		</g>
		<g>
			<rect x="5.2" y="46.6" fill="#FFAB00" width="14" height="9.6"/>
			<path fill="#37474F" d="M19.2,57.2h-14c-0.6,0-1-0.4-1-1v-9.6c0-0.6,0.4-1,1-1h14c0.6,0,1,0.4,1,1v9.6
				C20.2,56.8,19.8,57.2,19.2,57.2z M6.2,55.2h12v-7.6h-12V55.2z"/>
		</g>
		<g>
			<rect x="45.8" y="46.6" fill="#FFECB3" width="14" height="9.6"/>
			<path fill="#37474F" d="M59.8,57.2h-14c-0.6,0-1-0.4-1-1v-9.6c0-0.6,0.4-1,1-1h14c0.6,0,1,0.4,1,1v9.6
				C60.8,56.8,60.3,57.2,59.8,57.2z M46.8,55.2h12v-7.6h-12V55.2z"/>
		</g>
	</g>
	<g>
		<g>
			<rect x="19.7" y="7.3" fill="#FFECB3" width="25.8" height="9.6"/>
			<path fill="#37474F" d="M45.5,17.9H19.7c-0.6,0-1-0.4-1-1V7.3c0-0.6,0.4-1,1-1h25.8c0.6,0,1,0.4,1,1v9.6
				C46.5,17.5,46.1,17.9,45.5,17.9z M20.7,15.9h23.8V8.3H20.7V15.9z"/>
		</g>
		<g>
			<rect x="5.2" y="7.3" fill="#FFECB3" width="14" height="9.6"/>
			<path fill="#37474F" d="M19.2,17.9h-14c-0.6,0-1-0.4-1-1V7.3c0-0.6,0.4-1,1-1h14c0.6,0,1,0.4,1,1v9.6
				C20.2,17.5,19.8,17.9,19.2,17.9z M6.2,15.9h12V8.3h-12V15.9z"/>
		</g>
		<g>
			<rect x="45.8" y="7.3" fill="#FFAB00" width="14" height="9.6"/>
			<path fill="#37474F" d="M59.8,17.9h-14c-0.6,0-1-0.4-1-1V7.3c0-0.6,0.4-1,1-1h14c0.6,0,1,0.4,1,1v9.6
				C60.8,17.5,60.3,17.9,59.8,17.9z M46.8,15.9h12V8.3h-12V15.9z"/>
		</g>
	</g>
</g>
</svg>
