<?xml version="1.0" encoding="utf-8"?>
<!-- Generator: Adobe Illustrator 16.0.0, SVG Export Plug-In . SVG Version: 6.00 Build 0)  -->
<!DOCTYPE svg PUBLIC "-//W3C//DTD SVG 1.1//EN" "http://www.w3.org/Graphics/SVG/1.1/DTD/svg11.dtd">
<svg version="1.1" id="Layer_1" xmlns="http://www.w3.org/2000/svg" xmlns:xlink="http://www.w3.org/1999/xlink" x="0px" y="0px"
	 width="24px" height="24px" viewBox="0 0 24 24" enable-background="new 0 0 24 24" xml:space="preserve">
<g>
	<path d="M20.2,2.7h-5.2V2.3c0-0.3-0.2-0.5-0.5-0.5h-0.9l-0.3-0.7c-0.1-0.2-0.3-0.3-0.5-0.3H11c-0.3,0-0.5,0.2-0.5,0.5
		s0.2,0.5,0.5,0.5h1.4l0.3,0.7c0.1,0.2,0.2,0.2,0.4,0.3H3.7C2,2.7,0.3,4,0.3,5.8v1.3c0,0.3,0.2,0.5,0.5,0.5h4.4v1.5
		c0,0.3,0.2,0.5,0.5,0.5h1.8c0,0,0,0,0,0v0.9H6.7c-0.6,0-1,0.6-1,1.1c0,0.2,0.1,0.3,0.1,0.5c-0.1,0.1-0.1,0.3-0.1,0.5
		c0,0.1,0,0.7,0.8,0.8H1.6c-0.1,0-0.3,0.1-0.4,0.1S1.1,13.8,1.1,14c0,2.5,2,4.6,4.7,5.3H1.1c-0.1,0-0.3,0.1-0.4,0.2
		s-0.1,0.2-0.1,0.4c0.2,2.1,1.4,3.4,3.1,3.4h16.5c1.8,0,3.5-1.7,3.5-3.4v-14C23.7,4,21.8,2.7,20.2,2.7z M6.2,7.6H10v1H6.2V7.6z
		 M6.7,11.5l2.5,0c0,0,0.1,0.1,0,0.2c-0.3,0-0.5,0.2-0.5,0.5c0,0,0,0,0,0s0,0,0,0c0,0,0,0,0,0c0,0.1,0,0.1,0,0.2c0,0,0,0,0,0H7.2
		c0-0.1,0-0.1,0-0.2c0,0,0-0.1,0-0.1c0,0,0,0,0,0c0-0.3-0.2-0.5-0.5-0.5c0,0,0,0,0,0c0,0,0,0,0,0C6.6,11.6,6.7,11.5,6.7,11.5z
		 M2.2,14.4h11.6c-0.3,2.4-2.8,4.1-5.8,4.1C4.9,18.6,2.5,16.8,2.2,14.4z M14.8,14c0-0.1-0.1-0.3-0.1-0.4s-0.2-0.1-0.4-0.1H9.5
		c0.7-0.1,0.8-0.7,0.8-0.8c0-0.1,0-0.3-0.1-0.5c0.1-0.1,0.1-0.3,0.1-0.5c0-0.5-0.4-1.1-1-1.1H8.5V9.6c0,0,0,0,0,0h2.1
		c0.3,0,0.5-0.2,0.5-0.5V7.6H14c1.9,0,1.9,0.6,1.9,0.9v9.8c0,0.2,0,0.9-1.9,0.9h-3.8C12.9,18.6,14.8,16.5,14.8,14z M22.7,19.8
		c0,1.2-1.3,2.4-2.5,2.4H3.7c-1,0-1.7-0.7-2-1.9H14c2.5,0,2.9-1.2,2.9-1.9V8.5c0-1.2-1-1.9-2.9-1.9h-3.4H5.7H1.3V5.8
		c0-1.2,1.3-2.1,2.4-2.1h16.5c1.2,0,2.5,0.9,2.5,2.1V19.8z"/>
	<path d="M18.8,7.6h2c0.3,0,0.5-0.2,0.5-0.5S21,6.6,20.8,6.6h-2c-0.3,0-0.5,0.2-0.5,0.5S18.5,7.6,18.8,7.6z"/>
	<path d="M18.8,10.6h2c0.3,0,0.5-0.2,0.5-0.5S21,9.6,20.8,9.6h-2c-0.3,0-0.5,0.2-0.5,0.5S18.5,10.6,18.8,10.6z"/>
	<path d="M20.2,15.8c-0.2-0.2-0.5-0.2-0.7,0l-0.7,0.7c-0.2,0.2-0.2,0.5,0,0.7s0.5,0.2,0.7,0l0.3-0.3l0.3,0.3
		c0.1,0.1,0.2,0.1,0.4,0.1s0.3,0,0.4-0.1c0.2-0.2,0.2-0.5,0-0.7L20.2,15.8z"/>
	<path d="M21.4,12.8c-0.4,0-0.8,0.3-0.8,0.8s0.3,0.8,0.8,0.8s0.8-0.3,0.8-0.7c0-0.2-0.1-0.4-0.2-0.5S21.6,12.8,21.4,12.8z"/>
	<path d="M19.1,13.1c-0.1,0.1-0.2,0.3-0.2,0.5c0,0.4,0.3,0.8,0.8,0.8c0.4,0,0.7-0.3,0.8-0.8c0-0.4-0.4-0.7-0.8-0.7
		C19.4,12.8,19.2,12.9,19.1,13.1z"/>
	<path d="M17.8,12.8c-0.4,0-0.8,0.3-0.8,0.8s0.3,0.8,0.8,0.8c0.4,0,0.8-0.3,0.8-0.8C18.6,13.2,18.2,12.8,17.8,12.8z"/>
</g>
</svg>
