<?xml version="1.0" encoding="utf-8"?>
<!-- Generator: Adobe Illustrator 16.0.0, SVG Export Plug-In . SVG Version: 6.00 Build 0)  -->
<!DOCTYPE svg PUBLIC "-//W3C//DTD SVG 1.1//EN" "http://www.w3.org/Graphics/SVG/1.1/DTD/svg11.dtd">
<svg version="1.1" id="Layer_1" xmlns="http://www.w3.org/2000/svg" xmlns:xlink="http://www.w3.org/1999/xlink" x="0px" y="0px"
	 width="128px" height="128px" viewBox="0 0 128 128" enable-background="new 0 0 128 128" xml:space="preserve">
<g>
	<g>
		<line fill="#FFECB3" x1="64" y1="25" x2="64" y2="123"/>
		<path fill="#37474F" d="M64,125c-1.1,0-2-0.9-2-2V25c0-1.1,0.9-2,2-2s2,0.9,2,2v98C66,124.1,65.1,125,64,125z"/>
	</g>
	<g>
		<line fill="#FFECB3" x1="41" y1="125" x2="87" y2="125"/>
		<path fill="#37474F" d="M87,127H41c-1.1,0-2-0.9-2-2s0.9-2,2-2h46c1.1,0,2,0.9,2,2S88.1,127,87,127z"/>
	</g>
	<g>
		<circle fill="#FFECB3" cx="64" cy="9.4" r="6.2"/>
		<path fill="#37474F" d="M64,17.6c-4.5,0-8.2-3.7-8.2-8.2c0-4.5,3.7-8.2,8.2-8.2c4.5,0,8.2,3.7,8.2,8.2
			C72.2,13.9,68.5,17.6,64,17.6z M64,5.2c-2.3,0-4.2,1.9-4.2,4.2c0,2.3,1.9,4.2,4.2,4.2c2.3,0,4.2-1.9,4.2-4.2
			C68.2,7.1,66.3,5.2,64,5.2z"/>
	</g>
	<g>
		<polyline fill="#FFECB3" points="72,26 99.8,26 110.5,35 99.8,44 72,44 		"/>
		<path fill="#37474F" d="M99.8,46H72c-1.1,0-2-0.9-2-2s0.9-2,2-2h27.1l8.3-7l-8.3-7H72c-1.1,0-2-0.9-2-2s0.9-2,2-2h27.8
			c0.5,0,0.9,0.2,1.3,0.5l10.7,9c0.5,0.4,0.7,0.9,0.7,1.5s-0.3,1.1-0.7,1.5l-10.7,9C100.7,45.8,100.3,46,99.8,46z"/>
	</g>
	<g>
		<polyline fill="#B0BEC5" points="72,54 99.8,54 110.5,63 99.8,72 72,72 		"/>
		<path fill="#37474F" d="M99.8,74H72c-1.1,0-2-0.9-2-2s0.9-2,2-2h27.1l8.3-7l-8.3-7H72c-1.1,0-2-0.9-2-2s0.9-2,2-2h27.8
			c0.5,0,0.9,0.2,1.3,0.5l10.7,9c0.5,0.4,0.7,0.9,0.7,1.5s-0.3,1.1-0.7,1.5l-10.7,9C100.7,73.8,100.3,74,99.8,74z"/>
	</g>
	<g>
		<polyline fill="#FFAB00" points="56,44 28.2,44 17.5,35 28.2,26 56,26 		"/>
		<path fill="#37474F" d="M56,46H28.2c-0.5,0-0.9-0.2-1.3-0.5l-10.7-9c-0.5-0.4-0.7-0.9-0.7-1.5s0.3-1.1,0.7-1.5l10.7-9
			c0.4-0.3,0.8-0.5,1.3-0.5H56c1.1,0,2,0.9,2,2s-0.9,2-2,2H28.9l-8.3,7l8.3,7H56c1.1,0,2,0.9,2,2S57.1,46,56,46z"/>
	</g>
</g>
</svg>
