<?xml version="1.0" encoding="utf-8"?>
<!-- Generator: Adobe Illustrator 16.0.0, SVG Export Plug-In . SVG Version: 6.00 Build 0)  -->
<!DOCTYPE svg PUBLIC "-//W3C//DTD SVG 1.1//EN" "http://www.w3.org/Graphics/SVG/1.1/DTD/svg11.dtd">
<svg version="1.1" id="Layer_1" xmlns="http://www.w3.org/2000/svg" xmlns:xlink="http://www.w3.org/1999/xlink" x="0px" y="0px"
	 width="129px" height="129px" viewBox="0 0 129 129" enable-background="new 0 0 129 129" xml:space="preserve">
<g>
	<g>
		<path fill="#FFECB3" d="M57.3,72.6l19.8-19.8c4.9-4.9,12.8-4.9,17.7,0l4.7,4.7c4.9,4.9,4.9,12.8,0,17.7"/>
		<path fill="#37474F" d="M99.5,77.2c-0.5,0-1-0.2-1.4-0.6c-0.8-0.8-0.8-2,0-2.8c2-2,3.1-4.6,3.1-7.4s-1.1-5.4-3.1-7.4l-4.7-4.7
			c-4.1-4.1-10.8-4.1-14.8,0L58.7,74c-0.8,0.8-2,0.8-2.8,0s-0.8-2,0-2.8l19.8-19.8c5.7-5.7,14.9-5.7,20.5,0l4.7,4.7
			c2.7,2.7,4.2,6.4,4.2,10.2c0,3.9-1.5,7.5-4.2,10.2C100.5,77,100,77.2,99.5,77.2z"/>
	</g>
	<g>
		<path fill="#FFECB3" d="M69.9,60.2L50,80c-4.9,4.9-12.8,4.9-17.7,0l-4.7-4.7c-4.9-4.9-4.9-12.8,0-17.7"/>
		<path fill="#37474F" d="M41.2,85.7c-3.7,0-7.4-1.4-10.2-4.2l-4.7-4.7C23.5,74,22,70.4,22,66.5c0-3.9,1.5-7.5,4.2-10.3
			c0.8-0.8,2-0.8,2.8,0s0.8,2,0,2.8c-2,2-3.1,4.6-3.1,7.4c0,2.8,1.1,5.4,3.1,7.4l4.7,4.7c4.1,4.1,10.8,4.1,14.8,0l19.8-19.8
			c0.8-0.8,2-0.8,2.8,0c0.8,0.8,0.8,2,0,2.8L51.5,81.5C48.6,84.3,44.9,85.7,41.2,85.7z"/>
	</g>
	<g>
		
			<rect x="51.9" y="83.3" transform="matrix(0.7071 -0.7071 0.7071 0.7071 -46.9361 83.1067)" fill="#78909C" width="49.9" height="29.8"/>
		<path fill="#37474F" d="M69.7,128.4c-0.5,0-1-0.2-1.4-0.6l-21.1-21.1c-0.8-0.8-0.8-2,0-2.8l35.3-35.3c0.4-0.4,0.9-0.6,1.4-0.6l0,0
			c0.5,0,1,0.2,1.4,0.6l21.1,21.1c0.8,0.8,0.8,2,0,2.8l-35.3,35.3C70.8,128.2,70.3,128.4,69.7,128.4z M51.5,105.3l18.2,18.2
			l32.4-32.4L84,72.9L51.5,105.3z"/>
	</g>
	<g>
		<circle fill="#FFECB3" cx="43.8" cy="43.5" r="19.3"/>
		<path fill="#37474F" d="M43.8,64.8c-11.7,0-21.3-9.6-21.3-21.3c0-11.7,9.6-21.3,21.3-21.3c11.7,0,21.3,9.6,21.3,21.3
			C65.1,55.3,55.6,64.8,43.8,64.8z M43.8,26.2c-9.5,0-17.3,7.8-17.3,17.3c0,9.5,7.8,17.3,17.3,17.3c9.5,0,17.3-7.8,17.3-17.3
			C61.1,34,53.4,26.2,43.8,26.2z"/>
	</g>
	<g>
		<circle fill="#FFFFFF" cx="40.3" cy="47" r="5.6"/>
		<path fill="#37474F" d="M40.3,54.6c-4.2,0-7.6-3.4-7.6-7.6c0-4.2,3.4-7.6,7.6-7.6s7.6,3.4,7.6,7.6C47.9,51.2,44.5,54.6,40.3,54.6z
			 M40.3,43.4c-2,0-3.6,1.6-3.6,3.6c0,2,1.6,3.6,3.6,3.6s3.6-1.6,3.6-3.6C43.9,45,42.3,43.4,40.3,43.4z"/>
	</g>
	<g>
		<polyline fill="#FFECB3" points="45.2,25.8 66.7,4.3 84.7,2.6 83.1,20.7 61.6,42.2 		"/>
		<path fill="#37474F" d="M61.6,44.2c-0.5,0-1-0.2-1.4-0.6c-0.8-0.8-0.8-2,0-2.8l21-21l1.4-14.9L67.6,6.2l-21,21
			c-0.8,0.8-2,0.8-2.8,0c-0.8-0.8-0.8-2,0-2.8L65.3,2.9c0.3-0.3,0.8-0.5,1.2-0.6l18.1-1.7c0.6-0.1,1.2,0.2,1.6,0.6
			c0.4,0.4,0.6,1,0.6,1.6l-1.7,18.1c0,0.5-0.2,0.9-0.6,1.2L63,43.6C62.6,44,62.1,44.2,61.6,44.2z"/>
	</g>
	<g>
		<line fill="#FFECB3" x1="55.7" y1="33.3" x2="70.7" y2="18.3"/>
		<path fill="#37474F" d="M55.7,35.3c-0.5,0-1-0.2-1.4-0.6c-0.8-0.8-0.8-2,0-2.8l15-15c0.8-0.8,2-0.8,2.8,0c0.8,0.8,0.8,2,0,2.8
			l-15,15C56.7,35.1,56.2,35.3,55.7,35.3z"/>
	</g>
	<g>
		<line fill="#FFECB3" x1="69.2" y1="14.2" x2="74.6" y2="19.6"/>
		<path fill="#37474F" d="M74.6,21.6c-0.5,0-1-0.2-1.4-0.6l-5.4-5.4c-0.8-0.8-0.8-2,0-2.8c0.8-0.8,2-0.8,2.8,0l5.4,5.4
			c0.8,0.8,0.8,2,0,2.8C75.6,21.4,75.1,21.6,74.6,21.6z"/>
	</g>
	<g>
		<line fill="#FFECB3" x1="64.8" y1="118.3" x2="97.8" y2="85.2"/>
		<path fill="#37474F" d="M64.8,120.3c-0.5,0-1-0.2-1.4-0.6c-0.8-0.8-0.8-2,0-2.8l33.1-33.1c0.8-0.8,2-0.8,2.8,0s0.8,2,0,2.8
			l-33.1,33.1C65.8,120.1,65.3,120.3,64.8,120.3z"/>
	</g>
</g>
</svg>
