<?xml version="1.0" encoding="utf-8"?>
<!-- Generator: Adobe Illustrator 16.0.0, SVG Export Plug-In . SVG Version: 6.00 Build 0)  -->
<!DOCTYPE svg PUBLIC "-//W3C//DTD SVG 1.1//EN" "http://www.w3.org/Graphics/SVG/1.1/DTD/svg11.dtd">
<svg version="1.1" id="Layer_1" xmlns="http://www.w3.org/2000/svg" xmlns:xlink="http://www.w3.org/1999/xlink" x="0px" y="0px"
	 width="128px" height="128px" viewBox="0 0 128 128" enable-background="new 0 0 128 128" xml:space="preserve">
<g>
	<g>
		<path fill="#FFAB00" d="M67.2,54c0.5,3.5,2.8,5.3,5.8,6.8v1.9c0,3.7,3,6.8,6,8V87c0,4.7,3.8,8.6,8.5,8.6c4.7,0,8.5-3.8,8.5-8.6
			v-9.3c1,0.5,2.6,0.8,4,0.8c6.1,0,11-5,11-11.1V50"/>
		<path fill="#37474F" d="M87.5,97.6C81.7,97.6,77,92.8,77,87V72c-3.1-1.7-6-5.1-6-9.3V62c-2.6-1.4-5.2-3.6-5.8-7.7
			c-0.2-1.1,0.6-2.1,1.7-2.3c1.1-0.2,2.1,0.6,2.3,1.7c0.3,2.3,1.6,3.8,4.7,5.3c0.7,0.3,1.1,1,1.1,1.8v1.9c0,2.8,2.4,5.3,4.8,6.2
			c0.8,0.3,1.2,1,1.2,1.9V87c0,3.7,2.9,6.6,6.5,6.6c3.6,0,6.5-3,6.5-6.6v-9.3c0-0.7,0.4-1.3,0.9-1.7c0.6-0.4,1.3-0.4,1.9-0.1
			c0.7,0.3,1.9,0.6,3.1,0.6c5,0,9-4.1,9-9.1V50c0-1.1,0.9-2,2-2s2,0.9,2,2v17.3c0,7.2-5.8,13.1-13,13.1c-0.7,0-1.3-0.1-2-0.1V87
			C98,92.8,93.3,97.6,87.5,97.6z"/>
	</g>
	<g>
		<path fill="#37474F" d="M115.6,38.6c-0.8,0-1.5-0.4-1.8-1.2c-0.4-1,0-2.2,1-2.6c3.8-1.7,6.2-4.9,6.2-8.1V16c0-5-5.3-9-12.1-9H18.7
			C11.8,7,6,11.1,6,16v11c0,1.1-0.9,2-2,2s-2-0.9-2-2V16C2,8.8,9.5,3,18.7,3h90.2c9,0,16.1,5.7,16.1,13v10.6c0,4.8-3.4,9.5-8.6,11.8
			C116.1,38.5,115.9,38.6,115.6,38.6z"/>
	</g>
	<g>
		<path fill="#37474F" d="M64,97c-1.1,0-2-0.9-2-2V73l-47.1,0c-4.1,0-8,0-10.5-2.5C2.8,68.9,2,66.6,2,63.5V18c0-1.1,0.9-2,2-2
			s2,0.9,2,2v45.5c0,2,0.4,3.3,1.2,4.1C8.5,69,11.6,69,14.8,69l0.8,0H64c1.1,0,2,0.9,2,2v24C66,96.1,65.1,97,64,97z"/>
	</g>
	<g>
		<path fill="#78909C" d="M65,53H33c-6.1,0-11-5.1-11-11.2V31.3C22,25.1,26.9,20,33,20h70.4c6.1,0,10.6,5.1,10.6,11.3v10.5
			c0,6.1-4.9,11.1-11,11.1"/>
		<path fill="#37474F" d="M65,55H33c-7.2,0-13-5.9-13-13.2V31.3C20,24,25.8,18,33,18h70.4c7.1,0,12.6,5.8,12.6,13.3v10.5
			c0,7.2-5.9,13.1-13,13.1c-1.1,0-2-0.9-2-2s0.9-2,2-2c5,0,9-4.1,9-9.1V31.3c0-5.2-3.8-9.3-8.6-9.3H33c-5,0-9,4.2-9,9.3v10.5
			c0,5.1,4,9.2,9,9.2h32c1.1,0,2,0.9,2,2S66.1,55,65,55z"/>
	</g>
	<g>
		<path fill="#FFECB3" d="M53,124v-15.1c0-5.2,3.4-9.9,7.4-9.9h6.7c4.1,0,6.9,4.7,6.9,9.9V124"/>
		<path fill="#37474F" d="M74,126c-1.1,0-2-0.9-2-2v-15.1c0-4.4-2.2-7.9-4.9-7.9h-6.7c-2.8,0-5.4,3.8-5.4,7.9V124c0,1.1-0.9,2-2,2
			s-2-0.9-2-2v-15.1c0-6.5,4.3-11.9,9.4-11.9h6.7c5,0,8.9,5.2,8.9,11.9V124C76,125.1,75.1,126,74,126z"/>
	</g>
	<g>
		<path fill="#FFECB3" d="M20.6,43.7c-4,0-7.2-3.2-7.2-7.2c0-4,3.2-7.2,7.2-7.2"/>
		<path fill="#37474F" d="M20.6,45.7c-5.1,0-9.2-4.1-9.2-9.2c0-5.1,4.1-9.2,9.2-9.2c1.1,0,2,0.9,2,2s-0.9,2-2,2
			c-2.9,0-5.2,2.3-5.2,5.2c0,2.9,2.3,5.2,5.2,5.2c1.1,0,2,0.9,2,2S21.7,45.7,20.6,45.7z"/>
	</g>
	<g>
		<g>
			<path fill="#37474F" d="M66,113h-4c-1.1,0-2-0.9-2-2s0.9-2,2-2h4c1.1,0,2,0.9,2,2S67.1,113,66,113z"/>
		</g>
		<g>
			<path fill="#37474F" d="M66,122h-4c-1.1,0-2-0.9-2-2s0.9-2,2-2h4c1.1,0,2,0.9,2,2S67.1,122,66,122z"/>
		</g>
	</g>
	<g>
		<g>
			<path fill="#FFAB00" d="M102.9,54c6.1,0,11.1-6.1,11.1-12.2V31.3c0-6.1-4.5-11.3-10.6-11.3H67.3l0,34"/>
			<path fill="#37474F" d="M102.9,56c-1.1,0-2-0.9-2-2s0.9-2,2-2c4.8,0,9.1-4.9,9.1-10.2V31.3c0-5.2-3.8-9.3-8.6-9.3H69.3l0,32
				c0,1.1-0.9,2-2,2c0,0,0,0,0,0c-1.1,0-2-0.9-2-2l0-34c0-1.1,0.9-2,2-2h36.1c7.1,0,12.6,5.8,12.6,13.3v10.5
				C116,49.4,109.9,56,102.9,56z"/>
		</g>
	</g>
	<g>
		<path fill="#37474F" d="M111,25.1c-0.5,0-1-0.2-1.4-0.6c-1.7-1.7-3.9-2.5-6.2-2.5H67c-1.1,0-2-0.9-2-2s0.9-2,2-2h36.4
			c3.4,0,6.5,1.3,9,3.7c0.8,0.8,0.8,2,0.1,2.8C112,24.9,111.5,25.1,111,25.1z"/>
	</g>
</g>
</svg>
