<?xml version="1.0" encoding="utf-8"?>
<!-- Generator: Adobe Illustrator 16.0.0, SVG Export Plug-In . SVG Version: 6.00 Build 0)  -->
<!DOCTYPE svg PUBLIC "-//W3C//DTD SVG 1.1//EN" "http://www.w3.org/Graphics/SVG/1.1/DTD/svg11.dtd">
<svg version="1.1" id="Layer_1" xmlns="http://www.w3.org/2000/svg" xmlns:xlink="http://www.w3.org/1999/xlink" x="0px" y="0px"
	 width="128px" height="128px" viewBox="0 0 128 128" enable-background="new 0 0 128 128" xml:space="preserve">
<g>
	<g>
		<g>
			<g>
				<path fill="#FFAB00" d="M23,46v-3.8C23,34.6,29,29,36.6,29h54.9C99,29,105,34.6,105,42.2V46H23z"/>
				<path fill="#37474F" d="M105,48H23c-1.1,0-2-0.9-2-2v-3.8C21,33.7,27.8,27,36.6,27h54.9c8.7,0,15.6,6.7,15.6,15.2V46
					C107,47.1,106.1,48,105,48z M25,44h78v-1.8c0-6.4-5-11.2-11.6-11.2H36.6C30,31,25,35.8,25,42.2V44z"/>
			</g>
			<g>
				<line fill="#FFAB00" x1="47" y1="20" x2="81" y2="20"/>
				<path fill="#37474F" d="M81,22H47c-1.1,0-2-0.9-2-2s0.9-2,2-2h34c1.1,0,2,0.9,2,2S82.1,22,81,22z"/>
			</g>
		</g>
		<g>
			<line fill="#FFAB00" x1="64" y1="3" x2="64" y2="18"/>
			<path fill="#37474F" d="M64,20c-1.1,0-2-0.9-2-2V3c0-1.1,0.9-2,2-2s2,0.9,2,2v15C66,19.1,65.1,20,64,20z"/>
		</g>
	</g>
	<g>
		<g>
			<g>
				<line fill="#FFAB00" x1="63.5" y1="55.3" x2="63.5" y2="124.8"/>
			</g>
			<g>
				<g>
					<path fill="#37474F" d="M63.5,64.3c-1.1,0-2-0.9-2-2v-7c0-1.1,0.9-2,2-2s2,0.9,2,2v7C65.5,63.4,64.6,64.3,63.5,64.3z"/>
				</g>
				<g>
					<path fill="#37474F" d="M63.5,108.7c-1.1,0-2-0.9-2-2V95.6c0-1.1,0.9-2,2-2s2,0.9,2,2v11.1C65.5,107.8,64.6,108.7,63.5,108.7z
						 M63.5,86.5c-1.1,0-2-0.9-2-2V73.4c0-1.1,0.9-2,2-2s2,0.9,2,2v11.1C65.5,85.6,64.6,86.5,63.5,86.5z"/>
				</g>
				<g>
					<path fill="#37474F" d="M63.5,126.8c-1.1,0-2-0.9-2-2v-7c0-1.1,0.9-2,2-2s2,0.9,2,2v7C65.5,125.9,64.6,126.8,63.5,126.8z"/>
				</g>
			</g>
		</g>
		<g>
			<g>
				<g>
					<g>
						<line fill="#FFAB00" x1="77.3" y1="55.3" x2="87.9" y2="122"/>
					</g>
					<g>
						<g>
							<path fill="#37474F" d="M78.4,64.2c-1,0-1.8-0.7-2-1.7l-1.1-6.9c-0.2-1.1,0.6-2.1,1.7-2.3c1.1-0.2,2.1,0.6,2.3,1.7l1.1,6.9
								c0.2,1.1-0.6,2.1-1.7,2.3C78.6,64.2,78.5,64.2,78.4,64.2z"/>
						</g>
						<g>
							<path fill="#37474F" d="M84,99.5c-1,0-1.8-0.7-2-1.7l-2.8-17.6c-0.2-1.1,0.6-2.1,1.7-2.3c1.1-0.2,2.1,0.6,2.3,1.7L86,97.2
								c0.2,1.1-0.6,2.1-1.7,2.3C84.2,99.5,84.1,99.5,84,99.5z"/>
						</g>
						<g>
							<path fill="#37474F" d="M87.9,124c-1,0-1.8-0.7-2-1.7l-1.1-6.9c-0.2-1.1,0.6-2.1,1.7-2.3c1.1-0.2,2.1,0.6,2.3,1.7l1.1,6.9
								c0.2,1.1-0.6,2.1-1.7,2.3C88.1,124,88,124,87.9,124z"/>
						</g>
					</g>
				</g>
				<g>
					<g>
						<line fill="#FFAB00" x1="92.3" y1="55.3" x2="112" y2="116.7"/>
					</g>
					<g>
						<g>
							<path fill="#37474F" d="M94.4,64c-0.8,0-1.6-0.5-1.9-1.4l-2.1-6.7c-0.3-1.1,0.2-2.2,1.3-2.5c1.1-0.3,2.2,0.2,2.5,1.3l2.1,6.7
								c0.3,1.1-0.2,2.2-1.3,2.5C94.8,64,94.6,64,94.4,64z"/>
						</g>
						<g>
							<path fill="#37474F" d="M104.7,96.1c-0.8,0-1.6-0.5-1.9-1.4l-5.1-16c-0.3-1.1,0.2-2.2,1.3-2.5c1.1-0.3,2.2,0.2,2.5,1.3
								l5.1,16c0.3,1.1-0.2,2.2-1.3,2.5C105.1,96,104.9,96.1,104.7,96.1z"/>
						</g>
						<g>
							<path fill="#37474F" d="M112,118.7c-0.8,0-1.6-0.5-1.9-1.4l-2.1-6.7c-0.3-1.1,0.2-2.2,1.3-2.5c1.1-0.3,2.2,0.2,2.5,1.3
								l2.1,6.7c0.3,1.1-0.2,2.2-1.3,2.5C112.4,118.7,112.2,118.7,112,118.7z"/>
						</g>
					</g>
				</g>
			</g>
			<g>
				<g>
					<g>
						<line fill="#FFAB00" x1="50.7" y1="55.3" x2="40.1" y2="122"/>
					</g>
					<g>
						<g>
							<path fill="#37474F" d="M49.6,64.2c-0.1,0-0.2,0-0.3,0c-1.1-0.2-1.8-1.2-1.7-2.3l1.1-6.9c0.2-1.1,1.2-1.8,2.3-1.7
								c1.1,0.2,1.8,1.2,1.7,2.3l-1.1,6.9C51.4,63.5,50.6,64.2,49.6,64.2z"/>
						</g>
						<g>
							<path fill="#37474F" d="M44,99.5c-0.1,0-0.2,0-0.3,0c-1.1-0.2-1.8-1.2-1.7-2.3l2.8-17.6c0.2-1.1,1.2-1.8,2.3-1.7
								c1.1,0.2,1.8,1.2,1.7,2.3L46,97.8C45.8,98.8,45,99.5,44,99.5z"/>
						</g>
						<g>
							<path fill="#37474F" d="M40.1,124c-0.1,0-0.2,0-0.3,0c-1.1-0.2-1.8-1.2-1.7-2.3l1.1-6.9c0.2-1.1,1.2-1.8,2.3-1.7
								c1.1,0.2,1.8,1.2,1.7,2.3l-1.1,6.9C41.9,123.3,41.1,124,40.1,124z"/>
						</g>
					</g>
				</g>
				<g>
					<g>
						<line fill="#FFAB00" x1="35.7" y1="55.3" x2="16" y2="116.7"/>
					</g>
					<g>
						<g>
							<path fill="#37474F" d="M33.6,64c-0.2,0-0.4,0-0.6-0.1c-1.1-0.3-1.6-1.5-1.3-2.5l2.1-6.7c0.3-1.1,1.5-1.6,2.5-1.3
								c1.1,0.3,1.6,1.5,1.3,2.5l-2.1,6.7C35.2,63.5,34.4,64,33.6,64z"/>
						</g>
						<g>
							<path fill="#37474F" d="M23.3,96.1c-0.2,0-0.4,0-0.6-0.1c-1.1-0.3-1.6-1.5-1.3-2.5l5.1-16c0.3-1.1,1.5-1.6,2.5-1.3
								c1.1,0.3,1.6,1.5,1.3,2.5l-5.1,16C24.9,95.5,24.1,96.1,23.3,96.1z"/>
						</g>
						<g>
							<path fill="#37474F" d="M16,118.7c-0.2,0-0.4,0-0.6-0.1c-1.1-0.3-1.6-1.5-1.3-2.5l2.1-6.7c0.3-1.1,1.5-1.6,2.5-1.3
								c1.1,0.3,1.6,1.5,1.3,2.5l-2.1,6.7C17.6,118.2,16.8,118.7,16,118.7z"/>
						</g>
					</g>
				</g>
			</g>
		</g>
	</g>
</g>
</svg>
