<?xml version="1.0" encoding="utf-8"?>
<!-- Generator: Adobe Illustrator 16.0.0, SVG Export Plug-In . SVG Version: 6.00 Build 0)  -->
<!DOCTYPE svg PUBLIC "-//W3C//DTD SVG 1.1//EN" "http://www.w3.org/Graphics/SVG/1.1/DTD/svg11.dtd">
<svg version="1.1" id="Layer_1" xmlns="http://www.w3.org/2000/svg" xmlns:xlink="http://www.w3.org/1999/xlink" x="0px" y="0px"
	 width="33px" height="33px" viewBox="0 0 33 33" enable-background="new 0 0 33 33" xml:space="preserve">
<g>
	<g>
		<polyline fill="#FFECB3" points="30.5,5 30.5,29.1 2.5,29.1 2.5,5 		"/>
		<path fill="#37474F" d="M30.5,29.6h-28c-0.3,0-0.5-0.2-0.5-0.5V5c0-0.3,0.2-0.5,0.5-0.5S3,4.7,3,5v23.7h27V5
			c0-0.3,0.2-0.5,0.5-0.5S31,4.7,31,5v24.1C31,29.4,30.8,29.6,30.5,29.6z"/>
	</g>
	<g>
		<line fill="#FFECB3" x1="0.9" y1="29.1" x2="32.1" y2="29.1"/>
		<path fill="#37474F" d="M32.1,29.6H0.9c-0.3,0-0.5-0.2-0.5-0.5s0.2-0.5,0.5-0.5h31.2c0.3,0,0.5,0.2,0.5,0.5S32.4,29.6,32.1,29.6z"
			/>
	</g>
	<g>
		<g>
			<polyline fill="#FFECB3" points="3.6,16.8 16.5,16.8 16.5,21.6 3.6,21.6 			"/>
			<path fill="#37474F" d="M16.5,22.1H3.6c-0.3,0-0.5-0.2-0.5-0.5s0.2-0.5,0.5-0.5H16v-3.8H3.6c-0.3,0-0.5-0.2-0.5-0.5
				s0.2-0.5,0.5-0.5h12.9c0.3,0,0.5,0.2,0.5,0.5v4.8C17,21.9,16.8,22.1,16.5,22.1z"/>
		</g>
		<g>
			<polyline fill="#FFECB3" points="29.4,21.6 16.6,21.6 16.6,16.8 29.4,16.8 			"/>
			<path fill="#37474F" d="M29.4,22.1H16.6c-0.3,0-0.5-0.2-0.5-0.5v-4.8c0-0.3,0.2-0.5,0.5-0.5h12.9c0.3,0,0.5,0.2,0.5,0.5
				s-0.2,0.5-0.5,0.5H17.1v3.8h12.4c0.3,0,0.5,0.2,0.5,0.5S29.7,22.1,29.4,22.1z"/>
		</g>
	</g>
	<g>
		<g>
			<polyline fill="#FFECB3" points="3.6,6.9 16.5,6.9 16.5,11.7 3.6,11.7 			"/>
			<path fill="#37474F" d="M16.5,12.2H3.6c-0.3,0-0.5-0.2-0.5-0.5s0.2-0.5,0.5-0.5H16V7.4H3.6c-0.3,0-0.5-0.2-0.5-0.5
				s0.2-0.5,0.5-0.5h12.9c0.3,0,0.5,0.2,0.5,0.5v4.8C17,12,16.8,12.2,16.5,12.2z"/>
		</g>
		<g>
			<polyline fill="#FFECB3" points="29.4,11.7 16.6,11.7 16.6,6.9 29.4,6.9 			"/>
			<path fill="#37474F" d="M29.4,12.2H16.6c-0.3,0-0.5-0.2-0.5-0.5V6.9c0-0.3,0.2-0.5,0.5-0.5h12.9c0.3,0,0.5,0.2,0.5,0.5
				s-0.2,0.5-0.5,0.5H17.1v3.8h12.4c0.3,0,0.5,0.2,0.5,0.5S29.7,12.2,29.4,12.2z"/>
		</g>
	</g>
	<g>
		<g>
			<rect x="10.1" y="11.9" fill="#FFECB3" width="12.9" height="4.8"/>
			<path fill="#37474F" d="M23,17.2H10.1c-0.3,0-0.5-0.2-0.5-0.5v-4.8c0-0.3,0.2-0.5,0.5-0.5H23c0.3,0,0.5,0.2,0.5,0.5v4.8
				C23.5,17,23.2,17.2,23,17.2z M10.6,16.2h11.9v-3.8H10.6V16.2z"/>
		</g>
		<g>
			<rect x="2.8" y="11.9" fill="#FFECB3" width="7" height="4.8"/>
			<path fill="#37474F" d="M9.8,17.2h-7c-0.3,0-0.5-0.2-0.5-0.5v-4.8c0-0.3,0.2-0.5,0.5-0.5h7c0.3,0,0.5,0.2,0.5,0.5v4.8
				C10.3,17,10.1,17.2,9.8,17.2z M3.3,16.2h6v-3.8h-6V16.2z"/>
		</g>
		<g>
			<rect x="23.1" y="11.9" fill="#FFECB3" width="7" height="4.8"/>
			<path fill="#37474F" d="M30.1,17.2h-7c-0.3,0-0.5-0.2-0.5-0.5v-4.8c0-0.3,0.2-0.5,0.5-0.5h7c0.3,0,0.5,0.2,0.5,0.5v4.8
				C30.6,17,30.4,17.2,30.1,17.2z M23.6,16.2h6v-3.8h-6V16.2z"/>
		</g>
	</g>
	<g>
		<g>
			<rect x="10.1" y="21.6" fill="#FFECB3" width="12.9" height="4.8"/>
			<path fill="#37474F" d="M23,26.9H10.1c-0.3,0-0.5-0.2-0.5-0.5v-4.8c0-0.3,0.2-0.5,0.5-0.5H23c0.3,0,0.5,0.2,0.5,0.5v4.8
				C23.5,26.7,23.2,26.9,23,26.9z M10.6,25.9h11.9v-3.8H10.6V25.9z"/>
		</g>
		<g>
			<rect x="2.8" y="21.6" fill="#FFAB00" width="7" height="4.8"/>
			<path fill="#37474F" d="M9.8,26.9h-7c-0.3,0-0.5-0.2-0.5-0.5v-4.8c0-0.3,0.2-0.5,0.5-0.5h7c0.3,0,0.5,0.2,0.5,0.5v4.8
				C10.3,26.7,10.1,26.9,9.8,26.9z M3.3,25.9h6v-3.8h-6V25.9z"/>
		</g>
		<g>
			<rect x="23.1" y="21.6" fill="#FFECB3" width="7" height="4.8"/>
			<path fill="#37474F" d="M30.1,26.9h-7c-0.3,0-0.5-0.2-0.5-0.5v-4.8c0-0.3,0.2-0.5,0.5-0.5h7c0.3,0,0.5,0.2,0.5,0.5v4.8
				C30.6,26.7,30.4,26.9,30.1,26.9z M23.6,25.9h6v-3.8h-6V25.9z"/>
		</g>
	</g>
</g>
</svg>
