<?xml version="1.0" encoding="iso-8859-1"?>
<!-- Generator: Adobe Illustrator 17.1.0, SVG Export Plug-In . SVG Version: 6.00 Build 0)  -->
<!DOCTYPE svg PUBLIC "-//W3C//DTD SVG 1.1//EN" "http://www.w3.org/Graphics/SVG/1.1/DTD/svg11.dtd">
<svg version="1.1" xmlns="http://www.w3.org/2000/svg" xmlns:xlink="http://www.w3.org/1999/xlink" x="0px" y="0px"
	 viewBox="0 0 1009.957 1009.976" style="enable-background:new 0 0 1009.957 1009.976;" xml:space="preserve">
<g id="magnifier">
	<path id="label_11_" style="fill:#EFEFEF;" d="M504.987,0C226.08,0,0,226.092,0,504.988c0,278.907,226.08,504.988,504.987,504.988
		c278.89,0,504.97-226.081,504.97-504.988C1009.957,226.092,783.877,0,504.987,0z"/>
	<g id="icon_13_">
		<g>
			<path style="fill:#1CABEA;" d="M498.753,458.419c-13.742,0-24.889,11.158-24.889,24.877c0,13.767,11.146,24.901,24.889,24.901
				c13.719,0,24.871-11.134,24.871-24.901C523.624,469.578,512.472,458.419,498.753,458.419z"/>
			<path style="fill:#1CABEA;" d="M486.297,413.493v15.298c17.809-0.098,35.612,6.578,49.208,20.149
				c13.276,13.289,19.988,30.78,20.087,48.258h15.335c-0.123-21.41-8.305-42.796-24.619-59.098
				C529.772,421.552,508.001,413.358,486.297,413.493z"/>
			<path style="fill:#1CABEA;" d="M486.297,375.204v15.323c27.608-0.135,55.233,10.313,76.276,31.307
				c20.773,20.81,31.185,48.05,31.307,75.364h15.311c-0.098-31.233-12.053-62.381-35.815-86.18
				C549.369,387.048,517.817,375.094,486.297,375.204z"/>
			<path style="fill:#1CABEA;" d="M486.297,336.953v15.298c37.4-0.086,74.831,14.049,103.321,42.526
				c28.269,28.232,42.403,65.333,42.551,102.421h15.285c-0.122-41.032-15.775-82.015-46.984-113.236
				C568.991,352.483,527.616,336.83,486.297,336.953z"/>
		</g>
		<path style="fill:#434A54;" d="M291.474,725.777l37.933,28.343c3.846,2.854,9.321,2.058,12.188-1.765l83.668-112.011
			c2.854-3.846,2.058-9.308-1.764-12.187l-10.019-7.472l7.754-10.35l0,0l7.851-10.534l4.116,3.099
			c2.67,1.984,6.454,1.458,8.451-1.237l0.661-0.87l0,0l7.876-10.583c78.261,46.078,180.314,26.824,235.922-47.634
			c59.625-79.847,43.236-192.924-36.598-252.561c-79.859-59.625-192.918-43.237-252.568,36.623
			c-54.579,73.061-45.429,173.988,17.736,236.283l-8.917,11.967c-1.972,2.646-1.445,6.442,1.225,8.439l4.14,3.099l-8.598,11.525
			l-6.97,9.333l-10.007-7.472c-3.87-2.866-9.333-2.094-12.224,1.776l-83.632,111.975
			C286.808,717.448,287.616,722.886,291.474,725.777z M685.155,413.787c5.315,36.77-3.356,75.536-27.363,107.651
			c-23.982,32.127-58.694,51.455-95.439,56.783c-36.745,5.304-75.541-3.368-107.644-27.363
			c-32.091-23.982-51.468-58.682-56.796-95.452c-5.34-36.77,3.369-75.511,27.351-107.639c23.995-32.09,58.694-51.443,95.445-56.783
			c36.769-5.328,75.548,3.38,107.663,27.351C660.486,342.305,679.814,377.029,685.155,413.787z"/>
	</g>
</g>
<g id="Layer_1">
</g>
</svg>
