<?xml version="1.0" encoding="iso-8859-1"?>
<!-- Generator: Adobe Illustrator 17.1.0, SVG Export Plug-In . SVG Version: 6.00 Build 0)  -->
<!DOCTYPE svg PUBLIC "-//W3C//DTD SVG 1.1//EN" "http://www.w3.org/Graphics/SVG/1.1/DTD/svg11.dtd">
<svg version="1.1" xmlns="http://www.w3.org/2000/svg" xmlns:xlink="http://www.w3.org/1999/xlink" x="0px" y="0px"
	 viewBox="0 0 1009.994 1009.976" style="enable-background:new 0 0 1009.994 1009.976;" xml:space="preserve">
<g id="plane">
	<path id="label_34_" style="fill:#EFEFEF;" d="M504.988,0C226.093,0,0,226.08,0,505c0,278.895,226.093,504.976,504.988,504.976
		c278.901,0,505.006-226.081,505.006-504.976C1009.994,226.08,783.89,0,504.988,0z"/>
	<g id="icon_36_">
		<path style="fill:#434A54;" d="M725.146,623.809l6.222-28.049l-83.435-42.293v-41.351c0-6.148-4.973-11.134-11.122-11.134
			c-6.148,0-11.146,4.985-11.146,11.134v30.07l-90.785-46.017l3.356-97.289c0-18.667-15.09-43.323-33.75-43.323
			c-18.654,0-33.769,24.656-33.769,43.323l3.369,97.79l-90.54,45.895v-30.45c0-6.148-4.985-11.134-11.122-11.134
			c-6.148,0-11.121,4.985-11.121,11.134v41.73l-82.701,41.914l6.234,28.049l192.25-40.873l5.585,161.568l-42.098,35.753l1.764,7.889
			l43.763-9.31c2.646,7.153,7.9,14.624,18.385,14.624c9.321,0,14.741-7.373,17.729-14.637l43.801,9.322l1.764-7.889l-41.521-35.25
			l5.634-162.292L725.146,623.809z"/>
		<path style="fill:#1CABEA;" d="M447.359,326.884c31.699-33.169,84.508-34.381,117.651-2.67c4.067,3.87,4.214,10.289,0.343,14.331
			c-3.895,4.066-10.288,4.213-14.33,0.343c-25.109-23.97-65.02-23.076-88.99,2.021c-3.871,4.042-10.301,4.189-14.343,0.306
			c-0.503-0.49-0.956-1.004-1.348-1.556C443.66,335.789,443.979,330.412,447.359,326.884z M414.84,309.553
			c0.368,0.539,0.809,1.078,1.335,1.556c4.042,3.871,10.485,3.724,14.343-0.331c19.659-20.553,46.128-32.238,74.593-32.899
			c28.447-0.637,55.442,9.823,76.02,29.494c4.042,3.871,10.46,3.711,14.355-0.331c3.846-4.054,3.724-10.46-0.343-14.367
			c-24.497-23.382-56.637-35.839-90.485-35.08c-33.867,0.759-65.406,14.686-88.812,39.17
			C412.452,300.317,412.133,305.658,414.84,309.553z M385.138,281.173c0.38,0.564,0.821,1.09,1.335,1.58
			c4.066,3.871,10.497,3.724,14.367-0.318c27.216-28.526,63.925-44.694,103.34-45.601c39.421-0.894,76.779,13.62,105.293,40.86
			c4.066,3.858,10.484,3.699,14.33-0.33c3.896-4.066,3.748-10.473-0.293-14.368c-32.434-30.976-74.961-47.462-119.796-46.433
			c-44.816,1.017-86.559,19.426-117.547,51.847C382.798,271.962,382.455,277.303,385.138,281.173z"/>
	</g>
</g>
<g id="Layer_1">
</g>
</svg>
