<?xml version="1.0" encoding="iso-8859-1"?>
<!-- Generator: Adobe Illustrator 17.1.0, SVG Export Plug-In . SVG Version: 6.00 Build 0)  -->
<!DOCTYPE svg PUBLIC "-//W3C//DTD SVG 1.1//EN" "http://www.w3.org/Graphics/SVG/1.1/DTD/svg11.dtd">
<svg version="1.1" xmlns="http://www.w3.org/2000/svg" xmlns:xlink="http://www.w3.org/1999/xlink" x="0px" y="0px"
	 viewBox="0 0 1009.994 1009.976" style="enable-background:new 0 0 1009.994 1009.976;" xml:space="preserve">
<g id="satellite-4">
	<path id="label_35_" style="fill:#EFEFEF;" d="M504.988,0C226.105,0,0,226.08,0,504.988c0,278.895,226.105,504.988,504.988,504.988
		c278.901,0,505.006-226.094,505.006-504.988C1009.994,226.08,783.89,0,504.988,0z"/>
	<g id="icon_37_">
		<path style="fill:#434A54;" d="M688.768,716.626h-10.46v-59.404c17.295-6.075,29.764-22.39,29.764-41.767
			c0-17.221-9.897-31.993-24.228-39.366c19.573-31.576,29.592-67.476,29.567-103.303c0.024-50.132-19.229-100.547-57.494-138.798
			c-5.217-5.218-10.655-10.081-16.266-14.564c-12.199-9.737-29.715-8.769-40.738,2.254L488.661,431.926l-21.288-16.609
			c6.798-8.696,10.901-19.597,10.901-31.478c0-28.22-22.868-51.101-51.101-51.101c-28.22,0-51.1,22.88-51.1,51.101
			c0,28.22,22.88,51.1,51.1,51.1c11.71,0,22.464-3.993,31.062-10.607l16.67,21.349L366.055,554.532
			c-11.036,11.048-12.003,28.564-2.266,40.75c4.482,5.585,9.333,11.036,14.588,16.278v0.025
			c38.264,38.251,88.653,57.494,138.762,57.457c37.486,0.024,75.162-10.754,107.767-32.201c2.793,5.059,6.517,9.48,10.999,13.094
			l-66.68,66.691h-73.986c-10.84,0-19.609,8.771-19.609,19.61c0,10.827,8.77,19.609,19.609,19.609h193.53
			c10.853,0,19.622-8.782,19.622-19.609C708.391,725.397,699.621,716.626,688.768,716.626z M655.698,659.109
			c0.685,0.123,1.421,0.123,2.106,0.208v57.31H598.18L655.698,659.109z"/>
		<g>
			<path style="fill:#1CABEA;" d="M548.745,303.171c-2.107-8.182-5.83-16.021-11.121-23.027c-1.96-2.597-4.165-5.071-6.565-7.422
				c-2.278-2.229-4.679-4.238-7.153-6.051c-7.686-5.61-16.309-9.333-25.213-11.17c-4.667-0.956-9.419-1.409-14.147-1.348
				c-3.283,0.062-5.891,2.756-5.842,6.026c0.037,3.283,2.731,5.916,6.014,5.879c13.73-0.184,27.449,4.85,38.037,15.176
				c10.607,10.325,15.996,23.921,16.192,37.639c0.025,3.282,2.744,5.903,6.002,5.854c1.642-0.012,3.111-0.686,4.189-1.788
				c1.054-1.078,1.69-2.572,1.69-4.201C550.754,313.497,550.068,308.267,548.745,303.171z"/>
			<path style="fill:#1CABEA;" d="M518.345,299.374c-1.758-2.597-3.815-5.046-6.118-7.312c-2.34-2.266-4.838-4.25-7.483-5.94
				c-3.944-2.523-8.194-4.421-12.567-5.659c-4.397-1.225-8.929-1.812-13.461-1.764c-3.283,0.074-5.892,2.768-5.842,6.039
				c0.049,3.27,2.732,5.916,6.026,5.867c9.027-0.11,18.042,3.185,25.011,9.97c6.982,6.81,10.497,15.727,10.619,24.742
				c0.049,3.295,2.756,5.928,6.045,5.879c1.641-0.024,3.111-0.71,4.164-1.789c1.054-1.078,1.715-2.56,1.69-4.189
				c-0.049-4.568-0.784-9.137-2.155-13.546C522.926,307.36,520.941,303.22,518.345,299.374z"/>
			<path style="fill:#1CABEA;" d="M496.745,314.758c-0.943-1.249-1.972-2.474-3.148-3.601c-1.408-1.372-2.927-2.572-4.52-3.601
				c-2.388-1.531-4.973-2.682-7.643-3.429c-2.67-0.76-5.426-1.115-8.194-1.078c-3.258,0.049-5.867,2.744-5.83,6.026
				c0.049,3.283,2.743,5.904,6.026,5.867c4.299-0.061,8.549,1.507,11.881,4.74c3.307,3.234,4.973,7.447,5.022,11.734
				c0.062,3.283,2.744,5.916,6.039,5.879c1.641-0.024,3.111-0.71,4.176-1.8c1.042-1.066,1.69-2.56,1.69-4.164
				c-0.037-2.756-0.453-5.512-1.273-8.17C500.039,320.197,498.631,317.355,496.745,314.758z"/>
			<path style="fill:#1CABEA;" d="M361.303,496.499c-13.719-0.196-27.302-5.585-37.627-16.18
				c-10.338-10.595-15.372-24.313-15.188-38.031c0.037-3.283-2.584-5.99-5.867-6.026c-3.283-0.049-5.977,2.572-6.026,5.855
				c-0.061,4.728,0.38,9.468,1.335,14.123c1.849,8.929,5.561,17.539,11.158,25.219c1.825,2.486,3.846,4.899,6.062,7.178
				c2.352,2.388,4.838,4.581,7.435,6.553c6.994,5.304,14.845,9.015,23.027,11.134c5.095,1.298,10.313,1.996,15.556,2.058
				c1.641,0.024,3.123-0.612,4.201-1.69c1.102-1.054,1.788-2.523,1.8-4.165C367.206,499.243,364.585,496.549,361.303,496.499z"/>
			<path style="fill:#1CABEA;" d="M367.757,472.101c-9.015-0.123-17.944-3.65-24.742-10.632c-6.786-6.969-10.093-15.996-9.97-25.011
				c0.037-3.27-2.597-5.977-5.867-6.026c-3.283-0.037-5.99,2.572-6.039,5.854c-0.061,4.52,0.539,9.052,1.764,13.449
				c1.225,4.385,3.124,8.623,5.646,12.579c1.69,2.633,3.674,5.132,5.953,7.459c2.266,2.328,4.716,4.373,7.3,6.125
				c3.846,2.621,7.999,4.605,12.31,5.94c4.397,1.384,8.978,2.106,13.547,2.156c1.617,0.012,3.099-0.625,4.177-1.678
				c1.09-1.078,1.764-2.547,1.788-4.189C373.661,474.845,371.04,472.15,367.757,472.101z"/>
			<path style="fill:#1CABEA;" d="M373.857,447.91c-4.299-0.061-8.512-1.727-11.746-5.034c-3.221-3.332-4.789-7.582-4.728-11.869
				c0.037-3.295-2.597-5.99-5.867-6.039c-3.283-0.024-5.965,2.572-6.039,5.842c-0.037,2.756,0.318,5.512,1.09,8.194
				c0.735,2.658,1.887,5.242,3.418,7.631c1.029,1.604,2.229,3.123,3.601,4.544c1.127,1.151,2.352,2.192,3.625,3.111
				c2.585,1.911,5.426,3.319,8.39,4.238c2.658,0.82,5.414,1.249,8.157,1.274c1.617,0,3.087-0.637,4.165-1.69
				c1.09-1.053,1.775-2.523,1.8-4.177C379.761,450.654,377.14,447.959,373.857,447.91z"/>
		</g>
	</g>
</g>
<g id="Layer_1">
</g>
</svg>
