<?xml version="1.0" encoding="iso-8859-1"?>
<!-- Generator: Adobe Illustrator 17.1.0, SVG Export Plug-In . SVG Version: 6.00 Build 0)  -->
<!DOCTYPE svg PUBLIC "-//W3C//DTD SVG 1.1//EN" "http://www.w3.org/Graphics/SVG/1.1/DTD/svg11.dtd">
<svg version="1.1" xmlns="http://www.w3.org/2000/svg" xmlns:xlink="http://www.w3.org/1999/xlink" x="0px" y="0px"
	 viewBox="0 0 1009.994 1010" style="enable-background:new 0 0 1009.994 1010;" xml:space="preserve">
<g id="satellite-2">
	<path id="label_23_" style="fill:#EFEFEF;" d="M504.988,0C226.105,0,0,226.105,0,504.988C0,783.883,226.105,1010,504.988,1010
		c278.901,0,505.006-226.117,505.006-505.012C1009.994,226.105,783.89,0,504.988,0z"/>
	<g id="icon_25_">
		<g>
			<path style="fill:#1CABEA;" d="M612.706,355.411c-4.948-1.347-10.068,1.592-11.439,6.541c-1.323,4.985,1.616,10.117,6.589,11.452
				c30.793,8.353,49.043,40.175,40.738,70.967c-1.371,4.948,1.568,10.081,6.541,11.44c0.637,0.147,1.273,0.27,1.886,0.294
				c4.336,0.257,8.402-2.523,9.579-6.896C677.598,408.507,653.42,366.422,612.706,355.411z"/>
			<path style="fill:#1CABEA;" d="M623.166,316.706c-4.973-1.336-10.068,1.604-11.415,6.589c-1.348,4.973,1.592,10.093,6.589,11.44
				c25.208,6.822,46.299,23.064,59.332,45.76c13.008,22.696,16.412,49.08,9.578,74.336c-1.323,4.973,1.592,10.093,6.59,11.44
				c0.611,0.159,1.249,0.257,1.861,0.294c4.336,0.282,8.378-2.523,9.554-6.859c8.133-30.058,4.091-61.499-11.415-88.495
				C678.333,344.216,653.248,324.863,623.166,316.706z"/>
			<path style="fill:#1CABEA;" d="M726.566,352.434c-20.527-35.753-53.745-61.364-93.527-72.143
				c-4.998-1.347-10.094,1.592-11.44,6.565c-1.323,4.985,1.593,10.093,6.565,11.452c34.98,9.456,64.181,31.956,82.211,63.41
				c18.054,31.417,22.781,67.991,13.326,102.972c-1.348,4.973,1.592,10.093,6.564,11.44c0.613,0.159,1.25,0.257,1.887,0.294
				c4.287,0.282,8.354-2.523,9.554-6.871C752.435,429.771,747.07,388.163,726.566,352.434z"/>
		</g>
		<g>
			<path style="fill:#434A54;" d="M369.252,536.944l-2.229-3.724c-2.683-4.385-8.402-5.806-12.824-3.148
				c-4.409,2.683-5.806,8.402-3.148,12.812l2.254,3.699c5.34,8.88,2.511,20.442-6.369,25.832l-79.578,48.111
				c-4.397,2.695-5.818,8.402-3.16,12.8c2.683,4.421,8.391,5.842,12.8,3.16l79.59-48.112
				C374.249,577.682,379.932,554.594,369.252,536.944z"/>
			<path style="fill:#434A54;" d="M390.294,428.607c-10.583,6.406-24.337,3.025-30.744-7.581l-61.119-101.049
				c-6.406-10.595-3.013-24.374,7.569-30.768l52.619-31.821c10.583-6.394,24.35-3.001,30.756,7.582l61.119,101.061
				c6.393,10.607,3.001,24.387-7.569,30.768L390.294,428.607z"/>
			<path style="fill:#434A54;" d="M586.225,752.625c-10.583,6.394-24.35,2.988-30.743-7.594L494.344,643.97
				c-6.381-10.607-3.013-24.386,7.557-30.768l52.625-31.809c10.583-6.419,24.374-3.001,30.769,7.581l61.119,101.074
				c6.418,10.571,3.013,24.35-7.57,30.743L586.225,752.625z"/>
			<path style="fill:#434A54;" d="M444.897,585.166c-10.595,6.418-24.374,3.013-30.768-7.582l-33.328-55.081
				c-6.393-10.583-3.001-24.362,7.594-30.768l20.357-12.31c10.582-6.406,24.35-3.038,30.768,7.569l33.328,55.105
				c6.393,10.583,3,24.362-7.582,30.768L444.897,585.166z"/>
			<path style="fill:#434A54;" d="M487.987,590.15c-10.583,6.393-24.374,3.001-30.768-7.606l-59.846-98.942
				c-6.394-10.583-3.001-24.362,7.594-30.768l52.595-31.809c10.595-6.394,24.362-3.001,30.767,7.581l59.827,98.967
				c6.418,10.57,3.013,24.337-7.569,30.768L487.987,590.15z"/>
			<path style="fill:#434A54;" d="M625.225,512.128c3.331-1.997,4.409-6.333,2.375-9.652l-78.903-130.494
				c-1.984-3.319-6.32-4.385-9.651-2.376c-2.328,1.384-3.577,3.932-3.405,6.455l0,0c1.445,17.723,12.199,45.821,29.764,74.911
				c17.638,29.103,37.528,51.676,52.545,61.156C620.104,513.463,622.896,513.549,625.225,512.128z"/>
			<path style="fill:#434A54;" d="M556.78,508.197l-46.917-77.593c-2.671-4.41-1.237-10.129,3.16-12.812
				c4.409-2.67,10.148-1.237,12.817,3.148l46.911,77.618c2.67,4.385,1.25,10.105-3.16,12.788
				C565.183,514.015,559.426,512.606,556.78,508.197z"/>
		</g>
	</g>
</g>
<g id="Layer_1">
</g>
</svg>
