<?xml version="1.0" encoding="utf-8"?>
<!-- Generator: Adobe Illustrator 16.0.0, SVG Export Plug-In . SVG Version: 6.00 Build 0)  -->
<!DOCTYPE svg PUBLIC "-//W3C//DTD SVG 1.1//EN" "http://www.w3.org/Graphics/SVG/1.1/DTD/svg11.dtd">
<svg version="1.1" id="Layer_1" xmlns="http://www.w3.org/2000/svg" xmlns:xlink="http://www.w3.org/1999/xlink" x="0px" y="0px"
	 width="24px" height="24px" viewBox="0 0 24 24" enable-background="new 0 0 24 24" xml:space="preserve">
<g>
	<path d="M16.6,15.4c-0.3,0-0.5,0.2-0.5,0.5c0,1.5-1.2,2.8-2.8,2.8c-1.5,0-2.8-1.2-2.8-2.8c0-1.5,1.2-2.8,2.8-2.8
		c0.3,0,0.5-0.2,0.5-0.5s-0.2-0.5-0.5-0.5c-2.1,0-3.8,1.7-3.8,3.8c0,2.1,1.7,3.8,3.8,3.8c2.1,0,3.8-1.7,3.8-3.8
		C17.1,15.7,16.9,15.4,16.6,15.4z"/>
	<path d="M24,10.5c0-0.7-0.2-1.4-0.6-2h0.2v-5h-1h-2h-1C19.2,3.5,19,3.7,19,4s0.2,0.5,0.5,0.5h1h2v3.1c-0.7-0.6-1.6-0.9-2.6-0.9
		c-0.1,0-0.3,0-0.4,0c0,0-0.1,0-0.1,0c-1.2,0-1.3,2.9-1.3,3.8c0,0.3,0,0.7,0.1,1.2c-1.1-0.8-2.3-1.4-3.6-1.6V6.5h1.6
		c1.2,0,2.1-0.9,2.1-2c0-1.1-1-2-2.1-2h-5.6c-1.2,0-2.1,0.9-2.1,2c0,1.1,1,2,2.1,2h2V10c-3.3,0.3-6,2.7-7.1,5.9l-0.6-0.5l0.5-0.6
		c0.1-0.1,0.1-0.2,0.1-0.3V12c0-0.3-0.2-0.5-0.5-0.5H4.5v-3H7c0.6,0,0.6-0.6,0.6-1c0-1.2-0.5-2.3-1.4-3h1.3C7.8,4.5,8,4.3,8,4
		S7.8,3.5,7.5,3.5h-3c-0.1,0-0.2,0.1-0.3,0.1c-0.1,0-0.2,0-0.4,0C1.7,3.6,0,5.3,0,7.5c0,0.3,0,1,0.5,1h2.9V12c0,0.3,0.2,0.5,0.5,0.5
		h0.5v1.9l-0.7,0.9c-0.2,0.2-0.1,0.5,0.1,0.7l0.6,0.6l-1.1,1.2c-0.2,0.2-0.2,0.5,0,0.7l1.7,1.7c0,0,0,0,0,0c0,0.1-0.1,0.2-0.1,0.3
		c0,0.6,0.5,1.1,1.2,1.1h14.2c0.7,0,1.2-0.5,1.2-1.1c0-0.3-0.1-0.6-0.4-0.8c0.3,0,0.5-0.2,0.5-0.5c0-1.8-0.5-3.4-1.3-4.8
		C22.4,14,24,12.4,24,10.5z M1,7.5c0-1.6,1.2-2.9,2.8-2.9c1.5,0,2.7,1.3,2.8,2.9H1z M11,5.1L11,5.1L11,5.1L11,5.1z M11.3,5.5
		c0.3-0.1,0.5-0.4,0.5-0.8c0-0.5-0.4-0.8-0.8-0.8c-0.5,0-0.8,0.4-0.8,0.8c0,0.4,0.2,0.7,0.5,0.8h-0.2c-0.6,0-1.1-0.4-1.1-1
		c0-0.6,0.5-1,1.1-1h5.6c0.6,0,1.1,0.5,1.1,1c0,0.5-0.5,1-1.1,1H16c0.3-0.1,0.5-0.4,0.5-0.8c0-0.2-0.1-0.4-0.2-0.6
		c-0.2-0.2-0.4-0.2-0.6-0.2c-0.5,0-0.8,0.4-0.8,0.8c0,0.4,0.2,0.7,0.5,0.8h-1.7c0.3-0.1,0.5-0.4,0.5-0.8c0-0.5-0.4-0.8-0.8-0.8
		c-0.2,0-0.4,0.1-0.6,0.2s-0.2,0.4-0.2,0.6c0,0.4,0.2,0.6,0.5,0.8H11.3z M5.1,17.3C5,17.7,5,18.1,5,18.5L4.4,18L5.1,17.3z
		 M20.8,19.3c-0.1,0-0.2-0.1-0.4-0.1c-0.3,0-0.5,0.2-0.5,0.5s0.2,0.5,0.5,0.5c0.1,0,0.2,0,0.2,0.1c0,0.1-0.2,0.1-0.2,0.1H6.2
		c0,0-0.2,0-0.2-0.1c0-0.1,0.1-0.2,0.2-0.2c0.3,0,0.5-0.2,0.5-0.5s-0.2-0.5-0.5-0.5c-0.1,0-0.2,0-0.3,0.1C5.9,19.2,6,19.1,6,19
		c0-4.4,3.3-8,7.4-8c2,0,3.8,0.9,5.1,2.3c0.2,0.5,0.4,0.8,0.7,0.9c0.9,1.3,1.5,3,1.5,4.8C20.7,19.1,20.7,19.2,20.8,19.3z M19.9,13.2
		c-0.1,0-0.1,0-0.2,0c-0.1-0.1-0.2-0.3-0.4-0.4c-0.1-0.5-0.3-1.3-0.3-2.3c0-1.5,0.2-2.4,0.4-2.7c0.1,0,0.3,0,0.4,0
		c1.7,0,3,1.2,3,2.8C23,12,21.6,13.2,19.9,13.2z"/>
</g>
</svg>
