<?xml version="1.0" encoding="utf-8"?>
<!-- Generator: Adobe Illustrator 16.0.0, SVG Export Plug-In . SVG Version: 6.00 Build 0)  -->
<!DOCTYPE svg PUBLIC "-//W3C//DTD SVG 1.1//EN" "http://www.w3.org/Graphics/SVG/1.1/DTD/svg11.dtd">
<svg version="1.1" id="Layer_1" xmlns="http://www.w3.org/2000/svg" xmlns:xlink="http://www.w3.org/1999/xlink" x="0px" y="0px"
	 width="32px" height="32px" viewBox="0 0 32 32" enable-background="new 0 0 32 32" xml:space="preserve">
<g>
	<g>
		<g>
			<path fill="#FFFFFF" d="M30.5,16c0,0.9-0.2,1.2-1,1.2H2.8c-0.7,0-1.3-0.3-1.3-1.2V4.9C1.5,4,2,3.2,2.8,3.2h26.8
				c0.7,0,1,0.8,1,1.7V16z"/>
			<path fill="#37474F" d="M29.5,17.7H2.8C1.2,17.7,1,16.6,1,16V4.9c0-1.2,0.8-2.2,1.8-2.2h26.8C30.1,2.7,31,3,31,4.9V16
				C31,16.8,30.8,17.7,29.5,17.7z M2.8,3.7C2.3,3.7,2,4.2,2,4.9V16c0,0.6,0.2,0.7,0.8,0.7h26.8c0.4,0,0.5,0,0.5-0.7V4.9
				c0-0.6-0.1-1.2-0.5-1.2H2.8z"/>
		</g>
		<g>
			<g>
				<line fill="#FFFFFF" x1="6" y1="11.2" x2="26" y2="11.2"/>
				<path fill="#37474F" d="M26,11.7H6c-0.3,0-0.5-0.2-0.5-0.5s0.2-0.5,0.5-0.5h20c0.3,0,0.5,0.2,0.5,0.5S26.3,11.7,26,11.7z"/>
			</g>
			<g>
				<line fill="#FFFFFF" x1="6" y1="14.2" x2="26" y2="14.2"/>
				<path fill="#37474F" d="M26,14.7H6c-0.3,0-0.5-0.2-0.5-0.5s0.2-0.5,0.5-0.5h20c0.3,0,0.5,0.2,0.5,0.5S26.3,14.7,26,14.7z"/>
			</g>
		</g>
		<g>
			<rect x="5.9" y="6.3" fill="#FFAB00" width="1.9" height="1.9"/>
			<path fill="#37474F" d="M7.7,8.6H5.9c-0.3,0-0.5-0.2-0.5-0.5V6.3c0-0.3,0.2-0.5,0.5-0.5h1.9C8,5.8,8.2,6,8.2,6.3v1.9
				C8.2,8.4,8,8.6,7.7,8.6z M6.4,7.6h0.9V6.8H6.4V7.6z"/>
		</g>
		<g>
			<g>
				<path fill="#FFAB00" d="M26.7,7c0,1.2-1,2.2-2.2,2.2c-1.2,0-2.2-1-2.2-2.2c0-1.2,1-2.2,2.2-2.2C25.7,4.8,26.7,5.8,26.7,7z"/>
				<path fill="#37474F" d="M24.5,9.7c-1.5,0-2.7-1.2-2.7-2.7c0-1.5,1.2-2.7,2.7-2.7c1.5,0,2.7,1.2,2.7,2.7
					C27.2,8.5,26,9.7,24.5,9.7z M24.5,5.3c-0.9,0-1.7,0.8-1.7,1.7c0,0.9,0.8,1.7,1.7,1.7c0.9,0,1.7-0.8,1.7-1.7
					C26.2,6.1,25.4,5.3,24.5,5.3z"/>
			</g>
		</g>
	</g>
	<g>
		<g>
			<g>
				<path fill="#37474F" d="M7.4,20.1C7.2,20.1,7,20,7,19.7c0-0.2,0.2-0.4,0.4-0.4c0.2,0,0.4,0.2,0.4,0.4C7.8,20,7.6,20.1,7.4,20.1z
					"/>
				<path fill="#37474F" d="M7.4,20.6c-0.5,0-0.9-0.4-0.9-0.9c0-0.5,0.4-0.9,0.9-0.9c0.5,0,0.9,0.4,0.9,0.9c0,0.2-0.1,0.4-0.2,0.6
					C7.9,20.5,7.6,20.6,7.4,20.6z"/>
			</g>
			<g>
				<path fill="#37474F" d="M7.4,22.9c-0.2,0-0.4-0.2-0.4-0.4c0-0.2,0.2-0.4,0.4-0.4c0.2,0,0.4,0.2,0.4,0.4
					C7.8,22.7,7.6,22.9,7.4,22.9z"/>
				<path fill="#37474F" d="M7.4,23.4c-0.5,0-0.9-0.4-0.9-0.9s0.4-0.9,0.9-0.9c0.5,0,0.9,0.4,0.9,0.9C8.3,23,7.9,23.4,7.4,23.4
					L7.4,23.4z"/>
			</g>
			<g>
				<path fill="#37474F" d="M7.4,25.6c-0.2,0-0.4-0.2-0.4-0.4c0-0.2,0.2-0.4,0.4-0.4c0.2,0,0.4,0.2,0.4,0.4
					C7.8,25.4,7.6,25.6,7.4,25.6z"/>
				<path fill="#37474F" d="M7.4,26.1c-0.5,0-0.9-0.4-0.9-0.9c0-0.5,0.4-0.9,0.9-0.9c0.2,0,0.5,0.1,0.6,0.3c0.2,0.2,0.3,0.4,0.3,0.6
					c0,0.2-0.1,0.4-0.3,0.6C7.9,26,7.6,26.1,7.4,26.1z"/>
			</g>
		</g>
		<g>
			<g>
				<path fill="#37474F" d="M11.8,20.1c-0.2,0-0.4-0.2-0.4-0.4c0-0.2,0.2-0.4,0.4-0.4c0.2,0,0.4,0.2,0.4,0.4
					C12.2,20,12,20.1,11.8,20.1z"/>
				<path fill="#37474F" d="M11.8,20.6c-0.5,0-0.9-0.4-0.9-0.9c0-0.5,0.4-0.9,0.9-0.9c0.5,0,0.9,0.4,0.9,0.9c0,0.2-0.1,0.4-0.2,0.6
					C12.3,20.5,12,20.6,11.8,20.6z"/>
			</g>
			<g>
				<path fill="#37474F" d="M11.8,22.9c-0.2,0-0.4-0.2-0.4-0.4c0-0.2,0.2-0.4,0.4-0.4c0.2,0,0.4,0.2,0.4,0.4
					C12.2,22.7,12,22.9,11.8,22.9z"/>
				<path fill="#37474F" d="M11.8,23.4c-0.5,0-0.9-0.4-0.9-0.9s0.4-0.9,0.9-0.9c0.5,0,0.9,0.4,0.9,0.9C12.7,23,12.3,23.4,11.8,23.4
					L11.8,23.4z"/>
			</g>
			<g>
				<path fill="#37474F" d="M11.8,25.6c-0.2,0-0.4-0.2-0.4-0.4c0-0.2,0.2-0.4,0.4-0.4c0.2,0,0.4,0.2,0.4,0.4
					C12.2,25.4,12,25.6,11.8,25.6z"/>
				<path fill="#37474F" d="M11.8,26.1c-0.5,0-0.9-0.4-0.9-0.9c0-0.5,0.4-0.9,0.9-0.9c0.2,0,0.5,0.1,0.6,0.3
					c0.2,0.2,0.3,0.4,0.2,0.6c0,0.2-0.1,0.4-0.2,0.6C12.2,26,12,26.1,11.8,26.1z"/>
			</g>
		</g>
		<g>
			<g>
				<path fill="#37474F" d="M16.2,20.1c-0.2,0-0.4-0.2-0.4-0.4c0-0.2,0.2-0.4,0.4-0.4c0.2,0,0.4,0.2,0.4,0.4
					C16.6,20,16.4,20.1,16.2,20.1z"/>
				<path fill="#37474F" d="M16.2,20.6c-0.5,0-0.9-0.4-0.9-0.9c0-0.5,0.4-0.9,0.9-0.9c0.5,0,0.9,0.4,0.9,0.9c0,0.2-0.1,0.4-0.2,0.6
					C16.6,20.5,16.4,20.6,16.2,20.6z"/>
			</g>
			<g>
				<path fill="#37474F" d="M16.2,22.9c-0.2,0-0.4-0.2-0.4-0.4c0-0.2,0.2-0.4,0.4-0.4c0.2,0,0.4,0.2,0.4,0.4
					C16.6,22.7,16.4,22.9,16.2,22.9z"/>
				<path fill="#37474F" d="M16.2,23.4c-0.5,0-0.9-0.4-0.9-0.9s0.4-0.9,0.9-0.9c0.5,0,0.9,0.4,0.9,0.9C17,23,16.6,23.4,16.2,23.4
					L16.2,23.4z"/>
			</g>
			<g>
				<path fill="#37474F" d="M16.2,25.6c-0.2,0-0.4-0.2-0.4-0.4c0-0.2,0.2-0.4,0.4-0.4c0.2,0,0.4,0.2,0.4,0.4
					C16.6,25.4,16.4,25.6,16.2,25.6z"/>
				<path fill="#37474F" d="M16.2,26.1c-0.5,0-0.9-0.4-0.9-0.9c0-0.5,0.4-0.9,0.9-0.9c0.2,0,0.5,0.1,0.6,0.3
					c0.2,0.2,0.3,0.4,0.3,0.6c0,0.2-0.1,0.4-0.3,0.6C16.6,26,16.4,26.1,16.2,26.1z"/>
			</g>
		</g>
		<g>
			<g>
				<path fill="#37474F" d="M20.6,20.1c-0.2,0-0.4-0.2-0.4-0.4c0-0.2,0.2-0.4,0.4-0.4c0.2,0,0.4,0.2,0.4,0.4
					C20.9,20,20.8,20.1,20.6,20.1z"/>
				<path fill="#37474F" d="M20.6,20.6c-0.5,0-0.9-0.4-0.9-0.9c0-0.5,0.4-0.9,0.9-0.9c0.5,0,0.9,0.4,0.9,0.9c0,0.2-0.1,0.4-0.2,0.6
					C21,20.5,20.8,20.6,20.6,20.6z"/>
			</g>
			<g>
				<path fill="#37474F" d="M20.6,22.9c-0.2,0-0.4-0.2-0.4-0.4c0-0.2,0.2-0.4,0.4-0.4c0.2,0,0.4,0.2,0.4,0.4
					C20.9,22.7,20.8,22.9,20.6,22.9z"/>
				<path fill="#37474F" d="M20.5,23.4c-0.5,0-0.9-0.4-0.9-0.9s0.4-0.9,0.9-0.9c0.5,0,0.9,0.4,0.9,0.9C21.4,23,21,23.4,20.5,23.4
					L20.5,23.4z"/>
			</g>
			<g>
				<path fill="#37474F" d="M20.6,25.6c-0.2,0-0.4-0.2-0.4-0.4c0-0.2,0.2-0.4,0.4-0.4c0.2,0,0.4,0.2,0.4,0.4
					C20.9,25.4,20.8,25.6,20.6,25.6z"/>
				<path fill="#37474F" d="M20.6,26.1c-0.5,0-0.9-0.4-0.9-0.9c0-0.5,0.4-0.9,0.9-0.9c0.2,0,0.5,0.1,0.6,0.3
					c0.2,0.2,0.3,0.4,0.2,0.6c0,0.2-0.1,0.4-0.2,0.6C21,26,20.8,26.1,20.6,26.1z"/>
			</g>
		</g>
		<g>
			<g>
				<path fill="#37474F" d="M24.9,20.1c-0.2,0-0.4-0.2-0.4-0.4c0-0.2,0.2-0.4,0.4-0.4c0.2,0,0.4,0.2,0.4,0.4
					C25.3,20,25.2,20.1,24.9,20.1z"/>
				<path fill="#37474F" d="M24.9,20.6c-0.5,0-0.9-0.4-0.9-0.9c0-0.5,0.4-0.9,0.9-0.9c0.5,0,0.9,0.4,0.9,0.9c0,0.2-0.1,0.4-0.2,0.6
					C25.4,20.5,25.2,20.6,24.9,20.6z"/>
			</g>
			<g>
				<path fill="#37474F" d="M24.9,22.9c-0.2,0-0.4-0.2-0.4-0.4c0-0.2,0.2-0.4,0.4-0.4c0.2,0,0.4,0.2,0.4,0.4
					C25.3,22.7,25.2,22.9,24.9,22.9z"/>
				<path fill="#37474F" d="M24.9,23.4c-0.5,0-0.9-0.4-0.9-0.9s0.4-0.9,0.9-0.9c0.5,0,0.9,0.4,0.9,0.9C25.8,23,25.4,23.4,24.9,23.4
					L24.9,23.4z"/>
			</g>
			<g>
				<path fill="#37474F" d="M24.9,25.6c-0.2,0-0.4-0.2-0.4-0.4c0-0.2,0.2-0.4,0.4-0.4c0.2,0,0.4,0.2,0.4,0.4
					C25.3,25.4,25.2,25.6,24.9,25.6z"/>
				<path fill="#37474F" d="M24.9,26.1c-0.5,0-0.9-0.4-0.9-0.9c0-0.5,0.4-0.9,0.9-0.9c0.2,0,0.5,0.1,0.6,0.3
					c0.2,0.2,0.3,0.4,0.2,0.6c0,0.2-0.1,0.4-0.2,0.6C25.4,26,25.2,26.1,24.9,26.1z"/>
			</g>
		</g>
	</g>
	<g>
		<g>
			<polygon fill="#37474F" points="5.6,27.7 6.7,28.8 7.9,27.7 			"/>
		</g>
		<g>
			<polygon fill="#37474F" points="10.3,27.7 11.4,28.8 12.6,27.7 			"/>
		</g>
		<g>
			<polygon fill="#37474F" points="15,27.7 16.2,28.8 17.3,27.7 			"/>
		</g>
		<g>
			<polygon fill="#37474F" points="19.7,27.7 20.9,28.8 22,27.7 			"/>
		</g>
		<g>
			<polygon fill="#37474F" points="24.4,27.7 25.6,28.8 26.7,27.7 			"/>
		</g>
	</g>
</g>
</svg>
