<?xml version="1.0" encoding="utf-8"?>
<!-- Generator: Adobe Illustrator 16.0.0, SVG Export Plug-In . SVG Version: 6.00 Build 0)  -->
<!DOCTYPE svg PUBLIC "-//W3C//DTD SVG 1.1//EN" "http://www.w3.org/Graphics/SVG/1.1/DTD/svg11.dtd">
<svg version="1.1" id="Layer_1" xmlns="http://www.w3.org/2000/svg" xmlns:xlink="http://www.w3.org/1999/xlink" x="0px" y="0px"
	 width="128px" height="128px" viewBox="0 0 128 128" enable-background="new 0 0 128 128" xml:space="preserve">
<g>
	<g>
		<g>
			<path fill="#B0BEC5" d="M30.6,80.7c0,6.8-6.2,12.3-13.8,12.3c-7.6,0-13.8-5.5-13.8-12.3"/>
			<path fill="#37474F" d="M16.7,95.1C8,95.1,0.9,88.6,0.9,80.7c0-1.1,0.9-2,2-2s2,0.9,2,2c0,5.7,5.3,10.3,11.8,10.3
				c6.5,0,11.8-4.6,11.8-10.3c0-1.1,0.9-2,2-2s2,0.9,2,2C32.6,88.6,25.5,95.1,16.7,95.1z"/>
		</g>
		<g>
			<path fill="#B0BEC5" d="M58.2,80.7c0,6.8-6.2,12.3-13.8,12.3c-7.6,0-13.8-5.5-13.8-12.3"/>
			<path fill="#37474F" d="M44.4,95.1c-8.7,0-15.8-6.4-15.8-14.3c0-1.1,0.9-2,2-2s2,0.9,2,2c0,5.7,5.3,10.3,11.8,10.3
				s11.8-4.6,11.8-10.3c0-1.1,0.9-2,2-2s2,0.9,2,2C60.2,88.6,53.1,95.1,44.4,95.1z"/>
		</g>
		<g>
			<path fill="#B0BEC5" d="M85.9,80.7c0,6.8-6.2,12.3-13.8,12.3c-7.6,0-13.8-5.5-13.8-12.3"/>
			<path fill="#37474F" d="M72.1,95.1c-8.7,0-15.8-6.4-15.8-14.3c0-1.1,0.9-2,2-2s2,0.9,2,2c0,5.7,5.3,10.3,11.8,10.3
				c6.5,0,11.8-4.6,11.8-10.3c0-1.1,0.9-2,2-2s2,0.9,2,2C87.9,88.6,80.8,95.1,72.1,95.1z"/>
		</g>
		<g>
			<path fill="#B0BEC5" d="M113.6,80.7c0,6.8-6.2,12.3-13.8,12.3c-7.6,0-13.8-5.5-13.8-12.3"/>
			<path fill="#37474F" d="M99.8,95.1c-8.7,0-15.8-6.4-15.8-14.3c0-1.1,0.9-2,2-2s2,0.9,2,2c0,5.7,5.3,10.3,11.8,10.3
				s11.8-4.6,11.8-10.3c0-1.1,0.9-2,2-2s2,0.9,2,2C115.6,88.6,108.5,95.1,99.8,95.1z"/>
		</g>
	</g>
	<g>
		<g>
			<path fill="#B0BEC5" d="M68.6,58.7c0,6.8-6.2,12.3-13.8,12.3c-7.6,0-13.8-5.5-13.8-12.3"/>
			<path fill="#37474F" d="M54.8,73.1c-8.7,0-15.8-6.4-15.8-14.3c0-1.1,0.9-2,2-2s2,0.9,2,2c0,5.7,5.3,10.3,11.8,10.3
				s11.8-4.6,11.8-10.3c0-1.1,0.9-2,2-2s2,0.9,2,2C70.6,66.6,63.5,73.1,54.8,73.1z"/>
		</g>
		<g>
			<path fill="#B0BEC5" d="M96.2,58.7c0,6.8-6.2,12.3-13.8,12.3c-7.6,0-13.8-5.5-13.8-12.3"/>
			<path fill="#37474F" d="M82.4,73.1c-8.7,0-15.8-6.4-15.8-14.3c0-1.1,0.9-2,2-2s2,0.9,2,2c0,5.7,5.3,10.3,11.8,10.3
				c6.5,0,11.8-4.6,11.8-10.3c0-1.1,0.9-2,2-2s2,0.9,2,2C98.2,66.6,91.1,73.1,82.4,73.1z"/>
		</g>
		<g>
			<path fill="#B0BEC5" d="M123.9,58.7c0,6.8-6.2,12.3-13.8,12.3c-7.6,0-13.8-5.5-13.8-12.3"/>
			<path fill="#37474F" d="M110.1,73.1c-8.7,0-15.8-6.4-15.8-14.3c0-1.1,0.9-2,2-2s2,0.9,2,2c0,5.7,5.3,10.3,11.8,10.3
				s11.8-4.6,11.8-10.3c0-1.1,0.9-2,2-2s2,0.9,2,2C125.9,66.6,118.8,73.1,110.1,73.1z"/>
		</g>
	</g>
	<g>
		<g>
			<path fill="#78909C" d="M38.9,104.4c0,6.8-6.2,12.3-13.8,12.3c-7.6,0-13.8-5.5-13.8-12.3"/>
			<path fill="#37474F" d="M25.1,118.7c-8.7,0-15.8-6.4-15.8-14.3c0-1.1,0.9-2,2-2s2,0.9,2,2c0,5.7,5.3,10.3,11.8,10.3
				s11.8-4.6,11.8-10.3c0-1.1,0.9-2,2-2s2,0.9,2,2C40.9,112.3,33.8,118.7,25.1,118.7z"/>
		</g>
		<g>
			<path fill="#78909C" d="M66.6,104.4c0,6.8-6.2,12.3-13.8,12.3c-7.6,0-13.8-5.5-13.8-12.3"/>
			<path fill="#37474F" d="M52.7,118.7c-8.7,0-15.8-6.4-15.8-14.3c0-1.1,0.9-2,2-2s2,0.9,2,2c0,5.7,5.3,10.3,11.8,10.3
				c6.5,0,11.8-4.6,11.8-10.3c0-1.1,0.9-2,2-2s2,0.9,2,2C68.6,112.3,61.5,118.7,52.7,118.7z"/>
		</g>
		<g>
			<path fill="#78909C" d="M94.2,104.4c0,6.8-6.2,12.3-13.8,12.3c-7.6,0-13.8-5.5-13.8-12.3"/>
			<path fill="#37474F" d="M80.4,118.7c-8.7,0-15.8-6.4-15.8-14.3c0-1.1,0.9-2,2-2s2,0.9,2,2c0,5.7,5.3,10.3,11.8,10.3
				s11.8-4.6,11.8-10.3c0-1.1,0.9-2,2-2s2,0.9,2,2C96.2,112.3,89.1,118.7,80.4,118.7z"/>
		</g>
		<g>
			<path fill="#78909C" d="M121.9,104.4c0,6.8-6.2,12.3-13.8,12.3c-7.6,0-13.8-5.5-13.8-12.3"/>
			<path fill="#37474F" d="M108.1,118.7c-8.7,0-15.8-6.4-15.8-14.3c0-1.1,0.9-2,2-2s2,0.9,2,2c0,5.7,5.3,10.3,11.8,10.3
				c6.5,0,11.8-4.6,11.8-10.3c0-1.1,0.9-2,2-2s2,0.9,2,2C123.9,112.3,116.8,118.7,108.1,118.7z"/>
		</g>
	</g>
	<g>
		<path fill="#FFAB00" d="M20,83V22.3c0-5.5,4.4-10.3,9.9-10.3H38"/>
		<path fill="#37474F" d="M20,85c-1.1,0-2-0.9-2-2V22.3C18,15.5,23.3,10,29.9,10H38c1.1,0,2,0.9,2,2s-0.9,2-2,2h-8.1
			c-4.3,0-7.9,3.8-7.9,8.3V83C22,84.1,21.1,85,20,85z"/>
	</g>
	<g>
		<path fill="#37474F" d="M41,85c-1.1,0-2-0.9-2-2V22.3C39,15.5,44.3,10,50.9,10H59c1.1,0,2,0.9,2,2s-0.9,2-2,2h-8.1
			c-4.3,0-7.9,3.8-7.9,8.3V83C43,84.1,42.1,85,41,85z"/>
	</g>
	<g>
		<line fill="#FFECB3" x1="21" y1="29" x2="41" y2="29"/>
		<path fill="#37474F" d="M41,31H21c-1.1,0-2-0.9-2-2s0.9-2,2-2h20c1.1,0,2,0.9,2,2S42.1,31,41,31z"/>
	</g>
	<g>
		<line fill="#FFECB3" x1="21" y1="45" x2="41" y2="45"/>
		<path fill="#37474F" d="M41,47H21c-1.1,0-2-0.9-2-2s0.9-2,2-2h20c1.1,0,2,0.9,2,2S42.1,47,41,47z"/>
	</g>
	<g>
		<line fill="#FFECB3" x1="21" y1="60" x2="41" y2="60"/>
		<path fill="#37474F" d="M41,62H21c-1.1,0-2-0.9-2-2s0.9-2,2-2h20c1.1,0,2,0.9,2,2S42.1,62,41,62z"/>
	</g>
	<g>
		<line fill="#FFECB3" x1="21" y1="76" x2="41" y2="76"/>
		<path fill="#37474F" d="M41,78H21c-1.1,0-2-0.9-2-2s0.9-2,2-2h20c1.1,0,2,0.9,2,2S42.1,78,41,78z"/>
	</g>
	<g>
		<line fill="#FFECB3" x1="4" y1="27" x2="14" y2="27"/>
		<path fill="#37474F" d="M14,29H4c-1.1,0-2-0.9-2-2s0.9-2,2-2h10c1.1,0,2,0.9,2,2S15.1,29,14,29z"/>
	</g>
	<g>
		<line fill="#FFECB3" x1="50" y1="27" x2="111" y2="27"/>
		<path fill="#37474F" d="M111,29H50c-1.1,0-2-0.9-2-2s0.9-2,2-2h61c1.1,0,2,0.9,2,2S112.1,29,111,29z"/>
	</g>
</g>
</svg>
