<?xml version="1.0" encoding="utf-8"?>
<!-- Generator: Adobe Illustrator 16.0.0, SVG Export Plug-In . SVG Version: 6.00 Build 0)  -->
<!DOCTYPE svg PUBLIC "-//W3C//DTD SVG 1.1//EN" "http://www.w3.org/Graphics/SVG/1.1/DTD/svg11.dtd">
<svg version="1.1" id="Layer_1" xmlns="http://www.w3.org/2000/svg" xmlns:xlink="http://www.w3.org/1999/xlink" x="0px" y="0px"
	 width="24px" height="24px" viewBox="0 0 24 24" enable-background="new 0 0 24 24" xml:space="preserve">
<g>
	<path d="M5.7,12.6C5.7,12.6,5.7,12.6,5.7,12.6c0.3,0,0.5-0.2,0.5-0.5c0-4.8,3.3-8.8,7.4-8.8c4,0,7.3,3.9,7.4,8.8
		c0,0.3,0.2,0.5,0.5,0.5c0,0,0,0,0,0c0.3,0,0.5-0.2,0.5-0.5c0-5.4-3.8-9.8-8.4-9.8c-4.6,0-8.3,4.4-8.4,9.8
		C5.2,12.3,5.5,12.6,5.7,12.6z"/>
	<path d="M13.6,9.3c-3.2,0-6.2,2-8.1,5c-0.9,0-1.1-0.2-1.9-1l-0.1-0.1c-0.3-0.3-0.5-0.6-0.7-1.1c-0.1-0.1-0.2-0.2-0.3-0.3
		c-0.1,0-0.3,0-0.4,0l-1.5,0.8c-0.1,0.1-0.2,0.2-0.2,0.3c-0.1,0.4-0.2,0.8-0.2,1.3c0,2.2,1.3,4.2,3.4,5.3c-0.1,0.6-0.1,1.1-0.1,1.7
		c0,0.1,0.1,0.3,0.1,0.4s0.2,0.1,0.4,0.1h19.2c0.1,0,0.3-0.1,0.4-0.1s0.1-0.2,0.1-0.4C23.7,14.9,18.9,9.3,13.6,9.3z M13.6,10.7
		c2,0,3.8,0.8,5.4,2.2H8.2C9.8,11.5,11.7,10.7,13.6,10.7z M1.3,14.2c0-0.3,0-0.5,0.1-0.8L2.2,13c0.2,0.4,0.4,0.7,0.6,0.9L2.9,14
		c0.7,0.7,1.2,1.2,2.1,1.3c-0.5,1-0.9,2.1-1.1,3.2C2.3,17.6,1.3,16,1.3,14.2z M4.5,20.7c0.1-2.6,1.1-5,2.5-6.8h13.2
		c1.4,1.8,2.4,4.2,2.5,6.8H4.5z"/>
	<path d="M13.6,7.1c-0.1,0-0.3,0.1-0.4,0.1L12,8.5c-0.2,0.2-0.2,0.5,0,0.7c0.1,0.1,0.2,0.1,0.4,0.1s0.3,0,0.4-0.1l0.9-0.9l0.9,0.9
		c0.2,0.2,0.5,0.2,0.7,0c0.2-0.2,0.2-0.5,0-0.7L14,7.2C13.9,7.1,13.7,7.1,13.6,7.1z"/>
	<path d="M12.2,16.5c-0.4,0-0.8,0.3-0.8,0.8c0,0.4,0.3,0.8,0.8,0.8c0.4,0,0.8-0.3,0.8-0.7c0-0.2-0.1-0.4-0.2-0.5
		S12.4,16.5,12.2,16.5z"/>
	<path d="M9.5,16.5c-0.2,0-0.4,0.1-0.5,0.2c-0.1,0.1-0.2,0.3-0.2,0.5C8.7,17.7,9,18,9.5,18c0.4,0,0.7-0.3,0.8-0.8
		C10.2,16.8,9.9,16.5,9.5,16.5z"/>
	<path d="M6.7,16.5c-0.4,0-0.8,0.3-0.8,0.8S6.3,18,6.7,18c0.4,0,0.8-0.3,0.8-0.8C7.4,16.9,7.1,16.5,6.7,16.5z"/>
	<path d="M19.8,17.3c0,0.4,0.3,0.8,0.8,0.8c0.4,0,0.8-0.3,0.8-0.7c0-0.2-0.1-0.4-0.2-0.5c-0.1-0.1-0.3-0.2-0.5-0.2
		C20.1,16.5,19.8,16.9,19.8,17.3z"/>
	<path d="M17.8,16.5c-0.2,0-0.4,0.1-0.5,0.2c-0.1,0.1-0.2,0.3-0.2,0.5c0,0.4,0.3,0.8,0.8,0.8c0.4,0,0.8-0.3,0.8-0.8
		C18.5,16.9,18.2,16.5,17.8,16.5z"/>
	<circle cx="15" cy="17.3" r="0.8"/>
</g>
</svg>
