<?xml version="1.0" encoding="utf-8"?>
<!-- Generator: Adobe Illustrator 16.0.0, SVG Export Plug-In . SVG Version: 6.00 Build 0)  -->
<!DOCTYPE svg PUBLIC "-//W3C//DTD SVG 1.1//EN" "http://www.w3.org/Graphics/SVG/1.1/DTD/svg11.dtd">
<svg version="1.1" id="Layer_1" xmlns="http://www.w3.org/2000/svg" xmlns:xlink="http://www.w3.org/1999/xlink" x="0px" y="0px"
	 width="32px" height="32px" viewBox="0 0 32 32" enable-background="new 0 0 32 32" xml:space="preserve">
<g>
	<g>
		<rect x="5.1" y="14.6" fill="#FFECB3" width="21.8" height="13.1"/>
		<path fill="#37474F" d="M26.9,28.2H5.1c-0.3,0-0.5-0.2-0.5-0.5V14.6c0-0.3,0.2-0.5,0.5-0.5h21.8c0.3,0,0.5,0.2,0.5,0.5v13.1
			C27.4,28,27.2,28.2,26.9,28.2z M5.6,27.2h20.8V15.1H5.6V27.2z"/>
	</g>
	<g>
		<rect x="5.1" y="14.6" fill="#FFFFFF" width="6.1" height="13.1"/>
		<path fill="#37474F" d="M11.2,28.2H5.1c-0.3,0-0.5-0.2-0.5-0.5V14.6c0-0.3,0.2-0.5,0.5-0.5h6.1c0.3,0,0.5,0.2,0.5,0.5v13.1
			C11.7,28,11.5,28.2,11.2,28.2z M5.6,27.2h5.1V15.1H5.6V27.2z"/>
	</g>
	<g>
		<line fill="#FFFFFF" x1="8.8" y1="22.4" x2="10" y2="22.4"/>
		<path fill="#37474F" d="M10,22.9H8.8c-0.3,0-0.5-0.2-0.5-0.5s0.2-0.5,0.5-0.5H10c0.3,0,0.5,0.2,0.5,0.5S10.3,22.9,10,22.9z"/>
	</g>
	<g>
		<line fill="#FFFFFF" x1="17.9" y1="24.3" x2="23.8" y2="18.4"/>
		<path fill="#37474F" d="M17.9,24.8c-0.1,0-0.3,0-0.4-0.1c-0.2-0.2-0.2-0.5,0-0.7l5.9-5.9c0.2-0.2,0.5-0.2,0.7,0s0.2,0.5,0,0.7
			l-5.9,5.9C18.2,24.8,18,24.8,17.9,24.8z"/>
	</g>
	<g>
		<line fill="#FFFFFF" x1="20.8" y1="25" x2="23.9" y2="21.9"/>
		<path fill="#37474F" d="M20.8,25.5c-0.1,0-0.3,0-0.4-0.1c-0.2-0.2-0.2-0.5,0-0.7l3.1-3.1c0.2-0.2,0.5-0.2,0.7,0s0.2,0.5,0,0.7
			l-3.1,3.1C21,25.4,20.9,25.5,20.8,25.5z"/>
	</g>
	<g>
		<line fill="#FFFFFF" x1="1" y1="27.7" x2="31" y2="27.7"/>
		<path fill="#37474F" d="M31,28.2H1c-0.3,0-0.5-0.2-0.5-0.5s0.2-0.5,0.5-0.5H31c0.3,0,0.5,0.2,0.5,0.5S31.2,28.2,31,28.2z"/>
	</g>
	<g>
		<g>
			<path fill="#FFFFFF" d="M2.8,8.8v4.6c0,0.7,0.9,1.2,2,1.2s2-0.6,2-1.2V8.8H2.8z"/>
			<path fill="#37474F" d="M4.8,15.1c-1.4,0-2.5-0.8-2.5-1.7V8.8c0-0.3,0.2-0.5,0.5-0.5h3.9c0.3,0,0.5,0.2,0.5,0.5v4.6
				C7.2,14.4,6.2,15.1,4.8,15.1z M3.3,9.3v4.1c0,0.3,0.6,0.7,1.5,0.7c0.8,0,1.5-0.4,1.5-0.7V9.3H3.3z"/>
		</g>
		<g>
			<path fill="#FFAB00" d="M6.5,8.8v4.6c0,0.7,0.9,1.2,2,1.2s2-0.6,2-1.2V8.8H6.5z"/>
			<path fill="#37474F" d="M8.4,15.1c-1.4,0-2.5-0.8-2.5-1.7V8.8c0-0.3,0.2-0.5,0.5-0.5h3.9c0.3,0,0.5,0.2,0.5,0.5v4.6
				C10.9,14.4,9.8,15.1,8.4,15.1z M7,9.3v4.1c0,0.3,0.6,0.7,1.5,0.7c0.8,0,1.5-0.4,1.5-0.7V9.3H7z"/>
		</g>
		<g>
			<path fill="#FFFFFF" d="M10.1,8.8v4.6c0,0.7,0.9,1.2,2,1.2c1.1,0,2-0.6,2-1.2V8.8H10.1z"/>
			<path fill="#37474F" d="M12.1,15.1c-1.4,0-2.5-0.8-2.5-1.7V8.8c0-0.3,0.2-0.5,0.5-0.5h3.9c0.3,0,0.5,0.2,0.5,0.5v4.6
				C14.6,14.4,13.5,15.1,12.1,15.1z M10.6,9.3v4.1c0,0.3,0.6,0.7,1.5,0.7c0.8,0,1.5-0.4,1.5-0.7V9.3H10.6z"/>
		</g>
		<g>
			<path fill="#FFAB00" d="M13.8,8.8v4.6c0,0.7,0.9,1.2,2,1.2s2-0.6,2-1.2V8.8H13.8z"/>
			<path fill="#37474F" d="M15.8,15.1c-1.4,0-2.5-0.8-2.5-1.7V8.8c0-0.3,0.2-0.5,0.5-0.5h3.9c0.3,0,0.5,0.2,0.5,0.5v4.6
				C18.3,14.4,17.2,15.1,15.8,15.1z M14.3,9.3v4.1c0,0.3,0.6,0.7,1.5,0.7c0.8,0,1.5-0.4,1.5-0.7V9.3H14.3z"/>
		</g>
		<g>
			<path fill="#FFFFFF" d="M17.5,8.8v4.6c0,0.7,0.9,1.2,2,1.2s2-0.6,2-1.2V8.8H17.5z"/>
			<path fill="#37474F" d="M19.5,15.1c-1.4,0-2.5-0.8-2.5-1.7V8.8c0-0.3,0.2-0.5,0.5-0.5h3.9c0.3,0,0.5,0.2,0.5,0.5v4.6
				C21.9,14.4,20.9,15.1,19.5,15.1z M18,9.3v4.1c0,0.3,0.6,0.7,1.5,0.7c0.8,0,1.5-0.4,1.5-0.7V9.3H18z"/>
		</g>
		<g>
			<path fill="#FFAB00" d="M21.2,8.8v4.6c0,0.7,0.9,1.2,2,1.2s2-0.6,2-1.2V8.8H21.2z"/>
			<path fill="#37474F" d="M23.1,15.1c-1.4,0-2.5-0.8-2.5-1.7V8.8c0-0.3,0.2-0.5,0.5-0.5h3.9c0.3,0,0.5,0.2,0.5,0.5v4.6
				C25.6,14.4,24.5,15.1,23.1,15.1z M21.7,9.3v4.1c0,0.3,0.6,0.7,1.5,0.7s1.5-0.4,1.5-0.7V9.3H21.7z"/>
		</g>
		<g>
			<path fill="#FFFFFF" d="M24.8,8.8v4.6c0,0.7,0.9,1.2,2,1.2s2-0.6,2-1.2V8.8H24.8z"/>
			<path fill="#37474F" d="M26.8,15.1c-1.4,0-2.5-0.8-2.5-1.7V8.8c0-0.3,0.2-0.5,0.5-0.5h3.9c0.3,0,0.5,0.2,0.5,0.5v4.6
				C29.3,14.4,28.2,15.1,26.8,15.1z M25.3,9.3v4.1c0,0.3,0.6,0.7,1.5,0.7s1.5-0.4,1.5-0.7V9.3H25.3z"/>
		</g>
	</g>
	<g>
		<polygon fill="#FFECB3" points="28.8,8.7 2.8,8.7 6.3,4.3 25.3,4.3 		"/>
		<path fill="#37474F" d="M28.8,9.2C28.8,9.2,28.8,9.2,28.8,9.2h-26C2.6,9.2,2.5,9.1,2.4,9C2.3,8.8,2.3,8.6,2.4,8.4L5.9,4
			C6,3.9,6.1,3.8,6.3,3.8h19.1c0.2,0,0.3,0.1,0.4,0.2l3.4,4.4c0.1,0.1,0.2,0.2,0.2,0.4C29.3,9,29.1,9.2,28.8,9.2z M3.8,8.2h23.9
			l-2.7-3.4H6.5L3.8,8.2z"/>
	</g>
</g>
</svg>
