<?xml version="1.0" encoding="utf-8"?>
<!-- Generator: Adobe Illustrator 16.0.0, SVG Export Plug-In . SVG Version: 6.00 Build 0)  -->
<!DOCTYPE svg PUBLIC "-//W3C//DTD SVG 1.1//EN" "http://www.w3.org/Graphics/SVG/1.1/DTD/svg11.dtd">
<svg version="1.1" id="Layer_1" xmlns="http://www.w3.org/2000/svg" xmlns:xlink="http://www.w3.org/1999/xlink" x="0px" y="0px"
	 width="24px" height="24px" viewBox="0 0 24 24" enable-background="new 0 0 24 24" xml:space="preserve">
<g>
	<path d="M10.9,12.6c0,0.5,0.4,0.8,0.8,0.8h0c0.5,0,0.8-0.4,0.8-0.8c0-0.2-0.1-0.4-0.2-0.6c-0.2-0.2-0.4-0.2-0.6-0.2
		C11.3,11.8,10.9,12.2,10.9,12.6z"/>
	<path d="M8.9,12.1c-0.2,0.2-0.2,0.4-0.2,0.6c0,0.4,0.3,0.8,0.8,0.8l0,0c0.4,0,0.8-0.4,0.8-0.8c0-0.5-0.4-0.8-0.8-0.8
		C9.3,11.8,9.1,11.9,8.9,12.1z"/>
	<path d="M6.4,12.6c0,0.5,0.4,0.8,0.8,0.8c0,0,0,0,0,0h0c0.4,0,0.8-0.4,0.8-0.8c0-0.5-0.4-0.8-0.8-0.8C6.8,11.8,6.4,12.2,6.4,12.6z"
		/>
	<path d="M19.7,13.5c0.5,0,0.8-0.4,0.8-0.8c0-0.2-0.1-0.4-0.2-0.6c-0.2-0.2-0.4-0.2-0.6-0.2c-0.5,0-0.8,0.4-0.8,0.8
		C18.8,13.1,19.2,13.5,19.7,13.5L19.7,13.5z"/>
	<path d="M17.4,13.5c0.5,0,0.8-0.4,0.8-0.8c0-0.5-0.4-0.8-0.8-0.8c-0.2,0-0.4,0.1-0.6,0.2c-0.2,0.2-0.2,0.4-0.2,0.6
		C16.6,13.1,16.9,13.4,17.4,13.5L17.4,13.5z"/>
	<path d="M15.1,13.5C15.1,13.5,15.1,13.5,15.1,13.5L15.1,13.5c0.5,0,0.9-0.4,0.9-0.8c0-0.5-0.4-0.8-0.8-0.8c-0.5,0-0.8,0.4-0.8,0.8
		C14.3,13.1,14.7,13.5,15.1,13.5z"/>
	<path d="M23.3,8.3c0-0.7-0.3-1.3-0.7-1.8c-0.1-3.4-2.6-6.1-5.5-6.1c-0.7,0-1.3,0-1.3,0.6v1.9h-5v-1c0-0.3-0.2-0.5-0.5-0.5
		S9.8,1.6,9.8,1.9v1.5c0,0.3,0.2,0.5,0.5,0.5h5.5v0.2c0,0.3,0.3,0.5,0.6,0.5c0,0,0.1,0,0.1,0c1.1,0,2,0.9,2,2.1c0,0,0,0,0,0.1
		c-0.3,0.4-0.6,1-0.6,1.6c0,0.3,0.2,0.5,0.5,0.5S19,8.6,19,8.3c0-0.9,0.7-1.7,1.6-1.7s1.6,0.7,1.6,1.7c0,0.9-0.7,1.6-1.6,1.6
		c-0.3,0-0.5,0.2-0.5,0.5s0.2,0.5,0.5,0.5c0.4,0,0.8-0.1,1.1-0.3v0.2v3H3.1c0.8-1.2,1.9-2.3,3.1-3.2C8.3,9.4,11,8.6,14,8.6
		c0.3,0,0.5-0.2,0.5-0.5c0-0.1,0-0.1,0-0.2c0-0.1,0-0.1,0-0.2c0-0.3-0.2-0.5-0.5-0.5c-3.2,0-5.9,1-8.1,2.5c-1.8,1.1-3.3,2.9-4.2,4.7
		c-0.5,1-0.8,1.9-1,2.9c0,0.1,0,0.3,0.1,0.4c0.1,0.1,0.2,0.2,0.4,0.2h21.1c0.3,0,0.5-0.2,0.5-0.5v-3v-3.5v-1c0,0,0,0,0,0
		C23.1,9.4,23.3,8.9,23.3,8.3z M20.7,5.7c-0.4,0-0.8,0.1-1.2,0.3c-0.3-1.3-1.4-2.3-2.7-2.4V1.4c0.1,0,0.2,0,0.3,0
		c2.2,0,4.1,1.9,4.5,4.4C21.3,5.7,21,5.7,20.7,5.7z M21.8,16.9h-20c0.2-0.7,0.4-1.3,0.7-2h19.3V16.9z"/>
	<path d="M6.2,21.8L6.2,21.8L6.2,19c0-0.3-0.2-0.5-0.5-0.5S5.2,18.7,5.2,19v2.9l-0.1-0.1c-0.2-0.2-0.5-0.2-0.7,0
		c-0.2,0.2-0.2,0.5,0,0.7l0.9,0.9c0.1,0.1,0.2,0.1,0.4,0.1c0.1,0,0.3,0,0.4-0.1l0.9-0.9c0.2-0.2,0.2-0.5,0-0.7S6.4,21.6,6.2,21.8z"
		/>
	<path d="M10.7,21.8L10.7,21.8C10.6,21.9,10.6,21.9,10.7,21.8l-0.1-2.9c0-0.3-0.2-0.5-0.5-0.5s-0.5,0.2-0.5,0.5v3c0,0,0,0,0,0
		l-0.1-0.1c-0.2-0.2-0.5-0.2-0.7,0c-0.2,0.2-0.2,0.5,0,0.7l0.9,0.9c0.1,0.1,0.2,0.1,0.4,0.1s0.3,0,0.4-0.1l0.9-0.9
		c0.2-0.2,0.2-0.5,0-0.7C11.2,21.6,10.9,21.6,10.7,21.8z M10.1,22.4L10.1,22.4C10.1,22.4,10.1,22.4,10.1,22.4
		C10.1,22.4,10.1,22.4,10.1,22.4L10.1,22.4z"/>
	<path d="M15.1,21.8L15.1,21.8L15,18.9c0-0.3-0.2-0.5-0.5-0.5S14,18.6,14,18.9v3l-0.1-0.1c-0.2-0.2-0.5-0.2-0.7,0
		c-0.2,0.2-0.2,0.5,0,0.7l0.9,0.9c0.1,0.1,0.2,0.1,0.4,0.1c0.1,0,0.3,0,0.4-0.1l0.9-0.9c0.2-0.2,0.2-0.5,0-0.7S15.3,21.6,15.1,21.8z
		"/>
	<path d="M19.5,21.8L19.5,21.8l-0.1-2.9c0-0.3-0.2-0.5-0.5-0.5s-0.5,0.2-0.5,0.5v3l-0.1-0.1c-0.2-0.2-0.5-0.2-0.7,0
		c-0.2,0.2-0.2,0.5,0,0.7l0.9,0.9c0.1,0.1,0.2,0.1,0.4,0.1s0.3,0,0.4-0.1l0.9-0.9c0.2-0.2,0.2-0.5,0-0.7
		C20,21.6,19.7,21.6,19.5,21.8z"/>
</g>
</svg>
