<?xml version="1.0" encoding="utf-8"?>
<!-- Generator: Adobe Illustrator 16.0.0, SVG Export Plug-In . SVG Version: 6.00 Build 0)  -->
<!DOCTYPE svg PUBLIC "-//W3C//DTD SVG 1.1//EN" "http://www.w3.org/Graphics/SVG/1.1/DTD/svg11.dtd">
<svg version="1.1" id="Layer_1" xmlns="http://www.w3.org/2000/svg" xmlns:xlink="http://www.w3.org/1999/xlink" x="0px" y="0px"
	 width="32px" height="32px" viewBox="0 0 32 32" enable-background="new 0 0 32 32" xml:space="preserve">
<g>
	<g>
		<g>
			<path fill="#78909C" d="M25.5,8.1h4.1c-0.1-4-3.6-7-7.2-7c0,0,0-0.1,0,0v4c0,0-0.1-0.2,0-0.2C24.1,4.9,25.4,7.1,25.5,8.1z"/>
			<path fill="#37474F" d="M30,8.6h-5l0-0.4c-0.1-0.8-1.1-2.6-2.5-2.8L21.8,6V5.2c0-0.1,0-0.2,0-0.4V0.6h0.5c4.1,0,7.6,3.4,7.7,7.5
				L30,8.6z M25.9,7.6H29c-0.4-3.4-3.3-5.7-6.2-6v2.8C24.4,4.8,25.5,6.4,25.9,7.6z"/>
		</g>
		<g>
			<path fill="#B0BEC5" d="M30.3,11c-2-0.4-9.8-0.7-11.4-0.7c-8.9,0-16.2,5.8-17.3,12.8h28.7V11z"/>
			<path fill="#37474F" d="M30.3,23.6H1.6c-0.1,0-0.3-0.1-0.4-0.2c-0.1-0.1-0.1-0.3-0.1-0.4c1.2-7.4,9-13.2,17.8-13.2
				c1.7,0,9.5,0.3,11.5,0.7c0.2,0,0.4,0.2,0.4,0.5v12.1C30.8,23.4,30.6,23.6,30.3,23.6z M2.2,22.6h27.6V11.5
				c-2.4-0.3-9.4-0.6-10.9-0.6C10.8,10.8,3.6,16,2.2,22.6z"/>
		</g>
		<g>
			<path fill="#FFFFFF" d="M2.9,19.1h27.4V11c-2-0.4-9.8-0.7-11.4-0.7C11.7,10.3,5.6,14.1,2.9,19.1z"/>
			<path fill="#37474F" d="M30.3,19.6H2.9c-0.2,0-0.3-0.1-0.4-0.2c-0.1-0.2-0.1-0.3,0-0.5c2.9-5.4,9.5-9.1,16.4-9.1
				c1.6,0,9.4,0.4,11.5,0.7c0.2,0,0.4,0.2,0.4,0.5v8.1C30.8,19.4,30.6,19.6,30.3,19.6z M3.8,18.6h26v-7.2c-2.5-0.3-9.5-0.7-10.9-0.7
				C12.6,10.8,6.7,13.9,3.8,18.6z"/>
		</g>
		<g>
			<g>
				<path fill="#37474F" d="M15.3,16.6c0-0.2,0.2-0.4,0.4-0.4c0.2,0,0.4,0.2,0.4,0.4c0,0.2-0.2,0.4-0.4,0.4
					C15.5,17,15.3,16.8,15.3,16.6z"/>
				<path fill="#37474F" d="M15.7,17.5c-0.5,0-0.9-0.4-0.9-0.9c0-0.5,0.4-0.9,0.9-0.9c0.3,0,0.5,0.1,0.7,0.3
					c0.2,0.2,0.3,0.4,0.3,0.7C16.6,17.1,16.2,17.5,15.7,17.5L15.7,17.5z"/>
			</g>
			<g>
				<path fill="#37474F" d="M12.2,16.6c0-0.2,0.2-0.4,0.4-0.4c0.2,0,0.4,0.2,0.4,0.4c0,0.2-0.2,0.4-0.4,0.4
					C12.4,17,12.2,16.8,12.2,16.6z"/>
				<path fill="#37474F" d="M12.7,17.5L12.7,17.5c-0.5,0-0.9-0.4-0.9-0.9c0-0.2,0.1-0.5,0.3-0.7c0.2-0.2,0.4-0.3,0.7-0.3
					c0.5,0,0.9,0.4,0.9,0.9C13.6,17.1,13.2,17.5,12.7,17.5z"/>
			</g>
			<g>
				<path fill="#37474F" d="M9.2,16.6c0-0.2,0.2-0.4,0.4-0.4c0.2,0,0.4,0.2,0.4,0.4c0,0.2-0.2,0.4-0.4,0.4C9.4,17,9.2,16.8,9.2,16.6
					z"/>
				<path fill="#37474F" d="M9.7,17.5L9.7,17.5c-0.6,0-0.9-0.4-0.9-0.9c0-0.5,0.4-0.9,0.9-0.9c0.5,0,0.9,0.4,0.9,0.9
					C10.6,17.1,10.2,17.5,9.7,17.5z M9.6,16.6l0,0.4L9.6,16.6L9.6,16.6C9.7,16.5,9.7,16.5,9.6,16.6L9.6,16.6
					C9.6,16.5,9.6,16.5,9.6,16.6L9.6,16.6C9.6,16.5,9.6,16.5,9.6,16.6L9.6,16.6z"/>
			</g>
		</g>
		<g>
			<g>
				<path fill="#37474F" d="M25.8,16.6c0-0.2,0.2-0.4,0.4-0.4c0.2,0,0.4,0.2,0.4,0.4c0,0.2-0.2,0.4-0.4,0.4
					C26,17,25.8,16.8,25.8,16.6z"/>
				<path fill="#37474F" d="M26.2,17.5c-0.5,0-0.9-0.4-0.9-0.9c0-0.5,0.4-0.9,0.9-0.9c0.3,0,0.5,0.1,0.7,0.3
					c0.2,0.2,0.3,0.4,0.3,0.7C27.2,17.1,26.7,17.5,26.2,17.5L26.2,17.5z"/>
			</g>
			<g>
				<path fill="#37474F" d="M22.8,16.6c0-0.2,0.2-0.4,0.4-0.4c0.2,0,0.4,0.2,0.4,0.4c0,0.2-0.2,0.4-0.4,0.4
					C23,17,22.8,16.8,22.8,16.6z"/>
				<path fill="#37474F" d="M23.2,17.5L23.2,17.5c-0.5,0-0.9-0.4-0.9-0.9c0-0.2,0.1-0.5,0.3-0.7c0.2-0.2,0.4-0.3,0.7-0.3
					c0.5,0,0.9,0.4,0.9,0.9C24.1,17.1,23.7,17.5,23.2,17.5z"/>
			</g>
			<g>
				<path fill="#37474F" d="M19.7,16.6c0-0.2,0.2-0.4,0.4-0.4c0.2,0,0.4,0.2,0.4,0.4c0,0.2-0.2,0.4-0.4,0.4
					C19.9,17,19.7,16.8,19.7,16.6z"/>
				<path fill="#37474F" d="M20.2,17.5L20.2,17.5C20.2,17.5,20.2,17.5,20.2,17.5c-0.5,0-0.9-0.4-0.9-0.9c0-0.5,0.4-0.9,0.9-0.9
					s0.9,0.4,0.9,0.9C21.1,17.1,20.7,17.5,20.2,17.5z M20.2,16.6l0,0.4L20.2,16.6L20.2,16.6C20.2,16.5,20.2,16.5,20.2,16.6
					L20.2,16.6C20.2,16.5,20.2,16.5,20.2,16.6L20.2,16.6C20.1,16.5,20.1,16.5,20.2,16.6L20.2,16.6z"/>
			</g>
		</g>
		<g>
			<g>
				<path fill="#FFAB00" d="M30.4,10.8c0,1.6-1.3,2.9-2.9,2.9c-1.6,0-2.9-1.3-2.9-2.9c0-1.6,1.3-2.9,2.9-2.9
					C29.1,7.9,30.4,9.2,30.4,10.8z"/>
				<path fill="#37474F" d="M27.6,14.2c-1.9,0-3.4-1.5-3.4-3.4c0-1.9,1.5-3.4,3.4-3.4s3.4,1.5,3.4,3.4
					C30.9,12.7,29.4,14.2,27.6,14.2z M27.6,8.4c-1.3,0-2.4,1.1-2.4,2.4c0,1.3,1.1,2.4,2.4,2.4s2.4-1.1,2.4-2.4
					C29.9,9.5,28.9,8.4,27.6,8.4z"/>
			</g>
			<g>
				<path fill="#FFECB3" d="M28.9,10.8c0,0.7-0.6,1.3-1.3,1.3s-1.3-0.6-1.3-1.3c0-0.7,0.6-1.3,1.3-1.3S28.9,10.1,28.9,10.8z"/>
				<path fill="#37474F" d="M27.6,12.6c-1,0-1.8-0.8-1.8-1.8c0-1,0.8-1.8,1.8-1.8c1,0,1.8,0.8,1.8,1.8
					C29.4,11.8,28.6,12.6,27.6,12.6z M27.6,10c-0.4,0-0.8,0.4-0.8,0.8c0,0.4,0.4,0.8,0.8,0.8c0.4,0,0.8-0.4,0.8-0.8
					C28.4,10.4,28,10,27.6,10z"/>
			</g>
		</g>
		<g>
			<rect x="13.3" y="1.1" fill="#FFAB00" width="9" height="4"/>
			<path fill="#37474F" d="M22.3,5.6h-9c-0.3,0-0.5-0.2-0.5-0.5v-4c0-0.3,0.2-0.5,0.5-0.5h9c0.3,0,0.5,0.2,0.5,0.5v4
				C22.8,5.4,22.6,5.6,22.3,5.6z M13.8,4.6h8v-3h-8V4.6z"/>
		</g>
	</g>
	<g>
		<g>
			<g>
				<line fill="#78909C" x1="7.5" y1="24.8" x2="7.5" y2="29.8"/>
				<path fill="#37474F" d="M7.5,30.3C7.3,30.3,7,30,7,29.8v-5c0-0.3,0.2-0.5,0.5-0.5S8,24.5,8,24.8v5C8,30,7.8,30.3,7.5,30.3z"/>
			</g>
			<g>
				<polygon fill="#37474F" points="6.3,29.6 7.5,30.9 8.8,29.6 				"/>
			</g>
		</g>
	</g>
	<g>
		<g>
			<g>
				<line fill="#78909C" x1="13.4" y1="24.7" x2="13.4" y2="29.7"/>
				<path fill="#37474F" d="M13.4,30.2c-0.3,0-0.5-0.2-0.5-0.5v-5c0-0.3,0.2-0.5,0.5-0.5s0.5,0.2,0.5,0.5v5
					C13.9,30,13.7,30.2,13.4,30.2z"/>
			</g>
			<g>
				<polygon fill="#37474F" points="12.2,29.6 13.4,30.9 14.7,29.6 				"/>
			</g>
		</g>
	</g>
	<g>
		<g>
			<g>
				<line fill="#78909C" x1="19.3" y1="24.7" x2="19.3" y2="29.7"/>
				<path fill="#37474F" d="M19.3,30.2c-0.3,0-0.5-0.2-0.5-0.5v-5c0-0.3,0.2-0.5,0.5-0.5s0.5,0.2,0.5,0.5v5
					C19.8,30,19.6,30.2,19.3,30.2z"/>
			</g>
			<g>
				<polygon fill="#37474F" points="18.1,29.6 19.3,30.9 20.6,29.6 				"/>
			</g>
		</g>
	</g>
	<g>
		<g>
			<g>
				<line fill="#78909C" x1="25.2" y1="24.6" x2="25.2" y2="29.6"/>
				<path fill="#37474F" d="M25.2,30.1c-0.3,0-0.5-0.2-0.5-0.5v-5c0-0.3,0.2-0.5,0.5-0.5s0.5,0.2,0.5,0.5v5
					C25.7,29.9,25.5,30.1,25.2,30.1z"/>
			</g>
			<g>
				<polygon fill="#37474F" points="24,29.6 25.2,30.9 26.5,29.6 				"/>
			</g>
		</g>
	</g>
</g>
</svg>
