<?xml version="1.0" encoding="utf-8"?>
<!-- Generator: Adobe Illustrator 16.0.0, SVG Export Plug-In . SVG Version: 6.00 Build 0)  -->
<!DOCTYPE svg PUBLIC "-//W3C//DTD SVG 1.1//EN" "http://www.w3.org/Graphics/SVG/1.1/DTD/svg11.dtd">
<svg version="1.1" id="Layer_1" xmlns="http://www.w3.org/2000/svg" xmlns:xlink="http://www.w3.org/1999/xlink" x="0px" y="0px"
	 width="24px" height="24px" viewBox="0 0 24 24" enable-background="new 0 0 24 24" xml:space="preserve">
<g>
	<path d="M23,20.9L19.6,8.2c-0.2-0.9-1.1-1.5-2.2-1.5H13v-2h6.6c1.5,0,2.4-0.9,2.4-2.4V1.8c0-0.3-0.2-0.5-0.5-0.5S21,1.5,21,1.8v0.6
		c0,0.9-0.5,1.4-1.4,1.4h-7.1h-2H4.4C3.5,3.8,3,3.3,3,2.4V1.8c0-0.3-0.2-0.5-0.5-0.5S2,1.5,2,1.8v0.6c0,1.5,0.9,2.4,2.3,2.4H10v2
		H6.6c-0.5,0-1.8,0-2.2,1.4L1,20.9c0,0,0,0.1,0,0.1c0,1,1,1.7,2.2,1.7h17.7c1.3,0,2.2-0.7,2.2-1.7C23.1,21,23.1,20.9,23,20.9z
		 M11,4.8h1v2h-1V4.8z M5.4,8.4C5.5,8,5.7,7.8,6.6,7.8h3.9h2h4.8c0.7,0,1.2,0.3,1.2,0.7l1.2,4.3H18v-0.5c0-0.3-0.2-0.5-0.5-0.5h-11
		C6.3,11.8,6,12,6,12.2v0.5H4.2L5.4,8.4z M17,12.8v2H7v-2H17z M20.8,21.8H3.2c-0.6,0-1.2-0.3-1.2-0.7l2-7.3c0,0,0.1,0,0.1,0h2v1.5
		c0,0.3,0.2,0.5,0.5,0.5h11c0.3,0,0.5-0.2,0.5-0.5v-1.5h2c0,0,0,0,0,0l2,7.3C22,21.5,21.5,21.8,20.8,21.8z"/>
	<path d="M14.8,16.6c-0.4,0-0.8,0.3-0.8,0.8s0.3,0.8,0.8,0.8c0.4,0,0.8-0.3,0.8-0.7c0-0.2-0.1-0.4-0.2-0.5
		C15.2,16.7,15,16.6,14.8,16.6z"/>
	<path d="M12,16.6c-0.2,0-0.4,0.1-0.5,0.2s-0.2,0.3-0.2,0.5c0,0.4,0.3,0.8,0.8,0.8c0.4,0,0.8-0.3,0.8-0.8
		C12.7,16.9,12.4,16.6,12,16.6z"/>
	<circle cx="9.2" cy="17.4" r="0.8"/>
	<path d="M14.8,18.6c-0.4,0-0.8,0.3-0.8,0.8c0,0.4,0.3,0.8,0.8,0.8c0.4,0,0.8-0.3,0.8-0.7c0-0.2-0.1-0.4-0.2-0.5
		C15.2,18.7,15,18.6,14.8,18.6z"/>
	<path d="M12,18.6c-0.2,0-0.4,0.1-0.5,0.2c-0.1,0.1-0.2,0.3-0.2,0.5c0,0.4,0.3,0.8,0.8,0.8c0.4,0,0.8-0.3,0.8-0.8
		C12.7,18.9,12.4,18.6,12,18.6z"/>
	<circle cx="9.2" cy="19.4" r="0.8"/>
</g>
</svg>
