<?xml version="1.0" encoding="utf-8"?>
<!-- Generator: Adobe Illustrator 16.0.0, SVG Export Plug-In . SVG Version: 6.00 Build 0)  -->
<!DOCTYPE svg PUBLIC "-//W3C//DTD SVG 1.1//EN" "http://www.w3.org/Graphics/SVG/1.1/DTD/svg11.dtd">
<svg version="1.1" id="Layer_1" xmlns="http://www.w3.org/2000/svg" xmlns:xlink="http://www.w3.org/1999/xlink" x="0px" y="0px"
	 width="25px" height="25px" viewBox="0 0 25 25" enable-background="new 0 0 25 25" xml:space="preserve">
<g>
	<path d="M15.1,16.7V3c0-0.3-0.2-0.5-0.5-0.5H0.9C0.6,2.5,0.4,2.7,0.4,3v13.7c0,0.3,0.2,0.5,0.5,0.5h13.7
		C14.9,17.2,15.1,17,15.1,16.7z M14.1,16.2H1.4V3.5h12.7V16.2z"/>
	<path d="M7.8,14.6c2.6,0,4.8-2.1,4.8-4.8s-2.1-4.8-4.8-4.8S3,7.3,3,9.9S5.1,14.6,7.8,14.6z M7.8,6.1c2.1,0,3.8,1.7,3.8,3.8
		s-1.7,3.8-3.8,3.8S4,12,4,9.9S5.7,6.1,7.8,6.1z"/>
	<path d="M6.3,11.1c0.3,0,0.5-0.2,0.5-0.5V9.2c0-0.3-0.2-0.5-0.5-0.5S5.8,8.9,5.8,9.2v1.4C5.8,10.9,6.1,11.1,6.3,11.1z"/>
	<path d="M9.2,11.1c0.3,0,0.5-0.2,0.5-0.5V9.2c0-0.3-0.2-0.5-0.5-0.5S8.7,8.9,8.7,9.2v1.4C8.7,10.9,8.9,11.1,9.2,11.1z"/>
	<path d="M24.1,7.7h-1.9c0-0.1,0.1-0.1,0.1-0.2V3.4c0-0.3-0.2-0.5-0.5-0.5s-0.5,0.2-0.5,0.5v4.1c0,0.1,0,0.2,0.1,0.2H19
		c0-0.1,0.1-0.1,0.1-0.2V3.4c0-0.3-0.2-0.5-0.5-0.5s-0.5,0.2-0.5,0.5v4.1c0,0.1,0,0.2,0.1,0.2h-1.9c-0.3,0-0.5,0.2-0.5,0.5
		c0,2.5,2,4.4,4.4,4.4s4.4-2,4.4-4.4C24.6,7.9,24.4,7.7,24.1,7.7z M20.2,11.6c-1.7,0-3.2-1.3-3.4-2.9h6.8
		C23.3,10.4,21.9,11.6,20.2,11.6z"/>
	<path d="M23,12.7c-0.3,0-0.5,0.2-0.5,0.5c0,0.5-0.4,0.8-0.8,0.8h-3c-0.5,0-0.8-0.4-0.8-0.8c0-0.3-0.2-0.5-0.5-0.5s-0.5,0.2-0.5,0.5
		c0,1,0.8,1.8,1.8,1.8h0.9v2.2c0,2.3-1.9,4.2-4.2,4.2H1.9c-0.3,0-0.5,0.2-0.5,0.5s0.2,0.5,0.5,0.5h13.4c2.9,0,5.2-2.3,5.2-5.2V15
		h1.2c1,0,1.8-0.8,1.8-1.8C23.5,12.9,23.3,12.7,23,12.7z"/>
</g>
</svg>
