<?xml version="1.0" encoding="utf-8"?>
<!-- Generator: Adobe Illustrator 16.0.0, SVG Export Plug-In . SVG Version: 6.00 Build 0)  -->
<!DOCTYPE svg PUBLIC "-//W3C//DTD SVG 1.1//EN" "http://www.w3.org/Graphics/SVG/1.1/DTD/svg11.dtd">
<svg version="1.1" id="Layer_1" xmlns="http://www.w3.org/2000/svg" xmlns:xlink="http://www.w3.org/1999/xlink" x="0px" y="0px"
	 width="25px" height="25px" viewBox="0 0 25 25" enable-background="new 0 0 25 25" xml:space="preserve">
<g>
	<path d="M22.3,18.8c-0.6-0.6-1.5-0.6-2.1,0l-0.3,0.3c0,0,0-0.1-0.1-0.1l-1.2-1.2c1.7-1.9,2.7-4.4,2.7-7c0-2.8-1.1-5.4-3-7.3
		c-2-2-4.6-3-7.3-3c-2.8,0-5.4,1.1-7.3,3c-4,4-4,10.6,0,14.7c0.6,0.6,1.3,1.1,2,1.6C5.7,19.9,5.8,20,5.9,20c1.5,0.8,3.2,1.3,5,1.3
		c2.6,0,5-1,7-2.7l1.2,1.2c0,0,0.1,0,0.1,0.1l-0.3,0.3c-0.6,0.6-0.6,1.5,0,2.1l2,2c0.1,0.1,0.2,0.1,0.4,0.1s0.3,0,0.4-0.1
		c0.2-0.2,0.2-0.5,0-0.7l-2-2c-0.1-0.1-0.1-0.2-0.1-0.3s0-0.2,0.1-0.3l1.4-1.4c0.2-0.2,0.5-0.2,0.7,0l2,2c0.2,0.2,0.5,0.2,0.7,0
		s0.2-0.5,0-0.7L22.3,18.8z M10.5,20.3c-1.4-0.1-2.8-0.4-4-1.1v-3.7h4V20.3z M11,14.5H6c-0.3,0-0.5,0.2-0.5,0.5v3.5
		c-0.4-0.3-0.7-0.5-1-0.9c0-0.1,0-0.1,0-0.2v-4C4.5,13.2,4.3,13,4,13s-0.5,0.2-0.5,0.5v3.1c-1-1.3-1.6-2.8-1.8-4.4l9.3-7.9l9.3,7.9
		c-0.2,1.5-0.8,2.9-1.7,4.1v-2.9c0-0.3-0.2-0.5-0.5-0.5s-0.5,0.2-0.5,0.5v4c0,0,0,0,0,0.1c-1.6,1.6-3.7,2.6-6,2.7V15
		C11.5,14.7,11.3,14.5,11,14.5z M10.9,1.6c2.5,0,4.9,1,6.6,2.7c1.8,1.8,2.7,4.1,2.7,6.6c0,0,0,0.1,0,0.1l-9-7.7
		c-0.2-0.2-0.5-0.2-0.6,0L4.5,8.5v-3h2C6.8,5.5,7,5.3,7,5S6.8,4.5,6.5,4.5H4.1c0.1-0.1,0.1-0.1,0.2-0.2C6.1,2.5,8.4,1.6,10.9,1.6z
		 M3.5,5.2v4.2L1.6,11C1.5,9,2.2,6.9,3.5,5.2z"/>
	<path d="M17,12c0-0.3-0.2-0.5-0.5-0.5h-11C5.2,11.5,5,11.7,5,12s0.2,0.5,0.5,0.5h11C16.8,12.5,17,12.3,17,12z"/>
	<path d="M14.3,14.7c-1.3,0-2.3,1-2.3,2.3c0,1.3,1,2.3,2.3,2.3c1.3,0,2.3-1,2.3-2.3C16.6,15.7,15.5,14.7,14.3,14.7z M14.3,15.7
		c0.5,0,1,0.3,1.2,0.8h-2.4C13.3,16,13.7,15.7,14.3,15.7z M14.3,18.3c-0.5,0-1-0.3-1.2-0.8h2.4C15.3,18,14.8,18.3,14.3,18.3z"/>
</g>
</svg>
