<?xml version="1.0" encoding="utf-8"?>
<!-- Generator: Adobe Illustrator 16.0.0, SVG Export Plug-In . SVG Version: 6.00 Build 0)  -->
<!DOCTYPE svg PUBLIC "-//W3C//DTD SVG 1.1//EN" "http://www.w3.org/Graphics/SVG/1.1/DTD/svg11.dtd">
<svg version="1.1" id="Layer_1" xmlns="http://www.w3.org/2000/svg" xmlns:xlink="http://www.w3.org/1999/xlink" x="0px" y="0px"
	 width="24px" height="24px" viewBox="0 0 24 24" enable-background="new 0 0 24 24" xml:space="preserve">
<g>
	<path d="M0.8,20.1h22.3c0.3,0,0.5-0.2,0.5-0.5V8.1c0-0.3-0.2-0.5-0.5-0.5h-3c-0.2,0-0.3,0.1-0.4,0.2c-0.2-0.6-0.7-1-1.3-1.2V4.4
		c0-0.3-0.2-0.5-0.5-0.5s-0.5,0.2-0.5,0.5v2.3c-0.5,0.2-0.9,0.5-1.2,1c-0.1-0.1-0.2-0.1-0.3-0.1H8.3c-0.2,0-0.4,0.1-0.5,0.3
		C7.7,7.4,7.2,6.9,6.6,6.7V4.4c0-0.3-0.2-0.5-0.5-0.5S5.6,4.1,5.6,4.4v2.3C5,6.9,4.5,7.3,4.3,7.8C4.2,7.7,4.1,7.6,3.9,7.6H0.8
		c-0.3,0-0.5,0.2-0.5,0.5v11.5C0.3,19.9,0.6,20.1,0.8,20.1z M17.9,7.6c0.5,0,0.9,0.4,0.9,0.9c0,0.5-0.4,0.9-0.9,0.9
		c-0.5,0-0.9-0.4-0.9-0.9C17,8,17.4,7.6,17.9,7.6z M6.1,7.6C6.6,7.6,7,8,7,8.6c0,0.5-0.4,0.9-0.9,0.9c-0.5,0-0.9-0.4-0.9-0.9
		C5.1,8,5.6,7.6,6.1,7.6z M1.3,8.6h2.6c0.1,0,0.2,0,0.2-0.1c0,1,0.9,1.9,1.9,1.9C7.1,10.5,8,9.6,8,8.6c0,0,0,0,0-0.1
		c0.1,0.1,0.2,0.2,0.4,0.2h7.6c0.1,0,0.1,0,0.1,0c0,1,0.9,1.9,1.9,1.9c1.1,0,1.9-0.9,1.9-1.9c0,0,0,0,0,0c0.1,0.1,0.2,0.1,0.3,0.1
		h2.5v10.5H1.3V8.6z"/>
	<path d="M4.8,13.1c-0.6-0.2-0.6-0.4-0.6-0.5c0-0.1,0.1-0.2,0.4-0.2c0.3,0,0.6,0.1,0.7,0.2l0.5,0.3l0.5-1.5l-0.4-0.2
		c-0.3-0.2-0.8-0.3-1.3-0.3c-1.2,0-2,0.8-2,1.8c0,0.8,0.5,1.4,1.6,1.8c0.6,0.2,0.6,0.4,0.6,0.5c0,0.3-0.3,0.3-0.5,0.3
		c-0.3,0-0.6-0.1-0.8-0.2l-0.6-0.3l-0.4,1.5l0.3,0.2c0.3,0.2,0.9,0.4,1.5,0.4c1.5,0,2.2-0.9,2.2-1.9C6.4,13.8,5.6,13.4,4.8,13.1z"/>
	<path d="M9.4,10.9c-1.6,0-2.7,1.3-2.7,3c0,1.7,1.1,2.9,2.6,2.9c1.3,0,2.7-0.9,2.7-3C12,12.1,10.9,10.9,9.4,10.9z M9.3,15.3
		c-0.7,0-1-0.7-1-1.4c0-0.7,0.3-1.5,1-1.5c0.8,0,1,0.9,1,1.4C10.4,14.6,10,15.3,9.3,15.3z"/>
	<polygon points="14.2,11 12.5,11 12.5,16.8 16.2,16.8 16.2,15.2 14.2,15.2 	"/>
	<path d="M18.4,11c-0.5,0-0.9,0-1.4,0.1l-0.4,0.1v5.6l0.4,0.1c0.3,0,0.7,0.1,1.2,0.1c1.1,0,1.9-0.3,2.5-0.8c0.5-0.5,0.8-1.3,0.8-2.2
		c0-0.9-0.3-1.6-0.8-2.1C20.1,11.2,19.4,11,18.4,11z M18.3,15.3c0,0-0.1,0-0.1,0v-2.9c0.1,0,0.1,0,0.2,0c0.5,0,0.9,0.1,1.1,0.4
		c0.2,0.2,0.3,0.5,0.3,1C19.9,14.8,19.4,15.3,18.3,15.3z"/>
</g>
</svg>
