<?xml version="1.0" encoding="utf-8"?>
<!-- Generator: Adobe Illustrator 16.0.0, SVG Export Plug-In . SVG Version: 6.00 Build 0)  -->
<!DOCTYPE svg PUBLIC "-//W3C//DTD SVG 1.1//EN" "http://www.w3.org/Graphics/SVG/1.1/DTD/svg11.dtd">
<svg version="1.1" id="Layer_1" xmlns="http://www.w3.org/2000/svg" xmlns:xlink="http://www.w3.org/1999/xlink" x="0px" y="0px"
	 width="25px" height="25px" viewBox="0 0 25 25" enable-background="new 0 0 25 25" xml:space="preserve">
<g>
	<path d="M23.9,6.2h-2.2c-0.1,0-0.1,0-0.2,0L21.1,1c0-0.3-0.2-0.5-0.5-0.5h-2.4c0,0,0,0,0,0c-0.1,0-0.3,0-0.4,0.1L12.6,6
		c-0.1,0.1-0.1,0.2-0.1,0.2H1.1c-0.3,0-0.5,0.2-0.5,0.5v2.4c0,0.3,0.2,0.5,0.5,0.5h1.8v1.8c0,0.3,0.2,0.5,0.5,0.5s0.5-0.2,0.5-0.5
		V9.6h12.5c0.3,0,0.5-0.2,0.5-0.5s-0.2-0.5-0.5-0.5H1.6V7.2h15.2c0.1,0,0.3-0.1,0.4-0.2l-1.5,16.8c0,0.3,0.2,0.5,0.5,0.5
		c0.2,0,0.5-0.2,0.5-0.4c0,0,0.1,0,0.1,0c0.1,0,0.3,0,0.4-0.1l4.6-4.6l0.4,4.7c0,0.3,0.2,0.5,0.5,0.5c0,0,0,0,0,0
		c0.3,0,0.5-0.3,0.5-0.5L21.9,9.6c0.1,0,0.1,0,0.2,0h1.9c0.3,0,0.5-0.2,0.5-0.5V6.7C24.4,6.4,24.2,6.2,23.9,6.2z M18.2,6.8l2.3,2.3
		l-2.8,2.8L18.2,6.8z M18.8,6l1.6-1.6L20.7,8L18.8,6z M20.3,3.1l-2,2l0.3-3.4h1.5L20.3,3.1z M16.8,6.2h-3l3.8-3.8l-0.4,4
		C17.1,6.3,17,6.2,16.8,6.2z M16.7,22.8l0.8-8.6l3.8,4L16.7,22.8z M17.9,13.2l3-3l0.6,6.9L17.9,13.2z M23.4,8.6H22
		c-0.1,0-0.2,0-0.2,0.1l-0.1-1.5c0,0,0,0,0.1,0h1.7V8.6z"/>
	<path d="M4.4,13.1c0.3,0,0.5-0.2,0.5-0.5s-0.2-0.5-0.5-0.5H2.3c-0.3,0-0.5,0.2-0.5,0.5s0.2,0.5,0.5,0.5H4.4z"/>
	<path d="M3.7,13.3H3c-1.3,0-2.4,1.1-2.4,2.4c0,0.3,0.2,0.5,0.5,0.5s0.5-0.2,0.5-0.5c0-0.8,0.6-1.4,1.4-1.4h0.7
		c0.8,0,1.4,0.6,1.4,1.4c0,0.3,0.2,0.5,0.5,0.5s0.5-0.2,0.5-0.5C6.1,14.4,5,13.3,3.7,13.3z"/>
	<path d="M4.4,19.6c-0.3,0-0.5,0.2-0.5,0.5c0,0.3-0.2,0.6-0.6,0.6s-0.6-0.2-0.6-0.6s0.2-0.6,0.6-0.6c0.1,0,0.3-0.1,0.4-0.2
		c0.1-0.1,0.1-0.2,0.1-0.4l-0.1-2.4c0-0.3-0.2-0.5-0.5-0.5c0,0,0,0,0,0c-0.3,0-0.5,0.2-0.5,0.5l0,2c-0.6,0.2-1,0.8-1,1.5
		c0,0.9,0.7,1.6,1.6,1.6s1.6-0.7,1.6-1.6C4.9,19.8,4.7,19.6,4.4,19.6z"/>
</g>
</svg>
