<?xml version="1.0" encoding="utf-8"?>
<!-- Generator: Adobe Illustrator 16.0.0, SVG Export Plug-In . SVG Version: 6.00 Build 0)  -->
<!DOCTYPE svg PUBLIC "-//W3C//DTD SVG 1.1//EN" "http://www.w3.org/Graphics/SVG/1.1/DTD/svg11.dtd">
<svg version="1.1" id="Layer_1" xmlns="http://www.w3.org/2000/svg" xmlns:xlink="http://www.w3.org/1999/xlink" x="0px" y="0px"
	 width="25px" height="25px" viewBox="0 0 25 25" enable-background="new 0 0 25 25" xml:space="preserve">
<g>
	<path d="M11.7,22.8H7L20.8,4.7c0.1-0.2,0.1-0.4,0.1-0.5c-0.1-0.2-0.3-0.3-0.4-0.3h-4.3c-0.3,0-0.5,0.2-0.5,0.5s0.2,0.5,0.5,0.5h3.3
		L5.6,23c-0.1,0.2-0.1,0.4-0.1,0.5c0.1,0.2,0.3,0.3,0.4,0.3h5.7c0.3,0,0.5-0.2,0.5-0.5S12,22.8,11.7,22.8z"/>
	<path d="M13.5,7.5c0.1,0.1,0.2,0.1,0.3,0.1c0.1,0,0.3-0.1,0.4-0.2c0.2-0.2,0.2-0.5-0.1-0.7L7.8,1.3c-0.2-0.2-0.5-0.2-0.6,0L3.3,4.6
		V2.8h0.9c0.3,0,0.5-0.2,0.5-0.5S4.5,1.8,4.2,1.8H2.8C2.5,1.8,2.3,2,2.3,2.3v3.1L0.7,6.8C0.5,6.9,0.5,7.3,0.7,7.5
		c0.2,0.2,0.5,0.2,0.7,0.1l6.1-5.2L13.5,7.5z"/>
	<path d="M7.5,14.6c0.3,0,0.5-0.2,0.5-0.5c0-0.2-0.1-0.4-0.3-0.5V9.3c0-0.3-0.2-0.5-0.5-0.5H4.3C4.1,8.8,3.8,9,3.8,9.3v4.3H3.3V7.9
		c0-0.3-0.2-0.5-0.5-0.5S2.3,7.6,2.3,7.9v6.2c0,0.3,0.2,0.5,0.5,0.5h1.5h2.8H7.5z M4.8,13.6V9.8h1.8v3.8H4.8z"/>
	<path d="M11.6,7.9v1.3c0,0.3,0.2,0.5,0.5,0.5s0.5-0.2,0.5-0.5V7.9c0-0.3-0.2-0.5-0.5-0.5S11.6,7.6,11.6,7.9z"/>
	<path d="M9.7,11.9c0.3,0,0.5-0.2,0.5-0.5v-0.5h0.6c0.3,0,0.5-0.2,0.5-0.5S11,9.9,10.7,9.9h-0.6V9.3c0-0.3-0.2-0.5-0.5-0.5
		S9.2,9,9.2,9.3v0.7H8.6c-0.3,0-0.5,0.2-0.5,0.5s0.2,0.5,0.5,0.5h0.6v0.5C9.2,11.7,9.4,11.9,9.7,11.9z"/>
	<path d="M21.4,12.1H20c-1.6,0-3,1.3-3,3v5.7c0,1.6,1.3,3,3,3h1.5c0.3,0,0.5-0.2,0.5-0.5s-0.2-0.5-0.5-0.5H20c-1.1,0-2-0.9-2-2v-5.7
		c0-1.1,0.9-2,2-2h1.5c1.1,0,2,0.9,2,2v5.7c0,0.3,0.2,0.5,0.5,0.5s0.5-0.2,0.5-0.5v-5.7C24.4,13.4,23.1,12.1,21.4,12.1z"/>
	<path d="M21,14.1h-0.7c-0.3,0-0.5,0.2-0.5,0.5s0.2,0.5,0.5,0.5H21c0.3,0,0.6,0.5,0.6,1.1v3.6c0,0.6-0.3,1.1-0.6,1.1h-0.7
		c-0.3,0-0.6-0.5-0.6-1.1v-3.6c0-0.3-0.2-0.5-0.5-0.5s-0.5,0.2-0.5,0.5v3.6c0,1.2,0.7,2.1,1.6,2.1H21c0.9,0,1.6-0.9,1.6-2.1v-3.6
		C22.6,15,21.9,14.1,21,14.1z"/>
</g>
</svg>
