<?xml version="1.0" encoding="utf-8"?>
<!-- Generator: Adobe Illustrator 16.0.0, SVG Export Plug-In . SVG Version: 6.00 Build 0)  -->
<!DOCTYPE svg PUBLIC "-//W3C//DTD SVG 1.1//EN" "http://www.w3.org/Graphics/SVG/1.1/DTD/svg11.dtd">
<svg version="1.1" id="Layer_1" xmlns="http://www.w3.org/2000/svg" xmlns:xlink="http://www.w3.org/1999/xlink" x="0px" y="0px"
	 width="32px" height="32px" viewBox="0 0 32 32" enable-background="new 0 0 32 32" xml:space="preserve">
<g>
	<g>
		<path fill="#FFAB00" d="M30.8,27.5c0,1.9-1.7,3.8-3.6,3.8H4.4c-1.9,0-3.1-1.9-3.1-3.8V4.7c0-1.9,1.2-4,3.1-4h22.7
			c1.9,0,3.6,2,3.6,4V27.5z"/>
		<path fill="#37474F" d="M27.1,31.8H4.4c-2.3,0-3.6-2.2-3.6-4.3V4.7c0-2.1,1.4-4.5,3.6-4.5h22.7c2.1,0,4.1,2.2,4.1,4.5v22.7
			C31.3,29.7,29.3,31.8,27.1,31.8z M4.4,1.2C2.7,1.2,1.7,3,1.7,4.7v22.7c0,1.6,1,3.3,2.6,3.3h22.7c1.6,0,3.1-1.6,3.1-3.3V4.7
			c0-1.7-1.6-3.5-3.1-3.5H4.4z"/>
	</g>
	<g>
		<g>
			<path fill="#FFFFFF" d="M25.2,15.5c0.1,0,0.1-0.7,0.1-1.2c0-5.3-4.3-9.5-9.6-9.5c-5.3,0-9.6,4.1-9.6,9.5c0,0.5,0.1,1.2,0.1,1.2
				H25.2z"/>
			<path fill="#37474F" d="M25.2,16h-19c-0.3,0-0.6-0.1-0.6-1.7c0-5.6,4.5-10,10.1-10c5.6,0,10.1,4.5,10.1,10
				C25.9,15.9,25.6,16,25.2,16z M6.7,15h18.2c0-0.2,0-0.4,0-0.7c0-5-4.1-9-9.1-9c-5.1,0-9.1,3.9-9.1,9C6.6,14.5,6.6,14.8,6.7,15z"/>
		</g>
		<g>
			<path fill="#FFECB3" d="M20.2,15.5c0,0,0.1-0.2,0.1-0.4c0-2.5-2-4.4-4.5-4.4c-2.5,0-4.5,1.8-4.5,4.3c0,0.2,0,0.5,0.1,0.5H20.2z"
				/>
			<path fill="#37474F" d="M20.2,16h-8.8c-0.6,0-0.6-0.7-0.6-1c0-2.7,2.2-4.8,5-4.8c2.8,0,5,2.1,5,4.9C20.7,15.3,20.7,16,20.2,16z
				 M11.8,15h7.9c0-2.1-1.8-3.8-4-3.8C13.5,11.2,11.8,12.9,11.8,15z"/>
		</g>
	</g>
	<g>
		<g>
			<g>
				<g>
					<path fill="#37474F" d="M12,20.4c0-0.2,0.2-0.4,0.4-0.4c0.2,0,0.4,0.2,0.4,0.4c0,0.2-0.2,0.4-0.4,0.4
						C12.2,20.8,12,20.6,12,20.4z"/>
					<path fill="#37474F" d="M12.4,21.3c-0.5,0-0.9-0.4-0.9-0.9c0-0.5,0.4-0.9,0.9-0.9c0.2,0,0.5,0.1,0.6,0.3
						c0.2,0.2,0.3,0.4,0.3,0.6C13.3,20.9,12.9,21.3,12.4,21.3L12.4,21.3z"/>
				</g>
				<g>
					<path fill="#37474F" d="M9.2,20.4c0-0.2,0.2-0.4,0.4-0.4c0.2,0,0.4,0.2,0.4,0.4c0,0.2-0.2,0.4-0.4,0.4
						C9.4,20.8,9.2,20.6,9.2,20.4z"/>
					<path fill="#37474F" d="M9.6,21.3L9.6,21.3c-0.5,0-0.9-0.4-0.9-0.9c0-0.2,0.1-0.5,0.3-0.6c0.2-0.2,0.4-0.3,0.6-0.3
						c0.5,0,0.9,0.4,0.9,0.9C10.5,20.9,10.1,21.3,9.6,21.3z"/>
				</g>
				<g>
					<path fill="#37474F" d="M6.4,20.4c0-0.2,0.2-0.4,0.4-0.4c0.2,0,0.4,0.2,0.4,0.4c0,0.2-0.2,0.4-0.4,0.4
						C6.6,20.8,6.4,20.6,6.4,20.4z"/>
					<path fill="#37474F" d="M6.8,21.3L6.8,21.3C6.8,21.3,6.8,21.3,6.8,21.3c-0.5,0-0.9-0.4-0.9-0.9c0-0.5,0.4-0.9,0.9-0.9
						c0.5,0,0.9,0.4,0.9,0.9C7.7,20.9,7.3,21.3,6.8,21.3z M6.8,20.5l0,0.3L6.8,20.5c0.1,0,0.1,0,0.1-0.1c0-0.1,0-0.1-0.1-0.1v0
						c0,0,0,0,0,0v0C6.8,20.3,6.7,20.3,6.8,20.5C6.7,20.4,6.8,20.5,6.8,20.5z"/>
				</g>
			</g>
			<g>
				<g>
					<path fill="#37474F" d="M12,23.2c0-0.2,0.2-0.4,0.4-0.4c0.2,0,0.4,0.2,0.4,0.4c0,0.2-0.2,0.4-0.4,0.4
						C12.2,23.6,12,23.4,12,23.2z"/>
					<path fill="#37474F" d="M12.4,24.1c-0.5,0-0.9-0.4-0.9-0.9c0-0.5,0.4-0.9,0.9-0.9c0.2,0,0.5,0.1,0.6,0.3
						c0.2,0.2,0.3,0.4,0.3,0.6C13.3,23.7,12.9,24.1,12.4,24.1L12.4,24.1z"/>
				</g>
				<g>
					<path fill="#37474F" d="M9.2,23.2c0-0.2,0.2-0.4,0.4-0.4c0.2,0,0.4,0.2,0.4,0.4c0,0.2-0.2,0.4-0.4,0.4
						C9.4,23.6,9.2,23.4,9.2,23.2z"/>
					<path fill="#37474F" d="M9.6,24.1L9.6,24.1c-0.5,0-0.9-0.4-0.9-0.9c0-0.2,0.1-0.5,0.3-0.6c0.2-0.2,0.4-0.3,0.6-0.3
						c0.5,0,0.9,0.4,0.9,0.9C10.5,23.7,10.1,24.1,9.6,24.1z"/>
				</g>
				<g>
					<path fill="#37474F" d="M6.4,23.2c0-0.2,0.2-0.4,0.4-0.4c0.2,0,0.4,0.2,0.4,0.4c0,0.2-0.2,0.4-0.4,0.4
						C6.6,23.6,6.4,23.4,6.4,23.2z"/>
					<path fill="#37474F" d="M6.8,24.1L6.8,24.1c-0.5,0-0.9-0.4-0.9-0.9c0-0.5,0.4-0.9,0.9-0.9c0.5,0,0.9,0.4,0.9,0.9
						C7.7,23.7,7.3,24.1,6.8,24.1z M6.8,23.3l0,0.3L6.8,23.3c0.1,0,0.1,0,0.1-0.1c0-0.1,0-0.1-0.1-0.1v0c0,0,0,0,0,0v0
						C6.8,23.1,6.7,23.1,6.8,23.3C6.7,23.2,6.8,23.3,6.8,23.3z"/>
				</g>
			</g>
			<g>
				<g>
					<path fill="#37474F" d="M12,25.9c0-0.2,0.2-0.4,0.4-0.4c0.2,0,0.4,0.2,0.4,0.4c0,0.2-0.2,0.4-0.4,0.4
						C12.2,26.3,12,26.2,12,25.9z"/>
					<path fill="#37474F" d="M12.4,26.8c-0.5,0-0.9-0.4-0.9-0.9c0-0.5,0.4-0.9,0.9-0.9c0.2,0,0.5,0.1,0.6,0.3
						c0.2,0.2,0.3,0.4,0.3,0.6C13.3,26.4,12.9,26.8,12.4,26.8L12.4,26.8z"/>
				</g>
				<g>
					<path fill="#37474F" d="M9.2,25.9c0-0.2,0.2-0.4,0.4-0.4c0.2,0,0.4,0.2,0.4,0.4c0,0.2-0.2,0.4-0.4,0.4
						C9.4,26.3,9.2,26.2,9.2,25.9z"/>
					<path fill="#37474F" d="M9.6,26.8L9.6,26.8c-0.5,0-0.9-0.4-0.9-0.9c0-0.2,0.1-0.5,0.3-0.6C9.2,25.1,9.4,25,9.6,25
						c0.5,0,0.9,0.4,0.9,0.9C10.5,26.4,10.1,26.8,9.6,26.8z"/>
				</g>
				<g>
					<path fill="#37474F" d="M6.4,25.9c0-0.2,0.2-0.4,0.4-0.4c0.2,0,0.4,0.2,0.4,0.4c0,0.2-0.2,0.4-0.4,0.4
						C6.6,26.3,6.4,26.2,6.4,25.9z"/>
					<path fill="#37474F" d="M6.8,26.8L6.8,26.8C6.8,26.8,6.8,26.8,6.8,26.8c-0.5,0-0.9-0.4-0.9-0.9c0-0.5,0.4-0.9,0.9-0.9
						c0.5,0,0.9,0.4,0.9,0.9C7.7,26.4,7.3,26.8,6.8,26.8z M6.8,26l0,0.3L6.8,26c0.1,0,0.1,0,0.1-0.1c0-0.1,0-0.1-0.1-0.1v0
						c0,0,0,0,0,0v0C6.8,25.8,6.7,25.9,6.8,26C6.7,26,6.8,26,6.8,26z"/>
				</g>
			</g>
		</g>
		<g>
			<g>
				<g>
					<path fill="#37474F" d="M24.3,20.4c0-0.2,0.2-0.4,0.4-0.4c0.2,0,0.4,0.2,0.4,0.4c0,0.2-0.2,0.4-0.4,0.4
						C24.5,20.8,24.3,20.6,24.3,20.4z"/>
					<path fill="#37474F" d="M24.7,21.3c-0.5,0-0.9-0.4-0.9-0.9c0-0.5,0.4-0.9,0.9-0.9c0.2,0,0.5,0.1,0.6,0.3
						c0.2,0.2,0.3,0.4,0.3,0.6C25.6,20.9,25.2,21.3,24.7,21.3L24.7,21.3z"/>
				</g>
				<g>
					<path fill="#37474F" d="M21.5,20.4c0-0.2,0.2-0.4,0.4-0.4c0.2,0,0.4,0.2,0.4,0.4c0,0.2-0.2,0.4-0.4,0.4
						C21.7,20.8,21.5,20.6,21.5,20.4z"/>
					<path fill="#37474F" d="M21.9,21.3L21.9,21.3c-0.5,0-0.9-0.4-0.9-0.9c0-0.2,0.1-0.5,0.3-0.6c0.2-0.2,0.4-0.3,0.6-0.3
						c0.5,0,0.9,0.4,0.9,0.9C22.8,20.9,22.4,21.3,21.9,21.3z"/>
				</g>
				<g>
					<path fill="#37474F" d="M18.7,20.4c0-0.2,0.2-0.4,0.4-0.4c0.2,0,0.4,0.2,0.4,0.4c0,0.2-0.2,0.4-0.4,0.4
						C18.8,20.8,18.7,20.6,18.7,20.4z"/>
					<path fill="#37474F" d="M19.1,21.3L19.1,21.3L19.1,21.3c-0.5,0-0.9-0.4-0.9-0.9c0-0.5,0.4-0.9,0.9-0.9c0.5,0,0.9,0.4,0.9,0.9
						C20,20.9,19.6,21.3,19.1,21.3z M19.1,20.5l0,0.3L19.1,20.5c0.1,0,0.1,0,0.1-0.1c0-0.1,0-0.1-0.1-0.1v0c0,0,0,0,0,0v0
						C19,20.3,19,20.3,19.1,20.5C19,20.4,19,20.5,19.1,20.5z"/>
				</g>
			</g>
			<g>
				<g>
					<path fill="#37474F" d="M24.3,23.2c0-0.2,0.2-0.4,0.4-0.4c0.2,0,0.4,0.2,0.4,0.4c0,0.2-0.2,0.4-0.4,0.4
						C24.5,23.6,24.3,23.4,24.3,23.2z"/>
					<path fill="#37474F" d="M24.7,24.1c-0.5,0-0.9-0.4-0.9-0.9c0-0.5,0.4-0.9,0.9-0.9c0.2,0,0.5,0.1,0.6,0.3
						c0.2,0.2,0.3,0.4,0.3,0.6C25.6,23.7,25.2,24.1,24.7,24.1L24.7,24.1z"/>
				</g>
				<g>
					<path fill="#37474F" d="M21.5,23.2c0-0.2,0.2-0.4,0.4-0.4c0.2,0,0.4,0.2,0.4,0.4c0,0.2-0.2,0.4-0.4,0.4
						C21.7,23.6,21.5,23.4,21.5,23.2z"/>
					<path fill="#37474F" d="M21.9,24.1L21.9,24.1c-0.5,0-0.9-0.4-0.9-0.9c0-0.2,0.1-0.5,0.3-0.6c0.2-0.2,0.4-0.3,0.6-0.3
						c0.5,0,0.9,0.4,0.9,0.9C22.8,23.7,22.4,24.1,21.9,24.1z"/>
				</g>
				<g>
					<path fill="#37474F" d="M18.7,23.2c0-0.2,0.2-0.4,0.4-0.4c0.2,0,0.4,0.2,0.4,0.4c0,0.2-0.2,0.4-0.4,0.4
						C18.8,23.6,18.7,23.4,18.7,23.2z"/>
					<path fill="#37474F" d="M19.1,24.1L19.1,24.1c-0.5,0-0.9-0.4-0.9-0.9c0-0.5,0.4-0.9,0.9-0.9c0.5,0,0.9,0.4,0.9,0.9
						C20,23.7,19.6,24.1,19.1,24.1z M19.1,23.3l0,0.3L19.1,23.3c0.1,0,0.1,0,0.1-0.1c0-0.1,0-0.1-0.1-0.1v0c0,0,0,0,0,0v0
						C19,23.1,19,23.1,19.1,23.3C19,23.2,19,23.3,19.1,23.3z"/>
				</g>
			</g>
			<g>
				<g>
					<path fill="#37474F" d="M24.3,25.9c0-0.2,0.2-0.4,0.4-0.4c0.2,0,0.4,0.2,0.4,0.4c0,0.2-0.2,0.4-0.4,0.4
						C24.5,26.3,24.3,26.2,24.3,25.9z"/>
					<path fill="#37474F" d="M24.7,26.8c-0.5,0-0.9-0.4-0.9-0.9c0-0.5,0.4-0.9,0.9-0.9c0.2,0,0.5,0.1,0.6,0.3
						c0.2,0.2,0.3,0.4,0.3,0.6C25.6,26.4,25.2,26.8,24.7,26.8L24.7,26.8z"/>
				</g>
				<g>
					<path fill="#37474F" d="M21.5,25.9c0-0.2,0.2-0.4,0.4-0.4c0.2,0,0.4,0.2,0.4,0.4c0,0.2-0.2,0.4-0.4,0.4
						C21.7,26.3,21.5,26.2,21.5,25.9z"/>
					<path fill="#37474F" d="M21.9,26.8L21.9,26.8c-0.5,0-0.9-0.4-0.9-0.9c0-0.2,0.1-0.5,0.3-0.6s0.4-0.3,0.6-0.3
						c0.5,0,0.9,0.4,0.9,0.9C22.8,26.4,22.4,26.8,21.9,26.8z"/>
				</g>
				<g>
					<path fill="#37474F" d="M18.7,25.9c0-0.2,0.2-0.4,0.4-0.4c0.2,0,0.4,0.2,0.4,0.4c0,0.2-0.2,0.4-0.4,0.4
						C18.8,26.3,18.7,26.2,18.7,25.9z"/>
					<path fill="#37474F" d="M19.1,26.8L19.1,26.8L19.1,26.8c-0.5,0-0.9-0.4-0.9-0.9c0-0.5,0.4-0.9,0.9-0.9c0.5,0,0.9,0.4,0.9,0.9
						C20,26.4,19.6,26.8,19.1,26.8z M19.1,26l0,0.3L19.1,26c0.1,0,0.1,0,0.1-0.1c0-0.1,0-0.1-0.1-0.1v0c0,0,0,0,0,0v0
						C19,25.8,19,25.9,19.1,26C19,26,19,26,19.1,26z"/>
				</g>
			</g>
		</g>
	</g>
	<g>
		<line fill="#FFECB3" x1="9" y1="8.8" x2="15.1" y2="14.9"/>
		<path fill="#37474F" d="M15.1,15.4c-0.1,0-0.3,0-0.4-0.1l-6-6C8.5,9,8.5,8.7,8.7,8.5s0.5-0.2,0.7,0l6,6c0.2,0.2,0.2,0.5,0,0.7
			C15.3,15.3,15.2,15.4,15.1,15.4z"/>
	</g>
	<g>
		<g>
			<path fill="#B0BEC5" d="M5.3,4.5c0,0.6-0.5,1.1-1.1,1.1S3,5.2,3,4.5c0-0.6,0.5-1.1,1.1-1.1S5.3,3.9,5.3,4.5z"/>
			<path fill="#37474F" d="M4.2,6.2c-0.9,0-1.6-0.7-1.6-1.6c0-0.9,0.7-1.6,1.6-1.6c0.9,0,1.6,0.7,1.6,1.6C5.8,5.4,5.1,6.2,4.2,6.2z
				 M4.2,3.9c-0.4,0-0.6,0.3-0.6,0.6c0,0.4,0.3,0.6,0.6,0.6c0.4,0,0.6-0.3,0.6-0.6C4.8,4.2,4.5,3.9,4.2,3.9z"/>
		</g>
		<g>
			<path fill="#B0BEC5" d="M28.5,4.5c0,0.6-0.5,1.1-1.1,1.1c-0.6,0-1.1-0.5-1.1-1.1c0-0.6,0.5-1.1,1.1-1.1C28,3.4,28.5,3.9,28.5,4.5
				z"/>
			<path fill="#37474F" d="M27.3,6.2c-0.9,0-1.6-0.7-1.6-1.6c0-0.9,0.7-1.6,1.6-1.6c0.9,0,1.6,0.7,1.6,1.6C29,5.4,28.2,6.2,27.3,6.2
				z M27.3,3.9c-0.4,0-0.6,0.3-0.6,0.6c0,0.4,0.3,0.6,0.6,0.6c0.4,0,0.6-0.3,0.6-0.6C28,4.2,27.7,3.9,27.3,3.9z"/>
		</g>
	</g>
	<g>
		<g>
			<path fill="#B0BEC5" d="M5.3,27.5c0,0.6-0.5,1.2-1.1,1.2S3,28.1,3,27.5c0-0.6,0.5-1.1,1.1-1.1S5.3,26.9,5.3,27.5z"/>
			<path fill="#37474F" d="M4.2,29.1c-0.9,0-1.6-0.7-1.6-1.7c0-0.9,0.7-1.6,1.6-1.6c0.9,0,1.6,0.7,1.6,1.6
				C5.8,28.4,5.1,29.1,4.2,29.1z M4.2,26.8c-0.4,0-0.6,0.3-0.6,0.6c0,0.4,0.3,0.7,0.6,0.7c0.4,0,0.6-0.3,0.6-0.7
				C4.8,27.1,4.5,26.8,4.2,26.8z"/>
		</g>
		<g>
			<path fill="#B0BEC5" d="M28.5,27.5c0,0.6-0.5,1.2-1.1,1.2c-0.6,0-1.1-0.5-1.1-1.2c0-0.6,0.5-1.1,1.1-1.1
				C28,26.3,28.5,26.9,28.5,27.5z"/>
			<path fill="#37474F" d="M27.3,29.1c-0.9,0-1.6-0.7-1.6-1.7c0-0.9,0.7-1.6,1.6-1.6c0.9,0,1.6,0.7,1.6,1.6
				C29,28.4,28.2,29.1,27.3,29.1z M27.3,26.8c-0.4,0-0.6,0.3-0.6,0.6c0,0.4,0.3,0.7,0.6,0.7c0.4,0,0.6-0.3,0.6-0.7
				C28,27.1,27.7,26.8,27.3,26.8z"/>
		</g>
	</g>
	<g>
		<line fill="#B0BEC5" x1="16" y1="17" x2="16" y2="30.8"/>
		<path fill="#37474F" d="M16,31.3c-0.3,0-0.5-0.2-0.5-0.5V17c0-0.3,0.2-0.5,0.5-0.5s0.5,0.2,0.5,0.5v13.8
			C16.5,31,16.3,31.3,16,31.3z"/>
	</g>
	<g>
		<path fill="#FFFFFF" d="M16.9,15.7c0,0.6-0.5,1.2-1.2,1.2c-0.6,0-1.2-0.5-1.2-1.2c0-0.6,0.5-1.2,1.2-1.2
			C16.4,14.6,16.9,15.1,16.9,15.7z"/>
		<path fill="#37474F" d="M15.8,17.4c-0.9,0-1.7-0.7-1.7-1.7c0-0.9,0.7-1.7,1.7-1.7s1.7,0.7,1.7,1.7C17.4,16.7,16.7,17.4,15.8,17.4z
			 M15.8,15.1c-0.4,0-0.7,0.3-0.7,0.7c0,0.4,0.3,0.7,0.7,0.7s0.7-0.3,0.7-0.7C16.4,15.4,16.1,15.1,15.8,15.1z"/>
	</g>
</g>
</svg>
