<?xml version="1.0" encoding="utf-8"?>
<!-- Generator: Adobe Illustrator 16.0.0, SVG Export Plug-In . SVG Version: 6.00 Build 0)  -->
<!DOCTYPE svg PUBLIC "-//W3C//DTD SVG 1.1//EN" "http://www.w3.org/Graphics/SVG/1.1/DTD/svg11.dtd">
<svg version="1.1" id="Layer_1" xmlns="http://www.w3.org/2000/svg" xmlns:xlink="http://www.w3.org/1999/xlink" x="0px" y="0px"
	 width="24px" height="24px" viewBox="0 0 24 24" enable-background="new 0 0 24 24" xml:space="preserve">
<g>
	<path d="M6.7,10.6L6.7,10.6c0.4,0,0.7-0.3,0.7-0.7c0-0.4-0.3-0.7-0.7-0.7C6.3,9.1,6,9.4,6,9.8c0,0.2,0.1,0.4,0.2,0.5
		C6.4,10.5,6.5,10.6,6.7,10.6z"/>
	<path d="M8.4,9.1C8,9.1,7.7,9.4,7.7,9.8s0.3,0.7,0.8,0.7c0.2,0,0.4-0.1,0.5-0.2c0.1-0.1,0.2-0.3,0.2-0.5C9.2,9.5,8.9,9.1,8.4,9.1z"
		/>
	<path d="M10.1,9.1c-0.4,0-0.7,0.3-0.7,0.7c0,0.4,0.3,0.7,0.7,0.7c0.4,0,0.7-0.3,0.7-0.7C10.9,9.4,10.5,9.1,10.1,9.1z"/>
	<path d="M6.8,11.1c-0.4,0-0.7,0.3-0.7,0.7c0,0.2,0.1,0.4,0.2,0.5c0.1,0.1,0.3,0.2,0.5,0.2h0c0.4,0,0.7-0.3,0.7-0.7
		C7.5,11.4,7.2,11.1,6.8,11.1z"/>
	<path d="M8.4,11.1c-0.4,0-0.7,0.3-0.7,0.7c0,0.4,0.3,0.7,0.8,0.7c0.2,0,0.4-0.1,0.5-0.2c0.1-0.1,0.2-0.3,0.2-0.5
		C9.2,11.4,8.9,11.1,8.4,11.1z"/>
	<path d="M10.1,11.1c-0.4,0-0.7,0.3-0.7,0.7c0,0.4,0.3,0.7,0.7,0.7c0.4,0,0.7-0.3,0.7-0.7C10.9,11.4,10.5,11.1,10.1,11.1z"/>
	<path d="M23.2,16.2c0.7-0.7,0.7-1.8,0-2.4l-0.5-0.5c-0.5-0.5-1.3-0.7-1.9-0.3l0.1-5c0-1.2-1.4-2.3-2.5-2.3h-5.3V3.5
		c0-1.1-0.8-1.7-2.2-1.7H5.5c-1.3,0-2.1,0.6-2.1,1.7v5.1C2.8,8.2,1.9,8.3,1.3,8.9L0.8,9.4c-0.3,0.3-0.5,0.8-0.5,1.2s0.2,0.9,0.5,1.2
		l2.9,2.9l0,0.1L4,15c0,0,0,0,0.1,0c-0.2,0.3-0.3,0.6-0.3,0.8c0,0.7,0.6,1.5,1.4,1.5h6.1v0.6c0,0.6,0.1,1.1,0.4,1.5
		c-0.5,0.3-0.7,0.8-0.7,1.3c0,0.7,0.6,1.5,1.4,1.5h6.7c0.8,0,1.4-0.8,1.4-1.5c0-0.4-0.2-0.8-0.4-1c0.1,0,0.1-0.1,0.2-0.1l0,0
		c0,0,0,0,0.1-0.1L23.2,16.2z M11.2,16.3H5.1c-0.2,0-0.4-0.2-0.4-0.5c0-0.2,0.2-0.5,0.4-0.5h0.4h5.7V16.3z M11.2,8v6.4H5.5
		c-0.3,0-0.7,0-0.9-0.2l-3.2-3.2c-0.1-0.1-0.2-0.3-0.2-0.5c0-0.2,0.1-0.4,0.2-0.5L2,9.6c0.3-0.3,0.8-0.3,1.1,0L3.4,10
		c0,0,0,0.1,0.1,0.1l1.1,1.1c0.1,0.1,0.2,0.1,0.4,0.1s0.3,0,0.4-0.1c0.2-0.2,0.2-0.5,0-0.7L4.4,9.6v-6c0-0.2,0-0.7,1.1-0.7H11
		c0.8,0,1.2,0.2,1.2,0.7v2.2h0.6C11.8,5.8,11.2,6.6,11.2,8z M18.9,21.2h-6.7c-0.2,0-0.4-0.2-0.4-0.5c0-0.2,0.2-0.5,0.4-0.5H13h5.5
		h0.4c0.2,0,0.4,0.3,0.4,0.5C19.2,21,19,21.2,18.9,21.2z M19.3,18.8C19.3,18.8,19.3,18.8,19.3,18.8c-0.3,0.3-0.6,0.5-0.9,0.5H13
		c-0.7,0-0.8-1.2-0.8-1.3V8c0-0.2,0-1.3,0.8-1.3h5.5c0.7,0,1.5,0.7,1.5,1.3L19.8,14l-1,1.1c-0.2,0.2-0.2,0.5,0,0.7
		c0.1,0.1,0.2,0.1,0.3,0.1c0.1,0,0.3-0.1,0.4-0.2l1.1-1.3c0,0,0,0,0,0c0,0,0,0,0,0l0.4-0.5c0.3-0.3,0.7-0.3,0.9,0l0.5,0.5
		c0.3,0.3,0.3,0.7,0,1L19.3,18.8z"/>
	<path d="M17.2,13.5c-0.4,0-0.7,0.3-0.7,0.7c0,0.4,0.3,0.7,0.7,0.7h0c0.2,0,0.4-0.1,0.5-0.2c0.1-0.1,0.2-0.3,0.2-0.5
		C18,13.9,17.6,13.5,17.2,13.5z"/>
	<path d="M15.5,13.5C15.5,13.5,15.5,13.5,15.5,13.5c-0.4,0-0.7,0.3-0.7,0.7c0,0.2,0.1,0.4,0.2,0.5c0.1,0.1,0.3,0.2,0.5,0.2
		c0.4,0,0.7-0.3,0.7-0.7C16.3,13.9,15.9,13.5,15.5,13.5z"/>
	<path d="M13.8,13.5c-0.4,0-0.7,0.3-0.7,0.7c0,0.4,0.3,0.7,0.7,0.7c0.4,0,0.7-0.3,0.7-0.7C14.6,13.9,14.2,13.5,13.8,13.5z"/>
	<path d="M17.2,15.5c-0.4,0-0.7,0.3-0.7,0.7c0,0.4,0.3,0.7,0.7,0.7h0c0.2,0,0.4-0.1,0.5-0.2c0.1-0.1,0.2-0.3,0.2-0.5
		C18,15.9,17.6,15.5,17.2,15.5z"/>
	<path d="M15.5,15.5C15.5,15.5,15.5,15.5,15.5,15.5c-0.4,0-0.7,0.3-0.7,0.7c0,0.2,0.1,0.4,0.2,0.5c0.1,0.1,0.3,0.2,0.5,0.2
		c0.4,0,0.7-0.3,0.7-0.7C16.3,15.9,15.9,15.5,15.5,15.5z"/>
	<path d="M13.8,15.5c-0.4,0-0.7,0.3-0.7,0.7s0.3,0.7,0.7,0.7c0.4,0,0.7-0.3,0.7-0.7S14.2,15.5,13.8,15.5z"/>
</g>
</svg>
