<?xml version="1.0" encoding="utf-8"?>
<!-- Generator: Adobe Illustrator 16.0.0, SVG Export Plug-In . SVG Version: 6.00 Build 0)  -->
<!DOCTYPE svg PUBLIC "-//W3C//DTD SVG 1.1//EN" "http://www.w3.org/Graphics/SVG/1.1/DTD/svg11.dtd">
<svg version="1.1" id="Layer_1" xmlns="http://www.w3.org/2000/svg" xmlns:xlink="http://www.w3.org/1999/xlink" x="0px" y="0px"
	 width="24px" height="24px" viewBox="0 0 24 24" enable-background="new 0 0 24 24" xml:space="preserve">
<g>
	<path d="M23.6,12c0-6.4-5.2-11.6-11.6-11.6S0.4,5.6,0.4,12c0,0.3,0.2,0.5,0.5,0.5c0.1,0,0.1,0,0.2,0v2.4v3.3c0,1.4,0.8,2.2,2.2,2.2
		h2.5c1.4,0,2.4-0.9,2.4-2.2v-3.3v-2.6c0.8,1.4,2,2.4,3.4,2.6v4.5H9.1c-0.3,0-0.5,0.2-0.5,0.5s0.2,0.5,0.5,0.5h6
		c0.3,0,0.5-0.2,0.5-0.5s-0.2-0.5-0.5-0.5h-2.6v-4.5c1.5-0.2,2.8-1.3,3.6-3c0,0,0,0,0,0v3v3.3c0,1.4,0.8,2.2,2.1,2.2h2.5
		c1.4,0,2.4-0.9,2.4-2.2v-3.3v-2.4C23.4,12.5,23.6,12.3,23.6,12z M22.1,14.3h-5v-2h5V14.3z M7.1,14.3h-5v-2h5V14.3z M7.1,18.1
		c0,1.1-0.9,1.2-1.4,1.2H3.3c-0.8,0-1.2-0.4-1.2-1.2v-2.8h5V18.1z M8.8,11.5c-0.4-0.8-0.7-1.9-0.8-3.1h7.9c-0.2,3.2-1.8,5.4-3.9,5.4
		C10.6,13.7,9.5,12.9,8.8,11.5C8.8,11.5,8.8,11.5,8.8,11.5z M8,7.3c0-0.9,0.1-2.3,0.1-3h7.7c0.1,0.7,0.1,2.1,0.1,3H8z M17,7.8
		c0-4.5-0.3-4.5-0.7-4.5H7.8C7.3,3.3,7,3.3,7,7.8c0,1.3,0.2,2.5,0.7,3.5c0,0,0,0-0.1,0h-6c0,0-0.1,0-0.1,0C1.8,5.8,6.4,1.4,12,1.4
		c5.6,0,10.2,4.4,10.5,9.9h-5.9c-0.1,0-0.3,0.1-0.3,0.1C16.7,10.4,17,9.2,17,7.8z M22.1,18.1c0,0.9-0.7,1.2-1.4,1.2h-2.5
		c-0.8,0-1.1-0.4-1.1-1.2v-2.8h5V18.1z"/>
	<path d="M16.2,21.7c-2.8,1.2-6,1.2-8.7-0.1c-0.2-0.1-0.5,0-0.7,0.2s0,0.5,0.2,0.7c1.5,0.7,3.2,1.1,4.9,1.1c1.6,0,3.2-0.3,4.6-1
		c0.3-0.1,0.4-0.4,0.3-0.7S16.5,21.6,16.2,21.7z"/>
	<path d="M5.4,17.6L5.4,17.6c0.4,0,0.8-0.3,0.8-0.8c0-0.2-0.1-0.4-0.2-0.6c-0.1-0.1-0.3-0.2-0.6-0.2c-0.4,0-0.8,0.3-0.8,0.8
		C4.6,17.3,5,17.6,5.4,17.6z"/>
	<path d="M3.5,17.6L3.5,17.6c0.4,0,0.8-0.3,0.8-0.8c0-0.4-0.4-0.8-0.8-0.8c-0.2,0-0.4,0.1-0.5,0.2c-0.1,0.1-0.2,0.3-0.2,0.5
		C2.8,17.3,3.1,17.6,3.5,17.6z"/>
	<path d="M20.3,17.6L20.3,17.6c0.4,0,0.8-0.3,0.8-0.7c0-0.2-0.1-0.4-0.2-0.6c-0.1-0.2-0.3-0.2-0.6-0.2c-0.4,0-0.8,0.3-0.8,0.8
		C19.6,17.3,19.9,17.6,20.3,17.6z"/>
	<path d="M18.5,17.6L18.5,17.6c0.4,0,0.8-0.3,0.8-0.8c0-0.4-0.4-0.8-0.8-0.8c-0.2,0-0.4,0.1-0.5,0.2c-0.1,0.1-0.2,0.3-0.2,0.5
		C17.7,17.3,18,17.6,18.5,17.6z"/>
	<path d="M13.9,10.4L13.9,10.4c0.4,0,0.8-0.3,0.8-0.8c0-0.2-0.1-0.4-0.2-0.5c-0.1-0.1-0.3-0.2-0.5-0.2c-0.4,0-0.8,0.3-0.8,0.8
		C13.1,10,13.4,10.4,13.9,10.4z"/>
	<path d="M12,10.4L12,10.4c0.4,0,0.8-0.3,0.8-0.8c0-0.4-0.4-0.7-0.8-0.7c-0.2,0-0.4,0.1-0.5,0.2c-0.1,0.1-0.2,0.4-0.2,0.5
		C11.2,10,11.6,10.3,12,10.4z"/>
	<path d="M10.1,10.4c0.4,0,0.8-0.3,0.8-0.8c0-0.4-0.3-0.8-0.8-0.8c-0.4,0-0.8,0.3-0.8,0.8C9.4,10,9.7,10.4,10.1,10.4L10.1,10.4z"/>
</g>
</svg>
