<?xml version="1.0" encoding="utf-8"?>
<!-- Generator: Adobe Illustrator 16.0.0, SVG Export Plug-In . SVG Version: 6.00 Build 0)  -->
<!DOCTYPE svg PUBLIC "-//W3C//DTD SVG 1.1//EN" "http://www.w3.org/Graphics/SVG/1.1/DTD/svg11.dtd">
<svg version="1.1" id="Layer_1" xmlns="http://www.w3.org/2000/svg" xmlns:xlink="http://www.w3.org/1999/xlink" x="0px" y="0px"
	 width="32px" height="32px" viewBox="0 0 32 32" enable-background="new 0 0 32 32" xml:space="preserve">
<g>
	<g>
		<path fill="#FFFFFF" d="M30.4,6.8c0-3.4-2.7-6.1-6.1-6.1c-1.6,0-3.1,0.6-4.2,1.7c-1.1-1-2.5-1.7-4.2-1.7c-1.6,0-3.1,0.6-4.2,1.7
			c-1.1-1-2.5-1.7-4.2-1.7c-3.4,0-6.1,2.7-6.1,6.1c0,2.5,1.1,4.5,3.2,5.4c0,0.1,0,0.4,0,0.5v13.5c0,2.6,2.1,5,4.4,5h13.7
			c2.2,0,3.9-2.4,3.9-5V12.8c0-0.1,0-0.3,0-0.4C28.9,11.4,30.4,9.3,30.4,6.8z"/>
		<path fill="#37474F" d="M22.9,31.8H9.2c-2.5,0-4.9-2.6-4.9-5.5V12.8c0-0.1,0-0.1,0-0.2c-2-1.1-3.2-3.1-3.2-5.7
			c0-3.6,3-6.6,6.6-6.6c1.5,0,3,0.5,4.2,1.5c1.2-1,2.6-1.5,4.2-1.5s3,0.5,4.2,1.5c1.2-1,2.6-1.5,4.2-1.5c3.6,0,6.6,3,6.6,6.6
			c0,2.4-1.4,4.7-3.6,5.8l0,13.6C27.3,29.3,25.3,31.8,22.9,31.8z M7.7,1.2c-3.1,0-5.6,2.5-5.6,5.6c0,2.3,1,4.1,2.9,5
			c0.2,0.1,0.3,0.3,0.3,0.5l0,0.1c0,0.1,0,0.3,0,0.4v13.5c0,2.3,1.9,4.5,3.9,4.5h13.7c1.9,0,3.4-2.1,3.4-4.5l0-13.7
			c0-0.1,0-0.2,0-0.2c0-0.2,0.1-0.4,0.3-0.5c2-0.9,3.3-2.9,3.3-5.1c0-3.1-2.5-5.6-5.6-5.6c-1.4,0-2.8,0.5-3.8,1.5
			c-0.2,0.2-0.5,0.2-0.7,0c-1-1-2.4-1.5-3.8-1.5c-1.4,0-2.8,0.5-3.8,1.5c-0.2,0.2-0.5,0.2-0.7,0C10.5,1.8,9.1,1.2,7.7,1.2z"/>
	</g>
	<g>
		<g>
			<path fill="#37474F" d="M13.4,21.9c0,0.2-0.2,0.4-0.4,0.4c-0.2,0-0.4-0.2-0.4-0.4c0-0.2,0.2-0.4,0.4-0.4
				C13.3,21.5,13.4,21.7,13.4,21.9z"/>
			<path fill="#37474F" d="M13,22.9c-0.2,0-0.5-0.1-0.7-0.3c-0.2-0.2-0.3-0.4-0.3-0.7c0-0.5,0.4-0.9,0.9-0.9c0,0,0,0,0,0
				c0.5,0,0.9,0.4,0.9,0.9C13.9,22.4,13.6,22.8,13,22.9L13,22.9z"/>
		</g>
		<g>
			<path fill="#37474F" d="M16.4,21.9c0,0.2-0.2,0.4-0.4,0.4c-0.2,0-0.4-0.2-0.4-0.4c0-0.2,0.2-0.4,0.4-0.4
				C16.2,21.5,16.4,21.7,16.4,21.9z"/>
			<path fill="#37474F" d="M16,22.9c-0.5,0-0.9-0.4-0.9-0.9c0-0.5,0.4-0.9,0.9-0.9c0.5,0,0.9,0.4,0.9,0.9c0,0.2-0.1,0.5-0.3,0.6
				C16.5,22.8,16.3,22.9,16,22.9z"/>
		</g>
		<g>
			<path fill="#37474F" d="M19.4,21.9c0,0.2-0.2,0.4-0.4,0.4c-0.2,0-0.4-0.2-0.4-0.4c0-0.2,0.2-0.4,0.4-0.4
				C19.2,21.5,19.4,21.7,19.4,21.9z"/>
			<path fill="#37474F" d="M19,22.9c-0.5,0-0.9-0.4-0.9-0.9c0-0.5,0.4-0.9,0.9-0.9c0.5,0,1,0.4,1,0.9C19.9,22.4,19.5,22.9,19,22.9z"
				/>
		</g>
	</g>
	<g>
		<g>
			<path fill="#37474F" d="M12.8,12.6c-0.1,0-0.2,0-0.3-0.1c-2.4-1.5-3.1-4.7-1.6-7c0.1-0.2,0.5-0.3,0.7-0.2
				c0.2,0.1,0.3,0.5,0.2,0.7c-1.2,1.9-0.6,4.4,1.2,5.6c0.2,0.1,0.3,0.5,0.2,0.7C13.2,12.5,13,12.6,12.8,12.6z"/>
		</g>
		<g>
			<path fill="#37474F" d="M19.2,12.6c-0.2,0-0.3-0.1-0.4-0.2c-0.1-0.2-0.1-0.5,0.2-0.7c1.9-1.2,2.5-3.7,1.2-5.6
				c-0.1-0.2-0.1-0.5,0.2-0.7c0.2-0.1,0.5-0.1,0.7,0.2c1.5,2.4,0.8,5.5-1.6,7C19.4,12.6,19.3,12.6,19.2,12.6z"/>
		</g>
	</g>
</g>
</svg>
