<?xml version="1.0" encoding="utf-8"?>
<!-- Generator: Adobe Illustrator 16.0.0, SVG Export Plug-In . SVG Version: 6.00 Build 0)  -->
<!DOCTYPE svg PUBLIC "-//W3C//DTD SVG 1.1//EN" "http://www.w3.org/Graphics/SVG/1.1/DTD/svg11.dtd">
<svg version="1.1" id="Layer_1" xmlns="http://www.w3.org/2000/svg" xmlns:xlink="http://www.w3.org/1999/xlink" x="0px" y="0px"
	 width="32px" height="32px" viewBox="0 0 32 32" enable-background="new 0 0 32 32" xml:space="preserve">
<g>
	<g>
		<path fill="#B0BEC5" d="M30.6,23.9c0,1.9-1.8,4.4-3.9,4.4H5.3c-2.2,0-3.9-2.4-3.9-4.4l0,0c0-1.9,1.8-3.6,3.9-3.6h21.4
			C28.8,20.3,30.6,22,30.6,23.9L30.6,23.9z"/>
		<path fill="#37474F" d="M26.7,28.8H5.3c-2.4,0-4.4-2.7-4.4-4.9c0-2.2,2-4.1,4.4-4.1h21.4c2.4,0,4.4,1.9,4.4,4.1
			C31.1,26.1,29.1,28.8,26.7,28.8z M5.3,20.8c-1.8,0-3.4,1.5-3.4,3.1c0,1.7,1.6,3.9,3.4,3.9h21.4c1.8,0,3.4-2.2,3.4-3.9
			c0-1.7-1.6-3.1-3.4-3.1H5.3z"/>
	</g>
	<g>
		<g>
			<rect x="25.1" y="4.3" fill="#FFFFFF" width="2" height="13"/>
			<path fill="#37474F" d="M27.1,17.8h-2c-0.3,0-0.5-0.2-0.5-0.5v-13c0-0.3,0.2-0.5,0.5-0.5h2c0.3,0,0.5,0.2,0.5,0.5v13
				C27.6,17.5,27.3,17.8,27.1,17.8z M25.6,16.8h1v-12h-1V16.8z"/>
		</g>
		<g>
			<rect x="25.1" y="13.3" fill="#FFAB00" width="2" height="13"/>
			<path fill="#37474F" d="M27.1,26.8h-2c-0.3,0-0.5-0.2-0.5-0.5v-13c0-0.3,0.2-0.5,0.5-0.5h2c0.3,0,0.5,0.2,0.5,0.5v13
				C27.6,26.5,27.3,26.8,27.1,26.8z M25.6,25.8h1v-12h-1V25.8z"/>
		</g>
	</g>
	<g>
		<path fill="#FFFFFF" d="M30.6,25.8c0,1.9-1.8,3.5-3.9,3.5H5.3c-2.2,0-3.9-1.6-3.9-3.5l0,0c0-1.9,1.8-3.5,3.9-3.5h21.4
			C28.8,22.3,30.6,23.8,30.6,25.8L30.6,25.8z"/>
		<path fill="#37474F" d="M26.7,29.8H5.3c-2.4,0-4.4-1.8-4.4-4c0-2.2,2-4,4.4-4h21.4c2.4,0,4.4,1.8,4.4,4
			C31.1,28,29.1,29.8,26.7,29.8z M5.3,22.8c-1.9,0-3.4,1.3-3.4,3c0,1.7,1.5,3,3.4,3h21.4c1.9,0,3.4-1.3,3.4-3c0-1.7-1.5-3-3.4-3H5.3
			z"/>
	</g>
	<g>
		<polygon fill="#FFAB00" points="6.6,28 4.7,26 6.6,24.1 8.6,26 		"/>
		<path fill="#37474F" d="M6.6,28.5c-0.1,0-0.3-0.1-0.4-0.1l-1.9-1.9c-0.2-0.2-0.2-0.5,0-0.7l1.9-1.9c0.1-0.1,0.2-0.1,0.4-0.1h0
			c0.1,0,0.3,0.1,0.4,0.1l1.9,1.9c0.2,0.2,0.2,0.5,0,0.7L7,28.3C6.9,28.4,6.8,28.5,6.6,28.5C6.6,28.5,6.6,28.5,6.6,28.5z M5.4,26
			l1.2,1.2L7.9,26l-1.2-1.2L5.4,26z"/>
	</g>
	<g>
		<g>
			<g>
				<path fill="#37474F" d="M17.4,26c0-0.2,0.2-0.4,0.4-0.4c0.2,0,0.4,0.2,0.4,0.4c0,0.2-0.2,0.4-0.4,0.4
					C17.5,26.4,17.4,26.3,17.4,26z"/>
				<path fill="#37474F" d="M17.7,26.9c-0.5,0-0.9-0.4-0.9-0.9c0-0.5,0.4-0.9,0.9-0.9c0.2,0,0.5,0.1,0.6,0.3
					c0.2,0.2,0.3,0.4,0.3,0.6C18.7,26.5,18.3,26.9,17.7,26.9L17.7,26.9z"/>
			</g>
			<g>
				<path fill="#37474F" d="M14.6,26c0-0.2,0.2-0.4,0.4-0.4c0.2,0,0.4,0.2,0.4,0.4c0,0.2-0.2,0.4-0.4,0.4
					C14.8,26.4,14.6,26.3,14.6,26z"/>
				<path fill="#37474F" d="M15,26.9L15,26.9c-0.5,0-0.9-0.4-0.9-0.9c0-0.2,0.1-0.5,0.3-0.6c0.2-0.2,0.4-0.3,0.6-0.3
					c0.5,0,0.9,0.4,0.9,0.9C15.9,26.5,15.5,26.9,15,26.9z"/>
			</g>
			<g>
				<path fill="#37474F" d="M11.8,26c0-0.2,0.2-0.4,0.4-0.4c0.2,0,0.4,0.2,0.4,0.4c0,0.2-0.2,0.4-0.4,0.4C12,26.4,11.8,26.3,11.8,26
					z"/>
				<path fill="#37474F" d="M12.2,26.9L12.2,26.9C12.2,26.9,12.2,26.9,12.2,26.9c-0.5,0-0.9-0.4-0.9-0.9c0-0.5,0.4-0.9,0.9-0.9
					c0.5,0,0.9,0.4,0.9,0.9C13.1,26.5,12.7,26.9,12.2,26.9z M12.2,26.1l0,0.3L12.2,26.1c0.1,0,0.1,0,0.1-0.1c0-0.1,0-0.1-0.1-0.1v0
					c0,0,0,0,0,0l0,0c0,0-0.1,0-0.1,0.1S12.1,26.1,12.2,26.1z"/>
			</g>
		</g>
		<g>
			<g>
				<path fill="#37474F" d="M26.8,26c0-0.2,0.2-0.4,0.4-0.4c0.2,0,0.4,0.2,0.4,0.4c0,0.2-0.2,0.4-0.4,0.4C27,26.4,26.8,26.3,26.8,26
					z"/>
				<path fill="#37474F" d="M27.2,26.9c-0.5,0-0.9-0.4-0.9-0.9c0-0.5,0.4-0.9,0.9-0.9c0.2,0,0.5,0.1,0.6,0.3
					c0.2,0.2,0.3,0.4,0.3,0.6C28.1,26.5,27.7,26.9,27.2,26.9L27.2,26.9z"/>
			</g>
			<g>
				<path fill="#37474F" d="M24,26c0-0.2,0.2-0.4,0.4-0.4c0.2,0,0.4,0.2,0.4,0.4c0,0.2-0.2,0.4-0.4,0.4C24.2,26.4,24,26.3,24,26z"/>
				<path fill="#37474F" d="M24.4,26.9L24.4,26.9c-0.5,0-0.9-0.4-0.9-0.9c0-0.2,0.1-0.5,0.3-0.6c0.2-0.2,0.4-0.3,0.6-0.3
					c0.5,0,0.9,0.4,0.9,0.9C25.3,26.5,24.9,26.9,24.4,26.9z"/>
			</g>
			<g>
				<path fill="#37474F" d="M21.2,26c0-0.2,0.2-0.4,0.4-0.4c0.2,0,0.4,0.2,0.4,0.4c0,0.2-0.2,0.4-0.4,0.4
					C21.4,26.4,21.2,26.3,21.2,26z"/>
				<path fill="#37474F" d="M21.6,26.9L21.6,26.9C21.6,26.9,21.6,26.9,21.6,26.9c-0.5,0-0.9-0.4-0.9-0.9c0-0.5,0.4-0.9,0.9-0.9
					c0.5,0,0.9,0.4,0.9,0.9C22.5,26.5,22.1,26.9,21.6,26.9z M21.6,26.1l0,0.3L21.6,26.1c0.1,0,0.1,0,0.1-0.1c0-0.1,0-0.1-0.1-0.1v0
					c0,0,0,0,0,0l0,0c0,0-0.1,0-0.1,0.1S21.6,26.1,21.6,26.1z"/>
			</g>
		</g>
	</g>
	<g>
		<circle fill="#B0BEC5" cx="26.2" cy="4.4" r="1.6"/>
		<path fill="#37474F" d="M26.2,6.5c-1.2,0-2.1-1-2.1-2.1c0-1.2,1-2.1,2.1-2.1c1.2,0,2.1,1,2.1,2.1C28.3,5.5,27.4,6.5,26.2,6.5z
			 M26.2,3.2c-0.6,0-1.1,0.5-1.1,1.1c0,0.6,0.5,1.1,1.1,1.1c0.6,0,1.1-0.5,1.1-1.1C27.3,3.7,26.8,3.2,26.2,3.2z"/>
	</g>
	<g>
		<g>
			<g>
				<g>
					<path fill="#FFAB00" d="M22.3,11.9c0-3.8-4.3-7-9.6-7c-5.3,0-9.6,3.1-9.6,7"/>
					<path fill="#37474F" d="M22.3,12.4c-0.3,0-0.5-0.2-0.5-0.5c0-3.6-4.1-6.5-9.1-6.5c-5,0-9.1,2.9-9.1,6.5c0,0.3-0.2,0.5-0.5,0.5
						s-0.5-0.2-0.5-0.5c0-4.1,4.5-7.5,10.1-7.5c5.6,0,10.1,3.4,10.1,7.5C22.8,12.2,22.6,12.4,22.3,12.4z"/>
				</g>
			</g>
			<g>
				<g>
					<path fill="#FFECB3" d="M20,13.6c0-3.3-3.2-6-7.3-6c-4,0-7.3,2.7-7.3,6"/>
					<path fill="#37474F" d="M20,14.1c-0.3,0-0.5-0.2-0.5-0.5c0-3-3-5.5-6.8-5.5c-3.7,0-6.8,2.4-6.8,5.5c0,0.3-0.2,0.5-0.5,0.5
						s-0.5-0.2-0.5-0.5c0-3.6,3.5-6.5,7.8-6.5c4.3,0,7.8,2.9,7.8,6.5C20.5,13.9,20.2,14.1,20,14.1z"/>
				</g>
			</g>
			<g>
				<g>
					<path fill="#FFFFFF" d="M17.8,15.3c0-2.4-2.3-4.3-5.1-4.3c-2.8,0-5.1,1.9-5.1,4.3"/>
					<path fill="#37474F" d="M17.8,15.8c-0.3,0-0.5-0.2-0.5-0.5c0-2.1-2.1-3.8-4.6-3.8c-2.6,0-4.6,1.7-4.6,3.8
						c0,0.3-0.2,0.5-0.5,0.5S7,15.6,7,15.3c0-2.7,2.5-4.8,5.6-4.8c3.1,0,5.6,2.2,5.6,4.8C18.3,15.6,18.1,15.8,17.8,15.8z"/>
				</g>
			</g>
		</g>
		<g>
			<polygon fill="#37474F" points="10.1,15.8 12.7,20.1 15.3,15.8 			"/>
		</g>
	</g>
</g>
</svg>
