<?xml version="1.0" encoding="utf-8"?>
<!-- Generator: Adobe Illustrator 16.0.0, SVG Export Plug-In . SVG Version: 6.00 Build 0)  -->
<!DOCTYPE svg PUBLIC "-//W3C//DTD SVG 1.1//EN" "http://www.w3.org/Graphics/SVG/1.1/DTD/svg11.dtd">
<svg version="1.1" id="Layer_1" xmlns="http://www.w3.org/2000/svg" xmlns:xlink="http://www.w3.org/1999/xlink" x="0px" y="0px"
	 width="64px" height="64px" viewBox="0 0 64 64" enable-background="new 0 0 64 64" xml:space="preserve">
<g>
	<g>
		<g>
			<g>
				<path fill="#FFAB00" d="M11.3,23.1v-1.8c0-3.8,3.1-6.9,6.9-6.9h27.4c3.8,0,6.9,3.1,6.9,6.9v1.8H11.3z"/>
				<path fill="#37474F" d="M52.5,24.1H11.3c-0.6,0-1-0.4-1-1v-1.8c0-4.3,3.5-7.9,7.9-7.9h27.4c4.3,0,7.9,3.5,7.9,7.9v1.8
					C53.5,23.6,53,24.1,52.5,24.1z M12.3,22.1h39.2v-0.8c0-3.2-2.6-5.9-5.9-5.9H18.2c-3.2,0-5.9,2.6-5.9,5.9V22.1z"/>
			</g>
			<g>
				<line fill="#FFAB00" x1="23.3" y1="10" x2="40.5" y2="10"/>
				<path fill="#37474F" d="M40.5,11H23.3c-0.6,0-1-0.4-1-1s0.4-1,1-1h17.2c0.6,0,1,0.4,1,1S41,11,40.5,11z"/>
			</g>
		</g>
		<g>
			<line fill="#FFAB00" x1="31.9" y1="1.7" x2="31.9" y2="8.9"/>
			<path fill="#37474F" d="M31.9,9.9c-0.6,0-1-0.4-1-1V1.7c0-0.6,0.4-1,1-1s1,0.4,1,1v7.2C32.9,9.4,32.5,9.9,31.9,9.9z"/>
		</g>
	</g>
	<g>
		<g>
			<g>
				<line fill="#FFAB00" x1="31.7" y1="27.8" x2="31.7" y2="62.5"/>
			</g>
			<g>
				<g>
					<path fill="#37474F" d="M31.7,32.3c-0.6,0-1-0.4-1-1v-3.5c0-0.6,0.4-1,1-1s1,0.4,1,1v3.5C32.7,31.8,32.2,32.3,31.7,32.3z"/>
				</g>
				<g>
					<path fill="#37474F" d="M31.7,54.5c-0.6,0-1-0.4-1-1v-5.5c0-0.6,0.4-1,1-1s1,0.4,1,1v5.5C32.7,54,32.2,54.5,31.7,54.5z
						 M31.7,43.4c-0.6,0-1-0.4-1-1v-5.5c0-0.6,0.4-1,1-1s1,0.4,1,1v5.5C32.7,42.9,32.2,43.4,31.7,43.4z"/>
				</g>
				<g>
					<path fill="#37474F" d="M31.7,63.5c-0.6,0-1-0.4-1-1V59c0-0.6,0.4-1,1-1s1,0.4,1,1v3.5C32.7,63.1,32.2,63.5,31.7,63.5z"/>
				</g>
			</g>
		</g>
		<g>
			<g>
				<g>
					<g>
						<line fill="#FFAB00" x1="38.6" y1="27.8" x2="43.9" y2="61.1"/>
					</g>
					<g>
						<g>
							<path fill="#37474F" d="M39.1,32.2c-0.5,0-0.9-0.4-1-0.8l-0.5-3.5c-0.1-0.5,0.3-1.1,0.8-1.1c0.5-0.1,1.1,0.3,1.1,0.8l0.5,3.5
								c0.1,0.5-0.3,1.1-0.8,1.1C39.2,32.2,39.2,32.2,39.1,32.2z"/>
						</g>
						<g>
							<path fill="#37474F" d="M41.9,49.9c-0.5,0-0.9-0.4-1-0.8l-1.4-8.8c-0.1-0.5,0.3-1.1,0.8-1.1c0.5-0.1,1.1,0.3,1.1,0.8l1.4,8.8
								c0.1,0.5-0.3,1.1-0.8,1.1C42,49.9,42,49.9,41.9,49.9z"/>
						</g>
						<g>
							<path fill="#37474F" d="M43.9,62.1c-0.5,0-0.9-0.4-1-0.8l-0.5-3.5c-0.1-0.5,0.3-1.1,0.8-1.1c0.5-0.1,1.1,0.3,1.1,0.8l0.5,3.5
								c0.1,0.5-0.3,1.1-0.8,1.1C44,62.1,43.9,62.1,43.9,62.1z"/>
						</g>
					</g>
				</g>
				<g>
					<g>
						<line fill="#FFAB00" x1="46.1" y1="27.8" x2="55.9" y2="58.5"/>
					</g>
					<g>
						<g>
							<path fill="#37474F" d="M47.1,32.1c-0.4,0-0.8-0.3-1-0.7l-1.1-3.3c-0.2-0.5,0.1-1.1,0.6-1.3c0.5-0.2,1.1,0.1,1.3,0.6l1.1,3.3
								c0.2,0.5-0.1,1.1-0.6,1.3C47.3,32.1,47.2,32.1,47.1,32.1z"/>
						</g>
						<g>
							<path fill="#37474F" d="M52.3,48.1c-0.4,0-0.8-0.3-1-0.7l-2.6-8c-0.2-0.5,0.1-1.1,0.6-1.3c0.5-0.2,1.1,0.1,1.3,0.6l2.6,8
								c0.2,0.5-0.1,1.1-0.6,1.3C52.5,48.1,52.4,48.1,52.3,48.1z"/>
						</g>
						<g>
							<path fill="#37474F" d="M55.9,59.5c-0.4,0-0.8-0.3-1-0.7l-1.1-3.3c-0.2-0.5,0.1-1.1,0.6-1.3c0.5-0.2,1.1,0.1,1.3,0.6l1.1,3.3
								c0.2,0.5-0.1,1.1-0.6,1.3C56.1,59.5,56,59.5,55.9,59.5z"/>
						</g>
					</g>
				</g>
			</g>
			<g>
				<g>
					<g>
						<line fill="#FFAB00" x1="25.3" y1="27.8" x2="20" y2="61.1"/>
					</g>
					<g>
						<g>
							<path fill="#37474F" d="M24.7,32.2c-0.1,0-0.1,0-0.2,0c-0.5-0.1-0.9-0.6-0.8-1.1l0.5-3.5c0.1-0.5,0.6-0.9,1.1-0.8
								c0.5,0.1,0.9,0.6,0.8,1.1l-0.5,3.5C25.6,31.9,25.2,32.2,24.7,32.2z"/>
						</g>
						<g>
							<path fill="#37474F" d="M21.9,49.9c-0.1,0-0.1,0-0.2,0c-0.5-0.1-0.9-0.6-0.8-1.1l1.4-8.8c0.1-0.5,0.6-0.9,1.1-0.8
								c0.5,0.1,0.9,0.6,0.8,1.1L22.9,49C22.8,49.5,22.4,49.9,21.9,49.9z"/>
						</g>
						<g>
							<path fill="#37474F" d="M20,62.1c-0.1,0-0.1,0-0.2,0C19.3,62,18.9,61.5,19,61l0.5-3.5c0.1-0.5,0.6-0.9,1.1-0.8
								c0.5,0.1,0.9,0.6,0.8,1.1L21,61.3C20.9,61.8,20.5,62.1,20,62.1z"/>
						</g>
					</g>
				</g>
				<g>
					<g>
						<line fill="#FFAB00" x1="17.8" y1="27.8" x2="7.9" y2="58.5"/>
					</g>
					<g>
						<g>
							<path fill="#37474F" d="M16.7,32.1c-0.1,0-0.2,0-0.3,0c-0.5-0.2-0.8-0.7-0.6-1.3l1.1-3.3c0.2-0.5,0.7-0.8,1.3-0.6
								c0.5,0.2,0.8,0.7,0.6,1.3l-1.1,3.3C17.5,31.8,17.1,32.1,16.7,32.1z"/>
						</g>
						<g>
							<path fill="#37474F" d="M11.5,48.1c-0.1,0-0.2,0-0.3,0c-0.5-0.2-0.8-0.7-0.6-1.3l2.6-8c0.2-0.5,0.7-0.8,1.3-0.6
								c0.5,0.2,0.8,0.7,0.6,1.3l-2.6,8C12.4,47.9,12,48.1,11.5,48.1z"/>
						</g>
						<g>
							<path fill="#37474F" d="M7.9,59.5c-0.1,0-0.2,0-0.3,0c-0.5-0.2-0.8-0.7-0.6-1.3L8,54.9c0.2-0.5,0.7-0.8,1.3-0.6
								c0.5,0.2,0.8,0.7,0.6,1.3l-1.1,3.3C8.7,59.2,8.3,59.5,7.9,59.5z"/>
						</g>
					</g>
				</g>
			</g>
		</g>
	</g>
</g>
</svg>
