<?xml version="1.0" encoding="utf-8"?>
<!-- Generator: Adobe Illustrator 16.0.0, SVG Export Plug-In . SVG Version: 6.00 Build 0)  -->
<!DOCTYPE svg PUBLIC "-//W3C//DTD SVG 1.1//EN" "http://www.w3.org/Graphics/SVG/1.1/DTD/svg11.dtd">
<svg version="1.1" id="Layer_1" xmlns="http://www.w3.org/2000/svg" xmlns:xlink="http://www.w3.org/1999/xlink" x="0px" y="0px"
	 width="128px" height="128px" viewBox="0 0 128 128" enable-background="new 0 0 128 128" xml:space="preserve">
<g>
	<g>
		<g>
			<g>
				<polyline fill="#FFAB00" points="31.2,103.8 43,103.8 43,116.8 62.5,97.3 				"/>
				<path fill="#37474F" d="M43,118.3c-0.2,0-0.4,0-0.6-0.1c-0.6-0.2-0.9-0.8-0.9-1.4v-11.5l-10.2,0.1c0,0,0,0,0,0
					c-0.8,0-1.5-0.7-1.5-1.5c0-0.8,0.7-1.5,1.5-1.5l11.8-0.1c0,0,0,0,0,0c0.4,0,0.8,0.2,1.1,0.4c0.3,0.3,0.4,0.7,0.4,1.1v9.4
					l16.9-17c0.6-0.6,1.5-0.6,2.1,0c0.6,0.6,0.6,1.5,0,2.1l-19.5,19.5C43.8,118.2,43.4,118.3,43,118.3z"/>
			</g>
			<g>
				<polyline fill="#FFECB3" points="18.1,40.6 2.9,63.9 21,81.9 21,93.8 43.5,93.8 				"/>
				<path fill="#37474F" d="M43.5,95.3H21c-0.8,0-1.5-0.7-1.5-1.5V82.5L1.8,64.9c-0.5-0.5-0.6-1.3-0.2-1.9l15.2-23.3
					c0.5-0.7,1.4-0.9,2.1-0.4c0.7,0.5,0.9,1.4,0.4,2.1L4.8,63.7L22,80.8c0.3,0.3,0.4,0.7,0.4,1.1v10.4h21c0.8,0,1.5,0.7,1.5,1.5
					S44.3,95.3,43.5,95.3z"/>
			</g>
			<g>
				<path fill="#37474F" d="M31,104.9c-0.2,0-0.4,0-0.6-0.1c-0.6-0.2-0.9-0.8-0.9-1.4V81.3h-8c-0.8,0-1.5-0.7-1.5-1.5
					s0.7-1.5,1.5-1.5H31c0.8,0,1.5,0.7,1.5,1.5v20.1l8.5-8.1c0.6-0.6,1.5-0.5,2.1,0.1c0.6,0.6,0.5,1.5-0.1,2.1l-11,10.5
					C31.7,104.8,31.4,104.9,31,104.9z"/>
			</g>
			<g>
				<path fill="#FFFFFF" d="M23.8,38.2c0,2.5-2,4.4-4.5,4.4c-2.5,0-4.5-2-4.5-4.4c0-2.5,2-4.5,4.5-4.5
					C21.8,33.8,23.8,35.8,23.8,38.2z"/>
				<path fill="#37474F" d="M19.4,44.2c-3.3,0-6-2.7-6-5.9c0-3.3,2.7-6,6-6c3.3,0,6,2.7,6,6C25.3,41.5,22.6,44.2,19.4,44.2z
					 M19.4,35.3c-1.6,0-3,1.3-3,3c0,1.6,1.3,2.9,3,2.9c1.6,0,3-1.3,3-2.9C22.3,36.6,21,35.3,19.4,35.3z"/>
			</g>
		</g>
		<g>
			<g>
				<polyline fill="#FFAB00" points="96.5,103.8 85,103.8 85,116.8 65.4,97.3 				"/>
				<path fill="#37474F" d="M85,118.3c-0.4,0-0.8-0.2-1.1-0.4L64.3,98.3c-0.6-0.6-0.6-1.5,0-2.1c0.6-0.6,1.5-0.6,2.1,0l17,17v-9.4
					c0-0.8,0.7-1.5,1.5-1.5h11.5c0.8,0,1.5,0.7,1.5,1.5s-0.7,1.5-1.5,1.5h-10v11.5c0,0.6-0.4,1.2-0.9,1.4
					C85.4,118.3,85.2,118.3,85,118.3z"/>
			</g>
			<g>
				<polyline fill="#FFECB3" points="109.9,40.6 125.1,63.9 107,81.9 107,93.8 84.5,93.8 				"/>
				<path fill="#37474F" d="M107,95.3H84.5c-0.8,0-1.5-0.7-1.5-1.5s0.7-1.5,1.5-1.5h21V81.9c0-0.4,0.2-0.8,0.4-1.1l17.3-17.2
					l-14.6-22.2c-0.5-0.7-0.3-1.6,0.4-2.1c0.7-0.5,1.6-0.3,2.1,0.4L126.4,63c0.4,0.6,0.3,1.4-0.2,1.9l-17.7,17.6v11.3
					C108.5,94.6,107.8,95.3,107,95.3z"/>
			</g>
			<g>
				<path fill="#37474F" d="M97,105.3c-0.4,0-0.8-0.2-1.1-0.5L85.4,94c-0.6-0.6-0.6-1.5,0-2.1c0.6-0.6,1.5-0.6,2.1,0l7.9,8.2l0-20.3
					c0-0.4,0.2-0.8,0.4-1.1c0.3-0.3,0.7-0.4,1.1-0.4h10.5c0.8,0,1.5,0.7,1.5,1.5s-0.7,1.5-1.5,1.5h-9l0,22.5c0,0.6-0.4,1.2-0.9,1.4
					C97.4,105.2,97.2,105.3,97,105.3z"/>
			</g>
			<g>
				<path fill="#FFFFFF" d="M104.2,38.2c0,2.5,2,4.4,4.5,4.4c2.5,0,4.5-2,4.5-4.4c0-2.5-2-4.5-4.5-4.5
					C106.2,33.8,104.2,35.8,104.2,38.2z"/>
				<path fill="#37474F" d="M108.7,44.2c-3.3,0-6-2.7-6-5.9c0-3.3,2.7-6,6-6c3.3,0,6,2.7,6,6C114.7,41.5,112,44.2,108.7,44.2z
					 M108.7,35.3c-1.6,0-3,1.3-3,3c0,1.6,1.3,2.9,3,2.9c1.6,0,3-1.3,3-2.9C111.7,36.6,110.3,35.3,108.7,35.3z"/>
			</g>
		</g>
	</g>
	<g>
		<line fill="#FFAB00" x1="4.5" y1="62.8" x2="124.5" y2="62.8"/>
		<path fill="#37474F" d="M124.5,64.3H4.5c-0.8,0-1.5-0.7-1.5-1.5s0.7-1.5,1.5-1.5h120c0.8,0,1.5,0.7,1.5,1.5S125.3,64.3,124.5,64.3
			z"/>
	</g>
	<g>
		<rect x="59" y="109.8" fill="#37474F" width="10" height="16"/>
		<path fill="#37474F" d="M69,127.3H59c-0.8,0-1.5-0.7-1.5-1.5v-16c0-0.8,0.7-1.5,1.5-1.5h10c0.8,0,1.5,0.7,1.5,1.5v16
			C70.5,126.6,69.8,127.3,69,127.3z M60.5,124.3h7v-13h-7V124.3z"/>
	</g>
	<g>
		<path fill="#FFAB00" d="M102.4,40.6C102.4,61.8,85.2,79,64,79c-21.2,0-38.4-17.2-38.4-38.4C25.6,19.4,42.8,2.2,64,2.2
			C85.2,2.2,102.4,19.4,102.4,40.6z"/>
		<path fill="#37474F" d="M64,80.5c-22,0-39.9-17.9-39.9-39.9C24.1,18.6,42,0.7,64,0.7c22,0,39.9,17.9,39.9,39.9
			C103.9,62.6,86,80.5,64,80.5z M64,3.7c-20.3,0-36.9,16.6-36.9,36.9C27.1,61,43.7,77.5,64,77.5c20.3,0,36.9-16.5,36.9-36.9
			C100.9,20.3,84.4,3.7,64,3.7z"/>
	</g>
	<g>
		<rect x="55" y="105.8" fill="#78909C" width="17" height="10"/>
		<path fill="#37474F" d="M73.5,117.3h-20v-13h20V117.3z M56.5,114.3h14v-7h-14V114.3z"/>
	</g>
	<g>
		<rect x="52" y="97.8" fill="#78909C" width="23" height="10"/>
		<path fill="#37474F" d="M76.5,109.3h-26v-13h26V109.3z M53.5,106.3h20v-7h-20V106.3z"/>
	</g>
	<g>
		<g>
			<path fill="#FFFFFF" d="M88,82.5C88,91,81,97.8,72.6,97.8H55.4C47,97.8,40,91,40,82.5V30.4c0-8.4,7-15.6,15.5-15.6h17.2
				C81,14.8,88,21.9,88,30.4V82.5z"/>
			<path fill="#37474F" d="M72.6,99.3H55.4c-9.3,0-17-7.5-17-16.8V30.4c0-9.3,7.8-17.1,17-17.1h17.2c9.1,0,16.9,7.8,16.9,17.1v52.2
				C89.5,91.8,81.9,99.3,72.6,99.3z M55.4,16.3c-7.6,0-14,6.4-14,14.1v52.2c0,7.6,6.3,13.8,14,13.8h17.2c7.7,0,13.9-6.2,13.9-13.8
				V30.4c0-7.6-6.4-14.1-13.9-14.1H55.4z"/>
		</g>
		<g>
			<path fill="#B0BEC5" d="M79.5,81.1c0,8.1-4.1,14.1-9.7,14.1H58.3c-5.6,0-9.8-6.1-9.8-14.1V31.3c0-8,4.2-15.1,9.8-15.1h11.4
				c5.6,0,9.7,7,9.7,15.1V81.1z"/>
		</g>
		<g>
			<g>
				<g>
					<line fill="#B0BEC5" x1="51.5" y1="36.8" x2="40.5" y2="36.8"/>
					<path fill="#37474F" d="M51.5,38.3h-11c-0.8,0-1.5-0.7-1.5-1.5s0.7-1.5,1.5-1.5h11c0.8,0,1.5,0.7,1.5,1.5S52.3,38.3,51.5,38.3z
						"/>
				</g>
				<g>
					<line fill="#B0BEC5" x1="51.5" y1="46.8" x2="40.5" y2="46.8"/>
					<path fill="#37474F" d="M51.5,48.3h-11c-0.8,0-1.5-0.7-1.5-1.5s0.7-1.5,1.5-1.5h11c0.8,0,1.5,0.7,1.5,1.5S52.3,48.3,51.5,48.3z
						"/>
				</g>
				<g>
					<line fill="#B0BEC5" x1="51.5" y1="56.8" x2="40.5" y2="56.8"/>
					<path fill="#37474F" d="M51.5,58.3h-11c-0.8,0-1.5-0.7-1.5-1.5s0.7-1.5,1.5-1.5h11c0.8,0,1.5,0.7,1.5,1.5S52.3,58.3,51.5,58.3z
						"/>
				</g>
				<g>
					<line fill="#B0BEC5" x1="51.5" y1="66.8" x2="40.5" y2="66.8"/>
					<path fill="#37474F" d="M51.5,68.3h-11c-0.8,0-1.5-0.7-1.5-1.5s0.7-1.5,1.5-1.5h11c0.8,0,1.5,0.7,1.5,1.5S52.3,68.3,51.5,68.3z
						"/>
				</g>
				<g>
					<line fill="#B0BEC5" x1="51.5" y1="75.8" x2="40.5" y2="75.8"/>
					<path fill="#37474F" d="M51.5,77.3h-11c-0.8,0-1.5-0.7-1.5-1.5s0.7-1.5,1.5-1.5h11c0.8,0,1.5,0.7,1.5,1.5S52.3,77.3,51.5,77.3z
						"/>
				</g>
			</g>
			<g>
				<g>
					<line fill="#B0BEC5" x1="87.5" y1="36.8" x2="76.5" y2="36.8"/>
					<path fill="#37474F" d="M87.5,38.3h-11c-0.8,0-1.5-0.7-1.5-1.5s0.7-1.5,1.5-1.5h11c0.8,0,1.5,0.7,1.5,1.5S88.3,38.3,87.5,38.3z
						"/>
				</g>
				<g>
					<line fill="#B0BEC5" x1="87.5" y1="46.8" x2="76.5" y2="46.8"/>
					<path fill="#37474F" d="M87.5,48.3h-11c-0.8,0-1.5-0.7-1.5-1.5s0.7-1.5,1.5-1.5h11c0.8,0,1.5,0.7,1.5,1.5S88.3,48.3,87.5,48.3z
						"/>
				</g>
				<g>
					<line fill="#B0BEC5" x1="87.5" y1="56.8" x2="76.5" y2="56.8"/>
					<path fill="#37474F" d="M87.5,58.3h-11c-0.8,0-1.5-0.7-1.5-1.5s0.7-1.5,1.5-1.5h11c0.8,0,1.5,0.7,1.5,1.5S88.3,58.3,87.5,58.3z
						"/>
				</g>
				<g>
					<line fill="#B0BEC5" x1="87.5" y1="66.8" x2="76.5" y2="66.8"/>
					<path fill="#37474F" d="M87.5,68.3h-11c-0.8,0-1.5-0.7-1.5-1.5s0.7-1.5,1.5-1.5h11c0.8,0,1.5,0.7,1.5,1.5S88.3,68.3,87.5,68.3z
						"/>
				</g>
				<g>
					<line fill="#B0BEC5" x1="87.5" y1="75.8" x2="76.5" y2="75.8"/>
					<path fill="#37474F" d="M87.5,77.3h-11c-0.8,0-1.5-0.7-1.5-1.5s0.7-1.5,1.5-1.5h11c0.8,0,1.5,0.7,1.5,1.5S88.3,77.3,87.5,77.3z
						"/>
				</g>
			</g>
		</g>
		<g>
			<path fill="#FFAB00" d="M67.8,87.6c0,2.1-1.7,3.8-3.8,3.8c-2.1,0-3.8-1.7-3.8-3.8c0-2.1,1.7-3.8,3.8-3.8
				C66.1,83.9,67.8,85.6,67.8,87.6z"/>
			<path fill="#37474F" d="M64,92.9c-2.9,0-5.3-2.4-5.3-5.3c0-2.9,2.4-5.3,5.3-5.3c2.9,0,5.3,2.4,5.3,5.3
				C69.3,90.6,66.9,92.9,64,92.9z M64,85.4c-1.3,0-2.3,1-2.3,2.3c0,1.2,1,2.3,2.3,2.3c1.3,0,2.3-1,2.3-2.3
				C66.3,86.4,65.3,85.4,64,85.4z"/>
		</g>
		<g>
			<g>
				<path fill="#37474F" d="M64,66.9c1,0,1.8,0.8,1.8,1.7c0,1-0.8,1.8-1.8,1.8c-1,0-1.7-0.8-1.7-1.8C62.3,67.7,63.1,66.9,64,66.9z"
					/>
				<path fill="#37474F" d="M64.1,70.9L64.1,70.9C64,70.9,64,70.9,64.1,70.9c-1.3,0-2.3-1-2.3-2.3c0-0.6,0.2-1.1,0.6-1.5
					c0.4-0.4,1-0.7,1.6-0.7c1.2,0,2.3,1,2.3,2.2C66.3,69.9,65.3,70.9,64.1,70.9z M64,67.4c-0.3,0-0.7,0.1-0.9,0.4
					c-0.2,0.2-0.3,0.5-0.3,0.8c0,0.7,0.5,1.3,1.2,1.3l0.1,0c0.7,0,1.2-0.6,1.2-1.3C65.3,68,64.7,67.4,64,67.4z"/>
			</g>
			<g>
				<path fill="#37474F" d="M64,54.7c1,0,1.8,0.8,1.8,1.7c0,0.9-0.8,1.7-1.8,1.8c-1,0-1.8-0.8-1.8-1.8C62.3,55.5,63.1,54.7,64,54.7z
					"/>
				<path fill="#37474F" d="M64,58.7L64,58.7c-1.2,0-2.3-1-2.3-2.3c0-1.2,1.1-2.2,2.3-2.2c0,0,0,0,0,0c1.3,0,2.3,1,2.3,2.2
					C66.3,57.7,65.3,58.7,64,58.7L64,58.7z M64.1,55.2c-0.7,0-1.3,0.5-1.3,1.2c0,0.7,0.6,1.3,1.3,1.3c0.7,0,1.3-0.6,1.3-1.3
					C65.3,55.8,64.7,55.2,64.1,55.2z"/>
			</g>
			<g>
				<path fill="#37474F" d="M64,42.5c1,0,1.8,0.8,1.8,1.8c0,1-0.8,1.7-1.8,1.7c-1,0-1.8-0.8-1.7-1.8C62.3,43.2,63.1,42.5,64,42.5z"
					/>
				<path fill="#37474F" d="M64,46.5c-0.6,0-1.2-0.2-1.6-0.7c-0.4-0.4-0.6-1-0.6-1.6c0-0.6,0.2-1.1,0.6-1.5c0.4-0.4,1-0.7,1.6-0.7
					c1.2,0,2.3,1,2.3,2.3C66.3,45.5,65.3,46.5,64,46.5z M64,43c-0.3,0-0.7,0.1-0.9,0.4c-0.2,0.2-0.3,0.5-0.3,0.8
					c0,0.4,0.1,0.7,0.3,0.9c0.2,0.2,0.6,0.4,0.9,0.4c0.7,0,1.3-0.6,1.3-1.2C65.3,43.5,64.7,43,64,43z"/>
			</g>
		</g>
	</g>
</g>
</svg>
