<?xml version="1.0" encoding="utf-8"?>
<!-- Generator: Adobe Illustrator 16.0.0, SVG Export Plug-In . SVG Version: 6.00 Build 0)  -->
<!DOCTYPE svg PUBLIC "-//W3C//DTD SVG 1.1//EN" "http://www.w3.org/Graphics/SVG/1.1/DTD/svg11.dtd">
<svg version="1.1" id="Layer_1" xmlns="http://www.w3.org/2000/svg" xmlns:xlink="http://www.w3.org/1999/xlink" x="0px" y="0px"
	 width="128px" height="128px" viewBox="0 0 128 128" enable-background="new 0 0 128 128" xml:space="preserve">
<g>
	<g>
		<line fill="#FFFFFF" x1="101" y1="101" x2="92.8" y2="92.8"/>
		<path fill="#37474F" d="M101,103c-0.5,0-1-0.2-1.4-0.6l-8.2-8.2c-0.8-0.8-0.8-2,0-2.8c0.8-0.8,2-0.8,2.8,0l8.2,8.2
			c0.8,0.8,0.8,2,0,2.8C102,102.8,101.5,103,101,103z"/>
	</g>
	<g>
		<path fill="#78909C" d="M110.4,125.1l-10.8-10.8c-2-2-2-5.3,0-7.4l7.2-7.2c2-2,5.3-2,7.4,0l10.8,10.8"/>
		<path fill="#37474F" d="M110.4,127.1c-0.5,0-1-0.2-1.4-0.6l-10.8-10.8c-2.8-2.8-2.8-7.4,0-10.2l7.2-7.2c2.8-2.8,7.4-2.8,10.2,0
			l10.8,10.8c0.8,0.8,0.8,2,0,2.8c-0.8,0.8-2,0.8-2.8,0L112.8,101c-1.3-1.3-3.3-1.3-4.5,0l-7.2,7.2c-1.3,1.3-1.3,3.3,0,4.5
			l10.8,10.8c0.8,0.8,0.8,2,0,2.8C111.5,126.9,111,127.1,110.4,127.1z"/>
	</g>
	<g>
		<g>
			<polyline fill="#FFAB00" points="30,101 30,79 53,79 53,107 			"/>
			<path fill="#37474F" d="M53,109c-1.1,0-2-0.9-2-2V81H32v20c0,1.1-0.9,2-2,2s-2-0.9-2-2V79c0-1.1,0.9-2,2-2h23c1.1,0,2,0.9,2,2v28
				C55,108.1,54.1,109,53,109z"/>
		</g>
		<g>
			<polyline fill="#B0BEC5" points="3.8,61.3 55.5,17.1 107.3,61.3 			"/>
			<path fill="#37474F" d="M107.3,63.3c-0.5,0-0.9-0.2-1.3-0.5l-50.5-43l-50.5,43c-0.8,0.7-2.1,0.6-2.8-0.2s-0.6-2.1,0.2-2.8
				l51.8-44.1c0.7-0.6,1.8-0.6,2.6,0l51.8,44.1c0.8,0.7,0.9,2,0.2,2.8C108.5,63,107.9,63.3,107.3,63.3z"/>
		</g>
		<g>
			<line fill="#FFECB3" x1="28" y1="62" x2="84" y2="62"/>
			<path fill="#37474F" d="M84,64H28c-1.1,0-2-0.9-2-2s0.9-2,2-2h56c1.1,0,2,0.9,2,2S85.1,64,84,64z"/>
		</g>
		<g>
			<line fill="#FFECB3" x1="18" y1="91" x2="18" y2="68"/>
			<path fill="#37474F" d="M18,93c-1.1,0-2-0.9-2-2V68c0-1.1,0.9-2,2-2s2,0.9,2,2v23C20,92.1,19.1,93,18,93z"/>
		</g>
		<g>
			<line fill="#FFECB3" x1="93" y1="68" x2="93" y2="91"/>
			<path fill="#37474F" d="M93,93c-1.1,0-2-0.9-2-2V68c0-1.1,0.9-2,2-2s2,0.9,2,2v23C95,92.1,94.1,93,93,93z"/>
		</g>
		<g>
			<circle fill="#FFFFFF" cx="73.4" cy="88.1" r="9.6"/>
			<path fill="#37474F" d="M73.4,99.7c-6.4,0-11.6-5.2-11.6-11.6c0-6.4,5.2-11.6,11.6-11.6c6.4,0,11.6,5.2,11.6,11.6
				C85,94.5,79.8,99.7,73.4,99.7z M73.4,80.5c-4.2,0-7.6,3.4-7.6,7.6c0,4.2,3.4,7.6,7.6,7.6c4.2,0,7.6-3.4,7.6-7.6
				C81,83.9,77.6,80.5,73.4,80.5z"/>
		</g>
		<g>
			<line fill="#FFECB3" x1="73.5" y1="79.2" x2="73.5" y2="96.2"/>
			<path fill="#37474F" d="M73.5,98.2c-1.1,0-2-0.9-2-2v-17c0-1.1,0.9-2,2-2s2,0.9,2,2v17C75.5,97.3,74.6,98.2,73.5,98.2z"/>
		</g>
		<g>
			<line fill="#FFECB3" x1="82" y1="88" x2="65" y2="88"/>
			<path fill="#37474F" d="M82,90H65c-1.1,0-2-0.9-2-2s0.9-2,2-2h17c1.1,0,2,0.9,2,2S83.1,90,82,90z"/>
		</g>
		<g>
			<polyline fill="#FFECB3" points="18,47 18,22 30,22 			"/>
			<path fill="#37474F" d="M18,49c-1.1,0-2-0.9-2-2V22c0-1.1,0.9-2,2-2h12c1.1,0,2,0.9,2,2s-0.9,2-2,2H20v23C20,48.1,19.1,49,18,49z
				"/>
		</g>
	</g>
	<g>
		<path fill="#37474F" d="M55.5,110.2c-14.6,0-28.3-5.7-38.6-16c-21.3-21.3-21.3-55.9,0-77.2c10.3-10.3,24-16,38.6-16
			c14.6,0,28.3,5.7,38.6,16c10.3,10.3,16,24,16,38.6s-5.7,28.3-16,38.6C83.9,104.5,70.1,110.2,55.5,110.2z M55.6,4.9
			c-13.5,0-26.2,5.3-35.8,14.8C0,39.5,0,71.6,19.8,91.3c9.6,9.6,22.3,14.8,35.8,14.8c13.5,0,26.2-5.3,35.8-14.8
			c9.6-9.6,14.8-22.3,14.8-35.8s-5.3-26.2-14.8-35.8C81.8,10.2,69.1,4.9,55.6,4.9z"/>
	</g>
</g>
</svg>
