<?xml version="1.0" encoding="utf-8"?>
<!-- Generator: Adobe Illustrator 16.0.0, SVG Export Plug-In . SVG Version: 6.00 Build 0)  -->
<!DOCTYPE svg PUBLIC "-//W3C//DTD SVG 1.1//EN" "http://www.w3.org/Graphics/SVG/1.1/DTD/svg11.dtd">
<svg version="1.1" id="Layer_1" xmlns="http://www.w3.org/2000/svg" xmlns:xlink="http://www.w3.org/1999/xlink" x="0px" y="0px"
	 width="32px" height="32px" viewBox="0 0 32 32" enable-background="new 0 0 32 32" xml:space="preserve">
<g>
	<g>
		<g>
			<path fill="#B0BEC5" d="M3.5,18.3V1.5c0,0,3.6,1.7,3.8,5.8c0.2,4.1,0.3,5.5,0.3,5.5l-2,2.3v3l-1.3,0"/>
			<path fill="#37474F" d="M6,18.6l-1.9,0l0-1l0.8,0v-2.7l2-2.3c0-0.5-0.1-2.1-0.3-5.3C6.7,4.7,5,3.1,4,2.4v16H3V0.7L3.7,1
				c0.2,0.1,3.9,1.9,4.1,6.3c0.2,4,0.3,5.5,0.3,5.5l0,0.2L6,15.3V18.6z"/>
		</g>
		<g>
			<path fill="#FFAB00" d="M3.3,19v9.9c0,0.9,0.6,1.7,1.5,1.7c0.9,0,1.5-0.7,1.5-1.7V19L3.3,19z"/>
			<path fill="#37474F" d="M4.8,31c-1.2,0-2-0.9-2-2.2V19c0-0.3,0.2-0.5,0.5-0.5l3,0c0,0,0,0,0,0c0.1,0,0.3,0.1,0.4,0.1
				s0.1,0.2,0.1,0.4v9.9C6.8,30.1,5.9,31,4.8,31z M3.8,19.5v9.4c0,0.6,0.3,1.2,1,1.2c0.7,0,1-0.6,1-1.2v-9.4L3.8,19.5z"/>
		</g>
		<g>
			<polygon fill="#FFECB3" points="7,19.8 2.5,19.8 2.5,17.8 7,17.9 			"/>
			<path fill="#37474F" d="M7,20.3C7,20.3,7,20.4,7,20.3H2.5c-0.3,0-0.5-0.2-0.5-0.5l0-2.1c0-0.1,0.1-0.3,0.2-0.4s0.2-0.1,0.4-0.1
				L7,17.4c0.3,0,0.5,0.2,0.5,0.5l0,1.8c0,0,0,0.1,0,0.1C7.5,20.1,7.3,20.3,7,20.3z M3,19.3h3.5l0-1L3,18.3L3,19.3z"/>
		</g>
		<g>
			<line fill="#B0BEC5" x1="5.9" y1="5.7" x2="7.2" y2="7.1"/>
			<path fill="#37474F" d="M7.2,7.6c-0.1,0-0.3,0-0.4-0.1L5.5,6.1c-0.2-0.2-0.2-0.5,0-0.7s0.5-0.2,0.7,0l1.3,1.3
				c0.2,0.2,0.2,0.5,0,0.7C7.5,7.5,7.4,7.6,7.2,7.6z"/>
		</g>
		<g>
			<line fill="#B0BEC5" x1="5.9" y1="7.6" x2="7.2" y2="8.9"/>
			<path fill="#37474F" d="M7.2,9.4c-0.1,0-0.3,0-0.4-0.1L5.5,7.9c-0.2-0.2-0.2-0.5,0-0.7C5.7,7,6,7,6.2,7.2l1.3,1.3
				c0.2,0.2,0.2,0.5,0,0.7C7.5,9.4,7.4,9.4,7.2,9.4z"/>
		</g>
		<g>
			<line fill="#B0BEC5" x1="5.9" y1="9.5" x2="7.2" y2="10.8"/>
			<path fill="#37474F" d="M7.2,11.3c-0.1,0-0.3,0-0.4-0.1L5.5,9.8c-0.2-0.2-0.2-0.5,0-0.7c0.2-0.2,0.5-0.2,0.7,0l1.3,1.3
				c0.2,0.2,0.2,0.5,0,0.7C7.5,11.2,7.4,11.3,7.2,11.3z"/>
		</g>
		<g>
			<line fill="#B0BEC5" x1="5.9" y1="11.3" x2="7.2" y2="12.7"/>
			<path fill="#37474F" d="M7.2,13.2c-0.1,0-0.3,0-0.4-0.1l-1.3-1.3c-0.2-0.2-0.2-0.5,0-0.7c0.2-0.2,0.5-0.2,0.7,0l1.3,1.3
				c0.2,0.2,0.2,0.5,0,0.7C7.5,13.1,7.4,13.2,7.2,13.2z"/>
		</g>
		<g>
			<g>
				<path fill="#37474F" d="M4.8,22.1c-0.2,0-0.3-0.2-0.4-0.3c0-0.2,0.2-0.4,0.4-0.4c0.2,0,0.4,0.2,0.4,0.4C5.1,22,5,22.1,4.8,22.1z
					"/>
				<path fill="#37474F" d="M4.8,22.6L4.8,22.6c-0.5,0-0.8-0.4-0.9-0.8c0-0.5,0.4-0.9,0.9-0.9c0.2,0,0.4,0.1,0.6,0.3
					c0.2,0.2,0.2,0.4,0.2,0.6c0,0.2-0.1,0.4-0.2,0.6C5.2,22.5,5,22.6,4.8,22.6z"/>
			</g>
			<g>
				<path fill="#37474F" d="M4.8,24.6c-0.2,0-0.4-0.2-0.4-0.4c0-0.2,0.2-0.4,0.3-0.4c0.2,0,0.4,0.2,0.4,0.4
					C5.1,24.4,5,24.6,4.8,24.6z"/>
				<path fill="#37474F" d="M4.8,25.1c-0.2,0-0.4-0.1-0.6-0.3c-0.2-0.2-0.2-0.4-0.2-0.6c0-0.5,0.4-0.8,0.8-0.8
					c0.5,0,0.9,0.4,0.9,0.9C5.6,24.7,5.2,25.1,4.8,25.1L4.8,25.1z"/>
			</g>
			<g>
				<path fill="#37474F" d="M4.8,27c-0.2,0-0.4-0.2-0.4-0.4c0-0.2,0.2-0.4,0.4-0.4c0.2,0,0.4,0.2,0.4,0.4C5.1,26.9,5,27,4.8,27z"/>
				<path fill="#37474F" d="M4.8,27.5c-0.5,0-0.8-0.4-0.9-0.8c0-0.5,0.4-0.9,0.8-0.9c0.2,0,0.5,0.1,0.6,0.3c0.2,0.2,0.2,0.4,0.2,0.6
					c0,0.2-0.1,0.4-0.2,0.6S5,27.5,4.8,27.5z M4.8,26.5c0,0-0.1,0-0.1,0c0,0,0,0.1,0,0.1c0,0,0,0.1,0,0.1c0.1,0.1,0.3,0,0.3-0.1
					C4.9,26.6,4.8,26.5,4.8,26.5z"/>
			</g>
		</g>
	</g>
	<g>
		<g>
			<polygon fill="#B0BEC5" points="13.5,18.7 11.5,18.7 11.5,12.1 13.5,12.1 			"/>
			<path fill="#37474F" d="M14,19.2l-3,0v-7.6l3,0V19.2z M12,18.2l1,0v-5.6l-1,0V18.2z"/>
		</g>
		<g>
			<g>
				<path fill="#FFAB00" d="M11.1,18.8l0,9.9c0,0.9,0.5,1.7,1.4,1.7c0.9,0,1.4-0.7,1.4-1.6v-10H11.1z"/>
				<path fill="#37474F" d="M12.5,30.9c-0.5,0-1-0.2-1.3-0.5c-0.4-0.4-0.6-1-0.6-1.7l0-9.9c0-0.1,0.1-0.3,0.1-0.4s0.2-0.1,0.4-0.1
					H14c0.3,0,0.5,0.2,0.5,0.5v10C14.5,30,13.7,30.9,12.5,30.9z M11.6,19.3l0,9.4c0,0.4,0.1,0.7,0.3,1c0.2,0.2,0.4,0.2,0.6,0.2
					c0.9,0,0.9-0.9,0.9-1.1v-9.5H11.6z"/>
			</g>
			<g>
				<rect x="10.5" y="17.5" fill="#FFECB3" width="4" height="2.3"/>
				<path fill="#37474F" d="M14.5,20.3h-4c-0.3,0-0.5-0.2-0.5-0.5v-2.3c0-0.1,0.1-0.3,0.1-0.4s0.2-0.1,0.4-0.1l0,0l4,0
					c0.3,0,0.5,0.2,0.5,0.5v2.3C15,20.1,14.8,20.3,14.5,20.3z M11,19.3h3V18l-3,0V19.3z"/>
			</g>
			<g>
				<g>
					<path fill="#37474F" d="M12.3,22.1c-0.2,0-0.3-0.2-0.4-0.3c0-0.2,0.2-0.4,0.4-0.4c0.2,0,0.3,0.2,0.3,0.4
						C12.7,22,12.5,22.1,12.3,22.1z"/>
					<path fill="#37474F" d="M12.3,22.6L12.3,22.6c-0.5,0-0.8-0.4-0.9-0.8c0-0.2,0.1-0.5,0.2-0.6c0.3-0.3,0.9-0.3,1.2,0
						c0.2,0.2,0.2,0.4,0.2,0.6c0,0.2-0.1,0.4-0.2,0.6S12.5,22.6,12.3,22.6z"/>
				</g>
				<g>
					<path fill="#37474F" d="M12.3,24.6c-0.2,0-0.4-0.2-0.3-0.3c0-0.2,0.2-0.4,0.4-0.4c0.2,0,0.4,0.2,0.4,0.4
						C12.7,24.4,12.5,24.6,12.3,24.6z"/>
					<path fill="#37474F" d="M12.3,25.1c-0.2,0-0.4-0.1-0.6-0.2c-0.2-0.2-0.2-0.4-0.2-0.6c0-0.5,0.4-0.8,0.8-0.9
						c0.5,0,0.9,0.4,0.9,0.9C13.2,24.7,12.8,25.1,12.3,25.1L12.3,25.1z"/>
				</g>
				<g>
					<path fill="#37474F" d="M12.3,27c-0.2,0-0.4-0.2-0.4-0.4c0-0.2,0.2-0.4,0.4-0.4c0.2,0,0.4,0.2,0.3,0.4
						C12.7,26.9,12.5,27,12.3,27z"/>
					<path fill="#37474F" d="M12.3,27.5c-0.5,0-0.8-0.4-0.9-0.8c0-0.5,0.4-0.9,0.9-0.9c0.2,0,0.4,0.1,0.6,0.3
						c0.2,0.2,0.2,0.4,0.2,0.6c0,0.2-0.1,0.4-0.2,0.6C12.8,27.5,12.5,27.5,12.3,27.5z M12.3,26.5c0,0-0.1,0-0.1,0c0,0,0,0.1,0,0.1
						c0,0,0,0.1,0,0.1c0.1,0.1,0.3,0,0.3-0.1C12.5,26.6,12.4,26.5,12.3,26.5z"/>
				</g>
			</g>
		</g>
		<g>
			<path fill="#B0BEC5" d="M12,3c0-0.3-0.8-0.8-1.1-0.8C10.7,2.3,10,2.7,10,3v6.6c0,0,0,0.1,0,0.1v2c0,0.5,0.7,1.3,1.2,1.3h3
				c0.5,0,0.8-1,0.8-1.5V9.5c0,0,0,0,0,0V2.9c0-0.3-0.4-0.6-0.7-0.6c-0.3,0-0.7,0.3-0.7,0.6"/>
			<path fill="#37474F" d="M14.3,13.4h-3c-0.8,0-1.7-1-1.7-1.8V3c0-0.7,1-1.2,1.4-1.2c0.4,0,1.6,0.6,1.6,1.3h-1c0,0.1,0,0.1,0,0.1
				c-0.1-0.1-0.5-0.4-0.6-0.4c-0.1,0-0.4,0.2-0.4,0.3l0,8.6c0,0.2,0.5,0.8,0.7,0.8h3c0.1-0.1,0.3-0.6,0.3-1V2.9c0,0-0.1-0.1-0.2-0.1
				c-0.1,0-0.2,0.1-0.2,0.1l-1-0.1c0-0.6,0.7-1.1,1.2-1.1c0.5,0,1.2,0.5,1.2,1.1v8.6C15.5,12.2,15.2,13.4,14.3,13.4z"/>
		</g>
		<g>
			<path fill="#B0BEC5" d="M13.6,7.3V2.8c-0.1-0.3-0.6-0.6-0.9-0.6S12,2.6,12,2.8v4.5"/>
			<path fill="#37474F" d="M14.1,7.3h-1V3c-0.1-0.1-0.3-0.2-0.4-0.2c-0.1,0-0.3,0.1-0.3,0.2l0,4.4h-1V2.8c0-0.6,0.8-1.1,1.3-1.1
				c0.4,0,1.2,0.4,1.3,1l0,0.1V7.3z"/>
		</g>
	</g>
	<g>
		<g>
			<path fill="#FFFFFF" d="M20.5,22.8v-19l0,0c-0.1-1-0.4-1-1.2-1h-1.5c-0.8,0-1.5,0.7-1.5,1.5c0,0.8,0.7,1.5,1.5,1.5h1.7v19l0,0
				c0.4,3,2.4,4.6,4.9,4.6c2.8,0,5.1-2.6,5.1-6.6H20.5z"/>
			<path fill="#37474F" d="M24.4,29.9c-2.9,0-4.9-1.9-5.4-5l0-18.6h-1.2c-1.1,0-2-0.9-2-2c0-1.1,0.9-2,2-2h1.5
				c0.9,0,1.5,0.1,1.7,1.4l0,18.6h8.5c0.1,0,0.3,0.1,0.4,0.1s0.1,0.2,0.1,0.4C30,27,27.6,29.9,24.4,29.9z M20,22.8v2
				c0.4,2.5,2,4.1,4.4,4.1c2.5,0,4.4-2.3,4.6-5.6h-8.4C20.3,23.3,20,23.1,20,22.8z M17.9,3.3c-0.5,0-1,0.4-1,1c0,0.6,0.4,1,1,1h1.7
				c0.3,0,0.5,0.2,0.5,0.5v-2C20,3.3,20,3.3,19.4,3.3H17.9z"/>
		</g>
		<g>
			<path fill="#B0BEC5" d="M21.1,23.3c0,0.6,1.9,1.2,4.2,1.2c2.3,0,4.2-0.5,4.2-1.2c0-0.6-1.9-1.2-4.2-1.2
				C22.9,22.2,21.1,22.7,21.1,23.3z"/>
			<path fill="#37474F" d="M25.2,25c-0.5,0-4.7,0-4.7-1.7s4.2-1.7,4.7-1.7c0.5,0,4.7,0,4.7,1.7S25.7,25,25.2,25z M21.6,23.3
				c0.3,0.3,1.6,0.7,3.6,0.7c2,0,3.3-0.4,3.6-0.7c-0.3-0.3-1.6-0.7-3.6-0.7C23.3,22.7,21.9,23.1,21.6,23.3z"/>
		</g>
	</g>
</g>
</svg>
