<?xml version="1.0" encoding="utf-8"?>
<!-- Generator: Adobe Illustrator 16.0.0, SVG Export Plug-In . SVG Version: 6.00 Build 0)  -->
<!DOCTYPE svg PUBLIC "-//W3C//DTD SVG 1.1//EN" "http://www.w3.org/Graphics/SVG/1.1/DTD/svg11.dtd">
<svg version="1.1" id="Layer_1" xmlns="http://www.w3.org/2000/svg" xmlns:xlink="http://www.w3.org/1999/xlink" x="0px" y="0px"
	 width="128px" height="128px" viewBox="0 0 128 128" enable-background="new 0 0 128 128" xml:space="preserve">
<g>
	<g>
		<g>
			<path fill="#FFFFFF" d="M19,56V45.8c0-5.4,4.1-9.8,9.5-9.8h24.8c5.4,0,9.8,4.4,9.8,9.8V56"/>
			<path fill="#37474F" d="M63,58c-1.1,0-2-0.9-2-2V45.8c0-4.3-3.5-7.8-7.8-7.8H28.5c-4.2,0-7.5,3.4-7.5,7.8V56c0,1.1-0.9,2-2,2
				s-2-0.9-2-2V45.8C17,39.2,22,34,28.5,34h24.8C59.7,34,65,39.3,65,45.8V56C65,57.1,64.1,58,63,58z"/>
		</g>
		<g>
			<path fill="#FFFFFF" d="M65,56V45.8c0-5.4,3.9-9.8,9.3-9.8h24.8c5.4,0,9.9,4.4,9.9,9.8V56"/>
			<path fill="#37474F" d="M109,58c-1.1,0-2-0.9-2-2V45.8c0-4.3-3.5-7.8-7.9-7.8H74.3c-4.2,0-7.3,3.4-7.3,7.8V56c0,1.1-0.9,2-2,2
				s-2-0.9-2-2V45.8C63,39.2,68,34,74.3,34h24.8c6.6,0,11.9,5.3,11.9,11.8V56C111,57.1,110.1,58,109,58z"/>
		</g>
	</g>
	<g>
		<path fill="#FFECB3" d="M5,69v-1.8C5,61.3,10,57,16,57h95.6c5.9,0,10.4,4.3,10.4,10.2V69"/>
		<path fill="#37474F" d="M122,71c-1.1,0-2-0.9-2-2v-1.8c0-4.8-3.5-8.2-8.4-8.2H16c-5,0-9,3.6-9,8.2V69c0,1.1-0.9,2-2,2s-2-0.9-2-2
			v-1.8C3,60.4,8.7,55,16,55h95.6c7.1,0,12.4,5.3,12.4,12.2V69C124,70.1,123.1,71,122,71z"/>
	</g>
	<g>
		<path fill="#FFAB00" d="M10,29v-1.1c0-5.5,4.4-9.9,9.9-9.9h87.9c5.5,0,10.3,4.4,10.3,9.9V29"/>
		<path fill="#37474F" d="M118,31c-1.1,0-2-0.9-2-2v-1.1c0-4.3-3.8-7.9-8.3-7.9H19.9c-4.3,0-7.9,3.5-7.9,7.9V29c0,1.1-0.9,2-2,2
			s-2-0.9-2-2v-1.1C8,21.3,13.3,16,19.9,16h87.9c6.7,0,12.3,5.4,12.3,11.9V29C120,30.1,119.1,31,118,31z"/>
	</g>
	<g>
		<rect x="4" y="72" fill="#B0BEC5" width="119" height="24"/>
		<path fill="#37474F" d="M123,98H4c-1.1,0-2-0.9-2-2V72c0-1.1,0.9-2,2-2h119c1.1,0,2,0.9,2,2v24C125,97.1,124.1,98,123,98z M6,94
			h115V74H6V94z"/>
	</g>
	<g>
		<g>
			<g>
				<line fill="#FFECB3" x1="16" y1="99" x2="16" y2="92"/>
				<path fill="#37474F" d="M16,101c-1.1,0-2-0.9-2-2v-7c0-1.1,0.9-2,2-2s2,0.9,2,2v7C18,100.1,17.1,101,16,101z"/>
			</g>
			<g>
				<path fill="#78909C" d="M8.7,108.1c0-4,3.2-7.2,7.2-7.2c4,0,7.2,3.2,7.2,7.2"/>
				<path fill="#37474F" d="M23,110.1c-1.1,0-2-0.9-2-2c0-2.8-2.3-5.2-5.2-5.2c-2.8,0-5.2,2.3-5.2,5.2c0,1.1-0.9,2-2,2s-2-0.9-2-2
					c0-5.1,4.1-9.2,9.2-9.2c5.1,0,9.2,4.1,9.2,9.2C25,109.3,24.1,110.1,23,110.1z"/>
			</g>
			<g>
				<line fill="#FFECB3" x1="34" y1="110" x2="4" y2="110"/>
				<path fill="#37474F" d="M34,112H4c-1.1,0-2-0.9-2-2s0.9-2,2-2h30c1.1,0,2,0.9,2,2S35.1,112,34,112z"/>
			</g>
		</g>
		<g>
			<g>
				<line fill="#FFECB3" x1="112" y1="99" x2="112" y2="92"/>
				<path fill="#37474F" d="M112,101c-1.1,0-2-0.9-2-2v-7c0-1.1,0.9-2,2-2s2,0.9,2,2v7C114,100.1,113.1,101,112,101z"/>
			</g>
			<g>
				<path fill="#78909C" d="M119.4,108.1c0-4-3.2-7.2-7.2-7.2c-4,0-7.2,3.2-7.2,7.2"/>
				<path fill="#37474F" d="M119.4,110.1c-1.1,0-2-0.9-2-2c0-2.8-2.3-5.2-5.2-5.2c-2.8,0-5.2,2.3-5.2,5.2c0,1.1-0.9,2-2,2
					s-2-0.9-2-2c0-5.1,4.1-9.2,9.2-9.2c5.1,0,9.2,4.1,9.2,9.2C121.4,109.3,120.5,110.1,119.4,110.1z"/>
			</g>
			<g>
				<line fill="#FFECB3" x1="94" y1="110" x2="124" y2="110"/>
				<path fill="#37474F" d="M124,112H94c-1.1,0-2-0.9-2-2s0.9-2,2-2h30c1.1,0,2,0.9,2,2S125.1,112,124,112z"/>
			</g>
		</g>
	</g>
	<g>
		<g>
			<g>
				<path fill="#37474F" d="M9,60c-1.1,0-2-0.9-2-2V36c0-1.1,0.9-2,2-2s2,0.9,2,2v22C11,59.1,10.1,60,9,60z"/>
			</g>
			<g>
				<path fill="#37474F" d="M14,36H5c-1.1,0-2-0.9-2-2s0.9-2,2-2h9c1.1,0,2,0.9,2,2S15.1,36,14,36z"/>
			</g>
		</g>
		<g>
			<g>
				<path fill="#37474F" d="M118,60c-1.1,0-2-0.9-2-2V36c0-1.1,0.9-2,2-2s2,0.9,2,2v22C120,59.1,119.1,60,118,60z"/>
			</g>
			<g>
				<path fill="#37474F" d="M122,36h-8c-1.1,0-2-0.9-2-2s0.9-2,2-2h8c1.1,0,2,0.9,2,2S123.1,36,122,36z"/>
			</g>
		</g>
	</g>
</g>
</svg>
