<?xml version="1.0" encoding="utf-8"?>
<!-- Generator: Adobe Illustrator 16.0.0, SVG Export Plug-In . SVG Version: 6.00 Build 0)  -->
<!DOCTYPE svg PUBLIC "-//W3C//DTD SVG 1.1//EN" "http://www.w3.org/Graphics/SVG/1.1/DTD/svg11.dtd">
<svg version="1.1" id="Layer_1" xmlns="http://www.w3.org/2000/svg" xmlns:xlink="http://www.w3.org/1999/xlink" x="0px" y="0px"
	 width="64px" height="64px" viewBox="0 0 64 64" enable-background="new 0 0 64 64" xml:space="preserve">
<g>
	<g>
		<rect x="16.8" y="8.5" fill="#FFECB3" width="30" height="39"/>
		<path fill="#37474F" d="M46.8,48.5h-30c-0.6,0-1-0.4-1-1v-39c0-0.6,0.4-1,1-1h30c0.6,0,1,0.4,1,1v39
			C47.8,48.1,47.3,48.5,46.8,48.5z M17.8,46.5h28v-37h-28V46.5z"/>
	</g>
	<g>
		<rect x="16.8" y="17.5" fill="#FFAB00" width="13" height="6"/>
		<path fill="#37474F" d="M29.8,24.5h-13c-0.6,0-1-0.4-1-1v-6c0-0.6,0.4-1,1-1h13c0.6,0,1,0.4,1,1v6C30.8,24.1,30.3,24.5,29.8,24.5z
			 M17.8,22.5h11v-4h-11V22.5z"/>
	</g>
	<g>
		<rect x="16.8" y="29.5" fill="#FFAB00" width="13" height="6"/>
		<path fill="#37474F" d="M29.8,36.5h-13c-0.6,0-1-0.4-1-1v-6c0-0.6,0.4-1,1-1h13c0.6,0,1,0.4,1,1v6C30.8,36.1,30.3,36.5,29.8,36.5z
			 M17.8,34.5h11v-4h-11V34.5z"/>
	</g>
	<g>
		<rect x="42.8" y="29.5" fill="#FFAB00" width="4" height="6"/>
		<path fill="#37474F" d="M46.8,36.5h-4c-0.6,0-1-0.4-1-1v-6c0-0.6,0.4-1,1-1h4c0.6,0,1,0.4,1,1v6C47.8,36.1,47.3,36.5,46.8,36.5z
			 M43.8,34.5h2v-4h-2V34.5z"/>
	</g>
	<g>
		<rect x="29.8" y="17.5" fill="#FFECB3" width="13" height="6"/>
		<path fill="#37474F" d="M42.8,24.5h-13c-0.6,0-1-0.4-1-1v-6c0-0.6,0.4-1,1-1h13c0.6,0,1,0.4,1,1v6C43.8,24.1,43.3,24.5,42.8,24.5z
			 M30.8,22.5h11v-4h-11V22.5z"/>
	</g>
	<g>
		<rect x="42.8" y="17.5" fill="#FFAB00" width="4" height="6"/>
		<path fill="#37474F" d="M46.8,24.5h-4c-0.6,0-1-0.4-1-1v-6c0-0.6,0.4-1,1-1h4c0.6,0,1,0.4,1,1v6C47.8,24.1,47.3,24.5,46.8,24.5z
			 M43.8,22.5h2v-4h-2V22.5z"/>
	</g>
	<g>
		<g>
			<rect x="24.8" y="10.5" fill="#FFAB00" width="13" height="6"/>
			<path fill="#37474F" d="M37.8,17.5h-13c-0.6,0-1-0.4-1-1v-6c0-0.6,0.4-1,1-1h13c0.6,0,1,0.4,1,1v6C38.8,17.1,38.3,17.5,37.8,17.5
				z M25.8,15.5h11v-4h-11V15.5z"/>
		</g>
		<g>
			<rect x="24.8" y="23.5" fill="#FFECB3" width="13" height="6"/>
			<path fill="#37474F" d="M37.8,30.5h-13c-0.6,0-1-0.4-1-1v-6c0-0.6,0.4-1,1-1h13c0.6,0,1,0.4,1,1v6C38.8,30.1,38.3,30.5,37.8,30.5
				z M25.8,28.5h11v-4h-11V28.5z"/>
		</g>
		<g>
			<rect x="37.8" y="23.5" fill="#FFAB00" width="9" height="6"/>
			<path fill="#37474F" d="M46.8,30.5h-9c-0.6,0-1-0.4-1-1v-6c0-0.6,0.4-1,1-1h9c0.6,0,1,0.4,1,1v6C47.8,30.1,47.3,30.5,46.8,30.5z
				 M38.8,28.5h7v-4h-7V28.5z"/>
		</g>
		<g>
			<rect x="17.8" y="23.5" fill="#FFAB00" width="8" height="6"/>
			<path fill="#37474F" d="M25.8,30.5h-8c-0.6,0-1-0.4-1-1v-6c0-0.6,0.4-1,1-1h8c0.6,0,1,0.4,1,1v6C26.8,30.1,26.3,30.5,25.8,30.5z
				 M18.8,28.5h6v-4h-6V28.5z"/>
		</g>
	</g>
	<g>
		<rect x="10.8" y="1.5" fill="#FFFFFF" width="42" height="9"/>
		<path fill="#37474F" d="M52.8,11.5h-42c-0.6,0-1-0.4-1-1v-9c0-0.6,0.4-1,1-1h42c0.6,0,1,0.4,1,1v9C53.8,11.1,53.3,11.5,52.8,11.5z
			 M11.8,9.5h40v-7h-40V9.5z"/>
	</g>
	<g>
		<path fill="#B0BEC5" d="M58.2,62.5c0.2-1,0.4-2.4,0.4-3.7c0-14.7-11.9-26.6-26.6-26.6c-14.7,0-26.6,11.8-26.6,26.5
			c0,1.3,0.2,2.7,0.4,3.7H58.2z"/>
		<path fill="#37474F" d="M58.2,63.5H5.8c-0.5,0-0.9-0.3-1-0.8c-0.3-1.5-0.4-2.8-0.4-3.9c0-15.2,12.4-27.5,27.6-27.5
			s27.6,12.4,27.6,27.6c0,1.1-0.1,2.4-0.4,3.9C59.1,63.2,58.7,63.5,58.2,63.5z M6.6,61.5h50.8c0.2-1,0.2-1.9,0.2-2.7
			c0-14.1-11.5-25.6-25.6-25.6S6.4,44.7,6.4,58.8C6.4,59.6,6.4,60.5,6.6,61.5z"/>
	</g>
	<g>
		<path fill="#37474F" d="M44.2,62.5c0.1,0,0.2-1,0.2-1.6c0-6.8-5.5-12.3-12.4-12.3S19.6,54,19.6,60.8c0,0.6,0.1,1.7,0.2,1.7H44.2z"
			/>
		<path fill="#37474F" d="M44.2,63.5H19.8c-1.1,0-1.2-1.2-1.2-2.7c0-7.3,6-13.3,13.4-13.3s13.4,6,13.4,13.3
			C45.4,62.3,45.3,63.5,44.2,63.5z M20.7,61.5h22.7c0-0.2,0-0.5,0-0.6c0-6.2-5.1-11.3-11.4-11.3s-11.4,5.1-11.4,11.3
			C20.6,61,20.6,61.3,20.7,61.5z"/>
	</g>
	<g>
		<path fill="#37474F" d="M50.5,63.5h-37c-0.5,0-0.9-0.4-1-0.9c0-0.3-0.1-0.5-0.1-0.7c-0.1-0.6-0.2-1.3-0.2-2
			c0-10.9,8.9-19.7,19.8-19.7c10.9,0,19.8,8.8,19.8,19.7c0,0.7-0.1,1.3-0.2,1.9c0,0.2-0.1,0.5-0.1,0.8C51.4,63.1,51,63.5,50.5,63.5z
			 M14.4,61.5h35.3c0.1-0.6,0.1-1,0.1-1.6c0-9.8-8-17.7-17.8-17.7c-9.8,0-17.8,7.9-17.8,17.7C14.2,60.5,14.3,60.9,14.4,61.5z"/>
	</g>
	<g>
		<g>
			<path fill="#37474F" d="M13.8,10.5c-0.6,0-1-0.4-1-1v-7c0-0.6,0.4-1,1-1s1,0.4,1,1v7C14.8,10.1,14.3,10.5,13.8,10.5z"/>
		</g>
		<g>
			<path fill="#37474F" d="M17.8,10.5c-0.6,0-1-0.4-1-1v-7c0-0.6,0.4-1,1-1s1,0.4,1,1v7C18.8,10.1,18.3,10.5,17.8,10.5z"/>
		</g>
		<g>
			<path fill="#37474F" d="M21.8,10.5c-0.6,0-1-0.4-1-1v-7c0-0.6,0.4-1,1-1s1,0.4,1,1v7C22.8,10.1,22.3,10.5,21.8,10.5z"/>
		</g>
		<g>
			<path fill="#37474F" d="M25.8,10.5c-0.6,0-1-0.4-1-1v-7c0-0.6,0.4-1,1-1s1,0.4,1,1v7C26.8,10.1,26.3,10.5,25.8,10.5z"/>
		</g>
		<g>
			<path fill="#37474F" d="M29.8,10.5c-0.6,0-1-0.4-1-1v-7c0-0.6,0.4-1,1-1s1,0.4,1,1v7C30.8,10.1,30.3,10.5,29.8,10.5z"/>
		</g>
		<g>
			<path fill="#37474F" d="M33.8,10.5c-0.6,0-1-0.4-1-1v-7c0-0.6,0.4-1,1-1s1,0.4,1,1v7C34.8,10.1,34.3,10.5,33.8,10.5z"/>
		</g>
		<g>
			<path fill="#37474F" d="M37.8,10.5c-0.6,0-1-0.4-1-1v-7c0-0.6,0.4-1,1-1s1,0.4,1,1v7C38.8,10.1,38.3,10.5,37.8,10.5z"/>
		</g>
		<g>
			<path fill="#37474F" d="M41.8,10.5c-0.6,0-1-0.4-1-1v-7c0-0.6,0.4-1,1-1s1,0.4,1,1v7C42.8,10.1,42.3,10.5,41.8,10.5z"/>
		</g>
		<g>
			<path fill="#37474F" d="M45.8,10.5c-0.6,0-1-0.4-1-1v-7c0-0.6,0.4-1,1-1s1,0.4,1,1v7C46.8,10.1,46.3,10.5,45.8,10.5z"/>
		</g>
		<g>
			<path fill="#37474F" d="M49.8,10.5c-0.6,0-1-0.4-1-1v-7c0-0.6,0.4-1,1-1s1,0.4,1,1v7C50.8,10.1,50.3,10.5,49.8,10.5z"/>
		</g>
	</g>
	<g>
		<path fill="#FFAB00" d="M39.8,59.6c0.6,1.1-1.4,1.2-1.4,1.2s-1.1-0.8,0.2-2.5c1.3-1.7-2.4-4.3-2.4-4.3s-1.7-1.2-0.5,0.1
			c1.2,1.3-0.6,3.1-0.6,3.1c0.7-1.6-3.3-5.3-3.3-5.3s-3.8,3.7-3.1,5.3c0,0-1.7-1.8-0.5-3.1c1.2-1.3-0.4-0.1-0.4-0.1
			s-3.7,2.6-2.4,4.3s0.2,2.5,0.2,2.5s-2-0.1-1.4-1.2c0,0-1.8,2.5,2.2,2.4c3.9-0.1,5.5,0,5.5,0l-0.1-1l0.1,1c0,0,1.7-0.1,5.7,0
			C41.5,62.1,39.8,59.6,39.8,59.6z"/>
	</g>
	<g>
		<g>
			<g>
				<path fill="#37474F" d="M37.2,45.4c0-0.5,0.4-0.9,0.9-0.9c0.5,0,0.9,0.4,0.9,0.9c0,0.5-0.4,0.9-0.9,0.9
					C37.6,46.3,37.2,45.9,37.2,45.4z"/>
				<path fill="#37474F" d="M38.1,46.7c-0.7,0-1.3-0.6-1.3-1.4c0-0.8,0.6-1.4,1.4-1.4c0.4,0,0.7,0.1,1,0.4c0.3,0.3,0.4,0.6,0.4,1
					C39.5,46.1,38.9,46.7,38.1,46.7L38.1,46.7z M38.1,45c-0.2,0-0.4,0.2-0.4,0.4c0,0.2,0.2,0.4,0.3,0.4v0.5l0-0.5
					c0.2,0,0.4-0.2,0.4-0.4c0-0.1-0.1-0.2-0.1-0.3C38.3,45,38.2,45,38.1,45z"/>
			</g>
			<g>
				<path fill="#37474F" d="M31.1,45.4c0-0.5,0.4-0.9,0.9-0.9c0.5,0,0.9,0.4,0.9,0.9c0,0.5-0.4,0.9-0.9,0.9
					C31.5,46.2,31.1,45.9,31.1,45.4z"/>
				<path fill="#37474F" d="M32,46.8L32,46.8c-0.8,0-1.4-0.6-1.4-1.4c0-0.4,0.1-0.7,0.4-1c0.3-0.3,0.6-0.4,1-0.4
					c0.7,0,1.4,0.6,1.4,1.4C33.4,46.1,32.7,46.8,32,46.8z M32,45c-0.1,0-0.2,0-0.3,0.1c0,0-0.1,0.1-0.1,0.3c0,0.2,0.2,0.4,0.4,0.4
					c0.2,0,0.4-0.2,0.4-0.4C32.4,45.2,32.2,45,32,45z"/>
			</g>
			<g>
				<path fill="#37474F" d="M25,45.4c0-0.5,0.4-0.9,0.9-0.9c0.5,0,0.9,0.4,0.9,0.9c0,0.5-0.4,0.9-0.9,0.9C25.4,46.3,25,45.9,25,45.4
					z"/>
				<path fill="#37474F" d="M25.9,46.7L25.9,46.7C25.9,46.7,25.9,46.7,25.9,46.7c-0.8,0-1.4-0.6-1.4-1.4c0-0.8,0.6-1.4,1.4-1.4
					c0.8,0,1.4,0.6,1.4,1.4C27.3,46.1,26.7,46.7,25.9,46.7z M25.9,45c-0.2,0-0.4,0.2-0.4,0.4c0,0.2,0.2,0.4,0.4,0.4l0,0.5v-0.5
					c0.2,0,0.4-0.2,0.4-0.4C26.3,45.2,26.1,45,25.9,45z"/>
			</g>
		</g>
		<g>
			<g>
				<path fill="#37474F" d="M37.2,38.1c0-0.5,0.4-0.9,0.9-0.9c0.5,0,0.9,0.4,0.9,0.9c0,0.5-0.4,0.9-0.9,0.9
					C37.6,39,37.2,38.6,37.2,38.1z"/>
				<path fill="#37474F" d="M38.1,39.4c-0.7,0-1.3-0.6-1.3-1.4c0-0.8,0.6-1.4,1.4-1.4c0.4,0,0.7,0.1,1,0.4c0.3,0.3,0.4,0.6,0.4,1
					C39.5,38.8,38.9,39.4,38.1,39.4L38.1,39.4z M38.1,37.7c-0.2,0-0.4,0.2-0.4,0.4c0,0.2,0.2,0.4,0.3,0.4v0.5l0-0.5
					c0.2,0,0.4-0.2,0.4-0.4c0-0.1,0-0.2-0.1-0.3C38.3,37.8,38.2,37.7,38.1,37.7z"/>
			</g>
			<g>
				<path fill="#37474F" d="M31.1,38.1c0-0.5,0.4-0.9,0.9-0.9c0.5,0,0.9,0.4,0.9,0.9c0,0.5-0.4,0.9-0.9,0.9
					C31.5,38.9,31.1,38.6,31.1,38.1z"/>
				<path fill="#37474F" d="M32,39.5L32,39.5c-0.8,0-1.4-0.6-1.4-1.4c0-0.4,0.1-0.7,0.4-1c0.3-0.3,0.6-0.4,1-0.4
					c0.7,0,1.4,0.6,1.4,1.4C33.4,38.8,32.7,39.5,32,39.5z M32,37.7c-0.1,0-0.2,0-0.3,0.1c-0.1,0.1-0.1,0.2-0.1,0.3
					c0,0.2,0.2,0.4,0.4,0.4c0.2,0,0.4-0.2,0.4-0.4C32.4,37.9,32.2,37.7,32,37.7z"/>
			</g>
			<g>
				<path fill="#37474F" d="M25,38.1c0-0.5,0.4-0.9,0.9-0.9c0.5,0,0.9,0.4,0.9,0.9c0,0.5-0.4,0.9-0.9,0.9C25.4,39,25,38.6,25,38.1z"
					/>
				<path fill="#37474F" d="M25.9,39.4L25.9,39.4L25.9,39.4c-0.8,0-1.4-0.6-1.4-1.4c0-0.8,0.6-1.4,1.4-1.4c0.8,0,1.4,0.6,1.4,1.4
					C27.3,38.8,26.7,39.4,25.9,39.4L25.9,39.4z M25.9,37.7c-0.2,0-0.4,0.2-0.4,0.4c0,0.2,0.2,0.4,0.3,0.4l0.1,0.5v-0.5
					c0.2,0,0.3-0.2,0.3-0.4C26.3,37.9,26.1,37.7,25.9,37.7z"/>
			</g>
		</g>
	</g>
</g>
</svg>
