<?xml version="1.0" encoding="utf-8"?>
<!-- Generator: Adobe Illustrator 16.0.0, SVG Export Plug-In . SVG Version: 6.00 Build 0)  -->
<!DOCTYPE svg PUBLIC "-//W3C//DTD SVG 1.1//EN" "http://www.w3.org/Graphics/SVG/1.1/DTD/svg11.dtd">
<svg version="1.1" id="Layer_1" xmlns="http://www.w3.org/2000/svg" xmlns:xlink="http://www.w3.org/1999/xlink" x="0px" y="0px"
	 width="64px" height="64px" viewBox="0 0 64 64" enable-background="new 0 0 64 64" xml:space="preserve">
<g>
	<g>
		<g>
			<g>
				<path fill="#FFAB00" d="M25,58.5c0,1.4-1.1,2.5-2.5,2.5l0,0c-1.4,0-2.5-1.1-2.5-2.5l0,0c0-1.4,1.1-2.5,2.5-2.5l0,0
					C23.9,56,25,57.1,25,58.5L25,58.5z"/>
				<path fill="#37474F" d="M22.5,62c-1.9,0-3.5-1.6-3.5-3.5s1.6-3.5,3.5-3.5s3.5,1.6,3.5,3.5S24.4,62,22.5,62z M22.5,57
					c-0.8,0-1.5,0.7-1.5,1.5s0.7,1.5,1.5,1.5s1.5-0.7,1.5-1.5S23.3,57,22.5,57z"/>
			</g>
			<g>
				<path fill="#FFAB00" d="M44,58.5c0,1.4-1.1,2.5-2.5,2.5l0,0c-1.4,0-2.5-1.1-2.5-2.5l0,0c0-1.4,1.1-2.5,2.5-2.5l0,0
					C42.9,56,44,57.1,44,58.5L44,58.5z"/>
				<path fill="#37474F" d="M41.5,62c-1.9,0-3.5-1.6-3.5-3.5s1.6-3.5,3.5-3.5s3.5,1.6,3.5,3.5S43.4,62,41.5,62z M41.5,57
					c-0.8,0-1.5,0.7-1.5,1.5s0.7,1.5,1.5,1.5s1.5-0.7,1.5-1.5S42.3,57,41.5,57z"/>
			</g>
		</g>
		<g>
			<g>
				<path fill="#FFFFFF" d="M51,52.8c0,3.2-2.8,6.2-6,6.2H18.8c-3.2,0-5.8-2.9-5.8-6.2V8.7C13,5.5,15.6,3,18.8,3H45
					c3.2,0,6,2.5,6,5.7V52.8z"/>
				<path fill="#37474F" d="M45,60H18.8c-3.7,0-6.8-3.3-6.8-7.2V8.7C12,5,15.1,2,18.8,2H45c3.8,0,7,3.1,7,6.7v44.1
					C52,56.7,48.7,60,45,60z M18.8,4C16.2,4,14,6.1,14,8.7v44.1c0,2.7,2.2,5.2,4.8,5.2H45c2.6,0,5-2.5,5-5.2V8.7C50,6.2,47.7,4,45,4
					H18.8z"/>
			</g>
			<g>
				<path fill="#FFAB00" d="M47,35.7c0,1.1-0.9,1.9-2,1.9l0,0c-1.1,0-2-0.8-2-1.9v-12c0-1.1,0.9-1.9,2-1.9l0,0c1.1,0,2,0.9,2,1.9
					V35.7z"/>
				<path fill="#37474F" d="M45,38.6c-1.7,0-3-1.3-3-2.9v-12c0-1.6,1.4-2.9,3-2.9s3,1.3,3,2.9v12C48,37.3,46.7,38.6,45,38.6z
					 M45,22.8c-0.5,0-1,0.4-1,0.9v12c0,0.5,0.5,0.9,1,0.9s1-0.4,1-0.9v-12C46,23.3,45.5,22.8,45,22.8z"/>
			</g>
			<g>
				<path fill="#B0BEC5" d="M13,48v4.8c0,3.2,2.6,6.2,5.8,6.2H45c3.2,0,6-2.9,6-6.2V48H13z"/>
				<path fill="#37474F" d="M45,60H18.8c-3.7,0-6.8-3.3-6.8-7.2V48c0-0.6,0.4-1,1-1h38c0.6,0,1,0.4,1,1v4.8C52,56.7,48.7,60,45,60z
					 M14,49v3.8c0,2.7,2.2,5.2,4.8,5.2H45c2.6,0,5-2.5,5-5.2V49H14z"/>
			</g>
		</g>
		<g>
			<g>
				<path fill="#37474F" d="M27.2,30.8c0-0.3,0.3-0.6,0.6-0.6c0.3,0,0.6,0.3,0.6,0.6c0,0.3-0.3,0.6-0.6,0.6
					C27.5,31.4,27.2,31.1,27.2,30.8z"/>
				<path fill="#37474F" d="M27.8,31.9c-0.6,0-1.1-0.5-1.1-1.1c0-0.6,0.5-1.1,1.1-1.1c0.3,0,0.6,0.1,0.8,0.3
					c0.2,0.2,0.3,0.5,0.3,0.8C28.9,31.4,28.4,31.9,27.8,31.9z"/>
			</g>
			<g>
				<path fill="#37474F" d="M22.9,30.8c0-0.3,0.3-0.6,0.6-0.6c0.3,0,0.6,0.3,0.6,0.6c0,0.3-0.3,0.6-0.6,0.6
					C23.2,31.4,22.9,31.1,22.9,30.8z"/>
				<path fill="#37474F" d="M23.5,31.9c-0.6,0-1.1-0.5-1.1-1.1c0-0.3,0.1-0.6,0.3-0.8c0.2-0.2,0.5-0.3,0.8-0.3
					c0.6,0,1.1,0.5,1.1,1.1C24.6,31.4,24.1,31.9,23.5,31.9z"/>
			</g>
			<g>
				<path fill="#37474F" d="M18.6,30.8c0-0.3,0.3-0.6,0.6-0.6c0.3,0,0.6,0.3,0.6,0.6c0,0.3-0.3,0.6-0.6,0.6
					C18.8,31.4,18.6,31.1,18.6,30.8z"/>
				<path fill="#37474F" d="M19.2,31.9c-0.6,0-1.1-0.5-1.1-1.1c0-0.6,0.5-1.1,1.1-1.1c0.6,0,1.1,0.5,1.1,1.1
					C20.3,31.4,19.8,31.9,19.2,31.9z"/>
			</g>
		</g>
		<g>
			<g>
				<path fill="#37474F" d="M40.2,30.8c0-0.3,0.3-0.6,0.6-0.6c0.3,0,0.6,0.3,0.6,0.6c0,0.3-0.3,0.6-0.6,0.6
					C40.5,31.4,40.2,31.1,40.2,30.8z"/>
				<path fill="#37474F" d="M40.8,31.9c-0.6,0-1.1-0.5-1.1-1.1c0-0.6,0.5-1.1,1.1-1.1c0.3,0,0.6,0.1,0.8,0.3
					c0.2,0.2,0.3,0.5,0.3,0.8C42,31.4,41.5,31.9,40.8,31.9z"/>
			</g>
			<g>
				<path fill="#37474F" d="M35.9,30.8c0-0.3,0.3-0.6,0.6-0.6c0.3,0,0.6,0.3,0.6,0.6c0,0.3-0.3,0.6-0.6,0.6
					C36.2,31.4,35.9,31.1,35.9,30.8z"/>
				<path fill="#37474F" d="M36.5,31.9c-0.6,0-1.1-0.5-1.1-1.1c0-0.3,0.1-0.6,0.3-0.8c0.2-0.2,0.5-0.3,0.8-0.3
					c0.6,0,1.1,0.5,1.1,1.1C37.6,31.4,37.1,31.9,36.5,31.9z"/>
			</g>
			<g>
				<path fill="#37474F" d="M31.6,30.8c0-0.3,0.3-0.6,0.6-0.6c0.3,0,0.6,0.3,0.6,0.6c0,0.3-0.3,0.6-0.6,0.6
					C31.9,31.4,31.6,31.1,31.6,30.8z"/>
				<path fill="#37474F" d="M32.2,31.9c-0.6,0-1.1-0.5-1.1-1.1c0-0.6,0.5-1.1,1.1-1.1c0.6,0,1.1,0.5,1.1,1.1
					C33.3,31.4,32.8,31.9,32.2,31.9z"/>
			</g>
		</g>
		<g>
			<g>
				<line fill="#FFAB00" x1="18" y1="55" x2="18" y2="50"/>
				<path fill="#37474F" d="M18,56c-0.6,0-1-0.4-1-1v-5c0-0.6,0.4-1,1-1s1,0.4,1,1v5C19,55.6,18.6,56,18,56z"/>
			</g>
			<g>
				<line fill="#FFAB00" x1="22" y1="55" x2="22" y2="50"/>
				<path fill="#37474F" d="M22,56c-0.6,0-1-0.4-1-1v-5c0-0.6,0.4-1,1-1s1,0.4,1,1v5C23,55.6,22.6,56,22,56z"/>
			</g>
			<g>
				<line fill="#FFAB00" x1="26" y1="55" x2="26" y2="50"/>
				<path fill="#37474F" d="M26,56c-0.6,0-1-0.4-1-1v-5c0-0.6,0.4-1,1-1s1,0.4,1,1v5C27,55.6,26.6,56,26,56z"/>
			</g>
		</g>
	</g>
	<g>
		<path fill="#78909C" d="M26.7,11.5c0,2.2-1.8,4-4,4c-2.2,0-4-1.8-4-4s1.8-4,4-4C24.9,7.6,26.7,9.3,26.7,11.5z"/>
		<path fill="#37474F" d="M22.7,16.5c-2.7,0-5-2.2-5-5c0-2.7,2.2-5,5-5c2.7,0,5,2.2,5,5C27.7,14.3,25.4,16.5,22.7,16.5z M22.7,8.6
			c-1.6,0-3,1.3-3,3c0,1.6,1.3,3,3,3c1.6,0,3-1.3,3-3C25.7,9.9,24.3,8.6,22.7,8.6z"/>
	</g>
</g>
</svg>
