<?xml version="1.0" encoding="utf-8"?>
<!-- Generator: Adobe Illustrator 16.0.0, SVG Export Plug-In . SVG Version: 6.00 Build 0)  -->
<!DOCTYPE svg PUBLIC "-//W3C//DTD SVG 1.1//EN" "http://www.w3.org/Graphics/SVG/1.1/DTD/svg11.dtd">
<svg version="1.1" id="Layer_1" xmlns="http://www.w3.org/2000/svg" xmlns:xlink="http://www.w3.org/1999/xlink" x="0px" y="0px"
	 width="64px" height="64px" viewBox="0 0 64 64" enable-background="new 0 0 64 64" xml:space="preserve">
<g>
	<g>
		<g>
			<rect x="9.8" y="50.9" fill="#B0BEC5" width="4.8" height="3.9"/>
			<path fill="#37474F" d="M14.6,55.7H9.8c-0.6,0-1-0.4-1-1v-3.9c0-0.6,0.4-1,1-1h4.8c0.6,0,1,0.4,1,1v3.9
				C15.6,55.3,15.1,55.7,14.6,55.7z M10.8,53.7h2.8v-1.9h-2.8V53.7z"/>
		</g>
		<g>
			<rect x="49.4" y="50.9" fill="#B0BEC5" width="3.9" height="3.9"/>
			<path fill="#37474F" d="M53.3,55.7h-3.9c-0.6,0-1-0.4-1-1v-3.9c0-0.6,0.4-1,1-1h3.9c0.6,0,1,0.4,1,1v3.9
				C54.3,55.3,53.8,55.7,53.3,55.7z M50.4,53.7h1.9v-1.9h-1.9V53.7z"/>
		</g>
	</g>
	<g>
		<path fill="#FFFFFF" d="M62,45.6c0,3.5-3.3,6.2-6.8,6.2H8.4c-3.5,0-6.4-2.7-6.4-6.2V15.9c0-3.5,2.8-6.6,6.4-6.6h46.8
			c3.5,0,6.8,3.1,6.8,6.6V45.6z"/>
		<path fill="#37474F" d="M55.2,52.8H8.4c-4.1,0-7.4-3.2-7.4-7.2V15.9c0-4.1,3.4-7.6,7.4-7.6h46.8c4.2,0,7.8,3.6,7.8,7.6v29.8
			C63,49.5,59.4,52.8,55.2,52.8z M8.4,10.3c-2.9,0-5.4,2.6-5.4,5.6v29.8c0,2.9,2.4,5.2,5.4,5.2h46.8c2.8,0,5.8-2.1,5.8-5.2V15.9
			c0-2.9-2.8-5.6-5.8-5.6H8.4z"/>
	</g>
	<g>
		<g>
			<g>
				<g>
					<line fill="#FFAB00" x1="46.5" y1="40.2" x2="50.4" y2="40.2"/>
					<path fill="#37474F" d="M50.4,41.2h-3.9c-0.6,0-1-0.4-1-1s0.4-1,1-1h3.9c0.6,0,1,0.4,1,1S50.9,41.2,50.4,41.2z"/>
				</g>
				<g>
					<line fill="#FFAB00" x1="46.5" y1="43.1" x2="50.4" y2="43.1"/>
					<path fill="#37474F" d="M50.4,44.1h-3.9c-0.6,0-1-0.4-1-1s0.4-1,1-1h3.9c0.6,0,1,0.4,1,1S50.9,44.1,50.4,44.1z"/>
				</g>
				<g>
					<line fill="#FFAB00" x1="46.5" y1="46" x2="50.4" y2="46"/>
					<path fill="#37474F" d="M50.4,47h-3.9c-0.6,0-1-0.4-1-1s0.4-1,1-1h3.9c0.6,0,1,0.4,1,1S50.9,47,50.4,47z"/>
				</g>
			</g>
			<g>
				<g>
					<line fill="#FFAB00" x1="54.2" y1="40.2" x2="58.1" y2="40.2"/>
					<path fill="#37474F" d="M58.1,41.2h-3.9c-0.6,0-1-0.4-1-1s0.4-1,1-1h3.9c0.6,0,1,0.4,1,1S58.7,41.2,58.1,41.2z"/>
				</g>
				<g>
					<line fill="#FFAB00" x1="54.2" y1="43.1" x2="58.1" y2="43.1"/>
					<path fill="#37474F" d="M58.1,44.1h-3.9c-0.6,0-1-0.4-1-1s0.4-1,1-1h3.9c0.6,0,1,0.4,1,1S58.7,44.1,58.1,44.1z"/>
				</g>
				<g>
					<line fill="#FFAB00" x1="54.2" y1="46" x2="58.1" y2="46"/>
					<path fill="#37474F" d="M58.1,47h-3.9c-0.6,0-1-0.4-1-1s0.4-1,1-1h3.9c0.6,0,1,0.4,1,1S58.7,47,58.1,47z"/>
				</g>
			</g>
		</g>
		<g>
			<rect x="46.5" y="31.5" fill="#FFAB00" width="11.6" height="2.9"/>
			<path fill="#37474F" d="M58.1,35.4H46.5c-0.6,0-1-0.4-1-1v-2.9c0-0.6,0.4-1,1-1h11.6c0.6,0,1,0.4,1,1v2.9
				C59.1,35,58.7,35.4,58.1,35.4z M47.5,33.4h9.6v-0.9h-9.6V33.4z"/>
		</g>
	</g>
	<g>
		<g>
			<path fill="#FFAB00" d="M62,17v-1.1c0-3.5-3.3-6.6-6.8-6.6H8.4C4.9,9.3,2,12.4,2,15.9V17H62z"/>
			<path fill="#37474F" d="M62,18H2c-0.6,0-1-0.4-1-1v-1.1c0-4.1,3.4-7.6,7.4-7.6h46.8c4.2,0,7.8,3.6,7.8,7.6V17
				C63,17.6,62.5,18,62,18z M3,16h58v-0.1c0-2.9-2.8-5.6-5.8-5.6H8.4c-2.9,0-5.4,2.6-5.4,5.6V16z"/>
		</g>
	</g>
	<g>
		<g>
			<path fill="#37474F" d="M42.6,41.7c0,2.6-1.5,4.4-3.6,4.4H10.2c-2.2,0-4.3-1.8-4.3-4.4V19.9c0-2.6,2.1-4.8,4.3-4.8H39
				c2.2,0,3.6,2.2,3.6,4.8V41.7z"/>
			<path fill="#37474F" d="M39,47H10.2c-2.5,0-5.3-2-5.3-5.4V19.9c0-3.1,2.5-5.8,5.3-5.8H39c2.6,0,4.6,2.5,4.6,5.8v21.8
				C43.6,44.8,41.7,47,39,47z M10.2,16.1c-1.5,0-3.3,1.7-3.3,3.8v21.8c0,2.1,1.7,3.4,3.3,3.4H39c1.6,0,2.6-1.3,2.6-3.4V19.9
				c0-1.8-0.9-3.8-2.6-3.8H10.2z"/>
		</g>
		<g>
			<g>
				<g>
					<path fill="#FFFFFF" d="M29.9,25.5c0-0.5,0.4-0.9,0.9-0.9c0.5,0,0.9,0.4,0.9,0.9c0,0.5-0.4,0.9-0.9,0.9
						C30.3,26.4,29.9,26,29.9,25.5z"/>
					<path fill="#FFFFFF" d="M30.8,26.9c-0.8,0-1.4-0.6-1.4-1.4c0-0.8,0.6-1.4,1.4-1.4c0.4,0,0.7,0.2,1,0.4c0.3,0.3,0.4,0.6,0.4,1
						C32.2,26.3,31.6,26.9,30.8,26.9z M30.8,25.1c-0.2,0-0.4,0.2-0.4,0.4c0,0.2,0.2,0.4,0.4,0.4c0.2,0,0.4-0.2,0.4-0.4
						c0-0.1-0.1-0.2-0.1-0.3C31,25.2,30.9,25.1,30.8,25.1z"/>
				</g>
				<g>
					<path fill="#FFFFFF" d="M23.7,25.5c0-0.5,0.4-0.9,0.9-0.9c0.5,0,0.9,0.4,0.9,0.9c0,0.5-0.4,0.9-0.9,0.9
						C24.1,26.4,23.7,26,23.7,25.5z"/>
					<path fill="#FFFFFF" d="M24.6,26.9c-0.8,0-1.4-0.6-1.4-1.4c0-0.4,0.1-0.7,0.4-1c0.3-0.3,0.6-0.4,1-0.4c0.8,0,1.4,0.6,1.4,1.4
						C26,26.3,25.3,26.9,24.6,26.9z M24.6,25.1c-0.1,0-0.2,0-0.3,0.1c0,0-0.1,0.1-0.1,0.3c0,0.2,0.2,0.4,0.4,0.4
						c0.2,0,0.4-0.2,0.4-0.4C25,25.3,24.8,25.1,24.6,25.1z"/>
				</g>
				<g>
					<path fill="#FFFFFF" d="M17.5,25.5c0-0.5,0.4-0.9,0.9-0.9c0.5,0,0.9,0.4,0.9,0.9c0,0.5-0.4,0.9-0.9,0.9
						C17.9,26.4,17.5,26,17.5,25.5z"/>
					<path fill="#FFFFFF" d="M18.4,26.9c-0.8,0-1.4-0.6-1.4-1.4c0-0.8,0.6-1.4,1.4-1.4c0.8,0,1.4,0.6,1.4,1.4
						C19.8,26.3,19.2,26.9,18.4,26.9z M18.4,25.1c-0.2,0-0.4,0.2-0.4,0.4c0,0.2,0.2,0.4,0.4,0.4c0.2,0,0.4-0.2,0.4-0.4
						C18.8,25.3,18.6,25.1,18.4,25.1z"/>
				</g>
			</g>
			<g>
				<g>
					<path fill="#FFFFFF" d="M29.9,30.8c0-0.5,0.4-0.9,0.9-0.9c0.5,0,0.9,0.4,0.9,0.9c0,0.5-0.4,0.9-0.9,0.9
						C30.3,31.7,29.9,31.2,29.9,30.8z"/>
					<path fill="#FFFFFF" d="M30.8,32.2c-0.8,0-1.4-0.6-1.4-1.4c0-0.8,0.6-1.4,1.4-1.4c0.4,0,0.7,0.2,1,0.4c0.3,0.3,0.4,0.6,0.4,1
						C32.2,31.5,31.6,32.2,30.8,32.2z M30.8,30.4c-0.2,0-0.4,0.2-0.4,0.4c0,0.2,0.2,0.4,0.4,0.4c0.2,0,0.4-0.2,0.4-0.4
						c0-0.1-0.1-0.2-0.1-0.3C31,30.4,30.9,30.4,30.8,30.4z"/>
				</g>
				<g>
					<path fill="#FFFFFF" d="M23.7,30.8c0-0.5,0.4-0.9,0.9-0.9c0.5,0,0.9,0.4,0.9,0.9c0,0.5-0.4,0.9-0.9,0.9
						C24.1,31.7,23.7,31.2,23.7,30.8z"/>
					<path fill="#FFFFFF" d="M24.6,32.2c-0.7,0-1.4-0.6-1.4-1.4c0-0.4,0.1-0.7,0.4-1c0.3-0.3,0.6-0.4,1-0.4c0.8,0,1.4,0.6,1.4,1.4
						C26,31.5,25.3,32.2,24.6,32.2z M24.6,30.4c-0.1,0-0.2,0-0.3,0.1c0,0-0.1,0.1-0.1,0.3c0,0.2,0.2,0.4,0.4,0.4
						c0.2,0,0.4-0.2,0.4-0.4C25,30.6,24.8,30.4,24.6,30.4z"/>
				</g>
				<g>
					<path fill="#FFFFFF" d="M17.5,30.8c0-0.5,0.4-0.9,0.9-0.9c0.5,0,0.9,0.4,0.9,0.9c0,0.5-0.4,0.9-0.9,0.9
						C17.9,31.7,17.5,31.2,17.5,30.8z"/>
					<path fill="#FFFFFF" d="M18.4,32.2c-0.8,0-1.4-0.6-1.4-1.4c0-0.8,0.6-1.4,1.4-1.4c0.8,0,1.4,0.6,1.4,1.4
						C19.8,31.5,19.2,32.2,18.4,32.2z M18.4,30.4c-0.2,0-0.4,0.2-0.4,0.4c0,0.2,0.2,0.4,0.4,0.4c0.2,0,0.4-0.2,0.4-0.4
						C18.8,30.5,18.6,30.4,18.4,30.4z"/>
				</g>
			</g>
			<g>
				<g>
					<path fill="#FFFFFF" d="M29.9,36c0-0.5,0.4-0.9,0.9-0.9c0.5,0,0.9,0.4,0.9,0.9c0,0.5-0.4,0.9-0.9,0.9
						C30.3,36.9,29.9,36.5,29.9,36z"/>
					<path fill="#FFFFFF" d="M30.8,37.4c-0.8,0-1.4-0.6-1.4-1.4c0-0.8,0.6-1.4,1.4-1.4c0.4,0,0.7,0.2,1,0.4c0.3,0.3,0.4,0.6,0.4,1
						C32.2,36.8,31.6,37.4,30.8,37.4z M30.8,35.6c-0.2,0-0.4,0.2-0.4,0.4c0,0.2,0.2,0.4,0.4,0.4c0.2,0,0.4-0.2,0.4-0.4
						c0-0.1-0.1-0.2-0.1-0.3C31,35.7,30.9,35.6,30.8,35.6z"/>
				</g>
				<g>
					<path fill="#FFFFFF" d="M23.7,36c0-0.5,0.4-0.9,0.9-0.9c0.5,0,0.9,0.4,0.9,0.9c0,0.5-0.4,0.9-0.9,0.9
						C24.1,36.9,23.7,36.5,23.7,36z"/>
					<path fill="#FFFFFF" d="M24.6,37.4c-0.8,0-1.4-0.6-1.4-1.4c0-0.4,0.1-0.7,0.4-1c0.3-0.3,0.6-0.4,1-0.4c0.8,0,1.4,0.6,1.4,1.4
						C26,36.8,25.4,37.4,24.6,37.4z M24.6,35.6c-0.1,0-0.2,0-0.3,0.1c0,0-0.1,0.1-0.1,0.3c0,0.2,0.2,0.4,0.4,0.4
						c0.2,0,0.4-0.2,0.4-0.4C25,35.8,24.8,35.6,24.6,35.6z"/>
				</g>
				<g>
					<path fill="#FFFFFF" d="M17.5,36c0-0.5,0.4-0.9,0.9-0.9c0.5,0,0.9,0.4,0.9,0.9c0,0.5-0.4,0.9-0.9,0.9
						C17.9,36.9,17.5,36.5,17.5,36z"/>
					<path fill="#FFFFFF" d="M18.4,37.4c-0.8,0-1.4-0.6-1.4-1.4c0-0.8,0.6-1.4,1.4-1.4c0.8,0,1.4,0.6,1.4,1.4
						C19.8,36.8,19.2,37.4,18.4,37.4z M18.4,35.6c-0.2,0-0.4,0.2-0.4,0.4c0,0.2,0.2,0.4,0.4,0.4c0.2,0,0.4-0.2,0.4-0.4
						C18.8,35.8,18.6,35.6,18.4,35.6z"/>
				</g>
			</g>
		</g>
	</g>
	<g>
		<path fill="#B0BEC5" d="M55.9,23.3c0,2-1.6,3.6-3.6,3.6c-2,0-3.6-1.6-3.6-3.6c0-2,1.6-3.6,3.6-3.6C54.3,19.7,55.9,21.3,55.9,23.3z
			"/>
		<path fill="#37474F" d="M52.3,27.9c-2.5,0-4.6-2.1-4.6-4.6s2.1-4.6,4.6-4.6c2.5,0,4.6,2.1,4.6,4.6S54.9,27.9,52.3,27.9z
			 M52.3,20.7c-1.4,0-2.6,1.2-2.6,2.6s1.2,2.6,2.6,2.6c1.4,0,2.6-1.2,2.6-2.6S53.8,20.7,52.3,20.7z"/>
	</g>
</g>
</svg>
