<?xml version="1.0" encoding="utf-8"?>
<!-- Generator: Adobe Illustrator 16.0.0, SVG Export Plug-In . SVG Version: 6.00 Build 0)  -->
<!DOCTYPE svg PUBLIC "-//W3C//DTD SVG 1.1//EN" "http://www.w3.org/Graphics/SVG/1.1/DTD/svg11.dtd">
<svg version="1.1" id="Layer_1" xmlns="http://www.w3.org/2000/svg" xmlns:xlink="http://www.w3.org/1999/xlink" x="0px" y="0px"
	 width="24px" height="24px" viewBox="0 0 24 24" enable-background="new 0 0 24 24" xml:space="preserve">
<g>
	<path d="M22.2,1.5H9.7V1c0-0.3-0.2-0.5-0.5-0.5h-2C7,0.5,6.7,0.7,6.7,1v0.5c0,0,0,0,0,0c-1.8,0.1-3,1.9-3,3.6V10
		c0,0.3,0.2,0.5,0.5,0.5h0.5V12c0,0.3,0.2,0.5,0.5,0.5h0.5V15c0,0.2,0.1,0.4,0.3,0.5l1.2,3.4c0.1,0.2,0.3,0.3,0.5,0.3c0,0,0,0,0,0
		c0.2,0,0.4-0.1,0.5-0.3l1.2-3.4c0.2-0.1,0.4-0.2,0.4-0.5v-2.5h1.5c0.3,0,0.5-0.2,0.5-0.5v-1.5h4v8c0,0.3,0.2,0.5,0.5,0.5
		s0.5-0.2,0.5-0.5v-8h5v9.3c-0.3-0.2-0.6-0.3-1-0.3H3.2c-1.1,0-1.9,0.8-1.9,2s0.8,2,1.9,2h17.6c1.1,0,1.9-0.8,1.9-2
		c0-0.2,0-0.4-0.1-0.6c0.1-0.1,0.2-0.2,0.2-0.4V10V9.5V2C22.7,1.7,22.5,1.5,22.2,1.5z M7.7,17.2l-0.6-1.7h1.2L7.7,17.2z M8.7,14.5
		h-2v-2h2V14.5z M10.7,11.5h-5v-1h5V11.5z M4.7,9.5V5.1c0-1.2,0.9-2.6,2.2-2.6h14.8v7H4.7z M20.8,22.5H3.2c-0.4,0-0.9-0.3-0.9-1
		s0.5-1,0.9-1h17.6c0.4,0,0.9,0.3,0.9,1S21.2,22.5,20.8,22.5z"/>
	<path d="M19.7,5.5h-2c-0.3,0-0.5,0.2-0.5,0.5s0.2,0.5,0.5,0.5h2c0.3,0,0.5-0.2,0.5-0.5S20,5.5,19.7,5.5z"/>
	<path d="M10.4,7C9.9,7,9.6,7.3,9.6,7.8c0,0.4,0.4,0.8,0.8,0.8h0c0.5,0,0.8-0.4,0.8-0.8c0-0.2-0.1-0.4-0.2-0.6S10.6,7,10.4,7z"/>
	<path d="M8.2,7C8,7,7.7,7.1,7.6,7.2C7.4,7.4,7.4,7.6,7.4,7.8c0,0.4,0.3,0.8,0.8,0.8l0,0C8.6,8.6,9,8.2,9,7.8C9,7.3,8.6,7,8.2,7z"/>
	<path d="M6,7C5.5,7,5.1,7.3,5.1,7.8c0,0.4,0.4,0.8,0.8,0.8h0h0h0c0.4,0,0.8-0.4,0.8-0.8C6.8,7.3,6.4,7,6,7z M6,8.1L6,8.1L6,8.1
		L6,8.1z"/>
	<circle cx="20.1" cy="21.3" r="0.7"/>
</g>
</svg>
