<?xml version="1.0" encoding="utf-8"?>
<!-- Generator: Adobe Illustrator 16.0.0, SVG Export Plug-In . SVG Version: 6.00 Build 0)  -->
<!DOCTYPE svg PUBLIC "-//W3C//DTD SVG 1.1//EN" "http://www.w3.org/Graphics/SVG/1.1/DTD/svg11.dtd">
<svg version="1.1" id="Layer_1" xmlns="http://www.w3.org/2000/svg" xmlns:xlink="http://www.w3.org/1999/xlink" x="0px" y="0px"
	 width="64px" height="64px" viewBox="0 0 64 64" enable-background="new 0 0 64 64" xml:space="preserve">
<g>
	<g>
		<g>
			<path fill="#FFFFFF" d="M61.5,32.4c0,1.9-1.6,3.5-3.1,3.5H4.9c-1.5,0-2.4-1.6-2.4-3.5V10.3c0-1.9,0.9-3.4,2.4-3.4h53.5
				c1.5,0,3.1,1.5,3.1,3.4V32.4z"/>
			<path fill="#37474F" d="M58.4,36.9H4.9c-2,0-3.4-1.9-3.4-4.5V10.3c0-2.5,1.4-4.4,3.4-4.4h53.5c1.9,0,4.1,1.8,4.1,4.4v22.1
				C62.5,34.7,60.6,36.9,58.4,36.9z M4.9,7.9c-0.9,0-1.4,1.2-1.4,2.4v22.1c0,1.2,0.5,2.5,1.4,2.5h53.5c0.9,0,2.1-1.2,2.1-2.5V10.3
				c0-1.3-1.1-2.4-2.1-2.4H4.9z"/>
		</g>
		<g>
			<g>
				<line fill="#FFFFFF" x1="11.5" y1="22.9" x2="52.5" y2="22.9"/>
				<path fill="#37474F" d="M52.5,23.9h-41c-0.6,0-1-0.4-1-1s0.4-1,1-1h41c0.6,0,1,0.4,1,1S53.1,23.9,52.5,23.9z"/>
			</g>
			<g>
				<line fill="#FFFFFF" x1="11.5" y1="26.9" x2="52.5" y2="26.9"/>
				<path fill="#37474F" d="M52.5,27.9h-41c-0.6,0-1-0.4-1-1s0.4-1,1-1h41c0.6,0,1,0.4,1,1S53.1,27.9,52.5,27.9z"/>
			</g>
			<g>
				<line fill="#FFFFFF" x1="11.5" y1="31.9" x2="52.5" y2="31.9"/>
				<path fill="#37474F" d="M52.5,32.9h-41c-0.6,0-1-0.4-1-1s0.4-1,1-1h41c0.6,0,1,0.4,1,1S53.1,32.9,52.5,32.9z"/>
			</g>
		</g>
		<g>
			<rect x="11.5" y="12.9" fill="#FFAB00" width="3" height="4"/>
			<path fill="#37474F" d="M14.5,17.9h-3c-0.6,0-1-0.4-1-1v-4c0-0.6,0.4-1,1-1h3c0.6,0,1,0.4,1,1v4C15.5,17.4,15.1,17.9,14.5,17.9z
				 M12.5,15.9h1v-2h-1V15.9z"/>
		</g>
		<g>
			<g>
				<path fill="#FFAB00" d="M52.7,14.4c0,2.4-1.9,4.3-4.3,4.3c-2.4,0-4.3-1.9-4.3-4.3c0-2.4,1.9-4.4,4.3-4.4
					C50.7,10,52.7,12,52.7,14.4z"/>
				<path fill="#37474F" d="M48.3,19.7c-2.9,0-5.3-2.4-5.3-5.3c0-3,2.4-5.4,5.3-5.4c2.9,0,5.3,2.4,5.3,5.4
					C53.7,17.3,51.3,19.7,48.3,19.7z M48.3,11c-1.8,0-3.3,1.5-3.3,3.4c0,1.8,1.5,3.3,3.3,3.3s3.3-1.5,3.3-3.3
					C51.7,12.5,50.2,11,48.3,11z"/>
			</g>
			<g>
				<path fill="#FFECB3" d="M50.3,14.4c0,1.1-0.9,2-2,2c-1.1,0-2-0.9-2-2c0-1.1,0.9-2,2-2C49.4,12.4,50.3,13.3,50.3,14.4z"/>
				<path fill="#37474F" d="M48.3,17.3c-1.6,0-3-1.3-3-3c0-1.6,1.3-3,3-3c1.6,0,3,1.3,3,3C51.3,16,50,17.3,48.3,17.3z M48.3,13.4
					c-0.5,0-1,0.4-1,1c0,0.5,0.4,1,1,1c0.5,0,1-0.4,1-1C49.3,13.9,48.9,13.4,48.3,13.4z"/>
			</g>
		</g>
	</g>
	<g>
		<g>
			<g>
				<path fill="#37474F" d="M14.1,40.7c-0.4,0-0.8-0.4-0.8-0.8c0-0.4,0.3-0.8,0.8-0.8c0.4,0,0.8,0.4,0.8,0.8
					C14.9,40.3,14.5,40.7,14.1,40.7z"/>
				<path fill="#37474F" d="M14.1,41.2c-0.7,0-1.3-0.6-1.3-1.3c0-0.7,0.6-1.3,1.3-1.3c0.7,0,1.3,0.6,1.3,1.3c0,0.3-0.1,0.6-0.4,0.9
					C14.8,41,14.5,41.2,14.1,41.2z M14.1,39.6c-0.2,0-0.3,0.1-0.3,0.3c0,0.2,0.3,0.4,0.5,0.2c0,0,0.1-0.1,0.1-0.2
					C14.4,39.7,14.3,39.6,14.1,39.6C14.1,39.6,14.1,39.6,14.1,39.6z"/>
			</g>
			<g>
				<path fill="#37474F" d="M14.1,46.2c-0.4,0-0.8-0.4-0.8-0.8c0-0.4,0.3-0.8,0.8-0.8c0.4,0,0.8,0.4,0.8,0.8
					C14.9,45.8,14.5,46.2,14.1,46.2z"/>
				<path fill="#37474F" d="M14.1,46.7c-0.7,0-1.3-0.6-1.3-1.3c0-0.7,0.6-1.3,1.3-1.3c0.7,0,1.3,0.6,1.3,1.3
					C15.4,46.1,14.8,46.7,14.1,46.7L14.1,46.7z M14.1,45.1c-0.1,0-0.3,0.1-0.3,0.3c0,0.2,0.1,0.3,0.3,0.3v0.5l0-0.5
					c0.2,0,0.3-0.1,0.3-0.3C14.4,45.2,14.3,45.1,14.1,45.1z"/>
			</g>
			<g>
				<path fill="#37474F" d="M14.1,51.7c-0.4,0-0.8-0.4-0.8-0.8c0-0.4,0.3-0.8,0.8-0.8c0.4,0,0.8,0.4,0.8,0.8
					C14.9,51.3,14.5,51.7,14.1,51.7z"/>
				<path fill="#37474F" d="M14.1,52.2c-0.7,0-1.3-0.6-1.3-1.3c0-0.7,0.6-1.3,1.3-1.3c0.3,0,0.7,0.1,0.9,0.4
					c0.2,0.2,0.4,0.6,0.4,0.9c0,0.3-0.1,0.6-0.4,0.9C14.8,52,14.5,52.2,14.1,52.2z M14.1,50.6c-0.2,0-0.3,0.1-0.3,0.3
					c0,0.2,0.3,0.4,0.5,0.2c0,0,0.1-0.1,0.1-0.2c0-0.1,0-0.2-0.1-0.2C14.3,50.6,14.2,50.6,14.1,50.6z"/>
			</g>
		</g>
		<g>
			<g>
				<path fill="#37474F" d="M22.9,40.7c-0.4,0-0.8-0.4-0.8-0.8c0-0.4,0.4-0.8,0.8-0.8c0.4,0,0.8,0.4,0.8,0.8
					C23.7,40.3,23.3,40.7,22.9,40.7z"/>
				<path fill="#37474F" d="M22.9,41.2c-0.7,0-1.3-0.6-1.3-1.3c0-0.7,0.6-1.3,1.3-1.3c0.7,0,1.3,0.6,1.3,1.3c0,0.3-0.1,0.6-0.4,0.9
					C23.6,41,23.2,41.2,22.9,41.2z M22.9,39.6c-0.2,0-0.3,0.1-0.3,0.3c0,0.2,0.3,0.4,0.5,0.2c0,0,0.1-0.1,0.1-0.2
					C23.2,39.7,23,39.6,22.9,39.6C22.9,39.6,22.9,39.6,22.9,39.6z"/>
			</g>
			<g>
				<path fill="#37474F" d="M22.9,46.2c-0.4,0-0.8-0.4-0.8-0.8c0-0.4,0.4-0.8,0.8-0.8c0.4,0,0.8,0.4,0.8,0.8
					C23.7,45.8,23.3,46.2,22.9,46.2z"/>
				<path fill="#37474F" d="M22.9,46.7c-0.7,0-1.3-0.6-1.3-1.3c0-0.7,0.6-1.3,1.3-1.3c0.7,0,1.3,0.6,1.3,1.3
					C24.2,46.1,23.6,46.7,22.9,46.7L22.9,46.7z M22.9,45.1c-0.2,0-0.3,0.1-0.3,0.3c0,0.1,0.1,0.3,0.3,0.3v0.5l0-0.5
					c0.2,0,0.3-0.1,0.3-0.3C23.2,45.2,23,45.1,22.9,45.1z"/>
			</g>
			<g>
				<path fill="#37474F" d="M22.9,51.7c-0.4,0-0.8-0.4-0.8-0.8c0-0.4,0.4-0.8,0.8-0.8c0.4,0,0.8,0.4,0.8,0.8
					C23.7,51.3,23.3,51.7,22.9,51.7z"/>
				<path fill="#37474F" d="M22.9,52.2c-0.7,0-1.3-0.6-1.3-1.3c0-0.7,0.6-1.3,1.3-1.3c0.3,0,0.7,0.1,0.9,0.4
					c0.2,0.2,0.4,0.6,0.4,0.9c0,0.3-0.1,0.6-0.4,0.9S23.2,52.2,22.9,52.2z M22.9,50.6c-0.2,0-0.3,0.1-0.3,0.3c0,0.2,0.3,0.4,0.5,0.2
					c0,0,0.1-0.1,0.1-0.2c0-0.1,0-0.2-0.1-0.2C23,50.6,23,50.6,22.9,50.6z"/>
			</g>
		</g>
		<g>
			<g>
				<path fill="#37474F" d="M31.7,40.7c-0.4,0-0.8-0.4-0.8-0.8c0-0.4,0.3-0.8,0.8-0.8c0.4,0,0.8,0.4,0.8,0.8
					C32.5,40.3,32.1,40.7,31.7,40.7z"/>
				<path fill="#37474F" d="M31.7,41.2c-0.7,0-1.3-0.6-1.3-1.3c0-0.7,0.6-1.3,1.3-1.3c0.7,0,1.3,0.6,1.3,1.3c0,0.3-0.1,0.6-0.4,0.9
					C32.3,41,32,41.2,31.7,41.2z M31.7,39.6c-0.2,0-0.3,0.1-0.3,0.3c0,0.2,0.1,0.3,0.3,0.3c0.1,0,0.2-0.1,0.2-0.1
					c0,0,0.1-0.1,0.1-0.2C31.9,39.7,31.8,39.6,31.7,39.6C31.7,39.6,31.7,39.6,31.7,39.6z"/>
			</g>
			<g>
				<path fill="#37474F" d="M31.7,46.2c-0.4,0-0.8-0.4-0.8-0.8c0-0.4,0.3-0.8,0.8-0.8c0.4,0,0.8,0.4,0.8,0.8
					C32.4,45.8,32.1,46.2,31.7,46.2z"/>
				<path fill="#37474F" d="M31.7,46.7c-0.7,0-1.3-0.6-1.3-1.3c0-0.7,0.6-1.3,1.3-1.3c0.7,0,1.3,0.6,1.3,1.3
					C32.9,46.1,32.4,46.7,31.7,46.7L31.7,46.7z M31.7,45.1c-0.2,0-0.3,0.1-0.3,0.3c0,0.1,0.1,0.3,0.3,0.3v0.5l0-0.5
					c0.2,0,0.3-0.1,0.3-0.3C32,45.2,31.8,45.1,31.7,45.1z"/>
			</g>
			<g>
				<path fill="#37474F" d="M31.7,51.7c-0.4,0-0.8-0.4-0.8-0.8c0-0.4,0.3-0.8,0.8-0.8c0.4,0,0.8,0.4,0.8,0.8
					C32.5,51.3,32.1,51.7,31.7,51.7z"/>
				<path fill="#37474F" d="M31.7,52.2c-0.7,0-1.3-0.6-1.3-1.3c0-0.7,0.6-1.3,1.3-1.3c0.3,0,0.7,0.1,0.9,0.4
					c0.2,0.2,0.4,0.6,0.4,0.9c0,0.3-0.1,0.6-0.4,0.9C32.3,52,32,52.2,31.7,52.2z M31.7,50.6c-0.2,0-0.3,0.1-0.3,0.3
					c0,0.2,0.1,0.3,0.3,0.3c0.1,0,0.2-0.1,0.2-0.1c0,0,0.1-0.1,0.1-0.2c0-0.1,0-0.2-0.1-0.2C31.8,50.7,31.8,50.6,31.7,50.6z"/>
			</g>
		</g>
		<g>
			<g>
				<path fill="#37474F" d="M40.5,40.7c-0.4,0-0.8-0.4-0.8-0.8c0-0.4,0.3-0.8,0.8-0.8c0.4,0,0.8,0.4,0.8,0.8
					C41.2,40.3,40.9,40.7,40.5,40.7z"/>
				<path fill="#37474F" d="M40.5,41.2c-0.7,0-1.3-0.6-1.3-1.3c0-0.7,0.6-1.3,1.3-1.3c0.7,0,1.3,0.6,1.3,1.3c0,0.3-0.1,0.6-0.3,0.9
					C41.1,41,40.8,41.2,40.5,41.2z M40.5,39.6c-0.2,0-0.3,0.1-0.3,0.3c0,0.2,0.3,0.4,0.5,0.2c0,0,0.1-0.1,0.1-0.2
					C40.7,39.7,40.6,39.6,40.5,39.6C40.5,39.6,40.5,39.6,40.5,39.6z"/>
			</g>
			<g>
				<path fill="#37474F" d="M40.5,46.2c-0.4,0-0.8-0.4-0.8-0.8c0-0.4,0.3-0.8,0.8-0.8c0.4,0,0.8,0.4,0.8,0.8
					C41.2,45.8,40.9,46.2,40.5,46.2z"/>
				<path fill="#37474F" d="M40.4,46.7c-0.7,0-1.3-0.6-1.3-1.3c0-0.7,0.6-1.3,1.3-1.3c0.7,0,1.3,0.6,1.3,1.3
					C41.7,46.1,41.1,46.7,40.4,46.7L40.4,46.7z M40.4,45.1c-0.2,0-0.3,0.1-0.3,0.3c0,0.1,0.1,0.3,0.3,0.3v0.5l0-0.5
					c0.2,0,0.3-0.1,0.3-0.3C40.7,45.2,40.6,45.1,40.4,45.1z"/>
			</g>
			<g>
				<path fill="#37474F" d="M40.5,51.7c-0.4,0-0.8-0.4-0.8-0.8c0-0.4,0.3-0.8,0.8-0.8c0.4,0,0.8,0.4,0.8,0.8
					C41.2,51.3,40.9,51.7,40.5,51.7z"/>
				<path fill="#37474F" d="M40.5,52.2c-0.7,0-1.3-0.6-1.3-1.3c0-0.7,0.6-1.3,1.3-1.3c0.3,0,0.7,0.1,0.9,0.4
					c0.2,0.2,0.4,0.6,0.3,0.9c0,0.3-0.1,0.6-0.3,0.9C41.1,52,40.8,52.2,40.5,52.2z M40.5,50.6c-0.2,0-0.3,0.1-0.3,0.3
					c0,0.2,0.3,0.4,0.5,0.2c0,0,0.1-0.1,0.1-0.2c0-0.1,0-0.2-0.1-0.2C40.6,50.6,40.5,50.6,40.5,50.6z"/>
			</g>
		</g>
		<g>
			<g>
				<path fill="#37474F" d="M49.2,40.7c-0.4,0-0.8-0.4-0.8-0.8c0-0.4,0.3-0.8,0.8-0.8c0.4,0,0.8,0.4,0.8,0.8
					C50,40.3,49.7,40.7,49.2,40.7z"/>
				<path fill="#37474F" d="M49.2,41.2c-0.7,0-1.3-0.6-1.3-1.3c0-0.7,0.6-1.3,1.3-1.3c0.7,0,1.3,0.6,1.3,1.3c0,0.3-0.1,0.6-0.4,0.9
					C49.9,41,49.6,41.2,49.2,41.2z M49.2,39.6c-0.2,0-0.3,0.1-0.3,0.3c0,0.2,0.3,0.4,0.5,0.2c0,0,0.1-0.1,0.1-0.2
					C49.5,39.7,49.4,39.6,49.2,39.6C49.2,39.6,49.2,39.6,49.2,39.6z"/>
			</g>
			<g>
				<path fill="#37474F" d="M49.2,46.2c-0.4,0-0.8-0.4-0.8-0.8c0-0.4,0.3-0.8,0.8-0.8c0.4,0,0.8,0.4,0.8,0.8
					C50,45.8,49.7,46.2,49.2,46.2z"/>
				<path fill="#37474F" d="M49.2,46.7c-0.7,0-1.3-0.6-1.3-1.3c0-0.7,0.6-1.3,1.3-1.3c0.7,0,1.3,0.6,1.3,1.3
					C50.5,46.1,49.9,46.7,49.2,46.7L49.2,46.7z M49.2,45.1c-0.2,0-0.3,0.1-0.3,0.3c0,0.1,0.1,0.3,0.3,0.3v0.5l0-0.5
					c0.2,0,0.3-0.1,0.3-0.3C49.5,45.2,49.4,45.1,49.2,45.1z"/>
			</g>
			<g>
				<path fill="#37474F" d="M49.2,51.7c-0.4,0-0.8-0.4-0.8-0.8c0-0.4,0.3-0.8,0.8-0.8c0.4,0,0.8,0.4,0.8,0.8
					C50,51.3,49.7,51.7,49.2,51.7z"/>
				<path fill="#37474F" d="M49.2,52.2c-0.7,0-1.3-0.6-1.3-1.3c0-0.7,0.6-1.3,1.3-1.3c0.3,0,0.7,0.1,0.9,0.4
					c0.2,0.2,0.4,0.6,0.4,0.9c0,0.3-0.1,0.6-0.4,0.9C49.9,52,49.6,52.2,49.2,52.2z M49.2,50.6c-0.2,0-0.3,0.1-0.3,0.3
					c0,0.2,0.3,0.4,0.5,0.2c0,0,0.1-0.1,0.1-0.2c0-0.1,0-0.2-0.1-0.2C49.4,50.6,49.3,50.6,49.2,50.6z"/>
			</g>
		</g>
	</g>
	<g>
		<g>
			<polygon fill="#37474F" points="10.6,54.9 12.8,57.1 15.1,54.9 			"/>
		</g>
		<g>
			<polygon fill="#37474F" points="15.3,54.9 17.5,57.1 19.8,54.9 			"/>
		</g>
		<g>
			<polygon fill="#37474F" points="20,54.9 22.2,57.1 24.5,54.9 			"/>
		</g>
		<g>
			<polygon fill="#37474F" points="24.7,54.9 27,57.1 29.2,54.9 			"/>
		</g>
		<g>
			<polygon fill="#37474F" points="29.4,54.9 31.7,57.1 33.9,54.9 			"/>
		</g>
		<g>
			<polygon fill="#37474F" points="34.1,54.9 36.4,57.1 38.7,54.9 			"/>
		</g>
		<g>
			<polygon fill="#37474F" points="38.8,54.9 41.1,57.1 43.4,54.9 			"/>
		</g>
		<g>
			<polygon fill="#37474F" points="43.5,54.9 45.8,57.1 48.1,54.9 			"/>
		</g>
		<g>
			<polygon fill="#37474F" points="48.2,54.9 50.5,57.1 52.8,54.9 			"/>
		</g>
	</g>
</g>
</svg>
