<?xml version="1.0" encoding="utf-8"?>
<!-- Generator: Adobe Illustrator 16.0.0, SVG Export Plug-In . SVG Version: 6.00 Build 0)  -->
<!DOCTYPE svg PUBLIC "-//W3C//DTD SVG 1.1//EN" "http://www.w3.org/Graphics/SVG/1.1/DTD/svg11.dtd">
<svg version="1.1" id="Layer_1" xmlns="http://www.w3.org/2000/svg" xmlns:xlink="http://www.w3.org/1999/xlink" x="0px" y="0px"
	 width="64px" height="64px" viewBox="0 0 64 64" enable-background="new 0 0 64 64" xml:space="preserve">
<g>
	<g>
		<polygon fill="#FFECB3" points="50.6,16.2 44.5,22.3 34.4,12.2 40.5,6.2 		"/>
		<path fill="#37474F" d="M44.5,23.3L44.5,23.3c-0.3,0-0.5-0.1-0.7-0.3L33.7,12.9c-0.4-0.4-0.4-1,0-1.4l6-6.1c0.4-0.4,1-0.4,1.4,0
			l10.1,10.1c0.2,0.2,0.3,0.4,0.3,0.7s-0.1,0.5-0.3,0.7L45.2,23C45,23.2,44.8,23.3,44.5,23.3z M35.8,12.2l8.7,8.7l4.6-4.6l-8.7-8.7
			L35.8,12.2z"/>
	</g>
	<g>
		<polygon fill="#FFFFFF" points="2,5.5 2,11.5 44,11.5 44,52.5 2,52.5 2,58.5 62,58.5 62,5.5 		"/>
		<path fill="#37474F" d="M62,59.5H2c-0.6,0-1-0.4-1-1v-6c0-0.6,0.4-1,1-1h41v-39H2c-0.6,0-1-0.4-1-1v-6c0-0.6,0.4-1,1-1h60
			c0.6,0,1,0.4,1,1v53C63,59.1,62.6,59.5,62,59.5z M3,57.5h58v-51H3v4h41c0.6,0,1,0.4,1,1v41c0,0.6-0.4,1-1,1H3V57.5z"/>
	</g>
	<g>
		<g>
			<polygon fill="#37474F" points="32.3,51.5 9.3,51.5 12.6,37.5 29.1,37.5 			"/>
			<path fill="#37474F" d="M32.3,52.5C32.3,52.5,32.3,52.5,32.3,52.5H9.3c-0.3,0-0.6-0.1-0.8-0.4c-0.2-0.2-0.3-0.6-0.2-0.8l3.3-14
				c0.1-0.5,0.5-0.8,1-0.8h16.5c0.5,0,0.9,0.3,1,0.8l3.2,13.8c0.1,0.1,0.1,0.3,0.1,0.4C33.3,52.1,32.9,52.5,32.3,52.5z M10.5,50.5
				h20.5l-2.8-12H13.3L10.5,50.5z"/>
		</g>
		<g>
			<polyline fill="#FFECB3" points="11,30.5 5,30.5 5,43 7.3,45.2 			"/>
			<path fill="#37474F" d="M7.3,46.2c-0.3,0-0.5-0.1-0.7-0.3l-2.3-2.2C4.1,43.5,4,43.3,4,43V30.5c0-0.6,0.4-1,1-1h6c0.6,0,1,0.4,1,1
				s-0.4,1-1,1H6v11.1l2,1.9c0.4,0.4,0.4,1,0,1.4C7.8,46.1,7.6,46.2,7.3,46.2z"/>
		</g>
		<g>
			<polygon fill="#FFECB3" points="9.3,23.5 32.3,23.5 29.1,37.5 12.6,37.5 			"/>
			<path fill="#37474F" d="M29.1,38.5H12.6c-0.5,0-0.9-0.3-1-0.8l-3.3-14c-0.1-0.3,0-0.6,0.2-0.8c0.2-0.2,0.5-0.4,0.8-0.4h23.1
				c0.3,0,0.6,0.1,0.8,0.4c0.2,0.2,0.3,0.6,0.2,0.8l-3.3,14C29.9,38.2,29.5,38.5,29.1,38.5z M13.3,36.5h14.9l2.8-12H10.5L13.3,36.5z
				"/>
		</g>
		<g>
			<g>
				<path fill="#37474F" d="M16.6,30.3c0,0.4-0.3,0.7-0.7,0.7c-0.4,0-0.7-0.3-0.7-0.7c0-0.4,0.3-0.7,0.7-0.7
					C16.3,29.6,16.6,29.9,16.6,30.3z"/>
				<path fill="#37474F" d="M15.9,31.5c-0.3,0-0.6-0.1-0.8-0.4c-0.2-0.2-0.3-0.5-0.3-0.9c0-0.7,0.5-1.2,1.2-1.2l0,0
					c0.7,0,1.2,0.5,1.2,1.2C17.1,30.9,16.6,31.4,15.9,31.5L15.9,31.5z M15.9,30.1c-0.1,0-0.2,0.1-0.2,0.2c0,0.1,0,0.1,0.1,0.1
					s0.1,0.1,0.1,0.1V31l0-0.5c0.1,0,0.2-0.1,0.2-0.2C16.1,30.2,16,30.1,15.9,30.1z"/>
			</g>
			<g>
				<path fill="#37474F" d="M21.5,30.3c0,0.4-0.3,0.7-0.7,0.7c-0.4,0-0.7-0.3-0.7-0.7c0-0.4,0.3-0.7,0.7-0.7
					C21.2,29.6,21.5,29.9,21.5,30.3z"/>
				<path fill="#37474F" d="M20.8,31.5c-0.7,0-1.2-0.5-1.2-1.2c0-0.7,0.6-1.2,1.2-1.2c0.7,0,1.2,0.6,1.2,1.2c0,0.3-0.1,0.6-0.3,0.8
					C21.4,31.3,21.1,31.5,20.8,31.5z M20.8,30.1c-0.1,0-0.2,0.1-0.2,0.2c0,0.2,0.2,0.3,0.4,0.1c0,0,0.1-0.1,0-0.1
					C21,30.2,20.9,30.1,20.8,30.1z"/>
			</g>
			<g>
				<path fill="#37474F" d="M26.4,30.3c0,0.4-0.3,0.7-0.7,0.7c-0.4,0-0.7-0.3-0.7-0.7c0-0.4,0.3-0.7,0.7-0.7
					C26.1,29.6,26.4,29.9,26.4,30.3z"/>
				<path fill="#37474F" d="M25.7,31.5c-0.7,0-1.2-0.5-1.2-1.2c0-0.6,0.5-1.2,1.2-1.2c0.7,0,1.2,0.5,1.2,1.2
					C26.9,30.9,26.4,31.5,25.7,31.5z M25.7,30.1c-0.1,0-0.2,0.1-0.2,0.2c0,0.2,0.4,0.3,0.4,0C25.9,30.2,25.8,30.1,25.7,30.1z"/>
			</g>
		</g>
	</g>
	<g>
		<g>
			<rect x="13" y="11.5" fill="#B0BEC5" width="16" height="4"/>
			<path fill="#37474F" d="M30,16.5H12v-6h18V16.5z M14,14.5h14v-2H14V14.5z"/>
		</g>
		<g>
			<line fill="#FFECB3" x1="21" y1="20.5" x2="21" y2="16.5"/>
			<path fill="#37474F" d="M21,21.5c-0.6,0-1-0.4-1-1v-4c0-0.6,0.4-1,1-1s1,0.4,1,1v4C22,21.1,21.6,21.5,21,21.5z"/>
		</g>
	</g>
	<g>
		<g>
			<rect x="51" y="22.5" fill="#FFECB3" width="3" height="3"/>
			<path fill="#37474F" d="M54,26.5h-3c-0.6,0-1-0.4-1-1v-3c0-0.6,0.4-1,1-1h3c0.6,0,1,0.4,1,1v3C55,26.1,54.6,26.5,54,26.5z
				 M52,24.5h1v-1h-1V24.5z"/>
		</g>
		<g>
			<rect x="51" y="29.5" fill="#FFECB3" width="3" height="4"/>
			<path fill="#37474F" d="M54,34.5h-3c-0.6,0-1-0.4-1-1v-4c0-0.6,0.4-1,1-1h3c0.6,0,1,0.4,1,1v4C55,34.1,54.6,34.5,54,34.5z
				 M52,32.5h1v-2h-1V32.5z"/>
		</g>
	</g>
	<g>
		<rect x="44" y="36.5" fill="#FFAB00" width="18" height="13"/>
		<path fill="#37474F" d="M62,50.5H44c-0.6,0-1-0.4-1-1v-13c0-0.6,0.4-1,1-1h18c0.6,0,1,0.4,1,1v13C63,50.1,62.6,50.5,62,50.5z
			 M45,48.5h16v-11H45V48.5z"/>
	</g>
	<g>
		<g>
			<line fill="#FFAB00" x1="49" y1="45.5" x2="49" y2="40.5"/>
			<path fill="#37474F" d="M49,46.5c-0.6,0-1-0.4-1-1v-5c0-0.6,0.4-1,1-1s1,0.4,1,1v5C50,46.1,49.6,46.5,49,46.5z"/>
		</g>
		<g>
			<line fill="#FFAB00" x1="53" y1="45.5" x2="53" y2="40.5"/>
			<path fill="#37474F" d="M53,46.5c-0.6,0-1-0.4-1-1v-5c0-0.6,0.4-1,1-1s1,0.4,1,1v5C54,46.1,53.6,46.5,53,46.5z"/>
		</g>
		<g>
			<line fill="#FFAB00" x1="56" y1="45.5" x2="56" y2="40.5"/>
			<path fill="#37474F" d="M56,46.5c-0.6,0-1-0.4-1-1v-5c0-0.6,0.4-1,1-1s1,0.4,1,1v5C57,46.1,56.6,46.5,56,46.5z"/>
		</g>
	</g>
	<g>
		<rect x="47" y="14.5" fill="#78909C" width="12" height="3"/>
		<path fill="#37474F" d="M59,18.5H47c-0.6,0-1-0.4-1-1v-3c0-0.6,0.4-1,1-1h12c0.6,0,1,0.4,1,1v3C60,18.1,59.6,18.5,59,18.5z
			 M48,16.5h10v-1H48V16.5z"/>
	</g>
	<g>
		<line fill="#78909C" x1="17" y1="53.5" x2="17" y2="57.5"/>
		<path fill="#37474F" d="M17,58.5c-0.6,0-1-0.4-1-1v-4c0-0.6,0.4-1,1-1s1,0.4,1,1v4C18,58.1,17.6,58.5,17,58.5z"/>
	</g>
	<g>
		<line fill="#78909C" x1="21" y1="53.5" x2="21" y2="57.5"/>
		<path fill="#37474F" d="M21,58.5c-0.6,0-1-0.4-1-1v-4c0-0.6,0.4-1,1-1s1,0.4,1,1v4C22,58.1,21.6,58.5,21,58.5z"/>
	</g>
	<g>
		<line fill="#78909C" x1="25" y1="53.5" x2="25" y2="57.5"/>
		<path fill="#37474F" d="M25,58.5c-0.6,0-1-0.4-1-1v-4c0-0.6,0.4-1,1-1s1,0.4,1,1v4C26,58.1,25.6,58.5,25,58.5z"/>
	</g>
	<g>
		<line fill="#78909C" x1="29" y1="53.5" x2="29" y2="57.5"/>
		<path fill="#37474F" d="M29,58.5c-0.6,0-1-0.4-1-1v-4c0-0.6,0.4-1,1-1s1,0.4,1,1v4C30,58.1,29.6,58.5,29,58.5z"/>
	</g>
	<g>
		<line fill="#78909C" x1="33" y1="53.5" x2="33" y2="57.5"/>
		<path fill="#37474F" d="M33,58.5c-0.6,0-1-0.4-1-1v-4c0-0.6,0.4-1,1-1s1,0.4,1,1v4C34,58.1,33.6,58.5,33,58.5z"/>
	</g>
</g>
</svg>
