<?xml version="1.0" encoding="utf-8"?>
<!-- Generator: Adobe Illustrator 16.0.0, SVG Export Plug-In . SVG Version: 6.00 Build 0)  -->
<!DOCTYPE svg PUBLIC "-//W3C//DTD SVG 1.1//EN" "http://www.w3.org/Graphics/SVG/1.1/DTD/svg11.dtd">
<svg version="1.1" id="Layer_1" xmlns="http://www.w3.org/2000/svg" xmlns:xlink="http://www.w3.org/1999/xlink" x="0px" y="0px"
	 width="64px" height="64px" viewBox="0 0 64 64" enable-background="new 0 0 64 64" xml:space="preserve">
<g>
	<g>
		<rect x="19.2" y="29.6" fill="#B0BEC5" width="28.5" height="3.8"/>
		<path fill="#37474F" d="M47.7,34.4H19.2c-0.6,0-1-0.4-1-1v-3.8c0-0.6,0.4-1,1-1h28.5c0.6,0,1,0.4,1,1v3.8
			C48.7,34,48.2,34.4,47.7,34.4z M20.2,32.4h26.5v-1.8H20.2V32.4z"/>
	</g>
	<g>
		<rect x="19.2" y="22" fill="#78909C" width="28.5" height="6.6"/>
		<path fill="#37474F" d="M48.7,29.7H18.2V21h30.5V29.7z M20.2,27.7h26.5V23H20.2V27.7z"/>
	</g>
	<g>
		<rect x="17.3" y="18.2" fill="#FFAB00" width="28.5" height="4.7"/>
		<path fill="#37474F" d="M45.8,24H17.3c-0.6,0-1-0.4-1-1v-4.7c0-0.6,0.4-1,1-1h28.5c0.6,0,1,0.4,1,1V23C46.8,23.5,46.3,24,45.8,24z
			 M18.3,22h26.5v-2.7H18.3V22z"/>
	</g>
	<g>
		<rect x="19.2" y="33.4" fill="#78909C" width="28.5" height="12.3"/>
		<path fill="#37474F" d="M48.7,46.8H18.2V32.4h30.5V46.8z M20.2,44.8h26.5V34.4H20.2V44.8z"/>
	</g>
	<g>
		<g>
			<g>
				<path fill="#37474F" d="M22,43.2c0,1.3-1.1,2.5-2.4,2.5H4.8c-1.3,0-2.7-1.2-2.7-2.5V24.5c0-1.3,1.4-2.5,2.7-2.5h14.8
					c1.3,0,2.4,1.1,2.4,2.5V43.2z"/>
				<path fill="#37474F" d="M19.6,46.8H4.8c-1.9,0-3.7-1.7-3.7-3.5V24.5c0-1.8,1.7-3.5,3.7-3.5h14.8c1.9,0,3.4,1.6,3.4,3.5v18.7
					C23,45.2,21.5,46.8,19.6,46.8z M4.8,23c-0.8,0-1.7,0.7-1.7,1.5v18.7c0,0.7,0.9,1.5,1.7,1.5h14.8c0.8,0,1.4-0.7,1.4-1.5V24.5
					c0-0.8-0.7-1.5-1.4-1.5H4.8z"/>
			</g>
			<g>
				<g>
					<path fill="#FFAB00" d="M19.3,35.7c0,3.9-3.2,7.1-7.1,7.1c-3.9,0-7.1-3.2-7.1-7.1c0-3.9,3.2-7.1,7.1-7.1
						C16.1,28.5,19.3,31.7,19.3,35.7z"/>
					<path fill="#37474F" d="M12.2,43.8c-4.5,0-8.1-3.6-8.1-8.1c0-4.5,3.6-8.1,8.1-8.1s8.1,3.6,8.1,8.1
						C20.3,40.1,16.7,43.8,12.2,43.8z M12.2,29.5c-3.4,0-6.1,2.7-6.1,6.1c0,3.4,2.7,6.1,6.1,6.1s6.1-2.7,6.1-6.1
						C18.3,32.3,15.6,29.5,12.2,29.5z"/>
				</g>
				<g>
					<path fill="#FFECB3" d="M15.4,35.7c0,1.8-1.4,3.2-3.2,3.2c-1.8,0-3.2-1.4-3.2-3.2c0-1.8,1.4-3.2,3.2-3.2
						C14,32.4,15.4,33.9,15.4,35.7z"/>
					<path fill="#37474F" d="M12.2,39.9C9.9,39.9,8,38,8,35.7c0-2.3,1.9-4.2,4.2-4.2c2.3,0,4.2,1.9,4.2,4.2
						C16.4,38,14.5,39.9,12.2,39.9z M12.2,33.4c-1.2,0-2.2,1-2.2,2.2c0,1.2,1,2.2,2.2,2.2s2.2-1,2.2-2.2
						C14.4,34.4,13.4,33.4,12.2,33.4z"/>
				</g>
			</g>
			<g>
				<g>
					<path fill="#FFFFFF" d="M8.9,26.2c0,0.3-0.2,0.6-0.6,0.6c-0.3,0-0.6-0.3-0.6-0.6c0-0.3,0.2-0.6,0.6-0.6
						C8.6,25.6,8.9,25.9,8.9,26.2z"/>
					<path fill="#FFFFFF" d="M8.3,27.2L8.3,27.2c-0.3,0-0.6-0.1-0.8-0.3c-0.2-0.2-0.3-0.5-0.3-0.8c0-0.6,0.5-1,1.1-1
						c0.6,0,1.1,0.5,1.1,1.1C9.4,26.8,8.9,27.2,8.3,27.2L8.3,27.2z M8.4,26.2l-0.1,0l0.1,0.6L8.4,26.2C8.3,26.2,8.4,26.2,8.4,26.2z"
						/>
				</g>
				<g>
					<path fill="#FFFFFF" d="M12.7,26.2c0,0.3-0.2,0.6-0.5,0.6c-0.3,0-0.5-0.3-0.6-0.6c0-0.3,0.3-0.6,0.6-0.6
						C12.5,25.6,12.7,25.9,12.7,26.2z"/>
					<path fill="#FFFFFF" d="M12.2,27.2L12.2,27.2c-0.6,0-1-0.5-1.1-1c0-0.6,0.5-1.1,1.1-1.1c0.6,0,1,0.5,1,1.1
						c0,0.3-0.1,0.5-0.3,0.7C12.7,27.1,12.5,27.2,12.2,27.2z"/>
				</g>
				<g>
					<path fill="#FFFFFF" d="M16.6,26.2c0,0.3-0.2,0.6-0.6,0.6c-0.3,0-0.5-0.3-0.5-0.6c0-0.3,0.3-0.6,0.6-0.6
						C16.4,25.6,16.6,25.9,16.6,26.2z"/>
					<path fill="#FFFFFF" d="M16.1,27.2L16.1,27.2c-0.6,0-1.1-0.5-1.1-1.1c0-0.6,0.5-1.1,1-1.1c0.6,0,1.1,0.5,1.1,1.1
						C17.1,26.8,16.7,27.2,16.1,27.2L16.1,27.2z M16,26.2l0,0.6L16,26.2c0.1,0.1,0.1,0,0.1,0H16z"/>
				</g>
			</g>
		</g>
		<g>
			<g>
				<path fill="#37474F" d="M61.9,43.2c0,1.3-1.5,2.5-2.8,2.5H44.3c-1.3,0-2.3-1.2-2.3-2.5V24.5c0-1.3,1-2.5,2.3-2.5h14.8
					c1.3,0,2.8,1.1,2.8,2.5V43.2z"/>
				<path fill="#37474F" d="M59.1,46.8H44.3c-1.8,0-3.3-1.6-3.3-3.5V24.5c0-1.9,1.5-3.5,3.3-3.5h14.8c1.8,0,3.8,1.5,3.8,3.5v18.7
					C62.9,45.2,60.9,46.8,59.1,46.8z M44.3,23c-0.8,0-1.3,0.6-1.3,1.5v18.7c0,0.7,0.5,1.5,1.3,1.5h14.8c0.8,0,1.8-0.8,1.8-1.5V24.5
					c0-0.7-0.9-1.5-1.8-1.5H44.3z"/>
			</g>
			<g>
				<g>
					<path fill="#FFAB00" d="M58.8,35.7c0,3.9-3.2,7.1-7.1,7.1c-3.9,0-7.1-3.2-7.1-7.1c0-3.9,3.2-7.1,7.1-7.1
						C55.6,28.5,58.8,31.7,58.8,35.7z"/>
					<path fill="#37474F" d="M51.7,43.8c-4.5,0-8.1-3.6-8.1-8.1c0-4.5,3.6-8.1,8.1-8.1c4.5,0,8.1,3.6,8.1,8.1
						C59.8,40.1,56.2,43.8,51.7,43.8z M51.7,29.5c-3.4,0-6.1,2.7-6.1,6.1c0,3.4,2.7,6.1,6.1,6.1c3.4,0,6.1-2.7,6.1-6.1
						C57.8,32.3,55.1,29.5,51.7,29.5z"/>
				</g>
				<g>
					<path fill="#FFECB3" d="M54.9,35.7c0,1.8-1.4,3.2-3.2,3.2c-1.8,0-3.2-1.4-3.2-3.2c0-1.8,1.4-3.2,3.2-3.2
						C53.5,32.4,54.9,33.9,54.9,35.7z"/>
					<path fill="#37474F" d="M51.7,39.9c-2.3,0-4.2-1.9-4.2-4.2c0-2.3,1.9-4.2,4.2-4.2c2.3,0,4.2,1.9,4.2,4.2
						C55.9,38,54,39.9,51.7,39.9z M51.7,33.4c-1.2,0-2.2,1-2.2,2.2c0,1.2,1,2.2,2.2,2.2c1.2,0,2.2-1,2.2-2.2
						C53.9,34.4,52.9,33.4,51.7,33.4z"/>
				</g>
			</g>
			<g>
				<g>
					<path fill="#FFFFFF" d="M48.4,26.2c0,0.3-0.3,0.6-0.5,0.6c-0.3,0-0.6-0.3-0.6-0.6c0-0.3,0.2-0.6,0.6-0.6
						C48.1,25.6,48.4,25.9,48.4,26.2z"/>
					<path fill="#FFFFFF" d="M47.8,27.2L47.8,27.2c-0.3,0-0.6-0.1-0.8-0.3c-0.2-0.2-0.3-0.5-0.3-0.8c0-0.6,0.5-1,1.1-1
						c0.6,0,1,0.5,1,1.1C48.9,26.8,48.4,27.2,47.8,27.2L47.8,27.2z M47.9,26.2l-0.1,0l0.1,0.6L47.9,26.2
						C47.8,26.2,47.9,26.2,47.9,26.2z"/>
				</g>
				<g>
					<path fill="#FFFFFF" d="M52.3,26.2c0,0.3-0.2,0.6-0.6,0.6c-0.3,0-0.5-0.3-0.6-0.6c0-0.3,0.2-0.6,0.6-0.6
						C52,25.6,52.3,25.9,52.3,26.2z"/>
					<path fill="#FFFFFF" d="M51.7,27.2L51.7,27.2c-0.6,0-1-0.5-1.1-1c0-0.6,0.5-1.1,1.1-1.1c0.6,0,1,0.5,1,1.1
						c0,0.3-0.1,0.5-0.3,0.7C52.3,27.1,52,27.2,51.7,27.2z"/>
				</g>
				<g>
					<path fill="#FFFFFF" d="M56.1,26.2c0,0.3-0.2,0.6-0.6,0.6c-0.3,0-0.6-0.3-0.6-0.6c0-0.3,0.3-0.6,0.6-0.6
						C55.9,25.6,56.1,25.9,56.1,26.2z"/>
					<path fill="#FFFFFF" d="M55.6,27.2L55.6,27.2c-0.6,0-1.1-0.5-1.1-1.1c0-0.6,0.5-1.1,1-1.1c0.6,0,1.1,0.5,1.1,1.1
						C56.6,26.8,56.2,27.2,55.6,27.2L55.6,27.2z M55.5,26.2l0.1,0.6L55.5,26.2c0.1,0.1,0.1,0,0.1,0H55.5z"/>
				</g>
			</g>
		</g>
	</g>
	<g>
		<path fill="#FFFFFF" d="M30.6,39.4c0,1.4-1.1,2.5-2.5,2.5c-1.4,0-2.5-1.1-2.5-2.5c0-1.4,1.1-2.5,2.5-2.5
			C29.5,36.9,30.6,38,30.6,39.4z"/>
		<path fill="#37474F" d="M28.1,42.9c-1.9,0-3.5-1.6-3.5-3.5c0-1.9,1.6-3.5,3.5-3.5c1.9,0,3.5,1.6,3.5,3.5
			C31.6,41.3,30,42.9,28.1,42.9z M28.1,37.9c-0.8,0-1.5,0.7-1.5,1.5c0,0.8,0.7,1.5,1.5,1.5c0.8,0,1.5-0.7,1.5-1.5
			C29.6,38.6,28.9,37.9,28.1,37.9z"/>
	</g>
	<g>
		<rect x="25" y="25.2" fill="#B0BEC5" width="1.6" height="1.6"/>
	</g>
	<g>
		<rect x="27.6" y="25.2" fill="#B0BEC5" width="1.6" height="1.6"/>
	</g>
	<g>
		<rect x="30.2" y="25.2" fill="#B0BEC5" width="1.6" height="1.6"/>
	</g>
	<g>
		<line fill="#FFFFFF" x1="31.5" y1="39.1" x2="42.9" y2="39.1"/>
		<path fill="#37474F" d="M42.9,40.1H31.5c-0.6,0-1-0.4-1-1s0.4-1,1-1h11.4c0.6,0,1,0.4,1,1S43.5,40.1,42.9,40.1z"/>
	</g>
</g>
</svg>
