<?xml version="1.0" encoding="utf-8"?>
<!-- Generator: Adobe Illustrator 16.0.0, SVG Export Plug-In . SVG Version: 6.00 Build 0)  -->
<!DOCTYPE svg PUBLIC "-//W3C//DTD SVG 1.1//EN" "http://www.w3.org/Graphics/SVG/1.1/DTD/svg11.dtd">
<svg version="1.1" id="Layer_1" xmlns="http://www.w3.org/2000/svg" xmlns:xlink="http://www.w3.org/1999/xlink" x="0px" y="0px"
	 width="24px" height="24px" viewBox="0 0 24 24" enable-background="new 0 0 24 24" xml:space="preserve">
<g>
	<path d="M3.4,23.9h3.1h11.1h3.1c0.3,0,0.5-0.2,0.5-0.5s-0.2-0.5-0.5-0.5h-2.6V0.6c0-0.3-0.2-0.5-0.5-0.5H6.4
		c-0.3,0-0.5,0.2-0.5,0.5v22.2H3.4c-0.3,0-0.5,0.2-0.5,0.5S3.1,23.9,3.4,23.9z M6.9,1.1h10.1v21.7H6.9V1.1z"/>
	<path d="M15.8,8.4V2.9c0-0.3-0.2-0.5-0.5-0.5H8.7c-0.3,0-0.5,0.2-0.5,0.5v5.5C8,8.5,7.9,8.6,7.9,8.8S8,9.1,8.2,9.2v5.5
		c0,0.3,0.2,0.5,0.5,0.5h6.7c0.3,0,0.5-0.2,0.5-0.5V9.2C16,9.1,16.1,9,16.1,8.8S16,8.5,15.8,8.4z M14.8,8.3h-2.3V3.4h2.3V8.3z
		 M11.5,3.4v4.9H9.2V3.4H11.5z M9.2,9.3h2.3v4.9H9.2V9.3z M12.5,14.2V9.3h2.3v4.9H12.5z"/>
	<path d="M15.3,17.4c-0.3,0-0.5,0.2-0.5,0.5c0,0.4-0.3,0.7-0.7,0.7c-0.4,0-0.7-0.3-0.7-0.7c0-0.4,0.3-0.7,0.7-0.7
		c0.3,0,0.5-0.2,0.5-0.5s-0.2-0.5-0.5-0.5c-0.9,0-1.7,0.8-1.7,1.7c0,0.9,0.8,1.7,1.7,1.7c0.9,0,1.7-0.8,1.7-1.7
		C15.8,17.6,15.6,17.4,15.3,17.4z"/>
</g>
</svg>
