<?xml version="1.0" encoding="utf-8"?>
<!-- Generator: Adobe Illustrator 16.0.0, SVG Export Plug-In . SVG Version: 6.00 Build 0)  -->
<!DOCTYPE svg PUBLIC "-//W3C//DTD SVG 1.1//EN" "http://www.w3.org/Graphics/SVG/1.1/DTD/svg11.dtd">
<svg version="1.1" id="Layer_1" xmlns="http://www.w3.org/2000/svg" xmlns:xlink="http://www.w3.org/1999/xlink" x="0px" y="0px"
	 width="32px" height="32.4px" viewBox="0 0 32 32.4" enable-background="new 0 0 32 32.4" xml:space="preserve">
<g>
	<g>
		<line fill="#FFECB3" x1="16" y1="6.3" x2="16" y2="31.1"/>
		<path fill="#37474F" d="M16,31.6c-0.3,0-0.5-0.2-0.5-0.5V6.3c0-0.3,0.2-0.5,0.5-0.5s0.5,0.2,0.5,0.5v24.8
			C16.5,31.4,16.3,31.6,16,31.6z"/>
	</g>
	<g>
		<line fill="#FFECB3" x1="10.2" y1="31.4" x2="21.8" y2="31.4"/>
		<path fill="#37474F" d="M21.8,31.9H10.2c-0.3,0-0.5-0.2-0.5-0.5s0.2-0.5,0.5-0.5h11.6c0.3,0,0.5,0.2,0.5,0.5S22.1,31.9,21.8,31.9z
			"/>
	</g>
	<g>
		<circle fill="#FFECB3" cx="16" cy="2.1" r="1.5"/>
		<path fill="#37474F" d="M16,4.1c-1.1,0-2-0.9-2-2c0-1.1,0.9-2,2-2s2,0.9,2,2C18,3.2,17.1,4.1,16,4.1z M16,1.1c-0.6,0-1,0.5-1,1
			c0,0.6,0.5,1,1,1s1-0.5,1-1C17,1.5,16.6,1.1,16,1.1z"/>
	</g>
	<g>
		<polyline fill="#FFECB3" points="18.1,6.6 24.9,6.6 27.6,8.8 24.9,11.1 18.1,11.1 		"/>
		<path fill="#37474F" d="M24.9,11.6h-6.9c-0.3,0-0.5-0.2-0.5-0.5s0.2-0.5,0.5-0.5h6.7l2.1-1.8l-2.1-1.8h-6.7
			c-0.3,0-0.5-0.2-0.5-0.5s0.2-0.5,0.5-0.5h6.9c0.1,0,0.2,0,0.3,0.1l2.7,2.3c0.1,0.1,0.2,0.2,0.2,0.4S28,9.1,27.9,9.2l-2.7,2.3
			C25.2,11.6,25.1,11.6,24.9,11.6z"/>
	</g>
	<g>
		<polyline fill="#FFECB3" points="18.1,13.6 24.9,13.6 27.6,15.8 24.9,18.1 18.1,18.1 		"/>
		<path fill="#37474F" d="M24.9,18.6h-6.9c-0.3,0-0.5-0.2-0.5-0.5s0.2-0.5,0.5-0.5h6.7l2.1-1.8l-2.1-1.8h-6.7
			c-0.3,0-0.5-0.2-0.5-0.5s0.2-0.5,0.5-0.5h6.9c0.1,0,0.2,0,0.3,0.1l2.7,2.3c0.1,0.1,0.2,0.2,0.2,0.4s-0.1,0.3-0.2,0.4l-2.7,2.3
			C25.2,18.6,25.1,18.6,24.9,18.6z"/>
	</g>
	<g>
		<polyline fill="#FFAB00" points="13.9,11.1 7.1,11.1 4.4,8.8 7.1,6.6 13.9,6.6 		"/>
		<path fill="#37474F" d="M13.9,11.6H7.1c-0.1,0-0.2,0-0.3-0.1L4.1,9.2C4,9.1,3.9,9,3.9,8.8S4,8.5,4.1,8.5l2.7-2.3
			c0.1-0.1,0.2-0.1,0.3-0.1h6.9c0.3,0,0.5,0.2,0.5,0.5s-0.2,0.5-0.5,0.5H7.2L5.2,8.8l2.1,1.8h6.7c0.3,0,0.5,0.2,0.5,0.5
			S14.2,11.6,13.9,11.6z"/>
	</g>
</g>
</svg>
