<?xml version="1.0" encoding="utf-8"?>
<!-- Generator: Adobe Illustrator 16.0.0, SVG Export Plug-In . SVG Version: 6.00 Build 0)  -->
<!DOCTYPE svg PUBLIC "-//W3C//DTD SVG 1.1//EN" "http://www.w3.org/Graphics/SVG/1.1/DTD/svg11.dtd">
<svg version="1.1" id="Layer_1" xmlns="http://www.w3.org/2000/svg" xmlns:xlink="http://www.w3.org/1999/xlink" x="0px" y="0px"
	 width="24px" height="24px" viewBox="0 0 24 24" enable-background="new 0 0 24 24" xml:space="preserve">
<g>
	<path d="M14.5,5.4c-0.4,0-0.8,0.4-0.8,0.8C13.7,6.6,14,7,14.4,7h0c0.4,0,0.8-0.4,0.8-0.8c0-0.2-0.1-0.4-0.2-0.6
		C14.9,5.5,14.7,5.4,14.5,5.4z"/>
	<path d="M12.5,5.4c-0.4,0-0.8,0.4-0.8,0.8C11.7,6.6,12,7,12.4,7l0,0c0.4,0,0.8-0.3,0.8-0.8C13.2,5.7,12.9,5.4,12.5,5.4z"/>
	<path d="M10.5,5.4c-0.4,0-0.8,0.4-0.8,0.8C9.7,6.6,10,7,10.5,7h0l0,0c0.4,0,0.8-0.4,0.8-0.8C11.3,5.7,10.9,5.4,10.5,5.4z M10.5,6.5
		L10.5,6.5L10.5,6.5L10.5,6.5z"/>
	<path d="M23.7,19v-5.8c0-1-1-1.8-1.9-1.9V1.1c0-0.3-0.2-0.5-0.5-0.5H3.7c-0.3,0-0.5,0.2-0.5,0.5v10.5c-0.2,0-0.3-0.1-0.5-0.1
		c-1.2,0-2.4,0.9-2.4,2.2v5.6c0,0.8,0.5,1.4,1.1,1.8C1.1,21.4,1,21.7,1,22c0,0.3,0.2,0.5,0.5,0.5c0.3,0,0.5-0.2,0.5-0.5
		c0,0,0.1,0,0.2,0h1.7C3.9,22,4,22,4,22c0,0.1-0.1,0.2-0.2,0.2c-0.3,0-0.5,0.2-0.5,0.5s0.2,0.5,0.5,0.5C4.5,23.2,5,22.6,5,22
		c0-0.4-0.2-0.8-0.7-0.9c0.5-0.4,1-1,1-1.7v-5.6c0-0.6-0.3-1.1-0.7-1.5h7.7c-0.1,0-0.1,0.1-0.2,0.2l-0.8,1.6c0,0,0,0.1,0,0.1H6.7
		c-0.3,0-0.5,0.2-0.5,0.5v3.4v0.5v4.4h12.7v-3.7c0.1,0.6,0.5,1.1,1,1.4c-0.4,0.2-0.6,0.6-0.6,0.9c0,0.3,0.2,0.5,0.5,0.5
		c0.3,0,0.5-0.2,0.5-0.5c0,0,0.1,0,0.2,0h1.7c0.1,0,0.2,0,0.2,0c0,0.1-0.1,0.2-0.2,0.2c-0.3,0-0.5,0.2-0.5,0.5s0.2,0.5,0.5,0.5
		c0.7,0,1.2-0.5,1.2-1.2c0-0.4-0.2-0.8-0.7-0.9C23.2,20.3,23.7,19.7,23.7,19z M4.2,1.6h16.5v9.7H4.2V1.6z M1.3,13.7
		c0-0.7,0.8-1.2,1.4-1.2c0.7,0,1.4,0.5,1.4,1.2v5.6c0,0.5-0.4,0.9-0.9,1.1v-5.3c0-0.3-0.2-0.5-0.5-0.5s-0.5,0.2-0.5,0.5v5.3
		c-0.5-0.2-0.9-0.6-0.9-1.1V13.7z M19.1,12.3c-0.2,0.3-0.3,0.6-0.3,1v1.3c-0.1-0.2-0.2-0.4-0.5-0.4h-4.6c0,0,0-0.1,0-0.1l-0.8-1.6
		c0-0.1-0.1-0.1-0.2-0.2H19.1z M12.5,13.8l0.2,0.3h-0.3L12.5,13.8z M7.2,15.2h10.7v2.9H7.2V15.2z M17.8,21.9H7.2v-2.9h10.7V21.9z
		 M22.7,19c0,0.4-0.5,0.8-0.9,0.9v-4.8c0-0.3-0.2-0.5-0.5-0.5s-0.5,0.2-0.5,0.5V20c-0.4-0.1-0.9-0.4-0.9-0.9l0-5.8
		c0.1-0.7,0.6-1,1.4-1h0.2c0.6,0,1.3,0.5,1.3,1V19z"/>
	<path d="M16.4,15.8c-0.2,0-0.5,0.1-0.6,0.3H8.1v1h7.8v-0.3c0.1,0.1,0.3,0.2,0.5,0.2c0.4,0,0.6-0.3,0.6-0.6
		C17,16.1,16.7,15.8,16.4,15.8z"/>
	<path d="M8.6,21c0.2,0,0.4-0.1,0.5-0.3V21h7.8v-1H9.1v0c-0.1-0.2-0.3-0.3-0.5-0.3c-0.4,0-0.6,0.3-0.6,0.6C7.9,20.8,8.2,21,8.6,21z"
		/>
</g>
</svg>
