<?xml version="1.0" encoding="utf-8"?>
<!-- Generator: Adobe Illustrator 16.0.0, SVG Export Plug-In . SVG Version: 6.00 Build 0)  -->
<!DOCTYPE svg PUBLIC "-//W3C//DTD SVG 1.1//EN" "http://www.w3.org/Graphics/SVG/1.1/DTD/svg11.dtd">
<svg version="1.1" id="Layer_1" xmlns="http://www.w3.org/2000/svg" xmlns:xlink="http://www.w3.org/1999/xlink" x="0px" y="0px"
	 width="32px" height="32px" viewBox="0 0 32 32" enable-background="new 0 0 32 32" xml:space="preserve">
<g>
	<g>
		<line fill="#FFECB3" x1="11.2" y1="31.2" x2="20.8" y2="31.2"/>
		<path fill="#37474F" d="M20.8,31.7h-9.7c-0.3,0-0.5-0.2-0.5-0.5s0.2-0.5,0.5-0.5h9.7c0.3,0,0.5,0.2,0.5,0.5S21.1,31.7,20.8,31.7z"
			/>
	</g>
	<g>
		<g>
			<g>
				<path fill="#FFAB00" d="M16.1,27.1c2.5-4.6,9.1-13.9,9.1-18.2c0-4.3-4-7.9-9.1-8.1v0c0,0-0.1,0-0.1,0c0,0-0.1,0-0.1,0v0
					C10.8,1,6.8,4.5,6.8,8.9c0,4.3,6.6,13.6,9.1,18.2v0.4c0-0.1,0.1-0.1,0.1-0.2c0,0.1,0.1,0.2,0.1,0.2V27.1z"/>
				<path fill="#37474F" d="M16.1,28c0,0-0.1,0-0.1,0c-0.1,0-0.2,0-0.2,0c-0.2-0.1-0.4-0.3-0.4-0.5v-0.3c-0.6-1.1-1.5-2.5-2.4-3.9
					c-3-4.9-6.8-11-6.8-14.4c0-4.6,4.2-8.3,9.5-8.6c0,0,0.1,0,0.1,0L16,0.8l0-0.5c0,0,0.1,0,0.1,0l0,0c5.4,0.2,9.6,4,9.6,8.6
					c0,3.4-3.8,9.5-6.8,14.4c-0.9,1.5-1.7,2.8-2.4,3.9v0.3c0,0.2-0.2,0.4-0.4,0.5C16.2,28,16.2,28,16.1,28z M16,1.3
					C16,1.3,15.9,1.3,16,1.3c-4.9,0.2-8.7,3.6-8.7,7.6c0,3.1,3.8,9.3,6.6,13.8c0.8,1.3,1.5,2.5,2.1,3.5c0.6-1,1.3-2.2,2.1-3.5
					c2.8-4.5,6.6-10.8,6.6-13.8c0-4.1-3.8-7.4-8.6-7.6C16.1,1.3,16.1,1.3,16,1.3C16,1.3,16,1.3,16,1.3L16,1.3z"/>
			</g>
			<g>
				<circle fill="#FFECB3" cx="16" cy="9.5" r="4.5"/>
				<path fill="#37474F" d="M16,14.5c-2.8,0-5-2.2-5-5s2.2-5,5-5s5,2.2,5,5S18.8,14.5,16,14.5z M16,5.5c-2.2,0-4,1.8-4,4s1.8,4,4,4
					s4-1.8,4-4S18.2,5.5,16,5.5z"/>
			</g>
		</g>
		<g>
			<line fill="#FFECB3" x1="16" y1="29.5" x2="16" y2="27.1"/>
			<path fill="#37474F" d="M16,30c-0.3,0-0.5-0.2-0.5-0.5v-2.4c0-0.3,0.2-0.5,0.5-0.5s0.5,0.2,0.5,0.5v2.4C16.5,29.8,16.3,30,16,30z
				"/>
		</g>
	</g>
</g>
</svg>
