<?xml version="1.0" encoding="utf-8"?>
<!-- Generator: Adobe Illustrator 16.0.0, SVG Export Plug-In . SVG Version: 6.00 Build 0)  -->
<!DOCTYPE svg PUBLIC "-//W3C//DTD SVG 1.1//EN" "http://www.w3.org/Graphics/SVG/1.1/DTD/svg11.dtd">
<svg version="1.1" id="Layer_1" xmlns="http://www.w3.org/2000/svg" xmlns:xlink="http://www.w3.org/1999/xlink" x="0px" y="0px"
	 width="33px" height="33px" viewBox="0 0 33 33" enable-background="new 0 0 33 33" xml:space="preserve">
<g>
	<g>
		<path fill="#37474F" d="M32,31.5H15c-0.3,0-0.5-0.2-0.5-0.5v-6.5H1c-0.3,0-0.5-0.2-0.5-0.5V6c0-0.3,0.2-0.5,0.5-0.5h7.5
			C8.8,5.5,9,5.7,9,6S8.8,6.5,8.5,6.5h-7v17H15c0.3,0,0.5,0.2,0.5,0.5v6.5h16v-24h-8C23.2,6.5,23,6.3,23,6s0.2-0.5,0.5-0.5H32
			c0.3,0,0.5,0.2,0.5,0.5v25C32.5,31.3,32.3,31.5,32,31.5z"/>
	</g>
	<g>
		<path fill="#37474F" d="M26,31.5H15c-0.3,0-0.5-0.2-0.5-0.5v-7c0-0.3,0.2-0.5,0.5-0.5h11c0.3,0,0.5,0.2,0.5,0.5v7
			C26.5,31.3,26.3,31.5,26,31.5z M15.5,30.5h10v-6h-10V30.5z"/>
	</g>
	<g>
		<g>
			<line fill="#FFECB3" x1="24" y1="24.5" x2="24" y2="30.5"/>
			<path fill="#37474F" d="M24,31c-0.3,0-0.5-0.2-0.5-0.5v-6c0-0.3,0.2-0.5,0.5-0.5s0.5,0.2,0.5,0.5v6C24.5,30.8,24.3,31,24,31z"/>
		</g>
		<g>
			<line fill="#FFECB3" x1="21" y1="24.5" x2="21" y2="30.5"/>
			<path fill="#37474F" d="M21,31c-0.3,0-0.5-0.2-0.5-0.5v-6c0-0.3,0.2-0.5,0.5-0.5s0.5,0.2,0.5,0.5v6C21.5,30.8,21.3,31,21,31z"/>
		</g>
		<g>
			<line fill="#FFECB3" x1="18" y1="24.5" x2="18" y2="30.5"/>
			<path fill="#37474F" d="M18,31c-0.3,0-0.5-0.2-0.5-0.5v-6c0-0.3,0.2-0.5,0.5-0.5s0.5,0.2,0.5,0.5v6C18.5,30.8,18.3,31,18,31z"/>
		</g>
	</g>
	<g>
		<polyline fill="#FFFFFF" points="8.5,24 19,24 19,14 13.5,14 		"/>
		<path fill="#37474F" d="M19,24.5H8.5C8.2,24.5,8,24.3,8,24s0.2-0.5,0.5-0.5h10v-9h-5c-0.3,0-0.5-0.2-0.5-0.5s0.2-0.5,0.5-0.5H19
			c0.3,0,0.5,0.2,0.5,0.5v10C19.5,24.3,19.3,24.5,19,24.5z"/>
	</g>
	<g>
		<polyline fill="#FFFFFF" points="1.5,24 7,24 7,14 4.5,14 		"/>
		<path fill="#37474F" d="M7,24.5H1.5C1.2,24.5,1,24.3,1,24s0.2-0.5,0.5-0.5h5v-9h-2C4.2,14.5,4,14.3,4,14s0.2-0.5,0.5-0.5H7
			c0.3,0,0.5,0.2,0.5,0.5v10C7.5,24.3,7.3,24.5,7,24.5z"/>
	</g>
	<g>
		<polyline fill="#FFFFFF" points="20.5,24 26,24 26,17.5 		"/>
		<path fill="#37474F" d="M26,24.5h-5.5c-0.3,0-0.5-0.2-0.5-0.5s0.2-0.5,0.5-0.5h5v-6c0-0.3,0.2-0.5,0.5-0.5s0.5,0.2,0.5,0.5V24
			C26.5,24.3,26.3,24.5,26,24.5z"/>
	</g>
	<g>
		<polyline fill="#FFFFFF" points="25.6,14 25.6,14 18.5,14 		"/>
		<path fill="#37474F" d="M25.6,14.5h-7.1c-0.3,0-0.5-0.2-0.5-0.5s0.2-0.5,0.5-0.5h7.1c0.3,0,0.5,0.2,0.5,0.5S25.9,14.5,25.6,14.5z"
			/>
	</g>
	<g>
		<polyline fill="#FFFFFF" points="9.4,14 9.4,14 6.5,14 		"/>
		<path fill="#37474F" d="M9.4,14.5H6.5C6.2,14.5,6,14.3,6,14s0.2-0.5,0.5-0.5h2.9c0.3,0,0.5,0.2,0.5,0.5S9.7,14.5,9.4,14.5z"/>
	</g>
	<g>
		<polyline fill="#FFFFFF" points="15.9,10.5 9.2,12.8 11.5,6.2 		"/>
		<path fill="#37474F" d="M9.2,13.3c-0.1,0-0.3-0.1-0.4-0.1c-0.1-0.1-0.2-0.3-0.1-0.5L11,6c0.1-0.3,0.4-0.4,0.6-0.3
			c0.3,0.1,0.4,0.4,0.3,0.6L10,12l5.6-1.9c0.3-0.1,0.5,0,0.6,0.3c0.1,0.3,0,0.5-0.3,0.6l-6.6,2.3C9.4,13.3,9.3,13.3,9.2,13.3z"/>
	</g>
	<g>
		<polyline fill="#FFECB3" points="15.1,2.4 12.1,5.4 16.5,9.9 24.2,2.2 		"/>
		<path fill="#37474F" d="M16.5,10.4c-0.1,0-0.3,0-0.4-0.1l-4.5-4.5c-0.2-0.2-0.2-0.5,0-0.7L14.8,2c0.2-0.2,0.5-0.2,0.7,0
			s0.2,0.5,0,0.7l-2.7,2.7l3.8,3.8l7.3-7.3c0.2-0.2,0.5-0.2,0.7,0s0.2,0.5,0,0.7l-7.7,7.7C16.8,10.4,16.7,10.4,16.5,10.4z"/>
	</g>
	<g>
		<polyline fill="#FFAB00" points="15.1,2.4 12.1,5.4 14.3,7.7 19.9,2.2 		"/>
		<path fill="#37474F" d="M14.3,8.2c-0.1,0-0.3,0-0.4-0.1l-2.3-2.3c-0.2-0.2-0.2-0.5,0-0.7L14.8,2c0.2-0.2,0.5-0.2,0.7,0
			s0.2,0.5,0,0.7l-2.7,2.7L14.3,7l5.2-5.2c0.2-0.2,0.5-0.2,0.7,0s0.2,0.5,0,0.7L14.7,8C14.6,8.1,14.5,8.2,14.3,8.2z"/>
	</g>
	<g>
		<line fill="#FFFFFF" x1="10.5" y1="9.2" x2="12.7" y2="11.4"/>
		<path fill="#37474F" d="M12.7,11.9c-0.1,0-0.3,0-0.4-0.1l-2.2-2.2c-0.2-0.2-0.2-0.5,0-0.7s0.5-0.2,0.7,0l2.2,2.2
			c0.2,0.2,0.2,0.5,0,0.7C13,11.9,12.8,11.9,12.7,11.9z"/>
	</g>
	<g>
		<path fill="#37474F" d="M15,24.5h-5c-0.3,0-0.5-0.2-0.5-0.5v-7c0-0.3,0.2-0.5,0.5-0.5h5c0.3,0,0.5,0.2,0.5,0.5v7
			C15.5,24.3,15.3,24.5,15,24.5z M10.5,23.5h4v-6h-4V23.5z"/>
	</g>
	<g>
		<path fill="#37474F" d="M5.2,23.9c-0.3,0-0.5-0.2-0.5-0.5c0-1.8-1.4-3.2-3.2-3.2c-0.3,0-0.5-0.2-0.5-0.5s0.2-0.5,0.5-0.5
			c2.3,0,4.2,1.9,4.2,4.2C5.7,23.7,5.5,23.9,5.2,23.9z"/>
	</g>
</g>
</svg>
