<?xml version="1.0" encoding="utf-8"?>
<!-- Generator: Adobe Illustrator 16.0.0, SVG Export Plug-In . SVG Version: 6.00 Build 0)  -->
<!DOCTYPE svg PUBLIC "-//W3C//DTD SVG 1.1//EN" "http://www.w3.org/Graphics/SVG/1.1/DTD/svg11.dtd">
<svg version="1.1" id="Layer_1" xmlns="http://www.w3.org/2000/svg" xmlns:xlink="http://www.w3.org/1999/xlink" x="0px" y="0px"
	 width="128px" height="128px" viewBox="0 0 128 128" enable-background="new 0 0 128 128" xml:space="preserve">
<g>
	<g>
		<g>
			<rect x="18.5" y="103" fill="#B0BEC5" width="10" height="8"/>
			<path fill="#37474F" d="M28.5,112.5h-10c-0.8,0-1.5-0.7-1.5-1.5v-8c0-0.8,0.7-1.5,1.5-1.5h10c0.8,0,1.5,0.7,1.5,1.5v8
				C30,111.8,29.3,112.5,28.5,112.5z M20,109.5h7v-5h-7V109.5z"/>
		</g>
		<g>
			<rect x="99.5" y="103" fill="#B0BEC5" width="9" height="8"/>
			<path fill="#37474F" d="M108.5,112.5h-9c-0.8,0-1.5-0.7-1.5-1.5v-8c0-0.8,0.7-1.5,1.5-1.5h9c0.8,0,1.5,0.7,1.5,1.5v8
				C110,111.8,109.3,112.5,108.5,112.5z M101,109.5h6v-5h-6V109.5z"/>
		</g>
	</g>
	<g>
		<path fill="#FFFFFF" d="M125.5,92.1c0,7.3-6.1,12.9-13.4,12.9H15.4c-7.3,0-12.9-5.6-12.9-12.9V30.5C2.5,23.2,8.1,17,15.4,17h96.7
			c7.3,0,13.4,6.2,13.4,13.5V92.1z"/>
		<path fill="#37474F" d="M112.1,106.5H15.4C7.3,106.5,1,100.2,1,92.1V30.5c0-8.3,6.5-15,14.4-15h96.7c8.1,0,14.9,6.9,14.9,15v61.6
			C127,100,120.3,106.5,112.1,106.5z M15.4,18.5C9.1,18.5,4,23.9,4,30.5v61.6c0,6.5,4.9,11.4,11.4,11.4h96.7
			c6.5,0,11.9-5.1,11.9-11.4V30.5c0-6.5-5.4-12-11.9-12H15.4z"/>
	</g>
	<g>
		<g>
			<g>
				<g>
					<line fill="#FFAB00" x1="94" y1="80" x2="103" y2="80"/>
					<path fill="#37474F" d="M103,81.5h-9c-0.8,0-1.5-0.7-1.5-1.5s0.7-1.5,1.5-1.5h9c0.8,0,1.5,0.7,1.5,1.5S103.8,81.5,103,81.5z"/>
				</g>
				<g>
					<line fill="#FFAB00" x1="94" y1="87" x2="103" y2="87"/>
					<path fill="#37474F" d="M103,88.5h-9c-0.8,0-1.5-0.7-1.5-1.5s0.7-1.5,1.5-1.5h9c0.8,0,1.5,0.7,1.5,1.5S103.8,88.5,103,88.5z"/>
				</g>
				<g>
					<line fill="#FFAB00" x1="94" y1="93" x2="103" y2="93"/>
					<path fill="#37474F" d="M103,94.5h-9c-0.8,0-1.5-0.7-1.5-1.5s0.7-1.5,1.5-1.5h9c0.8,0,1.5,0.7,1.5,1.5S103.8,94.5,103,94.5z"/>
				</g>
			</g>
			<g>
				<g>
					<line fill="#FFAB00" x1="109" y1="80" x2="118" y2="80"/>
					<path fill="#37474F" d="M118,81.5h-9c-0.8,0-1.5-0.7-1.5-1.5s0.7-1.5,1.5-1.5h9c0.8,0,1.5,0.7,1.5,1.5S118.8,81.5,118,81.5z"/>
				</g>
				<g>
					<line fill="#FFAB00" x1="109" y1="87" x2="118" y2="87"/>
					<path fill="#37474F" d="M118,88.5h-9c-0.8,0-1.5-0.7-1.5-1.5s0.7-1.5,1.5-1.5h9c0.8,0,1.5,0.7,1.5,1.5S118.8,88.5,118,88.5z"/>
				</g>
				<g>
					<line fill="#FFAB00" x1="109" y1="93" x2="118" y2="93"/>
					<path fill="#37474F" d="M118,94.5h-9c-0.8,0-1.5-0.7-1.5-1.5s0.7-1.5,1.5-1.5h9c0.8,0,1.5,0.7,1.5,1.5S118.8,94.5,118,94.5z"/>
				</g>
			</g>
		</g>
		<g>
			<rect x="94.5" y="62" fill="#FFAB00" width="24" height="7"/>
			<path fill="#37474F" d="M118.5,70.5h-24c-0.8,0-1.5-0.7-1.5-1.5v-7c0-0.8,0.7-1.5,1.5-1.5h24c0.8,0,1.5,0.7,1.5,1.5v7
				C120,69.8,119.3,70.5,118.5,70.5z M96,67.5h21v-4H96V67.5z"/>
		</g>
	</g>
	<g>
		<g>
			<path fill="#FFAB00" d="M125.5,33v-2.5c0-7.3-6.1-13.5-13.4-13.5H15.4C8.1,17,2.5,23.2,2.5,30.5V33H125.5z"/>
			<path fill="#37474F" d="M125.5,34.5H2.5C1.7,34.5,1,33.8,1,33v-2.5c0-8.3,6.5-15,14.4-15h96.7c8.1,0,14.9,6.9,14.9,15V33
				C127,33.8,126.3,34.5,125.5,34.5z M4,31.5h120v-1c0-6.5-5.4-12-11.9-12H15.4C9.1,18.5,4,23.9,4,30.5V31.5z"/>
		</g>
	</g>
	<g>
		<g>
			<path fill="#37474F" d="M86.5,83.8c0,5.3-3.3,9.2-7.8,9.2H19.1c-4.5,0-8.6-3.8-8.6-9.2V38.8c0-5.3,4.1-9.8,8.6-9.8h59.6
				c4.5,0,7.8,4.4,7.8,9.8V83.8z"/>
			<path fill="#37474F" d="M78.7,94.5H19.1C13.5,94.5,9,89.7,9,83.8V38.8c0-6,4.7-11.3,10.1-11.3h59.6c5.2,0,9.3,5,9.3,11.3v45.1
				C88,90,84.1,94.5,78.7,94.5z M19.1,30.5c-3.8,0-7.1,3.9-7.1,8.3v45.1c0,4.7,3.7,7.7,7.1,7.7h59.6c3.7,0,6.3-3.2,6.3-7.7V38.8
				c0-4.6-2.8-8.3-6.3-8.3H19.1z"/>
		</g>
		<g>
			<g>
				<g>
					<path fill="#FFFFFF" d="M59.9,50.4c0-1,0.9-1.8,1.8-1.8c1,0,1.9,0.8,1.8,1.8c0,1-0.8,1.8-1.8,1.8
						C60.8,52.2,59.9,51.4,59.9,50.4z"/>
					<path fill="#FFFFFF" d="M61.8,52.7c-1.3,0-2.3-1.1-2.3-2.3c0-1.3,1.1-2.3,2.3-2.3c0.6,0,1.3,0.3,1.7,0.7c0.4,0.4,0.7,1,0.6,1.6
						C64.1,51.7,63.1,52.7,61.8,52.7z M61.8,49.1c-0.7,0-1.3,0.6-1.3,1.3c0,0.7,0.6,1.3,1.3,1.3c0.7,0,1.3-0.6,1.3-1.3
						c0-0.4-0.1-0.7-0.4-0.9C62.5,49.2,62.1,49.1,61.8,49.1z"/>
				</g>
				<g>
					<path fill="#FFFFFF" d="M47.1,50.4c0-1,0.8-1.8,1.8-1.8c1,0,1.8,0.8,1.9,1.8c0,1-0.9,1.8-1.9,1.8
						C47.9,52.2,47.1,51.4,47.1,50.4z"/>
					<path fill="#FFFFFF" d="M48.9,52.7c-1.3,0-2.3-1-2.3-2.3c0-0.6,0.2-1.2,0.6-1.6c0.4-0.4,1-0.7,1.7-0.7c1.3,0,2.3,1,2.4,2.3
						C51.3,51.7,50.2,52.7,48.9,52.7z M48.9,49.1c-0.4,0-0.7,0.1-0.9,0.4c-0.2,0.2-0.4,0.6-0.4,0.9c0,0.7,0.6,1.3,1.3,1.3
						c0.7,0,1.4-0.6,1.4-1.3C50.3,49.7,49.7,49.1,48.9,49.1z"/>
				</g>
				<g>
					<path fill="#FFFFFF" d="M34.2,50.4c0-1,0.9-1.8,1.8-1.8c1,0,1.8,0.8,1.8,1.8c0,1-0.8,1.8-1.8,1.8
						C35.1,52.2,34.2,51.4,34.2,50.4z"/>
					<path fill="#FFFFFF" d="M36.1,52.7c-1.3,0-2.3-1.1-2.3-2.3c0-1.3,1.1-2.3,2.3-2.3c1.3,0,2.3,1,2.3,2.3
						C38.4,51.7,37.4,52.7,36.1,52.7z M36.1,49.1c-0.7,0-1.3,0.6-1.3,1.3c0,0.7,0.6,1.3,1.3,1.3c0.7,0,1.3-0.6,1.3-1.3
						C37.4,49.7,36.8,49.1,36.1,49.1z"/>
				</g>
			</g>
			<g>
				<g>
					<path fill="#FFFFFF" d="M59.9,61.3c0-1,0.9-1.8,1.8-1.8c1,0,1.9,0.8,1.8,1.8c0,1-0.8,1.9-1.8,1.9
						C60.8,63.1,59.9,62.3,59.9,61.3z"/>
					<path fill="#FFFFFF" d="M61.8,63.6c-1.3,0-2.3-1.1-2.3-2.4c0-1.3,1.1-2.3,2.3-2.3c0.6,0,1.3,0.3,1.7,0.7c0.4,0.4,0.7,1,0.6,1.6
						C64.1,62.6,63.1,63.6,61.8,63.6z M61.8,60c-0.7,0-1.3,0.6-1.3,1.3c0,0.7,0.6,1.4,1.3,1.4c0.7,0,1.3-0.6,1.3-1.4
						c0-0.4-0.1-0.7-0.3-0.9C62.5,60.1,62.1,60,61.8,60z"/>
				</g>
				<g>
					<path fill="#FFFFFF" d="M47.1,61.3c0-1,0.8-1.8,1.8-1.8c1,0,1.8,0.8,1.9,1.8c0,1-0.9,1.9-1.9,1.9
						C47.9,63.1,47.1,62.3,47.1,61.3z"/>
					<path fill="#FFFFFF" d="M48.9,63.6c-1.2,0-2.3-1.1-2.3-2.4c0-0.6,0.2-1.2,0.6-1.6c0.4-0.4,1-0.7,1.7-0.7c1.3,0,2.3,1,2.4,2.3
						C51.3,62.6,50.2,63.6,48.9,63.6z M48.9,60c-0.4,0-0.7,0.1-0.9,0.4c-0.2,0.2-0.4,0.6-0.4,0.9c0,0.7,0.6,1.4,1.3,1.4
						c0.7,0,1.4-0.6,1.4-1.4C50.3,60.5,49.7,60,48.9,60z"/>
				</g>
				<g>
					<path fill="#FFFFFF" d="M34.2,61.3c0-1,0.9-1.8,1.8-1.8c1,0,1.8,0.8,1.8,1.8c0,1-0.8,1.9-1.8,1.9
						C35.1,63.1,34.2,62.3,34.2,61.3z"/>
					<path fill="#FFFFFF" d="M36.1,63.6c-1.3,0-2.3-1.1-2.3-2.4c0-1.3,1.1-2.3,2.3-2.3c1.3,0,2.3,1,2.3,2.3
						C38.4,62.6,37.4,63.6,36.1,63.6z M36.1,60c-0.7,0-1.3,0.6-1.3,1.3c0,0.7,0.6,1.4,1.3,1.4c0.7,0,1.3-0.6,1.3-1.4
						C37.4,60.5,36.8,60,36.1,60z"/>
				</g>
			</g>
			<g>
				<g>
					<path fill="#FFFFFF" d="M59.9,72.2c0-1,0.9-1.8,1.8-1.8c1,0,1.9,0.8,1.8,1.8c0,1-0.8,1.8-1.8,1.8C60.8,74,59.9,73.2,59.9,72.2z
						"/>
					<path fill="#FFFFFF" d="M61.8,74.5c-1.3,0-2.3-1.1-2.3-2.3c0-1.3,1.1-2.3,2.3-2.3c0.6,0,1.3,0.3,1.7,0.7c0.4,0.4,0.7,1,0.6,1.6
						C64.1,73.5,63.1,74.5,61.8,74.5z M61.8,70.9c-0.7,0-1.3,0.6-1.3,1.3c0,0.7,0.6,1.3,1.3,1.3c0.8,0,1.3-0.6,1.3-1.3
						c0-0.4-0.1-0.7-0.3-0.9C62.5,71,62.1,70.9,61.8,70.9z"/>
				</g>
				<g>
					<path fill="#FFFFFF" d="M47.1,72.2c0-1,0.8-1.8,1.8-1.8c1,0,1.8,0.8,1.9,1.8c0,1-0.9,1.8-1.9,1.8C47.9,74,47.1,73.2,47.1,72.2z
						"/>
					<path fill="#FFFFFF" d="M48.9,74.5c-1.3,0-2.3-1-2.3-2.3c0-0.6,0.2-1.2,0.6-1.6c0.4-0.4,1-0.7,1.7-0.7c1.3,0,2.3,1,2.4,2.3
						C51.3,73.5,50.2,74.5,48.9,74.5z M48.9,70.9c-0.4,0-0.7,0.1-0.9,0.4c-0.2,0.2-0.4,0.6-0.4,0.9c0,0.8,0.6,1.3,1.3,1.3
						c0.7,0,1.4-0.6,1.4-1.4C50.3,71.4,49.7,70.9,48.9,70.9z"/>
				</g>
				<g>
					<path fill="#FFFFFF" d="M34.2,72.2c0-1,0.9-1.8,1.8-1.8c1,0,1.8,0.8,1.8,1.8c0,1-0.8,1.8-1.8,1.8C35.1,74,34.2,73.2,34.2,72.2z
						"/>
					<path fill="#FFFFFF" d="M36.1,74.5c-1.3,0-2.3-1-2.3-2.3c0-1.3,1.1-2.3,2.3-2.3c1.3,0,2.3,1,2.3,2.3
						C38.4,73.5,37.4,74.5,36.1,74.5z M36.1,70.9c-0.7,0-1.3,0.6-1.3,1.3c0,0.7,0.6,1.3,1.3,1.3c0.7,0,1.3-0.6,1.3-1.3
						C37.4,71.4,36.8,70.9,36.1,70.9z"/>
				</g>
			</g>
		</g>
	</g>
	<g>
		<path fill="#B0BEC5" d="M113.7,45.9c0,4.1-3.3,7.4-7.4,7.4c-4.1,0-7.4-3.3-7.4-7.4c0-4.1,3.3-7.4,7.4-7.4
			C110.4,38.5,113.7,41.8,113.7,45.9z"/>
		<path fill="#37474F" d="M106.3,54.8c-4.9,0-8.9-4-8.9-8.9s4-8.9,8.9-8.9s8.9,4,8.9,8.9S111.2,54.8,106.3,54.8z M106.3,40
			c-3.3,0-5.9,2.7-5.9,5.9s2.7,5.9,5.9,5.9s5.9-2.7,5.9-5.9S109.6,40,106.3,40z"/>
	</g>
</g>
</svg>
