<?xml version="1.0" encoding="utf-8"?>
<!-- Generator: Adobe Illustrator 16.0.0, SVG Export Plug-In . SVG Version: 6.00 Build 0)  -->
<!DOCTYPE svg PUBLIC "-//W3C//DTD SVG 1.1//EN" "http://www.w3.org/Graphics/SVG/1.1/DTD/svg11.dtd">
<svg version="1.1" id="Layer_1" xmlns="http://www.w3.org/2000/svg" xmlns:xlink="http://www.w3.org/1999/xlink" x="0px" y="0px"
	 width="24px" height="24px" viewBox="0 0 24 24" enable-background="new 0 0 24 24" xml:space="preserve">
<g>
	<path d="M21.7,2H4.5C4.2,2,4,2.2,4,2.5S4.2,3,4.5,3h17.2c0.2,0,0.8,0.5,0.8,0.9v8.3c0,0.4-0.5,0.8-0.8,0.8L1.6,13
		c0,0-0.1-0.2-0.1-0.8V4c0-0.3-0.2-0.5-0.5-0.5S0.5,3.7,0.5,4v8.2c0,0.5,0,1.8,1.1,1.8h20.1c0.8,0,1.8-0.8,1.8-1.8V3.9
		C23.5,3,22.6,2,21.7,2z"/>
	<path d="M3.5,9h16C19.8,9,20,8.8,20,8.5S19.8,8,19.5,8h-16C3.2,8,3,8.2,3,8.5S3.2,9,3.5,9z"/>
	<path d="M3.5,11h16c0.3,0,0.5-0.2,0.5-0.5S19.8,10,19.5,10h-16C3.2,10,3,10.2,3,10.5S3.2,11,3.5,11z"/>
	<path d="M4,6.9c0.3,0,0.5-0.2,0.5-0.5V5.5h0.9c0.3,0,0.5-0.2,0.5-0.5S5.6,4.5,5.3,4.5H4C3.7,4.5,3.5,4.7,3.5,5v1.4
		C3.5,6.6,3.7,6.9,4,6.9z"/>
	<path d="M20,5.5c0-1.2-1-2.1-2.1-2.1c-1.2,0-2.1,1-2.1,2.1c0,1.2,1,2.1,2.1,2.1C19.1,7.6,20,6.7,20,5.5z M16.8,5.5
		c0-0.6,0.5-1.1,1.1-1.1c0.6,0,1.1,0.5,1.1,1.1c0,0.6-0.5,1.1-1.1,1.1C17.3,6.6,16.8,6.1,16.8,5.5z"/>
	<path d="M5.1,15.8c0.2,0,0.4-0.1,0.6-0.2c0.1-0.2,0.2-0.4,0.2-0.6c0-0.4-0.4-0.8-0.8-0.8c-0.4,0-0.8,0.4-0.8,0.8
		C4.3,15.5,4.6,15.8,5.1,15.8z"/>
	<path d="M5.1,17.9L5.1,17.9c0.4,0,0.8-0.3,0.8-0.8c0-0.4-0.4-0.8-0.8-0.8c-0.4,0-0.8,0.4-0.8,0.8C4.3,17.6,4.6,17.9,5.1,17.9z"/>
	<path d="M5.1,20c0.2,0,0.4-0.1,0.6-0.2c0.1-0.2,0.2-0.4,0.2-0.5c0-0.2-0.1-0.4-0.2-0.6c-0.1-0.2-0.4-0.2-0.6-0.2
		c-0.4,0-0.8,0.4-0.8,0.8C4.3,19.6,4.6,20,5.1,20z"/>
	<path d="M8.4,15.8c0.2,0,0.4-0.1,0.6-0.2c0.1-0.2,0.2-0.4,0.2-0.5c0-0.4-0.4-0.8-0.8-0.8c-0.4,0-0.8,0.4-0.8,0.8
		C7.6,15.5,7.9,15.8,8.4,15.8z"/>
	<path d="M8.4,17.9L8.4,17.9c0.4,0,0.8-0.3,0.8-0.8c0-0.4-0.4-0.8-0.8-0.8c-0.4,0-0.8,0.4-0.8,0.8C7.6,17.6,7.9,17.9,8.4,17.9z"/>
	<path d="M8.4,20c0.2,0,0.4-0.1,0.6-0.2c0.1-0.2,0.2-0.4,0.2-0.5c0-0.2-0.1-0.4-0.2-0.6c-0.1-0.2-0.4-0.2-0.6-0.2
		c-0.4,0-0.8,0.4-0.8,0.8C7.6,19.6,7.9,20,8.4,20z"/>
	<path d="M11.7,15.8c0.2,0,0.4-0.1,0.6-0.2c0.1-0.2,0.2-0.4,0.2-0.6c0-0.4-0.4-0.8-0.8-0.8c-0.4,0-0.8,0.4-0.8,0.8
		C10.9,15.5,11.2,15.8,11.7,15.8z"/>
	<path d="M11.7,17.9L11.7,17.9c0.4,0,0.8-0.3,0.8-0.8c0-0.4-0.4-0.8-0.8-0.8c-0.4,0-0.8,0.4-0.8,0.8C10.9,17.6,11.2,17.9,11.7,17.9z
		"/>
	<path d="M11.7,20c0.2,0,0.4-0.1,0.6-0.2c0.1-0.2,0.2-0.4,0.2-0.5c0-0.2-0.1-0.4-0.2-0.6c-0.1-0.2-0.4-0.2-0.6-0.2
		c-0.4,0-0.8,0.4-0.8,0.8C10.9,19.6,11.2,20,11.7,20z"/>
	<path d="M15,15.8c0.2,0,0.4-0.1,0.6-0.2c0.1-0.2,0.2-0.4,0.2-0.5c0-0.4-0.4-0.8-0.8-0.8c-0.4,0-0.8,0.4-0.8,0.8
		C14.2,15.5,14.5,15.8,15,15.8z"/>
	<path d="M14.9,17.9L14.9,17.9c0.4,0,0.8-0.3,0.8-0.8c0-0.4-0.4-0.8-0.8-0.8c-0.4,0-0.8,0.4-0.8,0.8C14.2,17.6,14.5,17.9,14.9,17.9z
		"/>
	<path d="M15,20c0.2,0,0.4-0.1,0.6-0.2c0.1-0.2,0.2-0.4,0.2-0.5c0-0.2-0.1-0.4-0.2-0.6c-0.1-0.2-0.4-0.2-0.6-0.2
		c-0.4,0-0.8,0.4-0.8,0.8C14.2,19.6,14.5,20,15,20z"/>
	<path d="M18.2,15.8c0.2,0,0.4-0.1,0.6-0.2s0.2-0.4,0.2-0.5c0-0.4-0.4-0.8-0.8-0.8c-0.4,0-0.8,0.4-0.8,0.8
		C17.4,15.5,17.8,15.8,18.2,15.8z"/>
	<path d="M18.2,17.9L18.2,17.9c0.4,0,0.8-0.3,0.8-0.8c0-0.4-0.4-0.8-0.8-0.8c-0.4,0-0.8,0.4-0.8,0.8C17.4,17.6,17.8,17.9,18.2,17.9z
		"/>
	<path d="M18.2,20c0.2,0,0.4-0.1,0.6-0.2c0.1-0.2,0.2-0.4,0.2-0.5c0-0.2-0.1-0.4-0.2-0.6c-0.1-0.2-0.4-0.2-0.6-0.2
		c-0.4,0-0.8,0.4-0.8,0.8C17.4,19.6,17.8,20,18.2,20z"/>
	<path d="M5.1,20.3l-0.5,0.5l-0.5-0.5c-0.2-0.2-0.5-0.2-0.7,0c-0.2,0.2-0.2,0.5,0,0.7l0.9,0.8C4.3,22,4.5,22,4.6,22s0.3,0,0.4-0.1
		L5.8,21c0.2-0.2,0.2-0.5,0-0.7C5.6,20.1,5.3,20.1,5.1,20.3z"/>
	<path d="M8.6,20.3l-0.5,0.5l-0.5-0.5c-0.2-0.2-0.5-0.2-0.7,0s-0.2,0.5,0,0.7l0.8,0.8C7.9,22,8,22,8.1,22c0.1,0,0.3,0,0.4-0.1
		L9.3,21c0.2-0.2,0.2-0.5,0-0.7C9.1,20.1,8.8,20.1,8.6,20.3z"/>
	<path d="M12.2,20.3l-0.5,0.5l-0.5-0.5c-0.2-0.2-0.5-0.2-0.7,0c-0.2,0.2-0.2,0.5,0,0.7l0.9,0.8c0.1,0.1,0.2,0.1,0.4,0.1
		c0.1,0,0.3,0,0.4-0.1l0.9-0.8c0.2-0.2,0.2-0.5,0-0.7C12.7,20.1,12.4,20.1,12.2,20.3z"/>
	<path d="M15.7,20.3l-0.5,0.5l-0.5-0.5c-0.2-0.2-0.5-0.2-0.7,0c-0.2,0.2-0.2,0.5,0,0.7l0.9,0.8c0.1,0.1,0.2,0.1,0.4,0.1
		s0.3,0,0.4-0.1l0.9-0.8c0.2-0.2,0.2-0.5,0-0.7C16.2,20.1,15.9,20.1,15.7,20.3z"/>
	<path d="M19.2,20.3l-0.5,0.5l-0.5-0.5c-0.2-0.2-0.5-0.2-0.7,0c-0.2,0.2-0.2,0.5,0,0.7l0.9,0.8c0.1,0.1,0.2,0.1,0.4,0.1
		s0.3,0,0.4-0.1l0.9-0.8c0.2-0.2,0.2-0.5,0-0.7C19.7,20.1,19.4,20.1,19.2,20.3z"/>
</g>
</svg>
