<?xml version="1.0" encoding="utf-8"?>
<!-- Generator: Adobe Illustrator 16.0.0, SVG Export Plug-In . SVG Version: 6.00 Build 0)  -->
<!DOCTYPE svg PUBLIC "-//W3C//DTD SVG 1.1//EN" "http://www.w3.org/Graphics/SVG/1.1/DTD/svg11.dtd">
<svg version="1.1" id="Layer_1" xmlns="http://www.w3.org/2000/svg" xmlns:xlink="http://www.w3.org/1999/xlink" x="0px" y="0px"
	 width="24px" height="24px" viewBox="0 0 24 24" enable-background="new 0 0 24 24" xml:space="preserve">
<g>
	<path d="M3.5,17.6c-1.2-1.7-1.8-3.7-1.8-5.8C1.8,10.5,2,9.2,2.5,8c0.1-0.3,0-0.5-0.3-0.6C2,7.2,1.7,7.4,1.6,7.6
		C1,9,0.8,10.4,0.8,11.8c0,2.3,0.7,4.5,2,6.3c0.1,0.1,0.3,0.2,0.4,0.2c0.1,0,0.2,0,0.3-0.1C3.6,18.1,3.7,17.8,3.5,17.6z"/>
	<path d="M22.7,8.2C22.6,8,22.3,7.8,22,7.9c-0.3,0.1-0.4,0.4-0.3,0.6c0.4,1,0.5,2.1,0.5,3.3c0,3.3-1.5,6.3-4.1,8.2
		c-0.2,0.2-0.3,0.5-0.1,0.7c0.1,0.1,0.2,0.2,0.4,0.2c0.1,0,0.2,0,0.3-0.1c2.8-2.1,4.5-5.5,4.5-9C23.2,10.6,23,9.4,22.7,8.2z"/>
	<path d="M12,1.6c0.5,0,1,0,1.4,0.1c0,0,0,0,0.1,0c0.2,0,0.5-0.2,0.5-0.4c0-0.3-0.2-0.5-0.4-0.6c-0.5-0.1-1-0.1-1.6-0.1
		c-0.3,0-0.5,0.2-0.5,0.5S11.7,1.6,12,1.6z"/>
	<path d="M6.8,10.8c0.2,0,0.4-0.1,0.6-0.3c0.2-0.2,0.2-0.4,0.2-0.6c0-0.5-0.4-0.8-0.8-0.8c-0.2,0-0.4,0.1-0.6,0.2
		C6.1,9.6,6,9.8,6,10C6,10.5,6.4,10.8,6.8,10.8z"/>
	<path d="M6.8,11.4c-0.5,0-0.8,0.4-0.8,0.8c0,0.4,0.4,0.8,0.8,0.8h0c0.4,0,0.8-0.4,0.8-0.8C7.6,11.8,7.2,11.4,6.8,11.4z"/>
	<path d="M6.8,15.3c0.2,0,0.4-0.1,0.6-0.2s0.2-0.4,0.2-0.6c0-0.2-0.1-0.4-0.2-0.6c-0.2-0.2-0.4-0.3-0.6-0.3C6.3,13.6,6,14,6,14.5
		C6,14.9,6.3,15.3,6.8,15.3z"/>
	<path d="M9.7,10.8c0.2,0,0.4-0.1,0.6-0.3c0.2-0.2,0.2-0.4,0.2-0.6c0-0.5-0.4-0.8-0.8-0.8c-0.2,0-0.4,0.1-0.6,0.2S8.9,9.8,8.9,10
		C8.9,10.5,9.3,10.8,9.7,10.8z"/>
	<path d="M9.7,11.4c-0.5,0-0.8,0.4-0.8,0.8c0,0.4,0.4,0.8,0.8,0.8h0c0.5,0,0.8-0.4,0.8-0.8C10.6,11.8,10.2,11.4,9.7,11.4z"/>
	<path d="M9.7,15.3c0.2,0,0.4-0.1,0.6-0.2c0.2-0.2,0.2-0.4,0.2-0.6c0-0.2-0.1-0.4-0.2-0.6c-0.2-0.2-0.4-0.2-0.6-0.2
		c-0.5,0-0.8,0.4-0.8,0.8C8.9,14.9,9.3,15.3,9.7,15.3z"/>
	<path d="M6.8,17.1c0.2,0,0.4-0.1,0.6-0.3c0.2-0.2,0.2-0.4,0.2-0.6c0-0.5-0.4-0.8-0.8-0.8c-0.2,0-0.4,0.1-0.6,0.3
		C6.1,15.8,6,16.1,6,16.3C6,16.7,6.4,17.1,6.8,17.1z"/>
	<path d="M6.8,17.7C6.3,17.7,6,18,6,18.5c0,0.5,0.4,0.8,0.8,0.8h0c0.4,0,0.8-0.4,0.8-0.8C7.6,18,7.3,17.7,6.8,17.7z"/>
	<path d="M6.8,19.9c-0.5,0-0.8,0.4-0.8,0.8c0,0.5,0.4,0.8,0.8,0.8c0.2,0,0.4-0.1,0.6-0.2c0.2-0.2,0.2-0.4,0.2-0.6
		c0-0.2-0.1-0.4-0.2-0.6C7.2,20,7,19.9,6.8,19.9z"/>
	<path d="M9.7,17.1c0.2,0,0.4-0.1,0.6-0.2c0.2-0.2,0.2-0.4,0.2-0.6c0-0.5-0.4-0.8-0.8-0.8c-0.2,0-0.4,0.1-0.6,0.2
		c-0.2,0.2-0.2,0.4-0.2,0.6C8.9,16.7,9.3,17.1,9.7,17.1z"/>
	<path d="M9.7,17.7c-0.5,0-0.8,0.4-0.8,0.8c0,0.5,0.4,0.8,0.8,0.8h0c0.5,0,0.8-0.4,0.8-0.8C10.6,18,10.2,17.7,9.7,17.7z"/>
	<path d="M9.7,19.9c-0.5,0-0.8,0.4-0.8,0.8c0,0.5,0.4,0.8,0.8,0.8c0.2,0,0.4-0.1,0.6-0.2c0.2-0.2,0.2-0.4,0.2-0.6
		c0-0.2-0.1-0.4-0.2-0.6C10.2,20,10,19.9,9.7,19.9z"/>
	<path d="M16.7,14.4h-0.5h-1v-2h3.5h1h0.5v-0.5v-11V0.4h-0.5h-1h-4.5v12v2.5v0.5v6.4c-0.2,0.1-0.5,0.1-0.7,0.1
		c-0.2,0-0.4,0.2-0.4,0.5L12,8.4l1.2-3.3c0.1-0.2,0-0.3-0.1-0.5s-0.2-0.2-0.4-0.2H6.2v-3h4v1c0,0.3,0.2,0.5,0.5,0.5s0.5-0.2,0.5-0.5
		V0.9c0-0.3-0.2-0.5-0.5-0.5h-5c-0.3,0-0.5,0.2-0.5,0.5v3.5H3.9c-0.2,0-0.3,0.1-0.4,0.2C3.4,4.8,3.3,5,3.4,5.1l1.2,3.3L3.3,23.4h9.9
		l-0.1-0.9c0.1,0.2,0.3,0.4,0.5,0.4c0,0,0.1,0,0.1,0c0.3,0,0.5-0.1,0.8-0.2c0.3,0.5,0.7,0.8,1.3,0.8c0.8,0,1.5-0.7,1.5-1.6v-7
		C17.2,14.7,17,14.4,16.7,14.4z M18.2,8.8v2.7h-2.7L18.2,8.8z M18.2,7.6c-0.1,0-0.3,0-0.4,0.1l-2.6,2.6V8c0,0,0,0,0.1,0l2.9-2.9V7.6
		z M18.2,1.4v2.5c-0.1,0-0.3,0-0.4,0.1l-2.6,2.6V1.4H18.2z M12,5.4l-0.7,2h-6l-0.7-2H12z M4.4,22.4L5.6,8.6c0-0.1,0-0.1,0-0.2h5.3
		c0,0.1,0,0.2,0.1,0.3l1.1,13.7H4.4z M16.2,21.9c0,0.3-0.2,0.6-0.5,0.6s-0.5-0.3-0.5-0.6v-6.5h1V21.9z"/>
</g>
</svg>
