<?xml version="1.0" encoding="utf-8"?>
<!-- Generator: Adobe Illustrator 16.0.0, SVG Export Plug-In . SVG Version: 6.00 Build 0)  -->
<!DOCTYPE svg PUBLIC "-//W3C//DTD SVG 1.1//EN" "http://www.w3.org/Graphics/SVG/1.1/DTD/svg11.dtd">
<svg version="1.1" id="Layer_1" xmlns="http://www.w3.org/2000/svg" xmlns:xlink="http://www.w3.org/1999/xlink" x="0px" y="0px"
	 width="24px" height="24px" viewBox="0 0 24 24" enable-background="new 0 0 24 24" xml:space="preserve">
<g>
	<path d="M2.8,0.6L2.1,0.3v12c0,0.1,0,0.2,0.1,0.3H1.9c-0.1,0-0.3,0.1-0.4,0.1c-0.1,0.1-0.1,0.2-0.1,0.4l0,1.4
		c0,0.3,0.2,0.5,0.5,0.5c0,0,0,0,0,0C2,15,2,15,2.1,15v6.7c0,1,0.6,1.7,1.5,1.7c0.9,0,1.5-0.7,1.5-1.7v-6.7C5.1,15,5.2,15,5.3,15
		c0,0,0,0,0,0c0.3,0,0.5-0.2,0.5-0.5l0-1.4c0-0.3-0.2-0.5-0.5-0.5l-2.3,0c0.1-0.1,0.1-0.2,0.1-0.3V2c0.6,0.5,1.5,1.4,1.8,2.7l0,0
		c-0.2-0.2-0.5-0.2-0.7,0s-0.2,0.5,0,0.7L5,6.3c0,0.2,0,0.5,0,0.7L4.8,6.7c-0.2-0.2-0.5-0.2-0.7,0c-0.2,0.2-0.2,0.5,0,0.7l0.9,1
		c0,0.5,0,0.8,0,1l-1.7,1.8c-0.2,0.2-0.2,0.5,0,0.7c0.2,0.2,0.5,0.2,0.7,0l2-2.1l0-0.2c0,0,0.1-1.1-0.1-4.2C5.8,2.1,2.9,0.7,2.8,0.6
		z M4.8,13.9c-0.1,0-0.1-0.1-0.2-0.1c-0.3,0-0.5,0.2-0.5,0.5v7.3c0,0.5-0.2,0.7-0.5,0.7c-0.3,0-0.5-0.3-0.5-0.7v-7.3
		c0-0.3-0.2-0.5-0.5-0.5c-0.1,0-0.1,0-0.2,0v-0.2l2.4,0V13.9z"/>
	<path d="M11.4,12.8c-0.1-0.1-0.2-0.1-0.4-0.1h0l-1,0v-3c0.6-0.1,1-0.7,1-1.3l0-1.2l0-0.6l0-4.6c0-0.1,0-0.4-0.2-0.6
		c-0.1-0.1-0.2-0.2-0.5-0.2c-0.2,0-0.4,0.2-0.5,0.3C9.7,1.3,9.4,1.2,9.2,1.2c-0.3,0-0.5,0.1-0.7,0.4C8.3,1.3,8.2,1.2,7.9,1.2
		c-0.5,0-0.8,0.4-0.8,0.9v6.6c0,0.6,0.4,1.1,1,1.1v2.8l-1,0c-0.3,0-0.5,0.2-0.5,0.5v1.2c0,0.3,0.2,0.5,0.5,0.5c0.1,0,0.2,0,0.2-0.1
		l0,6.9c0,0.5,0.2,0.9,0.5,1.2c0.3,0.3,0.8,0.5,1.3,0.5c1,0,1.8-0.8,1.8-1.8v-6.9c0.1,0,0.1,0.1,0.2,0.1c0.3,0,0.5-0.2,0.5-0.5v-1.2
		C11.6,13,11.5,12.9,11.4,12.8z M7.8,2.1L7.8,2.1C7.8,2.1,7.8,2.1,7.8,2.1C7.8,2.1,7.8,2.1,7.8,2.1z M8.1,2.1L8.1,2.1L8.1,2.1l0.3,0
		h0.4h1.3v4.5l0,0l0,1.8c0,0.2-0.1,0.3-0.1,0.3c0,0,0,0,0,0v0.7H9.1H8.2V8.8c-0.1,0-0.1-0.1-0.1-0.2L8.1,2.1
		C8.1,2.1,8.1,2.1,8.1,2.1z M10.6,13.9c-0.1,0-0.1-0.1-0.2-0.1c-0.3,0-0.5,0.2-0.5,0.5v7.3c0,0.4-0.3,0.8-0.8,0.8
		c-0.2,0-0.4-0.1-0.6-0.2c-0.1-0.1-0.2-0.3-0.2-0.5l0-7.4c0-0.3-0.2-0.5-0.5-0.5c0,0,0,0,0,0c-0.1,0-0.2,0-0.2,0.1v-0.2l0.5,0v0l2,0
		v0l0.5,0V13.9z"/>
	<path d="M22.6,17.5c0-1.3-3-1.4-3.6-1.4c-0.4,0-2,0-2.9,0.5l0-13.8c-0.1-1.3-0.8-1.5-1.5-1.5h-1.1c-0.9,0-1.6,0.7-1.6,1.6
		c0,0.9,0.7,1.6,1.6,1.6c0.3,0,0.5-0.2,0.5-0.5s-0.2-0.5-0.5-0.5c-0.3,0-0.6-0.2-0.6-0.6c0-0.3,0.3-0.6,0.6-0.6h1.1
		c0.5,0,0.5,0,0.5,0.5v14.5c0,0.2,0.2,0.4,0.4,0.5c0.5,1,3,1.1,3.5,1.1c0.3,0,1.5,0,2.4-0.3c-0.2,2.1-1.3,3.3-3,3.3
		c-1.4,0-2.7-1-3.1-2.5c0.2-0.1,0.4-0.3,0.4-0.5c0-0.3-0.2-0.5-0.5-0.5h-0.5c-0.1,0-0.3,0.1-0.4,0.2c-0.1,0.1-0.1,0.3-0.1,0.4
		c0.4,2.3,2.1,3.9,4.2,3.9c2.5,0,4-1.8,4.1-4.9C22.5,17.8,22.6,17.7,22.6,17.5z M16.5,17.5c0.4-0.2,1.2-0.4,2.5-0.4
		c1.2,0,2.1,0.2,2.5,0.4c-0.4,0.2-1.2,0.4-2.5,0.4C17.7,17.9,16.9,17.7,16.5,17.5z"/>
</g>
</svg>
