<?xml version="1.0" encoding="utf-8"?>
<!-- Generator: Adobe Illustrator 16.0.0, SVG Export Plug-In . SVG Version: 6.00 Build 0)  -->
<!DOCTYPE svg PUBLIC "-//W3C//DTD SVG 1.1//EN" "http://www.w3.org/Graphics/SVG/1.1/DTD/svg11.dtd">
<svg version="1.1" id="Layer_1" xmlns="http://www.w3.org/2000/svg" xmlns:xlink="http://www.w3.org/1999/xlink" x="0px" y="0px"
	 width="32px" height="32px" viewBox="0 0 32 32" enable-background="new 0 0 32 32" xml:space="preserve">
<g>
	<g>
		<g>
			<rect x="4.7" y="25.8" fill="#B0BEC5" width="2" height="2"/>
			<path fill="#37474F" d="M6.7,28.3h-2c-0.3,0-0.5-0.2-0.5-0.5v-2c0-0.3,0.2-0.5,0.5-0.5h2c0.3,0,0.5,0.2,0.5,0.5v2
				C7.2,28.1,6.9,28.3,6.7,28.3z M5.2,27.3h1v-1h-1V27.3z"/>
		</g>
		<g>
			<rect x="24.4" y="25.8" fill="#B0BEC5" width="2.9" height="2"/>
			<path fill="#37474F" d="M27.3,28.3h-2.9c-0.3,0-0.5-0.2-0.5-0.5v-2c0-0.3,0.2-0.5,0.5-0.5h2.9c0.3,0,0.5,0.2,0.5,0.5v2
				C27.8,28.1,27.6,28.3,27.3,28.3z M24.9,27.3h1.9v-1h-1.9V27.3z"/>
		</g>
	</g>
	<g>
		<path fill="#FFFFFF" d="M31.2,23c0,1.8-1.8,2.8-3.6,2.8H3.9c-1.8,0-3.1-1-3.1-2.8V7.9c0-1.8,1.3-3.7,3.1-3.7h23.8
			c1.8,0,3.6,1.9,3.6,3.7V23z"/>
		<path fill="#37474F" d="M27.6,26.3H3.9c-2.2,0-3.6-1.3-3.6-3.3V7.9c0-2,1.5-4.2,3.6-4.2h23.8c2,0,4.1,2.1,4.1,4.2V23
			C31.7,25.2,29.6,26.3,27.6,26.3z M3.9,4.7c-1.5,0-2.6,1.7-2.6,3.2V23c0,1.7,1.3,2.3,2.6,2.3h23.8c1.5,0,3.1-0.8,3.1-2.3V7.9
			c0-1.5-1.6-3.2-3.1-3.2H3.9z"/>
	</g>
	<g>
		<g>
			<g>
				<g>
					<line fill="#FFAB00" x1="22.9" y1="19.9" x2="25.8" y2="19.9"/>
					<path fill="#37474F" d="M25.8,20.4h-2.9c-0.3,0-0.5-0.2-0.5-0.5s0.2-0.5,0.5-0.5h2.9c0.3,0,0.5,0.2,0.5,0.5
						S26.1,20.4,25.8,20.4z"/>
				</g>
				<g>
					<line fill="#FFAB00" x1="22.9" y1="22.9" x2="25.8" y2="22.9"/>
					<path fill="#37474F" d="M25.8,23.4h-2.9c-0.3,0-0.5-0.2-0.5-0.5s0.2-0.5,0.5-0.5h2.9c0.3,0,0.5,0.2,0.5,0.5
						S26.1,23.4,25.8,23.4z"/>
				</g>
			</g>
			<g>
				<g>
					<line fill="#FFAB00" x1="26.8" y1="19.9" x2="28.8" y2="19.9"/>
					<path fill="#37474F" d="M28.8,20.4h-2c-0.3,0-0.5-0.2-0.5-0.5s0.2-0.5,0.5-0.5h2c0.3,0,0.5,0.2,0.5,0.5S29,20.4,28.8,20.4z"/>
				</g>
				<g>
					<line fill="#FFAB00" x1="26.8" y1="22.9" x2="28.8" y2="22.9"/>
					<path fill="#37474F" d="M28.8,23.4h-2c-0.3,0-0.5-0.2-0.5-0.5s0.2-0.5,0.5-0.5h2c0.3,0,0.5,0.2,0.5,0.5S29,23.4,28.8,23.4z"/>
				</g>
			</g>
		</g>
		<g>
			<rect x="23.4" y="16" fill="#FFAB00" width="5.9" height="1"/>
			<path fill="#37474F" d="M29.3,17.5h-5.9c-0.3,0-0.5-0.2-0.5-0.5v-1c0-0.3,0.2-0.5,0.5-0.5h5.9c0.3,0,0.5,0.2,0.5,0.5v1
				C29.8,17.3,29.5,17.5,29.3,17.5z"/>
		</g>
	</g>
	<g>
		<g>
			<path fill="#FFAB00" d="M31.2,8.1V7.9c0-1.8-1.8-3.7-3.6-3.7H3.9c-1.8,0-3.1,1.9-3.1,3.7v0.3H31.2z"/>
			<path fill="#37474F" d="M31.2,8.6H0.8c-0.3,0-0.5-0.2-0.5-0.5V7.9c0-2,1.5-4.2,3.6-4.2h23.8c2,0,4.1,2.1,4.1,4.2v0.3
				C31.7,8.4,31.5,8.6,31.2,8.6z M1.3,7.6h29.4c-0.2-1.5-1.7-2.9-3.1-2.9H3.9C2.5,4.7,1.4,6.2,1.3,7.6z"/>
		</g>
	</g>
	<g>
		<g>
			<path fill="#37474F" d="M21.4,21c0,1.3-0.9,1.9-2,1.9H4.8c-1.1,0-2.1-0.6-2.1-1.9V9.9c0-1.3,1-2.8,2.1-2.8h14.6
				c1.1,0,2,1.4,2,2.8V21z"/>
			<path fill="#37474F" d="M19.4,23.4H4.8c-1.6,0-2.6-0.9-2.6-2.4V9.9c0-1.5,1.1-3.3,2.6-3.3h14.6c1.5,0,2.5,1.7,2.5,3.3V21
				C21.9,22.5,21,23.4,19.4,23.4z M4.8,7.7C4,7.7,3.2,8.8,3.2,9.9V21c0,1.3,1.1,1.4,1.6,1.4h14.6c0.7,0,1.5-0.2,1.5-1.4V9.9
				c0-1.1-0.7-2.3-1.5-2.3H4.8z"/>
		</g>
		<g>
			<g>
				<g>
					<path fill="#FFFFFF" d="M14.8,12.8c0-0.3,0.2-0.5,0.5-0.5c0.3,0,0.5,0.2,0.5,0.5c0,0.2-0.2,0.4-0.5,0.4
						C15,13.2,14.8,13,14.8,12.8z"/>
					<path fill="#FFFFFF" d="M15.3,13.7c-0.5,0-1-0.4-1-0.9c0-0.5,0.4-1,1-1c0.3,0,0.5,0.1,0.7,0.3c0.2,0.2,0.3,0.4,0.3,0.7
						C16.2,13.3,15.8,13.7,15.3,13.7z"/>
				</g>
				<g>
					<path fill="#FFFFFF" d="M11.7,12.8c0-0.3,0.2-0.5,0.4-0.5c0.3,0,0.5,0.2,0.5,0.5c0,0.2-0.2,0.4-0.5,0.4
						C11.9,13.2,11.7,13,11.7,12.8z"/>
					<path fill="#FFFFFF" d="M12.1,13.7c-0.5,0-0.9-0.4-0.9-0.9c0-0.2,0.1-0.5,0.3-0.7c0.2-0.2,0.4-0.3,0.7-0.3c0.5,0,0.9,0.4,1,0.9
						C13.1,13.3,12.6,13.7,12.1,13.7z"/>
				</g>
				<g>
					<path fill="#FFFFFF" d="M8.5,12.8c0-0.2,0.2-0.5,0.5-0.5c0.3,0,0.5,0.2,0.5,0.5c0,0.2-0.2,0.4-0.5,0.4
						C8.7,13.2,8.5,13,8.5,12.8z"/>
					<path fill="#FFFFFF" d="M9,13.7c-0.5,0-1-0.4-1-0.9c0-0.5,0.4-1,1-1c0.5,0,1,0.4,1,1C9.9,13.3,9.5,13.7,9,13.7z"/>
				</g>
			</g>
			<g>
				<g>
					<path fill="#FFFFFF" d="M14.8,15.4c0-0.3,0.2-0.5,0.5-0.5c0.3,0,0.5,0.2,0.5,0.5c0,0.2-0.2,0.5-0.5,0.5
						C15,15.9,14.8,15.7,14.8,15.4z"/>
					<path fill="#FFFFFF" d="M15.3,16.4c-0.5,0-1-0.4-1-1c0-0.5,0.4-1,1-1c0.3,0,0.5,0.1,0.7,0.3c0.2,0.2,0.3,0.4,0.3,0.7
						C16.2,16,15.8,16.4,15.3,16.4z"/>
				</g>
				<g>
					<path fill="#FFFFFF" d="M11.7,15.4c0-0.3,0.2-0.5,0.4-0.5c0.3,0,0.5,0.2,0.5,0.5c0,0.2-0.2,0.5-0.5,0.5
						C11.9,15.9,11.7,15.7,11.7,15.4z"/>
					<path fill="#FFFFFF" d="M12.1,16.4c-0.5,0-0.9-0.4-0.9-1c0-0.2,0.1-0.5,0.3-0.7c0.2-0.2,0.4-0.3,0.7-0.3c0.5,0,0.9,0.4,1,0.9
						C13.1,16,12.6,16.4,12.1,16.4z"/>
				</g>
				<g>
					<path fill="#FFFFFF" d="M8.5,15.4C8.5,15.2,8.7,15,9,15c0.3,0,0.5,0.2,0.5,0.5c0,0.2-0.2,0.5-0.5,0.5
						C8.7,15.9,8.5,15.7,8.5,15.4z"/>
					<path fill="#FFFFFF" d="M9,16.4c-0.5,0-1-0.4-1-1c0-0.5,0.4-1,1-1c0.5,0,1,0.4,1,1C9.9,16,9.5,16.4,9,16.4z"/>
				</g>
			</g>
			<g>
				<g>
					<path fill="#FFFFFF" d="M14.8,18.1c0-0.2,0.2-0.4,0.5-0.4c0.3,0,0.5,0.2,0.5,0.4c0,0.2-0.2,0.5-0.5,0.5
						C15,18.6,14.8,18.4,14.8,18.1z"/>
					<path fill="#FFFFFF" d="M15.3,19.1c-0.5,0-1-0.4-1-1c0-0.5,0.4-0.9,1-0.9c0.3,0,0.5,0.1,0.7,0.3c0.2,0.2,0.3,0.4,0.3,0.7
						C16.2,18.6,15.8,19.1,15.3,19.1z"/>
				</g>
				<g>
					<path fill="#FFFFFF" d="M11.7,18.1c0-0.2,0.2-0.4,0.4-0.4c0.3,0,0.5,0.2,0.5,0.4c0,0.2-0.2,0.5-0.5,0.5
						C11.9,18.6,11.7,18.4,11.7,18.1z"/>
					<path fill="#FFFFFF" d="M12.1,19.1c-0.5,0-0.9-0.4-0.9-1c0-0.2,0.1-0.5,0.3-0.7c0.2-0.2,0.4-0.3,0.7-0.3c0.5,0,0.9,0.4,1,0.9
						C13.1,18.7,12.6,19.1,12.1,19.1z"/>
				</g>
				<g>
					<path fill="#FFFFFF" d="M8.5,18.1c0-0.2,0.2-0.4,0.5-0.4c0.3,0,0.5,0.2,0.5,0.4c0,0.2-0.2,0.5-0.5,0.5
						C8.7,18.6,8.5,18.4,8.5,18.1z"/>
					<circle fill="#FFFFFF" cx="9" cy="18.1" r="0.9"/>
				</g>
			</g>
		</g>
	</g>
	<g>
		<path fill="#B0BEC5" d="M28,11.7c0,1-0.8,1.8-1.8,1.8c-1,0-1.8-0.8-1.8-1.8c0-1,0.8-1.8,1.8-1.8C27.2,9.8,28,10.7,28,11.7z"/>
		<path fill="#37474F" d="M26.2,14c-1.3,0-2.3-1-2.3-2.3c0-1.3,1-2.3,2.3-2.3c1.3,0,2.3,1,2.3,2.3C28.5,12.9,27.5,14,26.2,14z
			 M26.2,10.3c-0.7,0-1.3,0.6-1.3,1.3s0.6,1.3,1.3,1.3s1.3-0.6,1.3-1.3S26.9,10.3,26.2,10.3z"/>
	</g>
</g>
</svg>
