<?xml version="1.0" encoding="utf-8"?>
<!-- Generator: Adobe Illustrator 16.0.0, SVG Export Plug-In . SVG Version: 6.00 Build 0)  -->
<!DOCTYPE svg PUBLIC "-//W3C//DTD SVG 1.1//EN" "http://www.w3.org/Graphics/SVG/1.1/DTD/svg11.dtd">
<svg version="1.1" id="Layer_1" xmlns="http://www.w3.org/2000/svg" xmlns:xlink="http://www.w3.org/1999/xlink" x="0px" y="0px"
	 width="64px" height="64px" viewBox="0 0 64 64" enable-background="new 0 0 64 64" xml:space="preserve">
<g>
	<g>
		<g>
			<g>
				<g>
					<polygon fill="#FFECB3" points="14.8,17.5 14.8,17.4 14.8,17.1 14.6,17.1 9.3,6.3 4,17.1 3.8,17.1 3.8,17.4 3.8,17.5 3.8,17.5 
						3.8,58.8 14.8,58.8 14.8,17.5 					"/>
					<path fill="#37474F" d="M14.8,59.8h-11c-0.6,0-1-0.4-1-1V17.7c0-0.1,0-0.3,0-0.4v-0.2c0-0.4,0.2-0.7,0.5-0.8L8.4,5.8
						c0.3-0.7,1.5-0.7,1.8,0l5.1,10.4c0.3,0.2,0.5,0.5,0.5,0.8v0.3c0,0.1,0,0.2,0,0.2v41.3C15.8,59.4,15.4,59.8,14.8,59.8z
						 M4.8,57.8h9V17.6c0,0,0-0.1-0.1-0.1l-4.4-9l-4.4,9c0,0,0,0.1-0.1,0.1V57.8z"/>
				</g>
			</g>
			<g>
				<path fill="#FFECB3" d="M10.8,25.6c-0.8,0.8-2.2,0.8-3,0c-0.8-0.8-0.8-2.2,0-3"/>
				<path fill="#37474F" d="M9.3,27.2c-0.8,0-1.6-0.3-2.2-0.9c-0.6-0.6-0.9-1.4-0.9-2.2c0-0.8,0.3-1.6,0.9-2.2c0.4-0.4,1-0.4,1.4,0
					c0.4,0.4,0.4,1,0,1.4c-0.2,0.2-0.3,0.5-0.3,0.8c0,0.3,0.1,0.6,0.3,0.8c0.4,0.4,1.2,0.4,1.6,0c0.4-0.4,1-0.4,1.4,0s0.4,1,0,1.4
					C10.9,26.9,10.1,27.2,9.3,27.2z"/>
			</g>
			<g>
				<path fill="#FFECB3" d="M10.8,47.8c-0.8,0.8-2.2,0.8-3,0c-0.8-0.8-0.8-2.2,0-3"/>
				<path fill="#37474F" d="M9.3,49.4c-0.8,0-1.6-0.3-2.2-0.9c-0.6-0.6-0.9-1.4-0.9-2.2c0-0.8,0.3-1.6,0.9-2.2c0.4-0.4,1-0.4,1.4,0
					c0.4,0.4,0.4,1,0,1.4c-0.2,0.2-0.3,0.5-0.3,0.8s0.1,0.6,0.3,0.8c0.4,0.4,1.2,0.4,1.6,0c0.4-0.4,1-0.4,1.4,0c0.4,0.4,0.4,1,0,1.4
					C10.9,49.1,10.1,49.4,9.3,49.4z"/>
			</g>
		</g>
		<g>
			<g>
				<g>
					<polygon fill="#FFAB00" points="37.7,17.5 37.6,17.4 37.6,17.1 37.5,17.1 32.1,6.3 26.8,17.1 26.6,17.1 26.6,17.4 26.6,17.5 
						26.6,17.5 26.6,58.8 37.6,58.8 37.6,17.5 					"/>
					<path fill="#37474F" d="M37.6,59.8h-11c-0.6,0-1-0.4-1-1V17.7c0-0.1,0-0.3,0-0.4v-0.2c0-0.4,0.2-0.7,0.5-0.8l5.1-10.4
						c0.3-0.7,1.5-0.7,1.8,0l5.1,10.4c0.3,0.2,0.5,0.5,0.5,0.8v0.3c0,0.1,0,0.2,0,0.2v41.3C38.6,59.4,38.2,59.8,37.6,59.8z
						 M27.6,57.8h9V17.6c0,0,0-0.1-0.1-0.1l-4.4-9l-4.4,9c0,0,0,0.1-0.1,0.1V57.8z"/>
				</g>
			</g>
			<g>
				<path fill="#FFECB3" d="M33.6,25.6c-0.8,0.8-2.2,0.8-3,0c-0.8-0.8-0.8-2.2,0-3"/>
				<path fill="#37474F" d="M32.1,27.2c-0.8,0-1.6-0.3-2.2-0.9c-0.6-0.6-0.9-1.4-0.9-2.2c0-0.8,0.3-1.6,0.9-2.2c0.4-0.4,1-0.4,1.4,0
					c0.4,0.4,0.4,1,0,1.4c-0.2,0.2-0.3,0.5-0.3,0.8c0,0.3,0.1,0.6,0.3,0.8c0.4,0.4,1.2,0.4,1.6,0c0.4-0.4,1-0.4,1.4,0
					c0.4,0.4,0.4,1,0,1.4C33.8,26.9,33,27.2,32.1,27.2z"/>
			</g>
			<g>
				<path fill="#FFECB3" d="M33.6,47.8c-0.8,0.8-2.2,0.8-3,0c-0.8-0.8-0.8-2.2,0-3"/>
				<path fill="#37474F" d="M32.1,49.4c-0.8,0-1.6-0.3-2.2-0.9c-0.6-0.6-0.9-1.4-0.9-2.2c0-0.8,0.3-1.6,0.9-2.2c0.4-0.4,1-0.4,1.4,0
					c0.4,0.4,0.4,1,0,1.4C31.1,45.7,31,46,31,46.3s0.1,0.6,0.3,0.8c0.4,0.4,1.2,0.4,1.6,0c0.4-0.4,1-0.4,1.4,0c0.4,0.4,0.4,1,0,1.4
					C33.7,49.1,32.9,49.4,32.1,49.4z"/>
			</g>
		</g>
		<g>
			<g>
				<g>
					<polygon fill="#FFECB3" points="60.5,17.5 60.5,17.4 60.5,17.1 60.3,17.1 55,6.3 49.6,17.1 49.5,17.1 49.5,17.4 49.4,17.5 
						49.5,17.5 49.5,58.8 60.5,58.8 60.5,17.5 					"/>
					<path fill="#37474F" d="M60.5,59.8h-11c-0.6,0-1-0.4-1-1V17.7c0-0.1,0-0.3,0-0.4v-0.2c0-0.4,0.2-0.7,0.5-0.8l5.1-10.4
						c0.3-0.7,1.5-0.7,1.8,0L61,16.2c0.3,0.2,0.5,0.5,0.5,0.8v0.3c0,0.1,0,0.2,0,0.2v41.3C61.5,59.4,61,59.8,60.5,59.8z M50.5,57.8
						h9V17.6c0,0,0-0.1-0.1-0.1l-4.4-9l-4.4,9c0,0,0,0.1-0.1,0.1V57.8z"/>
				</g>
			</g>
			<g>
				<path fill="#FFECB3" d="M56.5,25.6c-0.8,0.8-2.2,0.8-3,0c-0.8-0.8-0.8-2.2,0-3"/>
				<path fill="#37474F" d="M55,27.2c-0.8,0-1.6-0.3-2.2-0.9c-0.6-0.6-0.9-1.4-0.9-2.2c0-0.8,0.3-1.6,0.9-2.2c0.4-0.4,1-0.4,1.4,0
					c0.4,0.4,0.4,1,0,1.4c-0.2,0.2-0.3,0.5-0.3,0.8s0.1,0.6,0.3,0.8c0.4,0.4,1.2,0.4,1.6,0c0.4-0.4,1-0.4,1.4,0s0.4,1,0,1.4
					C56.6,26.9,55.8,27.2,55,27.2z"/>
			</g>
			<g>
				<path fill="#FFECB3" d="M56.5,47.8c-0.8,0.8-2.2,0.8-3,0c-0.8-0.8-0.8-2.2,0-3"/>
				<path fill="#37474F" d="M55,49.4c-0.8,0-1.6-0.3-2.2-0.9c-0.6-0.6-0.9-1.4-0.9-2.2c0-0.8,0.3-1.6,0.9-2.2c0.4-0.4,1-0.4,1.4,0
					c0.4,0.4,0.4,1,0,1.4c-0.2,0.2-0.3,0.5-0.3,0.8s0.1,0.6,0.3,0.8c0.4,0.4,1.2,0.4,1.6,0c0.4-0.4,1-0.4,1.4,0s0.4,1,0,1.4
					C56.6,49.1,55.8,49.4,55,49.4z"/>
			</g>
		</g>
	</g>
	<g>
		<g>
			<g>
				<rect x="15.1" y="22.4" fill="#FFECB3" width="11.3" height="7.8"/>
				<path fill="#37474F" d="M26.4,31.2H15.1c-0.6,0-1-0.4-1-1v-7.8c0-0.6,0.4-1,1-1h11.3c0.6,0,1,0.4,1,1v7.8
					C27.4,30.8,27,31.2,26.4,31.2z M16.1,29.2h9.3v-5.8h-9.3V29.2z"/>
			</g>
			<g>
				<rect x="15.1" y="42.1" fill="#FFECB3" width="11.3" height="7.8"/>
				<path fill="#37474F" d="M26.4,50.9H15.1c-0.6,0-1-0.4-1-1v-7.8c0-0.6,0.4-1,1-1h11.3c0.6,0,1,0.4,1,1v7.8
					C27.4,50.5,27,50.9,26.4,50.9z M16.1,48.9h9.3v-5.8h-9.3V48.9z"/>
			</g>
		</g>
		<g>
			<g>
				<rect x="37.8" y="22.4" fill="#FFECB3" width="11.3" height="7.8"/>
				<path fill="#37474F" d="M49.2,31.2H37.8c-0.6,0-1-0.4-1-1v-7.8c0-0.6,0.4-1,1-1h11.3c0.6,0,1,0.4,1,1v7.8
					C50.2,30.8,49.7,31.2,49.2,31.2z M38.8,29.2h9.3v-5.8h-9.3V29.2z"/>
			</g>
			<g>
				<rect x="37.8" y="42.1" fill="#FFECB3" width="11.3" height="7.8"/>
				<path fill="#37474F" d="M49.2,50.9H37.8c-0.6,0-1-0.4-1-1v-7.8c0-0.6,0.4-1,1-1h11.3c0.6,0,1,0.4,1,1v7.8
					C50.2,50.5,49.7,50.9,49.2,50.9z M38.8,48.9h9.3v-5.8h-9.3V48.9z"/>
			</g>
		</g>
	</g>
	<g>
		<line fill="#FFAB00" x1="1.8" y1="58.8" x2="62.5" y2="58.8"/>
		<path fill="#37474F" d="M62.5,59.8H1.8c-0.6,0-1-0.4-1-1s0.4-1,1-1h60.8c0.6,0,1,0.4,1,1S63.1,59.8,62.5,59.8z"/>
	</g>
</g>
</svg>
