<?xml version="1.0" encoding="utf-8"?>
<!-- Generator: Adobe Illustrator 16.0.0, SVG Export Plug-In . SVG Version: 6.00 Build 0)  -->
<!DOCTYPE svg PUBLIC "-//W3C//DTD SVG 1.1//EN" "http://www.w3.org/Graphics/SVG/1.1/DTD/svg11.dtd">
<svg version="1.1" id="Layer_1" xmlns="http://www.w3.org/2000/svg" xmlns:xlink="http://www.w3.org/1999/xlink" x="0px" y="0px"
	 width="64px" height="64px" viewBox="0 0 64 64" enable-background="new 0 0 64 64" xml:space="preserve">
<g>
	<g>
		<path fill="#FFFFFF" d="M54.2,31.9c0,12.3-10,22.2-22.2,22.2c-12.3,0-22.2-10-22.2-22.2c0-12.3,10-22.2,22.2-22.2
			C44.3,9.6,54.2,19.6,54.2,31.9z"/>
		<path fill="#37474F" d="M32,55.1c-12.8,0-23.2-10.4-23.2-23.2C8.8,19.1,19.2,8.6,32,8.6c12.8,0,23.2,10.4,23.2,23.2
			C55.2,44.7,44.8,55.1,32,55.1z M32,10.6c-11.7,0-21.2,9.5-21.2,21.2c0,11.7,9.5,21.2,21.2,21.2c11.7,0,21.2-9.5,21.2-21.2
			C53.2,20.2,43.7,10.6,32,10.6z"/>
	</g>
	<g>
		<g>
			<rect x="29.8" y="1.5" fill="#FFAB00" width="4" height="40"/>
			<path fill="#37474F" d="M33.8,42.5h-4c-0.6,0-1-0.4-1-1v-40c0-0.6,0.4-1,1-1h4c0.6,0,1,0.4,1,1v40C34.8,42.1,34.4,42.5,33.8,42.5
				z M30.8,40.5h2v-38h-2V40.5z"/>
		</g>
		<g>
			<g>
				<polygon fill="#FFECB3" points="47.2,62.5 16.8,62.5 21.6,45.5 42.4,45.5 				"/>
				<path fill="#37474F" d="M47.2,63.5C47.2,63.5,47.2,63.5,47.2,63.5H16.8c-0.3,0-0.6-0.1-0.8-0.4c-0.2-0.2-0.3-0.6-0.2-0.9l4.7-17
					c0.1-0.4,0.5-0.7,1-0.7h20.9c0.4,0,0.8,0.3,1,0.7L48.1,62c0.1,0.1,0.1,0.3,0.1,0.5C48.2,63.1,47.7,63.5,47.2,63.5z M18.2,61.5
					h27.7l-4.2-15H22.3L18.2,61.5z"/>
			</g>
			<g>
				<g>
					<g>
						<g>
							<line fill="#FFECB3" x1="23" y1="58.1" x2="25.7" y2="46.9"/>
							<path fill="#37474F" d="M23,59.1c-0.1,0-0.2,0-0.2,0c-0.5-0.1-0.9-0.7-0.7-1.2l2.7-11.2c0.1-0.5,0.7-0.9,1.2-0.7
								c0.5,0.1,0.9,0.7,0.7,1.2L24,58.4C23.9,58.8,23.5,59.1,23,59.1z"/>
						</g>
						<g>
							<line fill="#FFECB3" x1="27.5" y1="58.2" x2="29.3" y2="46.8"/>
							<path fill="#37474F" d="M27.5,59.2c-0.1,0-0.1,0-0.2,0c-0.5-0.1-0.9-0.6-0.8-1.1l1.8-11.4c0.1-0.5,0.6-0.9,1.1-0.8
								c0.5,0.1,0.9,0.6,0.8,1.1l-1.8,11.4C28.4,58.9,27.9,59.2,27.5,59.2z"/>
						</g>
					</g>
					<g>
						<g>
							<line fill="#FFECB3" x1="41.1" y1="58.1" x2="38.4" y2="46.9"/>
							<path fill="#37474F" d="M41.1,59.1c-0.5,0-0.9-0.3-1-0.8l-2.7-11.2c-0.1-0.5,0.2-1.1,0.7-1.2c0.5-0.1,1.1,0.2,1.2,0.7
								L42,57.9c0.1,0.5-0.2,1.1-0.7,1.2C41.2,59.1,41.1,59.1,41.1,59.1z"/>
						</g>
						<g>
							<line fill="#FFECB3" x1="36.6" y1="58.2" x2="34.8" y2="46.8"/>
							<path fill="#37474F" d="M36.6,59.2c-0.5,0-0.9-0.4-1-0.8L33.8,47c-0.1-0.5,0.3-1.1,0.8-1.1c0.5-0.1,1.1,0.3,1.1,0.8l1.8,11.4
								c0.1,0.5-0.3,1.1-0.8,1.1C36.7,59.2,36.7,59.2,36.6,59.2z"/>
						</g>
					</g>
				</g>
				<g>
					<line fill="#FFECB3" x1="31.8" y1="58.5" x2="31.8" y2="46.5"/>
					<path fill="#37474F" d="M31.8,59.5c-0.6,0-1-0.4-1-1v-12c0-0.6,0.4-1,1-1s1,0.4,1,1v12C32.8,59.1,32.4,59.5,31.8,59.5z"/>
				</g>
			</g>
			<g>
				<rect x="18.8" y="42.5" fill="#78909C" width="26" height="5"/>
				<path fill="#37474F" d="M45.8,48.5h-28v-7h28V48.5z M19.8,46.5h24v-3h-24V46.5z"/>
			</g>
			<g>
				<rect x="23.8" y="38.5" fill="#B0BEC5" width="17" height="4"/>
				<path fill="#37474F" d="M40.8,43.5h-17c-0.6,0-1-0.4-1-1v-4c0-0.6,0.4-1,1-1h17c0.6,0,1,0.4,1,1v4
					C41.8,43.1,41.4,43.5,40.8,43.5z M24.8,41.5h15v-2h-15V41.5z"/>
			</g>
		</g>
	</g>
	<g>
		<g>
			<g>
				<path fill="#37474F" d="M23.1,31.9c0-0.5,0.4-0.8,0.8-0.8c0.5,0,0.8,0.4,0.8,0.8c0,0.4-0.4,0.8-0.8,0.8
					C23.5,32.7,23.1,32.3,23.1,31.9z"/>
				<path fill="#37474F" d="M23.9,33.2c-0.7,0-1.3-0.6-1.3-1.3c0-0.7,0.6-1.3,1.3-1.3c0.4,0,0.7,0.1,0.9,0.4
					c0.2,0.2,0.4,0.6,0.4,0.9C25.3,32.6,24.7,33.2,23.9,33.2L23.9,33.2z M23.9,31.6c-0.2,0-0.3,0.1-0.3,0.3c0,0.2,0.1,0.3,0.3,0.3
					v0.5l0-0.5c0.2,0,0.3-0.1,0.3-0.3c0-0.1,0-0.2-0.1-0.2C24.1,31.6,24,31.6,23.9,31.6z"/>
			</g>
			<g>
				<path fill="#37474F" d="M17.5,31.9c0-0.5,0.4-0.8,0.8-0.8c0.4,0,0.8,0.4,0.8,0.8c0,0.4-0.4,0.8-0.8,0.8
					C17.9,32.7,17.5,32.3,17.5,31.9z"/>
				<path fill="#37474F" d="M18.3,33.2L18.3,33.2c-0.7,0-1.3-0.6-1.3-1.3c0-0.3,0.1-0.7,0.4-0.9c0.2-0.2,0.6-0.4,0.9-0.4
					c0.7,0,1.3,0.6,1.3,1.3C19.6,32.6,19,33.2,18.3,33.2z M18.3,31.6c-0.1,0-0.2,0-0.2,0.1c-0.1,0.1-0.1,0.1-0.1,0.2
					c0,0.2,0.1,0.3,0.3,0.3c0.2,0,0.3-0.1,0.3-0.3C18.6,31.7,18.5,31.6,18.3,31.6z"/>
			</g>
			<g>
				<path fill="#37474F" d="M11.9,31.9c0-0.4,0.4-0.8,0.8-0.8c0.4,0,0.8,0.4,0.8,0.8c0,0.4-0.4,0.8-0.8,0.8
					C12.3,32.7,11.9,32.3,11.9,31.9z"/>
				<path fill="#37474F" d="M12.8,33.2L12.8,33.2C12.7,33.2,12.7,33.2,12.8,33.2c-0.8,0-1.3-0.6-1.3-1.3c0-0.7,0.6-1.3,1.3-1.3
					c0.7,0,1.3,0.6,1.3,1.3C14,32.6,13.5,33.2,12.8,33.2z M12.7,31.6c-0.2,0-0.3,0.1-0.3,0.3c0,0.2,0.1,0.3,0.3,0.3l0.1,0.5v-0.5
					c0.2,0,0.3-0.1,0.3-0.3C13,31.7,12.9,31.6,12.7,31.6z"/>
			</g>
		</g>
		<g>
			<g>
				<path fill="#37474F" d="M50.5,31.9c0-0.5,0.4-0.8,0.8-0.8c0.5,0,0.8,0.4,0.8,0.8c0,0.4-0.4,0.8-0.8,0.8
					C50.8,32.7,50.5,32.3,50.5,31.9z"/>
				<path fill="#37474F" d="M51.2,33.2c-0.7,0-1.3-0.6-1.3-1.3c0-0.7,0.6-1.3,1.3-1.3c0.4,0,0.7,0.1,0.9,0.4
					c0.2,0.2,0.4,0.6,0.4,0.9C52.6,32.6,52,33.2,51.2,33.2L51.2,33.2z M51.3,31.6c-0.2,0-0.3,0.1-0.3,0.3c0,0.2,0.1,0.3,0.3,0.3v0.5
					l0-0.5c0.2,0,0.3-0.1,0.3-0.3c0-0.1,0-0.2-0.1-0.2C51.4,31.6,51.3,31.6,51.3,31.6z"/>
			</g>
			<g>
				<path fill="#37474F" d="M44.9,31.9c0-0.5,0.4-0.8,0.8-0.8c0.4,0,0.8,0.4,0.8,0.8c0,0.4-0.4,0.8-0.8,0.8
					C45.2,32.7,44.9,32.3,44.9,31.9z"/>
				<path fill="#37474F" d="M45.6,33.2L45.6,33.2c-0.7,0-1.3-0.6-1.3-1.3c0-0.3,0.1-0.7,0.4-0.9c0.2-0.2,0.6-0.4,0.9-0.4
					c0.7,0,1.3,0.6,1.3,1.3C47,32.6,46.4,33.2,45.6,33.2z M45.7,31.6c-0.1,0-0.2,0-0.2,0.1c0,0-0.1,0.1-0.1,0.2
					c0,0.2,0.1,0.3,0.3,0.3c0.2,0,0.3-0.1,0.3-0.3C46,31.7,45.8,31.6,45.7,31.6z"/>
			</g>
			<g>
				<path fill="#37474F" d="M39.2,31.9c0-0.4,0.4-0.8,0.8-0.8c0.4,0,0.8,0.4,0.8,0.8c0,0.4-0.4,0.8-0.8,0.8
					C39.6,32.7,39.2,32.3,39.2,31.9z"/>
				<path fill="#37474F" d="M40.1,33.2L40.1,33.2C40,33.2,40,33.2,40.1,33.2c-0.8,0-1.3-0.6-1.3-1.3c0-0.7,0.6-1.3,1.3-1.3
					c0.7,0,1.3,0.6,1.3,1.3C41.3,32.6,40.8,33.2,40.1,33.2z M40,31.6c-0.2,0-0.3,0.1-0.3,0.3c0,0.2,0.1,0.3,0.3,0.3l0.1,0.5v-0.5
					c0.2,0,0.3-0.1,0.3-0.3C40.3,31.7,40.2,31.6,40,31.6z"/>
			</g>
		</g>
	</g>
</g>
</svg>
