<?xml version="1.0" encoding="utf-8"?>
<!-- Generator: Adobe Illustrator 16.0.0, SVG Export Plug-In . SVG Version: 6.00 Build 0)  -->
<!DOCTYPE svg PUBLIC "-//W3C//DTD SVG 1.1//EN" "http://www.w3.org/Graphics/SVG/1.1/DTD/svg11.dtd">
<svg version="1.1" id="Layer_1" xmlns="http://www.w3.org/2000/svg" xmlns:xlink="http://www.w3.org/1999/xlink" x="0px" y="0px"
	 width="64px" height="64px" viewBox="0 0 64 64" enable-background="new 0 0 64 64" xml:space="preserve">
<g>
	<g>
		<path fill="#FFAB00" d="M25,8.5c0,3.4-1,6.5-2.3,6.5h-2.4c-1.3,0-2.3-3.1-2.3-6.5l0,0c0-3.4,1-6.5,2.3-6.5h2.4C24,2,25,5.1,25,8.5
			L25,8.5z"/>
		<path fill="#37474F" d="M22.8,16h-2.4c-2.4,0-3.3-4.5-3.3-7.5c0-3,0.9-7.5,3.3-7.5h2.4C25.2,1,26,5.5,26,8.5
			C26,12.1,25,16,22.8,16z M22.7,3l-2.3,0c-0.4,0.2-1.3,2.3-1.3,5.5c0,3.2,0.9,5.3,1.3,5.5l2.2,0c0.5-0.3,1.3-2.4,1.3-5.5
			C24,5.3,23.1,3.2,22.7,3z"/>
	</g>
	<g>
		<path fill="#FFAB00" d="M49.5,55c0,4.1-3.3,7-7.4,7H22c-4.1,0-7.5-2.9-7.5-7V17.1c0-4.1,3.3-7.1,7.5-7.1h20.1
			c4.1,0,7.4,2.9,7.4,7.1V55z"/>
		<path fill="#37474F" d="M42.1,63H22c-4.8,0-8.5-3.5-8.5-8V17.1c0-4.6,3.6-8.1,8.5-8.1h20.1c4.8,0,8.4,3.5,8.4,8.1V55
			C50.5,59.5,46.9,63,42.1,63z M22,11c-3.7,0-6.5,2.6-6.5,6.1V55c0,3.5,2.7,6,6.5,6h20.1c3.7,0,6.4-2.5,6.4-6V17.1
			c0-3.5-2.8-6.1-6.4-6.1H22z"/>
	</g>
	<g>
		<path fill="#37474F" d="M49.5,50.8c0,4.1-3.3,7.2-7.4,7.2H22c-4.1,0-7.5-3.1-7.5-7.2V12.9C14.5,8.7,17.8,5,22,5h20.1
			c4.1,0,7.4,3.7,7.4,7.9V50.8z"/>
		<path fill="#37474F" d="M42.1,59H22c-4.8,0-8.5-3.6-8.5-8.2V12.9C13.5,8.1,17.4,4,22,4h20.1c4.6,0,8.4,4.1,8.4,8.9v37.9
			C50.5,55.4,46.8,59,42.1,59z M22,6c-3.5,0-6.5,3.1-6.5,6.9v37.9c0,3.5,2.8,6.2,6.5,6.2h20.1c3.7,0,6.4-2.7,6.4-6.2V12.9
			c0-3.7-2.9-6.9-6.4-6.9H22z"/>
	</g>
	<g>
		<g>
			<path fill="#FFFFFF" d="M31.5,23.1c0,4.6-1.7,6.6-3.7,6.6c-2.8,0-3.7-3.2-3.7-6.5c0-3.7,1.2-6.6,3.8-6.6
				C30.8,16.6,31.5,20.1,31.5,23.1z M26.6,23.2c0,3,0.3,4.3,1.2,4.3c0.8,0,1.1-1.4,1.1-4.3c0-2.7-0.3-4.3-1.1-4.3
				C27,18.8,26.6,20.2,26.6,23.2z"/>
		</g>
		<g>
			<path fill="#FFAB00" d="M24.5,42v-0.8l1.2-1c2.4-2.3,3.7-3.6,3.7-5c0-1-0.4-1.9-1.8-1.9c-0.9,0-1.6,0.5-2,0.8l-0.4-0.9
				c0.7-0.6,1.6-1,2.7-1c2.1,0,2.9,1.4,2.9,2.8c0,1.8-1.4,3.2-3.4,5.1l-0.9,0.7V41h5v1H24.5z"/>
		</g>
		<g>
			<path fill="#FFAB00" d="M39.1,37.1c0,3.3-1.2,5.1-3.3,5.1c-1.9,0-3.1-1.8-3.2-4.9c0-3.2,1.4-5,3.3-5C37.9,32.2,39.1,34,39.1,37.1
				z M33.8,37.2c0,2.5,0.8,3.9,2,3.9c1.3,0,2-1.6,2-4c0-2.4-0.6-3.9-2-3.9C34.7,33.2,33.8,34.6,33.8,37.2z"/>
		</g>
	</g>
	<g>
		<g>
			<path fill="#B0BEC5" d="M37.1,12.8c0-0.5,0.4-0.8,0.8-0.8c0.5,0,0.9,0.4,0.8,0.8c0,0.5-0.4,0.8-0.8,0.8
				C37.4,13.7,37.1,13.3,37.1,12.8z"/>
			<path fill="#B0BEC5" d="M37.9,14.1c-0.7,0-1.3-0.6-1.3-1.3c0-0.8,0.6-1.3,1.3-1.3c0.4,0,0.7,0.1,1,0.4c0.2,0.3,0.4,0.6,0.4,0.9
				C39.2,13.5,38.6,14.1,37.9,14.1L37.9,14.1z M37.9,12.5c-0.2,0-0.3,0.1-0.3,0.3c0,0.2,0.1,0.3,0.3,0.3v0.5l0-0.5
				c0.2,0,0.4-0.1,0.4-0.3c0-0.1,0-0.2-0.1-0.2C38.1,12.5,38,12.5,37.9,12.5z"/>
		</g>
		<g>
			<path fill="#B0BEC5" d="M31.2,12.8c0-0.5,0.4-0.8,0.8-0.8c0.5,0,0.8,0.4,0.9,0.8c0,0.5-0.4,0.8-0.9,0.8
				C31.6,13.6,31.2,13.3,31.2,12.8z"/>
			<path fill="#B0BEC5" d="M32,14.2L32,14.2c-0.8,0-1.3-0.6-1.3-1.3c0-0.8,0.6-1.3,1.3-1.3c0.7,0,1.3,0.6,1.4,1.3
				C33.4,13.6,32.7,14.2,32,14.2z M32,12.5c-0.2,0-0.3,0.1-0.3,0.3c0,0.2,0.1,0.3,0.3,0.3c0.2,0,0.3-0.2,0.3-0.4
				C32.4,12.6,32.2,12.5,32,12.5z"/>
		</g>
		<g>
			<path fill="#B0BEC5" d="M25.3,12.8c0-0.5,0.4-0.8,0.8-0.8c0.5,0,0.8,0.4,0.8,0.8c0,0.5-0.4,0.8-0.8,0.8
				C25.7,13.7,25.3,13.3,25.3,12.8z"/>
			<path fill="#B0BEC5" d="M26.2,14.1L26.2,14.1C26.1,14.1,26.1,14.1,26.2,14.1c-0.8,0-1.4-0.6-1.4-1.3c0-0.8,0.6-1.3,1.3-1.3
				c0.7,0,1.3,0.6,1.3,1.3C27.5,13.5,26.9,14.1,26.2,14.1z M26.2,12.5c-0.2,0-0.3,0.1-0.3,0.3c0,0.2,0.1,0.3,0.3,0.3l0.1,0.5v-0.5
				c0.2,0,0.3-0.2,0.3-0.3C26.5,12.6,26.3,12.5,26.2,12.5z"/>
		</g>
	</g>
	<g>
		<g>
			<path fill="#FFAB00" d="M35.5,54.1c0,0.6-0.4,0.9-1,0.9h-4.9c-0.6,0-1.1-0.3-1.1-0.9v-1.3c0-0.6,0.5-0.8,1.1-0.8h4.9
				c0.6,0,1,0.2,1,0.8V54.1z"/>
		</g>
		<g>
			<g>
				<path fill="#37474F" d="M30.4,53.3c0-0.2,0-0.3,0-0.4h0.2l0,0.2h0c0.1-0.2,0.2-0.2,0.4-0.2c0.3,0,0.5,0.3,0.5,0.6
					c0,0.4-0.3,0.7-0.6,0.7c-0.2,0-0.3-0.1-0.4-0.2h0v0.7h-0.2V53.3z M30.6,53.6C30.6,53.7,30.6,53.7,30.6,53.6
					c0.1,0.2,0.2,0.4,0.3,0.4c0.2,0,0.4-0.2,0.4-0.5c0-0.2-0.1-0.5-0.4-0.5c-0.2,0-0.3,0.1-0.3,0.3c0,0,0,0.1,0,0.1V53.6z"/>
			</g>
			<g>
				<path fill="#37474F" d="M31.9,53.2c0-0.1,0-0.2,0-0.3h0.2l0,0.2h0c0.1-0.1,0.2-0.2,0.4-0.2c0.2,0,0.3,0.1,0.3,0.2l0,0
					c0-0.1,0.1-0.1,0.1-0.2c0.1-0.1,0.2-0.1,0.3-0.1c0.2,0,0.4,0.1,0.4,0.5v0.7h-0.2v-0.7c0-0.2-0.1-0.4-0.3-0.4
					c-0.1,0-0.2,0.1-0.3,0.2c0,0,0,0.1,0,0.1v0.8h-0.2v-0.7c0-0.2-0.1-0.3-0.3-0.3c-0.1,0-0.2,0.1-0.3,0.2c0,0,0,0.1,0,0.1v0.7h-0.2
					V53.2z"/>
			</g>
		</g>
	</g>
	<g>
		<g>
			<g>
				<polygon fill="#B0BEC5" points="41.5,46 40.9,46.6 42.1,47.8 40.9,49 41.5,49.6 43.3,47.8 				"/>
			</g>
			<g>
				<polygon fill="#B0BEC5" points="38.5,46 38,46.6 39.2,47.8 38,49 38.5,49.6 40.3,47.8 				"/>
			</g>
		</g>
		<g>
			<g>
				<polygon fill="#B0BEC5" points="22.6,49.6 23.1,49 21.9,47.8 23.1,46.6 22.6,46 20.8,47.8 				"/>
			</g>
			<g>
				<polygon fill="#B0BEC5" points="25.5,49.6 26.1,49 24.9,47.8 26.1,46.6 25.5,46 23.7,47.8 				"/>
			</g>
		</g>
	</g>
	<g>
		<path fill="#FFFFFF" d="M36.2,29.4v-3.1h-4.4v-1.8l4.2-7.9h2.5v7.7h1.3v2h-1.3v3.1H36.2z M36.2,24.3v-2.6c0-0.7,0.1-1.4,0.1-2.1
			h-0.1c-0.3,0.7-0.6,1.3-0.9,2L34,24.2v0H36.2z"/>
	</g>
</g>
</svg>
