<?xml version="1.0" encoding="utf-8"?>
<!-- Generator: Adobe Illustrator 16.0.0, SVG Export Plug-In . SVG Version: 6.00 Build 0)  -->
<!DOCTYPE svg PUBLIC "-//W3C//DTD SVG 1.1//EN" "http://www.w3.org/Graphics/SVG/1.1/DTD/svg11.dtd">
<svg version="1.1" id="Layer_1" xmlns="http://www.w3.org/2000/svg" xmlns:xlink="http://www.w3.org/1999/xlink" x="0px" y="0px"
	 width="64px" height="64px" viewBox="0 0 64 64" enable-background="new 0 0 64 64" xml:space="preserve">
<g>
	<g>
		<polygon fill="#FFAB00" points="29,8.4 29,3.5 34.3,3.5 35.5,4.5 39,4.5 39,7.8 		"/>
		<path fill="#37474F" d="M29,9.4c-0.3,0-0.5-0.1-0.7-0.3C28.1,9,28,8.7,28,8.4V3.5c0-0.6,0.4-1,1-1h5.3c0.2,0,0.5,0.1,0.6,0.2
			l0.9,0.8H39c0.6,0,1,0.4,1,1v3.3c0,0.5-0.4,1-0.9,1L29,9.4C29,9.4,29,9.4,29,9.4z M30,4.5v2.9l8-0.5V5.5h-2.5
			c-0.2,0-0.5-0.1-0.6-0.2l-0.9-0.8H30z"/>
	</g>
	<g>
		<path fill="#FFFFFF" d="M54.5,7.5H9.4c-4,0-7.4,2.9-7.4,6.9v2.1h35.5c4,0,7.5,2.5,7.5,5.3v26.9c0,2.8-3.5,4.7-7.5,4.7H2.4
			c0.6,4,3.4,6,7,6h45.1c4,0,7.5-2.8,7.5-6.8V14.4C62,10.4,58.5,7.5,54.5,7.5z"/>
		<path fill="#37474F" d="M54.5,60.5H9.4c-4.3,0-7.4-2.6-8-6.9c0-0.3,0-0.6,0.2-0.8c0.2-0.2,0.5-0.3,0.8-0.3h35.1
			c3.6,0,6.5-1.7,6.5-3.7V21.8c0-2.3-3.1-4.3-6.5-4.3H2c-0.6,0-1-0.4-1-1v-2.1C1,10,4.7,6.5,9.4,6.5h45.1c4.7,0,8.5,3.6,8.5,7.9
			v38.3C63,57.1,59.3,60.5,54.5,60.5z M3.6,54.5c0.8,2.6,2.8,4,5.8,4h45.1c3.2,0,6.5-2.2,6.5-5.8V14.4c0-3.3-2.9-5.9-6.5-5.9H9.4
			C5.8,8.5,3,11.1,3,14.4v1.1h34.5c4.6,0,8.5,2.9,8.5,6.3v26.9c0,3.3-3.7,5.7-8.5,5.7H3.6z"/>
	</g>
	<g>
		<path fill="#FFAB00" d="M3.8,35.5c0.1,10,7.8,16.7,17.4,16.7c9.6,0,17.3-6.7,17.4-16.7H3.8z"/>
		<path fill="#37474F" d="M21.1,53.2c-10.6,0-18.3-7.4-18.4-17.7c0-0.3,0.1-0.5,0.3-0.7s0.4-0.3,0.7-0.3h34.7c0.3,0,0.5,0.1,0.7,0.3
			c0.2,0.2,0.3,0.4,0.3,0.7C39.4,45.8,31.7,53.2,21.1,53.2z M4.8,36.5c0.6,8.6,7.3,14.7,16.3,14.7c9.1,0,15.8-6.1,16.3-14.7H4.8z"/>
	</g>
	<g>
		<rect x="14" y="16.5" fill="#B0BEC5" width="15" height="6"/>
		<path fill="#37474F" d="M29,23.5H14c-0.6,0-1-0.4-1-1v-6c0-0.6,0.4-1,1-1h15c0.6,0,1,0.4,1,1v6C30,23.1,29.6,23.5,29,23.5z
			 M15,21.5h13v-4H15V21.5z"/>
	</g>
	<g>
		<g>
			<line fill="#FFAB00" x1="51" y1="18.5" x2="56" y2="18.5"/>
			<path fill="#37474F" d="M56,19.5h-5c-0.6,0-1-0.4-1-1s0.4-1,1-1h5c0.6,0,1,0.4,1,1S56.6,19.5,56,19.5z"/>
		</g>
		<g>
			<line fill="#FFAB00" x1="51" y1="22.5" x2="56" y2="22.5"/>
			<path fill="#37474F" d="M56,23.5h-5c-0.6,0-1-0.4-1-1s0.4-1,1-1h5c0.6,0,1,0.4,1,1S56.6,23.5,56,23.5z"/>
		</g>
		<g>
			<line fill="#FFAB00" x1="51" y1="27.5" x2="56" y2="27.5"/>
			<path fill="#37474F" d="M56,28.5h-5c-0.6,0-1-0.4-1-1s0.4-1,1-1h5c0.6,0,1,0.4,1,1S56.6,28.5,56,28.5z"/>
		</g>
	</g>
	<g>
		<polygon fill="#FFFFFF" points="55.4,44.8 53.5,46.7 51.6,44.8 53.5,42.9 		"/>
		<path fill="#37474F" d="M53.5,47.7c-0.3,0-0.5-0.1-0.7-0.3l-1.9-1.9c-0.2-0.2-0.3-0.4-0.3-0.7s0.1-0.5,0.3-0.7l1.9-1.9
			c0.2-0.2,0.4-0.3,0.7-0.3h0c0.3,0,0.5,0.1,0.7,0.3l1.9,1.9c0.4,0.4,0.4,1,0,1.4l-1.9,1.9C54,47.6,53.8,47.7,53.5,47.7L53.5,47.7z
			 M53,44.8l0.5,0.5l0.5-0.5l-0.5-0.5L53,44.8z"/>
	</g>
	<g>
		<g>
			<path fill="#37474F" d="M57.2,35.8c0-0.4,0.3-0.7,0.7-0.7c0.4,0,0.7,0.3,0.7,0.7c0,0.4-0.3,0.7-0.7,0.7
				C57.5,36.5,57.2,36.2,57.2,35.8z"/>
			<path fill="#37474F" d="M57.9,37c-0.7,0-1.2-0.6-1.2-1.2c0-0.7,0.5-1.2,1.2-1.2c0.3,0,0.7,0.1,0.9,0.4c0.2,0.2,0.3,0.5,0.3,0.9
				C59.1,36.4,58.6,37,57.9,37z M57.9,35.6c-0.1,0-0.2,0.1-0.2,0.2c0,0.1,0.1,0.2,0.2,0.2c0.1,0,0.2-0.1,0.2-0.2c0-0.1,0-0.1,0-0.1
				C58,35.6,58,35.6,57.9,35.6z"/>
		</g>
		<g>
			<path fill="#37474F" d="M52.3,35.8c0-0.4,0.3-0.7,0.7-0.7c0.4,0,0.7,0.3,0.7,0.7c0,0.4-0.3,0.7-0.7,0.7
				C52.6,36.5,52.3,36.2,52.3,35.8z"/>
			<path fill="#37474F" d="M53,37c-0.7,0-1.2-0.5-1.2-1.2c0-0.3,0.1-0.6,0.3-0.8c0.2-0.2,0.5-0.4,0.9-0.4c0.7,0,1.2,0.5,1.2,1.2
				C54.2,36.5,53.6,37,53,37z M53,35.6c-0.1,0-0.1,0-0.1,0.1c0,0,0,0.1,0,0.1c0,0.1,0.1,0.2,0.2,0.2c0.1,0,0.2-0.1,0.2-0.2
				C53.2,35.7,53.1,35.6,53,35.6z"/>
		</g>
		<g>
			<path fill="#37474F" d="M47.3,35.8c0-0.4,0.3-0.7,0.7-0.7c0.4,0,0.7,0.3,0.7,0.7c0,0.4-0.3,0.7-0.7,0.7
				C47.7,36.5,47.3,36.2,47.3,35.8z"/>
			<path fill="#37474F" d="M48,37c-0.7,0-1.2-0.6-1.2-1.2s0.6-1.2,1.2-1.2c0.7,0,1.2,0.5,1.2,1.2C49.2,36.4,48.7,37,48,37z M48,35.6
				c-0.1,0-0.2,0.1-0.2,0.2c0,0.1,0.1,0.2,0.2,0.2c0.1,0,0.2-0.1,0.2-0.2C48.2,35.6,48.2,35.6,48,35.6z"/>
		</g>
	</g>
	<g>
		<line fill="#B0BEC5" x1="21" y1="29.5" x2="21" y2="22.5"/>
		<path fill="#37474F" d="M21,30.5c-0.6,0-1-0.4-1-1v-7c0-0.6,0.4-1,1-1s1,0.4,1,1v7C22,30.1,21.6,30.5,21,30.5z"/>
	</g>
	<g>
		<path fill="#B0BEC5" d="M26.1,31c0,0.8-0.6,1.5-1.4,1.5h-7.1c-0.8,0-1.4-0.7-1.4-1.5l0,0c0-0.8,0.6-1.5,1.4-1.5h7.1
			C25.5,29.5,26.1,30.2,26.1,31L26.1,31z"/>
		<path fill="#37474F" d="M24.7,33.5h-7.1c-1.3,0-2.4-1.1-2.4-2.5c0-1.4,1.1-2.5,2.4-2.5h7.1c1.3,0,2.4,1.1,2.4,2.5
			C27.1,32.4,26,33.5,24.7,33.5z M17.6,30.5c-0.2,0-0.4,0.2-0.4,0.5c0,0.3,0.2,0.5,0.4,0.5h7.1c0.2,0,0.4-0.2,0.4-0.5
			c0-0.3-0.2-0.5-0.4-0.5H17.6z"/>
	</g>
	<g>
		<path fill="#B0BEC5" d="M26.1,33.5c0,0.8-0.6,1-1.4,1h-7.1c-0.8,0-1.4-0.2-1.4-1l0,0c0-0.8,0.6-1,1.4-1h7.1
			C25.5,32.5,26.1,32.7,26.1,33.5L26.1,33.5z"/>
		<path fill="#37474F" d="M24.7,35.5h-7.1c-2.3,0-2.4-1.5-2.4-2c0-0.5,0.2-2,2.4-2h7.1c2.3,0,2.4,1.5,2.4,2
			C27.1,34,26.9,35.5,24.7,35.5z M17.6,33.5h7.1H17.6z"/>
	</g>
	<g>
		<rect x="2" y="57.5" fill="#78909C" width="60" height="3"/>
		<path fill="#37474F" d="M62,61.5H2c-0.6,0-1-0.4-1-1v-3c0-0.6,0.4-1,1-1h60c0.6,0,1,0.4,1,1v3C63,61.1,62.6,61.5,62,61.5z M3,59.5
			h58v-1H3V59.5z"/>
	</g>
	<g>
		<polyline fill="#FFFFFF" points="7,43.5 16,43.5 16,47.1 23.6,39.5 27.5,43.5 30.2,43.5 32.6,45.5 34,45.5 		"/>
	</g>
	<g>
		<rect x="16" y="22.5" fill="#FFFFFF" width="10" height="2"/>
		<path fill="#37474F" d="M26,25.5H16c-0.6,0-1-0.4-1-1v-2c0-0.6,0.4-1,1-1h10c0.6,0,1,0.4,1,1v2C27,25.1,26.6,25.5,26,25.5z
			 M17,23.5h8H17z"/>
	</g>
</g>
</svg>
