<?xml version="1.0" encoding="utf-8"?>
<!-- Generator: Adobe Illustrator 16.0.0, SVG Export Plug-In . SVG Version: 6.00 Build 0)  -->
<!DOCTYPE svg PUBLIC "-//W3C//DTD SVG 1.1//EN" "http://www.w3.org/Graphics/SVG/1.1/DTD/svg11.dtd">
<svg version="1.1" id="Layer_1" xmlns="http://www.w3.org/2000/svg" xmlns:xlink="http://www.w3.org/1999/xlink" x="0px" y="0px"
	 width="64px" height="64px" viewBox="0 0 64 64" enable-background="new 0 0 64 64" xml:space="preserve">
<g>
	<g>
		<polyline fill="#FFECB3" points="35.5,23 35.5,19 58.5,19 58.5,26.2 52.4,32.2 		"/>
		<path fill="#37474F" d="M52.4,33.2c-0.3,0-0.5-0.1-0.7-0.3c-0.4-0.4-0.4-1,0-1.4l5.8-5.6V20h-21v3c0,0.6-0.4,1-1,1s-1-0.4-1-1v-4
			c0-0.6,0.4-1,1-1h23c0.6,0,1,0.4,1,1v7.2c0,0.3-0.1,0.5-0.3,0.7l-6.1,5.9C52.9,33.1,52.6,33.2,52.4,33.2z"/>
	</g>
	<g>
		<path fill="#37474F" d="M17.3,34.3c-0.4,0-0.8-0.3-1-0.7L9.1,6.1C8.9,5.6,9.2,5,9.8,4.9c0.5-0.1,1.1,0.2,1.2,0.7l7.3,27.5
			c0.1,0.5-0.2,1.1-0.7,1.2C17.5,34.3,17.4,34.3,17.3,34.3z"/>
	</g>
	<g>
		<path fill="#37474F" d="M16.2,34.3c-0.1,0-0.2,0-0.3,0c-0.5-0.1-0.9-0.7-0.7-1.2l7.3-27.5c0.1-0.5,0.7-0.8,1.2-0.7
			c0.5,0.1,0.9,0.7,0.7,1.2l-7.3,27.5C17,34,16.6,34.3,16.2,34.3z"/>
	</g>
	<g>
		<path fill="#37474F" d="M60.5,54.4c0,4.3-3,7.6-7.4,7.6H10.8c-4.3,0-7.3-3.3-7.3-7.6V34.2c0-4.3,3-8.2,7.3-8.2h42.3
			c4.3,0,7.4,3.9,7.4,8.2V54.4z"/>
		<path fill="#37474F" d="M53.1,63H10.8c-4.8,0-8.3-3.6-8.3-8.6V34.2c0-5.2,3.7-9.2,8.3-9.2h42.3c4.7,0,8.4,4,8.4,9.2v20.2
			C61.5,59.3,57.9,63,53.1,63z M10.8,27c-4,0-6.3,3.7-6.3,7.2v20.2c0,3.8,2.7,6.6,6.3,6.6h42.3c3.7,0,6.4-2.8,6.4-6.6V34.2
			c0-3.5-2.4-7.2-6.4-7.2H10.8z"/>
	</g>
	<g>
		<path fill="#FFAB00" d="M55.9,38c0-1,0.1-3.7,0.1-4c0-2-1.6-4-3.6-4H11.6c-2,0-3.6,2-3.6,4c0,0.2,0.1,3,0.1,4H55.9z"/>
	</g>
	<g>
		<g>
			<path fill="#B0BEC5" d="M27.5,44h-18c-0.6,0-1-0.4-1-1s0.4-1,1-1h18c0.6,0,1,0.4,1,1S28.1,44,27.5,44z"/>
		</g>
		<g>
			<path fill="#B0BEC5" d="M27.5,49h-18c-0.6,0-1-0.4-1-1s0.4-1,1-1h18c0.6,0,1,0.4,1,1S28.1,49,27.5,49z"/>
		</g>
		<g>
			<path fill="#B0BEC5" d="M27.5,53h-18c-0.6,0-1-0.4-1-1s0.4-1,1-1h18c0.6,0,1,0.4,1,1S28.1,53,27.5,53z"/>
		</g>
		<g>
			<path fill="#B0BEC5" d="M27.5,57h-18c-0.6,0-1-0.4-1-1s0.4-1,1-1h18c0.6,0,1,0.4,1,1S28.1,57,27.5,57z"/>
		</g>
	</g>
	<g>
		<g>
			<path fill="#37474F" d="M49.4,33.9c0-0.5,0.4-0.8,0.8-0.8c0.5,0,0.8,0.4,0.8,0.8c0,0.5-0.4,0.8-0.8,0.8
				C49.8,34.8,49.4,34.4,49.4,33.9z"/>
			<path fill="#37474F" d="M50.3,35.3c-0.7,0-1.3-0.6-1.3-1.3c0-0.7,0.6-1.3,1.3-1.3c0.4,0,0.7,0.1,1,0.4c0.2,0.3,0.4,0.6,0.4,1
				C51.6,34.7,51,35.3,50.3,35.3L50.3,35.3z M50.3,33.6c-0.2,0-0.3,0.2-0.3,0.3c0,0.2,0.1,0.3,0.3,0.3v0.5l0-0.5
				c0.2,0,0.4-0.1,0.4-0.3c0-0.1,0-0.2-0.1-0.2C50.5,33.6,50.4,33.6,50.3,33.6z"/>
		</g>
		<g>
			<path fill="#37474F" d="M43.6,33.9c0-0.5,0.4-0.8,0.8-0.8c0.5,0,0.8,0.4,0.9,0.8c0,0.5-0.4,0.8-0.9,0.8
				C44,34.8,43.6,34.4,43.6,33.9z"/>
			<path fill="#37474F" d="M44.4,35.3L44.4,35.3c-0.7,0-1.3-0.6-1.3-1.3c0-0.4,0.1-0.7,0.4-0.9c0.3-0.3,0.6-0.4,0.9-0.4
				c0.7,0,1.3,0.6,1.4,1.3C45.7,34.7,45.1,35.3,44.4,35.3z M44.4,33.6c-0.1,0-0.2,0-0.2,0.1c-0.1,0.1-0.1,0.1-0.1,0.2
				c0,0.2,0.1,0.3,0.3,0.3c0.2,0,0.3-0.2,0.3-0.4C44.8,33.8,44.6,33.6,44.4,33.6z"/>
		</g>
		<g>
			<path fill="#37474F" d="M37.7,33.9c0-0.5,0.4-0.8,0.8-0.8c0.5,0,0.8,0.4,0.8,0.8c0,0.5-0.4,0.8-0.8,0.8
				C38.1,34.8,37.7,34.4,37.7,33.9z"/>
			<path fill="#37474F" d="M38.6,35.3L38.6,35.3L38.6,35.3c-0.8,0-1.4-0.6-1.4-1.3c0-0.7,0.6-1.3,1.3-1.3c0.7,0,1.3,0.6,1.3,1.3
				C39.9,34.7,39.3,35.3,38.6,35.3z M38.5,33.6c-0.2,0-0.3,0.2-0.3,0.3c0,0.2,0.1,0.3,0.3,0.3l0,0.5v-0.5c0.2,0,0.3-0.1,0.3-0.3
				C38.9,33.7,38.7,33.6,38.5,33.6z"/>
		</g>
	</g>
	<g>
		<g>
			<path fill="#FFAB00" d="M56,50c0,4.5-3.7,8.2-8.2,8.2c-4.5,0-8.2-3.7-8.2-8.2c0-4.5,3.7-8.2,8.2-8.2C52.3,41.8,56,45.5,56,50z"/>
			<path fill="#37474F" d="M47.8,59.2c-5.1,0-9.2-4.1-9.2-9.2c0-5.1,4.1-9.2,9.2-9.2c5.1,0,9.2,4.1,9.2,9.2
				C57,55.1,52.9,59.2,47.8,59.2z M47.8,42.8c-4,0-7.2,3.2-7.2,7.2c0,4,3.2,7.2,7.2,7.2c4,0,7.2-3.2,7.2-7.2
				C55,46.1,51.8,42.8,47.8,42.8z"/>
		</g>
		<g>
			<path fill="#FFECB3" d="M51.5,50c0,2-1.7,3.7-3.7,3.7s-3.7-1.7-3.7-3.7c0-2.1,1.7-3.7,3.7-3.7S51.5,48,51.5,50z"/>
			<path fill="#37474F" d="M47.8,54.7c-2.6,0-4.7-2.1-4.7-4.7c0-2.6,2.1-4.7,4.7-4.7c2.6,0,4.7,2.1,4.7,4.7
				C52.5,52.6,50.4,54.7,47.8,54.7z M47.8,47.3c-1.5,0-2.7,1.2-2.7,2.7c0,1.5,1.2,2.7,2.7,2.7c1.5,0,2.7-1.2,2.7-2.7
				C50.5,48.5,49.3,47.3,47.8,47.3z"/>
		</g>
	</g>
	<g>
		<path fill="#FFECB3" d="M12.6,4.7c0,1.5-1.2,2.7-2.7,2.7c-1.5,0-2.7-1.2-2.7-2.7C7.1,3.2,8.4,2,9.9,2C11.4,2,12.6,3.2,12.6,4.7z"
			/>
		<path fill="#37474F" d="M9.9,8.5c-2.1,0-3.7-1.7-3.7-3.7C6.1,2.7,7.8,1,9.9,1s3.7,1.7,3.7,3.7C13.6,6.8,11.9,8.5,9.9,8.5z M9.9,3
			c-1,0-1.7,0.8-1.7,1.7c0,1,0.8,1.7,1.7,1.7s1.7-0.8,1.7-1.7C11.6,3.8,10.8,3,9.9,3z"/>
	</g>
	<g>
		<path fill="#FFECB3" d="M26.3,4.7c0,1.5-1.2,2.7-2.7,2.7c-1.5,0-2.7-1.2-2.7-2.7c0-1.5,1.2-2.7,2.7-2.7C25.1,2,26.3,3.2,26.3,4.7z
			"/>
		<path fill="#37474F" d="M23.6,8.5c-2.1,0-3.7-1.7-3.7-3.7c0-2.1,1.7-3.7,3.7-3.7c2.1,0,3.7,1.7,3.7,3.7
			C27.3,6.8,25.7,8.5,23.6,8.5z M23.6,3c-1,0-1.7,0.8-1.7,1.7c0,1,0.8,1.7,1.7,1.7c1,0,1.7-0.8,1.7-1.7C25.3,3.8,24.6,3,23.6,3z"/>
	</g>
</g>
</svg>
