<?xml version="1.0" encoding="utf-8"?>
<!-- Generator: Adobe Illustrator 16.0.0, SVG Export Plug-In . SVG Version: 6.00 Build 0)  -->
<!DOCTYPE svg PUBLIC "-//W3C//DTD SVG 1.1//EN" "http://www.w3.org/Graphics/SVG/1.1/DTD/svg11.dtd">
<svg version="1.1" id="Layer_1" xmlns="http://www.w3.org/2000/svg" xmlns:xlink="http://www.w3.org/1999/xlink" x="0px" y="0px"
	 width="24px" height="24px" viewBox="0 0 24 24" enable-background="new 0 0 24 24" xml:space="preserve">
<g>
	<path d="M18.2,0.1c-1.1,0-2.2,0.4-3.1,1.1c-1.8-1.4-4.4-1.4-6.2,0C8,0.5,6.9,0.1,5.8,0.1C3,0.1,0.7,2.4,0.7,5.2
		c0,2,1.1,3.9,2.6,4.8v9.9c0,2.2,1.6,4.1,3.6,4.1h10.3c1.9,0,3.1-1.7,3.1-4.1v-10c1.5-0.8,3-2.6,3-4.7C23.3,2.4,21,0.1,18.2,0.1z
		 M19.6,9.1c-0.2,0.1-0.3,0.3-0.3,0.5c0,0,0,0,0,0.1v10.2c0,1.5-0.7,3.1-2.1,3.1H6.9c-1.4,0-2.6-1.4-2.6-3.1V9.6
		c0-0.3-0.2-0.5-0.4-0.5C2.6,8.4,1.7,6.9,1.7,5.2c0-2.3,1.8-4.1,4.1-4.1c1,0,2,0.4,2.8,1.1c0.2,0.2,0.5,0.2,0.7,0
		c1.5-1.4,4-1.4,5.5,0c0.2,0.2,0.5,0.2,0.7,0c0.8-0.7,1.7-1.1,2.8-1.1c2.2,0,4.1,1.8,4.1,4.1C22.3,6.9,20.9,8.5,19.6,9.1z"/>
	<path d="M9.8,15.7C9.8,15.7,9.8,15.7,9.8,15.7c-0.5,0-0.8,0.4-0.8,0.8c0,0.2,0.1,0.4,0.2,0.6c0.2,0.2,0.4,0.2,0.6,0.2l0,0
		c0.4,0,0.8-0.4,0.8-0.8C10.6,16.1,10.2,15.7,9.8,15.7z"/>
	<path d="M12,15.7c-0.4,0-0.8,0.4-0.8,0.8c0,0.5,0.4,0.8,0.8,0.8c0.2,0,0.4-0.1,0.6-0.3c0.2-0.2,0.2-0.4,0.2-0.6
		C12.8,16.1,12.5,15.7,12,15.7z"/>
	<path d="M14.2,15.7c-0.4,0-0.8,0.4-0.8,0.8c0,0.5,0.4,0.8,0.8,0.8c0.5,0,0.8-0.4,0.8-0.8C15.1,16.1,14.7,15.7,14.2,15.7z"/>
	<path d="M9.6,9.7c0.2,0,0.3-0.1,0.4-0.2c0.1-0.2,0.1-0.5-0.2-0.7C9.2,8.3,8.8,7.7,8.6,6.9C8.4,6.1,8.6,5.4,9,4.7
		C9.1,4.5,9.1,4.1,8.8,4C8.6,3.9,8.3,3.9,8.1,4.2C7.6,5,7.4,6.1,7.6,7.1c0.2,1,0.8,1.9,1.7,2.5C9.4,9.6,9.5,9.7,9.6,9.7z"/>
	<path d="M15.2,4c-0.2,0.1-0.3,0.5-0.2,0.7c0.9,1.4,0.5,3.2-0.9,4.1c-0.2,0.1-0.3,0.5-0.2,0.7c0.1,0.1,0.3,0.2,0.4,0.2
		c0.1,0,0.2,0,0.3-0.1C16.5,8.4,17,6,15.9,4.2C15.7,3.9,15.4,3.9,15.2,4z"/>
</g>
</svg>
