<?xml version="1.0" encoding="utf-8"?>
<!-- Generator: Adobe Illustrator 16.0.0, SVG Export Plug-In . SVG Version: 6.00 Build 0)  -->
<!DOCTYPE svg PUBLIC "-//W3C//DTD SVG 1.1//EN" "http://www.w3.org/Graphics/SVG/1.1/DTD/svg11.dtd">
<svg version="1.1" id="Layer_1" xmlns="http://www.w3.org/2000/svg" xmlns:xlink="http://www.w3.org/1999/xlink" x="0px" y="0px"
	 width="32px" height="32px" viewBox="0 0 32 32" enable-background="new 0 0 32 32" xml:space="preserve">
<g>
	<g>
		<path fill="#FFAB00" d="M16.9,13.1c0.1,0.9,0.7,1.6,1.5,2v0.5c0,0.9,0.6,1.7,1.4,2v4.1c0,1.2,1,2.1,2.1,2.1c1.2,0,2.1-1,2.1-2.1
			v-2.3c0.3,0.1,0.7,0.2,1,0.2c1.5,0,2.8-1.2,2.8-2.8v-4.4"/>
		<path fill="#37474F" d="M21.9,24.3c-1.5,0-2.6-1.2-2.6-2.6v-3.7c-0.8-0.5-1.4-1.4-1.4-2.3v-0.2c-0.8-0.5-1.3-1.3-1.5-2.2
			c0-0.3,0.2-0.5,0.4-0.6c0.3,0,0.5,0.2,0.6,0.4c0.1,0.7,0.5,1.3,1.2,1.6c0.2,0.1,0.3,0.3,0.3,0.5v0.5c0,0.7,0.4,1.3,1.1,1.5
			c0.2,0.1,0.3,0.3,0.3,0.5v4.1c0,0.9,0.7,1.6,1.6,1.6c0.9,0,1.6-0.7,1.6-1.6v-2.3c0-0.2,0.1-0.3,0.2-0.4c0.1-0.1,0.3-0.1,0.5-0.1
			c0.3,0.1,0.5,0.2,0.8,0.2c1.2,0,2.3-1,2.3-2.3v-4.4c0-0.3,0.2-0.5,0.5-0.5s0.5,0.2,0.5,0.5v4.4c0,1.8-1.5,3.3-3.3,3.3
			c-0.2,0-0.3,0-0.5,0v1.7C24.6,23.1,23.4,24.3,21.9,24.3z"/>
	</g>
	<g>
		<path fill="#37474F" d="M29,9.5c-0.2,0-0.4-0.1-0.5-0.3c-0.1-0.3,0-0.5,0.3-0.7c0.9-0.4,1.5-1.2,1.5-2V3.9c0-1.3-1.4-2.3-3.1-2.3
			H4.7c-1.7,0-3.1,1-3.1,2.3v2.7C1.7,6.8,1.4,7,1.2,7S0.7,6.8,0.7,6.5V3.9c0-1.8,1.8-3.3,4.1-3.3h22.6c2.2,0,4.1,1.5,4.1,3.3v2.7
			c0,1.2-0.8,2.3-2.1,2.9C29.2,9.4,29.1,9.5,29,9.5z"/>
	</g>
	<g>
		<path fill="#37474F" d="M16.1,24.1c-0.3,0-0.5-0.2-0.5-0.5V18L3.6,18c-0.9,0-1.8,0-2.4-0.6c-0.4-0.4-0.6-0.9-0.6-1.7V4.3
			c0-0.3,0.2-0.5,0.5-0.5S1.7,4,1.7,4.3v11.5c0,0.5,0.1,0.8,0.3,1c0.3,0.3,0.9,0.3,1.7,0.3L4,17h12.1c0.3,0,0.5,0.2,0.5,0.5v6
			C16.6,23.8,16.4,24.1,16.1,24.1z"/>
	</g>
	<g>
		<path fill="#FFECB3" d="M16.4,13.1H8.3c-1.5,0-2.8-1.2-2.8-2.8V7.7c0-1.5,1.2-2.8,2.8-2.8h17.6c1.5,0,2.8,1.2,2.8,2.8v2.6
			c0,1.5-1.2,2.8-2.8,2.8"/>
		<path fill="#37474F" d="M25.9,13.6c-0.3,0-0.5-0.2-0.5-0.5s0.2-0.5,0.5-0.5c1.3,0,2.3-1,2.3-2.3V7.7c0-1.3-1-2.3-2.3-2.3H8.3
			C7.1,5.4,6,6.4,6,7.7v2.6c0,1.3,1,2.3,2.3,2.3h8.1c0.3,0,0.5,0.2,0.5,0.5s-0.2,0.5-0.5,0.5H8.3c-1.8,0-3.3-1.5-3.3-3.3V7.7
			c0-1.8,1.5-3.3,3.3-3.3h17.6c1.8,0,3.3,1.5,3.3,3.3v2.6C29.2,12.1,27.7,13.6,25.9,13.6z"/>
	</g>
	<g>
		<path fill="#FFECB3" d="M13.3,30.9v-3.9c0-1.3,0.8-2.4,1.8-2.4h1.7c1,0,1.8,1.1,1.8,2.4v3.9"/>
		<path fill="#37474F" d="M18.7,31.4c-0.3,0-0.5-0.2-0.5-0.5v-3.9c0-1-0.6-1.9-1.3-1.9h-1.7c-0.7,0-1.3,0.8-1.3,1.9v3.9
			c0,0.3-0.2,0.5-0.5,0.5s-0.5-0.2-0.5-0.5v-3.9c0-1.6,1.1-2.9,2.3-2.9h1.7c1.3,0,2.3,1.3,2.3,2.9v3.9C19.2,31.2,19,31.4,18.7,31.4z
			"/>
	</g>
	<g>
		<path fill="#FFECB3" d="M5.2,10.8c-1,0-1.8-0.8-1.8-1.8s0.8-1.8,1.8-1.8"/>
		<path fill="#37474F" d="M5.2,11.3c-1.3,0-2.3-1-2.3-2.3s1-2.3,2.3-2.3c0.3,0,0.5,0.2,0.5,0.5S5.5,7.7,5.2,7.7
			C4.5,7.7,3.9,8.3,3.9,9s0.6,1.3,1.3,1.3c0.3,0,0.5,0.2,0.5,0.5S5.5,11.3,5.2,11.3z"/>
	</g>
	<g>
		<g>
			<path fill="#37474F" d="M16.6,28.1h-1.1c-0.3,0-0.5-0.2-0.5-0.5s0.2-0.5,0.5-0.5h1.1c0.3,0,0.5,0.2,0.5,0.5S16.8,28.1,16.6,28.1z
				"/>
		</g>
		<g>
			<path fill="#37474F" d="M16.6,30.3h-1.1c-0.3,0-0.5-0.2-0.5-0.5s0.2-0.5,0.5-0.5h1.1c0.3,0,0.5,0.2,0.5,0.5S16.8,30.3,16.6,30.3z
				"/>
		</g>
	</g>
	<g>
		<g>
			<path fill="#FFAB00" d="M25.9,13.1c1.5,0,2.8-1.2,2.8-2.8V7.7c0-1.5-1.2-2.8-2.8-2.8h-9l0,8.2"/>
			<path fill="#37474F" d="M16.9,13.6c-0.3,0-0.5-0.2-0.5-0.5l0-8.2c0-0.1,0.1-0.3,0.1-0.4c0.1-0.1,0.2-0.1,0.4-0.1h9
				c1.8,0,3.3,1.5,3.3,3.3v2.6c0,1.8-1.5,3.3-3.3,3.3c-0.3,0-0.5-0.2-0.5-0.5s0.2-0.5,0.5-0.5c1.3,0,2.3-1,2.3-2.3V7.7
				c0-1.3-1-2.3-2.3-2.3h-8.5l0,7.7C17.4,13.4,17.2,13.6,16.9,13.6L16.9,13.6z"/>
		</g>
	</g>
	<g>
		<path fill="#37474F" d="M27.8,6.2c-0.1,0-0.2,0-0.3-0.1c-0.4-0.4-1-0.6-1.6-0.6h-9c-0.3,0-0.5-0.2-0.5-0.5s0.2-0.5,0.5-0.5h9
			c0.8,0,1.7,0.3,2.3,0.9c0.2,0.2,0.2,0.5,0,0.7C28.1,6.1,28,6.2,27.8,6.2z"/>
	</g>
</g>
</svg>
