<?xml version="1.0" encoding="utf-8"?>
<!-- Generator: Adobe Illustrator 16.0.0, SVG Export Plug-In . SVG Version: 6.00 Build 0)  -->
<!DOCTYPE svg PUBLIC "-//W3C//DTD SVG 1.1//EN" "http://www.w3.org/Graphics/SVG/1.1/DTD/svg11.dtd">
<svg version="1.1" id="Layer_1" xmlns="http://www.w3.org/2000/svg" xmlns:xlink="http://www.w3.org/1999/xlink" x="0px" y="0px"
	 width="24px" height="24px" viewBox="0 0 24 24" enable-background="new 0 0 24 24" xml:space="preserve">
<g>
	<path d="M20.7,0.2h-17C2,0.2,0.2,1.9,0.2,3.6v17c0,1.8,1.9,3.2,3.5,3.2h17c1.7,0,3-1.4,3-3.2v-17C23.8,2,22.5,0.2,20.7,0.2z
		 M22.8,20.6c0,1.2-0.9,2.2-2,2.2H13v-7.8c0-0.3-0.2-0.5-0.5-0.5S12,14.7,12,14.9v7.8H3.8c-1.1,0-2.5-1-2.5-2.2v-17
		c0-1.1,1.3-2.4,2.5-2.4h17c1.2,0,2,1.2,2,2.4V20.6z"/>
	<path d="M19.9,10.7c0-4.2-3.4-7.6-7.7-7.6c-4.3,0-7.7,3.3-7.7,7.5c0,0.9,0.1,1.3,0.6,1.3h2.9c0.2,0,0.3-0.1,0.4-0.2
		C8.6,11.9,8.7,12,8.9,12c0.2,0,0.5-0.1,0.5-0.6c0-0.1,0-0.2,0-0.3c0-0.1,0-0.1,0-0.2c0.1-0.4,0.2-0.7,0.4-1l1.2,1.2
		c-0.1,0.2-0.2,0.4-0.2,0.6c0,0.8,0.6,1.4,1.4,1.4s1.4-0.6,1.4-1.4c0-0.8-0.6-1.4-1.4-1.4c-0.2,0-0.3,0-0.4,0.1l-1.3-1.3
		c0.5-0.4,1.1-0.6,1.7-0.6c1.4,0,2.5,1,2.8,2.3c0,0.1,0,0.1,0,0.2c0,0.1,0,0.2,0,0.3c0,0.4,0.2,0.6,0.5,0.6c0,0,0,0,0,0
		c0.2,0,0.3-0.1,0.4-0.3c0.1,0.2,0.2,0.3,0.4,0.3c0,0,0,0,0,0l2.9,0C19.8,12,19.9,11.5,19.9,10.7z M11.9,11.6c0.1,0,0.1-0.1,0.1-0.1
		c0,0,0,0,0,0c0,0,0.1,0,0.1,0c0.2,0,0.4,0.2,0.4,0.4c0,0.2-0.2,0.4-0.4,0.4s-0.4-0.2-0.4-0.4C11.9,11.7,11.9,11.7,11.9,11.6z
		 M8.4,11.2C8.3,11.1,8.2,11,8.1,11H5.6c0-0.1,0-0.2,0-0.3c0-1.4,0.5-2.7,1.2-3.8C6.8,6.9,6.8,7,6.9,7l2.3,2.3
		C8.7,9.8,8.5,10.5,8.4,11.2z M18.9,11l-2.5,0c-0.2,0-0.3,0.1-0.4,0.2c-0.2-2-1.8-3.5-3.8-3.5c-0.9,0-1.8,0.3-2.4,0.9L7.6,6.3
		C7.5,6.2,7.4,6.2,7.4,6.2c1.2-1.3,2.9-2,4.9-2c3.8,0,6.7,2.9,6.7,6.6C18.9,10.8,18.9,10.9,18.9,11z"/>
	<path d="M9.8,14.5c-0.4,0-0.8,0.4-0.8,0.8c0,0.4,0.4,0.8,0.8,0.8h0c0.4,0,0.8-0.4,0.8-0.8c0-0.2-0.1-0.4-0.2-0.6
		C10.2,14.6,10,14.5,9.8,14.5z"/>
	<path d="M6.6,14.5c-0.4,0-0.8,0.4-0.8,0.8c0,0.4,0.4,0.8,0.8,0.8h0h0c0.4,0,0.8-0.4,0.8-0.8C7.4,14.9,7,14.5,6.6,14.5z"/>
	<path d="M9.8,16.6c-0.4,0-0.8,0.4-0.8,0.8c0,0.4,0.4,0.8,0.8,0.8h0c0.4,0,0.8-0.4,0.8-0.8c0-0.2-0.1-0.4-0.2-0.6S10,16.6,9.8,16.6z
		"/>
	<path d="M6.6,16.6c-0.4,0-0.8,0.4-0.8,0.8c0,0.4,0.4,0.8,0.8,0.8h0c0.4,0,0.8-0.4,0.8-0.8C7.4,16.9,7,16.6,6.6,16.6z"/>
	<path d="M9.8,18.6C9.3,18.6,9,19,9,19.4c0,0.4,0.4,0.8,0.8,0.8h0c0.4,0,0.8-0.4,0.8-0.8c0-0.2-0.1-0.4-0.2-0.6
		C10.2,18.7,10,18.6,9.8,18.6z"/>
	<path d="M6.6,18.6c-0.4,0-0.8,0.4-0.8,0.8c0,0.4,0.4,0.8,0.8,0.8h0h0c0.4,0,0.8-0.4,0.8-0.8C7.4,19,7,18.6,6.6,18.6z"/>
	<path d="M17.9,14.5c-0.4,0-0.8,0.4-0.8,0.8c0,0.4,0.4,0.8,0.8,0.8h0c0.4,0,0.8-0.4,0.8-0.8c0-0.2-0.1-0.4-0.2-0.6
		S18.1,14.5,17.9,14.5z"/>
	<path d="M14.7,14.5c-0.4,0-0.8,0.4-0.8,0.8c0,0.4,0.4,0.8,0.8,0.8h0h0c0.4,0,0.8-0.4,0.8-0.8C15.5,14.9,15.2,14.5,14.7,14.5z"/>
	<path d="M17.9,16.6c-0.4,0-0.8,0.4-0.8,0.8c0,0.4,0.4,0.8,0.8,0.8h0c0.4,0,0.8-0.4,0.8-0.8c0-0.2-0.1-0.4-0.2-0.6
		C18.3,16.7,18.1,16.6,17.9,16.6z"/>
	<path d="M14.7,16.6c-0.4,0-0.8,0.4-0.8,0.8c0,0.4,0.4,0.8,0.8,0.8h0c0.4,0,0.8-0.4,0.8-0.8C15.5,16.9,15.2,16.6,14.7,16.6z"/>
	<path d="M17.9,18.6c-0.4,0-0.8,0.4-0.8,0.8c0,0.4,0.4,0.8,0.8,0.8h0c0.4,0,0.8-0.4,0.8-0.8c0-0.2-0.1-0.4-0.2-0.6
		C18.3,18.7,18.1,18.6,17.9,18.6z"/>
	<path d="M14.7,18.6c-0.4,0-0.8,0.4-0.8,0.8c0,0.4,0.4,0.8,0.8,0.8h0h0c0.4,0,0.8-0.4,0.8-0.8C15.5,19,15.2,18.6,14.7,18.6z"/>
	<path d="M2.7,4C3,4,3.2,3.7,3.2,3.5c0-0.2,0.2-0.4,0.4-0.4c0.2,0,0.4,0.2,0.4,0.4C3.9,3.7,4.2,4,4.4,4s0.5-0.2,0.5-0.5
		c0-0.7-0.6-1.4-1.4-1.4c-0.7,0-1.4,0.6-1.4,1.4C2.2,3.7,2.5,4,2.7,4z"/>
	<path d="M20.9,2.1c-0.7,0-1.4,0.6-1.4,1.4C19.5,3.7,19.8,4,20,4s0.5-0.2,0.5-0.5c0-0.2,0.2-0.4,0.4-0.4c0.2,0,0.4,0.2,0.4,0.4
		c0,0.3,0.2,0.5,0.5,0.5s0.5-0.2,0.5-0.5C22.2,2.7,21.6,2.1,20.9,2.1z"/>
	<path d="M3.6,19.2c-0.7,0-1.4,0.6-1.4,1.4c0,0.3,0.2,0.5,0.5,0.5s0.5-0.2,0.5-0.5c0-0.2,0.2-0.4,0.4-0.4c0.2,0,0.4,0.2,0.4,0.4
		c0,0.3,0.2,0.5,0.5,0.5s0.5-0.2,0.5-0.5C4.9,19.8,4.3,19.2,3.6,19.2z"/>
	<path d="M20.9,19.2c-0.7,0-1.4,0.6-1.4,1.4c0,0.3,0.2,0.5,0.5,0.5s0.5-0.2,0.5-0.5c0-0.2,0.2-0.4,0.4-0.4c0.2,0,0.4,0.2,0.4,0.4
		c0,0.3,0.2,0.5,0.5,0.5s0.5-0.2,0.5-0.5C22.2,19.8,21.6,19.2,20.9,19.2z"/>
</g>
</svg>
