<?xml version="1.0" encoding="utf-8"?>
<!-- Generator: Adobe Illustrator 16.0.0, SVG Export Plug-In . SVG Version: 6.00 Build 0)  -->
<!DOCTYPE svg PUBLIC "-//W3C//DTD SVG 1.1//EN" "http://www.w3.org/Graphics/SVG/1.1/DTD/svg11.dtd">
<svg version="1.1" id="Layer_1" xmlns="http://www.w3.org/2000/svg" xmlns:xlink="http://www.w3.org/1999/xlink" x="0px" y="0px"
	 width="64px" height="64px" viewBox="0 0 64 64" enable-background="new 0 0 64 64" xml:space="preserve">
<g>
	<g>
		<path fill="#FFFFFF" d="M60.8,14.1c0-6.8-5.5-12.2-12.2-12.2c-3.2,0-6.1,1.3-8.3,3.3c-2.2-2-5.1-3.3-8.3-3.3
			c-3.2,0-6.1,1.3-8.3,3.3c-2.2-2-5.1-3.3-8.3-3.3C8.6,1.9,3.2,7.4,3.2,14.1c0,4.9,3,9.2,7.2,11.1c0,0.3-0.1,0.5-0.1,0.8v27.1
			c0,5.2,3.5,9,8,9h27.4c4.5,0,8.6-3.8,8.6-9V26c0-0.3,0-0.7,0-0.9C58.5,23.1,60.8,19,60.8,14.1z"/>
		<path fill="#37474F" d="M45.7,63.1H18.3c-5.1,0-9-4.3-9-10V26c0-0.1,0-0.1,0-0.2C4.9,23.5,2.2,19,2.2,14.1
			c0-7.3,5.9-13.2,13.2-13.2c3,0,5.9,1.1,8.3,3c2.4-1.9,5.3-3,8.3-3c3,0,5.9,1.1,8.3,3c2.4-1.9,5.3-3,8.3-3
			c7.3,0,13.2,5.9,13.2,13.2c0,5.1-2.4,9.4-6.5,11.5c0,0.1,0,0.2,0,0.3v27.1C55.3,58.6,51,63.1,45.7,63.1z M15.4,2.9
			c-6.2,0-11.2,5-11.2,11.2c0,4.3,2.6,8.3,6.6,10.2c0.4,0.2,0.6,0.6,0.6,1c0,0.1,0,0.3-0.1,0.4c0,0.1,0,0.2,0,0.3v27.1
			c0,4.6,3,8,7,8h27.4c4.2,0,7.6-3.6,7.6-8V26c0-0.3,0-0.6,0-0.9c0-0.4,0.2-0.8,0.6-1c3.8-1.7,6-5.4,6-10c0-6.2-5-11.2-11.2-11.2
			c-2.8,0-5.5,1.1-7.6,3c-0.4,0.4-1,0.4-1.4,0c-2.1-2-4.8-3-7.6-3c-2.8,0-5.5,1.1-7.6,3c-0.4,0.4-1,0.4-1.4,0
			C20.9,4,18.2,2.9,15.4,2.9z"/>
	</g>
	<g>
		<path fill="#FFAB00" d="M10.7,56.1c1.1,4,4,6,7.6,6h27.4c3.5,0,6.5-2,7.6-6H10.7z"/>
		<path fill="#37474F" d="M45.7,63.1H18.3c-4.2,0-7.4-2.5-8.5-6.7c-0.1-0.3,0-0.6,0.2-0.9c0.2-0.2,0.5-0.4,0.8-0.4h42.6
			c0.3,0,0.6,0.1,0.8,0.4c0.2,0.2,0.2,0.6,0.2,0.9C53.1,60.6,49.9,63.1,45.7,63.1z M12.1,57.1c1.1,2.6,3.3,4,6.2,4h27.4
			c2.8,0,5-1.4,6.2-4H12.1z"/>
	</g>
	<g>
		<g>
			<path fill="#37474F" d="M26.9,44.3c0,0.5-0.4,0.8-0.8,0.9c-0.5,0-0.9-0.4-0.9-0.9c0-0.5,0.4-0.8,0.9-0.8
				C26.5,43.5,26.9,43.9,26.9,44.3z"/>
			<path fill="#37474F" d="M26,45.7c-0.4,0-0.7-0.1-1-0.4c-0.3-0.3-0.4-0.6-0.4-1c0-0.7,0.6-1.3,1.4-1.3h0c0.7,0,1.3,0.6,1.3,1.3
				C27.4,45,26.8,45.6,26,45.7L26,45.7z M26.1,44c-0.2,0-0.4,0.1-0.4,0.3c0,0.1,0.1,0.2,0.1,0.3c0.1,0.1,0.2,0.1,0.2,0.1v0.5l0-0.5
				c0.2,0,0.4-0.1,0.4-0.4C26.4,44.1,26.2,44,26.1,44z"/>
		</g>
		<g>
			<path fill="#37474F" d="M32.9,44.3c0,0.5-0.4,0.8-0.8,0.8c-0.5,0-0.9-0.4-0.9-0.9c0-0.4,0.4-0.9,0.9-0.9
				C32.5,43.5,32.9,43.9,32.9,44.3z"/>
			<path fill="#37474F" d="M32,45.7c-0.8,0-1.4-0.6-1.4-1.4c0-0.7,0.6-1.4,1.4-1.4c0.8,0,1.4,0.6,1.4,1.4c0,0.3-0.1,0.7-0.4,0.9
				C32.7,45.5,32.4,45.7,32,45.7z M32,44c-0.2,0-0.3,0.2-0.3,0.4c0,0.3,0.4,0.5,0.6,0.3c0,0,0.1-0.1,0.1-0.2
				C32.4,44.1,32.2,44,32,44z"/>
		</g>
		<g>
			<path fill="#37474F" d="M38.8,44.3c0,0.5-0.4,0.9-0.9,0.9c-0.5,0-0.9-0.4-0.9-0.9c0-0.5,0.4-0.9,0.9-0.8
				C38.4,43.5,38.8,43.8,38.8,44.3z"/>
			<path fill="#37474F" d="M38,45.7c-0.8,0-1.4-0.6-1.4-1.4c0-0.7,0.6-1.3,1.3-1.3c0.8,0,1.4,0.6,1.4,1.3
				C39.3,45.1,38.7,45.7,38,45.7z M38,44c-0.2,0-0.4,0.2-0.4,0.3c0,0.2,0.2,0.4,0.4,0.4c0.2,0,0.4-0.2,0.4-0.4
				C38.3,44.1,38.2,44,38,44z"/>
		</g>
	</g>
	<g>
		<g>
			<path fill="#37474F" d="M25.6,25.7c-0.2,0-0.4-0.1-0.5-0.2c-4.7-3-6.1-9.3-3.1-14c0.3-0.5,0.9-0.6,1.4-0.3
				c0.5,0.3,0.6,0.9,0.3,1.4c-2.4,3.8-1.3,8.9,2.5,11.3c0.5,0.3,0.6,0.9,0.3,1.4C26.3,25.5,26,25.7,25.6,25.7z"/>
		</g>
		<g>
			<path fill="#37474F" d="M38.4,25.7c-0.3,0-0.7-0.2-0.8-0.5c-0.3-0.5-0.2-1.1,0.3-1.4c3.8-2.4,4.9-7.5,2.5-11.3
				c-0.3-0.5-0.2-1.1,0.3-1.4c0.5-0.3,1.1-0.2,1.4,0.3c3,4.7,1.6,11-3.1,14C38.7,25.7,38.5,25.7,38.4,25.7z"/>
		</g>
	</g>
</g>
</svg>
