<?xml version="1.0" encoding="utf-8"?>
<!-- Generator: Adobe Illustrator 16.0.0, SVG Export Plug-In . SVG Version: 6.00 Build 0)  -->
<!DOCTYPE svg PUBLIC "-//W3C//DTD SVG 1.1//EN" "http://www.w3.org/Graphics/SVG/1.1/DTD/svg11.dtd">
<svg version="1.1" id="Layer_1" xmlns="http://www.w3.org/2000/svg" xmlns:xlink="http://www.w3.org/1999/xlink" x="0px" y="0px"
	 width="64px" height="64px" viewBox="0 0 64 64" enable-background="new 0 0 64 64" xml:space="preserve">
<g>
	<g>
		<polygon fill="#B0BEC5" points="47.6,44.9 44.9,47.6 33,35.7 35.7,33 		"/>
		<path fill="#37474F" d="M44.9,49L31.6,35.7l4.1-4.1L49,44.9L44.9,49z M34.4,35.7l10.5,10.5l1.3-1.3L35.7,34.4L34.4,35.7z"/>
	</g>
	<g>
		<path fill="#37474F" d="M39.5,9.3c8.3,8.3,8.3,21.9,0,30.2c-8.3,8.3-21.9,8.3-30.2,0c-8.3-8.3-8.3-21.9,0-30.2
			C17.6,0.9,31.1,0.9,39.5,9.3z"/>
		<path fill="#37474F" d="M24.4,46.7c-6,0-11.6-2.3-15.8-6.5c-8.7-8.7-8.7-22.9,0-31.6C12.8,4.3,18.4,2,24.4,2S36,4.3,40.2,8.6
			c4.2,4.2,6.6,9.8,6.6,15.8S44.4,36,40.2,40.2C36,44.4,30.3,46.7,24.4,46.7z M24.4,4C18.9,4,13.8,6.1,10,10C2,17.9,2,30.8,10,38.8
			c3.8,3.8,9,6,14.4,6c5.4,0,10.6-2.1,14.4-6c3.8-3.8,6-9,6-14.4s-2.1-10.6-6-14.4C34.9,6.1,29.8,4,24.4,4z"/>
	</g>
	<g>
		<path fill="#FFAB00" d="M60,55.1c1.3,1.3,1.3,3.5,0,4.9l0,0c-1.3,1.3-3.5,1.3-4.9,0L44,48.8c-1.3-1.3-1.3-3.5,0-4.9l0,0
			c1.3-1.3,3.5-1.3,4.9,0L60,55.1z"/>
		<path fill="#37474F" d="M57.6,62c-1.2,0-2.3-0.5-3.1-1.3L43.3,49.5c-0.8-0.8-1.3-2-1.3-3.1s0.5-2.3,1.3-3.1
			c0.8-0.8,1.9-1.3,3.1-1.3c1.2,0,2.3,0.5,3.1,1.3l11.1,11.1c1.7,1.7,1.7,4.5,0,6.3C59.9,61.5,58.7,62,57.6,62z M46.4,44
			c-0.6,0-1.3,0.3-1.7,0.7c-0.5,0.5-0.7,1.1-0.7,1.7c0,0.7,0.3,1.3,0.7,1.7l11.1,11.1c0.9,0.9,2.5,0.9,3.4,0c0.9-1,0.9-2.5,0-3.4
			L48.1,44.7C47.7,44.2,47.1,44,46.4,44z"/>
	</g>
	<g>
		<g>
			<path fill="#37474F" d="M49.2,49.2c-0.3,0.3-0.7,0.3-0.9,0c-0.3-0.3-0.3-0.7,0-0.9c0.3-0.3,0.7-0.3,0.9,0
				C49.4,48.5,49.4,48.9,49.2,49.2z"/>
			<path fill="#37474F" d="M48.7,49.9c-0.3,0-0.6-0.1-0.8-0.3c-0.2-0.2-0.4-0.5-0.4-0.8c0-0.3,0.1-0.6,0.4-0.8
				c0.4-0.4,1.2-0.4,1.6,0c0.2,0.2,0.3,0.5,0.3,0.8c0,0.3-0.1,0.6-0.3,0.9C49.3,49.7,49,49.9,48.7,49.9z M48.7,48.5
				c0,0-0.1,0-0.1,0.1c0,0-0.1,0.1-0.1,0.1c0,0,0,0.1,0,0.1c0.1,0.1,0.2,0.1,0.2,0c0,0,0-0.1,0-0.1l-0.1-0.1
				C48.8,48.5,48.7,48.5,48.7,48.5z"/>
		</g>
		<g>
			<path fill="#37474F" d="M52.5,52.4c-0.3,0.3-0.7,0.3-0.9,0c-0.3-0.3-0.3-0.7,0-0.9c0.3-0.3,0.7-0.3,1,0
				C52.7,51.8,52.7,52.2,52.5,52.4z"/>
			<path fill="#37474F" d="M52,53.1c-0.3,0-0.6-0.1-0.8-0.4c-0.4-0.4-0.4-1.2,0-1.6c0.4-0.4,1.2-0.5,1.7,0c0.4,0.5,0.4,1.2,0,1.6
				C52.6,53,52.3,53.1,52,53.1z M52,51.8c0,0-0.1,0-0.1,0c-0.1,0.1-0.1,0.2,0,0.2c0.1,0.1,0.1,0.1,0.2,0c0.1-0.1,0.1-0.2,0-0.2
				C52.1,51.8,52,51.8,52,51.8z"/>
		</g>
		<g>
			<path fill="#37474F" d="M55.7,55.7c-0.3,0.3-0.7,0.3-0.9,0c-0.3-0.3-0.3-0.7,0-0.9c0.3-0.3,0.7-0.3,0.9,0
				C56,55,56,55.5,55.7,55.7z"/>
			<path fill="#37474F" d="M55.3,56.4c-0.3,0-0.6-0.1-0.8-0.3c-0.2-0.2-0.3-0.5-0.3-0.8c0-0.3,0.1-0.6,0.3-0.8
				c0.5-0.4,1.2-0.4,1.6,0c0.2,0.2,0.3,0.5,0.3,0.8c0,0.3-0.1,0.6-0.3,0.8C55.9,56.3,55.6,56.4,55.3,56.4z M55.3,55.1
				c0,0-0.1,0-0.1,0.1c-0.1,0.1,0,0.2,0,0.2c0.1,0.1,0.2,0.1,0.2,0c0,0,0.1-0.1,0.1-0.1c0,0,0-0.1,0-0.1
				C55.3,55.1,55.3,55.1,55.3,55.1z"/>
		</g>
	</g>
	<g>
		<g>
			<path fill="#FFFFFF" d="M41.4,28.3c1-4.1-1-8.1-4.5-10.1c-1.8-3.7-5.1-6.6-9.4-7.6c-4.3-1-8.5,0.1-11.8,2.6c-4,0.2-7.5,3-8.5,7
				c-1,4.1,1,8.1,4.5,10.1c1.8,3.7,5.1,6.6,9.4,7.6c4.3,1,8.5-0.1,11.8-2.6C36.9,35.2,40.5,32.4,41.4,28.3z"/>
			<path fill="#37474F" d="M24.3,39.4L24.3,39.4c-1.1,0-2.2-0.1-3.3-0.4c-4.3-1-7.9-3.8-9.9-7.8c-3.8-2.3-5.7-6.7-4.7-11
				c1-4.3,4.7-7.4,9.1-7.8c3.5-2.6,8.1-3.6,12.3-2.6c4.3,1,7.9,3.8,9.9,7.8c3.8,2.3,5.7,6.7,4.7,11c-1,4.3-4.7,7.4-9.1,7.8
				C30.7,38.3,27.5,39.4,24.3,39.4z M24.4,11.4c-2.9,0-5.7,1-8,2.8c-0.2,0.1-0.4,0.2-0.6,0.2c-3.6,0.2-6.8,2.8-7.6,6.3
				c-0.8,3.5,0.8,7.2,4,9c0.2,0.1,0.3,0.3,0.4,0.4c1.7,3.6,4.9,6.1,8.7,7c3.8,0.9,7.8,0,10.9-2.5c0.2-0.1,0.4-0.2,0.6-0.2
				c3.6-0.2,6.7-2.7,7.6-6.3c0.8-3.5-0.8-7.2-4-9c-0.2-0.1-0.3-0.3-0.4-0.4c-1.7-3.6-4.9-6.1-8.7-7C26.4,11.5,25.4,11.4,24.4,11.4z"
				/>
		</g>
		<g>
			<path fill="#FFAB00" d="M30.3,25.8c-0.8,3.3-4,5.3-7.3,4.5c-3.3-0.8-5.3-4-4.5-7.3c0.8-3.3,4-5.3,7.3-4.5
				C29,19.2,31,22.5,30.3,25.8z"/>
			<path fill="#37474F" d="M24.4,31.4c-0.5,0-1.1-0.1-1.6-0.2c-1.8-0.4-3.4-1.5-4.4-3.1s-1.3-3.5-0.9-5.3c0.8-3.2,3.6-5.5,6.9-5.5
				c0.5,0,1.1,0.1,1.6,0.2c1.8,0.4,3.4,1.6,4.4,3.2c1,1.6,1.3,3.5,0.9,5.3C30.5,29.2,27.7,31.4,24.4,31.4z M24.4,19.3
				c-2.4,0-4.4,1.6-4.9,3.9c-0.3,1.3-0.1,2.7,0.6,3.8c0.7,1.1,1.8,2,3.2,2.3c0.4,0.1,0.8,0.1,1.2,0.1c2.4,0,4.4-1.6,4.9-3.9
				c0.3-1.3,0.1-2.7-0.6-3.8c-0.7-1.2-1.8-2-3.2-2.3C25.1,19.3,24.8,19.3,24.4,19.3z"/>
		</g>
		<g>
			<path fill="#FFECB3" d="M25.1,23.7c-0.3,1.4-1.7,2.3-3.2,2c-1.4-0.3-2.3-1.7-2-3.2c0.3-1.4,1.7-2.3,3.2-2
				C24.6,20.9,25.5,22.3,25.1,23.7z"/>
		</g>
		<g>
			<path fill="#FFECB3" d="M27.8,26.7c-0.1,0.5-0.7,0.9-1.2,0.8c-0.5-0.1-0.9-0.7-0.7-1.2c0.1-0.5,0.7-0.9,1.2-0.7
				C27.6,25.6,27.9,26.2,27.8,26.7z"/>
		</g>
	</g>
</g>
</svg>
