<?xml version="1.0" encoding="utf-8"?>
<!-- Generator: Adobe Illustrator 16.0.0, SVG Export Plug-In . SVG Version: 6.00 Build 0)  -->
<!DOCTYPE svg PUBLIC "-//W3C//DTD SVG 1.1//EN" "http://www.w3.org/Graphics/SVG/1.1/DTD/svg11.dtd">
<svg version="1.1" id="Layer_1" xmlns="http://www.w3.org/2000/svg" xmlns:xlink="http://www.w3.org/1999/xlink" x="0px" y="0px"
	 width="64px" height="64px" viewBox="0 0 64 64" enable-background="new 0 0 64 64" xml:space="preserve">
<g>
	<g>
		<g>
			<g>
				<polyline fill="#FFAB00" points="15.8,51.7 21.7,51.7 21.7,57.7 31.3,48.3 				"/>
				<path fill="#37474F" d="M21.7,58.7c-0.1,0-0.3,0-0.4-0.1c-0.4-0.2-0.6-0.5-0.6-0.9v-5h-4.9c-0.6,0-1-0.4-1-1s0.4-1,1-1h5.9
					c0.6,0,1,0.4,1,1v3.6l7.9-7.7c0.4-0.4,1-0.4,1.4,0c0.4,0.4,0.4,1,0,1.4l-9.6,9.4C22.2,58.6,22,58.7,21.7,58.7z"/>
			</g>
			<g>
				<polyline fill="#FFECB3" points="9.4,20 2,31.6 10.9,40.6 10.9,45.8 21.7,45.8 				"/>
				<path fill="#37474F" d="M21.7,46.8H10.9c-0.6,0-1-0.4-1-1V41l-8.7-8.7C0.9,32,0.9,31.4,1.1,31l7.4-11.5c0.3-0.5,0.9-0.6,1.4-0.3
					c0.5,0.3,0.6,0.9,0.3,1.4l-7,10.9l8.4,8.4c0.2,0.2,0.3,0.4,0.3,0.7v4.3h9.8c0.6,0,1,0.4,1,1S22.3,46.8,21.7,46.8z"/>
			</g>
			<g>
				<path fill="#37474F" d="M15.8,52.5c-0.1,0-0.3,0-0.4-0.1c-0.4-0.2-0.6-0.5-0.6-0.9V40.9h-3.9c-0.6,0-1-0.4-1-1s0.4-1,1-1h4.9
					c0.6,0,1,0.4,1,1V49l3.6-3.6c0.4-0.4,1-0.4,1.4,0c0.4,0.4,0.4,1,0,1.4l-5.3,5.3C16.3,52.4,16.1,52.5,15.8,52.5z"/>
			</g>
			<g>
				<path fill="#FFFFFF" d="M12.3,19.2c0,1.2-1,2.2-2.2,2.2s-2.2-1-2.2-2.2c0-1.2,1-2.2,2.2-2.2S12.3,17.9,12.3,19.2z"/>
				<path fill="#37474F" d="M10.1,22.3c-1.8,0-3.2-1.4-3.2-3.2c0-1.8,1.4-3.2,3.2-3.2s3.2,1.4,3.2,3.2
					C13.3,20.9,11.9,22.3,10.1,22.3z M10.1,18c-0.7,0-1.2,0.5-1.2,1.2c0,0.6,0.5,1.2,1.2,1.2s1.2-0.5,1.2-1.2
					C11.3,18.5,10.8,18,10.1,18z"/>
			</g>
		</g>
		<g>
			<g>
				<polyline fill="#FFAB00" points="48.2,51.7 42.3,51.7 42.3,57.7 32.7,48.3 				"/>
				<path fill="#37474F" d="M42.3,58.7c-0.3,0-0.5-0.1-0.7-0.3L32,49c-0.4-0.4-0.4-1,0-1.4c0.4-0.4,1-0.4,1.4,0l7.9,7.7v-3.6
					c0-0.6,0.4-1,1-1h5.9c0.6,0,1,0.4,1,1s-0.4,1-1,1h-4.9v5c0,0.4-0.2,0.8-0.6,0.9C42.5,58.7,42.4,58.7,42.3,58.7z"/>
			</g>
			<g>
				<polyline fill="#FFECB3" points="54.6,20 62,31.6 53.1,40.6 53.1,45.8 42.3,45.8 				"/>
				<path fill="#37474F" d="M53.1,46.8H42.3c-0.6,0-1-0.4-1-1s0.4-1,1-1h9.8v-4.3c0-0.3,0.1-0.5,0.3-0.7l8.4-8.4l-7-10.9
					c-0.3-0.5-0.2-1.1,0.3-1.4c0.5-0.3,1.1-0.2,1.4,0.3L62.9,31c0.3,0.4,0.2,0.9-0.1,1.2L54.1,41v4.9C54.1,46.4,53.6,46.8,53.1,46.8
					z"/>
			</g>
			<g>
				<path fill="#37474F" d="M48.2,52.5c-0.3,0-0.5-0.1-0.7-0.3l-5.3-5.3c-0.4-0.4-0.4-1,0-1.4c0.4-0.4,1-0.4,1.4,0l3.5,3.6v-9.1
					c0-0.6,0.4-1,1-1h4.9c0.6,0,1,0.4,1,1s-0.4,1-1,1h-3.9v10.5c0,0.4-0.2,0.8-0.6,0.9C48.4,52.4,48.3,52.5,48.2,52.5z"/>
			</g>
			<g>
				<path fill="#FFFFFF" d="M51.7,19.2c0,1.2,1,2.2,2.2,2.2c1.2,0,2.2-1,2.2-2.2c0-1.2-1-2.2-2.2-2.2C52.7,17,51.7,17.9,51.7,19.2z"
					/>
				<path fill="#37474F" d="M53.9,22.3c-1.8,0-3.2-1.4-3.2-3.2c0-1.8,1.4-3.2,3.2-3.2c1.8,0,3.2,1.4,3.2,3.2
					C57.1,20.9,55.7,22.3,53.9,22.3z M53.9,18c-0.7,0-1.2,0.5-1.2,1.2c0,0.6,0.5,1.2,1.2,1.2c0.7,0,1.2-0.5,1.2-1.2
					C55.1,18.5,54.6,18,53.9,18z"/>
			</g>
		</g>
	</g>
	<g>
		<line fill="#FFAB00" x1="3.1" y1="31.1" x2="60.9" y2="31.1"/>
		<path fill="#37474F" d="M60.9,32.1H3.1c-0.6,0-1-0.4-1-1s0.4-1,1-1h57.8c0.6,0,1,0.4,1,1S61.5,32.1,60.9,32.1z"/>
	</g>
	<g>
		<rect x="29.1" y="54.6" fill="#37474F" width="4.9" height="7.8"/>
		<path fill="#37474F" d="M34,63.5h-4.9c-0.6,0-1-0.4-1-1v-7.8c0-0.6,0.4-1,1-1H34c0.6,0,1,0.4,1,1v7.8C35,63,34.5,63.5,34,63.5z
			 M30.1,61.5H33v-5.8h-2.9V61.5z"/>
	</g>
	<g>
		<path fill="#FFAB00" d="M50.8,20.3c0,10.4-8.4,18.8-18.8,18.8c-10.4,0-18.8-8.4-18.8-18.8C13.2,9.9,21.6,1.5,32,1.5
			C42.4,1.5,50.8,9.9,50.8,20.3z"/>
		<path fill="#37474F" d="M32,40.1c-10.9,0-19.8-8.9-19.8-19.8C12.2,9.4,21.1,0.5,32,0.5c10.9,0,19.8,8.9,19.8,19.8
			C51.8,31.3,42.9,40.1,32,40.1z M32,2.5c-9.8,0-17.8,8-17.8,17.8c0,9.8,8,17.8,17.8,17.8c9.8,0,17.8-8,17.8-17.8
			C49.8,10.5,41.8,2.5,32,2.5z"/>
	</g>
	<g>
		<rect x="27.6" y="52.7" fill="#78909C" width="7.8" height="4.9"/>
		<path fill="#37474F" d="M36.4,58.6h-9.8v-6.9h9.8V58.6z M28.6,56.6h5.8v-2.9h-5.8V56.6z"/>
	</g>
	<g>
		<rect x="26.6" y="47.8" fill="#78909C" width="10.8" height="4.9"/>
		<path fill="#37474F" d="M38.4,53.7H25.6v-6.9h12.8V53.7z M27.6,51.7h8.8v-2.9h-8.8V51.7z"/>
	</g>
	<g>
		<g>
			<path fill="#FFFFFF" d="M43.3,40.9c0,4.1-2.9,7.9-7,7.9h-8.4c-4.1,0-7.1-3.8-7.1-7.9V15.3c0-4.1,3-7.7,7.1-7.7h8.4
				c4.1,0,7,3.6,7,7.7V40.9z"/>
			<path fill="#37474F" d="M36.2,49.8h-8.4c-4.5,0-8.1-4-8.1-8.9V15.3c0-4.9,3.6-8.7,8.1-8.7h8.4c4.5,0,8,3.8,8,8.7v25.6
				C44.3,45.8,40.7,49.8,36.2,49.8z M27.8,8.6c-3.4,0-6.1,2.9-6.1,6.7v25.6c0,3.8,2.7,6.9,6.1,6.9h8.4c3.7,0,6-3.6,6-6.9V15.3
				c0-3.8-2.7-6.7-6-6.7H27.8z"/>
		</g>
		<g>
			<path fill="#B0BEC5" d="M39.3,40.2c0,3.9-1.8,7.6-4.5,7.6h-5.6c-2.8,0-4.6-3.6-4.6-7.6V15.8c0-3.9,1.8-7.2,4.6-7.2h5.6
				c2.8,0,4.5,3.3,4.5,7.2V40.2z"/>
		</g>
		<g>
			<g>
				<g>
					<line fill="#B0BEC5" x1="25.6" y1="18.4" x2="20.7" y2="18.4"/>
					<path fill="#37474F" d="M25.6,19.4h-4.9c-0.6,0-1-0.4-1-1s0.4-1,1-1h4.9c0.6,0,1,0.4,1,1S26.2,19.4,25.6,19.4z"/>
				</g>
				<g>
					<line fill="#B0BEC5" x1="25.6" y1="23.3" x2="20.7" y2="23.3"/>
					<path fill="#37474F" d="M25.6,24.3h-4.9c-0.6,0-1-0.4-1-1s0.4-1,1-1h4.9c0.6,0,1,0.4,1,1S26.2,24.3,25.6,24.3z"/>
				</g>
				<g>
					<line fill="#B0BEC5" x1="25.6" y1="28.2" x2="20.7" y2="28.2"/>
					<path fill="#37474F" d="M25.6,29.2h-4.9c-0.6,0-1-0.4-1-1s0.4-1,1-1h4.9c0.6,0,1,0.4,1,1S26.2,29.2,25.6,29.2z"/>
				</g>
				<g>
					<line fill="#B0BEC5" x1="25.6" y1="33.1" x2="20.7" y2="33.1"/>
					<path fill="#37474F" d="M25.6,34.1h-4.9c-0.6,0-1-0.4-1-1s0.4-1,1-1h4.9c0.6,0,1,0.4,1,1S26.2,34.1,25.6,34.1z"/>
				</g>
				<g>
					<line fill="#B0BEC5" x1="25.6" y1="38" x2="20.7" y2="38"/>
					<path fill="#37474F" d="M25.6,39h-4.9c-0.6,0-1-0.4-1-1s0.4-1,1-1h4.9c0.6,0,1,0.4,1,1S26.2,39,25.6,39z"/>
				</g>
			</g>
			<g>
				<g>
					<line fill="#B0BEC5" x1="43.3" y1="18.4" x2="38.4" y2="18.4"/>
					<path fill="#37474F" d="M43.3,19.4h-4.9c-0.6,0-1-0.4-1-1s0.4-1,1-1h4.9c0.6,0,1,0.4,1,1S43.8,19.4,43.3,19.4z"/>
				</g>
				<g>
					<line fill="#B0BEC5" x1="43.3" y1="23.3" x2="38.4" y2="23.3"/>
					<path fill="#37474F" d="M43.3,24.3h-4.9c-0.6,0-1-0.4-1-1s0.4-1,1-1h4.9c0.6,0,1,0.4,1,1S43.8,24.3,43.3,24.3z"/>
				</g>
				<g>
					<line fill="#B0BEC5" x1="43.3" y1="28.2" x2="38.4" y2="28.2"/>
					<path fill="#37474F" d="M43.3,29.2h-4.9c-0.6,0-1-0.4-1-1s0.4-1,1-1h4.9c0.6,0,1,0.4,1,1S43.8,29.2,43.3,29.2z"/>
				</g>
				<g>
					<line fill="#B0BEC5" x1="43.3" y1="33.1" x2="38.4" y2="33.1"/>
					<path fill="#37474F" d="M43.3,34.1h-4.9c-0.6,0-1-0.4-1-1s0.4-1,1-1h4.9c0.6,0,1,0.4,1,1S43.8,34.1,43.3,34.1z"/>
				</g>
				<g>
					<line fill="#B0BEC5" x1="43.3" y1="38" x2="38.4" y2="38"/>
					<path fill="#37474F" d="M43.3,39h-4.9c-0.6,0-1-0.4-1-1s0.4-1,1-1h4.9c0.6,0,1,0.4,1,1S43.8,39,43.3,39z"/>
				</g>
			</g>
		</g>
		<g>
			<path fill="#FFAB00" d="M33.9,43.4c0,1-0.8,1.8-1.9,1.8c-1,0-1.8-0.8-1.8-1.8c0-1,0.8-1.9,1.8-1.9C33,41.5,33.9,42.4,33.9,43.4z"
				/>
			<path fill="#37474F" d="M32,46.2c-1.6,0-2.8-1.3-2.8-2.8c0-1.6,1.3-2.9,2.8-2.9c1.6,0,2.9,1.3,2.9,2.9C34.9,45,33.6,46.2,32,46.2
				z M32,42.5c-0.5,0-0.8,0.4-0.8,0.9c0,0.5,0.4,0.8,0.8,0.8c0.5,0,0.9-0.4,0.9-0.8C32.9,42.9,32.5,42.5,32,42.5z"/>
		</g>
		<g>
			<g>
				<path fill="#37474F" d="M32,33.2c0.5,0,0.9,0.4,0.9,0.8c0,0.5-0.4,0.9-0.9,0.9c-0.5,0-0.8-0.4-0.8-0.9
					C31.2,33.6,31.6,33.2,32,33.2z"/>
				<path fill="#37474F" d="M32,35.4L32,35.4L32,35.4c-0.8,0-1.4-0.6-1.4-1.4c0-0.3,0.1-0.7,0.4-0.9c0.3-0.3,0.6-0.4,1-0.4
					c0.8,0,1.4,0.6,1.4,1.3C33.4,34.8,32.8,35.4,32,35.4z M32,33.7c-0.1,0-0.2,0-0.3,0.1c0,0-0.1,0.1-0.1,0.2c0,0.2,0.1,0.4,0.3,0.4
					l0,0c0.2,0,0.3-0.2,0.3-0.4C32.4,33.9,32.2,33.7,32,33.7z"/>
			</g>
			<g>
				<path fill="#37474F" d="M32,27.2c0.5,0,0.9,0.4,0.9,0.9c0,0.5-0.4,0.8-0.9,0.9c-0.5,0-0.9-0.4-0.9-0.9
					C31.2,27.6,31.6,27.2,32,27.2z"/>
				<path fill="#37474F" d="M32,29.4L32,29.4c-0.8,0-1.4-0.6-1.4-1.4c0-0.7,0.6-1.3,1.4-1.3c0,0,0,0,0,0c0.8,0,1.4,0.6,1.4,1.4
					C33.4,28.8,32.8,29.4,32,29.4L32,29.4z M32,27.7c-0.2,0-0.4,0.2-0.4,0.4c0,0.2,0.2,0.4,0.4,0.4c0.2,0,0.4-0.2,0.4-0.4
					C32.4,27.9,32.2,27.7,32,27.7z"/>
			</g>
			<g>
				<path fill="#37474F" d="M32,21.2c0.5,0,0.9,0.4,0.9,0.9c0,0.5-0.4,0.9-0.9,0.9c-0.5,0-0.9-0.4-0.8-0.9
					C31.2,21.6,31.6,21.2,32,21.2z"/>
				<path fill="#37474F" d="M32,23.4c-0.4,0-0.7-0.1-1-0.4c-0.3-0.3-0.4-0.6-0.4-1c0-0.3,0.1-0.7,0.4-0.9c0.3-0.3,0.6-0.4,1-0.4
					c0.8,0,1.4,0.6,1.4,1.4C33.4,22.8,32.8,23.4,32,23.4z M32,21.7c-0.1,0-0.2,0-0.3,0.1c0,0-0.1,0.1-0.1,0.2c0,0.2,0.1,0.2,0.1,0.3
					c0.2,0.2,0.6,0,0.6-0.2C32.4,21.9,32.2,21.7,32,21.7z"/>
			</g>
		</g>
	</g>
</g>
</svg>
