<?xml version="1.0" encoding="utf-8"?>
<!-- Generator: Adobe Illustrator 16.0.0, SVG Export Plug-In . SVG Version: 6.00 Build 0)  -->
<!DOCTYPE svg PUBLIC "-//W3C//DTD SVG 1.1//EN" "http://www.w3.org/Graphics/SVG/1.1/DTD/svg11.dtd">
<svg version="1.1" id="Layer_1" xmlns="http://www.w3.org/2000/svg" xmlns:xlink="http://www.w3.org/1999/xlink" x="0px" y="0px"
	 width="64px" height="64px" viewBox="0 0 64 64" enable-background="new 0 0 64 64" xml:space="preserve">
<g>
	<g>
		<g>
			<path fill="#37474F" d="M14.8,43H4.5C2.4,43,1,41.5,1,39.4V29.1c0-2,1.3-4.1,3.5-4.1h10.3c2.1,0,4.2,2,4.2,4.1v10.3
				C19,41.5,16.8,43,14.8,43z M4.5,27C3.6,27,3,28.1,3,29.1v10.3C3,39.9,3.1,41,4.5,41h10.3c1,0,2.2-0.7,2.2-1.6V29.1
				c0-1-1.2-2.1-2.2-2.1H4.5z"/>
		</g>
		<g>
			<path fill="#37474F" d="M59,43H48.8c-2.1,0-3.8-1.6-3.8-3.6V29.1c0-2.2,1.8-4.1,3.8-4.1H59c2.1,0,4,2,4,4.1v10.3
				C63,41.4,61.2,43,59,43z M48.8,27c-1,0-1.8,1.1-1.8,2.1v10.3c0,1,0.7,1.6,1.8,1.6H59c1,0,2-0.6,2-1.6V29.1c0-1-1-2.1-2-2.1H48.8z
				"/>
		</g>
	</g>
	<g>
		<path fill="#B0BEC5" d="M7,20v29.4c0,4.5,2.7,7.6,6.4,7.6h36.8c3.7,0,6.9-3.1,6.9-7.6V20H7z"/>
		<path fill="#37474F" d="M50.1,58H13.4C9.1,58,6,54.4,6,49.4V19h52v30.4C58,54.2,54.5,58,50.1,58z M8,21v28.4
			c0,3.9,2.2,6.6,5.4,6.6h36.8c3.3,0,5.9-2.9,5.9-6.6V21H8z"/>
	</g>
	<g>
		<rect x="3" y="15" fill="#FFFFFF" width="58" height="6"/>
		<path fill="#37474F" d="M61,22H3c-0.6,0-1-0.4-1-1v-6c0-0.6,0.4-1,1-1h58c0.6,0,1,0.4,1,1v6C62,21.6,61.6,22,61,22z M4,20h56v-4H4
			V20z"/>
	</g>
	<g>
		<path fill="#FFAB00" d="M7.1,52c0.9,3,3.3,5,6.3,5h36.8c2.9,0,5.4-2,6.3-5H7.1z"/>
		<path fill="#37474F" d="M50.1,58H13.4c-3.4,0-6.2-2.2-7.2-5.7c-0.1-0.3,0-0.6,0.2-0.9C6.5,51.1,6.8,51,7.1,51h49.3
			c0.3,0,0.6,0.1,0.8,0.4c0.2,0.3,0.2,0.6,0.2,0.9C56.3,55.8,53.5,58,50.1,58z M8.6,53c1,1.9,2.8,3,4.8,3h36.8c2,0,3.8-1.1,4.8-3
			H8.6z"/>
	</g>
	<g>
		<polyline fill="#FFAB00" points="25,7 39,7 39,14 		"/>
		<path fill="#37474F" d="M39,15c-0.6,0-1-0.4-1-1V8H25c-0.6,0-1-0.4-1-1s0.4-1,1-1h14c0.6,0,1,0.4,1,1v7C40,14.6,39.6,15,39,15z"/>
	</g>
	<g>
		<g>
			<g>
				<g>
					<path fill="#37474F" d="M12.6,30.3c0,0.4-0.3,0.7-0.7,0.7c-0.4,0-0.7-0.3-0.7-0.7c0-0.4,0.3-0.7,0.7-0.7
						C12.2,29.6,12.6,29.9,12.6,30.3z"/>
					<path fill="#37474F" d="M11.8,31.5c-0.3,0-0.7-0.1-0.9-0.4c-0.2-0.2-0.3-0.5-0.3-0.9c0-0.7,0.5-1.2,1.2-1.2l0,0
						c0.7,0,1.2,0.5,1.2,1.2C13.1,30.9,12.6,31.5,11.8,31.5L11.8,31.5z M11.9,30.1c-0.2,0-0.2,0.1-0.2,0.2c0,0.1,0,0.1,0.1,0.2
						c0,0,0.1,0.1,0.2,0.1V31l0-0.5c0.1,0,0.2-0.1,0.2-0.2C12.1,30.2,12,30.1,11.9,30.1z"/>
				</g>
				<g>
					<path fill="#37474F" d="M17.7,30.3c0,0.4-0.3,0.7-0.7,0.7c-0.4,0-0.7-0.3-0.7-0.7c0-0.4,0.3-0.7,0.7-0.7
						C17.3,29.6,17.7,29.9,17.7,30.3z"/>
					<path fill="#37474F" d="M16.9,31.5c-0.7,0-1.2-0.5-1.2-1.2c0-0.7,0.6-1.2,1.2-1.2c0.7,0,1.2,0.6,1.2,1.2c0,0.3-0.1,0.6-0.3,0.8
						C17.6,31.4,17.3,31.5,16.9,31.5z M16.9,30.1c-0.1,0-0.2,0.1-0.2,0.2c0,0.2,0.3,0.3,0.4,0.2c0,0,0.1-0.1,0.1-0.1
						C17.2,30.2,17.1,30.1,16.9,30.1z"/>
				</g>
				<g>
					<path fill="#37474F" d="M22.8,30.3c0,0.4-0.3,0.7-0.7,0.7c-0.4,0-0.7-0.3-0.7-0.7c0-0.4,0.3-0.7,0.7-0.7
						C22.4,29.6,22.8,29.9,22.8,30.3z"/>
					<path fill="#37474F" d="M22,31.5c-0.7,0-1.2-0.5-1.2-1.2c0-0.7,0.5-1.2,1.2-1.2c0.7,0,1.3,0.5,1.3,1.2
						C23.2,31,22.7,31.5,22,31.5z M22,30.1c-0.1,0-0.2,0.1-0.2,0.2c0,0.2,0.5,0.2,0.5,0C22.2,30.2,22.2,30.1,22,30.1z"/>
				</g>
			</g>
			<g>
				<g>
					<path fill="#37474F" d="M27.4,30.3c0,0.4-0.3,0.7-0.7,0.7c-0.4,0-0.7-0.3-0.7-0.7c0-0.4,0.3-0.7,0.7-0.7
						C27.1,29.6,27.4,29.9,27.4,30.3z"/>
					<path fill="#37474F" d="M26.7,31.5c-0.3,0-0.7-0.1-0.9-0.4c-0.2-0.2-0.3-0.5-0.3-0.9c0-0.7,0.5-1.2,1.2-1.2l0,0
						c0.7,0,1.2,0.5,1.2,1.2C27.9,30.9,27.4,31.5,26.7,31.5L26.7,31.5z M26.7,30.1c-0.2,0-0.2,0.1-0.2,0.2c0,0.1,0,0.1,0.1,0.2
						c0,0,0.1,0.1,0.2,0.1V31l0-0.5c0.1,0,0.2-0.1,0.2-0.2C26.9,30.2,26.8,30.1,26.7,30.1z"/>
				</g>
				<g>
					<path fill="#37474F" d="M32.5,30.3c0,0.4-0.3,0.7-0.7,0.7c-0.4,0-0.7-0.3-0.7-0.7c0-0.4,0.3-0.7,0.7-0.7
						C32.2,29.6,32.5,29.9,32.5,30.3z"/>
					<path fill="#37474F" d="M31.8,31.5c-0.7,0-1.2-0.5-1.2-1.2c0-0.7,0.6-1.2,1.2-1.2c0.7,0,1.2,0.6,1.2,1.2c0,0.3-0.1,0.6-0.3,0.8
						C32.4,31.4,32.1,31.5,31.8,31.5z M31.7,30.1c-0.1,0-0.2,0.1-0.2,0.2c0,0.2,0.3,0.3,0.4,0.2c0,0,0.1-0.1,0.1-0.1
						C32,30.2,31.9,30.1,31.7,30.1z"/>
				</g>
				<g>
					<path fill="#37474F" d="M37.6,30.3c0,0.4-0.3,0.7-0.7,0.7c-0.4,0-0.7-0.3-0.7-0.7c0-0.4,0.3-0.7,0.7-0.7
						C37.2,29.6,37.6,29.9,37.6,30.3z"/>
					<path fill="#37474F" d="M36.8,31.5c-0.7,0-1.2-0.5-1.2-1.2c0-0.7,0.5-1.2,1.2-1.2c0.7,0,1.3,0.5,1.3,1.2
						C38.1,31,37.5,31.5,36.8,31.5z M36.8,30.1c-0.1,0-0.2,0.1-0.2,0.2c0,0.2,0.5,0.2,0.5,0C37.1,30.2,37,30.1,36.8,30.1z"/>
				</g>
			</g>
			<g>
				<g>
					<path fill="#37474F" d="M42.2,30.3c0,0.4-0.3,0.7-0.7,0.7c-0.4,0-0.7-0.3-0.7-0.7c0-0.4,0.3-0.7,0.7-0.7
						C41.9,29.6,42.2,29.9,42.2,30.3z"/>
					<path fill="#37474F" d="M41.5,31.5c-0.3,0-0.7-0.1-0.9-0.4c-0.2-0.2-0.3-0.5-0.3-0.9c0-0.7,0.5-1.2,1.2-1.2l0,0
						c0.7,0,1.2,0.5,1.2,1.2C42.7,30.9,42.2,31.5,41.5,31.5L41.5,31.5z M41.5,30.1c-0.2,0-0.2,0.1-0.2,0.2c0,0.1,0,0.1,0.1,0.2
						c0,0,0.1,0.1,0.2,0.1V31l0-0.5c0.1,0,0.2-0.1,0.2-0.2C41.7,30.2,41.6,30.1,41.5,30.1z"/>
				</g>
				<g>
					<path fill="#37474F" d="M47.3,30.3c0,0.4-0.3,0.7-0.7,0.7c-0.4,0-0.7-0.3-0.7-0.7c0-0.4,0.3-0.7,0.7-0.7
						C47,29.6,47.3,29.9,47.3,30.3z"/>
					<path fill="#37474F" d="M46.6,31.5c-0.7,0-1.2-0.5-1.2-1.2c0-0.7,0.6-1.2,1.2-1.2c0.7,0,1.2,0.6,1.2,1.2c0,0.3-0.1,0.6-0.3,0.8
						C47.2,31.4,46.9,31.5,46.6,31.5z M46.6,30.1c-0.1,0-0.2,0.1-0.2,0.2c0,0.2,0.3,0.3,0.4,0.2c0,0,0.1-0.1,0.1-0.1
						C46.8,30.2,46.7,30.1,46.6,30.1z"/>
				</g>
				<g>
					<path fill="#37474F" d="M52.4,30.3c0,0.4-0.3,0.7-0.7,0.7c-0.4,0-0.7-0.3-0.7-0.7c0-0.4,0.3-0.7,0.7-0.7
						C52.1,29.6,52.4,29.9,52.4,30.3z"/>
					<path fill="#37474F" d="M51.7,31.5c-0.7,0-1.2-0.5-1.2-1.2c0-0.7,0.5-1.2,1.2-1.2c0.7,0,1.3,0.5,1.3,1.2
						C52.9,31,52.3,31.5,51.7,31.5z M51.7,30.1c-0.1,0-0.2,0.1-0.2,0.2c0,0.2,0.5,0.2,0.5,0C51.9,30.2,51.8,30.1,51.7,30.1z"/>
				</g>
			</g>
		</g>
		<g>
			<g>
				<g>
					<path fill="#37474F" d="M12.6,35.9c0,0.4-0.3,0.7-0.7,0.7c-0.4,0-0.7-0.3-0.7-0.7c0-0.4,0.3-0.7,0.7-0.7
						C12.2,35.2,12.6,35.5,12.6,35.9z"/>
					<path fill="#37474F" d="M11.8,37.1c-0.3,0-0.6-0.1-0.9-0.4c-0.2-0.2-0.3-0.5-0.3-0.9c0-0.7,0.5-1.2,1.2-1.2h0
						c0.7,0,1.2,0.6,1.2,1.2C13.1,36.6,12.6,37.1,11.8,37.1L11.8,37.1z M11.9,35.7c-0.2,0-0.3,0.1-0.3,0.2c0,0.1,0,0.1,0.1,0.2
						c0,0,0.1,0.1,0.2,0.1v0.5l0-0.5c0.1,0,0.2-0.1,0.2-0.2C12.1,35.8,12,35.7,11.9,35.7z"/>
				</g>
				<g>
					<path fill="#37474F" d="M17.7,35.9c0,0.4-0.3,0.7-0.7,0.7c-0.4,0-0.7-0.3-0.7-0.7c0-0.4,0.3-0.7,0.7-0.7
						C17.3,35.2,17.7,35.5,17.7,35.9z"/>
					<path fill="#37474F" d="M16.9,37.1c-0.7,0-1.2-0.5-1.2-1.2c0-0.7,0.6-1.2,1.2-1.2c0.7,0,1.2,0.6,1.2,1.2c0,0.3-0.1,0.6-0.3,0.8
						C17.6,37,17.3,37.1,16.9,37.1z M16.9,35.7c-0.1,0-0.2,0.1-0.2,0.2c0,0.2,0.3,0.3,0.4,0.2c0,0,0.1-0.1,0.1-0.1
						C17.2,35.8,17.1,35.7,16.9,35.7z"/>
				</g>
				<g>
					<path fill="#37474F" d="M22.8,35.9c0,0.4-0.3,0.7-0.7,0.7c-0.4,0-0.7-0.3-0.7-0.7c0-0.4,0.3-0.7,0.7-0.7
						C22.4,35.2,22.8,35.5,22.8,35.9z"/>
					<path fill="#37474F" d="M22,37.1c-0.7,0-1.2-0.5-1.2-1.2c0-0.7,0.5-1.2,1.2-1.2c0.7,0,1.3,0.5,1.3,1.2
						C23.2,36.6,22.7,37.1,22,37.1z M22,35.7c-0.2,0-0.3,0.1-0.3,0.2c0,0.2,0.5,0.2,0.5,0C22.2,35.8,22.2,35.7,22,35.7z"/>
				</g>
			</g>
			<g>
				<g>
					<path fill="#37474F" d="M27.4,35.9c0,0.4-0.3,0.7-0.7,0.7c-0.4,0-0.7-0.3-0.7-0.7c0-0.4,0.3-0.7,0.7-0.7
						C27.1,35.2,27.4,35.5,27.4,35.9z"/>
					<path fill="#37474F" d="M26.7,37.1c-0.3,0-0.6-0.1-0.9-0.4c-0.2-0.2-0.3-0.5-0.3-0.9c0-0.7,0.5-1.2,1.2-1.2h0
						c0.7,0,1.2,0.5,1.2,1.2C27.9,36.6,27.4,37.1,26.7,37.1L26.7,37.1z M26.7,35.7c-0.2,0-0.3,0.1-0.3,0.2c0,0.1,0,0.1,0.1,0.2
						c0,0,0.1,0.1,0.2,0.1v0.5l0-0.5c0.1,0,0.2-0.1,0.2-0.2C26.9,35.8,26.8,35.7,26.7,35.7z"/>
				</g>
				<g>
					<path fill="#37474F" d="M32.5,35.9c0,0.4-0.3,0.7-0.7,0.7c-0.4,0-0.7-0.3-0.7-0.7c0-0.4,0.3-0.7,0.7-0.7
						C32.2,35.2,32.5,35.5,32.5,35.9z"/>
					<path fill="#37474F" d="M31.8,37.1c-0.7,0-1.2-0.5-1.2-1.2c0-0.7,0.6-1.2,1.2-1.2c0.7,0,1.2,0.6,1.2,1.2c0,0.3-0.1,0.6-0.3,0.8
						C32.4,37,32.1,37.1,31.8,37.1z M31.7,35.7c-0.1,0-0.2,0.1-0.2,0.2c0,0.2,0.3,0.3,0.4,0.2c0,0,0.1-0.1,0.1-0.1
						C32,35.8,31.9,35.7,31.7,35.7z"/>
				</g>
				<g>
					<path fill="#37474F" d="M37.6,35.9c0,0.4-0.3,0.7-0.7,0.7c-0.4,0-0.7-0.3-0.7-0.7c0-0.4,0.3-0.7,0.7-0.7
						C37.2,35.2,37.6,35.5,37.6,35.9z"/>
					<path fill="#37474F" d="M36.8,37.1c-0.7,0-1.2-0.5-1.2-1.2c0-0.7,0.5-1.2,1.2-1.2c0.7,0,1.3,0.5,1.3,1.2
						C38.1,36.6,37.5,37.1,36.8,37.1z M36.9,35.7c-0.2,0-0.2,0.1-0.2,0.2c0,0.2,0.5,0.2,0.5,0C37.1,35.8,37,35.7,36.9,35.7z"/>
				</g>
			</g>
			<g>
				<g>
					<path fill="#37474F" d="M42.2,35.9c0,0.4-0.3,0.7-0.7,0.7c-0.4,0-0.7-0.3-0.7-0.7c0-0.4,0.3-0.7,0.7-0.7
						C41.9,35.2,42.2,35.5,42.2,35.9z"/>
					<path fill="#37474F" d="M41.5,37.1c-0.3,0-0.6-0.1-0.9-0.4c-0.2-0.2-0.3-0.5-0.3-0.9c0-0.7,0.5-1.2,1.2-1.2h0
						c0.7,0,1.2,0.5,1.2,1.2C42.7,36.6,42.2,37.1,41.5,37.1L41.5,37.1z M41.5,35.7c-0.2,0-0.3,0.1-0.3,0.2c0,0.1,0,0.1,0.1,0.2
						c0,0,0.1,0.1,0.2,0.1v0.5l0-0.5c0.1,0,0.2-0.1,0.2-0.2C41.7,35.8,41.6,35.7,41.5,35.7z"/>
				</g>
				<g>
					<path fill="#37474F" d="M47.3,35.9c0,0.4-0.3,0.7-0.7,0.7c-0.4,0-0.7-0.3-0.7-0.7c0-0.4,0.3-0.7,0.7-0.7
						C47,35.2,47.3,35.5,47.3,35.9z"/>
					<path fill="#37474F" d="M46.6,37.1c-0.7,0-1.2-0.5-1.2-1.2c0-0.7,0.6-1.2,1.2-1.2c0.7,0,1.2,0.6,1.2,1.2c0,0.3-0.1,0.6-0.3,0.8
						C47.2,37,46.9,37.1,46.6,37.1z M46.6,35.7c-0.1,0-0.2,0.1-0.2,0.2c0,0.2,0.3,0.3,0.4,0.2c0,0,0.1-0.1,0-0.1
						C46.8,35.8,46.7,35.7,46.6,35.7z"/>
				</g>
				<g>
					<path fill="#37474F" d="M52.4,35.9c0,0.4-0.3,0.7-0.7,0.7c-0.4,0-0.7-0.3-0.7-0.7c0-0.4,0.3-0.7,0.7-0.7
						C52.1,35.2,52.4,35.5,52.4,35.9z"/>
					<path fill="#37474F" d="M51.7,37.1c-0.7,0-1.2-0.5-1.2-1.2c0-0.7,0.5-1.2,1.2-1.2c0.7,0,1.3,0.5,1.3,1.2
						C52.9,36.6,52.3,37.1,51.7,37.1z M51.7,35.7c-0.1,0-0.3,0.1-0.3,0.2c0,0.2,0.5,0.3,0.5,0C51.9,35.8,51.8,35.7,51.7,35.7z"/>
				</g>
			</g>
		</g>
		<g>
			<g>
				<g>
					<path fill="#37474F" d="M12.6,41.6c0,0.4-0.3,0.7-0.7,0.7c-0.4,0-0.7-0.3-0.7-0.7c0-0.4,0.3-0.7,0.7-0.7
						C12.2,40.8,12.6,41.2,12.6,41.6z"/>
					<path fill="#37474F" d="M11.8,42.8c-0.3,0-0.6-0.1-0.9-0.4c-0.2-0.2-0.3-0.5-0.3-0.9c0-0.7,0.5-1.2,1.2-1.2h0
						c0.7,0,1.2,0.6,1.2,1.2S12.5,42.8,11.8,42.8L11.8,42.8z M11.9,41.3c-0.1,0-0.3,0.1-0.3,0.2c0,0.1,0,0.1,0.1,0.2
						s0.1,0.1,0.1,0.1v0.5l0-0.5c0.1,0,0.2-0.1,0.2-0.2C12.1,41.4,12,41.3,11.9,41.3z"/>
				</g>
				<g>
					<path fill="#37474F" d="M17.7,41.6c0,0.4-0.3,0.7-0.7,0.7c-0.4,0-0.7-0.3-0.7-0.7c0-0.4,0.3-0.7,0.7-0.7
						C17.3,40.8,17.7,41.2,17.7,41.6z"/>
					<path fill="#37474F" d="M16.9,42.8c-0.7,0-1.2-0.5-1.2-1.2c0-0.7,0.6-1.2,1.2-1.2c0.7,0,1.2,0.6,1.2,1.2c0,0.3-0.1,0.6-0.3,0.8
						C17.6,42.6,17.3,42.8,16.9,42.8z M16.9,41.3c-0.1,0-0.2,0.1-0.2,0.2c0,0.2,0.3,0.3,0.4,0.2c0,0,0.1-0.1,0.1-0.1
						C17.2,41.4,17.1,41.3,16.9,41.3z"/>
				</g>
				<g>
					<path fill="#37474F" d="M22.8,41.6c0,0.4-0.3,0.7-0.7,0.7c-0.4,0-0.7-0.3-0.7-0.7c0-0.4,0.3-0.7,0.7-0.7
						C22.4,40.8,22.8,41.1,22.8,41.6z"/>
					<path fill="#37474F" d="M22,42.8c-0.7,0-1.2-0.5-1.2-1.2c0-0.7,0.5-1.2,1.2-1.2c0.7,0,1.3,0.5,1.3,1.2
						C23.2,42.2,22.7,42.8,22,42.8z M22,41.3c-0.2,0-0.3,0.1-0.3,0.2c0,0.2,0.5,0.2,0.5,0C22.2,41.4,22.2,41.3,22,41.3z"/>
				</g>
			</g>
			<g>
				<g>
					<path fill="#37474F" d="M27.4,41.6c0,0.4-0.3,0.7-0.7,0.7c-0.4,0-0.7-0.3-0.7-0.7c0-0.4,0.3-0.7,0.7-0.7
						C27.1,40.8,27.4,41.2,27.4,41.6z"/>
					<path fill="#37474F" d="M26.7,42.8c-0.3,0-0.6-0.1-0.9-0.4c-0.2-0.2-0.3-0.5-0.3-0.9c0-0.7,0.5-1.2,1.2-1.2h0
						c0.7,0,1.2,0.5,1.2,1.2S27.4,42.8,26.7,42.8L26.7,42.8z M26.7,41.3c-0.2,0-0.3,0.1-0.3,0.2c0,0.1,0,0.1,0.1,0.2
						c0,0,0.1,0.1,0.1,0.1v0.5l0-0.5c0.1,0,0.2-0.1,0.2-0.2C26.9,41.4,26.8,41.3,26.7,41.3z"/>
				</g>
				<g>
					<path fill="#37474F" d="M32.5,41.6c0,0.4-0.3,0.7-0.7,0.7c-0.4,0-0.7-0.3-0.7-0.7c0-0.4,0.3-0.7,0.7-0.7
						C32.2,40.8,32.5,41.2,32.5,41.6z"/>
					<path fill="#37474F" d="M31.8,42.8c-0.7,0-1.2-0.5-1.2-1.2c0-0.7,0.6-1.2,1.2-1.2c0.7,0,1.2,0.6,1.2,1.2c0,0.3-0.1,0.6-0.3,0.8
						C32.4,42.6,32.1,42.8,31.8,42.8z M31.7,41.3c-0.1,0-0.2,0.1-0.2,0.2c0,0.2,0.3,0.3,0.4,0.2c0,0,0.1-0.1,0.1-0.1
						C32,41.4,31.9,41.3,31.7,41.3z"/>
				</g>
				<g>
					<path fill="#37474F" d="M37.6,41.6c0,0.4-0.3,0.7-0.7,0.7c-0.4,0-0.7-0.3-0.7-0.7c0-0.4,0.3-0.7,0.7-0.7
						C37.2,40.8,37.6,41.1,37.6,41.6z"/>
					<path fill="#37474F" d="M36.8,42.8c-0.7,0-1.2-0.5-1.2-1.2c0-0.7,0.5-1.2,1.2-1.2c0.7,0,1.3,0.5,1.3,1.2
						C38.1,42.2,37.5,42.8,36.8,42.8z M36.9,41.3c-0.1,0-0.2,0.1-0.2,0.2c0,0.2,0.5,0.2,0.5,0C37.1,41.4,37,41.3,36.9,41.3z"/>
				</g>
			</g>
			<g>
				<g>
					<path fill="#37474F" d="M42.2,41.6c0,0.4-0.3,0.7-0.7,0.7c-0.4,0-0.7-0.3-0.7-0.7c0-0.4,0.3-0.7,0.7-0.7
						C41.9,40.8,42.2,41.2,42.2,41.6z"/>
					<path fill="#37474F" d="M41.5,42.8c-0.3,0-0.6-0.1-0.9-0.4c-0.2-0.2-0.3-0.5-0.3-0.9c0-0.7,0.5-1.2,1.2-1.2h0
						c0.7,0,1.2,0.5,1.2,1.2S42.2,42.8,41.5,42.8L41.5,42.8z M41.5,41.3c-0.2,0-0.3,0.1-0.3,0.2c0,0.1,0,0.1,0.1,0.2
						c0,0,0.1,0.1,0.1,0.1v0.5l0-0.5c0.1,0,0.2-0.1,0.2-0.2C41.7,41.4,41.6,41.3,41.5,41.3z"/>
				</g>
				<g>
					<path fill="#37474F" d="M47.3,41.6c0,0.4-0.3,0.7-0.7,0.7c-0.4,0-0.7-0.3-0.7-0.7c0-0.4,0.3-0.7,0.7-0.7
						C47,40.8,47.3,41.2,47.3,41.6z"/>
					<path fill="#37474F" d="M46.6,42.8c-0.7,0-1.2-0.5-1.2-1.2c0-0.7,0.6-1.2,1.2-1.2c0.7,0,1.2,0.6,1.2,1.2c0,0.3-0.1,0.6-0.3,0.8
						C47.2,42.6,46.9,42.8,46.6,42.8z M46.6,41.3c-0.1,0-0.2,0.1-0.2,0.2c0,0.2,0.3,0.3,0.4,0.2c0,0,0.1-0.1,0-0.1
						C46.8,41.4,46.7,41.3,46.6,41.3z"/>
				</g>
				<g>
					<path fill="#37474F" d="M52.4,41.6c0,0.4-0.3,0.7-0.7,0.7c-0.4,0-0.7-0.3-0.7-0.7c0-0.4,0.3-0.7,0.7-0.7
						C52.1,40.8,52.4,41.1,52.4,41.6z"/>
					<path fill="#37474F" d="M51.7,42.8c-0.7,0-1.2-0.5-1.2-1.2c0-0.7,0.5-1.2,1.2-1.2c0.7,0,1.3,0.5,1.3,1.2
						C52.9,42.2,52.3,42.8,51.7,42.8z M51.7,41.3c-0.1,0-0.3,0.1-0.3,0.2c0,0.2,0.5,0.2,0.5,0C51.9,41.4,51.8,41.3,51.7,41.3z"/>
				</g>
			</g>
		</g>
	</g>
</g>
</svg>
