<?xml version="1.0" encoding="utf-8"?>
<!-- Generator: Adobe Illustrator 16.0.0, SVG Export Plug-In . SVG Version: 6.00 Build 0)  -->
<!DOCTYPE svg PUBLIC "-//W3C//DTD SVG 1.1//EN" "http://www.w3.org/Graphics/SVG/1.1/DTD/svg11.dtd">
<svg version="1.1" id="Layer_1" xmlns="http://www.w3.org/2000/svg" xmlns:xlink="http://www.w3.org/1999/xlink" x="0px" y="0px"
	 width="64px" height="64px" viewBox="0 0 64 64" enable-background="new 0 0 64 64" xml:space="preserve">
<g>
	<g>
		<rect x="2" y="42.9" fill="#FFFFFF" width="60" height="14"/>
		<path fill="#37474F" d="M62,57.9H2c-0.6,0-1-0.4-1-1v-14c0-0.6,0.4-1,1-1h60c0.6,0,1,0.4,1,1v14C63,57.4,62.6,57.9,62,57.9z
			 M3,55.9h58v-12H3V55.9z"/>
	</g>
	<g>
		<g>
			<path fill="#37474F" d="M18.4,50.1c0-0.4,0.3-0.7,0.7-0.7c0.4,0,0.7,0.3,0.7,0.7c0,0.4-0.3,0.7-0.7,0.7
				C18.7,50.8,18.4,50.5,18.4,50.1z"/>
			<path fill="#37474F" d="M19,51.3c-0.6,0-1.2-0.5-1.2-1.2c0-0.6,0.5-1.2,1.2-1.2c0.3,0,0.6,0.1,0.9,0.4c0.2,0.2,0.3,0.5,0.3,0.8
				C20.2,50.8,19.7,51.3,19,51.3z M19,49.9c-0.1,0-0.2,0.1-0.2,0.2c0,0.2,0.4,0.2,0.4,0c0-0.1,0-0.1,0-0.1
				C19.1,50,19.1,49.9,19,49.9z"/>
		</g>
		<g>
			<path fill="#37474F" d="M13.6,50.1c0-0.4,0.3-0.7,0.7-0.7c0.4,0,0.7,0.3,0.7,0.7c0,0.4-0.3,0.7-0.7,0.7
				C13.9,50.8,13.6,50.5,13.6,50.1z"/>
			<path fill="#37474F" d="M14.3,51.3c-0.6,0-1.2-0.5-1.2-1.2c0-0.3,0.1-0.6,0.3-0.8c0.2-0.2,0.5-0.4,0.8-0.4c0.6,0,1.2,0.5,1.2,1.2
				C15.5,50.8,14.9,51.3,14.3,51.3z M14.3,49.9c0,0-0.1,0-0.1,0.1c0,0,0,0.1,0,0.1c0,0.1,0.1,0.2,0.2,0.2c0.1,0,0.2-0.1,0.2-0.2
				C14.5,50,14.4,49.9,14.3,49.9z"/>
		</g>
		<g>
			<path fill="#37474F" d="M8.9,50.1c0-0.4,0.3-0.7,0.7-0.7c0.4,0,0.7,0.3,0.7,0.7c0,0.4-0.3,0.7-0.7,0.7
				C9.2,50.8,8.9,50.5,8.9,50.1z"/>
			<path fill="#37474F" d="M9.5,51.3c-0.6,0-1.2-0.5-1.2-1.2c0-0.6,0.5-1.2,1.2-1.2c0.7,0,1.2,0.5,1.2,1.2
				C10.7,50.8,10.2,51.3,9.5,51.3z M9.5,49.9c-0.1,0-0.2,0.1-0.2,0.2c0,0.2,0.4,0.2,0.4,0C9.7,50,9.6,49.9,9.5,49.9z"/>
		</g>
	</g>
	<g>
		<path fill="#FFAB00" d="M31.4,50.1c0,2.2-1.8,4-4,4c-2.2,0-4-1.8-4-4c0-2.2,1.8-4,4-4C29.6,46.1,31.4,47.9,31.4,50.1z"/>
		<path fill="#37474F" d="M27.4,55.2c-2.8,0-5-2.3-5-5c0-2.8,2.3-5,5-5s5,2.3,5,5C32.4,52.9,30.1,55.2,27.4,55.2z M27.4,47.1
			c-1.7,0-3,1.4-3,3c0,1.7,1.4,3,3,3s3-1.4,3-3C30.4,48.5,29,47.1,27.4,47.1z"/>
	</g>
	<g>
		<g>
			<rect x="38" y="47.9" fill="#FFECB3" width="3" height="4"/>
			<path fill="#37474F" d="M41,52.9h-3c-0.6,0-1-0.4-1-1v-4c0-0.6,0.4-1,1-1h3c0.6,0,1,0.4,1,1v4C42,52.4,41.6,52.9,41,52.9z
				 M39,50.9h1v-2h-1V50.9z"/>
		</g>
		<g>
			<rect x="46" y="47.9" fill="#FFECB3" width="3" height="4"/>
			<path fill="#37474F" d="M49,52.9h-3c-0.6,0-1-0.4-1-1v-4c0-0.6,0.4-1,1-1h3c0.6,0,1,0.4,1,1v4C50,52.4,49.6,52.9,49,52.9z
				 M47,50.9h1v-2h-1V50.9z"/>
		</g>
		<g>
			<rect x="54" y="47.9" fill="#FFECB3" width="3" height="4"/>
			<path fill="#37474F" d="M57,52.9h-3c-0.6,0-1-0.4-1-1v-4c0-0.6,0.4-1,1-1h3c0.6,0,1,0.4,1,1v4C58,52.4,57.6,52.9,57,52.9z
				 M55,50.9h1v-2h-1V50.9z"/>
		</g>
	</g>
	<g>
		<g>
			<rect x="12" y="38.9" fill="#B0BEC5" width="4" height="3"/>
			<path fill="#37474F" d="M16,42.9h-4c-0.6,0-1-0.4-1-1v-3c0-0.6,0.4-1,1-1h4c0.6,0,1,0.4,1,1v3C17,42.4,16.6,42.9,16,42.9z
				 M13,40.9h2v-1h-2V40.9z"/>
		</g>
		<g>
			<rect x="48" y="38.9" fill="#B0BEC5" width="4" height="3"/>
			<path fill="#37474F" d="M52,42.9h-4c-0.6,0-1-0.4-1-1v-3c0-0.6,0.4-1,1-1h4c0.6,0,1,0.4,1,1v3C53,42.4,52.6,42.9,52,42.9z
				 M49,40.9h2v-1h-2V40.9z"/>
		</g>
	</g>
	<g>
		<g>
			<g>
				<polyline fill="#B0BEC5" points="16.5,39 22.5,32.9 30,32.9 				"/>
				<path fill="#37474F" d="M16.5,40c-0.3,0-0.5-0.1-0.7-0.3c-0.4-0.4-0.4-1,0-1.4l6-6.1c0.2-0.2,0.4-0.3,0.7-0.3H30
					c0.6,0,1,0.4,1,1s-0.4,1-1,1h-7.1l-5.7,5.8C17,39.9,16.7,40,16.5,40z"/>
			</g>
			<g>
				<polyline fill="#B0BEC5" points="21,34.9 21,38.9 24.9,38.9 20.4,42.2 				"/>
				<path fill="#37474F" d="M20.4,43.2c-0.3,0-0.6-0.1-0.8-0.4c-0.3-0.4-0.2-1.1,0.2-1.4l2.1-1.6H21c-0.6,0-1-0.4-1-1v-4
					c0-0.6,0.4-1,1-1s1,0.4,1,1v3h2.9c0.4,0,0.8,0.3,0.9,0.7c0.1,0.4,0,0.9-0.3,1.1L21,43C20.8,43.2,20.6,43.2,20.4,43.2z"/>
			</g>
		</g>
		<g>
			<g>
				<polyline fill="#B0BEC5" points="47.5,39 41.4,32.9 34,32.9 				"/>
				<path fill="#37474F" d="M47.5,40c-0.3,0-0.5-0.1-0.7-0.3L41,33.9h-7c-0.6,0-1-0.4-1-1s0.4-1,1-1h7.4c0.3,0,0.5,0.1,0.7,0.3
					l6.1,6.1c0.4,0.4,0.4,1,0,1.4C48,39.9,47.7,40,47.5,40z"/>
			</g>
			<g>
				<polyline fill="#B0BEC5" points="43,34.9 43,38.9 39,38.9 43.5,42.2 				"/>
				<path fill="#37474F" d="M43.5,43.2c-0.2,0-0.4-0.1-0.6-0.2l-4.5-3.4c-0.3-0.3-0.5-0.7-0.3-1.1c0.1-0.4,0.5-0.7,0.9-0.7h3v-3
					c0-0.6,0.4-1,1-1s1,0.4,1,1v4c0,0.6-0.4,1-1,1h-1l2.1,1.6c0.4,0.3,0.5,1,0.2,1.4C44.1,43.1,43.8,43.2,43.5,43.2z"/>
			</g>
		</g>
	</g>
	<g>
		<rect x="24" y="38.9" fill="#B0BEC5" width="16" height="4"/>
		<path fill="#37474F" d="M40,43.9H24c-0.6,0-1-0.4-1-1v-4c0-0.6,0.4-1,1-1h16c0.6,0,1,0.4,1,1v4C41,43.4,40.6,43.9,40,43.9z
			 M25,41.9h14v-2H25V41.9z"/>
	</g>
	<g>
		<g>
			<line fill="#B0BEC5" x1="28" y1="38.9" x2="28" y2="42.9"/>
			<path fill="#37474F" d="M28,43.9c-0.6,0-1-0.4-1-1v-4c0-0.6,0.4-1,1-1s1,0.4,1,1v4C29,43.4,28.6,43.9,28,43.9z"/>
		</g>
		<g>
			<line fill="#B0BEC5" x1="32" y1="38.9" x2="32" y2="42.9"/>
			<path fill="#37474F" d="M32,43.9c-0.6,0-1-0.4-1-1v-4c0-0.6,0.4-1,1-1s1,0.4,1,1v4C33,43.4,32.6,43.9,32,43.9z"/>
		</g>
		<g>
			<line fill="#B0BEC5" x1="36" y1="38.9" x2="36" y2="42.9"/>
			<path fill="#37474F" d="M36,43.9c-0.6,0-1-0.4-1-1v-4c0-0.6,0.4-1,1-1s1,0.4,1,1v4C37,43.4,36.6,43.9,36,43.9z"/>
		</g>
	</g>
	<g>
		<path fill="#FFAB00" d="M29.8,35.1"/>
	</g>
	<g>
		<g>
			<g>
				<polygon fill="#FFAB00" points="27.3,26.5 31.9,36.6 21.6,32.3 17.1,22.2 				"/>
				<path fill="#37474F" d="M31.9,37.6c-0.1,0-0.3,0-0.4-0.1l-10.2-4.3c-0.2-0.1-0.4-0.3-0.5-0.5l-4.6-10.1
					c-0.2-0.4-0.1-0.8,0.2-1.1c0.3-0.3,0.7-0.4,1.1-0.2l10.2,4.3c0.2,0.1,0.4,0.3,0.5,0.5l4.5,9.9c0.1,0.2,0.2,0.4,0.2,0.6
					C32.9,37.2,32.4,37.6,31.9,37.6C31.9,37.6,31.9,37.6,31.9,37.6z M22.4,31.6l7.5,3.1l-3.4-7.4L19,24.1L22.4,31.6z"/>
			</g>
			<g>
				<polygon fill="#FFECB3" points="27,29.7 28.8,33.7 24.8,32 23,28 				"/>
			</g>
		</g>
		<g>
			<g>
				<polygon fill="#FFAB00" points="36.6,26.5 32,36.6 42.2,32.3 46.8,22.2 				"/>
				<path fill="#37474F" d="M32,37.6c-0.3,0-0.5-0.1-0.7-0.3c-0.3-0.3-0.4-0.7-0.2-1.1l4.6-10.1c0.1-0.2,0.3-0.4,0.5-0.5l10.2-4.3
					c0.4-0.2,0.8-0.1,1.1,0.2c0.3,0.3,0.4,0.7,0.2,1.1l-4.6,10.1c-0.1,0.2-0.3,0.4-0.5,0.5l-10.2,4.3C32.3,37.6,32.1,37.6,32,37.6z
					 M37.3,27.3L34,34.7l7.5-3.1l3.4-7.4L37.3,27.3z"/>
			</g>
			<g>
				<polygon fill="#FFECB3" points="36.8,29.7 35,33.7 39.1,32 40.9,28 				"/>
			</g>
		</g>
	</g>
	<g>
		<g>
			<polygon fill="#FFAB00" points="37.7,21.9 31.9,36.6 26.1,21.9 31.9,7.1 			"/>
			<path fill="#37474F" d="M31.9,37.6c-0.4,0-0.8-0.3-0.9-0.6l-5.8-14.7c-0.1-0.2-0.1-0.5,0-0.7L31,6.8c0.2-0.4,0.5-0.6,0.9-0.6l0,0
				c0.4,0,0.8,0.3,0.9,0.6l5.8,14.7c0.1,0.2,0.1,0.5,0,0.7L32.9,37C32.7,37.4,32.4,37.6,31.9,37.6L31.9,37.6z M27.2,21.9l4.7,12
				l4.7-12l-4.7-12L27.2,21.9z"/>
		</g>
		<g>
			<polygon fill="#FFECB3" points="34.2,24.8 31.9,30.6 29.6,24.8 31.9,19 			"/>
		</g>
	</g>
</g>
</svg>
