<?xml version="1.0" encoding="utf-8"?>
<!-- Generator: Adobe Illustrator 16.0.0, SVG Export Plug-In . SVG Version: 6.00 Build 0)  -->
<!DOCTYPE svg PUBLIC "-//W3C//DTD SVG 1.1//EN" "http://www.w3.org/Graphics/SVG/1.1/DTD/svg11.dtd">
<svg version="1.1" id="Layer_1" xmlns="http://www.w3.org/2000/svg" xmlns:xlink="http://www.w3.org/1999/xlink" x="0px" y="0px"
	 width="64px" height="64px" viewBox="0 0 64 64" enable-background="new 0 0 64 64" xml:space="preserve">
<g>
	<g>
		<g>
			<rect x="6.5" y="1.5" fill="#FFFFFF" width="51" height="61"/>
			<path fill="#37474F" d="M57.5,63.5h-51c-0.6,0-1-0.4-1-1v-61c0-0.6,0.4-1,1-1h51c0.6,0,1,0.4,1,1v61
				C58.5,63.1,58.1,63.5,57.5,63.5z M7.5,61.5h49v-59h-49V61.5z"/>
		</g>
		<g>
			<rect x="6.5" y="20.5" fill="#FFAB00" width="51" height="34"/>
			<path fill="#37474F" d="M57.5,55.5h-51c-0.6,0-1-0.4-1-1v-34c0-0.6,0.4-1,1-1h51c0.6,0,1,0.4,1,1v34
				C58.5,55.1,58.1,55.5,57.5,55.5z M7.5,53.5h49v-32h-49V53.5z"/>
		</g>
		<g>
			<rect x="6.5" y="25.5" fill="#B0BEC5" width="51" height="24"/>
			<path fill="#37474F" d="M57.5,50.5h-51c-0.6,0-1-0.4-1-1v-24c0-0.6,0.4-1,1-1h51c0.6,0,1,0.4,1,1v24
				C58.5,50.1,58.1,50.5,57.5,50.5z M7.5,48.5h49v-22h-49V48.5z"/>
		</g>
		<g>
			<g>
				<g>
					<path fill="#37474F" d="M50.8,10.9c0-0.4,0.3-0.7,0.7-0.7c0.4,0,0.8,0.3,0.7,0.7c0,0.4-0.3,0.7-0.7,0.7
						C51.1,11.7,50.8,11.3,50.8,10.9z"/>
					<path fill="#37474F" d="M51.5,12.2c-0.7,0-1.2-0.6-1.2-1.2c0-0.7,0.6-1.2,1.2-1.2c0.3,0,0.7,0.1,0.9,0.4
						c0.2,0.2,0.4,0.6,0.4,0.9C52.8,11.6,52.2,12.2,51.5,12.2L51.5,12.2z M51.5,10.7c-0.1,0-0.2,0.1-0.2,0.2c0,0.1,0.1,0.2,0.2,0.2
						v0.5l0-0.5c0.1,0,0.3-0.1,0.3-0.2c0-0.1,0-0.1-0.1-0.2C51.7,10.7,51.6,10.7,51.5,10.7z"/>
				</g>
				<g>
					<path fill="#37474F" d="M45.6,10.9c0-0.4,0.3-0.7,0.7-0.7c0.4,0,0.7,0.3,0.8,0.7c0,0.4-0.3,0.7-0.8,0.7
						C45.9,11.7,45.6,11.3,45.6,10.9z"/>
					<path fill="#37474F" d="M46.3,12.2L46.3,12.2c-0.7,0-1.2-0.6-1.2-1.2c0-0.3,0.1-0.6,0.4-0.9c0.2-0.2,0.5-0.4,0.9-0.4
						c0.7,0,1.2,0.5,1.3,1.2C47.6,11.6,47,12.2,46.3,12.2z M46.3,10.7c-0.1,0-0.1,0-0.2,0.1c0,0-0.1,0.1-0.1,0.2
						c0,0.1,0.1,0.2,0.2,0.2c0.1,0,0.3-0.1,0.3-0.3C46.6,10.8,46.5,10.7,46.3,10.7z"/>
				</g>
				<g>
					<path fill="#37474F" d="M40.4,10.9c0-0.4,0.3-0.7,0.7-0.7c0.4,0,0.7,0.3,0.7,0.7c0,0.4-0.3,0.7-0.7,0.7
						C40.7,11.7,40.4,11.3,40.4,10.9z"/>
					<path fill="#37474F" d="M41.1,12.2L41.1,12.2C41.1,12.2,41.1,12.2,41.1,12.2c-0.7,0-1.3-0.6-1.3-1.2c0-0.7,0.6-1.2,1.2-1.2
						c0.7,0,1.2,0.6,1.2,1.2C42.4,11.6,41.8,12.2,41.1,12.2z M41.1,10.7c-0.1,0-0.2,0.1-0.2,0.2c0,0.1,0.1,0.2,0.2,0.2l0,0.5v-0.5
						c0.1,0,0.2-0.1,0.2-0.2C41.4,10.8,41.2,10.7,41.1,10.7z"/>
				</g>
			</g>
			<g>
				<g>
					<path fill="#37474F" d="M50.8,6.3c0-0.4,0.3-0.7,0.7-0.7c0.4,0,0.8,0.3,0.7,0.7c0,0.4-0.3,0.7-0.7,0.7
						C51.1,7.1,50.8,6.7,50.8,6.3z"/>
					<path fill="#37474F" d="M51.5,7.6c-0.7,0-1.2-0.6-1.2-1.2c0-0.7,0.6-1.2,1.2-1.2c0.3,0,0.7,0.1,0.9,0.4
						c0.2,0.2,0.4,0.5,0.4,0.9C52.8,7,52.2,7.6,51.5,7.6L51.5,7.6z M51.5,6.1c-0.1,0-0.2,0.1-0.2,0.2c0,0.1,0.1,0.2,0.2,0.2v0.5
						l0-0.5c0.1,0,0.3-0.1,0.3-0.2c0-0.1,0-0.1-0.1-0.2C51.7,6.1,51.6,6.1,51.5,6.1z"/>
				</g>
				<g>
					<path fill="#37474F" d="M45.6,6.3c0-0.4,0.3-0.7,0.7-0.7c0.4,0,0.7,0.3,0.8,0.7c0,0.4-0.3,0.8-0.8,0.8
						C45.9,7.1,45.6,6.7,45.6,6.3z"/>
					<path fill="#37474F" d="M46.3,7.6L46.3,7.6c-0.7,0-1.2-0.6-1.2-1.3c0-0.3,0.1-0.6,0.4-0.9c0.2-0.2,0.5-0.4,0.9-0.4
						c0.7,0,1.2,0.5,1.3,1.2C47.6,7,47,7.6,46.3,7.6z M46.3,6.1c-0.1,0-0.1,0-0.2,0.1c0,0-0.1,0.1-0.1,0.2c0,0.1,0.1,0.2,0.2,0.3
						c0.1,0,0.3-0.1,0.3-0.3C46.6,6.2,46.4,6.1,46.3,6.1z"/>
				</g>
				<g>
					<path fill="#37474F" d="M40.4,6.3c0-0.4,0.3-0.7,0.7-0.7c0.4,0,0.7,0.3,0.7,0.7c0,0.4-0.3,0.8-0.7,0.7
						C40.7,7.1,40.4,6.7,40.4,6.3z"/>
					<path fill="#37474F" d="M41.1,7.6L41.1,7.6C41.1,7.6,41.1,7.6,41.1,7.6c-0.7,0-1.3-0.6-1.3-1.2c0-0.7,0.6-1.2,1.2-1.2
						c0.7,0,1.2,0.6,1.2,1.2C42.4,7,41.8,7.6,41.1,7.6z M41.1,6.1c-0.1,0-0.2,0.1-0.2,0.2c0,0.1,0.1,0.2,0.2,0.2l0,0.5V6.6
						c0.1,0,0.2-0.1,0.2-0.2C41.4,6.2,41.2,6.1,41.1,6.1z"/>
				</g>
			</g>
		</g>
		<g>
			<path fill="#37474F" d="M26.5,12.5h-8c-0.6,0-1-0.4-1-1s0.4-1,1-1h8c0.6,0,1,0.4,1,1S27.1,12.5,26.5,12.5z"/>
		</g>
		<g>
			<path fill="#37474F" d="M26.5,21.5c-0.6,0-1-0.4-1-1v-19c0-0.6,0.4-1,1-1s1,0.4,1,1v19C27.5,21.1,27.1,21.5,26.5,21.5z"/>
		</g>
		<g>
			<g>
				<path fill="#FFAB00" d="M19.4,11.1c0,2.3-1.8,4.1-4.1,4.1c-2.3,0-4.1-1.8-4.1-4.1c0-2.3,1.8-4.1,4.1-4.1
					C17.5,6.9,19.4,8.8,19.4,11.1z"/>
				<path fill="#37474F" d="M15.3,16.2c-2.8,0-5.1-2.3-5.1-5.1c0-2.8,2.3-5.1,5.1-5.1c2.8,0,5.1,2.3,5.1,5.1
					C20.4,13.9,18.1,16.2,15.3,16.2z M15.3,7.9c-1.7,0-3.1,1.4-3.1,3.1c0,1.7,1.4,3.1,3.1,3.1c1.7,0,3.1-1.4,3.1-3.1
					C18.4,9.3,17,7.9,15.3,7.9z"/>
			</g>
			<g>
				<path fill="#FFECB3" d="M17.1,11.1c0,1-0.8,1.9-1.9,1.9c-1,0-1.9-0.8-1.9-1.9c0-1,0.8-1.9,1.9-1.9C16.3,9.2,17.1,10,17.1,11.1z"
					/>
				<path fill="#37474F" d="M15.3,13.9c-1.6,0-2.9-1.3-2.9-2.9c0-1.6,1.3-2.9,2.9-2.9c1.6,0,2.9,1.3,2.9,2.9
					C18.1,12.7,16.9,13.9,15.3,13.9z M15.3,10.2c-0.5,0-0.9,0.4-0.9,0.9c0,0.5,0.4,0.9,0.9,0.9c0.5,0,0.9-0.4,0.9-0.9
					C16.1,10.6,15.7,10.2,15.3,10.2z"/>
			</g>
		</g>
		<g>
			<path fill="#37474F" d="M51.5,36.7c0,10.9-8.8,19.7-19.7,19.7C20.8,56.5,12,47.7,12,36.7C12,25.8,20.8,17,31.7,17
				C42.6,17,51.5,25.8,51.5,36.7z"/>
			<path fill="#37474F" d="M31.7,57.5C20.3,57.5,11,48.2,11,36.7C11,25.3,20.3,16,31.7,16c11.4,0,20.7,9.3,20.7,20.8
				C52.5,48.2,43.1,57.5,31.7,57.5z M31.7,18C21.4,18,13,26.4,13,36.7c0,10.3,8.4,18.7,18.7,18.7c10.3,0,18.7-8.4,18.7-18.7
				C50.5,26.4,42,18,31.7,18z"/>
		</g>
		<g>
			<g>
				<g>
					<g>
						<path fill="#FFFFFF" d="M42,36.6c-0.5,0-0.8-1.2-0.8-1.6c0-5.8-4.7-10.6-10.6-10.6C24.7,24.4,20,29.1,20,35
							c0,0.4-0.4,0.8-0.8,0.8c-0.5,0-0.8-0.4-0.8-0.8c0-6.7,5.5-12.2,12.2-12.2c6.7,0,12.2,5.5,12.2,12.2
							C42.8,35.4,42.4,36.6,42,36.6z"/>
					</g>
				</g>
				<g>
					<g>
						<polygon fill="#FFFFFF" points="44.2,35.5 42,37.6 39.7,35.5 						"/>
					</g>
				</g>
			</g>
			<g>
				<g>
					<g>
						<path fill="#FFFFFF" d="M32.8,50.7c-6.7,0-12.2-5.5-12.2-12.2c0-0.4,0.4-0.8,0.8-0.8c0.4,0,0.8,0.4,0.8,0.8
							c0,5.8,4.7,10.6,10.6,10.6c5.8,0,10.6-4.7,10.6-10.6c0-0.4,0.4-0.8,0.8-0.8c0.4,0,0.8,0.4,0.8,0.8
							C45.1,45.3,39.6,50.7,32.8,50.7z"/>
					</g>
				</g>
				<g>
					<g>
						<polygon fill="#FFFFFF" points="19.2,38.5 21.4,36.4 23.7,38.5 						"/>
					</g>
				</g>
			</g>
		</g>
	</g>
	<g>
		<rect x="32.5" y="5.5" fill="#B0BEC5" width="4" height="4"/>
		<path fill="#37474F" d="M36.5,10.5h-4c-0.6,0-1-0.4-1-1v-4c0-0.6,0.4-1,1-1h4c0.6,0,1,0.4,1,1v4C37.5,10.1,37.1,10.5,36.5,10.5z
			 M33.5,8.5h2v-2h-2V8.5z"/>
	</g>
	<g>
		<rect x="32.5" y="11.5" fill="#B0BEC5" width="4" height="4"/>
		<path fill="#37474F" d="M36.5,16.5h-4c-0.6,0-1-0.4-1-1v-4c0-0.6,0.4-1,1-1h4c0.6,0,1,0.4,1,1v4C37.5,16.1,37.1,16.5,36.5,16.5z
			 M33.5,14.5h2v-2h-2V14.5z"/>
	</g>
</g>
</svg>
