<?xml version="1.0" encoding="utf-8"?>
<!-- Generator: Adobe Illustrator 16.0.0, SVG Export Plug-In . SVG Version: 6.00 Build 0)  -->
<!DOCTYPE svg PUBLIC "-//W3C//DTD SVG 1.1//EN" "http://www.w3.org/Graphics/SVG/1.1/DTD/svg11.dtd">
<svg version="1.1" id="Layer_1" xmlns="http://www.w3.org/2000/svg" xmlns:xlink="http://www.w3.org/1999/xlink" x="0px" y="0px"
	 width="64px" height="64px" viewBox="0 0 64 64" enable-background="new 0 0 64 64" xml:space="preserve">
<g>
	<g>
		<g>
			<g>
				<polyline fill="#FFAB00" points="19,24 5,24 5,29 				"/>
				<path fill="#37474F" d="M5,30c-0.6,0-1-0.4-1-1v-5c0-0.6,0.4-1,1-1h14c0.6,0,1,0.4,1,1s-0.4,1-1,1H6v4C6,29.6,5.6,30,5,30z"/>
			</g>
			<g>
				<polyline fill="#FFAB00" points="19,34 5,34 5,39 				"/>
				<path fill="#37474F" d="M5,40c-0.6,0-1-0.4-1-1v-5c0-0.6,0.4-1,1-1h14c0.6,0,1,0.4,1,1s-0.4,1-1,1H6v4C6,39.6,5.6,40,5,40z"/>
			</g>
			<g>
				<polyline fill="#FFAB00" points="19,43 5,43 5,48 				"/>
				<path fill="#37474F" d="M5,49c-0.6,0-1-0.4-1-1v-5c0-0.6,0.4-1,1-1h14c0.6,0,1,0.4,1,1s-0.4,1-1,1H6v4C6,48.6,5.6,49,5,49z"/>
			</g>
		</g>
		<g>
			<g>
				<polyline fill="#FFAB00" points="59,24 45,24 45,29 				"/>
				<path fill="#37474F" d="M45,30c-0.6,0-1-0.4-1-1v-5c0-0.6,0.4-1,1-1h14c0.6,0,1,0.4,1,1s-0.4,1-1,1H46v4C46,29.6,45.6,30,45,30z
					"/>
			</g>
			<g>
				<polyline fill="#FFAB00" points="59,34 45,34 45,39 				"/>
				<path fill="#37474F" d="M45,40c-0.6,0-1-0.4-1-1v-5c0-0.6,0.4-1,1-1h14c0.6,0,1,0.4,1,1s-0.4,1-1,1H46v4C46,39.6,45.6,40,45,40z
					"/>
			</g>
			<g>
				<polyline fill="#FFAB00" points="59,43 45,43 45,48 				"/>
				<path fill="#37474F" d="M45,49c-0.6,0-1-0.4-1-1v-5c0-0.6,0.4-1,1-1h14c0.6,0,1,0.4,1,1s-0.4,1-1,1H46v4C46,48.6,45.6,49,45,49z
					"/>
			</g>
		</g>
	</g>
	<g>
		<line fill="#FFAB00" x1="2" y1="53" x2="62" y2="53"/>
		<path fill="#37474F" d="M62,54H2c-0.6,0-1-0.4-1-1s0.4-1,1-1h60c0.6,0,1,0.4,1,1S62.6,54,62,54z"/>
	</g>
	<g>
		<rect x="2" y="12" fill="#FFECB3" width="60" height="6"/>
		<path fill="#37474F" d="M62,19H2c-0.6,0-1-0.4-1-1v-6c0-0.6,0.4-1,1-1h60c0.6,0,1,0.4,1,1v6C63,18.6,62.6,19,62,19z M3,17h58v-4H3
			V17z"/>
	</g>
	<g>
		<g>
			<path fill="#FFECB3" d="M39.8,39c0.6-7.5-6.8-12.5-7.8-13V26c0,0-0.1,0-0.1,0c0,0-0.1,0-0.1,0l0,0.1c-0.6,0.4-8.4,5.4-7.8,13
				c0.6,7.5,7.2,10.9,7.8,11.3l0,0.1c0,0,0,0,0.1,0l0,0l0-0.1C32.6,50,39.2,46.6,39.8,39z"/>
			<path fill="#37474F" d="M31.8,51.4c-0.1,0-0.3,0-0.4-0.1c-0.1-0.1-0.2-0.1-0.3-0.2c-1.8-1-7.5-4.7-8.1-11.9
				c-0.6-7.5,6.3-12.6,8.1-13.8c0.1-0.1,0.1-0.1,0.2-0.1c0.2-0.1,0.4-0.2,0.6-0.2c0.3,0,0.5,0,0.7,0.2c0,0,0.1,0.1,0.1,0.1
				c1.9,1.1,8.6,6.2,8,13.8c-0.6,7.6-6.8,11.3-8.3,12c-0.1,0-0.1,0.1-0.2,0.1C32.1,51.3,32,51.4,31.8,51.4z M32,27.2
				c-1.9,1.3-7.4,5.7-7,11.8c0.4,6.1,5.2,9.3,6.9,10.2c1.7-0.9,6.4-4.1,6.9-10.2C39.2,32.7,33.6,28.2,32,27.2z"/>
		</g>
		<g>
			
				<path fill="#FFECB3" stroke="#37474F" stroke-width="2" stroke-linecap="round" stroke-linejoin="round" stroke-miterlimit="10" d="
				M25.8,49.3"/>
		</g>
		<g>
			
				<path fill="#FFECB3" stroke="#37474F" stroke-width="2" stroke-linecap="round" stroke-linejoin="round" stroke-miterlimit="10" d="
				M25.8,35.2"/>
		</g>
		<g>
			
				<path fill="#FFECB3" stroke="#37474F" stroke-width="2" stroke-linecap="round" stroke-linejoin="round" stroke-miterlimit="10" d="
				M26.4,41.6"/>
		</g>
		<g>
			
				<path fill="#FFECB3" stroke="#37474F" stroke-width="2" stroke-linecap="round" stroke-linejoin="round" stroke-miterlimit="10" d="
				M33.4,38.5"/>
		</g>
	</g>
	<g>
		<g>
			<path fill="#FFECB3" d="M36.7,43.5c0.3-4.6-4.7-7.6-4.7-7.9v0c0,0-0.1,0-0.1,0c0,0-0.1,0-0.1,0l0,0c-0.4,0.2-5.1,3.3-4.8,7.9
				c0.3,4.6,4.4,6.7,4.8,6.9l0,0c0,0,0,0,0,0l0,0l0,0C32.3,50.1,36.4,48,36.7,43.5z"/>
			<path fill="#37474F" d="M31.8,51.4c-0.2,0-0.3,0-0.5-0.1c-0.1,0-0.2-0.1-0.2-0.2c-1.2-0.6-4.8-3-5.1-7.6
				c-0.4-4.8,3.9-7.9,5.1-8.7c0,0,0.1-0.1,0.2-0.1c0.2-0.1,0.4-0.2,0.6-0.2c0.3,0,0.5,0.1,0.7,0.2c0.1,0.1,0.2,0.2,0.2,0.3
				c0.1,0,0.1,0.1,0.2,0.2c1.4,1.1,4.9,4.1,4.6,8.3c-0.4,4.9-4.4,7.2-5.3,7.7c-0.1,0-0.1,0.1-0.2,0.1C32.1,51.3,32,51.4,31.8,51.4z
				 M31.8,36.8c-1.3,1-4,3.4-3.8,6.6c0.2,3.3,2.7,5.2,3.8,5.8c1.1-0.7,3.6-2.5,3.8-5.8C36,40.2,33,37.7,31.8,36.8z"/>
		</g>
		<g>
			
				<path fill="#FFECB3" stroke="#37474F" stroke-width="2" stroke-linecap="round" stroke-linejoin="round" stroke-miterlimit="10" d="
				M28.1,49.7"/>
		</g>
		<g>
			
				<path fill="#FFECB3" stroke="#37474F" stroke-width="2" stroke-linecap="round" stroke-linejoin="round" stroke-miterlimit="10" d="
				M28.1,41.1"/>
		</g>
		<g>
			
				<path fill="#FFECB3" stroke="#37474F" stroke-width="2" stroke-linecap="round" stroke-linejoin="round" stroke-miterlimit="10" d="
				M28.5,45"/>
		</g>
		<g>
			
				<path fill="#FFECB3" stroke="#37474F" stroke-width="2" stroke-linecap="round" stroke-linejoin="round" stroke-miterlimit="10" d="
				M32.8,43.1"/>
		</g>
	</g>
</g>
</svg>
