<?xml version="1.0" encoding="utf-8"?>
<!-- Generator: Adobe Illustrator 16.0.0, SVG Export Plug-In . SVG Version: 6.00 Build 0)  -->
<!DOCTYPE svg PUBLIC "-//W3C//DTD SVG 1.1//EN" "http://www.w3.org/Graphics/SVG/1.1/DTD/svg11.dtd">
<svg version="1.1" id="Layer_1" xmlns="http://www.w3.org/2000/svg" xmlns:xlink="http://www.w3.org/1999/xlink" x="0px" y="0px"
	 width="32px" height="32px" viewBox="0 0 32 32" enable-background="new 0 0 32 32" xml:space="preserve">
<g>
	<g>
		<circle fill="#FFFFFF" cx="16" cy="15.9" r="14.3"/>
		<path fill="#37474F" d="M16,30.7C7.8,30.7,1.2,24,1.2,15.9S7.8,1,16,1s14.8,6.7,14.8,14.8S24.2,30.7,16,30.7z M16,2
			C8.4,2,2.2,8.2,2.2,15.9S8.4,29.7,16,29.7c7.6,0,13.8-6.2,13.8-13.8S23.6,2,16,2z"/>
	</g>
	<g>
		<g>
			<polygon fill="#B0BEC5" points="16.9,31 5.1,31 6.8,10 15.2,10 			"/>
			<path fill="#37474F" d="M17.5,31.5H4.6l1.8-22h9.3L17.5,31.5z M5.7,30.5h10.7l-1.6-20H7.3L5.7,30.5z"/>
		</g>
		<g>
			<polyline fill="#FFECB3" points="7.7,6.5 7.7,1 14.7,1 14.7,2.5 			"/>
			<path fill="#37474F" d="M7.7,7C7.5,7,7.2,6.8,7.2,6.5V1c0-0.3,0.2-0.5,0.5-0.5h7c0.3,0,0.5,0.2,0.5,0.5v1.5C15.2,2.8,15,3,14.7,3
				s-0.5-0.2-0.5-0.5v-1h-6v5C8.2,6.8,8,7,7.7,7z"/>
		</g>
		<g>
			<g>
				<g>
					<g>
						<path fill="#37474F" d="M9.1,13.9c-0.2,0-0.4-0.2-0.4-0.4c0-0.2,0.2-0.4,0.4-0.4c0.2,0,0.4,0.2,0.4,0.4
							C9.5,13.7,9.3,13.9,9.1,13.9z"/>
						<path fill="#37474F" d="M9.1,14.4c-0.5,0-0.9-0.4-0.9-0.9c0-0.2,0.1-0.5,0.3-0.7s0.4-0.3,0.7-0.3c0.5,0,0.9,0.4,0.9,0.9
							c0,0.2-0.1,0.5-0.3,0.6C9.6,14.3,9.3,14.4,9.1,14.4z"/>
					</g>
					<g>
						<path fill="#37474F" d="M9.1,16.9c-0.2,0-0.4-0.2-0.4-0.4c0-0.2,0.2-0.4,0.4-0.4c0.2,0,0.4,0.2,0.4,0.4
							C9.5,16.7,9.3,16.9,9.1,16.9z"/>
						<path fill="#37474F" d="M9,17.4c-0.5,0-0.9-0.4-0.9-0.9c0-0.5,0.4-0.9,0.9-0.9c0.5,0,0.9,0.4,0.9,0.9C10,17,9.6,17.4,9,17.4
							L9,17.4z"/>
					</g>
					<g>
						<path fill="#37474F" d="M9.1,19.8c-0.2,0-0.4-0.2-0.4-0.4c0-0.2,0.2-0.4,0.4-0.4c0.2,0,0.4,0.2,0.4,0.4
							C9.5,19.6,9.3,19.8,9.1,19.8z"/>
						<path fill="#37474F" d="M9.1,20.3c-0.5,0-0.9-0.4-0.9-0.9c0-0.5,0.4-0.9,0.9-0.9c0.2,0,0.5,0.1,0.7,0.3
							c0.2,0.2,0.3,0.4,0.3,0.7c0,0.2-0.1,0.5-0.3,0.6C9.6,20.2,9.3,20.3,9.1,20.3z"/>
					</g>
				</g>
				<g>
					<g>
						<path fill="#37474F" d="M13,13.9c-0.2,0-0.4-0.2-0.4-0.4c0-0.2,0.2-0.4,0.4-0.4c0.2,0,0.4,0.2,0.4,0.4
							C13.4,13.7,13.2,13.9,13,13.9z"/>
						<path fill="#37474F" d="M13,14.4c-0.5,0-0.9-0.4-0.9-0.9c0-0.2,0.1-0.5,0.3-0.7c0.2-0.2,0.4-0.3,0.7-0.3
							c0.5,0,0.9,0.4,0.9,0.9c0,0.2-0.1,0.5-0.3,0.6C13.5,14.3,13.2,14.4,13,14.4z"/>
					</g>
					<g>
						<path fill="#37474F" d="M13,16.9c-0.2,0-0.4-0.2-0.4-0.4c0-0.2,0.2-0.4,0.4-0.4c0.2,0,0.4,0.2,0.4,0.4
							C13.4,16.7,13.2,16.9,13,16.9z"/>
						<path fill="#37474F" d="M13,17.4c-0.5,0-0.9-0.4-0.9-0.9c0-0.5,0.4-0.9,0.9-0.9c0.5,0,0.9,0.4,0.9,0.9
							C13.9,17,13.5,17.4,13,17.4L13,17.4z"/>
					</g>
					<g>
						<path fill="#37474F" d="M13,19.8c-0.2,0-0.4-0.2-0.4-0.4c0-0.2,0.2-0.4,0.4-0.4c0.2,0,0.4,0.2,0.4,0.4
							C13.4,19.6,13.2,19.8,13,19.8z"/>
						<path fill="#37474F" d="M13,20.3c-0.5,0-0.9-0.4-0.9-0.9c0-0.5,0.4-0.9,0.9-0.9c0.2,0,0.5,0.1,0.7,0.3
							c0.2,0.2,0.3,0.4,0.3,0.7c0,0.2-0.1,0.5-0.3,0.6C13.5,20.2,13.2,20.3,13,20.3z"/>
					</g>
				</g>
			</g>
			<g>
				<g>
					<g>
						<path fill="#37474F" d="M9.1,22.2c-0.2,0-0.4-0.2-0.4-0.4c0-0.2,0.2-0.4,0.4-0.4c0.2,0,0.4,0.2,0.4,0.4
							C9.5,22,9.3,22.2,9.1,22.2z"/>
						<path fill="#37474F" d="M9.1,22.7c-0.5,0-0.9-0.4-0.9-0.9c0-0.2,0.1-0.5,0.3-0.7c0.2-0.2,0.4-0.3,0.7-0.3
							c0.5,0,0.9,0.4,0.9,0.9c0,0.2-0.1,0.5-0.3,0.6C9.6,22.6,9.3,22.7,9.1,22.7z"/>
					</g>
					<g>
						<path fill="#37474F" d="M9.1,25.2c-0.2,0-0.4-0.2-0.4-0.4c0-0.2,0.2-0.4,0.4-0.4c0.2,0,0.4,0.2,0.4,0.4
							C9.5,25,9.3,25.2,9.1,25.2z"/>
						<path fill="#37474F" d="M9,25.7c-0.5,0-0.9-0.4-0.9-0.9c0-0.5,0.4-0.9,0.9-0.9c0.5,0,0.9,0.4,0.9,0.9C10,25.3,9.6,25.7,9,25.7
							L9,25.7z"/>
					</g>
					<g>
						<path fill="#37474F" d="M9.1,28.2c-0.2,0-0.4-0.2-0.4-0.4c0-0.2,0.2-0.4,0.4-0.4c0.2,0,0.4,0.2,0.4,0.4
							C9.5,28,9.3,28.2,9.1,28.2z"/>
						<path fill="#37474F" d="M9.1,28.7c-0.5,0-0.9-0.4-0.9-0.9c0-0.5,0.4-0.9,0.9-0.9c0.2,0,0.5,0.1,0.7,0.3
							c0.2,0.2,0.3,0.4,0.3,0.7c0,0.2-0.1,0.5-0.3,0.6C9.6,28.6,9.3,28.7,9.1,28.7z"/>
					</g>
				</g>
				<g>
					<g>
						<path fill="#37474F" d="M13,22.2c-0.2,0-0.4-0.2-0.4-0.4c0-0.2,0.2-0.4,0.4-0.4c0.2,0,0.4,0.2,0.4,0.4
							C13.4,22,13.2,22.2,13,22.2z"/>
						<path fill="#37474F" d="M13,22.7c-0.5,0-0.9-0.4-0.9-0.9c0-0.2,0.1-0.5,0.3-0.7c0.2-0.2,0.4-0.3,0.7-0.3
							c0.5,0,0.9,0.4,0.9,0.9c0,0.2-0.1,0.5-0.3,0.6C13.5,22.6,13.2,22.7,13,22.7z"/>
					</g>
					<g>
						<path fill="#37474F" d="M13,25.2c-0.2,0-0.4-0.2-0.4-0.4c0-0.2,0.2-0.4,0.4-0.4c0.2,0,0.4,0.2,0.4,0.4
							C13.4,25,13.2,25.2,13,25.2z"/>
						<path fill="#37474F" d="M13,25.7c-0.5,0-0.9-0.4-0.9-0.9c0-0.5,0.4-0.9,0.9-0.9c0.5,0,0.9,0.4,0.9,0.9
							C13.9,25.3,13.5,25.7,13,25.7L13,25.7z"/>
					</g>
					<g>
						<path fill="#37474F" d="M13,28.2c-0.2,0-0.4-0.2-0.4-0.4c0-0.2,0.2-0.4,0.4-0.4c0.2,0,0.4,0.2,0.4,0.4
							C13.4,28,13.2,28.2,13,28.2z"/>
						<path fill="#37474F" d="M13,28.7c-0.5,0-0.9-0.4-0.9-0.9c0-0.5,0.4-0.9,0.9-0.9c0.2,0,0.5,0.1,0.7,0.3
							c0.2,0.2,0.3,0.4,0.3,0.7c0,0.2-0.1,0.5-0.3,0.6C13.5,28.6,13.2,28.7,13,28.7z"/>
					</g>
				</g>
			</g>
		</g>
		<g>
			<g>
				<polygon fill="#78909C" points="5.1,6 16.9,6 15.2,11 6.8,11 				"/>
				<path fill="#37474F" d="M15.2,11.5H6.8c-0.2,0-0.4-0.1-0.5-0.3l-1.7-5C4.6,6,4.6,5.8,4.7,5.7C4.8,5.6,5,5.5,5.1,5.5h11.8
					c0.2,0,0.3,0.1,0.4,0.2c0.1,0.1,0.1,0.3,0.1,0.5l-1.7,5C15.6,11.4,15.5,11.5,15.2,11.5z M7.2,10.5h7.7l1.3-4H5.8L7.2,10.5z"/>
			</g>
			<g>
				<g>
					<g>
						<path fill="#FFAB00" d="M19.7,21v8.4c0,0.8,0.7,1.5,1.5,1.5c0.8,0,1.5-0.7,1.5-1.5V21H19.7z"/>
						<path fill="#37474F" d="M21.2,31.4c-1.1,0-2-0.9-2-2V21c0-0.3,0.2-0.5,0.5-0.5h3c0.3,0,0.5,0.2,0.5,0.5v8.4
							C23.2,30.4,22.3,31.4,21.2,31.4z M20.2,21.5v7.9c0,0.6,0.5,1,1,1s1-0.4,1-1v-7.9H20.2z"/>
					</g>
				</g>
				<g>
					<rect x="20.7" y="11" fill="#B0BEC5" width="1" height="9"/>
					<rect x="20.2" y="10.5" fill="#37474F" width="2" height="10"/>
				</g>
				<g>
					<g>
						<rect x="19.7" y="1" fill="#B0BEC5" width="7" height="16"/>
						<path fill="#37474F" d="M27.2,17.5h-8v-17h8V17.5z M20.2,16.5h6v-15h-6V16.5z"/>
					</g>
					<g>
						<rect x="24.7" y="1" fill="#FFFFFF" width="2" height="16"/>
						<path fill="#37474F" d="M26.7,17.5h-2c-0.3,0-0.5-0.2-0.5-0.5V1c0-0.3,0.2-0.5,0.5-0.5h2c0.3,0,0.5,0.2,0.5,0.5v16
							C27.2,17.3,27,17.5,26.7,17.5z M25.2,16.5h1v-15h-1V16.5z"/>
					</g>
				</g>
				<g>
					<line fill="#B0BEC5" x1="19.7" y1="10.5" x2="24.3" y2="6"/>
					<path fill="#37474F" d="M19.7,11c-0.1,0-0.3,0-0.4-0.1c-0.2-0.2-0.2-0.5,0-0.7l4.6-4.5c0.2-0.2,0.5-0.2,0.7,0
						c0.2,0.2,0.2,0.5,0,0.7l-4.6,4.5C20,11,19.9,11,19.7,11z"/>
				</g>
				<g>
					<line fill="#B0BEC5" x1="19.7" y1="15.5" x2="24.3" y2="10.9"/>
					<path fill="#37474F" d="M19.7,16c-0.1,0-0.3,0-0.4-0.1c-0.2-0.2-0.2-0.5,0-0.7l4.6-4.6c0.2-0.2,0.5-0.2,0.7,0
						c0.2,0.2,0.2,0.5,0,0.7l-4.6,4.6C20,16,19.9,16,19.7,16z"/>
				</g>
			</g>
		</g>
	</g>
</g>
</svg>
