<?xml version="1.0" encoding="utf-8"?>
<!-- Generator: Adobe Illustrator 16.0.0, SVG Export Plug-In . SVG Version: 6.00 Build 0)  -->
<!DOCTYPE svg PUBLIC "-//W3C//DTD SVG 1.1//EN" "http://www.w3.org/Graphics/SVG/1.1/DTD/svg11.dtd">
<svg version="1.1" id="Layer_1" xmlns="http://www.w3.org/2000/svg" xmlns:xlink="http://www.w3.org/1999/xlink" x="0px" y="0px"
	 width="24px" height="24px" viewBox="0 0 24 24" enable-background="new 0 0 24 24" xml:space="preserve">
<g>
	<path d="M3.7,9C3.5,9.2,3.3,9.2,3.2,9C3.2,9,3.1,8.9,3.1,8.8c0-0.1,0-0.2,0.1-0.2c0.2-0.2,0.2-0.5,0-0.7s-0.5-0.2-0.7,0
		C2.3,8.2,2.1,8.5,2.1,8.8c0,0.3,0.1,0.7,0.4,0.9c0.2,0.2,0.6,0.4,0.9,0.4S4.1,10,4.4,9.8c0.2-0.2,0.2-0.5,0-0.7
		C4.2,8.9,3.8,8.8,3.7,9z"/>
	<path d="M3.7,17.4c-0.1,0.1-0.1,0.1-0.2,0.1h0c-0.1,0-0.2,0-0.2-0.1c-0.1-0.1-0.1-0.1-0.1-0.2s0-0.2,0.1-0.2c0.2-0.2,0.2-0.5,0-0.7
		C3,16,2.7,16,2.5,16.2c-0.2,0.2-0.4,0.6-0.4,0.9s0.1,0.7,0.4,0.9c0.2,0.2,0.6,0.4,0.9,0.4c0,0,0,0,0,0c0.3,0,0.7-0.1,0.9-0.4
		c0.2-0.2,0.2-0.5,0-0.7C4.2,17.2,3.8,17.2,3.7,17.4z"/>
	<path d="M12.2,9c-0.1,0.1-0.3,0.1-0.4,0c-0.1-0.1-0.1-0.1-0.1-0.2c0-0.1,0-0.2,0.1-0.2c0.2-0.2,0.2-0.5,0-0.7
		c-0.2-0.2-0.5-0.2-0.7,0c-0.2,0.2-0.4,0.6-0.4,0.9s0.1,0.7,0.4,0.9c0.3,0.3,0.6,0.4,0.9,0.4c0.3,0,0.7-0.1,0.9-0.4
		c0.2-0.2,0.2-0.5,0-0.7S12.4,8.8,12.2,9z"/>
	<path d="M12.2,17.4c-0.1,0.1-0.3,0.1-0.4,0c-0.1-0.1-0.1-0.1-0.1-0.2s0-0.2,0.1-0.2c0.2-0.2,0.2-0.5,0-0.7c-0.2-0.2-0.5-0.2-0.7,0
		c-0.2,0.2-0.4,0.6-0.4,0.9s0.1,0.7,0.4,0.9c0.3,0.3,0.6,0.4,0.9,0.4c0.3,0,0.7-0.1,0.9-0.4c0.2-0.2,0.2-0.5,0-0.7
		C12.7,17.2,12.4,17.2,12.2,17.4z"/>
	<path d="M20.8,9c-0.1,0.1-0.3,0.1-0.4,0c-0.1-0.1-0.1-0.1-0.1-0.2c0-0.1,0-0.2,0.1-0.2c0.2-0.2,0.2-0.5,0-0.7
		c-0.2-0.2-0.5-0.2-0.7,0c-0.2,0.2-0.4,0.6-0.4,0.9s0.1,0.7,0.4,0.9c0.2,0.2,0.6,0.4,0.9,0.4s0.7-0.1,0.9-0.4c0.2-0.2,0.2-0.5,0-0.7
		S21,8.8,20.8,9z"/>
	<path d="M20.8,17.4c-0.1,0.1-0.1,0.1-0.2,0.1c0,0,0,0,0,0c-0.1,0-0.2,0-0.2-0.1c-0.1-0.1-0.1-0.1-0.1-0.2s0-0.2,0.1-0.2
		c0.2-0.2,0.2-0.5,0-0.7c-0.2-0.2-0.5-0.2-0.7,0c-0.2,0.2-0.4,0.6-0.4,0.9s0.1,0.7,0.4,0.9c0.2,0.2,0.6,0.4,0.9,0.4c0,0,0,0,0,0
		c0.3,0,0.7-0.1,0.9-0.4c0.2-0.2,0.2-0.5,0-0.7C21.3,17.2,21,17.2,20.8,17.4z"/>
	<path d="M23.4,21.4h-0.3v-15c0,0,0-0.1,0-0.1V6.2c0-0.1-0.1-0.3-0.2-0.4L21,1.9c-0.2-0.3-0.7-0.3-0.9,0l-1.9,3.9
		C18.1,5.9,18,6,18,6.2v0c0,0.1,0,0.1,0,0.2v1.3h-3.4V6.4c0,0,0-0.1,0-0.1V6.2c0-0.1-0.1-0.3-0.2-0.4l-1.9-3.9
		c-0.2-0.3-0.7-0.3-0.9,0L9.6,5.8C9.5,5.9,9.4,6,9.4,6.2v0c0,0.1,0,0.1,0,0.2v1.3H6V6.4c0,0,0-0.1,0-0.1V6.2c0-0.1-0.1-0.3-0.2-0.4
		L3.9,1.9C3.8,1.8,3.6,1.6,3.4,1.6S3.1,1.8,3,1.9L1.1,5.8C1,5.9,0.9,6,0.9,6.2v0c0,0.1,0,0.1,0,0.2v14.9H0.6c-0.3,0-0.5,0.2-0.5,0.5
		s0.2,0.5,0.5,0.5h0.8h4.1h4.4h4.1h4.4h4.1h0.8c0.3,0,0.5-0.2,0.5-0.5S23.7,21.4,23.4,21.4z M14.6,19H18v2.3h-3.4V19z M14.6,18v-1.9
		h3.2V18H14.6z M14.6,8.7h3.2v1.9h-3.2V8.7z M18,11.6v3.4h-3.4v-3.4H18z M6,19h3.4v2.3H6V19z M6.1,18v-1.9h3.2V18H6.1z M6.1,8.7h3.2
		v1.9H6.1V8.7z M9.4,11.6v3.4H6v-3.4H9.4z M1.9,21.4V6.4c0,0,0,0,0,0l1.6-3.1L5,6.4c0,0,0,0,0,0v14.9H1.9z M10.4,21.4V6.4
		c0,0,0,0,0,0L12,3.3l1.6,3.1c0,0,0,0,0,0v14.9H10.4z M19,21.4V6.4c0,0,0,0,0,0l1.6-3.1l1.6,3.1c0,0,0,0,0,0v14.9H19z"/>
</g>
</svg>
