<?xml version="1.0" encoding="utf-8"?>
<!-- Generator: Adobe Illustrator 16.0.0, SVG Export Plug-In . SVG Version: 6.00 Build 0)  -->
<!DOCTYPE svg PUBLIC "-//W3C//DTD SVG 1.1//EN" "http://www.w3.org/Graphics/SVG/1.1/DTD/svg11.dtd">
<svg version="1.1" id="Layer_1" xmlns="http://www.w3.org/2000/svg" xmlns:xlink="http://www.w3.org/1999/xlink" x="0px" y="0px"
	 width="25px" height="25px" viewBox="0 0 25 25" enable-background="new 0 0 25 25" xml:space="preserve">
<g>
	<path d="M24,2.2H4.6V1c0-0.3-0.2-0.5-0.5-0.5S3.6,0.8,3.6,1v1.2H1c-0.3,0-0.5,0.2-0.5,0.5S0.8,3.2,1,3.2h2.5V24
		c0,0.3,0.2,0.5,0.5,0.5s0.5-0.2,0.5-0.5V3.2H24c0.3,0,0.5-0.2,0.5-0.5S24.2,2.2,24,2.2z"/>
	<path d="M23.6,6.4h-2.3c-0.1,0-0.2,0-0.3,0.1c-0.2-0.4-0.5-0.7-0.9-0.8V4c0-0.3-0.2-0.5-0.5-0.5S19,3.8,19,4v1.7
		c-0.4,0.1-0.6,0.4-0.8,0.7c-0.1,0-0.1,0-0.2,0h-5.8c-0.1,0-0.2,0-0.3,0.1c-0.2-0.4-0.5-0.7-0.9-0.8V4c0-0.3-0.2-0.5-0.5-0.5
		S10,3.8,10,4v1.7C9.6,5.9,9.2,6.1,9,6.5C9,6.5,8.9,6.4,8.8,6.4H6.4c-0.3,0-0.5,0.2-0.5,0.5V21c0,0.3,0.2,0.5,0.5,0.5h17.1
		c0.3,0,0.5-0.2,0.5-0.5V6.9C24.1,6.6,23.8,6.4,23.6,6.4z M19.6,6.7c0.3,0,0.6,0.3,0.6,0.6c0,0.3-0.3,0.6-0.6,0.6S19,7.6,19,7.2
		C19,6.9,19.2,6.7,19.6,6.7z M10.4,6.7c0.3,0,0.6,0.3,0.6,0.6c0,0.3-0.3,0.6-0.6,0.6c-0.3,0-0.6-0.3-0.6-0.6
		C9.9,6.9,10.1,6.7,10.4,6.7z M23.1,20.5H6.9V7.4h1.9c0,0,0,0,0.1,0C9,8.2,9.6,8.8,10.4,8.8c0.8,0,1.5-0.6,1.6-1.4
		c0.1,0,0.1,0,0.2,0H18c0,0,0,0,0,0c0.1,0.8,0.8,1.4,1.6,1.4c0.8,0,1.5-0.6,1.6-1.4c0,0,0.1,0,0.1,0h1.8V20.5z"/>
	<polygon points="9.8,12 11.1,12 11.1,10.6 9.8,10.6 9.8,10.4 11.2,10.4 11.2,9.1 8.3,9.1 8.3,13.6 9.8,13.6 	"/>
	<path d="M13.5,13.6c1.3,0,2.1-1,2.1-2.4c0-1.3-0.9-2.3-2.1-2.3c-1.2,0-2.1,1-2.1,2.4C11.4,12.7,12.3,13.6,13.5,13.6z M13.6,10.4
		c0.5,0,0.6,0.6,0.6,0.9c0,0.4-0.1,1-0.6,1c-0.4,0-0.6-0.5-0.6-0.9C12.9,11.2,12.9,10.4,13.6,10.4z"/>
	<path d="M19.3,12.9c-0.1-0.1-0.2-0.6-0.2-0.8c-0.1-0.2-0.1-0.4-0.2-0.5c0.2-0.3,0.4-0.6,0.4-1c0-0.4-0.2-0.8-0.4-1
		c-0.4-0.4-1-0.4-1.4-0.4c-0.4,0-0.7,0-1,0.1L16,9.2v4.4h1.5v-1.5c0.1,0,0.1,0.1,0.2,0.3c0.1,0.6,0.2,0.8,0.3,1l0.1,0.2h0.8l0.8,0
		L19.3,12.9z M17.5,10.7v-0.3c0.3,0,0.3,0.1,0.3,0.2C17.7,10.6,17.7,10.7,17.5,10.7z"/>
	<path d="M10.1,15.9c-0.3-0.1-0.4-0.2-0.4-0.2c0,0,0.1,0,0.2,0c0.2,0,0.4,0.1,0.4,0.1l0.5,0.3l0.4-1.3l-0.4-0.2
		c-0.2-0.1-0.5-0.2-1-0.2c-1,0-1.6,0.6-1.6,1.5c0,0.7,0.4,1.2,1.3,1.5c0.3,0.1,0.3,0.2,0.3,0.2c0,0.1-0.1,0.1-0.2,0.1
		c-0.2,0-0.4-0.1-0.6-0.2L8.5,17l-0.4,1.4l0.3,0.2c0.3,0.2,0.8,0.3,1.2,0.3c1.2,0,1.7-0.8,1.7-1.5C11.3,16.4,10.6,16.1,10.1,15.9z"
		/>
	<polygon points="12.7,14.3 11.2,18.8 12.7,18.8 13.1,17.7 13.6,17.7 14,18.8 15.6,18.8 14,14.3 	"/>
	<polygon points="17.1,14.3 15.6,14.3 15.6,18.8 18.6,18.8 18.6,17.5 17.1,17.5 	"/>
	<polygon points="21.8,15.7 21.8,14.3 18.9,14.3 18.9,18.8 21.9,18.8 21.9,17.5 20.3,17.5 20.3,17.2 21.7,17.2 21.7,15.8 20.3,15.8 
		20.3,15.7 	"/>
</g>
</svg>
