<?xml version="1.0" encoding="utf-8"?>
<!-- Generator: Adobe Illustrator 16.0.0, SVG Export Plug-In . SVG Version: 6.00 Build 0)  -->
<!DOCTYPE svg PUBLIC "-//W3C//DTD SVG 1.1//EN" "http://www.w3.org/Graphics/SVG/1.1/DTD/svg11.dtd">
<svg version="1.1" id="Layer_1" xmlns="http://www.w3.org/2000/svg" xmlns:xlink="http://www.w3.org/1999/xlink" x="0px" y="0px"
	 width="128px" height="128px" viewBox="0 0 128 128" enable-background="new 0 0 128 128" xml:space="preserve">
<g>
	<g>
		<g>
			<path fill="#FFFFFF" d="M123,64.9c0,3.8-2.9,6.6-5.8,6.6H10.1c-2.9,0-5.1-2.8-5.1-6.6V20.7c0-3.8,2.2-7.2,5.1-7.2h107.1
				c2.9,0,5.8,3.4,5.8,7.2V64.9z"/>
			<path fill="#37474F" d="M117.2,73H10.1c-3.8,0-6.6-3.5-6.6-8.1V20.7c0-4.8,3-8.7,6.6-8.7h107.1c3.8,0,7.3,4.1,7.3,8.7v44.2
				C124.5,69.3,121.2,73,117.2,73z M10.1,15c-1.9,0-3.6,2.6-3.6,5.7v44.2c0,2.9,1.6,5.1,3.6,5.1h107.1c2,0,4.3-2.1,4.3-5.1V20.7
				c0-3.1-2.3-5.7-4.3-5.7H10.1z"/>
		</g>
		<g>
			<g>
				<line fill="#FFFFFF" x1="22.5" y1="45.5" x2="104.5" y2="45.5"/>
				<path fill="#37474F" d="M104.5,47h-82c-0.8,0-1.5-0.7-1.5-1.5s0.7-1.5,1.5-1.5h82c0.8,0,1.5,0.7,1.5,1.5S105.3,47,104.5,47z"/>
			</g>
			<g>
				<line fill="#FFFFFF" x1="22.5" y1="54.5" x2="104.5" y2="54.5"/>
				<path fill="#37474F" d="M104.5,56h-82c-0.8,0-1.5-0.7-1.5-1.5s0.7-1.5,1.5-1.5h82c0.8,0,1.5,0.7,1.5,1.5S105.3,56,104.5,56z"/>
			</g>
			<g>
				<line fill="#FFFFFF" x1="22.5" y1="64.5" x2="104.5" y2="64.5"/>
				<path fill="#37474F" d="M104.5,66h-82c-0.8,0-1.5-0.7-1.5-1.5c0-0.8,0.7-1.5,1.5-1.5h82c0.8,0,1.5,0.7,1.5,1.5
					C106,65.3,105.3,66,104.5,66z"/>
			</g>
		</g>
		<g>
			<rect x="23" y="26.5" fill="#FFAB00" width="7" height="7"/>
			<path fill="#37474F" d="M30,35h-7c-0.8,0-1.5-0.7-1.5-1.5v-7c0-0.8,0.7-1.5,1.5-1.5h7c0.8,0,1.5,0.7,1.5,1.5v7
				C31.5,34.3,30.8,35,30,35z M24.5,32h4v-4h-4V32z"/>
		</g>
		<g>
			<g>
				<path fill="#FFAB00" d="M105.7,28.9c0,4.8-3.9,8.7-8.7,8.7c-4.8,0-8.7-3.9-8.7-8.7c0-4.8,3.9-8.7,8.7-8.7
					C101.8,20.2,105.7,24.1,105.7,28.9z"/>
				<path fill="#37474F" d="M97,39.1c-5.6,0-10.2-4.6-10.2-10.2c0-5.6,4.6-10.2,10.2-10.2c5.6,0,10.2,4.6,10.2,10.2
					C107.2,34.6,102.6,39.1,97,39.1z M97,21.7c-4,0-7.2,3.2-7.2,7.2c0,4,3.2,7.2,7.2,7.2c4,0,7.2-3.2,7.2-7.2
					C104.2,25,101,21.7,97,21.7z"/>
			</g>
			<g>
				<path fill="#FFECB3" d="M100.9,28.9c0,2.2-1.8,3.9-3.9,3.9c-2.2,0-3.9-1.8-3.9-3.9c0-2.2,1.8-3.9,3.9-3.9
					C99.2,25,100.9,26.8,100.9,28.9z"/>
				<path fill="#37474F" d="M97,34.4c-3,0-5.4-2.4-5.4-5.4c0-3,2.4-5.4,5.4-5.4c3,0,5.4,2.4,5.4,5.4C102.4,31.9,100,34.4,97,34.4z
					 M97,26.5c-1.3,0-2.4,1.1-2.4,2.4c0,1.3,1.1,2.4,2.4,2.4c1.3,0,2.4-1.1,2.4-2.4C99.4,27.6,98.3,26.5,97,26.5z"/>
			</g>
		</g>
	</g>
	<g>
		<g>
			<g>
				<path fill="#37474F" d="M28.6,81.5c-0.9,0-1.6-0.7-1.6-1.6c0-0.9,0.7-1.6,1.6-1.6c0.9,0,1.6,0.7,1.6,1.6
					C30.2,80.8,29.4,81.5,28.6,81.5z"/>
				<path fill="#37474F" d="M28.6,82c-1.1,0-2.1-0.9-2.1-2.1c0-1.2,0.9-2.1,2-2.1c1.2,0,2.1,0.9,2.1,2.1c0,0.5-0.2,1-0.6,1.4
					C29.7,81.8,29.1,82,28.6,82z M28.6,78.9c-0.6,0-1.1,0.5-1.1,1.1c0,0.6,0.5,1.1,1.1,1.1c0.3,0,0.6-0.1,0.8-0.3
					c0.2-0.2,0.3-0.5,0.3-0.7C29.6,79.4,29.2,78.9,28.6,78.9C28.6,78.9,28.6,78.9,28.6,78.9z"/>
			</g>
			<g>
				<path fill="#37474F" d="M28.6,92.5c-0.9,0-1.6-0.7-1.6-1.6c0-0.9,0.7-1.6,1.6-1.6c0.9,0,1.6,0.7,1.6,1.6
					C30.1,91.8,29.4,92.5,28.6,92.5z"/>
				<path fill="#37474F" d="M28.5,93c-1.1,0-2-0.9-2-2.1c0-1.1,0.9-2.1,2.1-2.1c1.2,0,2.1,1,2.1,2.1C30.6,92.1,29.7,93,28.5,93
					L28.5,93z M28.6,89.9c-0.6,0-1.1,0.5-1.1,1.1c0,0.6,0.5,1.1,1,1.1v0.5l0-0.5c0.6,0,1.1-0.5,1.1-1.1
					C29.7,90.4,29.2,89.9,28.6,89.9z"/>
			</g>
			<g>
				<path fill="#37474F" d="M28.6,103.5c-0.9,0-1.6-0.7-1.6-1.6c0-0.9,0.7-1.6,1.6-1.6c0.9,0,1.6,0.7,1.6,1.6
					C30.2,102.8,29.4,103.5,28.6,103.5z"/>
				<path fill="#37474F" d="M28.6,104c-1.1,0-2.1-1-2.1-2.1c0-1.1,0.9-2.1,2.1-2.1c0.6,0,1.1,0.2,1.5,0.6c0.4,0.4,0.6,0.9,0.6,1.5
					c0,0.5-0.2,1-0.6,1.4C29.7,103.8,29.1,104,28.6,104z M28.6,100.9c-0.6,0-1.1,0.5-1.1,1.1c0,0.6,0.5,1.1,1.1,1.1
					c0.3,0,0.6-0.1,0.8-0.3c0.2-0.2,0.3-0.5,0.3-0.7c0-0.3-0.1-0.6-0.3-0.8C29.1,101,28.9,100.9,28.6,100.9z"/>
			</g>
		</g>
		<g>
			<g>
				<path fill="#37474F" d="M46.1,81.5c-0.9,0-1.6-0.7-1.6-1.6c0-0.9,0.7-1.6,1.6-1.6c0.9,0,1.6,0.7,1.6,1.6
					C47.7,80.8,47,81.5,46.1,81.5z"/>
				<path fill="#37474F" d="M46.1,82C45,82,44,81.1,44,80c0-1.1,0.9-2.1,2.1-2.1c1.2,0,2.1,0.9,2.1,2.1c0,0.5-0.2,1-0.6,1.4
					C47.2,81.8,46.7,82,46.1,82z M46.1,78.9c-0.6,0-1.1,0.5-1.1,1.1c0,0.6,0.5,1.1,1.1,1.1c0.3,0,0.6-0.1,0.8-0.3
					c0.2-0.2,0.3-0.5,0.3-0.7C47.2,79.4,46.7,78.9,46.1,78.9C46.1,78.9,46.1,78.9,46.1,78.9z"/>
			</g>
			<g>
				<path fill="#37474F" d="M46.1,92.5c-0.9,0-1.6-0.7-1.6-1.6c0-0.9,0.7-1.6,1.6-1.6c0.9,0,1.6,0.7,1.6,1.6
					C47.7,91.8,47,92.5,46.1,92.5z"/>
				<path fill="#37474F" d="M46.1,93C45,93,44,92.1,44,91c0-1.1,0.9-2.1,2.1-2.1c1.2,0,2.1,1,2.1,2.1C48.2,92.1,47.2,93,46.1,93
					L46.1,93z M46.1,89.9c-0.6,0-1.1,0.5-1.1,1.1c0,0.6,0.5,1.1,1.1,1.1v0.5l0-0.5c0.6,0,1.1-0.5,1.1-1.1
					C47.2,90.4,46.7,89.9,46.1,89.9z"/>
			</g>
			<g>
				<path fill="#37474F" d="M46.1,103.5c-0.9,0-1.6-0.7-1.6-1.6c0-0.9,0.7-1.6,1.6-1.6c0.9,0,1.6,0.7,1.6,1.6
					C47.7,102.8,47,103.5,46.1,103.5z"/>
				<path fill="#37474F" d="M46.1,104c-1.1,0-2.1-1-2.1-2.1c0-1.1,0.9-2.1,2.1-2.1c0.6,0,1.1,0.2,1.5,0.6c0.4,0.4,0.6,0.9,0.6,1.5
					c0,0.5-0.2,1-0.6,1.4C47.2,103.8,46.7,104,46.1,104z M46.1,100.9c-0.6,0-1.1,0.5-1.1,1.1c0,0.6,0.5,1.1,1.1,1.1
					c0.3,0,0.6-0.1,0.8-0.3c0.2-0.2,0.3-0.5,0.3-0.7c0-0.3-0.1-0.6-0.3-0.8C46.7,101,46.4,100.9,46.1,100.9z"/>
			</g>
		</g>
		<g>
			<g>
				<path fill="#37474F" d="M63.7,81.5c-0.9,0-1.6-0.7-1.6-1.6c0-0.9,0.7-1.6,1.6-1.6c0.9,0,1.6,0.7,1.6,1.6
					C65.3,80.8,64.5,81.5,63.7,81.5z"/>
				<path fill="#37474F" d="M63.7,82c-1.2,0-2.1-0.9-2.1-2.1c0-1.2,0.9-2.1,2-2.1c1.2,0,2.1,0.9,2.1,2.1c0,0.5-0.2,1-0.6,1.4
					C64.8,81.8,64.2,82,63.7,82z M63.7,78.9c-0.6,0-1.1,0.5-1.1,1.1c0,0.6,0.5,1.1,1.1,1.1c0.3,0,0.6-0.1,0.8-0.3
					c0.2-0.2,0.3-0.5,0.3-0.7C64.7,79.4,64.3,78.9,63.7,78.9C63.7,78.9,63.7,78.9,63.7,78.9z"/>
			</g>
			<g>
				<path fill="#37474F" d="M63.7,92.5c-0.9,0-1.6-0.7-1.6-1.6c0-0.9,0.7-1.6,1.6-1.6c0.9,0,1.6,0.7,1.6,1.6
					C65.2,91.8,64.5,92.5,63.7,92.5z"/>
				<path fill="#37474F" d="M63.7,93c-1.1,0-2.1-0.9-2.1-2.1c0-1.1,0.9-2.1,2.1-2.1c1.2,0,2.1,1,2.1,2.1C65.7,92.1,64.8,93,63.7,93
					L63.7,93z M63.7,89.9c-0.6,0-1.1,0.5-1.1,1.1c0,0.6,0.5,1.1,1.1,1.1v0.5l0-0.5c0.6,0,1.1-0.5,1.1-1.1
					C64.8,90.4,64.3,89.9,63.7,89.9z"/>
			</g>
			<g>
				<path fill="#37474F" d="M63.7,103.5c-0.9,0-1.6-0.7-1.6-1.6c0-0.9,0.7-1.6,1.6-1.6c0.9,0,1.6,0.7,1.6,1.6
					C65.3,102.8,64.5,103.5,63.7,103.5z"/>
				<path fill="#37474F" d="M63.7,104c-1.1,0-2.1-1-2.1-2.1c0-1.1,0.9-2.1,2.1-2.1c0.5,0,1.1,0.2,1.5,0.6c0.4,0.4,0.6,0.9,0.6,1.5
					c0,0.5-0.2,1-0.6,1.4C64.8,103.8,64.2,104,63.7,104z M63.7,100.9c-0.6,0-1.1,0.5-1.1,1.1c0,0.6,0.5,1.1,1.1,1.1
					c0.3,0,0.5-0.1,0.8-0.3c0.2-0.2,0.3-0.5,0.3-0.7c0-0.3-0.1-0.6-0.3-0.8C64.2,101,64,100.9,63.7,100.9z"/>
			</g>
		</g>
		<g>
			<g>
				<path fill="#37474F" d="M81.2,81.5c-0.9,0-1.6-0.7-1.6-1.6c0-0.9,0.7-1.6,1.6-1.6c0.9,0,1.5,0.7,1.5,1.6
					C82.8,80.8,82.1,81.5,81.2,81.5z"/>
				<path fill="#37474F" d="M81.2,82c-1.1,0-2.1-0.9-2.1-2.1c0-1.2,0.9-2.1,2-2.1c1.2,0,2.1,0.9,2.1,2.1c0,0.5-0.2,1-0.5,1.4
					C82.3,81.8,81.8,82,81.2,82z M81.2,78.9c-0.6,0-1.1,0.5-1.1,1.1c0,0.6,0.5,1.1,1.1,1.1c0.3,0,0.6-0.1,0.8-0.3
					c0.2-0.2,0.3-0.4,0.3-0.7C82.3,79.4,81.8,78.9,81.2,78.9C81.2,78.9,81.2,78.9,81.2,78.9z"/>
			</g>
			<g>
				<path fill="#37474F" d="M81.2,92.5c-0.9,0-1.6-0.7-1.6-1.6c0-0.9,0.7-1.6,1.6-1.6c0.9,0,1.6,0.7,1.6,1.6
					C82.8,91.8,82.1,92.5,81.2,92.5z"/>
				<path fill="#37474F" d="M81.2,93c-1.1,0-2.1-0.9-2.1-2.1c0-1.1,0.9-2.1,2.1-2.1c1.2,0,2.1,1,2.1,2.1C83.3,92.1,82.3,93,81.2,93
					L81.2,93z M81.2,89.9c-0.6,0-1.1,0.5-1.1,1.1c0,0.6,0.5,1.1,1.1,1.1v0.5l0-0.5c0.6,0,1.1-0.5,1.1-1.1
					C82.3,90.4,81.8,89.9,81.2,89.9z"/>
			</g>
			<g>
				<path fill="#37474F" d="M81.2,103.5c-0.9,0-1.6-0.7-1.6-1.6c0-0.9,0.7-1.6,1.6-1.6c0.9,0,1.6,0.7,1.5,1.6
					C82.8,102.8,82.1,103.5,81.2,103.5z"/>
				<path fill="#37474F" d="M81.2,104c-1.1,0-2.1-1-2.1-2.1c0-1.1,0.9-2.1,2.1-2.1c0.6,0,1.1,0.2,1.5,0.6c0.4,0.4,0.6,0.9,0.5,1.5
					c0,0.5-0.2,1-0.6,1.4C82.3,103.8,81.8,104,81.2,104z M81.2,100.9c-0.6,0-1.1,0.5-1.1,1.1c0,0.6,0.5,1.1,1.1,1.1
					c0.3,0,0.6-0.1,0.8-0.3c0.2-0.2,0.3-0.5,0.3-0.7c0-0.3-0.1-0.6-0.3-0.8C81.8,101,81.5,100.9,81.2,100.9z"/>
			</g>
		</g>
		<g>
			<g>
				<path fill="#37474F" d="M98.8,81.5c-0.9,0-1.6-0.7-1.6-1.6c0-0.9,0.7-1.6,1.6-1.6c0.9,0,1.6,0.7,1.6,1.6
					C100.4,80.8,99.7,81.5,98.8,81.5z"/>
				<path fill="#37474F" d="M98.8,82c-1.1,0-2.1-0.9-2.1-2.1c0-1.2,0.9-2.1,2-2.1c1.2,0,2.1,0.9,2.1,2.1c0,0.5-0.2,1-0.6,1.4
					C99.9,81.8,99.4,82,98.8,82z M98.8,78.9c-0.6,0-1.1,0.5-1.1,1.1c0,0.6,0.5,1.1,1.1,1.1c0.3,0,0.6-0.1,0.8-0.3
					c0.2-0.2,0.3-0.5,0.3-0.7C99.8,79.4,99.4,78.9,98.8,78.9C98.8,78.9,98.8,78.9,98.8,78.9z"/>
			</g>
			<g>
				<path fill="#37474F" d="M98.8,92.5c-0.9,0-1.6-0.7-1.6-1.6c0-0.9,0.7-1.6,1.6-1.6c0.9,0,1.6,0.7,1.6,1.6
					C100.3,91.8,99.7,92.5,98.8,92.5z"/>
				<path fill="#37474F" d="M98.8,93c-1.1,0-2.1-0.9-2.1-2.1c0-1.1,0.9-2.1,2.1-2.1c1.2,0,2.1,1,2.1,2.1C100.8,92.1,99.9,93,98.8,93
					L98.8,93z M98.8,89.9c-0.6,0-1.1,0.5-1.1,1.1c0,0.6,0.5,1.1,1.1,1.1v0.5l0-0.5c0.6,0,1.1-0.5,1.1-1.1
					C99.9,90.4,99.4,89.9,98.8,89.9z"/>
			</g>
			<g>
				<path fill="#37474F" d="M98.8,103.5c-0.9,0-1.6-0.7-1.6-1.6c0-0.9,0.7-1.6,1.6-1.6c0.9,0,1.6,0.7,1.6,1.6
					C100.4,102.8,99.7,103.5,98.8,103.5z"/>
				<path fill="#37474F" d="M98.8,104c-1.1,0-2.1-1-2.1-2.1c0-1.1,0.9-2.1,2.1-2.1c0.6,0,1.1,0.2,1.5,0.6c0.4,0.4,0.6,0.9,0.6,1.5
					c0,0.5-0.2,1-0.6,1.4C99.9,103.8,99.3,104,98.8,104z M98.8,100.9c-0.6,0-1.1,0.5-1.1,1.1c0,0.6,0.5,1.1,1.1,1.1
					c0.3,0,0.6-0.1,0.8-0.3c0.2-0.2,0.3-0.5,0.3-0.7c0-0.3-0.1-0.6-0.3-0.8C99.4,101,99.1,100.9,98.8,100.9z"/>
			</g>
		</g>
	</g>
	<g>
		<g>
			<polygon fill="#37474F" points="21.5,110 26,114.5 30.5,110 			"/>
		</g>
		<g>
			<polygon fill="#37474F" points="30.9,110 35.4,114.5 40,110 			"/>
		</g>
		<g>
			<polygon fill="#37474F" points="40.3,110 44.8,114.5 49.4,110 			"/>
		</g>
		<g>
			<polygon fill="#37474F" points="49.7,110 54.2,114.5 58.8,110 			"/>
		</g>
		<g>
			<polygon fill="#37474F" points="59.1,110 63.7,114.5 68.2,110 			"/>
		</g>
		<g>
			<polygon fill="#37474F" points="68.6,110 73.1,114.5 77.6,110 			"/>
		</g>
		<g>
			<polygon fill="#37474F" points="78,110 82.5,114.5 87.1,110 			"/>
		</g>
		<g>
			<polygon fill="#37474F" points="87.4,110 91.9,114.5 96.5,110 			"/>
		</g>
		<g>
			<polygon fill="#37474F" points="96.8,110 101.4,114.5 105.9,110 			"/>
		</g>
	</g>
</g>
</svg>
