<?xml version="1.0" encoding="utf-8"?>
<!-- Generator: Adobe Illustrator 16.0.0, SVG Export Plug-In . SVG Version: 6.00 Build 0)  -->
<!DOCTYPE svg PUBLIC "-//W3C//DTD SVG 1.1//EN" "http://www.w3.org/Graphics/SVG/1.1/DTD/svg11.dtd">
<svg version="1.1" id="Layer_1" xmlns="http://www.w3.org/2000/svg" xmlns:xlink="http://www.w3.org/1999/xlink" x="0px" y="0px"
	 width="64px" height="64px" viewBox="0 0 64 64" enable-background="new 0 0 64 64" xml:space="preserve">
<g>
	<g>
		<g>
			<polyline fill="#FFAB00" points="1.7,23.2 24.3,4.1 46.8,23.2 			"/>
			<path fill="#37474F" d="M1.7,24.2c-0.3,0-0.6-0.1-0.8-0.4c-0.4-0.4-0.3-1.1,0.1-1.4L23.6,3.3C24,3,24.5,3,24.9,3.3l22.5,19.2
				c0.4,0.4,0.5,1,0.1,1.4c-0.4,0.4-1,0.5-1.4,0.1L24.3,5.4L2.4,24C2.2,24.2,2,24.2,1.7,24.2z"/>
		</g>
		<g>
			<polyline fill="#FFECB3" points="23,48 8,48 8,23 			"/>
			<path fill="#37474F" d="M23,49H8c-0.6,0-1-0.4-1-1V23c0-0.6,0.4-1,1-1s1,0.4,1,1v24h14c0.6,0,1,0.4,1,1S23.6,49,23,49z"/>
		</g>
		<g>
			<line fill="#FFECB3" x1="41" y1="23" x2="41" y2="33"/>
			<path fill="#37474F" d="M41,34c-0.6,0-1-0.4-1-1V23c0-0.6,0.4-1,1-1s1,0.4,1,1v10C42,33.6,41.6,34,41,34z"/>
		</g>
		<g>
			<rect x="13" y="31" fill="#FFECB3" width="10" height="17"/>
			<path fill="#37474F" d="M23,49H13c-0.6,0-1-0.4-1-1V31c0-0.6,0.4-1,1-1h10c0.6,0,1,0.4,1,1v17C24,48.6,23.6,49,23,49z M14,47h8
				V32h-8V47z"/>
		</g>
		<g>
			<line fill="#FFECB3" x1="32" y1="31" x2="32" y2="39"/>
			<path fill="#37474F" d="M32,40c-0.6,0-1-0.4-1-1v-8c0-0.6,0.4-1,1-1s1,0.4,1,1v8C33,39.6,32.6,40,32,40z"/>
		</g>
		<g>
			<line fill="#FFECB3" x1="36" y1="35" x2="28" y2="35"/>
			<path fill="#37474F" d="M36,36h-8c-0.6,0-1-0.4-1-1s0.4-1,1-1h8c0.6,0,1,0.4,1,1S36.6,36,36,36z"/>
		</g>
		<g>
			<polyline fill="#FFECB3" points="8,17 8,6 13,6 			"/>
			<path fill="#37474F" d="M8,18c-0.6,0-1-0.4-1-1V6c0-0.6,0.4-1,1-1h5c0.6,0,1,0.4,1,1s-0.4,1-1,1H9v10C9,17.6,8.6,18,8,18z"/>
		</g>
		<g>
			<polyline fill="#FFECB3" points="11.7,59.9 23.8,47.8 29.5,53.5 52.9,30.1 			"/>
			<path fill="#37474F" d="M11.7,60.9c-0.3,0-0.5-0.1-0.7-0.3c-0.4-0.4-0.4-1,0-1.4l12.1-12.1c0.4-0.4,1-0.4,1.4,0l4.9,4.9
				l22.7-22.7c0.4-0.4,1-0.4,1.4,0s0.4,1,0,1.4L30.2,54.2c-0.4,0.4-1,0.4-1.4,0l-4.9-4.9L12.4,60.6C12.2,60.8,12,60.9,11.7,60.9z"/>
		</g>
		<g>
			<line fill="#FFECB3" x1="39.8" y1="50.5" x2="56.4" y2="33.9"/>
			<path fill="#37474F" d="M39.8,51.5c-0.3,0-0.5-0.1-0.7-0.3c-0.4-0.4-0.4-1,0-1.4l16.6-16.6c0.4-0.4,1-0.4,1.4,0s0.4,1,0,1.4
				L40.5,51.2C40.3,51.4,40.1,51.5,39.8,51.5z"/>
		</g>
		<g>
			<line fill="#FFECB3" x1="20.1" y1="59" x2="27.4" y2="51.7"/>
			<path fill="#37474F" d="M20.1,60c-0.3,0-0.5-0.1-0.7-0.3c-0.4-0.4-0.4-1,0-1.4l7.3-7.3c0.4-0.4,1-0.4,1.4,0s0.4,1,0,1.4l-7.3,7.3
				C20.6,59.9,20.3,60,20.1,60z"/>
		</g>
	</g>
	<g>
		<polyline fill="#FFECB3" points="51.8,22.3 62.3,20.8 60.8,31.3 55.9,26.4 		"/>
		<path fill="#37474F" d="M60.8,32.3c-0.3,0-0.5-0.1-0.7-0.3l-4.9-4.9c-0.4-0.4-0.4-1,0-1.4s1-0.4,1.4,0l3.5,3.5l1-7.1L52,23.3
			c-0.6,0.1-1.1-0.3-1.1-0.8c-0.1-0.5,0.3-1.1,0.8-1.1l10.4-1.5c0.3,0,0.6,0.1,0.8,0.3c0.2,0.2,0.3,0.5,0.3,0.8l-1.5,10.4
			c-0.1,0.4-0.3,0.7-0.7,0.8C61,32.2,60.9,32.3,60.8,32.3z"/>
	</g>
</g>
</svg>
