<?xml version="1.0" encoding="utf-8"?>
<!-- Generator: Adobe Illustrator 16.0.0, SVG Export Plug-In . SVG Version: 6.00 Build 0)  -->
<!DOCTYPE svg PUBLIC "-//W3C//DTD SVG 1.1//EN" "http://www.w3.org/Graphics/SVG/1.1/DTD/svg11.dtd">
<svg version="1.1" id="Layer_1" xmlns="http://www.w3.org/2000/svg" xmlns:xlink="http://www.w3.org/1999/xlink" x="0px" y="0px"
	 width="130px" height="130px" viewBox="0 0 130 130" enable-background="new 0 0 130 130" xml:space="preserve">
<g>
	<g>
		<rect x="3" y="14" fill="#FFFFFF" width="73" height="74"/>
		<path fill="#37474F" d="M76,90H3c-1.1,0-2-0.9-2-2V14c0-1.1,0.9-2,2-2h73c1.1,0,2,0.9,2,2v74C78,89.1,77.1,90,76,90z M5,86h69V16
			H5V86z"/>
	</g>
	<g>
		<circle fill="#B0BEC5" cx="39.7" cy="51" r="22.7"/>
		<path fill="#37474F" d="M39.7,75.7C26.1,75.7,15,64.6,15,51c0-13.6,11.1-24.7,24.7-24.7S64.4,37.4,64.4,51
			C64.4,64.6,53.3,75.7,39.7,75.7z M39.7,30.3C28.3,30.3,19,39.6,19,51c0,11.4,9.3,20.7,20.7,20.7S60.4,62.4,60.4,51
			C60.4,39.6,51.1,30.3,39.7,30.3z"/>
	</g>
	<g>
		<g>
			<line fill="#FFFFFF" x1="32" y1="47" x2="32" y2="55"/>
			<path fill="#37474F" d="M32,57c-1.1,0-2-0.9-2-2v-8c0-1.1,0.9-2,2-2s2,0.9,2,2v8C34,56.1,33.1,57,32,57z"/>
		</g>
		<g>
			<line fill="#FFFFFF" x1="47" y1="47" x2="47" y2="55"/>
			<path fill="#37474F" d="M47,57c-1.1,0-2-0.9-2-2v-8c0-1.1,0.9-2,2-2s2,0.9,2,2v8C49,56.1,48.1,57,47,57z"/>
		</g>
	</g>
	<g>
		<g>
			<g>
				<g>
					<line fill="#FFFFFF" x1="97" y1="22" x2="97" y2="43"/>
					<path fill="#37474F" d="M97,45c-1.1,0-2-0.9-2-2V22c0-1.1,0.9-2,2-2s2,0.9,2,2v21C99,44.1,98.1,45,97,45z"/>
				</g>
				<g>
					<line fill="#FFFFFF" x1="115" y1="22" x2="115" y2="43"/>
					<path fill="#37474F" d="M115,45c-1.1,0-2-0.9-2-2V22c0-1.1,0.9-2,2-2s2,0.9,2,2v21C117,44.1,116.1,45,115,45z"/>
				</g>
			</g>
			<g>
				<path fill="#B0BEC5" d="M84.8,42c0,12,9.4,21.1,21.1,21.1c11.6,0,21.1-9.1,21.1-21.1H84.8z"/>
				<path fill="#37474F" d="M105.9,65.1C93,65.1,82.8,54.9,82.8,42c0-1.1,0.9-2,2-2h42.1c1.1,0,2,0.9,2,2
					C128.9,54.9,118.8,65.1,105.9,65.1z M86.9,44c1,9.7,8.9,17.1,19,17.1c10,0,18-7.3,19-17.1H86.9z"/>
			</g>
		</g>
		<g>
			<path fill="#37474F" d="M79.9,117.6l-71.2,0c-1.1,0-2-0.9-2-2s0.9-2,2-2l0,0l71.2,0c12.7,0,23.1-10.4,23.1-23.1l0-13.4
				c0-1.1,0.9-2,2-2c1.1,0,2,0.9,2,2l0,13.4C107,105.4,94.9,117.6,79.9,117.6z"/>
		</g>
		<g>
			<path fill="#FFAB00" d="M121.1,68.9L121.1,68.9c0,3.9-3.2,7.1-7.1,7.1H97.8c-3.9,0-7.1-3.2-7.1-7.1l0,0"/>
			<path fill="#37474F" d="M114,78H97.8c-5,0-9.1-4.1-9.1-9.1c0-1.1,0.9-2,2-2s2,0.9,2,2c0,2.8,2.3,5.1,5.1,5.1H114
				c2.8,0,5.1-2.3,5.1-5.1c0-1.1,0.9-2,2-2s2,0.9,2,2C123.1,73.9,119,78,114,78z"/>
		</g>
	</g>
</g>
</svg>
