<?xml version="1.0" encoding="utf-8"?>
<!-- Generator: Adobe Illustrator 16.0.0, SVG Export Plug-In . SVG Version: 6.00 Build 0)  -->
<!DOCTYPE svg PUBLIC "-//W3C//DTD SVG 1.1//EN" "http://www.w3.org/Graphics/SVG/1.1/DTD/svg11.dtd">
<svg version="1.1" id="Layer_1" xmlns="http://www.w3.org/2000/svg" xmlns:xlink="http://www.w3.org/1999/xlink" x="0px" y="0px"
	 width="24px" height="24px" viewBox="0 0 24 24" enable-background="new 0 0 24 24" xml:space="preserve">
<g>
	<path d="M22.4,9.9c0-0.1,0.1-0.1,0.1-0.2V7.1c0-0.3-0.2-0.5-0.5-0.5h-9c-0.3,0-0.5,0.2-0.5,0.5v1.5H7.1c0,0,0.1-0.1,0.1-0.1
		l1.6-4.7c0.1-0.3,0-0.5-0.3-0.6C8.3,3,8,3.2,7.9,3.4L6.3,8.1L4.7,3.3C4.6,3.1,4.3,2.9,4.1,3C3.8,3.1,3.7,3.4,3.7,3.7l1.7,5H4
		c-2,0-3.5,2.1-3.5,3.9v7.6c0,1.9,1.7,3.6,3.5,3.6h15.9c1.9,0,3.6-1.7,3.6-3.6v-7.6C23.5,11.5,23.1,10.6,22.4,9.9z M13.5,7.6h8v1.5
		c-0.5-0.3-1-0.5-1.6-0.5h-6.4V7.6z M22.5,20.1c0,1.3-1.2,2.6-2.6,2.6H4c-1.3,0-2.5-1.2-2.5-2.6v-7.6c0-1.3,1.2-2.9,2.5-2.9h15.9
		c1.3,0,2.6,1.4,2.6,2.9V20.1z"/>
	<path d="M19.6,10.6H4.3c-1,0-1.9,0.8-1.9,1.8c0,0,0,1.3,0.1,1.4c0,0.2,0.3,0.4,0.5,0.4c0,0,0,0,0.1,0c0.3,0,0.5-0.3,0.4-0.6
		c0-0.2,0-1.2,0-1.2c0-0.5,0.4-0.8,0.9-0.8h15.3c0.5,0,0.9,0.4,0.9,0.8c0,0.1,0,1.1,0,1.2c0,0.3,0.1,0.5,0.4,0.6
		c0.3,0,0.5-0.1,0.6-0.4c0-0.2,0.1-1.4,0.1-1.4C21.5,11.4,20.7,10.6,19.6,10.6z"/>
	<path d="M10.5,16.6h-7c-0.3,0-0.5,0.2-0.5,0.5s0.2,0.5,0.5,0.5h7c0.3,0,0.5-0.2,0.5-0.5S10.8,16.6,10.5,16.6z"/>
	<path d="M10.5,19.6h-7c-0.3,0-0.5,0.2-0.5,0.5s0.2,0.5,0.5,0.5h7c0.3,0,0.5-0.2,0.5-0.5S10.8,19.6,10.5,19.6z"/>
	<path d="M18.8,13.5c0.5,0,0.8-0.4,0.8-0.8c0-0.2-0.1-0.4-0.2-0.6c-0.2-0.2-0.4-0.2-0.6-0.2c-0.4,0-0.8,0.4-0.8,0.8
		C18,13.1,18.4,13.5,18.8,13.5L18.8,13.5z"/>
	<path d="M16.6,13.5c0.4,0,0.8-0.4,0.8-0.8c0-0.4-0.4-0.8-0.8-0.8c-0.2,0-0.4,0.1-0.6,0.2c-0.2,0.2-0.2,0.4-0.2,0.6
		C15.8,13.1,16.2,13.5,16.6,13.5L16.6,13.5z"/>
	<path d="M14.4,13.5L14.4,13.5c0.5,0,0.8-0.4,0.8-0.8c0-0.5-0.4-0.8-0.8-0.8c-0.5,0-0.8,0.4-0.8,0.8C13.6,13.1,14,13.5,14.4,13.5
		C14.4,13.5,14.4,13.5,14.4,13.5z"/>
	<path d="M21,17.9c-0.3,0-0.5,0.2-0.5,0.5c0,1.4-1.2,2.6-2.6,2.6c-1.4,0-2.6-1.2-2.6-2.6c0-1.4,1.2-2.6,2.6-2.6
		c0.3,0,0.5-0.2,0.5-0.5s-0.2-0.5-0.5-0.5c-2,0-3.6,1.6-3.6,3.6c0,2,1.6,3.6,3.6,3.6c2,0,3.6-1.6,3.6-3.6
		C21.5,18.2,21.3,17.9,21,17.9z"/>
	<path d="M2.6,2.4c0.3,0,0.5-0.2,0.5-0.5c0-0.3,0.2-0.5,0.5-0.5s0.5,0.2,0.5,0.5c0,0.3,0.2,0.5,0.5,0.5s0.5-0.2,0.5-0.5
		c0-0.8-0.7-1.5-1.5-1.5S2.1,1.1,2.1,1.9C2.1,2.2,2.4,2.4,2.6,2.4z"/>
	<path d="M7.8,2.4c0.3,0,0.5-0.2,0.5-0.5c0-0.3,0.2-0.5,0.5-0.5s0.5,0.2,0.5,0.5c0,0.3,0.2,0.5,0.5,0.5s0.5-0.2,0.5-0.5
		c0-0.8-0.7-1.5-1.5-1.5S7.3,1.1,7.3,1.9C7.3,2.2,7.5,2.4,7.8,2.4z"/>
</g>
</svg>
