<?xml version="1.0" encoding="utf-8"?>
<!-- Generator: Adobe Illustrator 16.0.0, SVG Export Plug-In . SVG Version: 6.00 Build 0)  -->
<!DOCTYPE svg PUBLIC "-//W3C//DTD SVG 1.1//EN" "http://www.w3.org/Graphics/SVG/1.1/DTD/svg11.dtd">
<svg version="1.1" id="Layer_1" xmlns="http://www.w3.org/2000/svg" xmlns:xlink="http://www.w3.org/1999/xlink" x="0px" y="0px"
	 width="128px" height="128px" viewBox="0 0 128 128" enable-background="new 0 0 128 128" xml:space="preserve">
<g>
	<g>
		<path fill="#B0BEC5" d="M108.6,65.7c0,24.6-20,44.6-44.6,44.6s-44.6-20-44.6-44.6c0-24.6,20-44.6,44.6-44.6S108.6,41.1,108.6,65.7
			z"/>
		<path fill="#37474F" d="M64,111.8c-25.4,0-46.1-20.7-46.1-46.1c0-25.4,20.7-46.1,46.1-46.1s46.1,20.7,46.1,46.1
			C110.1,91.1,89.4,111.8,64,111.8z M64,22.6c-23.8,0-43.1,19.3-43.1,43.1c0,23.8,19.3,43.1,43.1,43.1s43.1-19.3,43.1-43.1
			C107.1,41.9,87.8,22.6,64,22.6z"/>
	</g>
	<g>
		<g>
			<rect x="45.8" y="119" fill="#FFFFFF" width="9" height="7"/>
			<path fill="#37474F" d="M54.8,127.5h-9c-0.8,0-1.5-0.7-1.5-1.5v-7c0-0.8,0.7-1.5,1.5-1.5h9c0.8,0,1.5,0.7,1.5,1.5v7
				C56.3,126.8,55.6,127.5,54.8,127.5z M47.3,124.5h6v-4h-6V124.5z"/>
		</g>
		<g>
			<rect x="73.8" y="119" fill="#FFFFFF" width="8" height="7"/>
			<path fill="#37474F" d="M81.8,127.5h-8c-0.8,0-1.5-0.7-1.5-1.5v-7c0-0.8,0.7-1.5,1.5-1.5h8c0.8,0,1.5,0.7,1.5,1.5v7
				C83.3,126.8,82.6,127.5,81.8,127.5z M75.3,124.5h5v-4h-5V124.5z"/>
		</g>
	</g>
	<g>
		<path fill="#78909C" d="M85.5,117.4c0,1.4-1.6,2.6-3.5,2.6H46c-2,0-3.5-1.2-3.5-2.6l7-26c0-1.4,1.6-2.4,3.5-2.4h21.8
			c2,0,3.5,0.9,3.5,2.4L85.5,117.4z"/>
		<path fill="#37474F" d="M82,121.5H46c-2.8,0-5-1.8-5-4.1c0-0.1,0-0.3,0.1-0.4l7-25.9c0.1-2.1,2.2-3.6,5-3.6h21.8
			c2.8,0,4.9,1.5,5,3.6l7,25.9c0,0.1,0.1,0.3,0.1,0.4C87,119.7,84.7,121.5,82,121.5z M44,117.5c0.1,0.4,0.9,1,2,1H82
			c1.1,0,1.9-0.5,2-1l-7-25.8c0-0.1-0.1-0.3-0.1-0.4c0-0.4-0.8-0.9-2-0.9H53.1c-1.2,0-2,0.5-2,0.9c0,0.1,0,0.3-0.1,0.4L44,117.5z"/>
	</g>
	<g>
		<path fill="#FFFFFF" d="M85.8,20.4C85.8,13,79.9,7,72.5,7H55.5c-7.4,0-13.7,6-13.7,13.4v38.4c0,0.8,0.5,1.5,0.6,2.3
			c0,0,0.1,0,0.1,0.1l0.3,0.9c0.2,0.8,0.3,1.6,0.6,2.3l6.2,23.1c0,1.5,1.6,2.6,3.5,2.6h21.8c2,0,3.5-1.2,3.5-2.6l6.2-23.1
			c0.3-0.7,0.4-1.5,0.6-2.3l0.2-0.9c0,0-0.1,0-0.1-0.1c0.1-0.8,0.4-1.5,0.4-2.3V20.4z"/>
		<path fill="#37474F" d="M74.9,91.5H53.1c-2.7,0-4.9-1.7-5-3.9l-6.1-22.8c-0.3-0.6-0.4-1.2-0.5-1.8c0-0.2-0.1-0.4-0.2-0.7l-0.2-0.6
			c-0.1-0.1-0.1-0.3-0.2-0.5h0c0-0.2-0.1-0.4-0.2-0.7c-0.2-0.5-0.4-1.1-0.4-1.9V20.4c0-8.1,7-14.9,15.2-14.9h17.1
			c8.1,0,14.7,6.7,14.7,14.9v38.4c0,0.7-0.1,1.3-0.3,1.9c0,0.1,0,0.1-0.1,0.2c0,0.1,0,0.2,0,0.3c0,0.1,0,0.3,0,0.4l-0.2,0.9
			c-0.1,0.2-0.1,0.5-0.2,0.7c-0.1,0.5-0.2,1.1-0.5,1.7l-6.1,22.8C79.8,89.8,77.6,91.5,74.9,91.5z M43.9,60.6l0.3,0.9
			c0.1,0.3,0.1,0.6,0.2,0.8c0.1,0.5,0.2,1,0.4,1.3c0,0.1,0.1,0.2,0.1,0.2L51,87c0,0.1,0.1,0.3,0.1,0.4c0,0.5,0.9,1.1,2,1.1h21.8
			c1.2,0,2-0.6,2-1.1c0-0.1,0-0.3,0.1-0.4l6.2-23.1c0-0.1,0-0.2,0.1-0.2c0.2-0.3,0.2-0.8,0.3-1.2c0.1-0.3,0.1-0.6,0.2-0.8l0.1-0.3
			c0-0.1,0-0.1,0-0.2c0-0.1,0-0.2,0-0.3c0-0.3,0.1-0.6,0.2-0.9c0.1-0.4,0.2-0.8,0.2-1.2V20.4c0-6.6-5.3-11.9-11.7-11.9H55.5
			c-6.6,0-12.2,5.4-12.2,11.9v38.4c0,0.2,0.1,0.5,0.2,0.8c0.1,0.3,0.2,0.6,0.3,1C43.8,60.5,43.9,60.6,43.9,60.6L43.9,60.6z"/>
	</g>
	<g>
		<path fill="#FFAB00" d="M85.4,18C84.1,12,79,7,72.5,7H55.5C49,7,43.9,12,42.6,18H85.4z"/>
		<path fill="#37474F" d="M85.4,19.5H42.6c-0.5,0-0.9-0.2-1.2-0.6c-0.3-0.4-0.4-0.8-0.3-1.3c1.5-7.1,7.5-12.2,14.3-12.2h17.1
			c6.8,0,12.8,5.1,14.3,12.2c0.1,0.4,0,0.9-0.3,1.3C86.2,19.3,85.8,19.5,85.4,19.5z M44.6,16.5h38.7c-1.7-4.7-6-8-10.8-8H55.5
			C50.7,8.5,46.4,11.8,44.6,16.5z"/>
	</g>
	<g>
		<path fill="#FFECB3" d="M72.3,9c-0.5-4-2.5-7-5-7h-6.6c-2.5,0-4.5,3-5,7H72.3z"/>
		<path fill="#37474F" d="M72.3,10.5H55.7c-0.4,0-0.8-0.2-1.1-0.5c-0.3-0.3-0.4-0.8-0.4-1.2c0.6-5,3.2-8.3,6.5-8.3h6.6
			c3.2,0,5.8,3.3,6.5,8.3c0.1,0.4-0.1,0.9-0.4,1.2S72.7,10.5,72.3,10.5z M57.5,7.5h13c-0.6-2.4-1.9-4-3.2-4h-6.6
			C59.4,3.5,58.2,5.1,57.5,7.5z"/>
	</g>
	<g>
		<path fill="#FFAB00" d="M71.5,104.2c0,4.1-3.4,7.5-7.5,7.5c-4.1,0-7.5-3.4-7.5-7.5c0-4.1,3.4-7.5,7.5-7.5
			C68.1,96.7,71.5,100.1,71.5,104.2z"/>
		<path fill="#37474F" d="M64,113.3c-5,0-9-4-9-9c0-5,4-9,9-9c5,0,9,4,9,9C73,109.2,69,113.3,64,113.3z M64,98.2c-3.3,0-6,2.7-6,6
			s2.7,6,6,6c3.3,0,6-2.7,6-6S67.3,98.2,64,98.2z"/>
	</g>
	<g>
		<polyline fill="#FFECB3" points="87.3,32 98.8,32 98.8,58.2 94.5,62.6 		"/>
		<path fill="#37474F" d="M94.5,64.1c-0.4,0-0.8-0.1-1-0.4c-0.6-0.6-0.6-1.5,0-2.1l3.9-4V33.5h-10c-0.8,0-1.5-0.7-1.5-1.5
			s0.7-1.5,1.5-1.5h11.5c0.8,0,1.5,0.7,1.5,1.5v26.2c0,0.4-0.2,0.8-0.4,1l-4.3,4.4C95.3,64,94.9,64.1,94.5,64.1z"/>
	</g>
	<g>
		<g>
			<g>
				<path fill="#37474F" d="M54.1,39.8c-0.8,0-1.4-0.7-1.5-1.4c0-0.8,0.7-1.5,1.5-1.5c0.8,0,1.4,0.6,1.4,1.5
					C55.5,39.1,54.9,39.8,54.1,39.8z"/>
				<path fill="#37474F" d="M54.1,40.3c-1.1,0-1.9-0.8-2-1.9c0-0.5,0.2-1,0.6-1.4c0.4-0.4,0.9-0.6,1.4-0.6c0.6,0,1.1,0.2,1.4,0.6
					c0.4,0.4,0.6,0.9,0.5,1.4c0,0.5-0.2,1-0.5,1.3C55.1,40.1,54.6,40.3,54.1,40.3z M54.1,37.4c-0.3,0-0.5,0.1-0.7,0.3
					c-0.2,0.2-0.3,0.4-0.3,0.7c0,0.5,0.4,0.9,1,0.9c0.3,0,0.5-0.1,0.7-0.3c0.2-0.2,0.3-0.4,0.2-0.6c0-0.3-0.1-0.5-0.3-0.7
					C54.6,37.5,54.3,37.4,54.1,37.4C54.1,37.4,54.1,37.4,54.1,37.4z"/>
			</g>
			<g>
				<path fill="#37474F" d="M54,50c-0.8,0-1.5-0.7-1.4-1.4c0-0.8,0.6-1.5,1.4-1.5c0.8,0,1.5,0.7,1.5,1.5C55.5,49.3,54.9,50,54,50z"
					/>
				<path fill="#37474F" d="M54,50.5c-0.5,0-1-0.2-1.4-0.6c-0.4-0.4-0.6-0.9-0.5-1.4c0-0.5,0.2-1,0.6-1.4c0.4-0.4,0.9-0.6,1.4-0.6
					c1.1,0,2,0.9,2,2C56,49.6,55.1,50.5,54,50.5L54,50.5z M54.1,47.5c-0.3,0-0.5,0.1-0.7,0.3c-0.2,0.2-0.3,0.4-0.3,0.7
					c0,0.3,0.1,0.5,0.3,0.7c0.2,0.2,0.4,0.3,0.6,0.3V50l0-0.5c0.5,0,1-0.4,1-1C55,48,54.6,47.5,54.1,47.5z"/>
			</g>
			<g>
				<path fill="#37474F" d="M54.1,60.1c-0.8,0-1.4-0.7-1.5-1.5c0-0.8,0.7-1.5,1.5-1.5c0.8,0,1.5,0.7,1.4,1.5
					C55.5,59.4,54.9,60.1,54.1,60.1z"/>
				<path fill="#37474F" d="M54.1,60.6c-1.1,0-1.9-0.9-2-2c0-1.1,0.9-2,2-2c0.5,0,1,0.2,1.4,0.6c0.4,0.4,0.6,0.9,0.6,1.4
					c0,0.5-0.2,1-0.6,1.4C55.1,60.4,54.6,60.6,54.1,60.6z M54.1,57.7c-0.5,0-1,0.5-1,1c0,0.5,0.5,1,1,1c0.2,0,0.5-0.1,0.7-0.3
					c0.2-0.2,0.3-0.4,0.3-0.7c0-0.3-0.1-0.5-0.3-0.7C54.5,57.8,54.3,57.7,54.1,57.7z"/>
			</g>
		</g>
		<g>
			<g>
				<path fill="#37474F" d="M64,39.8c-0.8,0-1.4-0.7-1.5-1.4c0-0.8,0.7-1.5,1.5-1.5c0.8,0,1.4,0.6,1.4,1.5
					C65.5,39.1,64.8,39.8,64,39.8z"/>
				<path fill="#37474F" d="M64,40.3c-1.1,0-1.9-0.9-2-1.9c0-0.5,0.2-1,0.6-1.4c0.4-0.4,0.8-0.6,1.4-0.6c0.6,0,1.1,0.2,1.4,0.6
					c0.4,0.4,0.6,0.9,0.5,1.4c0,0.5-0.2,1-0.5,1.3C65,40.1,64.5,40.3,64,40.3z M64,37.4c-0.3,0-0.5,0.1-0.7,0.3
					c-0.2,0.2-0.3,0.4-0.3,0.7c0,0.5,0.4,0.9,1,0.9c0.3,0,0.5-0.1,0.7-0.3c0.2-0.2,0.3-0.4,0.3-0.6c0-0.3-0.1-0.5-0.3-0.7
					C64.5,37.5,64.3,37.4,64,37.4C64,37.4,64,37.4,64,37.4z"/>
			</g>
			<g>
				<path fill="#37474F" d="M64,50c-0.8,0-1.4-0.7-1.4-1.4c0-0.8,0.6-1.5,1.4-1.5c0.8,0,1.5,0.7,1.5,1.5C65.4,49.3,64.8,50,64,50z"
					/>
				<path fill="#37474F" d="M64,50.5c-0.5,0-1-0.2-1.3-0.6c-0.4-0.4-0.6-0.9-0.6-1.4c0-0.5,0.2-1,0.6-1.4c0.4-0.4,0.9-0.6,1.4-0.6
					c1.1,0,2,0.9,2,2C65.9,49.6,65.1,50.5,64,50.5L64,50.5z M64,47.5c-0.3,0-0.5,0.1-0.7,0.3c-0.2,0.2-0.3,0.4-0.3,0.7
					c0,0.3,0.1,0.5,0.3,0.7c0.2,0.2,0.4,0.3,0.6,0.3V50l0-0.5c0.5,0,1-0.4,1-1C65,48,64.5,47.5,64,47.5z"/>
			</g>
			<g>
				<path fill="#37474F" d="M64,60.1c-0.8,0-1.4-0.7-1.5-1.5c0-0.8,0.7-1.5,1.5-1.5c0.8,0,1.5,0.7,1.4,1.5
					C65.5,59.4,64.8,60.1,64,60.1z"/>
				<path fill="#37474F" d="M64,60.6c-1,0-1.9-0.9-2-2c0-1.1,0.9-2,2-2c0.5,0,1,0.2,1.4,0.6c0.4,0.4,0.6,0.9,0.6,1.4
					c0,0.5-0.2,1-0.6,1.4C65,60.4,64.5,60.6,64,60.6z M64,57.7c-0.5,0-1,0.5-1,1c0,0.5,0.5,1,1,1c0.2,0,0.5-0.1,0.7-0.3
					c0.2-0.2,0.3-0.4,0.3-0.7c0-0.3-0.1-0.5-0.3-0.7C64.5,57.8,64.3,57.7,64,57.7z"/>
			</g>
		</g>
		<g>
			<g>
				<path fill="#37474F" d="M73.9,39.8c-0.8,0-1.4-0.7-1.5-1.4c0-0.8,0.6-1.5,1.5-1.5c0.8,0,1.4,0.6,1.4,1.5
					C75.4,39.1,74.7,39.8,73.9,39.8z"/>
				<path fill="#37474F" d="M73.9,40.3c-1.1,0-1.9-0.8-2-1.9c0-0.5,0.2-1,0.6-1.4c0.4-0.4,0.8-0.6,1.4-0.6c0.6,0,1.1,0.2,1.4,0.6
					c0.4,0.4,0.6,0.9,0.5,1.4c0,0.5-0.2,1-0.5,1.3C75,40.1,74.5,40.3,73.9,40.3z M74,37.4c-0.3,0-0.5,0.1-0.7,0.3
					c-0.2,0.2-0.3,0.4-0.3,0.7c0,0.5,0.4,0.9,1,0.9c0.3,0,0.5-0.1,0.7-0.3c0.2-0.2,0.3-0.4,0.2-0.6c0-0.3-0.1-0.5-0.3-0.7
					C74.4,37.5,74.2,37.4,74,37.4C74,37.4,74,37.4,74,37.4z"/>
			</g>
			<g>
				<path fill="#37474F" d="M73.9,50c-0.8,0-1.4-0.7-1.4-1.4c0-0.8,0.6-1.5,1.4-1.5c0.8,0,1.5,0.7,1.5,1.5
					C75.4,49.3,74.7,50,73.9,50z"/>
				<path fill="#37474F" d="M73.9,50.5c-0.5,0-1-0.2-1.3-0.6C72.2,49.5,72,49,72,48.5c0-0.5,0.2-1,0.6-1.4c0.4-0.4,0.9-0.6,1.4-0.6
					c1.1,0,2,0.9,2,2C75.9,49.6,75,50.5,73.9,50.5L73.9,50.5z M73.9,47.5c-0.3,0-0.5,0.1-0.7,0.3C73.1,48,73,48.2,73,48.5
					c0,0.3,0.1,0.5,0.3,0.7c0.2,0.2,0.4,0.3,0.6,0.3V50l0-0.5c0.5,0,1-0.4,1-1C74.9,48,74.5,47.5,73.9,47.5z"/>
			</g>
			<g>
				<path fill="#37474F" d="M73.9,60.1c-0.8,0-1.4-0.7-1.5-1.5c0-0.8,0.6-1.5,1.5-1.5c0.8,0,1.5,0.7,1.4,1.5
					C75.4,59.4,74.8,60.1,73.9,60.1z"/>
				<path fill="#37474F" d="M73.9,60.6c-1.1,0-1.9-0.9-2-2c0-1.1,0.9-2,2-2c0.5,0,1,0.2,1.4,0.6c0.4,0.4,0.6,0.9,0.5,1.4
					c0,0.5-0.2,1-0.6,1.4C75,60.4,74.5,60.6,73.9,60.6z M73.9,57.7c-0.5,0-1,0.4-1,1c0,0.5,0.4,1,1,1c0.2,0,0.5-0.1,0.7-0.3
					c0.2-0.2,0.3-0.4,0.3-0.7c0-0.3-0.1-0.5-0.3-0.7C74.4,57.8,74.2,57.7,73.9,57.7z"/>
			</g>
		</g>
	</g>
</g>
</svg>
