<?xml version="1.0" encoding="utf-8"?>
<!-- Generator: Adobe Illustrator 16.0.0, SVG Export Plug-In . SVG Version: 6.00 Build 0)  -->
<!DOCTYPE svg PUBLIC "-//W3C//DTD SVG 1.1//EN" "http://www.w3.org/Graphics/SVG/1.1/DTD/svg11.dtd">
<svg version="1.1" id="Layer_1" xmlns="http://www.w3.org/2000/svg" xmlns:xlink="http://www.w3.org/1999/xlink" x="0px" y="0px"
	 width="32px" height="32px" viewBox="0 0 32 32" enable-background="new 0 0 32 32" xml:space="preserve">
<g>
	<g>
		<polygon fill="#FFFFFF" points="1,3 1,6 22,6 22,26 1,26 1,29 31,29 31,3 		"/>
		<path fill="#37474F" d="M31,29.5H1c-0.3,0-0.5-0.2-0.5-0.5v-3c0-0.3,0.2-0.5,0.5-0.5h20.5v-19H1C0.7,6.5,0.5,6.3,0.5,6V3
			c0-0.3,0.2-0.5,0.5-0.5h30c0.3,0,0.5,0.2,0.5,0.5v26C31.5,29.3,31.3,29.5,31,29.5z M1.5,28.5h29v-25h-29v2H22
			c0.3,0,0.5,0.2,0.5,0.5v20c0,0.3-0.2,0.5-0.5,0.5H1.5V28.5z"/>
	</g>
	<g>
		<g>
			<polygon fill="#37474F" points="16.5,25 5,25 6.6,19 14.9,19 			"/>
			<path fill="#37474F" d="M16.5,25.5C16.5,25.5,16.5,25.5,16.5,25.5H5c-0.2,0-0.3-0.1-0.4-0.2S4.5,25,4.5,24.9l1.6-6
				c0.1-0.2,0.3-0.4,0.5-0.4h8.3c0.2,0,0.4,0.2,0.5,0.4l1.6,5.9c0,0.1,0.1,0.2,0.1,0.3C17,25.3,16.8,25.5,16.5,25.5z M5.6,24.5h10.2
				l-1.4-5H7L5.6,24.5z"/>
		</g>
		<g>
			<polyline fill="#FFECB3" points="5.5,15 3,15 3,21.4 3.9,22.5 			"/>
			<path fill="#37474F" d="M3.9,23c-0.1,0-0.3-0.1-0.4-0.2l-0.9-1c-0.1-0.1-0.1-0.2-0.1-0.3V15c0-0.3,0.2-0.5,0.5-0.5h2.5
				C5.8,14.5,6,14.7,6,15s-0.2,0.5-0.5,0.5h-2v5.8l0.8,0.9c0.2,0.2,0.2,0.5,0,0.7C4.1,22.9,4,23,3.9,23z"/>
		</g>
		<g>
			<polygon fill="#FFECB3" points="5,12 16.5,12 14.9,19 6.6,19 			"/>
			<path fill="#37474F" d="M14.9,19.5H6.6c-0.2,0-0.4-0.2-0.5-0.4l-1.6-7c0-0.1,0-0.3,0.1-0.4c0.1-0.1,0.2-0.2,0.4-0.2h11.5
				c0.2,0,0.3,0.1,0.4,0.2C17,11.8,17,12,17,12.1l-1.6,7C15.3,19.3,15.1,19.5,14.9,19.5z M7,18.5h7.5l1.4-6H5.6L7,18.5z"/>
		</g>
		<g>
			<g>
				<path fill="#37474F" d="M8.6,15.1c0,0.2-0.2,0.3-0.3,0.4c-0.2,0-0.4-0.2-0.4-0.4c0-0.2,0.2-0.3,0.4-0.3
					C8.5,14.7,8.6,14.9,8.6,15.1z"/>
				<path fill="#37474F" d="M8.3,15.9c-0.2,0-0.4-0.1-0.6-0.3c-0.2-0.2-0.2-0.4-0.2-0.6c0-0.5,0.4-0.8,0.9-0.8
					c0.5,0,0.8,0.4,0.8,0.8C9.1,15.5,8.8,15.9,8.3,15.9L8.3,15.9z"/>
			</g>
			<g>
				<path fill="#37474F" d="M11.1,15.1c0,0.2-0.2,0.3-0.3,0.3c-0.2,0-0.4-0.2-0.4-0.4c0-0.2,0.2-0.4,0.4-0.4
					C10.9,14.7,11.1,14.9,11.1,15.1z"/>
				<path fill="#37474F" d="M10.8,15.9c-0.5,0-0.9-0.4-0.9-0.9c0-0.5,0.4-0.9,0.9-0.9c0.5,0,0.9,0.4,0.9,0.9c0,0.2-0.1,0.4-0.2,0.6
					C11.2,15.8,11,15.9,10.8,15.9z M10.8,14.9c0,0-0.1,0-0.1,0c0,0,0,0.1,0,0.1c0,0.1,0.1,0.1,0.1,0.1l0,0c0.1,0,0.2-0.1,0.2-0.1
					C10.9,15,10.8,14.9,10.8,14.9z"/>
			</g>
			<g>
				<path fill="#37474F" d="M13.6,15.1c0,0.2-0.2,0.4-0.4,0.4c-0.2,0-0.4-0.2-0.4-0.4c0-0.2,0.2-0.4,0.4-0.3
					C13.4,14.7,13.6,14.9,13.6,15.1z"/>
				<path fill="#37474F" d="M13.2,15.9c-0.5,0-0.9-0.4-0.9-0.9c0-0.5,0.4-0.8,0.8-0.8c0.5,0,0.9,0.4,0.9,0.8
					C14.1,15.5,13.7,15.9,13.2,15.9z M13.2,14.9c-0.1,0-0.1,0.1-0.1,0.1c0,0.2,0.3,0.2,0.3,0C13.4,15,13.3,14.9,13.2,14.9z"/>
			</g>
		</g>
	</g>
	<g>
		<g>
			<rect x="7" y="6" fill="#B0BEC5" width="8" height="2"/>
			<path fill="#37474F" d="M15.5,8.5h-9v-3h9V8.5z M7.5,7.5h7v-1h-7V7.5z"/>
		</g>
		<g>
			<line fill="#FFECB3" x1="11" y1="10.5" x2="11" y2="8.5"/>
			<path fill="#37474F" d="M11,11c-0.3,0-0.5-0.2-0.5-0.5v-2C10.5,8.2,10.7,8,11,8s0.5,0.2,0.5,0.5v2C11.5,10.8,11.3,11,11,11z"/>
		</g>
	</g>
	<g>
		<g>
			<polyline fill="#FFECB3" points="25.9,11.2 27.5,11.2 27.5,12.9 			"/>
			<path fill="#37474F" d="M27.5,13.4c-0.3,0-0.5-0.2-0.5-0.5v-1.2h-1.2c-0.3,0-0.5-0.2-0.5-0.5s0.2-0.5,0.5-0.5h1.7
				c0.3,0,0.5,0.2,0.5,0.5v1.7C28,13.1,27.8,13.4,27.5,13.4z"/>
		</g>
		<g>
			<polyline fill="#FFECB3" points="25.9,14.9 27.5,14.9 27.5,16.6 			"/>
			<path fill="#37474F" d="M27.5,17.1c-0.3,0-0.5-0.2-0.5-0.5v-1.2h-1.2c-0.3,0-0.5-0.2-0.5-0.5s0.2-0.5,0.5-0.5h1.7
				c0.3,0,0.5,0.2,0.5,0.5v1.7C28,16.8,27.8,17.1,27.5,17.1z"/>
		</g>
	</g>
	<g>
		<rect x="22" y="18" fill="#FFAB00" width="9" height="7"/>
		<path fill="#37474F" d="M31,25.5h-9c-0.3,0-0.5-0.2-0.5-0.5v-7c0-0.3,0.2-0.5,0.5-0.5h9c0.3,0,0.5,0.2,0.5,0.5v7
			C31.5,25.3,31.3,25.5,31,25.5z M22.5,24.5h8v-6h-8V24.5z"/>
	</g>
	<g>
		<g>
			<line fill="#FFAB00" x1="25" y1="22.5" x2="25" y2="20.5"/>
			<path fill="#37474F" d="M25,23c-0.3,0-0.5-0.2-0.5-0.5v-2c0-0.3,0.2-0.5,0.5-0.5s0.5,0.2,0.5,0.5v2C25.5,22.8,25.3,23,25,23z"/>
		</g>
		<g>
			<line fill="#FFAB00" x1="28" y1="22.5" x2="28" y2="20.5"/>
			<path fill="#37474F" d="M28,23c-0.3,0-0.5-0.2-0.5-0.5v-2c0-0.3,0.2-0.5,0.5-0.5s0.5,0.2,0.5,0.5v2C28.5,22.8,28.3,23,28,23z"/>
		</g>
	</g>
	<g>
		<rect x="24" y="7" fill="#78909C" width="6" height="2"/>
		<path fill="#37474F" d="M30,9.5h-6c-0.3,0-0.5-0.2-0.5-0.5V7c0-0.3,0.2-0.5,0.5-0.5h6c0.3,0,0.5,0.2,0.5,0.5v2
			C30.5,9.3,30.3,9.5,30,9.5z M24.5,8.5h5v-1h-5V8.5z"/>
	</g>
	<g>
		<line fill="#78909C" x1="9" y1="26.5" x2="9" y2="28.5"/>
		<path fill="#37474F" d="M9,29c-0.3,0-0.5-0.2-0.5-0.5v-2C8.5,26.2,8.7,26,9,26s0.5,0.2,0.5,0.5v2C9.5,28.8,9.3,29,9,29z"/>
	</g>
	<g>
		<line fill="#78909C" x1="13" y1="26.5" x2="13" y2="28.5"/>
		<path fill="#37474F" d="M13,29c-0.3,0-0.5-0.2-0.5-0.5v-2c0-0.3,0.2-0.5,0.5-0.5s0.5,0.2,0.5,0.5v2C13.5,28.8,13.3,29,13,29z"/>
	</g>
	<g>
		<line fill="#78909C" x1="17" y1="26.5" x2="17" y2="28.5"/>
		<path fill="#37474F" d="M17,29c-0.3,0-0.5-0.2-0.5-0.5v-2c0-0.3,0.2-0.5,0.5-0.5s0.5,0.2,0.5,0.5v2C17.5,28.8,17.3,29,17,29z"/>
	</g>
</g>
</svg>
