<?xml version="1.0" encoding="utf-8"?>
<!-- Generator: Adobe Illustrator 16.0.0, SVG Export Plug-In . SVG Version: 6.00 Build 0)  -->
<!DOCTYPE svg PUBLIC "-//W3C//DTD SVG 1.1//EN" "http://www.w3.org/Graphics/SVG/1.1/DTD/svg11.dtd">
<svg version="1.1" id="Layer_1" xmlns="http://www.w3.org/2000/svg" xmlns:xlink="http://www.w3.org/1999/xlink" x="0px" y="0px"
	 width="32px" height="32px" viewBox="0 0 32 32" enable-background="new 0 0 32 32" xml:space="preserve">
<g>
	<g>
		<polygon fill="#B0BEC5" points="23.8,22.4 22.4,23.8 16.5,17.9 17.9,16.5 		"/>
		<path fill="#37474F" d="M22.4,24.5l-6.6-6.6l2.1-2.1l6.6,6.6L22.4,24.5z M17.2,17.9l5.2,5.2l0.6-0.6l-5.2-5.2L17.2,17.9z"/>
	</g>
	<g>
		<path fill="#37474F" d="M19.7,4.6c4.2,4.2,4.2,10.9,0,15.1c-4.2,4.2-10.9,4.2-15.1,0c-4.2-4.2-4.2-10.9,0-15.1
			C8.8,0.5,15.6,0.5,19.7,4.6z"/>
		<path fill="#37474F" d="M12.2,23.4c-3,0-5.8-1.2-7.9-3.3c-4.4-4.4-4.4-11.5,0-15.8C6.4,2.2,9.2,1,12.2,1c3,0,5.8,1.2,7.9,3.3
			c2.1,2.1,3.3,4.9,3.3,7.9s-1.2,5.8-3.3,7.9C18,22.2,15.2,23.4,12.2,23.4z M12.2,2C9.5,2,6.9,3.1,5,5C1,9,1,15.4,5,19.4
			c1.9,1.9,4.5,3,7.2,3c2.7,0,5.3-1.1,7.2-3c1.9-1.9,3-4.5,3-7.2c0-2.7-1.1-5.3-3-7.2C17.5,3.1,14.9,2,12.2,2z"/>
	</g>
	<g>
		<path fill="#FFAB00" d="M30,27.6c0.7,0.7,0.7,1.8,0,2.4l0,0c-0.7,0.7-1.8,0.7-2.4,0L22,24.4c-0.7-0.7-0.7-1.8,0-2.4l0,0
			c0.7-0.7,1.8-0.7,2.4,0L30,27.6z"/>
		<path fill="#37474F" d="M28.8,31c-0.6,0-1.2-0.2-1.6-0.7l-5.6-5.6c-0.4-0.4-0.7-1-0.7-1.6s0.2-1.1,0.7-1.6c0.8-0.8,2.3-0.8,3.1,0
			l5.6,5.6c0.9,0.9,0.9,2.3,0,3.1C29.9,30.8,29.4,31,28.8,31z M23.2,22c-0.3,0-0.6,0.1-0.9,0.4c-0.2,0.2-0.4,0.5-0.4,0.9
			c0,0.3,0.1,0.6,0.4,0.9l5.6,5.6c0.5,0.5,1.3,0.5,1.7,0c0.5-0.5,0.5-1.2,0-1.7l-5.6-5.6C23.8,22.1,23.5,22,23.2,22z"/>
	</g>
	<g>
		<g>
			<path fill="#37474F" d="M24.6,24.6c-0.1,0.1-0.3,0.1-0.5,0c-0.1-0.1-0.1-0.3,0-0.5c0.1-0.1,0.3-0.1,0.5,0
				C24.7,24.2,24.7,24.5,24.6,24.6z"/>
			<path fill="#37474F" d="M24.3,25.2c-0.2,0-0.4-0.1-0.6-0.2c-0.2-0.2-0.3-0.4-0.3-0.6c0-0.2,0.1-0.4,0.3-0.6
				c0.3-0.3,0.9-0.3,1.2,0c0.1,0.1,0.2,0.3,0.2,0.5c0,0.2-0.1,0.5-0.2,0.6C24.8,25.1,24.6,25.2,24.3,25.2z M24.3,24.2
				c0,0-0.1,0-0.1,0c0,0-0.1,0.1-0.1,0.1c0,0.1,0,0.1,0.1,0.1c0,0,0.2,0,0.2,0c0,0,0-0.1,0-0.1c0,0,0-0.1-0.1-0.1
				C24.4,24.2,24.4,24.2,24.3,24.2z"/>
		</g>
		<g>
			<path fill="#37474F" d="M26.2,26.2c-0.1,0.1-0.3,0.1-0.5,0c-0.1-0.1-0.1-0.3,0-0.5c0.1-0.1,0.3-0.1,0.5,0
				C26.4,25.9,26.4,26.1,26.2,26.2z"/>
			<path fill="#37474F" d="M26,26.8c-0.2,0-0.4-0.1-0.6-0.3c-0.3-0.3-0.3-0.8,0-1.2c0.3-0.3,0.9-0.3,1.2,0c0.3,0.3,0.3,0.9,0,1.2
				C26.4,26.7,26.2,26.8,26,26.8z M26,25.8c0,0-0.1,0-0.1,0.1c-0.1,0.1-0.1,0.2,0,0.2c0.1,0.1,0.2,0.1,0.2,0c0.1-0.1,0.1-0.2,0-0.2
				C26.1,25.8,26,25.8,26,25.8z"/>
		</g>
		<g>
			<path fill="#37474F" d="M27.9,27.9c-0.1,0.1-0.3,0.1-0.5,0c-0.1-0.1-0.1-0.3,0-0.5c0.1-0.1,0.3-0.1,0.5,0
				C28,27.5,28,27.7,27.9,27.9z"/>
			<path fill="#37474F" d="M27.6,28.5c-0.2,0-0.4-0.1-0.6-0.2c-0.2-0.2-0.2-0.4-0.2-0.6c0-0.2,0.1-0.4,0.2-0.6
				c0.3-0.3,0.9-0.3,1.2,0c0.1,0.1,0.2,0.3,0.2,0.6c0,0.2-0.1,0.4-0.2,0.6C28.1,28.4,27.9,28.5,27.6,28.5z M27.6,27.5
				c0,0-0.1,0-0.1,0.1c0,0,0,0.1,0,0.1c0,0,0,0.1,0.1,0.1c0,0,0.2,0.1,0.2,0c0.1-0.1,0.1-0.2,0-0.2C27.7,27.5,27.7,27.5,27.6,27.5z"
				/>
		</g>
	</g>
	<g>
		<g>
			<path fill="#FFFFFF" d="M20.7,14.2c0.5-2-0.5-4.1-2.3-5c-0.9-1.8-2.5-3.3-4.7-3.8c-2.1-0.5-4.3,0.1-5.9,1.3
				c-2,0.1-3.8,1.5-4.2,3.5c-0.5,2,0.5,4.1,2.3,5c0.9,1.8,2.5,3.3,4.7,3.8c2.1,0.5,4.3-0.1,5.9-1.3C18.5,17.6,20.2,16.2,20.7,14.2z"
				/>
			<path fill="#37474F" d="M12.2,19.7L12.2,19.7c-0.6,0-1.1-0.1-1.7-0.2c-2.1-0.5-3.9-1.9-5-3.9c-1.9-1.1-2.9-3.4-2.4-5.5
				C3.7,8,5.5,6.4,7.7,6.2c1.8-1.3,4.1-1.8,6.2-1.3c2.1,0.5,3.9,1.9,5,3.9c1.9,1.1,2.9,3.4,2.4,5.5c-0.5,2.1-2.4,3.7-4.5,3.9
				C15.3,19.2,13.8,19.7,12.2,19.7z M12.2,5.7c-1.4,0-2.8,0.5-4,1.4C8.1,7.1,8,7.2,7.9,7.2c-1.8,0.1-3.4,1.4-3.8,3.1
				c-0.4,1.8,0.4,3.6,2,4.5c0.1,0,0.2,0.1,0.2,0.2c0.9,1.8,2.5,3.1,4.4,3.5c1.9,0.4,3.9,0,5.5-1.2c0.1-0.1,0.2-0.1,0.3-0.1
				c1.8-0.1,3.4-1.4,3.8-3.1c0.4-1.8-0.4-3.6-2-4.5c-0.1,0-0.2-0.1-0.2-0.2c-0.9-1.8-2.5-3.1-4.4-3.5C13.2,5.7,12.7,5.7,12.2,5.7z"
				/>
		</g>
		<g>
			<path fill="#FFAB00" d="M15.1,12.9c-0.4,1.6-2,2.6-3.6,2.3c-1.6-0.4-2.6-2-2.3-3.6c0.4-1.6,2-2.6,3.6-2.3
				C14.5,9.6,15.5,11.2,15.1,12.9z"/>
			<path fill="#37474F" d="M12.2,15.7c-0.3,0-0.5,0-0.8-0.1c-0.9-0.2-1.7-0.8-2.2-1.6c-0.5-0.8-0.7-1.7-0.4-2.7
				c0.4-1.6,1.8-2.7,3.4-2.7c0.3,0,0.5,0,0.8,0.1c1.9,0.4,3.1,2.4,2.6,4.2C15.3,14.6,13.8,15.7,12.2,15.7z M12.2,9.7
				c-1.2,0-2.2,0.8-2.5,2c-0.2,0.7,0,1.3,0.3,1.9s0.9,1,1.6,1.1c1.4,0.3,2.7-0.5,3-1.9c0.3-1.4-0.5-2.7-1.9-3
				C12.6,9.7,12.4,9.7,12.2,9.7z"/>
		</g>
		<g>
			<circle fill="#FFECB3" cx="11.3" cy="11.6" r="1.3"/>
		</g>
		<g>
			<path fill="#FFECB3" d="M13.9,13.3c-0.1,0.3-0.3,0.4-0.6,0.4c-0.3-0.1-0.4-0.3-0.4-0.6c0.1-0.3,0.3-0.4,0.6-0.4
				C13.8,12.8,13.9,13.1,13.9,13.3z"/>
		</g>
	</g>
</g>
</svg>
