<?xml version="1.0" encoding="utf-8"?>
<!-- Generator: Adobe Illustrator 16.0.0, SVG Export Plug-In . SVG Version: 6.00 Build 0)  -->
<!DOCTYPE svg PUBLIC "-//W3C//DTD SVG 1.1//EN" "http://www.w3.org/Graphics/SVG/1.1/DTD/svg11.dtd">
<svg version="1.1" id="Layer_1" xmlns="http://www.w3.org/2000/svg" xmlns:xlink="http://www.w3.org/1999/xlink" x="0px" y="0px"
	 width="32px" height="32px" viewBox="0 0 32 32" enable-background="new 0 0 32 32" xml:space="preserve">
<g>
	<g>
		<g>
			<path fill="#B0BEC5" d="M14.7,2.5H7.1C5.9,2.5,4.7,3.8,4.7,5v8.5l-0.6-0.7c-0.7-0.7-1.7-0.7-2.4,0l-0.7,0.7
				c-0.7,0.7-0.7,1.7,0,2.4l4.5,4.2c0.2,0.2-0.1,0,0,0c0.4,0.4,1,0.4,1.6,0.4h7.6c1.2,0,2-0.5,2-1.8V5C16.7,3.8,15.9,2.5,14.7,2.5z"
				/>
			<path fill="#37474F" d="M14.7,21H7.1c-0.5,0-1.1,0-1.7-0.4l0,0c-0.1-0.1-0.2-0.1-0.2-0.2L5,20.2l0,0l-4.2-3.9
				c-0.4-0.4-0.7-1-0.7-1.6c0-0.6,0.2-1.1,0.6-1.5l0.7-0.7c0.8-0.8,2-0.8,2.9-0.2V5c0-1.5,1.4-3,2.9-3h7.6c1.6,0,2.5,1.6,2.5,3v13.7
				C17.2,20.2,16.3,21,14.7,21z M6,19.8C6.2,20,6.6,20,7.1,20h7.6c1.4,0,1.5-0.7,1.5-1.3V5c0-1-0.6-2-1.5-2H7.1C6.2,3,5.2,4,5.2,5
				v9.9l-1.5-1.7c-0.4-0.4-1.2-0.4-1.6,0l-0.7,0.7c-0.2,0.2-0.4,0.5-0.4,0.8c0,0.3,0.1,0.6,0.4,0.9L6,19.8C5.9,19.7,5.9,19.7,6,19.8
				z"/>
		</g>
		<g>
			<path fill="#FFAB00" d="M16.9,22c0,0.6-0.5,1.5-1.2,1.5H6.6c-0.7,0-1.2-0.9-1.2-1.5l0,0c0-0.7,0.5-1.5,1.2-1.5h9.2
				C16.4,20.5,16.9,21.4,16.9,22L16.9,22z"/>
			<path fill="#37474F" d="M15.7,24H6.6c-0.9,0-1.7-1.1-1.7-2c0-0.9,0.7-2,1.7-2h9.2c0.9,0,1.7,1.1,1.7,2C17.4,22.9,16.7,24,15.7,24
				z M6.6,21c-0.3,0-0.7,0.6-0.7,1c0,0.4,0.4,1,0.7,1h9.2c0.3,0,0.7-0.6,0.7-1c0-0.5-0.4-1-0.7-1H6.6z"/>
		</g>
		<g>
			<g>
				<g>
					<path fill="#37474F" d="M9.2,13.7C9.2,13.9,9,14,8.8,14c-0.2,0-0.3-0.1-0.3-0.3c0-0.2,0.1-0.3,0.3-0.3
						C9,13.3,9.2,13.5,9.2,13.7z"/>
					<path fill="#37474F" d="M8.8,14.5c-0.2,0-0.4-0.1-0.6-0.2C8.1,14.1,8,13.9,8,13.7c0-0.4,0.4-0.8,0.8-0.8c0,0,0,0,0,0
						c0.5,0,0.8,0.4,0.8,0.8C9.7,14.1,9.3,14.5,8.8,14.5L8.8,14.5z"/>
				</g>
				<g>
					<path fill="#37474F" d="M11.5,13.7c0,0.2-0.1,0.3-0.3,0.3c-0.2,0-0.3-0.1-0.3-0.3c0-0.2,0.2-0.3,0.3-0.3
						C11.3,13.4,11.5,13.5,11.5,13.7z"/>
					<path fill="#37474F" d="M11.2,14.5c-0.5,0-0.8-0.4-0.8-0.8c0-0.5,0.4-0.8,0.8-0.8c0.5,0,0.8,0.4,0.8,0.8c0,0.2-0.1,0.4-0.2,0.6
						C11.6,14.4,11.4,14.5,11.2,14.5z M11.2,13.5c0,0-0.1,0-0.1,0.1c0,0-0.1,0.1-0.1,0.2c0,0.1,0.1,0.1,0.1,0.1c0,0,0,0,0,0
						c0.1,0,0.2-0.1,0.2-0.2C11.3,13.6,11.3,13.5,11.2,13.5z"/>
				</g>
				<g>
					<path fill="#37474F" d="M13.8,13.7c0,0.2-0.2,0.3-0.3,0.3c-0.2,0-0.3-0.1-0.3-0.3s0.2-0.3,0.3-0.3
						C13.7,13.3,13.8,13.5,13.8,13.7z"/>
					<path fill="#37474F" d="M13.5,14.5c-0.5,0-0.8-0.4-0.8-0.8c0-0.5,0.4-0.8,0.8-0.8c0.5,0,0.9,0.4,0.9,0.8
						C14.3,14.1,14,14.5,13.5,14.5z M13.5,13.5c-0.1,0-0.2,0.1-0.2,0.2c0,0.2,0.3,0.2,0.3,0C13.6,13.6,13.6,13.5,13.5,13.5z"/>
				</g>
			</g>
			<g>
				<g>
					<path fill="#37474F" d="M9.2,16.4c0,0.2-0.1,0.3-0.3,0.3c-0.2,0-0.3-0.1-0.3-0.3c0-0.2,0.1-0.3,0.3-0.3
						C9,16.1,9.2,16.2,9.2,16.4z"/>
					<path fill="#37474F" d="M8.8,17.3c-0.2,0-0.4-0.1-0.6-0.2C8.1,16.8,8,16.6,8,16.4c0-0.4,0.4-0.8,0.8-0.8c0.5,0,0.8,0.4,0.8,0.8
						C9.7,16.9,9.3,17.2,8.8,17.3L8.8,17.3z"/>
				</g>
				<g>
					<path fill="#37474F" d="M11.5,16.4c0,0.2-0.1,0.3-0.3,0.3c-0.2,0-0.3-0.1-0.3-0.3c0-0.2,0.2-0.3,0.3-0.3
						C11.3,16.1,11.5,16.2,11.5,16.4z"/>
					<path fill="#37474F" d="M11.2,17.3c-0.5,0-0.8-0.4-0.8-0.8c0-0.5,0.4-0.8,0.8-0.8c0.5,0,0.8,0.4,0.8,0.8c0,0.2-0.1,0.4-0.2,0.6
						C11.6,17.2,11.4,17.3,11.2,17.3z M11.2,16.3c0,0-0.1,0-0.1,0.1c0,0-0.1,0.1-0.1,0.1c0,0.1,0.1,0.1,0.2,0.1l0,0
						c0.1,0,0.2-0.1,0.2-0.2C11.3,16.3,11.3,16.3,11.2,16.3z"/>
				</g>
				<g>
					<path fill="#37474F" d="M13.8,16.4c0,0.2-0.2,0.3-0.3,0.3c-0.2,0-0.3-0.1-0.3-0.3c0-0.2,0.2-0.3,0.3-0.3
						C13.7,16.1,13.8,16.2,13.8,16.4z"/>
					<path fill="#37474F" d="M13.5,17.3c-0.5,0-0.8-0.4-0.8-0.8c0-0.5,0.4-0.8,0.8-0.8c0.5,0,0.8,0.4,0.8,0.8
						C14.3,16.9,14,17.3,13.5,17.3z M13.5,16.3c-0.1,0-0.2,0.1-0.2,0.2c0,0.2,0.3,0.2,0.3,0C13.6,16.3,13.6,16.3,13.5,16.3z"/>
				</g>
			</g>
		</g>
		<g>
			<line fill="#FFAB00" x1="4.7" y1="13.5" x2="6.2" y2="15.2"/>
			<path fill="#37474F" d="M6.2,15.7c-0.1,0-0.3-0.1-0.4-0.2l-1.5-1.7c-0.2-0.2-0.2-0.5,0-0.7c0.2-0.2,0.5-0.2,0.7,0l1.5,1.7
				c0.2,0.2,0.2,0.5,0,0.7C6.4,15.6,6.3,15.7,6.2,15.7z"/>
		</g>
	</g>
	<g>
		<g>
			<path fill="#FFFFFF" d="M17.4,8.5h7.6c1.2,0,1.8,1.4,1.8,2.6v8.5l0.9-0.7c0.7-0.7,1.8-0.7,2.5,0l0.7,0.7c0.7,0.7,0.7,1.7,0,2.4
				l-4.3,4.5c-0.1,0-0.1,0.1-0.1,0.1c-0.4,0.4-1,0.9-1.6,0.9h-7.6c-1.2,0-2.6-1.5-2.6-2.7V11.1C14.7,9.9,16.1,8.5,17.4,8.5z"/>
			<path fill="#37474F" d="M24.9,28h-7.6c-1.5,0-3.1-1.7-3.1-3.2V11.1c0-1.5,1.6-3.1,3.1-3.1h7.6c1.5,0,2.3,1.6,2.3,3.1v7.5l0.1-0.1
				c0.7-0.7,2.3-0.8,3.2,0l0.7,0.7c0.4,0.4,0.7,1,0.7,1.6c0,0.6-0.2,1.1-0.6,1.5L27,26.8c-0.1,0.1-0.1,0.1-0.2,0.2
				C26.4,27.4,25.7,28,24.9,28z M17.4,9c-1,0-2.1,1.1-2.1,2.1v13.7c0,1,1.2,2.2,2.1,2.2h7.6c0.4,0,0.9-0.4,1.2-0.8l0.1-0.1l0,0
				c0,0,0.1-0.1,0.1-0.1l4.3-4.5c0.2-0.2,0.3-0.5,0.3-0.8c0-0.3-0.1-0.6-0.4-0.9l-0.7-0.7c-0.5-0.5-1.4-0.5-1.8,0L27,20
				c-0.2,0.1-0.4,0.1-0.5,0.1c-0.2-0.1-0.3-0.3-0.3-0.4v-8.5c0-0.8-0.3-2.1-1.3-2.1H17.4z"/>
		</g>
		<g>
			<path fill="#FFAB00" d="M15.1,28.5c0,0.6,0.5,1,1.2,1h9.2c0.7,0,1.2-0.4,1.2-1l0,0c0-0.7-0.5-1-1.2-1h-9.2
				C15.7,27.5,15.1,27.9,15.1,28.5L15.1,28.5z"/>
			<path fill="#37474F" d="M25.5,30h-9.2c-1,0-1.7-0.6-1.7-1.5c0-0.9,0.7-1.5,1.7-1.5h9.2c1,0,1.7,0.6,1.7,1.5
				C27.2,29.4,26.5,30,25.5,30z M16.3,28c-0.2,0-0.7,0-0.7,0.5c0,0.4,0.5,0.5,0.7,0.5h9.2c0.2,0,0.7,0,0.7-0.5
				c0-0.5-0.5-0.5-0.7-0.5H16.3z"/>
		</g>
		<g>
			<g>
				<g>
					<path fill="#37474F" d="M22.9,19.8c0,0.2,0.1,0.3,0.3,0.3c0.2,0,0.3-0.2,0.3-0.3c0-0.2-0.1-0.3-0.3-0.3
						C23,19.4,22.9,19.6,22.9,19.8z"/>
					<path fill="#37474F" d="M23.2,20.6C23.2,20.6,23.2,20.6,23.2,20.6L23.2,20.6c-0.5,0-0.8-0.4-0.8-0.8c0-0.5,0.4-0.8,0.8-0.8
						c0.5,0,0.8,0.4,0.8,0.8c0,0.2-0.1,0.4-0.2,0.6C23.7,20.5,23.5,20.6,23.2,20.6z"/>
				</g>
				<g>
					<path fill="#37474F" d="M20.6,19.8c0,0.2,0.1,0.3,0.3,0.3c0.2,0,0.3-0.2,0.3-0.3c0-0.2-0.2-0.3-0.3-0.3
						C20.7,19.4,20.6,19.6,20.6,19.8z"/>
					<path fill="#37474F" d="M20.9,20.6c-0.2,0-0.4-0.1-0.6-0.3c-0.2-0.2-0.2-0.4-0.2-0.6c0-0.4,0.4-0.8,0.8-0.8c0,0,0,0,0,0
						c0.5,0,0.9,0.4,0.9,0.8C21.7,20.2,21.4,20.6,20.9,20.6z M20.9,19.6c-0.1,0-0.2,0.1-0.2,0.2c0,0.1,0.1,0.2,0.2,0.2
						c0.1,0,0.2-0.1,0.2-0.2c0,0,0-0.1-0.1-0.1C21,19.6,20.9,19.6,20.9,19.6z"/>
				</g>
				<g>
					<path fill="#37474F" d="M18.2,19.8c0,0.2,0.2,0.3,0.3,0.3c0.2,0,0.3-0.2,0.3-0.3c0-0.2-0.2-0.3-0.3-0.3
						C18.4,19.4,18.2,19.6,18.2,19.8z"/>
					<path fill="#37474F" d="M18.6,20.6c-0.5,0-0.8-0.4-0.8-0.8c0-0.5,0.4-0.8,0.8-0.8c0.5,0,0.8,0.4,0.8,0.8
						C19.4,20.2,19,20.6,18.6,20.6z M18.6,19.6c-0.1,0-0.2,0.1-0.2,0.2c0,0.2,0.3,0.2,0.3,0C18.7,19.7,18.7,19.6,18.6,19.6z"/>
				</g>
			</g>
			<g>
				<g>
					<path fill="#37474F" d="M22.9,22.5c0,0.2,0.1,0.3,0.3,0.3c0.2,0,0.3-0.1,0.3-0.3c0-0.2-0.1-0.3-0.3-0.3
						C23,22.2,22.9,22.3,22.9,22.5z"/>
					<path fill="#37474F" d="M23.2,23.3L23.2,23.3L23.2,23.3c-0.5,0-0.8-0.4-0.8-0.8c0-0.5,0.4-0.8,0.8-0.8c0.5,0,0.8,0.4,0.8,0.8
						c0,0.2-0.1,0.4-0.2,0.6C23.7,23.2,23.5,23.3,23.2,23.3z"/>
				</g>
				<g>
					<path fill="#37474F" d="M20.6,22.5c0,0.2,0.1,0.3,0.3,0.3c0.2,0,0.3-0.1,0.3-0.3c0-0.2-0.2-0.3-0.3-0.3
						C20.7,22.2,20.6,22.3,20.6,22.5z"/>
					<path fill="#37474F" d="M20.9,23.3c-0.2,0-0.4-0.1-0.6-0.3c-0.2-0.2-0.2-0.4-0.2-0.6c0-0.4,0.4-0.8,0.8-0.8c0,0,0,0,0,0
						c0.5,0,0.9,0.4,0.9,0.8C21.7,23,21.4,23.3,20.9,23.3z M20.9,22.3c-0.1,0-0.2,0.1-0.2,0.2c0,0.1,0.1,0.2,0.2,0.2
						c0.1,0,0.2-0.1,0.2-0.2c0,0,0-0.1-0.1-0.1C21,22.4,20.9,22.3,20.9,22.3z"/>
				</g>
				<g>
					<path fill="#37474F" d="M18.2,22.5c0,0.2,0.2,0.3,0.3,0.3c0.2,0,0.3-0.1,0.3-0.3c0-0.2-0.2-0.3-0.3-0.3
						C18.4,22.2,18.2,22.3,18.2,22.5z"/>
					<path fill="#37474F" d="M18.6,23.3c-0.5,0-0.8-0.4-0.8-0.8s0.4-0.8,0.8-0.8c0.5,0,0.8,0.4,0.8,0.8S19,23.3,18.6,23.3z
						 M18.6,22.3c-0.1,0-0.2,0.1-0.2,0.2c0,0.2,0.3,0.2,0.3,0C18.7,22.4,18.7,22.3,18.6,22.3z"/>
				</g>
			</g>
		</g>
		<g>
			<line fill="#FFAB00" x1="26.9" y1="19.5" x2="25.3" y2="21"/>
			<path fill="#37474F" d="M25.3,21.5c-0.1,0-0.3,0-0.4-0.1c-0.2-0.2-0.2-0.5,0-0.7l1.6-1.6c0.2-0.2,0.5-0.2,0.7,0s0.2,0.5,0,0.7
				l-1.6,1.6C25.6,21.5,25.5,21.5,25.3,21.5z"/>
		</g>
	</g>
</g>
</svg>
