<?xml version="1.0" encoding="utf-8"?>
<!-- Generator: Adobe Illustrator 16.0.0, SVG Export Plug-In . SVG Version: 6.00 Build 0)  -->
<!DOCTYPE svg PUBLIC "-//W3C//DTD SVG 1.1//EN" "http://www.w3.org/Graphics/SVG/1.1/DTD/svg11.dtd">
<svg version="1.1" id="Layer_1" xmlns="http://www.w3.org/2000/svg" xmlns:xlink="http://www.w3.org/1999/xlink" x="0px" y="0px"
	 width="32px" height="32px" viewBox="0 0 32 32" enable-background="new 0 0 32 32" xml:space="preserve">
<g>
	<g>
		<rect x="22.3" y="13" fill="#B0BEC5" width="7" height="15"/>
		<path fill="#37474F" d="M29.3,28.5h-7c-0.3,0-0.5-0.2-0.5-0.5V13c0-0.3,0.2-0.5,0.5-0.5h7c0.3,0,0.5,0.2,0.5,0.5v15
			C29.8,28.3,29.5,28.5,29.3,28.5z M22.8,27.5h6v-14h-6V27.5z"/>
	</g>
	<g>
		<rect x="9.3" y="16" fill="#B0BEC5" width="4" height="4"/>
		<path fill="#37474F" d="M13.3,20.5h-4c-0.3,0-0.5-0.2-0.5-0.5v-4c0-0.3,0.2-0.5,0.5-0.5h4c0.3,0,0.5,0.2,0.5,0.5v4
			C13.8,20.3,13.5,20.5,13.3,20.5z M9.8,19.5h3v-3h-3V19.5z"/>
	</g>
	<g>
		<rect x="10.3" y="1" fill="#B0BEC5" width="2" height="4"/>
		<path fill="#37474F" d="M12.3,5.5h-2C10,5.5,9.8,5.3,9.8,5V1c0-0.3,0.2-0.5,0.5-0.5h2c0.3,0,0.5,0.2,0.5,0.5v4
			C12.8,5.3,12.5,5.5,12.3,5.5z M10.8,4.5h1v-3h-1V4.5z"/>
	</g>
	<g>
		<polygon fill="#37474F" points="12.3,19.5 11.3,24.1 10.4,19.5 		"/>
	</g>
	<g>
		<rect x="7.3" y="13" fill="#FFAB00" width="8" height="3"/>
		<path fill="#37474F" d="M15.3,16.5h-8c-0.3,0-0.5-0.2-0.5-0.5v-3c0-0.3,0.2-0.5,0.5-0.5h8c0.3,0,0.5,0.2,0.5,0.5v3
			C15.8,16.3,15.5,16.5,15.3,16.5z M7.8,15.5h7v-2h-7V15.5z"/>
	</g>
	<g>
		<path fill="#FFFFFF" d="M29.3,3h-20c-2,0-4,1.8-4,3.8V14h24V3z"/>
		<path fill="#37474F" d="M29.3,14.5h-24c-0.3,0-0.5-0.2-0.5-0.5V6.8c0-2.3,2.1-4.3,4.5-4.3h20c0.3,0,0.5,0.2,0.5,0.5v11
			C29.8,14.3,29.5,14.5,29.3,14.5z M5.8,13.5h23v-10H9.2c-1.8,0-3.5,1.6-3.5,3.3V13.5z"/>
	</g>
	<g>
		<g>
			<line fill="#B0BEC5" x1="24.8" y1="9" x2="27.8" y2="9"/>
			<path fill="#37474F" d="M27.8,9.5h-3c-0.3,0-0.5-0.2-0.5-0.5s0.2-0.5,0.5-0.5h3c0.3,0,0.5,0.2,0.5,0.5S28,9.5,27.8,9.5z"/>
		</g>
		<g>
			<line fill="#B0BEC5" x1="24.8" y1="6" x2="27.8" y2="6"/>
			<path fill="#37474F" d="M27.8,6.5h-3c-0.3,0-0.5-0.2-0.5-0.5s0.2-0.5,0.5-0.5h3c0.3,0,0.5,0.2,0.5,0.5S28,6.5,27.8,6.5z"/>
		</g>
	</g>
	<g>
		<g>
			<path fill="#37474F" d="M13.4,10.4c0-0.2,0.2-0.4,0.4-0.4c0.2,0,0.4,0.2,0.4,0.4c0,0.2-0.2,0.4-0.4,0.4
				C13.6,10.9,13.4,10.7,13.4,10.4z"/>
			<path fill="#37474F" d="M13.9,11.4c-0.5,0-0.9-0.4-0.9-0.9c0-0.5,0.4-0.9,0.9-0.9c0.3,0,0.5,0.1,0.7,0.3c0.2,0.2,0.3,0.4,0.3,0.7
				C14.8,10.9,14.4,11.4,13.9,11.4L13.9,11.4z"/>
		</g>
		<g>
			<path fill="#37474F" d="M10.5,10.4c0-0.2,0.2-0.4,0.4-0.4c0.2,0,0.4,0.2,0.4,0.4c0,0.2-0.2,0.4-0.4,0.4
				C10.7,10.9,10.5,10.7,10.5,10.4z"/>
			<path fill="#37474F" d="M10.9,11.4L10.9,11.4c-0.5,0-0.9-0.4-0.9-0.9c0-0.2,0.1-0.5,0.3-0.6c0.2-0.2,0.4-0.3,0.7-0.3
				c0.5,0,0.9,0.4,0.9,0.9C11.8,11,11.4,11.4,10.9,11.4z"/>
		</g>
		<g>
			<path fill="#37474F" d="M7.5,10.4C7.5,10.2,7.7,10,8,10c0.2,0,0.4,0.2,0.4,0.4c0,0.2-0.2,0.4-0.4,0.4C7.7,10.9,7.5,10.7,7.5,10.4
				z"/>
			<path fill="#37474F" d="M8,11.4L8,11.4L8,11.4c-0.5,0-0.9-0.4-0.9-0.9C7,9.9,7.5,9.5,8,9.5c0.5,0,0.9,0.4,0.9,0.9
				C8.9,10.9,8.5,11.4,8,11.4z M8,10.5l0,0.3L8,10.5C8,10.5,8,10.5,8,10.5C8,10.4,8,10.4,8,10.4v0c0,0,0,0,0,0v0
				C7.9,10.4,7.9,10.4,8,10.5C7.9,10.5,7.9,10.5,8,10.5z"/>
		</g>
	</g>
	<g>
		<path fill="#FFFFFF" d="M29.6,28.5c0,1.3-0.9,2.5-1.9,2.5H4.3c-1.1,0-1.9-1.2-1.9-2.5l0,0c0-1.3,0.9-2.5,1.9-2.5h23.4
			C28.8,26,29.6,27.2,29.6,28.5L29.6,28.5z"/>
		<path fill="#37474F" d="M27.7,31.5H4.3c-1.3,0-2.4-1.4-2.4-3s1.1-3,2.4-3h23.4c1.3,0,2.4,1.4,2.4,3S29,31.5,27.7,31.5z M4.3,26.5
			c-0.7,0-1.4,1-1.4,2s0.7,2,1.4,2h23.4c0.7,0,1.4-1,1.4-2s-0.7-2-1.4-2H4.3z"/>
	</g>
	<g>
		<path fill="#FFFFFF" d="M29.1,16.7c0.6,0.6,0.7,1.5,0.2,2L18.3,29.8c-0.5,0.5-1.4,0.4-2-0.2l0,0c-0.6-0.6-0.7-1.5-0.2-2l11.1-11.1
			C27.7,16,28.5,16.1,29.1,16.7L29.1,16.7z"/>
		<path fill="#37474F" d="M17.4,30.6c-0.5,0-1.1-0.2-1.5-0.7c-0.4-0.4-0.7-1-0.7-1.5c0-0.5,0.2-0.9,0.5-1.2l11.1-11.1
			c0.7-0.7,1.9-0.6,2.7,0.2c0.4,0.4,0.7,1,0.7,1.5c0,0.5-0.2,0.9-0.5,1.2L18.6,30.1C18.3,30.4,17.9,30.6,17.4,30.6z M28,16.7
			c-0.1,0-0.3,0-0.5,0.2L16.4,27.9c-0.1,0.1-0.2,0.3-0.2,0.5c0,0.3,0.1,0.6,0.4,0.8c0.2,0.2,0.5,0.4,0.8,0.4c0.1,0,0.3,0,0.5-0.2
			L29,18.3c0.1-0.1,0.2-0.3,0.2-0.5c0-0.3-0.1-0.6-0.4-0.8C28.6,16.8,28.3,16.7,28,16.7z"/>
	</g>
	<g>
		<path fill="#37474F" d="M27.7,28.5c0,0.5-0.4,0.9-0.9,0.9l0,0c-0.5,0-0.9-0.4-0.9-0.9l0,0c0-0.5,0.4-0.9,0.9-0.9l0,0
			C27.3,27.6,27.7,28,27.7,28.5L27.7,28.5z"/>
	</g>
	<g>
		<polyline fill="#37474F" points="17.8,3.5 17.8,8.5 21.8,8.5 21.8,13.5 		"/>
	</g>
</g>
</svg>
