<?xml version="1.0" encoding="utf-8"?>
<!-- Generator: Adobe Illustrator 16.0.0, SVG Export Plug-In . SVG Version: 6.00 Build 0)  -->
<!DOCTYPE svg PUBLIC "-//W3C//DTD SVG 1.1//EN" "http://www.w3.org/Graphics/SVG/1.1/DTD/svg11.dtd">
<svg version="1.1" id="Layer_1" xmlns="http://www.w3.org/2000/svg" xmlns:xlink="http://www.w3.org/1999/xlink" x="0px" y="0px"
	 width="64px" height="64px" viewBox="0 0 64 64" enable-background="new 0 0 64 64" xml:space="preserve">
<g>
	<g>
		<polygon fill="#37474F" points="53.4,51.2 42.8,47.9 49.9,25 60.5,28.3 		"/>
		<path fill="#37474F" d="M53.4,52.2c-0.1,0-0.2,0-0.3,0l-10.6-3.3c-0.5-0.2-0.8-0.7-0.7-1.3l7.1-22.8c0.2-0.5,0.7-0.8,1.3-0.7
			l10.6,3.3c0.5,0.2,0.8,0.7,0.7,1.3l-7.1,22.8c-0.1,0.3-0.3,0.5-0.5,0.6C53.7,52.1,53.5,52.2,53.4,52.2z M44,47.2l8.7,2.7L59.2,29
			l-8.7-2.7L44,47.2z"/>
	</g>
	<g>
		<g>
			<g>
				<path fill="#FFFFFF" d="M19.1,25.5c0,4.3-2.1,7.7-4.6,7.7c-2.5,0-4.6-3.5-4.6-7.7c0-4.3,2.1-7.7,4.6-7.7
					C17.1,17.8,19.1,21.2,19.1,25.5z"/>
				<path fill="#37474F" d="M14.5,34.2c-3.1,0-5.6-3.8-5.6-8.7c0-4.9,2.5-8.7,5.6-8.7c3.1,0,5.6,3.8,5.6,8.7
					C20.1,30.4,17.7,34.2,14.5,34.2z M14.5,18.8c-1.9,0-3.6,3.1-3.6,6.7c0,3.6,1.7,6.7,3.6,6.7c1.7,0,3.6-2.7,3.6-6.7
					C18.1,21.5,16.3,18.8,14.5,18.8z"/>
			</g>
			<g>
				<polygon fill="#FFAB00" points="43.5,37.1 20.5,31.2 20.5,19.8 43.5,13.9 				"/>
				<path fill="#37474F" d="M43.5,38.1c-0.1,0-0.2,0-0.2,0l-23-5.9c-0.4-0.1-0.8-0.5-0.8-1V19.8c0-0.5,0.3-0.9,0.8-1l23-5.9
					c0.3-0.1,0.6,0,0.9,0.2c0.2,0.2,0.4,0.5,0.4,0.8v23.2c0,0.3-0.1,0.6-0.4,0.8C44,38,43.7,38.1,43.5,38.1z M21.5,30.4l21,5.4V15.2
					l-21,5.4V30.4z"/>
			</g>
			<g>
				<path fill="#FFAB00" d="M62.5,25.5c0,7.3-5.9,13.3-13.3,13.3c-7.3,0-13.3-5.9-13.3-13.3c0-7.3,5.9-13.3,13.3-13.3
					C56.5,12.2,62.5,18.2,62.5,25.5z"/>
				<path fill="#37474F" d="M49.2,39.8c-7.9,0-14.3-6.4-14.3-14.3c0-7.9,6.4-14.3,14.3-14.3c7.9,0,14.3,6.4,14.3,14.3
					C63.5,33.4,57.1,39.8,49.2,39.8z M49.2,13.2c-6.8,0-12.3,5.5-12.3,12.3c0,6.8,5.5,12.3,12.3,12.3c6.8,0,12.3-5.5,12.3-12.3
					C61.5,18.7,56,13.2,49.2,13.2z"/>
			</g>
			<g>
				<polygon fill="#FFECB3" points="49.2,38.4 36.4,25.5 49.2,12.6 62.1,25.5 				"/>
				<path fill="#37474F" d="M49.2,39.4L49.2,39.4c-0.3,0-0.5-0.1-0.7-0.3L35.7,26.2c-0.4-0.4-0.4-1,0-1.4l12.8-12.8
					c0.4-0.4,1-0.4,1.4,0l12.8,12.9c0.4,0.4,0.4,1,0,1.4L49.9,39.1C49.7,39.2,49.5,39.4,49.2,39.4z M37.8,25.5l11.4,11.4l11.4-11.4
					L49.2,14.1L37.8,25.5z"/>
			</g>
			<g>
				<polygon fill="#37474F" points="49.2,29.6 45.1,25.5 49.2,21.4 53.3,25.5 				"/>
				<path fill="#37474F" d="M49.2,30.6L49.2,30.6c-0.3,0-0.5-0.1-0.7-0.3l-4.1-4.1c-0.2-0.2-0.3-0.4-0.3-0.7s0.1-0.5,0.3-0.7
					l4.1-4.1c0.4-0.4,1-0.4,1.4,0l4.1,4.1c0.2,0.2,0.3,0.4,0.3,0.7s-0.1,0.5-0.3,0.7l-4.1,4.1C49.7,30.5,49.5,30.6,49.2,30.6z
					 M46.5,25.5l2.7,2.7l2.7-2.7l-2.7-2.7L46.5,25.5z"/>
			</g>
			<g>
				<g>
					<line fill="#FFECB3" x1="49.5" y1="13.2" x2="49.5" y2="37.2"/>
					<path fill="#37474F" d="M49.5,38.2c-0.6,0-1-0.4-1-1v-24c0-0.6,0.4-1,1-1s1,0.4,1,1v24C50.5,37.7,50.1,38.2,49.5,38.2z"/>
				</g>
				<g>
					<line fill="#FFECB3" x1="37.5" y1="25.2" x2="61.5" y2="25.2"/>
					<path fill="#37474F" d="M61.5,26.2h-24c-0.6,0-1-0.4-1-1s0.4-1,1-1h24c0.6,0,1,0.4,1,1S62.1,26.2,61.5,26.2z"/>
				</g>
			</g>
			<g>
				<g>
					<path fill="#FFECB3" d="M21.5,32.4c0,1-1,1.7-2,1.7l0,0c-0.9,0-2-0.8-2-1.7V18.6c0-1,1.1-1.7,2-1.7l0,0c1,0,2,0.8,2,1.7V32.4z"
						/>
					<path fill="#37474F" d="M19.5,35.2c-1.4,0-3-1.1-3-2.7V18.6c0-1.6,1.6-2.7,3-2.7s3,1.1,3,2.7v13.9C22.5,34,20.9,35.2,19.5,35.2
						z M19.5,17.8c-0.5,0-1,0.4-1,0.7v13.9c0,0.3,0.5,0.7,1,0.7s1-0.4,1-0.7V18.6C20.5,18.2,20,17.8,19.5,17.8z"/>
				</g>
				<g>
					<rect x="12.5" y="15.2" fill="#FFAB00" width="5" height="20"/>
					<path fill="#37474F" d="M17.5,36.2h-5c-0.6,0-1-0.4-1-1v-20c0-0.6,0.4-1,1-1h5c0.6,0,1,0.4,1,1v20
						C18.5,35.7,18.1,36.2,17.5,36.2z M13.5,34.2h3v-18h-3V34.2z"/>
				</g>
			</g>
			<g>
				<g>
					<line fill="#FFAB00" x1="21.5" y1="23.2" x2="35.5" y2="23.2"/>
					<path fill="#37474F" d="M35.5,24.2h-14c-0.6,0-1-0.4-1-1s0.4-1,1-1h14c0.6,0,1,0.4,1,1S36.1,24.2,35.5,24.2z"/>
				</g>
				<g>
					<line fill="#FFAB00" x1="21.5" y1="27.2" x2="35.5" y2="27.2"/>
					<path fill="#37474F" d="M35.5,28.2h-14c-0.6,0-1-0.4-1-1s0.4-1,1-1h14c0.6,0,1,0.4,1,1S36.1,28.2,35.5,28.2z"/>
				</g>
			</g>
			<g>
				<g>
					<g>
						<line fill="#FFECB3" x1="3.9" y1="8.8" x2="11.7" y2="16.7"/>
						<path fill="#37474F" d="M11.7,17.7c-0.3,0-0.5-0.1-0.7-0.3L3.2,9.5c-0.4-0.4-0.4-1,0-1.4c0.4-0.4,1-0.4,1.4,0l7.9,7.9
							c0.4,0.4,0.4,1,0,1.4C12.3,17.6,12,17.7,11.7,17.7z"/>
					</g>
					<g>
						<line fill="#FFECB3" x1="3.9" y1="42.2" x2="11.7" y2="34.3"/>
						<path fill="#37474F" d="M3.9,43.2c-0.3,0-0.5-0.1-0.7-0.3c-0.4-0.4-0.4-1,0-1.4l7.9-7.9c0.4-0.4,1-0.4,1.4,0s0.4,1,0,1.4
							l-7.9,7.9C4.4,43.1,4.1,43.2,3.9,43.2z"/>
					</g>
				</g>
				<g>
					<line fill="#FFECB3" x1="1.5" y1="25.2" x2="11.5" y2="25.2"/>
					<path fill="#37474F" d="M11.5,26.2h-10c-0.6,0-1-0.4-1-1s0.4-1,1-1h10c0.6,0,1,0.4,1,1S12.1,26.2,11.5,26.2z"/>
				</g>
			</g>
		</g>
		<g>
			<g>
				<g>
					<path fill="#37474F" d="M33.1,20.9c0-0.4,0.3-0.7,0.7-0.7c0.4,0,0.7,0.3,0.7,0.7c0,0.4-0.3,0.7-0.7,0.7
						C33.4,21.6,33.1,21.3,33.1,20.9z"/>
					<path fill="#37474F" d="M33.8,22.1c-0.6,0-1.2-0.5-1.2-1.2c0-0.6,0.5-1.2,1.2-1.2c0.3,0,0.6,0.1,0.8,0.4
						c0.2,0.2,0.3,0.5,0.3,0.8C35,21.5,34.5,22.1,33.8,22.1L33.8,22.1z M33.8,20.7c-0.1,0-0.2,0.1-0.2,0.2c0,0.1,0.1,0.2,0.2,0.2
						v0.5l0-0.5c0.1,0,0.2-0.1,0.2-0.2c0-0.1,0-0.1,0-0.1C33.9,20.7,33.9,20.7,33.8,20.7z"/>
				</g>
				<g>
					<path fill="#37474F" d="M28.4,20.9c0-0.4,0.3-0.7,0.7-0.7c0.4,0,0.7,0.3,0.7,0.7c0,0.4-0.3,0.7-0.7,0.7
						C28.7,21.6,28.4,21.3,28.4,20.9z"/>
					<path fill="#37474F" d="M29.1,22.1L29.1,22.1c-0.6,0-1.2-0.5-1.2-1.2c0-0.3,0.1-0.6,0.3-0.8c0.2-0.2,0.5-0.4,0.8-0.4
						c0.6,0,1.2,0.5,1.2,1.2C30.3,21.5,29.7,22.1,29.1,22.1z M29.1,20.7c-0.1,0-0.1,0-0.1,0.1c0,0,0,0.1,0,0.1
						c0,0.1,0.1,0.2,0.2,0.2c0.1,0,0.2-0.1,0.2-0.2C29.3,20.8,29.2,20.7,29.1,20.7z"/>
				</g>
				<g>
					<path fill="#37474F" d="M23.7,20.9c0-0.4,0.3-0.7,0.7-0.7c0.4,0,0.7,0.3,0.7,0.7c0,0.4-0.3,0.7-0.7,0.7
						C24,21.6,23.7,21.3,23.7,20.9z"/>
					<path fill="#37474F" d="M24.4,22.1L24.4,22.1C24.3,22.1,24.3,22.1,24.4,22.1c-0.7,0-1.2-0.5-1.2-1.2c0-0.6,0.5-1.2,1.2-1.2
						s1.2,0.5,1.2,1.2C25.5,21.5,25,22.1,24.4,22.1z M24.4,20.7c-0.1,0-0.2,0.1-0.2,0.2c0,0.1,0.1,0.2,0.2,0.2l0,0.5v-0.5
						c0.1,0,0.2-0.1,0.2-0.2C24.5,20.8,24.5,20.7,24.4,20.7z"/>
				</g>
			</g>
			<g>
				<g>
					<path fill="#37474F" d="M33.1,30.1c0-0.4,0.3-0.7,0.7-0.7c0.4,0,0.7,0.3,0.7,0.7c0,0.4-0.3,0.7-0.7,0.7
						C33.4,30.8,33.1,30.5,33.1,30.1z"/>
					<path fill="#37474F" d="M33.8,31.3c-0.6,0-1.2-0.5-1.2-1.2c0-0.7,0.5-1.2,1.2-1.2c0.3,0,0.6,0.1,0.8,0.4
						c0.2,0.2,0.3,0.5,0.3,0.8C35,30.7,34.5,31.3,33.8,31.3L33.8,31.3z M33.8,29.9c-0.1,0-0.2,0.1-0.2,0.2c0,0.1,0.1,0.2,0.2,0.2
						v0.5l0-0.5c0.1,0,0.2-0.1,0.2-0.2c0-0.1,0-0.1,0-0.1C33.9,29.9,33.9,29.9,33.8,29.9z"/>
				</g>
				<g>
					<path fill="#37474F" d="M28.4,30.1c0-0.4,0.3-0.7,0.7-0.7c0.4,0,0.7,0.3,0.7,0.7c0,0.4-0.3,0.7-0.7,0.7
						C28.7,30.8,28.4,30.5,28.4,30.1z"/>
					<path fill="#37474F" d="M29.1,31.3L29.1,31.3c-0.6,0-1.2-0.5-1.2-1.2c0-0.3,0.1-0.6,0.3-0.8c0.2-0.2,0.5-0.4,0.8-0.4
						c0.6,0,1.2,0.5,1.2,1.2C30.3,30.8,29.7,31.3,29.1,31.3z M29.1,29.9c-0.1,0-0.1,0-0.1,0.1c0,0,0,0.1,0,0.1
						c0,0.1,0.1,0.2,0.2,0.2c0.1,0,0.2-0.1,0.2-0.2C29.3,30,29.2,29.9,29.1,29.9z"/>
				</g>
				<g>
					<path fill="#37474F" d="M23.7,30.1c0-0.4,0.3-0.7,0.7-0.7c0.4,0,0.7,0.3,0.7,0.7c0,0.4-0.3,0.7-0.7,0.7
						C24,30.8,23.7,30.5,23.7,30.1z"/>
					<path fill="#37474F" d="M24.4,31.3L24.4,31.3L24.4,31.3c-0.7,0-1.2-0.5-1.2-1.2c0-0.7,0.5-1.2,1.2-1.2s1.2,0.5,1.2,1.2
						C25.5,30.7,25,31.3,24.4,31.3z M24.4,29.9c-0.1,0-0.2,0.1-0.2,0.2c0,0.1,0.1,0.2,0.2,0.2l0,0.5v-0.5c0.1,0,0.2-0.1,0.2-0.2
						C24.5,30,24.5,29.9,24.4,29.9z"/>
				</g>
			</g>
		</g>
	</g>
	<g>
		<rect x="39.5" y="48.2" fill="#FFAB00" width="17" height="4"/>
		<path fill="#37474F" d="M56.5,53.2h-17c-0.6,0-1-0.4-1-1v-4c0-0.6,0.4-1,1-1h17c0.6,0,1,0.4,1,1v4C57.5,52.7,57.1,53.2,56.5,53.2z
			 M40.5,51.2h15v-2h-15V51.2z"/>
	</g>
	<g>
		<rect x="40.5" y="51.2" fill="#FFECB3" width="15" height="4"/>
		<path fill="#37474F" d="M55.5,56.2h-15c-0.6,0-1-0.4-1-1v-4c0-0.6,0.4-1,1-1h15c0.6,0,1,0.4,1,1v4C56.5,55.7,56.1,56.2,55.5,56.2z
			 M41.5,54.2h13v-2h-13V54.2z"/>
	</g>
</g>
</svg>
