<?xml version="1.0" encoding="utf-8"?>
<!-- Generator: Adobe Illustrator 16.0.0, SVG Export Plug-In . SVG Version: 6.00 Build 0)  -->
<!DOCTYPE svg PUBLIC "-//W3C//DTD SVG 1.1//EN" "http://www.w3.org/Graphics/SVG/1.1/DTD/svg11.dtd">
<svg version="1.1" id="Layer_1" xmlns="http://www.w3.org/2000/svg" xmlns:xlink="http://www.w3.org/1999/xlink" x="0px" y="0px"
	 width="128px" height="128px" viewBox="0 0 128 128" enable-background="new 0 0 128 128" xml:space="preserve">
<g>
	<g>
		<rect x="88.2" y="53.3" fill="#B0BEC5" width="30" height="58"/>
		<path fill="#37474F" d="M118.2,112.8h-30c-0.8,0-1.5-0.7-1.5-1.5v-58c0-0.8,0.7-1.5,1.5-1.5h30c0.8,0,1.5,0.7,1.5,1.5v58
			C119.7,112.1,119.1,112.8,118.2,112.8z M89.7,109.8h27v-55h-27V109.8z"/>
	</g>
	<g>
		<rect x="36.2" y="65.3" fill="#B0BEC5" width="16" height="14"/>
		<path fill="#37474F" d="M52.2,80.8h-16c-0.8,0-1.5-0.7-1.5-1.5v-14c0-0.8,0.7-1.5,1.5-1.5h16c0.8,0,1.5,0.7,1.5,1.5v14
			C53.7,80.1,53.1,80.8,52.2,80.8z M37.7,77.8h13v-11h-13V77.8z"/>
	</g>
	<g>
		<rect x="40.2" y="4.3" fill="#B0BEC5" width="8" height="15"/>
		<path fill="#37474F" d="M48.2,20.8h-8c-0.8,0-1.5-0.7-1.5-1.5v-15c0-0.8,0.7-1.5,1.5-1.5h8c0.8,0,1.5,0.7,1.5,1.5v15
			C49.7,20.1,49.1,20.8,48.2,20.8z M41.7,17.8h5v-12h-5V17.8z"/>
	</g>
	<g>
		<rect x="88.2" y="34.3" fill="#78909C" width="30" height="59"/>
		<path fill="#37474F" d="M119.7,94.8h-33v-62h33V94.8z M89.7,91.8h27v-56h-27V91.8z"/>
	</g>
	<g>
		<polygon fill="#37474F" points="47.6,79.8 43.9,98 40.2,79.8 		"/>
	</g>
	<g>
		<rect x="28.2" y="52.3" fill="#FFAB00" width="32" height="14"/>
		<path fill="#37474F" d="M60.2,67.8h-32c-0.8,0-1.5-0.7-1.5-1.5v-14c0-0.8,0.7-1.5,1.5-1.5h32c0.8,0,1.5,0.7,1.5,1.5v14
			C61.7,67.1,61.1,67.8,60.2,67.8z M29.7,64.8h29v-11h-29V64.8z"/>
	</g>
	<g>
		<path fill="#FFFFFF" d="M118.2,13.3H37c-8.1,0-14.7,6.6-14.7,14.7v26.3h96V13.3z"/>
		<path fill="#37474F" d="M118.2,55.8h-96c-0.8,0-1.5-0.7-1.5-1.5V28c0-9,7.3-16.2,16.2-16.2h81.3c0.8,0,1.5,0.7,1.5,1.5v41
			C119.7,55.1,119.1,55.8,118.2,55.8z M23.7,52.8h93v-38H37c-7.3,0-13.2,5.9-13.2,13.2V52.8z"/>
	</g>
	<g>
		<g>
			<line fill="#B0BEC5" x1="96.7" y1="44.3" x2="110.7" y2="44.3"/>
			<path fill="#37474F" d="M110.7,45.8h-14c-0.8,0-1.5-0.7-1.5-1.5s0.7-1.5,1.5-1.5h14c0.8,0,1.5,0.7,1.5,1.5S111.6,45.8,110.7,45.8
				z"/>
		</g>
		<g>
			<line fill="#B0BEC5" x1="96.7" y1="34.3" x2="110.7" y2="34.3"/>
			<path fill="#37474F" d="M110.7,35.8h-14c-0.8,0-1.5-0.7-1.5-1.5s0.7-1.5,1.5-1.5h14c0.8,0,1.5,0.7,1.5,1.5S111.6,35.8,110.7,35.8
				z"/>
		</g>
		<g>
			<line fill="#B0BEC5" x1="96.7" y1="24.3" x2="110.7" y2="24.3"/>
			<path fill="#37474F" d="M110.7,25.8h-14c-0.8,0-1.5-0.7-1.5-1.5s0.7-1.5,1.5-1.5h14c0.8,0,1.5,0.7,1.5,1.5S111.6,25.8,110.7,25.8
				z"/>
		</g>
	</g>
	<g>
		<g>
			<path fill="#37474F" d="M53.8,42.4c0-0.9,0.8-1.7,1.7-1.7c0.9,0,1.7,0.8,1.7,1.7c0,0.9-0.8,1.7-1.7,1.7
				C54.5,44.1,53.8,43.4,53.8,42.4z"/>
			<path fill="#37474F" d="M55.4,44.6c-1.2,0-2.1-1-2.1-2.2c0-1.2,1-2.2,2.2-2.2c0.6,0,1.2,0.2,1.6,0.7c0.4,0.4,0.6,1,0.6,1.5
				C57.6,43.6,56.7,44.6,55.4,44.6L55.4,44.6z M55.5,41.2c-0.7,0-1.2,0.5-1.2,1.2c0,0.6,0.5,1.2,1.1,1.2v0.5l0-0.5
				c0.7,0,1.2-0.5,1.2-1.2c0-0.3-0.1-0.6-0.3-0.8C56.1,41.4,55.8,41.2,55.5,41.2z"/>
		</g>
		<g>
			<path fill="#37474F" d="M42,42.4c0-0.9,0.7-1.7,1.7-1.7c0.9,0,1.7,0.8,1.7,1.7c0,0.9-0.8,1.7-1.7,1.7C42.7,44.1,42,43.4,42,42.4z
				"/>
			<path fill="#37474F" d="M43.6,44.6L43.6,44.6c-1.2,0-2.2-1-2.2-2.2c0-0.6,0.2-1.1,0.6-1.5c0.4-0.4,1-0.6,1.5-0.6
				c1.2,0,2.2,1,2.2,2.2C45.8,43.6,44.8,44.6,43.6,44.6z M43.6,41.2c-0.3,0-0.6,0.1-0.8,0.4c-0.2,0.2-0.3,0.5-0.3,0.8
				c0,0.6,0.5,1.2,1.2,1.2c0.7,0,1.2-0.5,1.2-1.2C44.8,41.8,44.3,41.2,43.6,41.2z"/>
		</g>
		<g>
			<path fill="#37474F" d="M30.2,42.4c0-0.9,0.8-1.7,1.7-1.7c0.9,0,1.7,0.8,1.7,1.7c0,0.9-0.8,1.7-1.7,1.7
				C30.9,44.1,30.2,43.4,30.2,42.4z"/>
			<path fill="#37474F" d="M31.9,44.6L31.9,44.6C31.8,44.6,31.8,44.6,31.9,44.6c-1.3,0-2.2-1-2.2-2.2c0-1.2,1-2.2,2.2-2.2
				c1.2,0,2.2,1,2.2,2.2C34,43.6,33.1,44.6,31.9,44.6z M31.9,41.2c-0.6,0-1.2,0.5-1.2,1.2c0,0.6,0.5,1.2,1.1,1.2l0.1,0.5v-0.5
				c0.6,0,1.1-0.5,1.1-1.2C33,41.8,32.5,41.2,31.9,41.2z"/>
		</g>
	</g>
	<g>
		<path fill="#FFFFFF" d="M118.4,114.3c0,5.1-3.4,9-7.6,9H17c-4.2,0-7.6-3.9-7.6-9l0,0c0-5.1,3.4-9,7.6-9h93.8
			C115,105.3,118.4,109.2,118.4,114.3L118.4,114.3z"/>
		<path fill="#37474F" d="M110.8,124.8H17c-5.1,0-9.1-4.6-9.1-10.5c0-5.9,4-10.5,9.1-10.5h93.8c5.1,0,9.1,4.6,9.1,10.5
			C119.9,120.2,115.9,124.8,110.8,124.8z M17,106.8c-3.4,0-6.1,3.3-6.1,7.5c0,4.2,2.7,7.5,6.1,7.5h93.8c3.4,0,6.1-3.3,6.1-7.5
			c0-4.2-2.7-7.5-6.1-7.5H17z"/>
	</g>
	<g>
		<path fill="#FFFFFF" d="M116.6,67.5c2.4,2.4,2.7,5.9,0.7,7.9L73,119.7c-2,2-5.5,1.7-7.9-0.7l0,0c-2.4-2.4-2.7-6-0.7-7.9l44.3-44.3
			C110.6,64.7,114.2,65.1,116.6,67.5L116.6,67.5z"/>
		<path fill="#37474F" d="M69.8,122.5c-2.1,0-4.1-0.9-5.7-2.5c-1.6-1.6-2.5-3.6-2.5-5.7c0-1.7,0.6-3.2,1.7-4.4l44.3-44.3
			c1.1-1.1,2.7-1.7,4.3-1.7c2.1,0,4.1,0.9,5.7,2.5c1.6,1.6,2.5,3.6,2.5,5.7c0,1.7-0.6,3.2-1.7,4.4l-44.3,44.3
			C73,121.9,71.4,122.5,69.8,122.5z M111.9,66.9c-0.6,0-1.5,0.1-2.2,0.9l-44.3,44.3c-0.7,0.7-0.9,1.6-0.9,2.2c0,1.3,0.6,2.6,1.6,3.6
			c1,1,2.3,1.6,3.6,1.6c0.6,0,1.5-0.1,2.2-0.9l44.3-44.3c0.7-0.7,0.9-1.6,0.9-2.2c0-1.3-0.6-2.6-1.6-3.6
			C114.5,67.5,113.2,66.9,111.9,66.9z"/>
	</g>
	<g>
		<path fill="#37474F" d="M110.8,114.5c0,2-1.6,3.6-3.6,3.6l0,0c-2,0-3.6-1.6-3.6-3.6l0,0c0-2,1.6-3.6,3.6-3.6l0,0
			C109.2,111,110.8,112.6,110.8,114.5L110.8,114.5z"/>
	</g>
	<g>
		<polyline fill="#37474F" points="72.7,13.8 72.7,35.8 87.7,35.8 87.7,52.8 		"/>
	</g>
	<g>
		<polyline fill="#37474F" points="19.7,105.8 19.7,110.8 38.7,110.8 38.7,118.4 43.9,123.7 		"/>
	</g>
</g>
</svg>
