<?xml version="1.0" encoding="utf-8"?>
<!-- Generator: Adobe Illustrator 16.0.0, SVG Export Plug-In . SVG Version: 6.00 Build 0)  -->
<!DOCTYPE svg PUBLIC "-//W3C//DTD SVG 1.1//EN" "http://www.w3.org/Graphics/SVG/1.1/DTD/svg11.dtd">
<svg version="1.1" id="Layer_1" xmlns="http://www.w3.org/2000/svg" xmlns:xlink="http://www.w3.org/1999/xlink" x="0px" y="0px"
	 width="128px" height="128px" viewBox="0 0 128 128" enable-background="new 0 0 128 128" xml:space="preserve">
<g>
	<g>
		<path fill="#FFFFFF" d="M121.3,63.9c0,31.6-25.7,57.3-57.3,57.3c-31.7,0-57.3-25.7-57.3-57.3C6.7,32.2,32.3,6.6,64,6.6
			C95.7,6.6,121.3,32.2,121.3,63.9z"/>
		<path fill="#37474F" d="M64,122.7c-32.4,0-58.8-26.4-58.8-58.8C5.2,31.4,31.6,5.1,64,5.1s58.8,26.4,58.8,58.8
			C122.8,96.3,96.4,122.7,64,122.7z M64,8.1c-30.8,0-55.8,25-55.8,55.8c0,30.8,25,55.8,55.8,55.8s55.8-25,55.8-55.8
			C119.8,33.1,94.8,8.1,64,8.1z"/>
	</g>
	<g>
		<g>
			<polygon fill="#B0BEC5" points="67.6,124 20.6,124 27.3,42 61,42 			"/>
			<path fill="#37474F" d="M69.3,125.5H18.9l6.9-85h36.5L69.3,125.5z M22.2,122.5H66l-6.4-79H28.7L22.2,122.5z"/>
		</g>
		<g>
			<polyline fill="#FFECB3" points="29.7,24.5 29.7,5 58.7,5 58.7,12.5 			"/>
			<path fill="#37474F" d="M29.7,26c-0.8,0-1.5-0.7-1.5-1.5V5c0-0.8,0.7-1.5,1.5-1.5h29c0.8,0,1.5,0.7,1.5,1.5v7.5
				c0,0.8-0.7,1.5-1.5,1.5s-1.5-0.7-1.5-1.5v-6h-26v18C31.2,25.3,30.6,26,29.7,26z"/>
		</g>
		<g>
			<g>
				<g>
					<g>
						<path fill="#37474F" d="M36.3,55.9c-0.9,0-1.7-0.8-1.7-1.7c0-0.9,0.8-1.8,1.7-1.7c0.9,0,1.7,0.7,1.7,1.7
							C38,55.1,37.2,55.9,36.3,55.9z"/>
						<path fill="#37474F" d="M36.3,56.4c-1.2,0-2.2-1-2.2-2.2c0-0.6,0.2-1.1,0.6-1.6c0.4-0.4,1-0.7,1.5-0.7l0.1,0c0,0,0,0,0,0
							c1.2,0,2.2,0.9,2.2,2.2c0,0.5-0.2,1.1-0.6,1.5C37.4,56.2,36.9,56.4,36.3,56.4z M36.3,53c-0.4,0-0.7,0.1-0.9,0.4
							c-0.2,0.2-0.3,0.5-0.3,0.8c0,0.7,0.6,1.2,1.2,1.2c0.3,0,0.6-0.1,0.9-0.4c0.2-0.2,0.3-0.5,0.3-0.8C37.5,53.5,37,53,36.3,53
							C36.3,53,36.3,53,36.3,53z"/>
					</g>
					<g>
						<path fill="#37474F" d="M36.2,67.8c-0.9,0-1.7-0.7-1.7-1.7c0-1,0.8-1.8,1.7-1.8c0.9,0,1.7,0.8,1.7,1.7
							C38,67.1,37.2,67.8,36.2,67.8z"/>
						<path fill="#37474F" d="M36.2,68.3c-1.2,0-2.1-1-2.1-2.2c0-1.2,1-2.3,2.2-2.3c1.2,0,2.2,1,2.2,2.2
							C38.4,67.4,37.5,68.3,36.2,68.3L36.2,68.3z M36.3,64.9c-0.7,0-1.2,0.6-1.2,1.3c0,0.6,0.5,1.2,1.1,1.2v0.5l0-0.5
							c0.7,0,1.2-0.5,1.3-1.2C37.5,65.5,36.9,64.9,36.3,64.9z"/>
					</g>
					<g>
						<path fill="#37474F" d="M36.3,79.8c-0.9,0-1.7-0.8-1.7-1.7c0-0.9,0.8-1.7,1.7-1.7S38,77.1,38,78C38,79,37.2,79.8,36.3,79.8z"
							/>
						<path fill="#37474F" d="M36.3,80.3c-1.2,0-2.2-1-2.2-2.2c0-1.2,1-2.2,2.2-2.2c0.6,0,1.2,0.2,1.6,0.7c0.4,0.4,0.6,1,0.6,1.6
							c0,0.6-0.2,1.1-0.6,1.6C37.4,80,36.9,80.3,36.3,80.3z M36.3,76.8c-0.7,0-1.2,0.6-1.2,1.2c0,0.7,0.6,1.2,1.2,1.2
							c0.3,0,0.6-0.1,0.8-0.4c0.2-0.2,0.3-0.5,0.3-0.9c0-0.3-0.1-0.6-0.3-0.9C36.9,77,36.6,76.8,36.3,76.8z"/>
					</g>
				</g>
				<g>
					<g>
						<path fill="#37474F" d="M44.1,55.9c-0.9,0-1.7-0.8-1.7-1.7c0-0.9,0.8-1.8,1.7-1.7c1,0,1.7,0.7,1.7,1.7
							C45.8,55.1,45,55.9,44.1,55.9z"/>
						<path fill="#37474F" d="M44.1,56.4c-1.2,0-2.2-1-2.2-2.2c0-0.6,0.2-1.1,0.6-1.6c0.4-0.4,1-0.7,1.5-0.7l0.1,0c0,0,0,0,0,0
							c1.2,0,2.2,0.9,2.2,2.2c0,0.5-0.2,1.1-0.6,1.5C45.3,56.2,44.7,56.4,44.1,56.4z M44.1,53c-0.4,0-0.7,0.1-0.9,0.4
							c-0.2,0.2-0.3,0.5-0.3,0.8c0,0.7,0.6,1.2,1.2,1.2c0.3,0,0.6-0.1,0.9-0.4c0.2-0.2,0.3-0.5,0.3-0.8C45.3,53.5,44.8,53,44.1,53
							C44.1,53,44.1,53,44.1,53z"/>
					</g>
					<g>
						<path fill="#37474F" d="M44.1,67.8c-0.9,0-1.7-0.7-1.7-1.7c0-1,0.8-1.8,1.7-1.8c0.9,0,1.7,0.8,1.7,1.7
							C45.8,67.1,45,67.8,44.1,67.8z"/>
						<path fill="#37474F" d="M44,68.3c-1.2,0-2.1-1-2.1-2.2c0-1.2,1-2.3,2.2-2.3c1.2,0,2.2,1,2.2,2.2C46.3,67.4,45.3,68.3,44,68.3
							L44,68.3z M44.1,64.9c-0.7,0-1.2,0.6-1.2,1.3c0,0.6,0.5,1.2,1.1,1.2v0.5l0-0.5c0.7,0,1.2-0.5,1.3-1.2
							C45.3,65.5,44.8,64.9,44.1,64.9z"/>
					</g>
					<g>
						<path fill="#37474F" d="M44.1,79.8c-0.9,0-1.7-0.8-1.7-1.7c0-0.9,0.8-1.7,1.7-1.7c1,0,1.7,0.8,1.7,1.7
							C45.8,79,45.1,79.8,44.1,79.8z"/>
						<path fill="#37474F" d="M44.1,80.3c-1.2,0-2.2-1-2.2-2.2c0-1.2,1-2.2,2.2-2.2c0.6,0,1.2,0.2,1.6,0.7c0.4,0.4,0.6,1,0.6,1.6
							c0,0.6-0.2,1.1-0.6,1.6C45.3,80,44.7,80.3,44.1,80.3z M44.1,76.8c-0.7,0-1.2,0.6-1.2,1.2c0,0.7,0.6,1.2,1.2,1.2
							c0.3,0,0.6-0.1,0.8-0.4c0.2-0.2,0.3-0.5,0.3-0.9c0-0.3-0.1-0.6-0.3-0.9C44.7,77,44.4,76.8,44.1,76.8z"/>
					</g>
				</g>
				<g>
					<g>
						<path fill="#37474F" d="M51.9,55.9c-1,0-1.7-0.8-1.7-1.7c0-0.9,0.8-1.8,1.7-1.7c0.9,0,1.7,0.7,1.7,1.7
							C53.7,55.1,52.9,55.9,51.9,55.9z"/>
						<path fill="#37474F" d="M51.9,56.4c-1.2,0-2.2-1-2.2-2.2c0-0.6,0.2-1.1,0.6-1.6c0.4-0.4,1-0.7,1.5-0.7l0.1,0c0,0,0,0,0,0
							c1.2,0,2.2,0.9,2.2,2.2c0,0.5-0.2,1.1-0.6,1.5C53.1,56.2,52.5,56.4,51.9,56.4z M51.9,53c-0.4,0-0.7,0.1-0.9,0.4
							c-0.2,0.2-0.3,0.5-0.3,0.8c0,0.7,0.6,1.2,1.2,1.2c0.3,0,0.6-0.1,0.9-0.4c0.2-0.2,0.3-0.5,0.3-0.8C53.1,53.5,52.6,53,51.9,53
							C51.9,53,51.9,53,51.9,53z"/>
					</g>
					<g>
						<path fill="#37474F" d="M51.9,67.8c-0.9,0-1.7-0.7-1.7-1.7c0-1,0.8-1.8,1.7-1.8c0.9,0,1.7,0.8,1.7,1.7
							C53.6,67.1,52.9,67.8,51.9,67.8z"/>
						<path fill="#37474F" d="M51.9,68.3c-1.2,0-2.1-1-2.1-2.2c0-1.2,1-2.3,2.2-2.3c1.2,0,2.2,1,2.2,2.2
							C54.1,67.4,53.1,68.3,51.9,68.3L51.9,68.3z M51.9,64.9c-0.7,0-1.2,0.6-1.2,1.3c0,0.6,0.5,1.2,1.1,1.2v0.5l0-0.5
							c0.7,0,1.2-0.5,1.3-1.2C53.2,65.5,52.6,64.9,51.9,64.9z"/>
					</g>
					<g>
						<path fill="#37474F" d="M51.9,79.8c-1,0-1.7-0.8-1.7-1.7c0-0.9,0.8-1.7,1.7-1.7c0.9,0,1.7,0.8,1.7,1.7
							C53.7,79,52.9,79.8,51.9,79.8z"/>
						<path fill="#37474F" d="M51.9,80.3c-1.2,0-2.2-1-2.2-2.2c0-1.2,1-2.2,2.2-2.2c0.6,0,1.2,0.2,1.6,0.7c0.4,0.4,0.6,1,0.6,1.6
							c0,0.6-0.2,1.1-0.6,1.6C53.1,80,52.5,80.3,51.9,80.3z M51.9,76.8c-0.7,0-1.2,0.6-1.2,1.2c0,0.7,0.6,1.2,1.2,1.2
							c0.3,0,0.6-0.1,0.8-0.4c0.2-0.2,0.3-0.5,0.3-0.9c0-0.3-0.1-0.6-0.3-0.9C52.6,77,52.3,76.8,51.9,76.8z"/>
					</g>
				</g>
			</g>
			<g>
				<g>
					<g>
						<path fill="#37474F" d="M36.3,89.2c-0.9,0-1.7-0.8-1.7-1.7c0-1,0.8-1.7,1.7-1.7c0.9,0,1.7,0.7,1.7,1.7
							C38,88.4,37.2,89.2,36.3,89.2z"/>
						<path fill="#37474F" d="M36.3,89.7c-1.2,0-2.2-0.9-2.2-2.2c0-0.6,0.2-1.1,0.6-1.6c0.4-0.4,1-0.7,1.6-0.7c1.3,0,2.2,1,2.2,2.2
							c0,0.5-0.2,1.1-0.6,1.5C37.4,89.5,36.9,89.7,36.3,89.7z M36.3,86.3c-0.4,0-0.7,0.1-0.9,0.4c-0.2,0.2-0.3,0.5-0.3,0.8
							c0,0.7,0.6,1.2,1.2,1.2c0.3,0,0.6-0.1,0.9-0.4c0.2-0.2,0.3-0.5,0.3-0.8C37.5,86.8,36.9,86.3,36.3,86.3
							C36.3,86.3,36.3,86.3,36.3,86.3z"/>
					</g>
					<g>
						<path fill="#37474F" d="M36.2,101.1c-0.9,0-1.7-0.8-1.7-1.7c0-1,0.8-1.7,1.7-1.7c0.9,0,1.7,0.8,1.7,1.7
							C38,100.4,37.2,101.1,36.2,101.1z"/>
						<path fill="#37474F" d="M36.2,101.6c-1.2,0-2.1-1-2.1-2.2c0-1.2,1-2.2,2.2-2.2c1.2,0,2.2,1,2.2,2.2
							C38.4,100.7,37.5,101.6,36.2,101.6L36.2,101.6z M36.3,98.2c-0.7,0-1.2,0.5-1.2,1.2c0,0.6,0.5,1.2,1.1,1.2v0.5l0-0.5
							c0.7,0,1.2-0.5,1.3-1.2C37.5,98.8,36.9,98.2,36.3,98.2z"/>
					</g>
					<g>
						<path fill="#37474F" d="M36.3,113.1c-0.9,0-1.7-0.8-1.7-1.7c0-1,0.8-1.8,1.7-1.8s1.7,0.8,1.7,1.7
							C38,112.3,37.2,113.1,36.3,113.1z"/>
						<path fill="#37474F" d="M36.3,113.6c-1.2,0-2.2-1-2.2-2.2c0-1.2,1-2.3,2.2-2.3c0.6,0,1.2,0.2,1.6,0.7c0.4,0.4,0.6,1,0.6,1.6
							c0,0.6-0.2,1.1-0.6,1.6C37.4,113.3,36.9,113.6,36.3,113.6z M36.3,110.1c-0.7,0-1.2,0.6-1.2,1.3c0,0.7,0.6,1.2,1.2,1.2
							c0.3,0,0.6-0.1,0.8-0.4c0.2-0.2,0.3-0.5,0.3-0.9c0-0.3-0.1-0.6-0.3-0.9C36.9,110.3,36.6,110.1,36.3,110.1z"/>
					</g>
				</g>
				<g>
					<g>
						<path fill="#37474F" d="M44.1,89.2c-0.9,0-1.7-0.8-1.7-1.7c0-1,0.8-1.7,1.7-1.7c1,0,1.7,0.7,1.7,1.7
							C45.8,88.4,45,89.2,44.1,89.2z"/>
						<path fill="#37474F" d="M44.1,89.7c-1.2,0-2.2-0.9-2.2-2.2c0-0.6,0.2-1.1,0.6-1.6c0.4-0.4,1-0.7,1.6-0.7c1.3,0,2.2,1,2.2,2.2
							c0,0.5-0.2,1.1-0.6,1.5C45.3,89.5,44.7,89.7,44.1,89.7z M44.1,86.3c-0.4,0-0.7,0.1-0.9,0.4c-0.2,0.2-0.3,0.5-0.3,0.8
							c0,0.7,0.6,1.2,1.2,1.2c0.3,0,0.6-0.1,0.9-0.4c0.2-0.2,0.3-0.5,0.3-0.8C45.3,86.8,44.8,86.3,44.1,86.3
							C44.1,86.3,44.1,86.3,44.1,86.3z"/>
					</g>
					<g>
						<path fill="#37474F" d="M44.1,101.1c-0.9,0-1.7-0.8-1.7-1.7c0-1,0.8-1.7,1.7-1.7c0.9,0,1.7,0.8,1.7,1.7
							C45.8,100.4,45,101.1,44.1,101.1z"/>
						<path fill="#37474F" d="M44,101.6c-1.2,0-2.1-1-2.1-2.2c0-1.2,1-2.2,2.2-2.2c1.2,0,2.2,1,2.2,2.2
							C46.3,100.7,45.3,101.6,44,101.6L44,101.6z M44.1,98.2c-0.7,0-1.2,0.5-1.2,1.2c0,0.6,0.5,1.2,1.1,1.2v0.5l0-0.5
							c0.7,0,1.2-0.5,1.3-1.2C45.3,98.8,44.8,98.2,44.1,98.2z"/>
					</g>
					<g>
						<path fill="#37474F" d="M44.1,113.1c-0.9,0-1.7-0.8-1.7-1.7c0-1,0.8-1.8,1.7-1.8c1,0,1.7,0.8,1.7,1.7
							C45.8,112.3,45.1,113.1,44.1,113.1z"/>
						<path fill="#37474F" d="M44.1,113.6c-1.2,0-2.2-1-2.2-2.2c0-1.2,1-2.3,2.2-2.3c0.6,0,1.2,0.2,1.6,0.7c0.4,0.4,0.6,1,0.6,1.6
							c0,0.6-0.2,1.1-0.6,1.6C45.3,113.3,44.7,113.6,44.1,113.6z M44.1,110.1c-0.7,0-1.2,0.6-1.2,1.3c0,0.7,0.6,1.2,1.2,1.2
							c0.3,0,0.6-0.1,0.8-0.4c0.2-0.2,0.3-0.5,0.3-0.9c0-0.3-0.1-0.6-0.3-0.9C44.7,110.3,44.4,110.1,44.1,110.1z"/>
					</g>
				</g>
				<g>
					<g>
						<path fill="#37474F" d="M51.9,89.2c-1,0-1.7-0.8-1.7-1.7c0-1,0.8-1.7,1.7-1.7c0.9,0,1.7,0.7,1.7,1.7
							C53.7,88.4,52.9,89.2,51.9,89.2z"/>
						<path fill="#37474F" d="M51.9,89.7c-1.2,0-2.2-0.9-2.2-2.2c0-0.6,0.2-1.1,0.6-1.6c0.4-0.4,1-0.7,1.6-0.7c1.3,0,2.2,1,2.2,2.2
							c0,0.5-0.2,1.1-0.6,1.5C53.1,89.5,52.5,89.7,51.9,89.7z M51.9,86.3c-0.4,0-0.7,0.1-0.9,0.4c-0.2,0.2-0.3,0.5-0.3,0.8
							c0,0.7,0.6,1.2,1.2,1.2c0.3,0,0.6-0.1,0.9-0.4c0.2-0.2,0.3-0.5,0.3-0.8C53.1,86.8,52.6,86.3,51.9,86.3
							C51.9,86.3,51.9,86.3,51.9,86.3z"/>
					</g>
					<g>
						<path fill="#37474F" d="M51.9,101.1c-0.9,0-1.7-0.8-1.7-1.7c0-1,0.8-1.7,1.7-1.7c0.9,0,1.7,0.8,1.7,1.7
							C53.6,100.4,52.9,101.1,51.9,101.1z"/>
						<path fill="#37474F" d="M51.9,101.6c-1.2,0-2.1-1-2.1-2.2c0-1.2,1-2.2,2.2-2.2c1.2,0,2.2,1,2.2,2.2
							C54.1,100.7,53.1,101.6,51.9,101.6L51.9,101.6z M51.9,98.2c-0.7,0-1.2,0.5-1.2,1.2c0,0.6,0.5,1.2,1.1,1.2v0.5l0-0.5
							c0.7,0,1.2-0.5,1.3-1.2C53.2,98.8,52.6,98.2,51.9,98.2z"/>
					</g>
					<g>
						<path fill="#37474F" d="M51.9,113.1c-1,0-1.7-0.8-1.7-1.7c0-1,0.8-1.8,1.7-1.8c0.9,0,1.7,0.8,1.7,1.7
							C53.7,112.3,52.9,113.1,51.9,113.1z"/>
						<path fill="#37474F" d="M51.9,113.6c-1.2,0-2.2-1-2.2-2.2c0-1.2,1-2.3,2.2-2.3c0.6,0,1.2,0.2,1.6,0.7c0.4,0.4,0.6,1,0.6,1.6
							c0,0.6-0.2,1.1-0.6,1.6C53.1,113.3,52.5,113.6,51.9,113.6z M51.9,110.1c-0.7,0-1.2,0.6-1.2,1.3c0,0.7,0.6,1.2,1.2,1.2
							c0.3,0,0.6-0.1,0.8-0.4c0.2-0.2,0.3-0.5,0.3-0.9c0-0.3-0.1-0.6-0.3-0.9C52.6,110.3,52.3,110.1,51.9,110.1z"/>
					</g>
				</g>
			</g>
		</g>
		<g>
			<g>
				<polygon fill="#78909C" points="20.6,26 67.6,26 61,45 27.3,45 				"/>
				<path fill="#37474F" d="M61,46.5H27.3c-0.6,0-1.2-0.4-1.4-1l-6.7-19c-0.2-0.5-0.1-1,0.2-1.4s0.7-0.6,1.2-0.6h47.1
					c0.5,0,0.9,0.2,1.2,0.6c0.3,0.4,0.4,0.9,0.2,1.4l-6.7,19C62.2,46.1,61.6,46.5,61,46.5z M28.3,43.5h31.6l5.6-16H22.7L28.3,43.5z"
					/>
			</g>
			<g>
				<g>
					<g>
						<path fill="#FFAB00" d="M79.7,86v32.4c0,3,2.5,5.5,5.5,5.5c3,0,5.5-2.4,5.5-5.5V86H79.7z"/>
						<path fill="#37474F" d="M85.2,125.3c-3.9,0-7-3.1-7-7V86c0-0.8,0.7-1.5,1.5-1.5h11c0.8,0,1.5,0.7,1.5,1.5v32.4
							C92.2,122.2,89.1,125.3,85.2,125.3z M81.2,87.5v30.9c0,2.2,1.8,4,4,4c2.2,0,4-1.8,4-4V87.5H81.2z"/>
					</g>
					<g>
						<polygon fill="#FFECB3" points="92.3,87 77.4,87 77.4,81 92.3,81 						"/>
						<path fill="#37474F" d="M92.3,88.5C92.3,88.5,92.3,88.5,92.3,88.5H77.4c-0.8,0-1.5-0.7-1.5-1.5l0-6c0-0.4,0.2-0.8,0.4-1.1
							c0.3-0.3,0.7-0.4,1.1-0.4h14.9c0.8,0,1.5,0.7,1.5,1.5l0,5.8c0,0.1,0,0.2,0,0.3C93.8,87.8,93.2,88.5,92.3,88.5z M78.9,85.5
							h11.9l0-3H78.9L78.9,85.5z"/>
					</g>
				</g>
				<g>
					<rect x="80.7" y="46" fill="#B0BEC5" width="8" height="36"/>
					<path fill="#37474F" d="M90.2,83.5h-11v-39h11V83.5z M82.2,80.5h5v-33h-5V80.5z"/>
				</g>
				<g>
					<g>
						<rect x="77.7" y="4" fill="#B0BEC5" width="30" height="63"/>
						<path fill="#37474F" d="M109.2,68.5h-33v-66h33V68.5z M79.2,65.5h27v-60h-27V65.5z"/>
					</g>
					<g>
						<rect x="97.7" y="4" fill="#FFFFFF" width="10" height="63"/>
						<path fill="#37474F" d="M107.7,68.5h-10c-0.8,0-1.5-0.7-1.5-1.5V4c0-0.8,0.7-1.5,1.5-1.5h10c0.8,0,1.5,0.7,1.5,1.5v63
							C109.2,67.8,108.6,68.5,107.7,68.5z M99.2,65.5h7v-60h-7V65.5z"/>
					</g>
				</g>
				<g>
					<line fill="#B0BEC5" x1="78.1" y1="43.6" x2="97.2" y2="24.5"/>
					<path fill="#37474F" d="M78.1,45.1c-0.4,0-0.8-0.1-1.1-0.4c-0.6-0.6-0.6-1.5,0-2.1l19.1-19.1c0.6-0.6,1.5-0.6,2.1,0
						c0.6,0.6,0.6,1.5,0,2.1L79.1,44.6C78.9,44.9,78.5,45.1,78.1,45.1z"/>
				</g>
				<g>
					<line fill="#B0BEC5" x1="78.1" y1="53.4" x2="97.2" y2="34.3"/>
					<path fill="#37474F" d="M78.1,54.9c-0.4,0-0.8-0.1-1.1-0.4c-0.6-0.6-0.6-1.5,0-2.1l19.1-19.1c0.6-0.6,1.5-0.6,2.1,0
						c0.6,0.6,0.6,1.5,0,2.1L79.1,54.4C78.9,54.7,78.5,54.9,78.1,54.9z"/>
				</g>
				<g>
					<line fill="#B0BEC5" x1="78.1" y1="63.2" x2="97.2" y2="44"/>
					<path fill="#37474F" d="M78.1,64.7c-0.4,0-0.8-0.1-1.1-0.4c-0.6-0.6-0.6-1.5,0-2.1L96.1,43c0.6-0.6,1.5-0.6,2.1,0
						c0.6,0.6,0.6,1.5,0,2.1L79.1,64.2C78.9,64.5,78.5,64.7,78.1,64.7z"/>
				</g>
			</g>
		</g>
	</g>
</g>
</svg>
