<?xml version="1.0" encoding="iso-8859-1"?>
<!-- Generator: Adobe Illustrator 17.1.0, SVG Export Plug-In . SVG Version: 6.00 Build 0)  -->
<!DOCTYPE svg PUBLIC "-//W3C//DTD SVG 1.1//EN" "http://www.w3.org/Graphics/SVG/1.1/DTD/svg11.dtd">
<svg version="1.1" xmlns="http://www.w3.org/2000/svg" xmlns:xlink="http://www.w3.org/1999/xlink" x="0px" y="0px"
	 viewBox="0 0 1009.976 1009.988" style="enable-background:new 0 0 1009.976 1009.988;" xml:space="preserve">
<g id="mic">
	<path id="label_17_" style="fill:#EFEFEF;" d="M505,0C226.081,0,0,226.117,0,505c0,278.908,226.081,504.988,505,504.988
		c278.883,0,504.976-226.08,504.976-504.988C1009.976,226.117,783.883,0,505,0z"/>
	<g id="icon_19_">
		<g>
			<path style="fill:#434A54;" d="M277.523,712.855l6.455-5.016c15.065,9.516,35.08,9.143,49.949-2.42l107.663-83.766
				c-25.17-15.96-44.376-39.948-54.517-67.905l-106.598,82.946c-15.065,11.715-20.295,31.331-14.44,48.405l-6.308,4.899
				c-6.295,4.912-7.435,14-2.511,20.32C262.115,716.627,271.215,717.772,277.523,712.855z"/>
			<path style="fill:#434A54;" d="M319.719,597.867l51.1-39.771c-0.343-0.606-0.686-1.212-1.127-1.782
				c-4.704-6.033-13.412-7.117-19.475-2.444l-29.519,23.009c-6.062,4.685-7.141,13.412-2.438,19.457
				C318.703,596.918,319.192,597.39,319.719,597.867z"/>
			<path style="fill:#434A54;" d="M528.015,375.988c-69.804-5.016-130.445,47.511-135.479,117.327
				c-4.997,69.803,47.523,130.445,117.327,135.467c69.791,5.009,130.457-47.524,135.442-117.339
				C650.339,441.664,597.831,381.004,528.015,375.988z M596.716,575.575c-4.826-0.343-8.452-4.532-8.109-9.364
				c0.344-4.813,4.532-8.445,9.346-8.09c4.838,0.331,8.44,4.532,8.108,9.346C605.73,572.299,601.529,575.924,596.716,575.575z
				 M625.462,510.053c-0.869,12.199-3.797,23.854-8.378,34.559c-1.273,2.891-4.213,4.557-7.177,4.348
				c-0.797-0.061-1.58-0.245-2.364-0.569c-3.675-1.586-5.365-5.849-3.773-9.511c3.969-9.248,6.467-19.279,7.214-29.899
				c2.009-27.62-8.353-53.25-26.419-71.53l0,0c-2.806-2.842-2.781-7.441,0.061-10.24c2.83-2.799,7.423-2.78,10.228,0.055
				C615.725,448.364,627.753,478.103,625.462,510.053z"/>
		</g>
		<path style="fill:#1CABEA;" d="M682.994,435.27c-0.527,0.062-1.078,0.086-1.629,0.062c-4.349-0.318-7.656-4.103-7.338-8.39
			c1.862-26.738-18.58-50.059-45.526-51.994c-4.324-0.343-7.644-4.066-7.337-8.378c0.294-4.348,4.055-7.582,8.427-7.251
			c35.643,2.584,62.614,33.426,60.2,68.762C689.534,431.853,686.63,434.792,682.994,435.27z M723.658,430.53
			c1.812-26.089-6.736-51.327-24.056-71.175c-17.331-19.781-41.339-31.711-67.66-33.609c-4.36-0.331-8.157,2.915-8.464,7.232
			c-0.257,4.287,3.025,8.065,7.374,8.397c22.084,1.574,42.268,11.611,56.808,28.232c14.588,16.633,21.777,37.872,20.234,59.784
			c-0.307,4.305,2.977,8.084,7.35,8.372c0.526,0.055,1.065,0.037,1.603-0.061C720.449,437.254,723.388,434.29,723.658,430.53z
			 M755.528,432.839c2.401-34.534-8.892-67.997-31.821-94.202c-22.942-26.169-54.75-41.994-89.597-44.529
			c-4.36-0.306-8.12,2.952-8.415,7.257c-0.318,4.33,3.002,8.071,7.35,8.396c30.621,2.192,58.571,16.094,78.744,39.121
			c20.161,23.027,30.095,52.454,27.976,82.793c-0.281,4.342,2.977,8.072,7.349,8.409c0.552,0.037,1.066,0.018,1.617-0.061
			C752.368,439.557,755.271,436.581,755.528,432.839z"/>
	</g>
</g>
<g id="Layer_1">
</g>
</svg>
