<?xml version="1.0" encoding="iso-8859-1"?>
<!-- Generator: Adobe Illustrator 17.1.0, SVG Export Plug-In . SVG Version: 6.00 Build 0)  -->
<!DOCTYPE svg PUBLIC "-//W3C//DTD SVG 1.1//EN" "http://www.w3.org/Graphics/SVG/1.1/DTD/svg11.dtd">
<svg version="1.1" xmlns="http://www.w3.org/2000/svg" xmlns:xlink="http://www.w3.org/1999/xlink" x="0px" y="0px"
	 viewBox="0 0 1009.994 1009.988" style="enable-background:new 0 0 1009.994 1009.988;" xml:space="preserve">
<g id="wifi-signal">
	<path id="label_22_" style="fill:#EFEFEF;" d="M505,0C226.105,0,0,226.093,0,505c0,278.871,226.105,504.988,505,504.988
		c278.89,0,504.994-226.117,504.994-504.988C1009.994,226.093,783.89,0,505,0z"/>
	<g id="icon_24_">
		<path style="fill:#1CABEA;" d="M474.698,641.606c-16.352,16.37-16.352,42.882,0,59.221c16.352,16.364,42.912,16.364,59.276,0
			c16.364-16.352,16.339-42.882,0-59.221C517.635,625.236,491.074,625.236,474.698,641.606z"/>
		<path style="fill:#1CABEA;" d="M387.796,566.34c-11.783,11.783-11.783,30.823,0,42.612c11.807,11.771,30.866,11.771,42.624,0
			c41.228-41.112,107.865-41.112,149.117,0c11.759,11.771,30.842,11.771,42.601,0c11.733-11.716,11.759-30.866,0-42.612
			C557.393,501.632,452.565,501.632,387.796,566.34z"/>
		<path style="fill:#434A54;" d="M309.725,488.238c-11.759,11.783-11.734,30.823,0,42.612c11.783,11.776,30.829,11.776,42.612,0
			c84.452-84.153,220.831-84.153,305.296,0.025c11.734,11.752,30.866,11.752,42.576,0c11.782-11.789,11.782-30.854,0.049-42.637
			C592.35,380.428,417.571,380.428,309.725,488.238z"/>
		<path style="fill:#434A54;" d="M778.354,410.1c-150.998-150.943-395.751-150.943-546.737,0c-11.77,11.807-11.77,30.859,0,42.667
			c11.783,11.753,30.829,11.728,42.612-0.024c127.653-127.199,333.823-127.199,461.5,0c11.783,11.777,30.866,11.777,42.625,0.024
			C790.16,440.984,790.16,421.907,778.354,410.1z"/>
	</g>
</g>
<g id="Layer_1">
</g>
</svg>
