<?xml version="1.0" encoding="utf-8"?>
<!-- Generator: Adobe Illustrator 16.0.0, SVG Export Plug-In . SVG Version: 6.00 Build 0)  -->
<!DOCTYPE svg PUBLIC "-//W3C//DTD SVG 1.1//EN" "http://www.w3.org/Graphics/SVG/1.1/DTD/svg11.dtd">
<svg version="1.1" id="Layer_1" xmlns="http://www.w3.org/2000/svg" xmlns:xlink="http://www.w3.org/1999/xlink" x="0px" y="0px"
	 width="64px" height="64px" viewBox="0 0 64 64" enable-background="new 0 0 64 64" xml:space="preserve">
<g>
	<g>
		<path fill="#FFFFFF" d="M61.5,32c0,16.3-13.2,29.5-29.5,29.5C15.7,61.5,2.5,48.3,2.5,32C2.5,15.7,15.7,2.5,32,2.5
			C48.3,2.5,61.5,15.7,61.5,32z"/>
		<path fill="#37474F" d="M32,62.5C15.2,62.5,1.5,48.8,1.5,32C1.5,15.2,15.2,1.5,32,1.5c16.8,0,30.5,13.7,30.5,30.5
			C62.5,48.8,48.8,62.5,32,62.5z M32,3.5C16.3,3.5,3.5,16.3,3.5,32c0,15.7,12.8,28.5,28.5,28.5c15.7,0,28.5-12.8,28.5-28.5
			C60.5,16.3,47.7,3.5,32,3.5z"/>
	</g>
	<g>
		<g>
			<g>
				<path fill="#FFFFFF" d="M20.7,9.3c-0.3,2-0.6,9.2-0.6,11c0,9.8,5.3,17.8,11.9,17.8c6.6,0,11.9-8.1,11.9-17.8c0-1.8-0.2-9-0.6-11
					H20.7z"/>
				<path fill="#37474F" d="M32,39.2c-7.1,0-12.9-8.4-12.9-18.8c0-1.6,0.2-9,0.6-11.2c0.1-0.5,0.5-0.8,1-0.8h22.6
					c0.5,0,0.9,0.4,1,0.8c0.4,2.1,0.6,9.6,0.6,11.2C44.9,30.7,39.1,39.2,32,39.2z M21.6,10.3c-0.3,2.6-0.5,8.5-0.5,10
					c0,9.2,4.9,16.8,10.9,16.8s10.9-7.5,10.9-16.8c0-1.6-0.2-7.4-0.5-10H21.6z"/>
			</g>
		</g>
		<g>
			<g>
				<line fill="#FFFFFF" x1="32.1" y1="53.3" x2="32.1" y2="38.3"/>
				<path fill="#37474F" d="M32.1,54.3c-0.6,0-1-0.4-1-1v-15c0-0.6,0.4-1,1-1s1,0.4,1,1v15C33.1,53.9,32.7,54.3,32.1,54.3z"/>
			</g>
			<g>
				<line fill="#FFFFFF" x1="39.1" y1="53.3" x2="24.1" y2="53.3"/>
				<path fill="#37474F" d="M39.1,54.3h-15c-0.6,0-1-0.4-1-1s0.4-1,1-1h15c0.6,0,1,0.4,1,1S39.7,54.3,39.1,54.3z"/>
			</g>
		</g>
		<g>
			<path fill="#FFAB00" d="M20.1,21.3c0.2,9,5.4,17,11.9,17c6.4,0,11.6-8,11.9-17H20.1z"/>
			<path fill="#37474F" d="M32,39.4c-6.8,0-12.6-8.1-12.9-18c0-0.3,0.1-0.5,0.3-0.7s0.4-0.3,0.7-0.3h23.7c0.3,0,0.5,0.1,0.7,0.3
				s0.3,0.5,0.3,0.7C44.6,31.3,38.8,39.4,32,39.4z M21.2,22.3c0.6,8.2,5.4,15,10.8,15c5.4,0,10.2-6.8,10.8-15H21.2z"/>
		</g>
	</g>
	<g>
		<g>
			<g>
				<path fill="#FFFFFF" d="M43.1,32.3v16c0,2.9,2.6,5,5.5,5h6.6c2.9,0,4.9-2.1,4.9-5v-16H43.1z"/>
				<path fill="#37474F" d="M55.2,54.3h-6.6c-3.6,0-6.5-2.7-6.5-6v-16c0-0.6,0.4-1,1-1h17c0.6,0,1,0.4,1,1v16
					C61.1,51.8,58.6,54.3,55.2,54.3z M44.1,33.3v15c0,2.5,2.4,4,4.5,4h6.6c2.3,0,3.9-1.6,3.9-4v-15H44.1z"/>
			</g>
			<g>
				<path fill="#FFECB3" d="M43.1,39.3v9c0,2.9,2.6,5,5.5,5h6.6c2.9,0,4.9-2.1,4.9-5v-9H43.1z"/>
				<path fill="#37474F" d="M55.2,54.3h-6.6c-3.6,0-6.5-2.7-6.5-6v-9c0-0.6,0.4-1,1-1h17c0.6,0,1,0.4,1,1v9
					C61.1,51.8,58.6,54.3,55.2,54.3z M44.1,40.3v8c0,2.5,2.4,4,4.5,4h6.6c2.3,0,3.9-1.6,3.9-4v-8H44.1z"/>
			</g>
		</g>
		<g>
			<g>
				<path fill="#FFFFFF" d="M3.1,32.3v16c0,2.9,2.8,5,5.7,5h6.6c2.9,0,4.8-2.1,4.8-5v-16H3.1z"/>
				<path fill="#37474F" d="M15.4,54.3H8.8c-3.7,0-6.7-2.7-6.7-6v-16c0-0.6,0.4-1,1-1h17c0.6,0,1,0.4,1,1v16
					C21.1,51.9,18.7,54.3,15.4,54.3z M4.1,33.3v15c0,2.4,2.4,4,4.7,4h6.6c2.3,0,3.8-1.6,3.8-4v-15H4.1z"/>
			</g>
			<g>
				<path fill="#FFECB3" d="M3.1,39.3v9c0,2.9,2.8,5,5.7,5h6.6c2.9,0,4.8-2.1,4.8-5v-9H3.1z"/>
				<path fill="#37474F" d="M15.4,54.3H8.8c-3.7,0-6.7-2.7-6.7-6v-9c0-0.6,0.4-1,1-1h17c0.6,0,1,0.4,1,1v9
					C21.1,51.9,18.7,54.3,15.4,54.3z M4.1,40.3v8c0,2.4,2.4,4,4.7,4h6.6c2.3,0,3.8-1.6,3.8-4v-8H4.1z"/>
			</g>
		</g>
		<g>
			<g>
				<path fill="#37474F" d="M16.3,44.9c0-0.4,0.3-0.7,0.7-0.7c0.4,0,0.7,0.3,0.7,0.7c0,0.4-0.3,0.7-0.7,0.7
					C16.7,45.6,16.3,45.3,16.3,44.9z"/>
				<path fill="#37474F" d="M17,46.1c-0.7,0-1.2-0.6-1.2-1.2c0-0.7,0.5-1.2,1.2-1.2c0.3,0,0.7,0.1,0.9,0.4c0.2,0.2,0.3,0.5,0.3,0.9
					C18.3,45.6,17.7,46.1,17,46.1L17,46.1z M17.1,44.7c-0.1,0-0.2,0.1-0.2,0.2c0,0.1,0.1,0.2,0.2,0.2v0.5l0-0.5
					c0.1,0,0.2-0.1,0.2-0.2c0-0.1,0-0.1-0.1-0.2C17.2,44.7,17.1,44.7,17.1,44.7z"/>
			</g>
			<g>
				<path fill="#37474F" d="M11.4,44.9c0-0.4,0.3-0.7,0.7-0.7c0.4,0,0.7,0.3,0.7,0.7c0,0.4-0.3,0.7-0.7,0.7
					C11.7,45.6,11.4,45.3,11.4,44.9z"/>
				<path fill="#37474F" d="M12.1,46.1L12.1,46.1c-0.7,0-1.2-0.6-1.2-1.2c0-0.3,0.1-0.6,0.3-0.9c0.2-0.2,0.5-0.4,0.9-0.4
					c0.7,0,1.2,0.5,1.2,1.2C13.3,45.6,12.7,46.1,12.1,46.1z M12.1,44.7c-0.1,0-0.1,0-0.1,0.1c0,0-0.1,0.1-0.1,0.1
					c0,0.1,0.1,0.2,0.2,0.2c0.1,0,0.2-0.1,0.2-0.2C12.3,44.8,12.2,44.7,12.1,44.7z"/>
			</g>
			<g>
				<path fill="#37474F" d="M6.4,44.9c0-0.4,0.3-0.7,0.7-0.7c0.4,0,0.7,0.3,0.7,0.7c0,0.4-0.3,0.7-0.7,0.7
					C6.7,45.6,6.4,45.3,6.4,44.9z"/>
				<path fill="#37474F" d="M7.1,46.1L7.1,46.1c-0.7,0-1.2-0.6-1.2-1.2c0-0.7,0.6-1.2,1.2-1.2c0.7,0,1.2,0.5,1.2,1.2
					C8.3,45.6,7.8,46.1,7.1,46.1z M7.1,44.7c-0.1,0-0.2,0.1-0.2,0.2c0,0.1,0.1,0.2,0.2,0.2l0,0.5v-0.5c0.1,0,0.2-0.1,0.2-0.2
					C7.3,44.8,7.2,44.7,7.1,44.7z"/>
			</g>
		</g>
		<g>
			<g>
				<path fill="#37474F" d="M56.2,44.9c0-0.4,0.3-0.7,0.7-0.7c0.4,0,0.7,0.3,0.7,0.7c0,0.4-0.3,0.7-0.7,0.7
					C56.5,45.6,56.2,45.3,56.2,44.9z"/>
				<path fill="#37474F" d="M56.9,46.1c-0.7,0-1.2-0.5-1.2-1.2c0-0.7,0.5-1.2,1.2-1.2c0.3,0,0.7,0.1,0.9,0.4
					c0.2,0.2,0.3,0.5,0.3,0.9C58.1,45.6,57.6,46.1,56.9,46.1L56.9,46.1z M56.9,44.7c-0.1,0-0.2,0.1-0.2,0.2c0,0.1,0.1,0.2,0.2,0.2
					v0.5l0-0.5c0.1,0,0.2-0.1,0.2-0.2c0-0.1,0-0.1-0.1-0.2C57.1,44.7,57,44.7,56.9,44.7z"/>
			</g>
			<g>
				<path fill="#37474F" d="M51.2,44.9c0-0.4,0.3-0.7,0.7-0.7c0.4,0,0.7,0.3,0.7,0.7c0,0.4-0.3,0.7-0.7,0.7
					C51.5,45.6,51.2,45.3,51.2,44.9z"/>
				<path fill="#37474F" d="M51.9,46.1L51.9,46.1c-0.7,0-1.2-0.6-1.2-1.2c0-0.3,0.1-0.6,0.3-0.9c0.2-0.2,0.5-0.4,0.9-0.4
					c0.7,0,1.2,0.5,1.2,1.2C53.1,45.6,52.6,46.1,51.9,46.1z M51.9,44.7c-0.1,0-0.1,0-0.1,0.1c0,0-0.1,0.1-0.1,0.1
					c0,0.1,0.1,0.2,0.2,0.2c0.1,0,0.2-0.1,0.2-0.2C52.2,44.8,52.1,44.7,51.9,44.7z"/>
			</g>
			<g>
				<path fill="#37474F" d="M46.2,44.9c0-0.4,0.3-0.7,0.7-0.7c0.4,0,0.7,0.3,0.7,0.7c0,0.4-0.3,0.7-0.7,0.7
					C46.6,45.6,46.2,45.3,46.2,44.9z"/>
				<path fill="#37474F" d="M47,46.1L47,46.1c-0.7,0-1.2-0.6-1.2-1.2c0-0.7,0.6-1.2,1.2-1.2c0.7,0,1.2,0.5,1.2,1.2
					C48.2,45.6,47.6,46.1,47,46.1z M46.9,44.7c-0.1,0-0.2,0.1-0.2,0.2c0,0.1,0.1,0.2,0.2,0.2l0,0.5v-0.5c0.1,0,0.2-0.1,0.2-0.2
					C47.2,44.8,47.1,44.7,46.9,44.7z"/>
			</g>
		</g>
	</g>
	<g>
		<g>
			<path fill="#37474F" d="M36.3,25.6c0-0.4,0.3-0.7,0.7-0.7c0.4,0,0.7,0.3,0.7,0.7c0,0.4-0.3,0.7-0.7,0.7
				C36.6,26.3,36.3,26,36.3,25.6z"/>
			<path fill="#37474F" d="M37,26.8c-0.6,0-1.2-0.6-1.2-1.2c0-0.7,0.5-1.2,1.2-1.2c0.3,0,0.6,0.1,0.9,0.4c0.2,0.2,0.3,0.5,0.3,0.9
				C38.2,26.2,37.7,26.8,37,26.8L37,26.8z M37,25.3c-0.1,0-0.2,0.1-0.2,0.2c0,0.1,0.1,0.2,0.2,0.2v0.5l0-0.5c0.1,0,0.2-0.1,0.2-0.2
				c0-0.1,0-0.1-0.1-0.2C37.1,25.4,37.1,25.3,37,25.3z"/>
		</g>
		<g>
			<path fill="#37474F" d="M31.3,25.6c0-0.4,0.3-0.7,0.7-0.7c0.4,0,0.7,0.3,0.7,0.7c0,0.4-0.3,0.7-0.7,0.7
				C31.6,26.3,31.3,26,31.3,25.6z"/>
			<path fill="#37474F" d="M32,26.8L32,26.8c-0.7,0-1.2-0.6-1.2-1.2c0-0.3,0.1-0.6,0.3-0.9c0.2-0.2,0.5-0.4,0.9-0.4
				c0.7,0,1.2,0.5,1.2,1.2C33.2,26.3,32.7,26.8,32,26.8z M32,25.3c-0.1,0-0.1,0-0.1,0.1c0,0-0.1,0.1-0.1,0.1c0,0.1,0.1,0.2,0.2,0.2
				c0.1,0,0.2-0.1,0.2-0.2C32.2,25.5,32.1,25.3,32,25.3z"/>
		</g>
		<g>
			<path fill="#37474F" d="M26.3,25.6c0-0.4,0.3-0.7,0.7-0.7c0.4,0,0.7,0.3,0.7,0.7c0,0.4-0.3,0.7-0.7,0.7
				C26.6,26.3,26.3,26,26.3,25.6z"/>
			<path fill="#37474F" d="M27,26.8L27,26.8L27,26.8c-0.7,0-1.2-0.6-1.2-1.2c0-0.7,0.5-1.2,1.2-1.2c0.7,0,1.2,0.5,1.2,1.2
				C28.2,26.2,27.7,26.8,27,26.8z M27,25.3c-0.1,0-0.2,0.1-0.2,0.2c0,0.1,0.1,0.2,0.2,0.2l0,0.5v-0.5c0.1,0,0.2-0.1,0.2-0.2
				C27.2,25.4,27.1,25.3,27,25.3z"/>
		</g>
	</g>
</g>
</svg>
