<?xml version="1.0" encoding="utf-8"?>
<!-- Generator: Adobe Illustrator 16.0.0, SVG Export Plug-In . SVG Version: 6.00 Build 0)  -->
<!DOCTYPE svg PUBLIC "-//W3C//DTD SVG 1.1//EN" "http://www.w3.org/Graphics/SVG/1.1/DTD/svg11.dtd">
<svg version="1.1" id="Layer_1" xmlns="http://www.w3.org/2000/svg" xmlns:xlink="http://www.w3.org/1999/xlink" x="0px" y="0px"
	 width="64px" height="64px" viewBox="0 0 64 64" enable-background="new 0 0 64 64" xml:space="preserve">
<g>
	<g>
		<rect x="44.7" y="26.5" fill="#B0BEC5" width="14" height="29"/>
		<path fill="#37474F" d="M58.7,56.5h-14c-0.6,0-1-0.4-1-1v-29c0-0.6,0.4-1,1-1h14c0.6,0,1,0.4,1,1v29C59.7,56,59.3,56.5,58.7,56.5z
			 M45.7,54.5h12v-27h-12V54.5z"/>
	</g>
	<g>
		<rect x="17.7" y="32.5" fill="#B0BEC5" width="8" height="7"/>
		<path fill="#37474F" d="M25.7,40.5h-8c-0.6,0-1-0.4-1-1v-7c0-0.6,0.4-1,1-1h8c0.6,0,1,0.4,1,1v7C26.7,40,26.3,40.5,25.7,40.5z
			 M18.7,38.5h6v-5h-6V38.5z"/>
	</g>
	<g>
		<rect x="19.7" y="2.5" fill="#B0BEC5" width="4" height="7"/>
		<path fill="#37474F" d="M23.7,10.5h-4c-0.6,0-1-0.4-1-1v-7c0-0.6,0.4-1,1-1h4c0.6,0,1,0.4,1,1v7C24.7,10,24.3,10.5,23.7,10.5z
			 M20.7,8.5h2v-5h-2V8.5z"/>
	</g>
	<g>
		<rect x="44.7" y="17.5" fill="#78909C" width="14" height="29"/>
		<path fill="#37474F" d="M59.7,47.5h-16v-31h16V47.5z M45.7,45.5h12v-27h-12V45.5z"/>
	</g>
	<g>
		<polygon fill="#37474F" points="23.8,39.5 21.9,48.6 20.1,39.5 		"/>
	</g>
	<g>
		<rect x="13.7" y="25.5" fill="#FFAB00" width="16" height="8"/>
		<path fill="#37474F" d="M29.7,34.5h-16c-0.6,0-1-0.4-1-1v-8c0-0.6,0.4-1,1-1h16c0.6,0,1,0.4,1,1v8C30.7,34,30.3,34.5,29.7,34.5z
			 M14.7,32.5h14v-6h-14V32.5z"/>
	</g>
	<g>
		<path fill="#FFFFFF" d="M58.7,6.5H18.5c-4.1,0-7.7,3.2-7.7,7.3v13.7h48V6.5z"/>
		<path fill="#37474F" d="M58.7,28.5h-48c-0.6,0-1-0.4-1-1V13.8c0-4.5,4-8.3,8.7-8.3h40.3c0.6,0,1,0.4,1,1v21
			C59.7,28,59.3,28.5,58.7,28.5z M11.7,26.5h46v-19H18.5c-3.7,0-6.7,2.9-6.7,6.3V26.5z"/>
	</g>
	<g>
		<g>
			<line fill="#B0BEC5" x1="48.7" y1="21.5" x2="54.7" y2="21.5"/>
			<path fill="#37474F" d="M54.7,22.5h-6c-0.6,0-1-0.4-1-1s0.4-1,1-1h6c0.6,0,1,0.4,1,1S55.3,22.5,54.7,22.5z"/>
		</g>
		<g>
			<line fill="#B0BEC5" x1="48.7" y1="16.5" x2="54.7" y2="16.5"/>
			<path fill="#37474F" d="M54.7,17.5h-6c-0.6,0-1-0.4-1-1s0.4-1,1-1h6c0.6,0,1,0.4,1,1S55.3,17.5,54.7,17.5z"/>
		</g>
		<g>
			<line fill="#B0BEC5" x1="48.7" y1="11.5" x2="54.7" y2="11.5"/>
			<path fill="#37474F" d="M54.7,12.5h-6c-0.6,0-1-0.4-1-1s0.4-1,1-1h6c0.6,0,1,0.4,1,1S55.3,12.5,54.7,12.5z"/>
		</g>
	</g>
	<g>
		<g>
			<path fill="#37474F" d="M26.9,21c0-0.5,0.4-0.8,0.8-0.8c0.5,0,0.9,0.4,0.8,0.8c0,0.5-0.4,0.8-0.8,0.8
				C27.3,21.8,26.9,21.4,26.9,21z"/>
			<path fill="#37474F" d="M27.7,22.3c-0.7,0-1.3-0.6-1.3-1.3c0-0.7,0.6-1.3,1.3-1.3c0.4,0,0.7,0.1,1,0.4c0.3,0.3,0.4,0.6,0.4,1
				C29.1,21.7,28.5,22.3,27.7,22.3L27.7,22.3z M27.7,20.6c-0.2,0-0.3,0.2-0.3,0.3c0,0.2,0.1,0.3,0.3,0.3v0.5l0-0.5
				c0.2,0,0.4-0.2,0.4-0.3c0-0.1,0-0.2-0.1-0.2C27.9,20.7,27.8,20.6,27.7,20.6z"/>
		</g>
		<g>
			<path fill="#37474F" d="M21,21c0-0.5,0.4-0.8,0.8-0.8c0.5,0,0.8,0.4,0.9,0.8c0,0.5-0.4,0.8-0.9,0.8C21.4,21.8,21,21.4,21,21z"/>
			<path fill="#37474F" d="M21.8,22.3L21.8,22.3c-0.7,0-1.3-0.6-1.3-1.3c0-0.4,0.1-0.7,0.4-0.9c0.3-0.3,0.6-0.4,1-0.4
				c0.7,0,1.3,0.6,1.4,1.3C23.2,21.7,22.6,22.3,21.8,22.3z M21.8,20.6c-0.1,0-0.2,0-0.2,0.1c-0.1,0.1-0.1,0.1-0.1,0.2
				c0,0.2,0.1,0.3,0.3,0.4c0.2,0,0.4-0.2,0.4-0.4C22.2,20.8,22,20.6,21.8,20.6z"/>
		</g>
		<g>
			<path fill="#37474F" d="M15.1,21c0-0.5,0.4-0.8,0.8-0.8c0.5,0,0.8,0.4,0.8,0.8c0,0.5-0.4,0.8-0.8,0.8
				C15.5,21.8,15.1,21.4,15.1,21z"/>
			<path fill="#37474F" d="M15.9,22.3L15.9,22.3C15.9,22.3,15.9,22.3,15.9,22.3c-0.8,0-1.4-0.6-1.4-1.3c0-0.7,0.6-1.3,1.3-1.3
				c0.7,0,1.3,0.6,1.3,1.3C17.3,21.7,16.7,22.3,15.9,22.3z M15.9,20.6c-0.2,0-0.3,0.2-0.3,0.3c0,0.2,0.1,0.3,0.3,0.3l0,0.5v-0.5
				c0.2,0,0.3-0.2,0.3-0.3C16.3,20.8,16.1,20.6,15.9,20.6z"/>
		</g>
	</g>
	<g>
		<path fill="#FFFFFF" d="M59.2,57c0,2.5-1.7,4.5-3.8,4.5H8.5c-2.1,0-3.8-2-3.8-4.5l0,0c0-2.5,1.7-4.5,3.8-4.5h46.9
			C57.5,52.5,59.2,54.4,59.2,57L59.2,57z"/>
		<path fill="#37474F" d="M55.4,62.5H8.5c-2.7,0-4.8-2.4-4.8-5.5c0-3.1,2.1-5.5,4.8-5.5h46.9c2.7,0,4.8,2.4,4.8,5.5
			C60.2,60.1,58.1,62.5,55.4,62.5z M8.5,53.5c-1.6,0-2.8,1.5-2.8,3.5c0,2,1.2,3.5,2.8,3.5h46.9c1.6,0,2.8-1.5,2.8-3.5
			c0-2-1.2-3.5-2.8-3.5H8.5z"/>
	</g>
	<g>
		<path fill="#FFFFFF" d="M58.3,33.5c1.2,1.2,1.4,3,0.4,4L36.5,59.6c-1,1-2.8,0.8-4-0.4l0,0c-1.2-1.2-1.4-3-0.4-4l22.1-22.1
			C55.3,32.1,57.1,32.3,58.3,33.5L58.3,33.5z"/>
		<path fill="#37474F" d="M34.9,61.2c-1.1,0-2.2-0.5-3-1.3c-0.8-0.8-1.3-1.9-1.3-3c0-0.9,0.3-1.8,0.9-2.4l22.1-22.1
			c0.6-0.6,1.4-0.9,2.3-0.9c1.1,0,2.2,0.5,3,1.3c0.8,0.8,1.3,1.9,1.3,3c0,0.9-0.3,1.8-0.9,2.4L37.2,60.3
			C36.6,60.9,35.8,61.2,34.9,61.2z M56,33.5c-0.3,0-0.6,0.1-0.9,0.4L32.9,56c-0.3,0.3-0.4,0.7-0.4,0.9c0,0.6,0.3,1.2,0.7,1.6
			c0.5,0.5,1.1,0.7,1.6,0.7c0.3,0,0.6-0.1,0.9-0.4L58,36.8c0.3-0.3,0.4-0.7,0.4-0.9c0-0.6-0.3-1.2-0.7-1.6
			C57.1,33.7,56.5,33.5,56,33.5z"/>
	</g>
	<g>
		<path fill="#37474F" d="M55.4,57c0,1-0.8,1.8-1.8,1.8l0,0c-1,0-1.8-0.8-1.8-1.8l0,0c0-1,0.8-1.8,1.8-1.8l0,0
			C54.6,55.2,55.4,56,55.4,57L55.4,57z"/>
	</g>
	<g>
		<polyline fill="#37474F" points="35.7,6.5 35.7,17.5 43.7,17.5 43.7,26.5 		"/>
	</g>
	<g>
		<polyline fill="#37474F" points="9.7,52.5 9.7,55.5 18.7,55.5 18.7,59 21.6,61.5 		"/>
	</g>
</g>
</svg>
