<?xml version="1.0" encoding="utf-8"?>
<!-- Generator: Adobe Illustrator 16.0.0, SVG Export Plug-In . SVG Version: 6.00 Build 0)  -->
<!DOCTYPE svg PUBLIC "-//W3C//DTD SVG 1.1//EN" "http://www.w3.org/Graphics/SVG/1.1/DTD/svg11.dtd">
<svg version="1.1" id="Layer_1" xmlns="http://www.w3.org/2000/svg" xmlns:xlink="http://www.w3.org/1999/xlink" x="0px" y="0px"
	 width="24px" height="24px" viewBox="0 0 24 24" enable-background="new 0 0 24 24" xml:space="preserve">
<g>
	<path d="M17.3,0.5H7.5c-1.4,0-3,1-3,2.5v15v1.5c0,1.4,1.5,2.9,2.9,2.9c0.1,0.7,0.7,1.2,1.4,1.2c0.7,0,1.3-0.5,1.4-1.2h4.2
		c0.1,0.7,0.7,1.2,1.4,1.2c0.7,0,1.3-0.5,1.4-1.2c1.5,0,2.2-1.5,2.2-2.9V18v-15C19.5,1.5,18.7,0.5,17.3,0.5z M7.5,1.5h9.8
		c0.5,0,1.2,0.2,1.2,1.5v14.5h-13V3.1C5.5,2.2,6.5,1.5,7.5,1.5z M8.9,22.7c-0.1,0-0.3-0.1-0.4-0.2h0.7C9.1,22.7,9,22.7,8.9,22.7z
		 M15.9,22.7c-0.1,0-0.3-0.1-0.4-0.2h0.7C16.2,22.7,16.1,22.7,15.9,22.7z M18.5,19.6c0,0.2,0,2-1.2,2H7.5c-0.9,0-2-1-2-2v-1h13V19.6
		z"/>
	<path d="M15.3,9.2c0.3,0,0.5-0.2,0.5-0.5c0-0.1,0.2-0.2,0.3-0.2c0.2,0,0.3,0.1,0.3,0.2v4.5c0,0.1-0.2,0.2-0.3,0.2
		c-0.1,0-0.3-0.1-0.3-0.2c0-0.3-0.2-0.5-0.5-0.5s-0.5,0.2-0.5,0.5c0,0.7,0.6,1.2,1.3,1.2c0.6,0,1.3-0.5,1.3-1.2V8.7
		c0-0.7-0.7-1.2-1.3-1.2c-0.6,0-1.3,0.5-1.3,1.2C14.8,9,15,9.2,15.3,9.2z"/>
	<path d="M12.9,12.1c0.4,0,0.7-0.3,0.7-0.7c0-0.2-0.1-0.4-0.2-0.5c-0.1-0.1-0.3-0.2-0.5-0.2c-0.4,0-0.7,0.3-0.7,0.7
		C12.1,11.7,12.5,12.1,12.9,12.1z"/>
	<path d="M10.2,10.6c-0.2,0-0.4,0.1-0.5,0.2c-0.1,0.1-0.2,0.3-0.2,0.5c0,0.4,0.3,0.7,0.7,0.7c0.4,0,0.7-0.3,0.7-0.7
		C11,10.9,10.6,10.6,10.2,10.6z"/>
	<path d="M7.6,12.1c0.4,0,0.7-0.3,0.7-0.7c0-0.4-0.3-0.7-0.7-0.7c-0.4,0-0.7,0.3-0.7,0.7C6.9,11.7,7.2,12.1,7.6,12.1z"/>
	<path d="M7,21c0.3,0,0.5-0.2,0.5-0.5v-1C7.5,19.3,7.3,19,7,19s-0.5,0.2-0.5,0.5v1C6.5,20.8,6.7,21,7,21z"/>
	<path d="M9,21c0.3,0,0.5-0.2,0.5-0.5v-1C9.5,19.3,9.3,19,9,19s-0.5,0.2-0.5,0.5v1C8.5,20.8,8.7,21,9,21z"/>
	<path d="M8.9,6.1c1.1,0,2-0.9,2-2c0-1.1-0.9-2-2-2S7,3,7,4.1C7,5.2,7.8,6.1,8.9,6.1z M8.9,3.1c0.5,0,1,0.4,1,1c0,0.5-0.4,1-1,1
		s-1-0.4-1-1C8,3.6,8.4,3.1,8.9,3.1z"/>
</g>
</svg>
